<svg xmlns="http://www.w3.org/2000/svg" viewBox="0 0 164.94 210.38"><defs><style>.cls-1{fill:#fff;fill-rule:evenodd;}</style></defs><g id="Layer_2" data-name="Layer 2"><g id="Layer_1-2" data-name="Layer 1"><path id="path4138" class="cls-1" d="M44.06,40.08c23.77-13.14,48.16-14.84,70.64-8.71,1-7.68,1.51-14.38,5.77-23.62-5.64,4.1-9.27,8.76-13.42,13.78L105.65.11l-18,20L75.27,0,67.68,22.53,45.61,7l3.72,21.68c-5.07-4.21-10.72-8.41-16.39-10.75a71.56,71.56,0,0,1,11.12,22.2Z"/><path id="path4142" class="cls-1" d="M136,49.16c-6.29-5.23-12.61-9.79-26.49-13.2a24,24,0,0,1,2.28,9.86c-3.58-3.82-7.93-8.56-13.24-11.37C81,32.15,63,36.55,48.85,43.67a15.15,15.15,0,0,1,12.3,10.5C44.27,42.38,34.56,59.39,44.36,76.33c-10.53-5-11-17.25-7.81-25.29C28.64,57,16.56,68.61,9,84.28l9.66,1.36C7,99.38,1.14,119.16,0,130.79l15.72-5.09c-5,18-1,46.08,5.36,56.32,9.81-7.72,17.68-17.37,25.82-29.63,5.16,16.3,4.23,33.27.22,50.56,22.93,13,51.46,7.72,70.16-6.38.8,3.34,1.34,4.91,2.9,12.17,22.69-15.72,30.39-35,32.59-53.6l7.39,8.16c9.88-31.91,4-57.84-13.56-83l-.73,5.86c-2-2.56-5.38-5.67-6.93-7.63-.25-.3-.19-.48-.35-.73.83-.5,2.37-1.22,2.77-2.32-.16-1.52-1.93-5.45-3.23-6.18-3.26.3-5.86,3.15-5.89,4.19A19.74,19.74,0,0,0,124,68.35a37.4,37.4,0,0,1,5.9,8.72,117.52,117.52,0,0,1,12.71,11.09l-.78.79c-4.44-3.48-16.32-3.18-22.86.12a120.32,120.32,0,0,0-12-12.73c-1.26-2.14-1.37-6,2.63-9.3-4.42.39-6.26,2.3-8.34,4.07a39.67,39.67,0,0,0-13.7-6.62c-5.14,1-11.34,4.34-13.73,7.22,6,3.21,7.83,4.18,11.47,4.44,5.34.37,10-.84,13.4,1.35,4.24,3.76,12.18,10.81,13.31,14-6.86-3.93-17.14-1.85-28.56-2.45-10.8-1.29-16.75-9.28-16.86-15.71l-7.68-1.22a27.93,27.93,0,0,1,13.82-10l-4.21-3.49c6.75-5.81,17.24-10.46,27.93-11.38a96.91,96.91,0,0,1,18.1,11.26c2-3.29,2.25-6.86,2.5-9.2a89.88,89.88,0,0,1,24.76,17.57A50,50,0,0,1,136,49.16Zm-33,79C99.81,122,96.64,114.93,92.92,109c7.19-5.16,14-10.5,25.65-13.48a37.27,37.27,0,0,0,11.26,6.38v12.3c-7.33,5-14.66,13.21-26.77,14Zm24.41-2.26h8.88c1.5,1.41,4.64,6.21,4.86,9.94-.69,5.3-4.8,15-12,18.76A50.15,50.15,0,0,0,128,141c-4.12,4.64-10.83,6.73-14.29,7.5a61.12,61.12,0,0,0-6.1-11.53c6.19-1.29,14-5.83,19.87-11ZM144.79,96c5.85,12.39,4.59,24.27.49,30.36a37.81,37.81,0,0,0-9.1-12l.14-12a35.31,35.31,0,0,0,8.47-6.3Z"/></g></g></svg>