<svg xmlns="http://www.w3.org/2000/svg" viewBox="0 0 153.46 175.25"><defs><style>.cls-1,.cls-6{fill:#13130a;}.cls-1,.cls-3,.cls-4,.cls-5,.cls-7,.cls-9{fill-rule:evenodd;}.cls-10,.cls-2,.cls-8{fill:none;}.cls-2{stroke:#fff;stroke-width:2.36px;}.cls-3{fill:#fff;}.cls-4{fill:#d31216;}.cls-5{fill:#3eabe1;}.cls-7{fill:#fdc300;}.cls-8{stroke:#fc0;stroke-width:0.57px;}.cls-9{fill:#17a638;}.cls-10{stroke:#2b2523;stroke-width:0px;}</style></defs><g id="Layer_2" data-name="Layer 2"><g id="Layer_1-2" data-name="Layer 1"><path class="cls-1" d="M131.81,124.66a71.19,71.19,0,0,1-108.6.46L7.74,143.73a95.13,95.13,0,0,0,139.62-.33Z"/><path class="cls-2" d="M131.81,124.66a71.19,71.19,0,0,1-108.6.46L7.74,143.73a95.13,95.13,0,0,0,139.62-.33Z"/><path class="cls-1" d="M119.57,53.4V136a5.63,5.63,0,0,1-3.63,5.25L77.57,156.14,39.2,141.27A5.65,5.65,0,0,1,35.57,136V53.4Z"/><path class="cls-2" d="M119.57,53.4V136a5.63,5.63,0,0,1-3.63,5.25L77.57,156.14,39.2,141.27A5.65,5.65,0,0,1,35.57,136V53.4Z"/><polygon class="cls-3" points="37.56 117.18 37.56 66.26 117.55 66.26 117.57 117.18 37.56 117.18"/><path class="cls-4" d="M117.57,112.4a5.27,5.27,0,0,1-4.44,1.92c-2,0-3.76-.79-4.45-1.94a6.1,6.1,0,0,1-8.9,0,5.25,5.25,0,0,1-4.44,1.92,5.19,5.19,0,0,1-4.45-1.94h0a6.06,6.06,0,0,1-8.87,0,5.31,5.31,0,0,1-4.46,1.92,5.22,5.22,0,0,1-4.45-1.94h0a5.22,5.22,0,0,1-4.44,1.94,5.26,5.26,0,0,1-4.46-1.92,5.26,5.26,0,0,1-4.45,1.92,5.2,5.2,0,0,1-4.44-1.94h0a5.16,5.16,0,0,1-4.43,1.94,5.27,5.27,0,0,1-4.46-1.92v0c-.7,1.13-2.42,1.89-4.42,1.89s-3.76-.79-4.45-1.94v-.09l0,22.5a5.34,5.34,0,0,0,3.47,5L77.57,154l36.53-14.19a5.34,5.34,0,0,0,3.47-5V112.4Z"/><path class="cls-5" d="M117.57,110.05a6.11,6.11,0,0,1-8.89,0,5.34,5.34,0,0,1-4.46,1.92,5.27,5.27,0,0,1-4.44-1.92,6.11,6.11,0,0,1-8.89,0h0a6.08,6.08,0,0,1-8.87,0,6.13,6.13,0,0,1-8.91,0h0A5.32,5.32,0,0,1,68.67,112a5.28,5.28,0,0,1-4.46-1.92A5.29,5.29,0,0,1,59.76,112a5.29,5.29,0,0,1-4.44-1.92h0A5.26,5.26,0,0,1,50.87,112a5.3,5.3,0,0,1-4.46-1.92v0A5.22,5.22,0,0,1,42,112a5.26,5.26,0,0,1-4.45-1.92v-2.79A5.22,5.22,0,0,0,42,109.2a5.24,5.24,0,0,0,4.42-1.92,5.3,5.3,0,0,0,4.46,1.92,5.22,5.22,0,0,0,4.43-1.94h0a5.25,5.25,0,0,0,4.44,1.94,5.29,5.29,0,0,0,4.45-1.92,5.28,5.28,0,0,0,4.46,1.92,5.28,5.28,0,0,0,4.44-1.94h0a5.27,5.27,0,0,0,4.45,1.94A5.34,5.34,0,0,0,82,107.28a6.06,6.06,0,0,0,8.87,0h0a6.08,6.08,0,0,0,8.89,0,6.1,6.1,0,0,0,8.9,0,5.23,5.23,0,0,0,4.45,1.94,5.29,5.29,0,0,0,4.44-1.92Z"/><path class="cls-5" d="M117.57,105a6.13,6.13,0,0,1-8.89,0,5.33,5.33,0,0,1-4.46,1.91A5.26,5.26,0,0,1,99.78,105a6.13,6.13,0,0,1-8.89,0h0A6.1,6.1,0,0,1,82,105a6.15,6.15,0,0,1-8.91,0h0a5.32,5.32,0,0,1-4.44,1.91A5.28,5.28,0,0,1,64.21,105a5.28,5.28,0,0,1-4.45,1.91A5.29,5.29,0,0,1,55.32,105h0a5.26,5.26,0,0,1-4.43,1.91A5.29,5.29,0,0,1,46.41,105v0c-.7,1.13-2.42,1.88-4.42,1.88A5.26,5.26,0,0,1,37.54,105v-2.79A5.24,5.24,0,0,0,42,104.17a5.21,5.21,0,0,0,4.42-1.92,5.27,5.27,0,0,0,4.46,1.92,5.24,5.24,0,0,0,4.43-1.93h0a5.27,5.27,0,0,0,4.44,1.93,5.26,5.26,0,0,0,4.45-1.92,5.26,5.26,0,0,0,4.46,1.92,5.3,5.3,0,0,0,4.44-1.93h0a6.12,6.12,0,0,0,8.91,0,6.07,6.07,0,0,0,8.87,0h0a6.09,6.09,0,0,0,8.89,0,5.24,5.24,0,0,0,4.44,1.92,5.31,5.31,0,0,0,4.46-1.93,6.09,6.09,0,0,0,8.89,0Z"/><path class="cls-1" d="M83.43,138s3.92,6.13,1.86,4.41a33.61,33.61,0,0,1-5.06-6.75l-8,3.13s-4.62,5.62-3.59,3.14c.74-1.8,3-4.71,4.9-6.92L68,128.39s-6.78-2.64-4.09-2.44c1.76.13,5.43,1.45,8.07,2.52l4.59-7.31s.43-7.27,1.07-4.66c.45,1.8.31,5.68.09,8.56l8.42,2s7-1.84,4.75-.43a32.91,32.91,0,0,1-7.93,2.74Z"/><path class="cls-6" d="M85.49,142.2h0c.49.41-2.31-4-2.32-4l0-.07v-.08l-.49-8.62v-.26l.25-.06c1.54-.37,3.29-.86,4.82-1.38a16.07,16.07,0,0,0,3-1.32h0c.52-.32-4.49,1-4.5,1h-.15l-8.42-2-.26-.06,0-.27c.12-1.62.22-3.56.2-5.25a15,15,0,0,0-.28-3.2h0c-.15-.62-.46,4.59-.46,4.61l0,.14-4.59,7.31-.14.22-.23-.09c-1.48-.6-3.29-1.28-4.9-1.78a15,15,0,0,0-3.08-.72c-.58,0,4.21,1.83,4.22,1.84l.13.09,5.51,6.66.17.2-.17.2c-1,1.22-2.22,2.67-3.18,4a16.55,16.55,0,0,0-1.67,2.8c-.22.56,3.06-3.44,3.07-3.45l.06-.06.07,0,8.05-3.13.24-.09.14.22c.81,1.34,1.8,2.84,2.77,4.14a16.56,16.56,0,0,0,2.22,2.53m-1.75-4.26c.48.76,4.79,7.62,1.35,4.74h0A17.39,17.39,0,0,1,82.77,140c-.93-1.24-1.87-2.67-2.67-4l-7.73,3c-.58.7-5.79,6.94-4.07,2.76A16.32,16.32,0,0,1,70,138.91c.91-1.29,2-2.67,3-3.87l-5.3-6.39c-.83-.33-8.41-3.35-3.88-3h0a16.85,16.85,0,0,1,3.23.74c1.53.48,3.25,1.12,4.7,1.7l4.41-7c.05-.89.61-9,1.67-4.63h0a15.81,15.81,0,0,1,.29,3.35c0,1.63-.07,3.47-.18,5l8.09,2c.85-.23,8.78-2.24,4.91.15h0a16.85,16.85,0,0,1-3.14,1.37c-1.47.51-3.13,1-4.63,1.34Z"/><path class="cls-3" d="M77,136.41a.31.31,0,0,0,.25.2c.09,0,.16-.08.23-.2a4.83,4.83,0,0,0,.13-1.71s.06-3.44,2.62.25c7.19,10.36-3,10.42-3,10.42h.1s-10.23-.06-3-10.42c2.57-3.69,2.6-.25,2.6-.25a4.62,4.62,0,0,0,.16,1.72Z"/><path class="cls-6" d="M77.24,136.13a2,2,0,0,0,0-.3c0-.27,0-.63,0-1.13h0s.06-4.39,3.18.08h0c7.12,10.27-2.18,10.87-3.21,10.9h-.1c-1,0-10.33-.63-3.19-10.9,3.12-4.48,3.16-.09,3.16-.08h0a10.81,10.81,0,0,0,0,1.13c0,.12,0,.22,0,.3m-.18.72-.24-.2.1-.13-.18,0a2,2,0,0,1-.16-.68c0-.29,0-.68,0-1.19h0c0-.1-.06-2.4-2,.43-6.57,9.45,2,9.9,2.73,9.93h0c.77,0,9.3-.48,2.75-9.93h0c-2-2.81-2-.58-2-.43h0c0,.51,0,.9,0,1.18a2.19,2.19,0,0,1-.13.65l-.08.11-.23.2-.2.18Z"/><path class="cls-3" d="M71.75,132.26c-.09.09-.13.18-.09.26a.22.22,0,0,0,.24.17h0a4.63,4.63,0,0,0,1.68-.36s3.28-1,.57,2.54c-7.64,10-10.84.35-10.84.35v.06s-3.08-9.75,9-6.11c4.32,1.29,1,2.4,1,2.4a4,4,0,0,0-1.58.69Z"/><path class="cls-6" d="M72.13,132.36a6,6,0,0,0,1.34-.33h0s4.21-1.29.91,3c-7.67,10.08-11.09,1.09-11.36.32h0s-3.26-10.31,9.37-6.5c5.23,1.56,1.06,3,1,3h0a8.08,8.08,0,0,0-1.06.37l-.23.12m-.61-.31h0a1.94,1.94,0,0,1,.58-.36,8.25,8.25,0,0,1,1.12-.4h0s2.36-.8-1-1.81c-10.92-3.3-8.86,4.8-8.62,5.65h0s3,9.13,10.29-.44c2.13-2.78-.23-2.06-.23-2.06h0a6.24,6.24,0,0,1-.94.26l.17.13h-1v-.29l-.16.23-.25-.17-.13-.09v-.12H71Z"/><path class="cls-3" d="M74.05,125.94a.23.23,0,0,0-.29,0,.24.24,0,0,0-.09.27h0a4,4,0,0,0,.9,1.49s2,2.8-2.28,1.32c-11.89-4.15-3.66-10.2-3.66-10.2l-.06,0s8.29-5.95,8.59,6.66c.1,4.49-2,1.72-2,1.72A4.46,4.46,0,0,0,74.05,125.94Z"/><path class="cls-6" d="M74.07,126.34a5.36,5.36,0,0,0,.74,1.16l0,0s2.51,3.59-2.63,1.8c-11.94-4.17-4.46-10.21-3.8-10.71h0s8.77-6.29,9.07,6.91c.13,5.45-2.52,1.92-2.52,1.91h0a7.57,7.57,0,0,0-.63-.82,2,2,0,0,0-.23-.25m-.31-.71h.37l.07,0a2.29,2.29,0,0,1,.57.51,9.63,9.63,0,0,1,.66.86c.07.1,1.49,1.92,1.42-1.52-.27-11.41-7.29-7-8-6.46h0s-7.76,5.7,3.58,9.66c3.21,1.12,2-.71,1.92-.85a6.15,6.15,0,0,1-.94-1.57l.19-.07-.21,0h0l.18,0-.16,0,.08-.28.06-.22Z"/><path class="cls-3" d="M80.8,126.19a.29.29,0,0,0-.08-.29.34.34,0,0,0-.3,0,3.9,3.9,0,0,0-1.14,1.28s-2.06,2.75-2-1.72c.28-12.61,8.58-6.66,8.58-6.66l-.06,0s8.24,6-3.68,10.21c-4.23,1.48-2.25-1.33-2.25-1.33A4.1,4.1,0,0,0,80.8,126.19Z"/><path class="cls-6" d="M80.4,126.33c-.07.06-.14.14-.24.24s-.37.46-.63.83h0s-2.63,3.52-2.52-1.92c.29-12.62,8.3-7.43,9-6.94h0l.06,0h0c.75.58,8,6.56-3.83,10.7-5.14,1.8-2.61-1.79-2.6-1.79v0a7.09,7.09,0,0,0,.73-1.16m.62-.5.08.29.1.38H81a8.16,8.16,0,0,1-.83,1.37c-.1.14-1.3,2,1.88.85,10.8-3.77,4.36-9.09,3.66-9.63h0c-.39-.27-7.81-5.3-8.08,6.42-.07,3.39,1.3,1.67,1.41,1.54a6.76,6.76,0,0,1,.67-.88,2.15,2.15,0,0,1,.58-.5l.1,0,.31,0,.27,0Z"/><path class="cls-3" d="M82.63,132.69a.24.24,0,0,0,.25-.17c0-.08,0-.17-.1-.26a4.13,4.13,0,0,0-1.59-.69s-3.26-1.11,1-2.4c12.09-3.64,9,6.11,9,6.11l0-.06s-3.21,9.69-10.84-.35c-2.73-3.55.56-2.54.56-2.54A4.7,4.7,0,0,0,82.63,132.69Z"/><path class="cls-6" d="M82.39,132.36a1.2,1.2,0,0,0-.23-.12,8.39,8.39,0,0,0-1-.37h0s-4.17-1.44,1-3c12.66-3.8,9.39,6.47,9.38,6.5h0c-.28.79-3.71,9.75-11.35-.31h0c-3.33-4.33.87-3,.89-3h0a6.76,6.76,0,0,0,1.34.33m.67.42-.25.17-.09.06h-.1a6.81,6.81,0,0,1-1.77-.38h0s-2.35-.72-.22,2.06h0c7.28,9.57,10.3.46,10.31.44h0c.25-.86,2.31-9-8.63-5.65-3.22,1-1.22,1.74-1,1.81a7.44,7.44,0,0,1,1.13.39A2.17,2.17,0,0,1,83,132h0a.8.8,0,0,1,.2.48v.17Z"/><path class="cls-1" d="M70.24,121.07a6.43,6.43,0,0,1-1.44.75,1.88,1.88,0,0,0-1,.82s-.38.87-.62.52.26-1,.26-1a2,2,0,0,1,1-.84,6.52,6.52,0,0,0,1.43-.72A7.54,7.54,0,0,0,71,119.44a1.78,1.78,0,0,1,1.11-.72s.78-.28,1.06.07-.69.42-.69.42a2,2,0,0,0-1.12.73A6.41,6.41,0,0,1,70.24,121.07Z"/><path class="cls-1" d="M84.22,121.07a6.33,6.33,0,0,1-1.12-1.14,2,2,0,0,0-1.1-.74s-1-.07-.71-.42,1.06-.06,1.06-.06a1.66,1.66,0,0,1,1.1.72A4.91,4.91,0,0,0,86,121.3a1.89,1.89,0,0,1,1,.82s.51.68.27,1-.62-.52-.62-.52a1.87,1.87,0,0,0-1-.82,8.18,8.18,0,0,1-1.44-.74Z"/><path class="cls-1" d="M88.58,134.38a7.27,7.27,0,0,1,.72-1.44,1.68,1.68,0,0,0,.35-1.27s-.21-.93.2-.79.4,1,.4,1a2,2,0,0,1-.35,1.29,6.24,6.24,0,0,0-.75,1.44,7.12,7.12,0,0,0-.23,1.58,2.08,2.08,0,0,1-.47,1.25s-.49.69-.89.56.3-.75.3-.75a1.93,1.93,0,0,0,.46-1.24,7.41,7.41,0,0,1,.25-1.6Z"/><path class="cls-1" d="M77.26,142.59a6.41,6.41,0,0,1,1.59.26,1.94,1.94,0,0,0,1.32-.07s.8-.5.79-.05-.79.67-.79.67a1.84,1.84,0,0,1-1.32.06,7.25,7.25,0,0,0-1.59-.27,7.35,7.35,0,0,0-1.61.27,1.89,1.89,0,0,1-1.33-.06s-.8-.27-.8-.67.8.05.8.05a2,2,0,0,0,1.33.07A6.51,6.51,0,0,1,77.26,142.59Z"/><path class="cls-1" d="M66,134.38a6.58,6.58,0,0,1,.26,1.6,1.89,1.89,0,0,0,.47,1.24s.72.62.31.75-.9-.56-.9-.56a2,2,0,0,1-.47-1.25,7.53,7.53,0,0,0-.24-1.58,6.71,6.71,0,0,0-.75-1.44,2,2,0,0,1-.34-1.29s0-.82.4-1,.18.79.18.79a1.76,1.76,0,0,0,.36,1.27A6.7,6.7,0,0,1,66,134.38Z"/><path class="cls-7" d="M77.19,128.37a2.31,2.31,0,1,0,2.32,2.31A2.31,2.31,0,0,0,77.19,128.37Z"/><path class="cls-8" d="M77.19,128.37a2.31,2.31,0,1,0,2.32,2.31A2.31,2.31,0,0,0,77.19,128.37Z"/><path class="cls-1" d="M81.56,86.58l.31,6.22,5.26-3.42,1.65,2.7-6.2,3.59V97S89.8,101,81,100.87v0a4.62,4.62,0,0,1-6,0c-8.8.16-1.59-3.88-1.59-3.88V95.75l-5.49-4.26,1.31-2.82,4.9,4.2.29-6.21Z"/><path class="cls-9" d="M88.12,91.91c5.1,5.84,8.84-.31,8.84-.31,6.44-1.56,2.62-6.12,2.62-6.12,6.72-4.41-1.17-7.86-1.17-7.86,0-5.85-5-5.42-5-5.42-5.2-4.55-10.18.5-10.18.5-7.8-6.49-13.72,1-13.72,1s-5-3.45-7.23,2c0,0-7.94-.22-5,7.8,0,0-6.14,6.13,1.87,9.16,0,0,4.26,7.88,10.11.38,0,0,3.6.21,3-4.86a11.82,11.82,0,0,0,8.87-.2A2.93,2.93,0,0,0,85.5,89.3s-.46,2,2.41,2.41Z"/><path class="cls-6" d="M97.74,92.71c-1.11,1.5-5.2,6.05-10.46.18a3.64,3.64,0,0,1-2.76-1.84,3.77,3.77,0,0,1-3.85-1.53,12.82,12.82,0,0,1-7.07.33c-.25,3.44-2.53,4.21-3.71,4.37-6,7.2-10.53,1.12-11.61-.58-7.63-3.12-4-8.65-2.45-10.47-2.34-7.34,3.36-8.55,5.59-8.74,2.22-4.34,6-3.18,7.8-2.32,1.89-1.85,7.24-5.94,13.94-1,1.78-1.36,6.1-3.79,10.67-.14,1.47,0,5.46.68,5.82,5.89,2,1.1,7.25,4.6,1.66,9,1,1.82,2.06,5.34-3.57,6.91m-8.67-1.63c4,4.53,6.8-.13,6.81-.15l.27-.43.51-.13c4.46-1.08,2-4.08,1.94-4.09l-.9-1.09,1.18-.78c4.76-3.11-1-5.62-1-5.63l-.76-.34v-.82c0-4.47-3.65-4.15-3.66-4.15l-.53,0-.4-.35c-4.31-3.76-8.44.43-8.45.44l-.82.82-.89-.74c-6.8-5.66-11.91.81-11.93.82l-.73.91-1-.66s-3.7-2.56-5.33,1.39l-.33.81-.87,0s-6.07-.17-3.76,6.09l.28.75-.56.57s-4.76,4.76,1.41,7.09l.44.17.23.41s3.33,6.18,8,.21l.41-.52.65,0s2.11.13,1.71-3.45l-.24-2.12,2,.8a10.36,10.36,0,0,0,7.84-.17l1.16-.57.55,1.19a1.72,1.72,0,0,0,2.55.8l2.48-1.46-.6,2.81s-.16.67,1.35.89l.41,0,.3.31L89,91Z"/><path class="cls-7" d="M19.85,142.17l.38.32c-1.31,2.37-1.5,4-.58,4.83.65.58,1.52.34,2.31-.56a2,2,0,0,0,.57-1.17,5.47,5.47,0,0,0-.78-1.89,3.61,3.61,0,0,1,.64-4.51c1.4-1.6,3.23-2.13,4.4-1.13A2.63,2.63,0,0,1,27.6,140l.91-.27.31.27L26,143.35,25.7,143c1.09-2.26,1.32-3.62.5-4.31-.63-.56-1.45-.37-2.17.47-.91,1-.39,1.65.3,2.95a3.06,3.06,0,0,1,.51,2.12,5.65,5.65,0,0,1-1.33,2.51C22,148.49,20.25,149,19,148a2.53,2.53,0,0,1-.85-2.18l-1.11.37-.32-.28Z"/><path class="cls-7" d="M30.32,143.33a3.1,3.1,0,0,1,3.27.07,3.07,3.07,0,0,1,1.22,3.09,9.11,9.11,0,0,1-1.73,4.22,8.06,8.06,0,0,1-3.26,3,3.23,3.23,0,0,1-3.39,0,3.09,3.09,0,0,1-1.18-3.12,8.15,8.15,0,0,1,1.68-4.15A8.84,8.84,0,0,1,30.32,143.33Zm-3.38,9.61c1,.68,2.47-.44,4.51-3.38s2.6-4.7,1.61-5.41-2.44.45-4.5,3.4S25.94,152.26,26.94,152.94Z"/><path class="cls-7" d="M40.62,149.07l-.44-.24c-.39-.2-.55,0-.86.54l-2.85,5.32c-1,1.92-1.07,3.05,0,3.63a1.61,1.61,0,0,0,1.48,0,6.09,6.09,0,0,0,1.92-2.56L42,151.92c.59-1.12.71-1.76,0-2.15,0,0,0,0-.05,0l.4-.77,2.42,1.3-.41.75c-.75-.27-1.15.12-1.74,1.21l-2.12,4a8.61,8.61,0,0,1-1.8,2.63,2.59,2.59,0,0,1-3.22.38c-1.73-.92-1.95-2.58-.72-4.92l3.07-5.74c.31-.59.33-.82,0-1l-.43-.24.39-.77L41,148.3Z"/><path class="cls-7" d="M49.9,153.21c-.33-.13-.51,0-.75.61l-3.16,8c-.25.61-.25.83.14,1l.48.2-.33.81-3.51-1.4.32-.82.46.19c.4.16.53,0,.79-.63l3.18-8c.23-.6.23-.81-.1-1-.72-.3-1.81.71-2.86,2.86l-.48-.17,1.82-4.14L52,153.2l-1.53,4.24-.44-.17C50.72,155,50.63,153.49,49.9,153.21Z"/><path class="cls-7" d="M55.14,165.67c.41.13.53-.06.7-.7l1-3.77-2.55-.68-1,3.75c-.18.64-.16.85.25,1l.49.14-.24.84-3.65-1,.23-.85.49.11c.41.13.53,0,.7-.68l2.21-8.19c.18-.64.17-.88-.25-1l-.49-.12.24-.83,3.64,1-.22.83-.48-.13c-.41-.12-.54.07-.73.72l-.9,3.4,2.55.69.91-3.41c.18-.63.16-.88-.25-1l-.48-.12.22-.84,3.65,1-.21.82-.5-.13c-.41-.11-.53.08-.71.72l-2.2,8.19c-.18.65-.16.85.26,1l.47.15-.22.83-3.67-1,.24-.85Z"/><path class="cls-7" d="M64.8,167.62l.5,0c.22,0,.3-.1.34-.34a3.63,3.63,0,0,0,0-.47l-.17-1.91L63,164.56l-.36.84a3.19,3.19,0,0,0-.23.82c-.12.74.15,1,.88,1.18l-.12.84-2.8-.41.13-.85c.63-.07,1-.75,1.58-2l3.63-8.63.74.11,1.17,10.87c.05.51.19.71.55.78L68,169l-3.3-.49Zm-1.44-4.05,2,.31-.4-4.14Z"/><path class="cls-7" d="M72.15,166.27c-.05,1.53.14,2.1,1.08,2.15l0,.88-2.86-.08v-.88c.89,0,1.07-.6,1.11-2.1l.18-7.19c0-.63,0-.88-.47-.92h-.53l0-.87,3.21.09,1.39,7.18,1.62-7.11,3.16.07,0,.87-.5,0c-.42,0-.51.21-.52.87l-.2,8.49c0,.66.05.87.47.87h.51l0,.87-3.7-.08,0-.87h.43c.42,0,.51-.19.54-.84l.22-9-2.44,10.65h-.48l-2-10.7Z"/><path class="cls-7" d="M85.64,168.1l.63,0,.08.86-3.91.39-.09-.88.53,0c.43-.05.48-.24.42-.91L82.48,159c0-.66-.15-.86-.57-.84l-.53.06-.09-.86,4.35-.42c1.81-.18,2.84.91,3.06,3.11.23,2.36-.76,3.54-3,3.76-.3,0-.63,0-1,.07l.35,3.39C85.14,168,85.24,168.13,85.64,168.1Zm-1-5.12a1.31,1.31,0,0,0,.49,0c1.34-.12,1.83-.72,1.64-2.7s-.69-2.49-1.86-2.38c-.64.06-.74.19-.67,1.11Z"/><path class="cls-7" d="M94.47,156.32c-.35.06-.39.26-.26.89l1.73,8.45c.14.65.25.82.67.73l.49-.09.17.86-3.69.76-.18-.85.48-.11c.43-.08.45-.31.33-1l-1.75-8.42c-.13-.63-.25-.82-.6-.74-.77.16-1.12,1.6-.82,4l-.48.09-.76-4.43,6.41-1.34,1.08,4.39-.48.09C96.13,157.35,95.25,156.14,94.47,156.32Z"/><path class="cls-7" d="M99.14,155.89a3,3,0,0,1,5.25-1.66,9.14,9.14,0,0,1,2.32,3.91,8.45,8.45,0,0,1,.42,4.41,3.24,3.24,0,0,1-2.06,2.71,3.09,3.09,0,0,1-3.19-1,8,8,0,0,1-2.3-3.82A9.1,9.1,0,0,1,99.14,155.89Zm5.65,8.5c1.14-.36,1.14-2.22,0-5.62s-2.18-4.93-3.35-4.55-1.12,2.22,0,5.64S103.65,164.78,104.79,164.39Z"/><path class="cls-7" d="M110.8,162c.76-.49.66-1.06,0-2.37l-3-6.53-.31-.22c-.32-.24-.55-.4-.91-.22l-.1.05-.38-.77,2.28-1.06,6.58,5.16L113.09,152c-.68-1.46-1.07-1.84-2-1.42l-.35-.8,2.63-1.22.37.78c-.74.42-.68,1,0,2.36L117.6,160l-.57.26-8.14-6.41,2.55,5.53c.63,1.39,1.08,1.8,1.94,1.44l.38.78-2.59,1.21Z"/><path class="cls-7" d="M125.8,145.8l-.4.28c-1.75-1.89-2.81-2.23-4.07-1.37-.48.33-.57.46-.09,1.17l2,2.91a.46.46,0,0,0,.14-.07c.73-.51.66-1.25-.14-2.71l.4-.28,3.11,4.54-.42.29c-1.06-1.3-1.72-1.6-2.45-1.11l-.1.08,2.24,3.3c.38.54.53.66.9.43l.58-.41.49.72-3.28,2.26-.49-.73.4-.29c.37-.23.31-.45-.06-1l-4.78-7c-.38-.55-.56-.68-.91-.44l-.43.29-.48-.71,5.36-3.67Z"/><path class="cls-7" d="M135.43,148.24a2.83,2.83,0,0,1-2.45.55,8.28,8.28,0,0,1-4.42-3,9.29,9.29,0,0,1-2.09-3.9,3,3,0,0,1,.86-3.27,2.25,2.25,0,0,1,2-.49l-.15-1,.32-.27,3.26,3.56-.35.39c-2.11-1.8-3.61-2.33-4.45-1.63-1,.87-.33,2.49,2,5.25s3.83,3.68,5,2.73c.84-.74.66-2.15-.58-4.19l.61-.12C136.58,145.25,136.72,147.14,135.43,148.24Z"/><path class="cls-3" d="M7.74,47.6l1.9,3.92L4.32,53,6,56.28l5.33-1.45L13,58.14,7.64,59.59l1.64,3.29,5.35-1.44,1.68,3.31-5.37,1.44,1.67,3.29L18,68.06l2.39,4.59a23,23,0,0,0,3-1L10.84,46.72A14.35,14.35,0,0,1,7.74,47.6Z"/><path class="cls-3" d="M22.39,49C22,47.21,26,45.11,29.25,42.51L25,34a20.31,20.31,0,0,0-5.43,4.47A20.36,20.36,0,0,0,18.19,40Z"/><path class="cls-4" d="M32,33.79c-1-1.41-3.7-1.6-7,.18l4.26,8.54C32.21,40.09,34.5,37.24,32,33.79Z"/><path class="cls-4" d="M10.84,46.72l12.48,24.9c3.49-1.45,6.38-3.5,7.35-5L25.3,55.18l-2.67-5.67a1.14,1.14,0,0,1-.24-.53L18.19,40c-2.1,2.61-3.92,5.21-7.35,6.68"/><path class="cls-4" d="M7.74,47.6a23.69,23.69,0,0,1-6,.17L4.32,53l5.32-1.45Z"/><polygon class="cls-4" points="11.31 54.83 5.98 56.28 7.64 59.59 12.98 58.14 11.31 54.83"/><polygon class="cls-4" points="14.63 61.44 9.28 62.88 10.94 66.19 16.31 64.75 14.63 61.44"/><path class="cls-4" d="M12.61,69.48l2,3.93a18,18,0,0,0,5.8-.76L18,68.06Z"/><path class="cls-3" d="M29.18,42.58l2.36,4.73c1.69-1.42,3.49-3.1,5.4-4.71l-4.43-7.93C34.1,37.75,31.92,40.35,29.18,42.58Z"/><path class="cls-4" d="M22.63,49.51a1.88,1.88,0,0,0,.54.5c2.39,1.68,5.19,0,8.37-2.7l-2.36-4.73c-3.53,2.84-8,5.07-6.55,6.93Z"/><path class="cls-6" d="M32.77,33.19a8.39,8.39,0,0,1,.76,1.23l4.3,7.68.41.73-.64.54c-.87.73-1.86,1.61-2.82,2.46-3.69,3.29-7,6.19-10,5.86l6.8,14.48.24.5-.29.47c-1.05,1.65-4.07,3.84-7.69,5.37a22,22,0,0,1-9.33,1.91l-.59,0-.27-.53L.81,48.22,0,46.61l1.8.15c9.15.77,11.94-2.74,14.92-6.5.65-.81,1.31-1.64,2.09-2.5h0a24.32,24.32,0,0,1,3.76-3.45,13.42,13.42,0,0,1,5.55-2.55,5,5,0,0,1,4.2.92,3.21,3.21,0,0,1,.46.51M25.17,46.8a10.51,10.51,0,0,0-1.55,1.39h0l0,.06h0v0h0v0h0l0,0h0l0,0s0,.08-.06.11h0a.44.44,0,0,0,0,.29v0a.08.08,0,0,0,0,0v0h0l.05.06.06.07.2.15h0c2.35,1.65,5.73-1.35,9.67-4.86.7-.62,1.41-1.26,2.22-2L33.7,38.88c-.79,1.86-2.57,3.48-4.48,4.95l-.11.08h0c-.68.52-1.38,1-2.05,1.5L25.56,46.5Zm-3.4,3.25,0,0,0,0h0c-1-1.4-.18-2.71,1.37-4.08l.17-.14h0l.18-.14,0,0,.5-.4c.59-.46,1.24-.93,1.92-1.41,1.08-.78,2.25-1.61,3.26-2.49,2.33-2,3.89-4.33,2-6.89a1.12,1.12,0,0,0-.18-.2,3,3,0,0,0-2.52-.43A11.39,11.39,0,0,0,23.76,36a22.27,22.27,0,0,0-3.45,3.17h0c-.69.75-1.35,1.58-2,2.41-3.14,3.94-6.08,7.64-14.91,7.35L15.19,72.41a20.5,20.5,0,0,0,7.86-1.77,18.4,18.4,0,0,0,6.45-4.16L21.77,50.05"/><path class="cls-3" d="M145.71,47.6l-1.89,3.92,5.3,1.45-1.65,3.31-5.34-1.45-1.66,3.31,5.34,1.45-1.65,3.29-5.34-1.44-1.68,3.31,5.36,1.44-1.66,3.29-5.37-1.42-2.38,4.59a22.86,22.86,0,0,1-3-1l12.47-24.9A14.19,14.19,0,0,0,145.71,47.6Z"/><path class="cls-3" d="M131.06,49c.37-1.77-3.65-3.87-6.86-6.47L128.47,34a21.5,21.5,0,0,1,5.45,4.47c.46.51.91,1.06,1.35,1.6Z"/><path class="cls-4" d="M121.48,33.79c1-1.41,3.71-1.6,7,.18l-4.27,8.54c-3-2.42-5.25-5.27-2.72-8.72Z"/><path class="cls-4" d="M142.61,46.72l-12.47,24.9c-3.49-1.45-6.38-3.5-7.36-5l8-17.1a1.14,1.14,0,0,0,.24-.53L135.27,40c2.1,2.61,3.9,5.21,7.34,6.68Z"/><path class="cls-4" d="M145.71,47.6a23.71,23.71,0,0,0,6,.17L149.12,53l-5.3-1.45Z"/><polygon class="cls-4" points="142.13 54.83 147.47 56.28 145.81 59.59 140.47 58.14 142.13 54.83"/><polygon class="cls-4" points="138.82 61.44 144.16 62.88 142.5 66.19 137.14 64.75 138.82 61.44"/><path class="cls-4" d="M140.84,69.48l-2,3.93a18,18,0,0,1-5.79-.76l2.38-4.59Z"/><path class="cls-3" d="M124.26,42.58l-2.36,4.73c-1.68-1.42-3.49-3.1-5.38-4.71l4.42-7.93C119.34,37.75,121.53,40.35,124.26,42.58Z"/><path class="cls-4" d="M130.82,49.51a2.39,2.39,0,0,1-.54.5c-2.41,1.68-5.19,0-8.38-2.7l2.36-4.73c3.53,2.84,8,5.07,6.56,6.93Z"/><path class="cls-6" d="M122.3,34.39h0c-1.72,2.34-.56,4.47,1.43,6.36a36.86,36.86,0,0,0,3.85,3h0c.72.51,1.4,1,1.94,1.42,2.13,1.65,3.39,3.18,2.18,4.85L124,66.48a18.3,18.3,0,0,0,6.45,4.16,20.45,20.45,0,0,0,7.85,1.77l11.8-23.53c-8.84.29-11.78-3.42-14.91-7.38-.62-.78-1.25-1.57-2-2.38A23.14,23.14,0,0,0,129.83,36a11.67,11.67,0,0,0-4.78-2.26,3.08,3.08,0,0,0-2.58.43,1.54,1.54,0,0,0-.17.19m-2.46.18a7.89,7.89,0,0,1,.83-1.38h0a3.08,3.08,0,0,1,.45-.5,5,5,0,0,1,4.27-.92A13.57,13.57,0,0,1,131,34.41a25,25,0,0,1,3.64,3.35c.71.79,1.39,1.65,2.06,2.49,3,3.76,5.76,7.28,14.93,6.51l1.8-.15-.81,1.61L139.79,73.86l-.26.53-.59,0a22,22,0,0,1-9.33-1.91C126,71,123,68.79,121.91,67.14l-.29-.47.23-.51,6.82-14.47c-3,.33-6.3-2.57-10-5.85-1-.85-2-1.74-2.82-2.47l-.64-.54.41-.72Zm10.21,14a5.8,5.8,0,0,0-1.81-1.8c-.55-.43-1.18-.88-1.84-1.35-2.59-1.85-5.56-4-6.65-6.53l-2,3.48c.82.69,1.53,1.33,2.23,2,3.94,3.5,7.31,6.5,9.66,4.85h0l.21-.16h0l.1-.1,0,0A.33.33,0,0,0,130.05,48.57Z"/><path class="cls-3" d="M92.77,41.74a53.85,53.85,0,0,1-5.37,3.62V63.09c2.51-1.52,5.06-3.15,7.47-4.45V40.26C94,40.81,93.31,41.32,92.77,41.74Z"/><path class="cls-3" d="M104.73,36.93l-.31,0-2.54,19.17a3.16,3.16,0,0,1,.32,0A11.9,11.9,0,0,1,108,57.81l5.67-17.41C110.91,38.41,107.92,36.93,104.73,36.93Z"/><path class="cls-3" d="M130.28,50c-2.37,1.66-5.16,0-8.3-2.64L114.59,62.8c3,2.6,5.68,4.74,8.18,3.8l8-17.09a2.39,2.39,0,0,1-.54.5Z"/><path class="cls-3" d="M23.17,50a1.88,1.88,0,0,1-.54-.5l8,17.08c2.53,1,5.19-1.19,8.19-3.79l-7.4-15.43C28.31,50,25.55,51.67,23.17,50Z"/><path class="cls-3" d="M76.73,50a9.14,9.14,0,0,1-2.84-.65V67.16a7.31,7.31,0,0,0,5.66,0V49.31a9,9,0,0,1-2.82.66Z"/><path class="cls-3" d="M48.71,36.93c-3.18,0-6.17,1.48-8.94,3.47l5.68,17.41a11.71,11.71,0,0,1,5.81-1.72l.3,0L49,37Z"/><path class="cls-3" d="M60.67,41.74c-.53-.42-1.24-.93-2.09-1.48V58.64c2.42,1.3,5,2.93,7.46,4.45V45.36a53.85,53.85,0,0,1-5.37-3.62Z"/><path class="cls-4" d="M66,45.36V63.09a44,44,0,0,0,7.85,4.07V49.31A47.69,47.69,0,0,1,66,45.36Z"/><path class="cls-4" d="M49,37l2.53,19.17c2,.09,4.4,1.11,7,2.52V40.26A19.47,19.47,0,0,0,49,37Z"/><path class="cls-4" d="M31.46,47.37l7.4,15.43a40.75,40.75,0,0,1,6.59-5L39.77,40.4C36.76,42.54,34,45.26,31.46,47.37Z"/><path class="cls-4" d="M79.55,49.31V67.16a43.29,43.29,0,0,0,7.85-4.07V45.36A46.54,46.54,0,0,1,79.55,49.31Z"/><path class="cls-4" d="M94.87,40.26V58.64c2.62-1.41,5-2.43,7-2.52L104.42,37A19.51,19.51,0,0,0,94.87,40.26Z"/><path class="cls-4" d="M113.69,40.4,108,57.81a42.41,42.41,0,0,1,6.57,5L122,47.37c-2.51-2.11-5.28-4.83-8.29-7Z"/><path class="cls-6" d="M89.69,62.88c-4.78,2.95-9.51,5.87-13,5.87s-8.18-2.92-13-5.87S54.39,57.1,51.26,57.1c-4.26,0-8,3.22-11.27,6.06-3.45,3-6.46,5.59-9.68,4.38l-.38-.14L29.75,67l-8-17.08,1.77-1,.06.07.2.15h0c2.35,1.66,5.72-1.35,9.65-4.85,4.41-3.93,9.45-8.42,15.3-8.42a16.76,16.76,0,0,1,6.2,1.31,27.29,27.29,0,0,1,6.38,3.72h0a62.9,62.9,0,0,0,9.19,5.74C73,48,75.38,49,76.73,49s3.7-1,6.22-2.25A63.94,63.94,0,0,0,92.14,41h0a28.86,28.86,0,0,1,5-3.13,17.69,17.69,0,0,1,7.53-1.9c5.87,0,10.91,4.5,15.32,8.43,3.93,3.5,7.3,6.5,9.64,4.84h0l.21-.16h0l.1-.1,1.73,1-8,17.09-.18.37-.38.14c-3.21,1.21-6.22-1.39-9.66-4.37-3.29-2.85-7-6.07-11.27-6.07-3.14,0-7.85,2.91-12.51,5.78m-13,3.84c2.89,0,7.37-2.77,11.9-5.56,4.91-3,9.87-6.09,13.57-6.09,5,0,9,3.49,12.59,6.56,2.79,2.42,5.24,4.54,7.26,4.12l6.62-14c-3,.33-6.29-2.57-10-5.85-4.15-3.69-8.88-7.91-14-7.91a15.74,15.74,0,0,0-6.66,1.69,26.8,26.8,0,0,0-4.67,2.91h0a66.24,66.24,0,0,1-9.53,6C81.1,49.92,78.42,51,76.73,51s-4.38-1.06-7.16-2.49a65.49,65.49,0,0,1-9.52-6h0a25.59,25.59,0,0,0-5.89-3.44,14.65,14.65,0,0,0-5.45-1.16c-5.08,0-9.81,4.22-14,7.91-3.68,3.28-6.94,6.18-10,5.85l6.61,14c2,.42,4.48-1.71,7.27-4.12,3.56-3.07,7.59-6.56,12.6-6.56,3.69,0,8.66,3.06,13.57,6.09C69.36,64,73.84,66.72,76.73,66.72Z"/><path class="cls-1" d="M77,32.53c16.59,0,30-7.29,30-16.26S93.59,0,77,0,47,7.28,47,16.27,60.43,32.53,77,32.53Z"/><path class="cls-7" d="M77,29.88c14.72,0,26.69-6.09,26.69-13.61S91.76,2.65,77,2.65s-26.7,6.09-26.7,13.62S62.27,29.88,77,29.88Z"/><path class="cls-10" d="M77,29.88c14.72,0,26.69-6.09,26.69-13.61S91.76,2.65,77,2.65s-26.7,6.09-26.7,13.62S62.27,29.88,77,29.88Z"/><path class="cls-3" d="M77.06,26.62c12,0,21.74-3.89,21.74-8.7S89.05,9.24,77.06,9.24s-21.74,3.89-21.74,8.68S65.05,26.62,77.06,26.62Z"/><path class="cls-6" d="M93.19,26a43.26,43.26,0,0,1-14.1,2.66v0h-2A44.83,44.83,0,0,1,60.93,26c-4.72-1.89-7.65-4.72-7.65-8s2.93-6.13,7.66-8A44.81,44.81,0,0,1,77.06,7.2h0A44.8,44.8,0,0,1,93.17,9.9c4.74,1.89,7.67,4.71,7.67,8s-2.93,6.15-7.65,8M77.06,24.59a40.81,40.81,0,0,0,14.61-2.4c3.15-1.26,5.09-2.78,5.09-4.27s-1.94-3-5.08-4.25a40.84,40.84,0,0,0-14.62-2.39h0a40.86,40.86,0,0,0-14.63,2.39c-3.13,1.25-5.07,2.77-5.07,4.25s1.94,3,5.08,4.27A40.78,40.78,0,0,0,77,24.59Z"/><path class="cls-3" d="M77,11.74a20.92,20.92,0,0,0,0,41.84h-.25a20.92,20.92,0,0,0,0-41.84Z"/><path class="cls-6" d="M61.48,17.15a21.82,21.82,0,0,1,15.25-6.42H77A21.93,21.93,0,0,1,92.24,48.16h0A21.93,21.93,0,0,1,77,54.6h-.25A21.94,21.94,0,0,1,61.48,17.15m15.37-4.39a19.91,19.91,0,1,0,14,34h0a19.91,19.91,0,0,0-14-34Z"/><path class="cls-1" d="M73.51,50,69.2,42.65l-7.88-1.29-2,2.51c.09.12.14.25.24.37l.34.49a20.93,20.93,0,0,0,10.91,7.93l.8.15Z"/><polygon class="cls-1" points="68.12 29.77 71.5 40.2 82.2 40.2 85.58 29.77 76.84 23.44 68.12 29.77"/><path class="cls-1" d="M76.84,19.21v0l6.51-4.25v-2.1a19.9,19.9,0,0,0-13,0v2.1Z"/><path class="cls-1" d="M64.79,26.45l.23-8.3-1.69-1.31a19.79,19.79,0,0,0-2.45,2.48l-.09.09a21,21,0,0,0-4.51,10.38l1.87.82Z"/><path class="cls-1" d="M84.52,42.65,80.22,50l1.86,2.85.78-.14a21.07,21.07,0,0,0,11.07-8.11l.16-.26c.11-.15.19-.31.28-.43l-2-2.51Z"/><path class="cls-1" d="M88.93,26.45l6.62,4.16,1.87-.82a20.85,20.85,0,0,0-4.54-10.43h0a20.29,20.29,0,0,0-2.47-2.52L88.7,18.15Z"/></g></g></svg>