<svg xmlns="http://www.w3.org/2000/svg" viewBox="0 0 91.63 188.6"><defs><style>.cls-1{fill:#1d1c2f;}.cls-2{fill:#fff;}</style></defs><g id="Layer_2" data-name="Layer 2"><g id="Layer_1-2" data-name="Layer 1"><path class="cls-1" d="M27.31,118.55a1.7,1.7,0,0,0-1.6.64,5.91,5.91,0,0,0-1.41,4.41,3.18,3.18,0,0,0,.22,1.11,1.84,1.84,0,0,0,1.21,1.18,1.79,1.79,0,0,0,1.57-.82,6.2,6.2,0,0,0,1.06-5.38c-.23-.65-.6-1.06-1.05-1.14Zm23.94,18.1a4.17,4.17,0,0,0,2.29,2.19,32.31,32.31,0,0,0,5.6,1.1c2.3.25,4.11-1,5.13-3.62-.77,0-1.59-.14-2.45-.26a7.41,7.41,0,0,1-.63,1.51.73.73,0,0,1-1.26-.72,5.5,5.5,0,0,0,.44-1c-.45-.07-.91-.16-1.36-.25a11.42,11.42,0,0,1-.51,1.61.73.73,0,0,1-1,.37.72.72,0,0,1-.37-.95,9.42,9.42,0,0,0,.42-1.32l-.7-.15-.74-.18c-.13.42-.29.86-.47,1.3a.73.73,0,0,1-1,.39.72.72,0,0,1-.38-1q.22-.55.39-1.08c-1.22-.31-2.48-.66-3.75-1a4.62,4.62,0,0,0,.27,3.06Zm13.47-1.77c-.71,0-1.55-.11-2.56-.24a15.34,15.34,0,0,0,.22-1.75.73.73,0,0,0-.69-.76.74.74,0,0,0-.77.69,11.68,11.68,0,0,1-.2,1.6l-1.38-.25c.21-1,.35-1.92.36-2a.73.73,0,0,0-1.44-.22s-.14.89-.35,1.91l-.7-.15-.7-.17a13,13,0,0,0,.27-1.83.72.72,0,0,0-.68-.77.73.73,0,0,0-.77.69,12.1,12.1,0,0,1-.23,1.57c-1.19-.3-2.41-.63-3.64-1,1.2-2.6,3.38-3.76,5.92-3.12,1.89.47,3.16.73,4,.89l.93.2a3.23,3.23,0,0,1,2,1.56,4.43,4.43,0,0,1,.39,3.13Zm4.24-9.2a23.56,23.56,0,0,1-1.32,8.87c-.1.13-.54.28-1.45.33A5.74,5.74,0,0,0,65.6,131a4.71,4.71,0,0,0-3-2.26l-1-.2c-.87-.17-2.07-.42-3.93-.88-2.6-.65-5.94.11-7.68,4.11a121.84,121.84,0,0,1-20.64-8.29,7.27,7.27,0,0,0,.18-3.77c7.49-6.3,19.25-9.65,28.21-7.62,4.85,1.1,8.52,3.14,9.62,6A23.82,23.82,0,0,1,69,125.68ZM59,141.39c1.49.16,5.11,0,6.83-5.06a8.31,8.31,0,0,0,1.18-.11A23.93,23.93,0,0,1,50.29,150a14.42,14.42,0,0,1-6-.43c-4.91-1.12-9.46-4.65-12.79-9.8a29.89,29.89,0,0,1-4.61-12.89,3.67,3.67,0,0,0,1.35-1,6.88,6.88,0,0,0,.66-1,124.14,124.14,0,0,0,20.73,8.32,6.37,6.37,0,0,0-.19,1.83,6,6,0,0,0,.54,2.27,5.65,5.65,0,0,0,3.14,2.95A35.13,35.13,0,0,0,59,141.39Zm-35-21.27a7.41,7.41,0,0,1-1.46-1.21,24.06,24.06,0,0,1,8.79-11.75,21.67,21.67,0,0,0-5.46,10.62,4,4,0,0,0-.94.83,6.18,6.18,0,0,0-.93,1.51Zm-.46,1.41A13.86,13.86,0,0,1,22,120.38a24.11,24.11,0,0,0-.81,7.24c0,.51.06,1,.11,1.51a15.32,15.32,0,0,1,2.09-4.61,7.2,7.2,0,0,1,.06-3ZM25.39,127a2.37,2.37,0,0,1-1.34-1c-1.78,2.75-2.53,5.2-1.87,7.41a23.92,23.92,0,0,0,20.67,17C33.51,147.61,26.6,137.88,25.39,127Z"/><path class="cls-1" d="M49.91,82.06c0,8.08-3.45,14.65-5.44,16.65-6.18,6.17-11.27,1.67-11.33,7.87a20.59,20.59,0,0,0-5.8,10.8l.18,0a2.28,2.28,0,0,1,1.46,1c7.84-6.39,19.91-9.75,29.14-7.66a16.43,16.43,0,0,1,7.31,3.4,24,24,0,0,0-12.29-9.95c-1.21-.44-3.37-.94-3.37-4.88,0-7.36,8-1.64,13.35-9.65.26-.4-.11-.75-.42-.44-1.61,1.61-5.55,2.71-7.63,2.71a6.1,6.1,0,0,1-2.87-.47,57.7,57.7,0,0,1,4.42-7.26c-4.93-4.93,3.36-32,25.3-32a69.12,69.12,0,0,0-1.47-14.83c-.52.13-4.66,1.1-4.84.23s3-2.44,4.14-3a24.21,24.21,0,0,0-2.15-5.52C58.8,35,62.58,50.55,58,50.55c-3,0-5.32-2.32-6.16-3.16-11.23-11.22-6-18.66-6-33.57C45.85,3.76,41.94,0,34.74,0S25,3.12,25,3.12s9.88.32,9.88,10.7c0,10.86-12.23,13.85-12.23,27.63C22.6,64.39,49.91,64,49.91,82.06Z"/><path class="cls-1" d="M25.39,127a2.37,2.37,0,0,1-1.34-1c-1.78,2.75-2.53,5.2-1.87,7.41a23.92,23.92,0,0,0,20.67,17C33.51,147.61,26.6,137.88,25.39,127Z"/><path class="cls-1" d="M23.47,121.53A13.86,13.86,0,0,1,22,120.38a24.11,24.11,0,0,0-.81,7.24c0,.51.06,1,.11,1.51a15.32,15.32,0,0,1,2.09-4.61A7.2,7.2,0,0,1,23.47,121.53Z"/><path class="cls-1" d="M23.93,120.12a6.18,6.18,0,0,1,.93-1.51,4,4,0,0,1,.94-.83,21.67,21.67,0,0,1,5.46-10.62,24.06,24.06,0,0,0-8.79,11.75A7.41,7.41,0,0,0,23.93,120.12Z"/><path class="cls-1" d="M59,141.39a35.13,35.13,0,0,1-5.91-1.17,5.65,5.65,0,0,1-3.14-2.95,6,6,0,0,1-.54-2.27,6.37,6.37,0,0,1,.19-1.83,124.14,124.14,0,0,1-20.73-8.32,6.88,6.88,0,0,1-.66,1,3.67,3.67,0,0,1-1.35,1,29.89,29.89,0,0,0,4.61,12.89c3.33,5.15,7.88,8.68,12.79,9.8a14.42,14.42,0,0,0,6,.43A23.93,23.93,0,0,0,67,136.22a8.31,8.31,0,0,1-1.18.11C64.09,141.37,60.47,141.55,59,141.39Z"/><path class="cls-1" d="M67.42,118.14c-1.1-2.88-4.77-4.92-9.62-6-9-2-20.72,1.32-28.21,7.62a7.27,7.27,0,0,1-.18,3.77,121.84,121.84,0,0,0,20.64,8.29c1.74-4,5.08-4.76,7.68-4.11,1.86.46,3.06.71,3.93.88l1,.2a4.71,4.71,0,0,1,3,2.26,5.74,5.74,0,0,1,.59,3.85c.91,0,1.35-.2,1.45-.33a24,24,0,0,0-.22-16.41Z"/><path class="cls-1" d="M51.25,136.65a4.17,4.17,0,0,0,2.29,2.19,32.31,32.31,0,0,0,5.6,1.1c2.3.25,4.11-1,5.13-3.62-.77,0-1.59-.14-2.45-.26a7.41,7.41,0,0,1-.63,1.51.73.73,0,0,1-1.26-.72,5.5,5.5,0,0,0,.44-1c-.45-.07-.91-.16-1.36-.25a11.42,11.42,0,0,1-.51,1.61.73.73,0,0,1-1,.37.72.72,0,0,1-.37-.95,9.42,9.42,0,0,0,.42-1.32l-.7-.15-.74-.18c-.13.42-.29.86-.47,1.3a.73.73,0,0,1-1,.39.72.72,0,0,1-.38-1q.22-.55.39-1.08c-1.22-.31-2.48-.66-3.75-1A4.62,4.62,0,0,0,51.25,136.65Z"/><path class="cls-1" d="M64.72,134.88a4.43,4.43,0,0,0-.39-3.13,3.23,3.23,0,0,0-2-1.56l-.93-.2c-.83-.16-2.1-.42-4-.89-2.54-.64-4.72.52-5.92,3.12,1.23.36,2.45.69,3.64,1a12.1,12.1,0,0,0,.23-1.57.73.73,0,0,1,.77-.69.72.72,0,0,1,.68.77,13,13,0,0,1-.27,1.83l.7.17.7.15c.21-1,.34-1.89.35-1.91a.73.73,0,0,1,1.44.22c0,.07-.15.94-.36,2l1.38.25a11.68,11.68,0,0,0,.2-1.6.74.74,0,0,1,.77-.69.73.73,0,0,1,.69.76,15.34,15.34,0,0,1-.22,1.75C63.17,134.77,64,134.85,64.72,134.88Z"/><path class="cls-1" d="M27.31,118.55a1.7,1.7,0,0,0-1.6.64,5.91,5.91,0,0,0-1.41,4.41,3.18,3.18,0,0,0,.22,1.11,1.84,1.84,0,0,0,1.21,1.18,1.79,1.79,0,0,0,1.57-.82,6.2,6.2,0,0,0,1.06-5.38C28.13,119,27.76,118.63,27.31,118.55Z"/><path class="cls-1" d="M8.52,147.56c1.83,1.2,3.77,2.29,3.77,2.29l-.68,1.76c-.25-1.06-1.31-1.64-2.68-2.49l-4.47,6.47a12.07,12.07,0,0,0-1.69,3.15s-.74-.47-1.41-1l-1.36-1c.67-.16,1.82-1.86,2.51-2.8l4.35-6.21c-1.63-1.26-2.27-1.5-3.42-1.56L5,145S6.48,146.21,8.52,147.56Z"/><path class="cls-1" d="M79.36,169.46l.14.14a.74.74,0,0,0-.37.14l.39.75c.08.14.19.36.26.37l-.19.1-.17.08c0-.1,0-.17-.13-.39l-.41-.79c-.14.07-.29.14-.33.25l0-.22s.2-.09.42-.21Z"/><path class="cls-1" d="M16.53,152.87c-2-1-3.54,1.29-4.72,3.76s-2,5.1,0,6.05,3.55-1.31,4.73-3.78,1.94-5.09,0-6Zm-5.12,10.72c-3.1-1.48-3.52-4.9-2-8.1s4.47-5,7.56-3.55,3.52,4.89,2,8.1S14.52,165.07,11.41,163.59Z"/><path class="cls-1" d="M25.31,155.24c2.1.6,3.81,1,3.81,1l-.19,1.88c-.56-.81-.82-1-2.61-1.46L24.15,164c-.18.67-1,3.2-.77,3.68,0,0-.6-.13-1.57-.4s-1.61-.51-1.61-.51c.56-.37,1.27-2.53,1.5-3.41L23.88,156c-1.86-.62-2.29-.66-3.18-.25l1.08-1.6A37.09,37.09,0,0,0,25.31,155.24Z"/><path class="cls-1" d="M34,157.19c2.07.31,4,.48,4,.48l.08,1.89c-.77-.69-1.06-.91-3.11-1.17l-1.18,7.51c-.08.68-.52,3.3-.19,3.73,0,0-.71-.08-1.7-.22s-1.6-.28-1.6-.28c.48-.38.88-2.85,1-3.54L32.47,158c-1.77-.36-2.13-.22-3,.27l.77-1.78S31.91,156.88,34,157.19Z"/><path class="cls-1" d="M41.65,164.32l-.16,5c2.65,0,4.46-.13,5.26-1.28l-.4,2.29s-1.47,0-3.61,0c-2.36,0-4.21-.18-4.21-.18.39-.39.49-2.85.5-3.54l.21-5c0-1.32.13-3.45-.31-3.89,1.91.13,1.67.13,3.43.19,2.3.1,3.61,0,3.61,0l.29,1.89c-.9-.75-2.25-.84-4.45-.85l-.12,4.23,3.38,0c.3,0,.32.17.32.51s0,.51-.33.51Z"/><path class="cls-1" d="M56.41,165.84c.2,1.83.39,3.15.81,3.39a1.2,1.2,0,0,1-.88.49,1.48,1.48,0,0,1-1.3-.63l-6-6.88.22,4.38c.08.68.16,3.29.58,3.64l-2,.09c.35-.43.25-2.91.18-3.6l-.28-4.94c-.08-.69-.21-3.42-.64-3.76L49,158l6.14,7.3-.51-4.2c-.07-.69-.45-3.2-.86-3.54l1-.12c.74-.1,1-.16,1-.16-.34.43.06,3,.13,3.69Z"/><path class="cls-1" d="M67.68,163.24c.21.85.63,3,1.26,3.47l-1.53.46-1.65.45c.27-.48-.33-3.11-.5-3.77l-.57-2.28-3.81.93.44,2.33c.12.75.52,3.29,1,3.6l-1.64.33c-.93.19-1.58.3-1.58.3.29-.48-.09-2.83-.21-3.58L58,160.56c-.16-.92-.59-3.24-1.1-3.51l1.59-.31c1.08-.21,1.62-.35,1.62-.35-.27.55.2,2.78.33,3.56l.29,1.56,3.75-.91-.4-1.6c-.22-.84-.69-2.87-1.21-3.25l1.56-.45c1-.29,1.49-.46,1.49-.46-.21.56.37,2.54.61,3.56Z"/><path class="cls-1" d="M74,159.52l-3.3-4.58.23,5.75L74,159.52Zm.68.8-3.72,1.45.13,2a7.61,7.61,0,0,0,.24,1.69.74.74,0,0,0,.32.37s-.39.14-1,.34l-1,.31a3,3,0,0,0,.25-1.57l-.32-9.68a3.48,3.48,0,0,0-.19-1,1.48,1.48,0,0,0-.4-.49,10.36,10.36,0,0,1,1.49-.8c.85-.36,1.21-.34,1.84.38l5.45,6.77a7,7,0,0,0,2.44,2.33l-1.61.73c-1,.46-1.74.73-1.74.73a1.19,1.19,0,0,0-.07-.81,9.87,9.87,0,0,0-1-1.49Z"/><path class="cls-1" d="M90.21,156.81l-1.31.89c-.05-.74-1.47-2.55-1.89-3.11l-3.2-4.17,2.57,8.23a2,2,0,0,1-.45.52,1.08,1.08,0,0,1-1.45,0l-6.1-5.06L80.51,158c.52,1,1.53,3.07,2.21,3.28l-1,.48-.85.41c.12-.58-.87-2.3-1.45-3.4l-2.38-4.47c-.72-1.35-1.51-2.72-2.2-3l1.45-.71c.63-.31,1.18-.61,1.18-.61l6.87,5.84-2.7-8.27,1-.7c.68-.46,1.3-.92,1.3-.92,0,.74,1.48,2.63,2,3.3l3,3.81c.63.78,1.8,2.52,2.64,2.73C91.63,155.78,91,156.3,90.21,156.81Z"/><path class="cls-1" d="M80.89,169.09l.34.43c.1.12.2.27.3.31l-.17.12-.15.1a1.55,1.55,0,0,0-.21-.36l-.36-.47.29.93a.1.1,0,0,1-.05.06.12.12,0,0,1-.18,0l-.71-.57.27.45c.07.12.19.33.28.37l-.11.07-.11.06a1,1,0,0,0-.18-.41l-.3-.51c-.07-.11-.18-.28-.28-.31l.19-.1.15-.09.79.65-.31-.93.15-.08.17-.11C80.69,168.81,80.83,169,80.89,169.09Z"/><path class="cls-1" d="M19.93,171.85c.63.24,1.45.52,1.45.52-.69.5-1.32,2.49-1.74,3.58l-1.59,4.42c-.43,1.2-1.15,2.94-.91,3.56l-1.59-.55c-.61-.22-1-.33-1.59-.61.78-.21,1.51-2.8,1.75-3.46l.73-2.06-3.82-1.6L11.52,178c-.36.81-1.22,2.67-1,3.25,0,0-.68-.27-1.66-.72-1.17-.54-1.42-.68-1.42-.68.82-.41,1.3-1.73,1.93-3.07l2-4.43a10.58,10.58,0,0,0,1.24-3.69s.36.21,1.34.66c.78.35,1.18.53,1.62.7-.62.25-1.49,2.48-2,3.49L13,174.78l3.73,1.53.58-1.41c.26-.73,1.19-2.89,1-3.63Z"/><path class="cls-1" d="M27.2,175c-2.12-.56-3.22,1.88-3.9,4.47s-.93,5.27,1.2,5.83,3.23-1.9,3.91-4.49.92-5.25-1.21-5.81Zm-3,11.25c-3.33-.87-4.38-4.1-3.5-7.46s3.41-5.63,6.72-4.76,4.39,4.08,3.51,7.45S27.57,187.09,24.24,186.21Z"/><path class="cls-1" d="M33.26,187.4a2,2,0,0,0,.36-.7c.2-.65.33-1.91.49-2.9l.93-7.2c-2-.25-2.49-.11-3.36.41l.82-1.84c.62.13,2,.28,3.65.49,1.12.14,4.44.44,4.44.44L40.7,178c-.73-.85-1.49-.93-3.15-1.06l-.92,7.23c-.09.68-.46,3-.09,3.7l-1.62-.17C34.35,187.59,33.59,187.46,33.26,187.4Z"/><path class="cls-1" d="M49.08,184.9c0,2.17-1.74,3.74-4.45,3.7A5.49,5.49,0,0,1,41,187.35l.44-2.06a3.65,3.65,0,0,0,3,2.28,2.06,2.06,0,0,0,2.3-2c0-.92-.49-1.47-2.63-2.58s-2.8-2.11-2.8-3.68c0-2.14,1.86-3.22,4-3.22a7.1,7.1,0,0,1,3.43.86l-.45,1.89a3.57,3.57,0,0,0-2.92-1.79,1.56,1.56,0,0,0-1.78,1.62c0,1.18,1.29,1.81,3,2.79C48.63,182.57,49.07,183.7,49.08,184.9Z"/><path class="cls-1" d="M59,178.25a4.79,4.79,0,0,1,.15.81,4.26,4.26,0,0,1,0,.8,3.65,3.65,0,0,1-.94,2.1,4.78,4.78,0,0,1-3.4,1.38c-.56,0-.7-.14-.73-.54v-.09s0-.16.11-.16l.15,0a2.28,2.28,0,0,0,1.58-.81,3.36,3.36,0,0,0,.57-2.41,2.8,2.8,0,0,0-1-2.13,2.6,2.6,0,0,0-1.88-.51s-.27,0-.57.07a.17.17,0,0,0-.16.19l.72,7.47c.07.66.25,3,.79,3.45,0,0-.62.07-1.78.16-.88.07-1.57.09-1.57.09a6,6,0,0,0,.14-2.41l-.56-5.89c-.06-.68-.18-3-.73-3.56,0,0,1.48-.22,4.22-.48a5.31,5.31,0,0,1,3.61.73A3.23,3.23,0,0,1,59,178.25Z"/><path class="cls-1" d="M70.17,180.66a4.46,4.46,0,1,1-8.71,1.93l-.93-3.93c-.24-1.09-.64-3-1.28-3.55,0,0,.71-.1,1.83-.31s1.63-.33,1.63-.33c-.29.46,0,2.28.31,3.62l1.18,5a3,3,0,0,0,1,1.9,1.85,1.85,0,0,0,1.42.26,1.74,1.74,0,0,0,1.24-.85,3.14,3.14,0,0,0,.07-2.16l-1.33-5c-.37-1.37-.78-3.09-1.24-3.38l1.57-.44c.78-.23,1.24-.36,1.58-.48-.31.75.42,3.06.58,3.72Z"/><path class="cls-1" d="M82.27,179.64a1.08,1.08,0,0,0,.78.07,1.69,1.69,0,0,1-.43.75,2.29,2.29,0,0,1-2.46.78,18.52,18.52,0,0,1-5.15-3.8.09.09,0,0,1,0-.12l.12,0a2.61,2.61,0,0,0,1.2-3.59,2.7,2.7,0,0,0-1.52-1.58,2.39,2.39,0,0,0-1.65.09,2.6,2.6,0,0,0-.58.31s-.09.07,0,.38L75,179.66c.36,1,1,3,1.55,3.28,0,0-.64.25-1.61.6s-1.57.51-1.57.51c.2-.75-.55-2.81-.74-3.39l-1.53-4.58c-.39-1.11-1.09-3.08-1.66-3.4a34.93,34.93,0,0,0,3.64-1.37,5.71,5.71,0,0,1,3.81-.46A2.77,2.77,0,0,1,78.49,172a3.52,3.52,0,0,1,.35.66,3.19,3.19,0,0,1,.19.67,3.14,3.14,0,0,1-.38,2.13,3.85,3.85,0,0,1-1.13,1.24A19.8,19.8,0,0,0,82.27,179.64Z"/><path class="cls-2" d="M36.89,13.82a15.47,15.47,0,0,0-.41-3.62,2.43,2.43,0,0,0,2.15-2.73c0-2.16-1.43-3.63-1.82-3.63s-.39.33-1.06.33c-1.64,0-1.77-2.1-1.77-2.1h.75c4.7,0,9.06,1.43,9.06,11.76A93.14,93.14,0,0,1,43.1,24a63.4,63.4,0,0,0-.52,8.4s-8.19-1-8.19-7.12C34.39,21.32,36.89,20.35,36.89,13.82Z"/></g></g></svg>