<svg xmlns="http://www.w3.org/2000/svg" viewBox="0 0 115.07 163.34"><defs><style>.cls-1{fill:#711e34;}.cls-1,.cls-2,.cls-3,.cls-4{fill-rule:evenodd;}.cls-2{fill:#a3c4e9;}.cls-3{fill:#fff;}.cls-4{fill:#ffe500;}</style></defs><g id="Layer_2" data-name="Layer 2"><g id="Layer_1-2" data-name="Layer 1"><path class="cls-1" d="M115.07,0H0V123.52c0,9.65,5.86,17.24,17.59,22.84a111.13,111.13,0,0,0,15.61,5.78l14.51,4.43,2,.94A18.7,18.7,0,0,1,53,159.27a24.52,24.52,0,0,1,4.4,4.07,44.36,44.36,0,0,1,3.31-3.17,22.41,22.41,0,0,1,6.22-3.43c1.82-.7,6.63-2.22,14.42-4.6a126.81,126.81,0,0,0,15.78-5.72q18-8.31,17.95-22.9Z"/><path class="cls-2" d="M53.34,154.43a25.08,25.08,0,0,1,4.08,3.49,36.46,36.46,0,0,1,3-2.73,20.35,20.35,0,0,1,5.77-3c1.67-.62,6.16-1.94,13.4-4a130.34,130.34,0,0,0,14.7-5Q111,136.12,111,123.46V4.16H4.08v119.3q0,12.54,16.33,19.76a114.1,114.1,0,0,0,14.51,5l13.49,3.84Z"/><path class="cls-3" d="M26.54,44.68l-4-.58-1.82-3.67L19,44.1l-4,.58,2.9,2.88-.7,4.07,3.58-1.93,3.6,1.93-.7-4.07Z"/><path class="cls-4" d="M46.29,52c-.81.8-.77,2-1.63,2.52A1.42,1.42,0,0,1,43,54.39a1.3,1.3,0,0,1,0-1.82c.68-.76,2.09-.64,3.29-.62Zm-6,11.73a3.45,3.45,0,0,0,.6,2.34c-.7.55-.56,1.43-.24,2.22a6.23,6.23,0,0,0,3,2.82c.25-.44-.45-1.61-.2-2.42a4.45,4.45,0,0,0,2.37,1.2c-.4-.81-.44-1.36-.29-1.57,1.59-1.33,3.49-3,4.62-3.38a1.6,1.6,0,0,1,2,1.49A4,4,0,0,1,51,69.74c-1.54,1.65-3.62,2.45-5.23,4.23-2.55,2.83-3.09,6-6.19,6.13a9.77,9.77,0,0,0,3.67-4c-6.12.94-9.84-2.36-13.61-4.29a15.38,15.38,0,0,0-4.23-1.23,8.31,8.31,0,0,1-2.61-4.88c-.4-2.35.2-4.43-2-4.69-1.23-1.7-2.8-2.86-5.11-1.35A2.91,2.91,0,0,1,18.45,62c-.18.27-.59.67-.6,1.13a1.87,1.87,0,0,0-1.54.61c-2-.83-4-.49-4.95,1.54a3.29,3.29,0,0,1,3.5.62,3.26,3.26,0,0,0,.55,1.62A3.12,3.12,0,0,0,14,69.72a3.2,3.2,0,0,0-2.74,3,4,4,0,0,1,3-.77c.39.4.73,1.17,1.53,1.39s2.64-.13,3.64.17A2.57,2.57,0,0,1,20,75c-.14,1.74-3,.59-2.71,3.19a2.54,2.54,0,0,1-2.43-.67c.57,2.57,2.07,3.74,4.07,2.53,1.7.37,2.75-1.39,4.28-2.22s3.61.22,4.82,1.08a11.09,11.09,0,0,1,4.87,7,4.71,4.71,0,0,0,1.22-2.67l4.83,4.48L28.5,95.76c-.71.55-1.51,1.06-2.26.76s-1-1-1.56-1.49a2.56,2.56,0,0,0-3.09-.64c-1.86-.06-3.59.38-3.94,3.18A2.13,2.13,0,0,1,20,96.86a2.68,2.68,0,0,0,.63,1.84,2.09,2.09,0,0,0-1,1.27,3.1,3.1,0,0,0-3.14,3.11c1-1,1.79-1.41,2.94-.94.34,2.09,1.3,2.35,2.4,2.2a2.54,2.54,0,0,0,0,2.27,3.17,3.17,0,0,0,.92,3.62,2.78,2.78,0,0,1,.49-2.23c1,.24,1.7-.16,2.68-1.43a1.8,1.8,0,0,0,1.94,1.58,4,4,0,0,0,1.29,2.6,7.72,7.72,0,0,1-.13-2.83c1.78-1.41,1.42-2.93,1.72-4.68.32-1.94,1.3-2.8,2.87-3.83a24.7,24.7,0,0,1,12.28-4,53.69,53.69,0,0,0,5.77,6.42c-3.42,2.76-5.74,1.6-8.52,1.92a6.83,6.83,0,0,0-3.8,1.66c-.79.82-1.19,1.86-2.07,2.3a2.31,2.31,0,0,1-2.66-.44c0,2.49,1,3.32,3.51,3.18-.9,1.06-1.84,1.47-3.78.76a3.66,3.66,0,0,0,4.24,2.5c.5,3.4,4.86,5.29,4.08,8-1.05,3.64-9.1,4.64-12,2.75-2.06-1.32-3-3.53-5.39-2.8-1.34-1.21-3.79-1.61-4.81,1.29,1.76-1,2.56-.44,2.18.71-3.15,0-4.34,1.61-3.9,3.75.61-1.12,1.26-1.38,2.06-1.23a5.79,5.79,0,0,0-.4,2.61c-1.56.94-1.62,2.67-.92,4.11.41-1.18.62-2.26,1.58-2.31a4.69,4.69,0,0,0,2.41,1.67,9,9,0,0,0,.26,4.93,7.15,7.15,0,0,1,1.18-2.59,5.77,5.77,0,0,0,5,.69c3.43-.92,5.54-3.6,8.2-3.64,1.48,0,2.15,1.14,1.16,2.5a8.82,8.82,0,0,0,4.3-1.22c1.61-.93,2.62-2.09,4.18-2.47,2.6-.62,6.25,2.35,8-1-2,.34-3.22-.58-3.58-1.55,2.58.45,4.25.37,5.63-1.78-3.76.63-5.42-2.64-5.66-4.44A5.35,5.35,0,0,1,56,115.81a47,47,0,0,1,3-5.51l.4-1.89a4.62,4.62,0,0,1,.17,2.66c-.4,1.39-1.37,2.9-2,4.5A9.84,9.84,0,0,0,57,119.4a6.18,6.18,0,0,0,1.43,3.65c1.44,1.72,3.54,3.1,2.07,6.54,1.58-.16,2.49-.91,4.07-2.72a3.54,3.54,0,0,1,1.64,3.82c2-.61,3.25-2.18,4-4.45,2.86.08,4.46.65,4.74,1.75.46,1.83-4.12,8.63-9.86,8.86-.92-.24-1.64-1.19-2.35-1.53a1.78,1.78,0,0,0-2.3.84c-1.8-.48-3.92,0-4.47,2a3.69,3.69,0,0,0-1.87,3.46,7,7,0,0,1,2.08-1.21,2.18,2.18,0,0,0,1.26,1c-2.43,2.13-2.51,3.88-2.3,4.71,1-1.66,2.24-2,2.82-1.92a2.6,2.6,0,0,0,2.44,1.6l0,2.89,2.06-2.28a6.73,6.73,0,0,0,7-.94c3.45-2.59,4.88-7.65,7.44-7.31a1,1,0,0,1,.78,1.37,1.66,1.66,0,0,0,1.69-.65c1-1.2,1.63-3.58,3.51-6.4,1.2-1.79,4.09-3.74,4.91-5.52-1.34.88-2.91.6-3.12-.18,2.36-1.23,4.48-2.67,5.36-6.06a7,7,0,0,1-3.76.89c1.08-2.28,1.45-4.64.42-6.18-3.28,4.82-7.21,4-8.8,2.9-1.24-.87-2.42-2.19-2.52-5.25a12,12,0,0,1,.52-3.27,12.42,12.42,0,0,0,.74-3.24c4.85,2.8,8.66,3.64,11.4,3.52,5.13-.23,8.46-4.3,8.28-9.5a12.8,12.8,0,0,0-3.08-7.44c-2.15-2.75-5.2-5.41-7.21-8.16A11.8,11.8,0,0,1,84,80.41,7.5,7.5,0,0,1,86.4,73a13.17,13.17,0,0,0,7.71,2c2.49-.19,4.47-1.68,6.39-3.26a4.29,4.29,0,0,1,3.62-1.25,4.06,4.06,0,0,0-3.39-1.38c3.92-4.77,5.5-10.73,3.33-14.89-.36,2.4-1.16,3-1.88,3.48a33.1,33.1,0,0,1-3.11,1.5,4.73,4.73,0,0,0,.18-4c-1.7,4.39-3.9,3.34-7,6.55a6,6,0,0,0-.14-4,4.48,4.48,0,0,1-1.77,2.93c-2.8,2.07-6.31,2.55-5.63,9.24-3.59,2.85-4.9,6.23-4.65,9.6a14.65,14.65,0,0,0,3.16,7.78c1.93,2.56,4.61,5,6.51,7.26,2.07,2.53,4,7,1.76,10.14-1.48,2.07-5.74,3.26-14.71-2.37-.46-4.8-4.15-9.74-4.93-14.14A11.83,11.83,0,0,1,72,83.62a19.39,19.39,0,0,0,.66-4.36,4.75,4.75,0,0,0,4.61,1.09A3.45,3.45,0,0,1,75.36,77c0-2.55,1.49-5.13.11-8a3.72,3.72,0,0,0,3.86.69c-3.23-2.14-.28-4.9-1.82-8.44a4.46,4.46,0,0,0,4-.12c-3.82-.87-1.87-5.78-5.13-9a3.58,3.58,0,0,0,3.25-1.68c-3.44.57-5.19-4.07-8.11-6.56a11.51,11.51,0,0,0-10.06-2.44c-.05-.57.89-1.43,2-2-3.58-1.53-7.27-.39-10.41,2.42a4.7,4.7,0,0,0-.93-3.55c-.45,2.51-4.28,4.06-5.62,6.12a5.25,5.25,0,0,0-.94,3.12c-3.42,2.42-4.37,2.26-5.37,5.19a48.91,48.91,0,0,0-5,4.33c0,.44.22,1,.31,1.45l1-1a2.87,2.87,0,0,0,.13,2.55c.81,1.4,2.43,2.16,3.37,2.76-.58-1.76-.41-2.22.27-2.67,1.49-1,5-.63,5.27-.15.42.64-.1,3.67-2,4.47C42.14,65.13,41.23,64.71,40.24,63.68Z"/><path class="cls-1" d="M19.29,23.86c-.44,0-.72-.06-.84-.23s-.13-.42.07-.88L19.43,20a38.71,38.71,0,0,1,1.5-4q.51,1.32,1.32,3.84l.94,3c.21.46.24.75.11.87a1.23,1.23,0,0,1-.84.2ZM96.71,9.35a15.65,15.65,0,0,0-10,3.25A10.49,10.49,0,0,0,85,14.35a11.62,11.62,0,0,0-1.4,2.2,13.14,13.14,0,0,0-.91,2.63,12.64,12.64,0,0,0-.36,3.11A11.2,11.2,0,0,0,83.68,28a11.89,11.89,0,0,0,3.24,3.87,16.57,16.57,0,0,0,9.73,2.79,17.66,17.66,0,0,0,4-.52c1.24-.29,2.35-.56,3.34-.83a16.37,16.37,0,0,0,1.35-5.75.88.88,0,0,0-.63-.43,1,1,0,0,0-.72.18A10.31,10.31,0,0,1,101.59,31a6.85,6.85,0,0,1-2.08,1.35,6.62,6.62,0,0,1-2.9.59,7.55,7.55,0,0,1-5.88-2.89c-1.7-1.9-2.59-4.67-2.63-8.3s.93-6.37,2.67-8.15A7.75,7.75,0,0,1,96.43,11q5.32,0,6.81,5.23a1,1,0,0,0,.76.14.72.72,0,0,0,.6-.41,47.72,47.72,0,0,1-.43-5.69c-.55-.07-1.47-.24-2.76-.52a26.1,26.1,0,0,0-4.7-.43ZM68.36,13.11c0-.72,0-1.17.19-1.33a1.66,1.66,0,0,1,1-.18h3.22a6.88,6.88,0,0,1,2.24.29,2.58,2.58,0,0,1,1.29.91,9.14,9.14,0,0,1,1.06,2.86,1.34,1.34,0,0,0,.83.14.62.62,0,0,0,.55-.28q-.09-4.25-.09-5.7c-.73.07-2.37.11-4.94.11H65.63c-.88,0-1.76,0-2.64,0s-1.71,0-2.52-.07a.59.59,0,0,0-.29.59.91.91,0,0,0,.22.69l.73.11a1.74,1.74,0,0,1,1.57.8A10.68,10.68,0,0,1,63,15.19v13.6a10.26,10.26,0,0,1-.29,3.1,1.83,1.83,0,0,1-1.57.8l-1.21.18a.78.78,0,0,0-.22.62.89.89,0,0,0,.22.67c2.19-.08,4.12-.11,5.75-.11s3.65,0,5.88.11a.93.93,0,0,0,.22-.67.82.82,0,0,0-.22-.62l-1.35-.18a1.8,1.8,0,0,1-1.51-.81,7.57,7.57,0,0,1-.33-3.09V23.86a1.55,1.55,0,0,1,.19-1,1.45,1.45,0,0,1,.83-.14h3.16a3.57,3.57,0,0,1,1.95.37,2.8,2.8,0,0,1,.72,1.68l.18.88a1,1,0,0,0,.71.18.88.88,0,0,0,.65-.22c-.07-1.14-.1-2.41-.1-3.8s0-2.72.1-3.91a.71.71,0,0,0-.65-.28.93.93,0,0,0-.71.25l-.18.87a2.8,2.8,0,0,1-.72,1.68,3.4,3.4,0,0,1-1.95.38H69.38c-.46,0-.73-.06-.83-.24s-.19-.41-.19-.87V13.11ZM52,18.68a43.46,43.46,0,0,1,3-6.15,2.55,2.55,0,0,1,2-1.28l1-.18a.86.86,0,0,0,.22-.66A.84.84,0,0,0,58,9.82c-1.05.07-2.17.11-3.39.11s-2.84,0-4.49-.11a.55.55,0,0,0-.34.55.92.92,0,0,0,.19.7l1.06.24a2.1,2.1,0,0,1,.84.27.52.52,0,0,1,.14.36,5.9,5.9,0,0,1-.35,1.32c-.71,2-1.68,4.58-2.89,7.65l-1.36,3.42c-.46,1.16-.84,2.06-1.15,2.72-.25-.59-.63-1.52-1.14-2.83L41.87,16,40.8,13.26A6.37,6.37,0,0,1,40.41,12c0-.32.28-.56.91-.7l1.1-.21a1.28,1.28,0,0,0,.18-.7.71.71,0,0,0-.21-.55c-2.1.07-3.93.11-5.49.11s-3.33,0-4.95-.11a.76.76,0,0,0-.31.51.94.94,0,0,0,.17.74l1,.24a2.74,2.74,0,0,1,1.71.77A13.73,13.73,0,0,1,36,15.3l5.92,14.87c.56,1.51,1.06,2.9,1.53,4.16a1.39,1.39,0,0,0,1,.31,2.28,2.28,0,0,0,1.28-.31Q46.8,31.47,49.39,25L52,18.68Zm-29.39,7.1a7.21,7.21,0,0,1,1.3.08.68.68,0,0,1,.45.58l1,3.14a13.16,13.16,0,0,1,.7,2.49.52.52,0,0,1-.15.33,1.62,1.62,0,0,1-.83.29l-1.18.18a.82.82,0,0,0-.22.66.75.75,0,0,0,.29.63c1.58-.08,3.22-.11,4.94-.11,1.94,0,3.81,0,5.61.11a.87.87,0,0,0,.26-.7.88.88,0,0,0-.22-.59l-1.4-.21a1.9,1.9,0,0,1-1.36-.92,5.26,5.26,0,0,1-.49-1l-.59-1.35L25.79,15.07c-.86-2.45-1.41-4.11-1.66-5a.81.81,0,0,0-.83-.72l-.92.91a6,6,0,0,1-2.26,1.29,12.77,12.77,0,0,1-1.42,4.64l-3.28,8.9c-.93,2.53-1.68,4.49-2.27,5.85a3.2,3.2,0,0,1-1,1.4,2.86,2.86,0,0,1-1.24.42l-1,.11a1,1,0,0,0-.14.66.79.79,0,0,0,.26.63l3.75-.11c1.56,0,3,.06,4.28.11a.79.79,0,0,0,.25-.67.9.9,0,0,0-.18-.62l-1.1-.18a4.73,4.73,0,0,1-1-.32c-.2-.07-.3-.18-.3-.3A4.27,4.27,0,0,1,16,30.76l1.36-4.25a1,1,0,0,1,.39-.65,2.57,2.57,0,0,1,.8-.08Z"/></g></g></svg>