<?xml version="1.0" encoding="UTF-8"?><svg id="Layer_2" xmlns="http://www.w3.org/2000/svg" xmlns:xlink="http://www.w3.org/1999/xlink" viewBox="0 0 192 191.2"><defs><style>.cls-1{clip-path:url(#clippath-4);}.cls-1,.cls-2,.cls-3,.cls-4,.cls-5,.cls-6,.cls-7,.cls-8,.cls-9{fill:none;}.cls-10{fill:url(#linear-gradient-2);}.cls-2{clip-path:url(#clippath-2);}.cls-11,.cls-12{fill:#fff;}.cls-3{clip-path:url(#clippath-6);}.cls-13{fill:#bfbfbf;}.cls-12,.cls-14,.cls-15,.cls-16,.cls-17,.cls-18,.cls-19{fill-rule:evenodd;}.cls-14{fill:#80c41c;}.cls-20{fill:url(#linear-gradient-6);}.cls-15{fill:#ff7800;}.cls-4{clip-path:url(#clippath-7);}.cls-5{clip-path:url(#clippath-5);}.cls-16{fill:#fff295;}.cls-21{fill:url(#linear-gradient-5);}.cls-6{clip-path:url(#clippath-3);}.cls-22{fill:url(#linear-gradient-7);}.cls-8{clip-path:url(#clippath);}.cls-23{fill:url(#linear-gradient-3);}.cls-17,.cls-24{fill:#061844;}.cls-18{fill:#98037e;}.cls-9{clip-path:url(#clippath-1);}.cls-25{fill:url(#linear-gradient);}.cls-26{fill:url(#linear-gradient-4);}.cls-27{fill:url(#linear-gradient-8);}</style><clipPath id="clippath"><path class="cls-7" d="m109.6,35.8c-.8.5-4.9,6.9-16.3,8-11.5,1.1-14-3.2-14-3.2l.7,3.9,1.7,2.1s1.2,2.7,14.3,1.4c13-1.3,15.7-11.6,15.7-11.6-.2-.9-.4-1.8-.8-2.7h-.1c-.3,0-.5,1.6-1.2,2.1"/></clipPath><linearGradient id="linear-gradient" x1="-869.84" y1="437.43" x2="-861.11" y2="437.43" gradientTransform="translate(3315.2 1668.64) scale(3.72 -3.72)" gradientUnits="userSpaceOnUse"><stop offset="0" stop-color="#fff295"/><stop offset="0" stop-color="#fff295"/><stop offset=".19" stop-color="#ffed84"/><stop offset=".55" stop-color="#ffdf56"/><stop offset="1" stop-color="#ffcc16"/></linearGradient><clipPath id="clippath-1"><path class="cls-7" d="m101.7,45.6c-4.7,1.8-9.9,2.5-14.9,1.9-2.4-.3-4.8-1.3-6.8-2.7.3,1.6.7,3.1,1.1,4.6.1.5.2,1,.3,1.5.2.2.4.4.6.6.5.5,1.1.9,1.8,1.1,1.2.6,2.6,1,3.9,1.3,1,.2,2,.3,3,.3s2.2-.1,3.3-.2c1.1-.2,2.3-.4,3.4-.7,1.2-.2,2.3-.4,3.3-.7.2-.1.5-.2.7-.3,1.5-.5,3-1.1,4.4-1.8l1.2-.6c.9-.7,1.9-1.3,2.9-1.9,1.1-1.3,2.4-2,2.8-4.2.1-1.1,0-2.3-.2-3.4-.1-.6-.2-1.3-.3-1.9s-.1-1.9-.5-2.3c-.1.2-.9,6.3-10,9.4"/></clipPath><linearGradient id="linear-gradient-2" x1="-914.18" y1="378.01" x2="-905.46" y2="378.01" gradientTransform="translate(3735.7 789.69) rotate(-11) scale(3.77 -3.77)" gradientUnits="userSpaceOnUse"><stop offset="0" stop-color="#061844"/><stop offset=".13" stop-color="#061844"/><stop offset=".14" stop-color="#1c2e59"/><stop offset=".18" stop-color="#51658d"/><stop offset=".22" stop-color="#788db3"/><stop offset=".24" stop-color="#90a5ca"/><stop offset=".26" stop-color="#99aed3"/><stop offset=".28" stop-color="#8b9fc5"/><stop offset=".33" stop-color="#6579a1"/><stop offset=".39" stop-color="#293c66"/><stop offset=".42" stop-color="#061844"/><stop offset=".78" stop-color="#061844"/><stop offset="1" stop-color="#061844"/></linearGradient><clipPath id="clippath-2"><path class="cls-7" d="m122.8,38.3h-1c-1-.1-2,0-3,.2-.9.4-1.7.9-2.5,1.5-.6.4-1.2.8-1.7,1.3-.1.1-.3.3-.3.5,2.7-.1,5.5-.2,8.4-.2,1.4,0,2.9-.1,4.3,0s2.8.3,4.2.2c-.3-.8-1.6-.9-1.6-1.7s1.1-1,1.3-1.6c-2-.1-4-.2-6.1-.2h-2"/></clipPath><linearGradient id="linear-gradient-3" x1="-546.45" y1="273.44" x2="-537.73" y2="273.44" gradientTransform="translate(1174.48 570.52) scale(1.94 -1.94)" gradientUnits="userSpaceOnUse"><stop offset="0" stop-color="#061039"/><stop offset=".4" stop-color="#061641"/><stop offset="1" stop-color="#061844"/></linearGradient><clipPath id="clippath-3"><path class="cls-7" d="m117.9,42.3c-1,0-2,.1-3,.1-.3,0-1.6-.2-1.8,0s.1.7,0,1.2c-.2,1.2-1.9,3-3.2,4-3.2,2.5-7,4.3-11,5.1-4.3.9-8.8,1.7-13.1.3-1.7-.5-3.8-1.3-4.6-2.9-.9-2-1.5-4-1.8-6.1-2.5,1.3-4.3,3.6-5,6.3-.6,2.8,1,4.6,3.3,5.7,2.7,1.2,5.7,1.2,8.6,1.6,3,.3,6,.3,9,0,2.8-.2,5.6-.8,8.2-1.7,3-.8,5.9-2,8.5-3.6,2.5-1.5,4.7-3.3,6.8-5.4.8-.9,1.5-1.9,2-3,.4-.9.3-1.2-.4-1.5-.4-.1-.7-.2-1.1-.2-.5.1-1,.2-1.4.1m-5.5-4.4c.7-.5,1.4-1,2-1.6-.7-.3-1.5-.5-2.3-.5,0,.7.1,1.4.3,2.1m-18.9-5.4c-2.4.6-4.8,1.5-7,2.8-1.1.6-2.1,1.3-3.1,2s-1.9,1.5-2.7,2.4c-.7.8-1.3,1.5-.8,2.7.6.9,1.4,1.6,2.4,2,2.7,1.3,5.7,1.4,8.6,1.4,4.7,0,10-1,14-3.5,1.9-1.2,4.3-3.1,5.4-5.1.5-.7.6-1.6.5-2.4-.2-.8-.8-1.4-1.6-1.6-3-.9-6-1.4-9.1-1.4-2.4-.1-4.5.2-6.6.7"/></clipPath><linearGradient id="linear-gradient-4" x1="-973.61" y1="491.71" x2="-964.89" y2="491.71" gradientTransform="translate(5302.32 2685.39) scale(5.37 -5.37)" xlink:href="#linear-gradient"/><clipPath id="clippath-4"><path class="cls-7" d="m113.7,74.8c-.9,0-1.8.6-2.1,1.5.1.2.3.2.3.4-.3.3-.7.2-1.1.3-1.1.4-1.9,1.4-2,2.6.1.2.3.2.4.4-1,.8-2.4,1.2-2.2,3.2.3.1.6,0,.7.3-.4.3-.8.6-1.1,1s-.8,1-.4,1.6c.3-.1.7-.2.8.2-.5.4-.9.9-1.3,1.4-.1.6.1,1.3.6,1.7,2.3-.9,4.7-1.3,7.1-1.4-.3-1,.4-2.5,1.1-2.7,1.5-.3,2.4,1.1,2,2.7,1.8.1,3.6.4,5.3.9.2.2.5.2.6.4.2,0,.4-.1.7-.2.2-.7.9-1.4.4-2.2-1.2,0-.2-.7,0-1.2.4-1.2-.6-1.7-1-2.4.1-.3.4-.4.5-.7.7-1.6-1.3-2-1.9-2.7.3-.6.3-1.3-.1-1.8-.5-.7-2.5-.7-2.7-1.5,0-.3.2-.5.1-.8-.1-.6-.8-.9-1.4-.8-.3-.3-.8-.4-1.2-.4-.6,0-1.4.2-2.1.2"/></clipPath><linearGradient id="linear-gradient-5" x1="-591.49" y1="277.26" x2="-582.77" y2="277.26" gradientTransform="translate(1330.23 655.88) scale(2.07 -2.07)" xlink:href="#linear-gradient"/><clipPath id="clippath-5"><path class="cls-7" d="m112.2,88.4c-.7,0-1.3.3-2,.3-1.1.1-2.1.4-3,.9,4.7,1,9.6.9,14.3-.2-2.3-.8-4.7-1.1-7.1-1.1-.8,0-1.5,0-2.2.1"/></clipPath><linearGradient id="linear-gradient-6" x1="-429.43" y1="182.31" x2="-420.7" y2="182.31" gradientTransform="translate(811.46 388.43) scale(1.64 -1.64)" xlink:href="#linear-gradient"/><clipPath id="clippath-6"><polygon class="cls-7" points="76.4 69.8 75.8 71.4 74.9 69.6 74.4 70.2 74 71.5 73.8 70.6 73.3 70.3 73.1 71.8 73 72.4 72.4 71.8 71.9 71.4 71.5 72.7 71.5 73.6 70.8 73.1 70.6 73.8 70.7 74.9 70.7 75.3 69.9 75 69.9 77.2 69.2 77.4 69.3 77.7 69.4 78.7 69.9 79.7 70 80.2 69.1 80.1 69.7 81.4 70.3 82.3 71 82.6 71.3 83.5 71.7 85 71.9 85.7 71.5 86.5 71.8 87.3 72.2 88 70 93 71.4 93.6 72 94.3 73.3 94.3 74.9 94.5 76.7 94.3 78.3 94.4 79.8 93.5 80.5 93.6 81.6 93 80.5 90.5 79.9 88.2 79.8 87.7 80.3 86.9 80.6 86 80.1 85.5 79.8 85.5 80 84.3 80.3 83.5 80.9 82.5 81.7 81.2 82.4 81 82.7 80.1 82.1 79.4 82.5 79 83 78.4 81.8 77.8 82.7 76.3 82.8 75.9 81.6 76 81.6 75.4 82.2 74.1 81.4 73.8 80.4 74.1 80.3 73.5 81 71.5 80.3 71.5 78.8 72.4 79.1 71 79 70.2 77.9 71.1 77.5 71.8 77.2 70.5 77 69.2 76.4 69.8"/></clipPath><linearGradient id="linear-gradient-7" x1="-431.17" y1="175.57" x2="-422.45" y2="175.57" gradientTransform="translate(758.85 362.75) scale(1.6 -1.6)" xlink:href="#linear-gradient"/><clipPath id="clippath-7"><path class="cls-7" d="m94.9,97.3c-.2.4-.8.6-.8,1,0,.8-.1.6.2,1.2.1.2,0,.6,0,.8,0,.3,0,.6-.2.9-.6.5.6,1.8-.1,2.5-.9.8-1.4,1.9-1.4,3.2.1.1.2.6.3.7-.1.6.6.7.5,1.2,0,.1-.4.4-.4.6,0,.7.5.8.7,1.2h0c0,.1.1.3.2.4.1.4.5.2.7.9.1.1,0,.1-.1,0s-.2-.1-.2,0c.3.7.2.8.7,1.3.2.2.8,0,.8.2.5,0,.5.1.8-.2.1-.1.7,0,.8-.2.5-.5.8-1.2.9-1.9,0-.1-.3-.2-.3-.2.1-.5.2-1,.4-1.5.2-.1.3-.3.4-.4,0-.4.6-1,.6-1.5-.9-1.3-.1-1.7-.3-2.7-.3-.5-.2-.6-.6-1s-.4-.6-.3-.8c.1-.3.2-.6.2-.9,0-.7-.3-.6-.5-1.1,0-.1-.4-.2-.5-.3s-.2-.1-.1-.2c.1-.2.3-.4.5-.4.3-.1.4-.4.4-.7-.2-1.2.2-1.4,0-1.5-.3-.1-.5-.3-.7-.5-.1-.2-.2-.9-.5-1q-.6-.3-.7-.3h-.3,0c-.6-.1-.8.5-1.1,1.2"/></clipPath><linearGradient id="linear-gradient-8" x1="369.14" y1="-291.32" x2="377.86" y2="-291.32" gradientTransform="translate(-202.42 -128.31) scale(.8 -.8)" gradientUnits="userSpaceOnUse"><stop offset="0" stop-color="#fff295"/><stop offset="0" stop-color="#ffef91"/><stop offset=".18" stop-color="#ffcb65"/><stop offset=".34" stop-color="#ffad41"/><stop offset=".51" stop-color="#ff9624"/><stop offset=".67" stop-color="#ff8510"/><stop offset=".84" stop-color="#ff7b04"/><stop offset="1" stop-color="#ff7800"/></linearGradient></defs><g id="Layer_1-2"><path class="cls-11" d="m145.6,98.3c-.4-1.1-1.1-2-2.1-2.6-.7-.4-1.6-.5-2.4-.2-1.1.3-2,1.2-2.4,2.3-.1.2-.1.5-.1.7-2.3-3.3-3.9-7-4.6-10.9-1.5-7,.8-10.1,1.8-11,.4.6.9,1,1.6,1.2,1.2.4,2.5.2,3.5-.4,1.1-.6,1.9-3.2,1.1-4.9-.8-1.3-1.8-2.4-2.8-3.5-.5-.5-1-1-1.4-1.6-.4-.9-.8-1.8-1.1-2.8-.1-.3-.2-.6-.3-.9-.6-1.4-1.6-2.6-3-3.2-1-.4-2-.3-2.9.2-1.6.8-2.3,2.6-1.7,4.3-.9,0-1.7-.1-2.6-.4-1.1-.3-2.2-.8-3.2-1.4-3.5-2.1-7.4-3.3-11.4-3.5-6.8-.4-9.2,2.1-10,3l-.2.2c-1.6.2-3.2.2-4.8.1h-.8c-1.6.1-3.2,0-4.7-.1-.1-.1-.2-.1-.2-.2-.9-.9-3.2-3.3-10-3-4,.2-7.9,1.5-11.4,3.5-1,.6-2.1,1.1-3.3,1.4-.8.2-1.7.3-2.6.3.7-1.6-.1-3.5-1.7-4.3-.9-.5-2-.6-2.9-.2-1.4.6-2.5,1.8-3,3.2-.1.3-.2.6-.3.9-.3,1-.7,1.9-1.1,2.8-.4.6-.9,1.1-1.4,1.6-1.1,1-2.1,2.2-2.9,3.4-.8,1.7,0,4.3,1.1,4.9s2.3.8,3.5.4c.6-.2,1.2-.7,1.6-1.2,1,.9,3.3,4,1.8,11-.7,3.9-2.3,7.7-4.6,10.9,0-.2,0-.5-.1-.7-.4-1.1-1.3-1.9-2.4-2.3-.8-.3-1.7-.3-2.5.1-1,.6-1.8,1.5-2.2,2.6-.5,2.3.5,4.5,3.1,6.4l.1.1c2,1.4,5.2,3.9,4.8,13.4,0,.8-.1,1.6-.1,2.4-.5,8.6-.8,13.8,4.7,19.7,5.5,5.9,14.1,4.4,16.1,4,.5,1.2,2.5,5,5.3,7.1,2,1.3,4.1,2.3,6.4,3,2.6.9,4.9,1.7,5.8,3.5,0,.1,0,.3-.1.4-.2,1-.5,2.9.5,4.2.7.8,1.8,1.2,2.9,1.1h.3c1.1.1,2.1-.3,2.9-1,1.1-1.3.7-3.2.5-4.2,0-.1,0-.3-.1-.4.9-1.8,3.2-2.6,5.8-3.5,2.3-.7,4.4-1.7,6.4-3,2.9-2.1,4.8-5.9,5.3-7.1,2,.4,10.8,1.8,16.1-4s5.1-11.1,4.7-19.7c0-.8-.1-1.5-.1-2.4-.5-9.5,2.8-12,4.8-13.4l.1-.1c2.4-1.6,3.4-3.8,2.9-6.2"/><g class="cls-8"><rect class="cls-25" x="79.2" y="33.6" width="32.5" height="15.6"/></g><g class="cls-9"><polygon class="cls-10" points="76.7 37 111.8 30.2 116.3 53.5 81.2 60.4 76.7 37"/></g><path d="m133.2,42.6c0-1.1-2.1-1.8-2.7-2.4.8-.9,1.9-1.1,2.9-1.7-.2-1.4-2.9-1-3.9-1-2.9-.1-5.8.1-8.7.2,1.2-.6,2.4-1.2,3.6-1.6.5-.2,2.5-.7,2.7-1.3.4-1.4-3.4-1.2-4.1-1.2-.1-.7.9-2.2-.4-2.3-.7,0-1.8,1.1-2.4,1.3-1.3.7-2.6,1.4-3.9,2.2-1,.7-1.1.9-2.2.5-.8-.2-1.7-.5-2.4-1-1.4-1.5-3.3-2.5-5.3-2.8-9.2-1.7-19.3.3-26.1,7.2-.7.6-1.2,1.4-1.5,2.3-.2.7.4,1.8.1,2.4-.1.3-1.3.8-1.6,1-.5.3-.9.7-1.3,1.1-.8.8-1.5,1.7-2,2.8-1,2.1-.9,4.6.4,6.6,1.3,1.8,4,2.5,6.1,3,4.4.9,9,1.2,13.5.8,6.6-.7,10.6-1.9,13.7-3.3,4.5-2.1,10-4.7,12.7-9,.2-.3.4-.6.5-.9.2-.3.5-.6.6-1s.2-.8.2-1.3v-.5l1.3-.1c.8,0,1.7-.1,2.5-.1,2.5,0,5,.5,7.5.5.2-.1.2-.3.2-.4h0m-19.6-4.7c1.7-.9,3.1-2.1,4.8-3.1,1.3-.7,2.5-1.4,3.7-2.1.1.8-.2,1.1.4,1.6s2,.2,2.7.3c-2,1-4.1,1.8-6.1,2.8s-4,2.6-6.1,3.9c-.2-.7-.3-1.4-.4-2.1.2-.8.6-.5,1-1.3.4-.2-.2.4,0,0m-2.1-.8c.2,1.9,1.1,3.8.9,5.7-.1,1.7-1.5,3.1-2.7,4-3.1,2.4-6.6,4-10.4,4.8-4.1.8-8.1,1.7-12.3.8-1.7-.4-4-1.1-5.1-2.4s-1.4-4.3-1.7-6c5.2,3.5,11.5,3,17.4,1.8,5.1-1.1,11.9-4.1,13.8-9.6,0,.3.1.6.1.9m9.1,6.8c-.9,2.4-3.2,4.3-5.2,5.8-2.2,1.8-4.6,3.2-7.2,4.3-5.2,2.1-10.2,3.6-16,3.8-2.3.1-4.6-.1-6.9-.4-2.6-.4-5.1-.4-7.5-1.5-2.1-.9-3.6-2.6-3.3-5.1.6-2.7,2.3-5.1,4.8-6.4.5,2.1.9,5.4,2.5,7,1.3,1.3,4,2.1,5.7,2.4,5.2.9,10.5-.3,15.4-2,2.1-.8,4.2-1.8,6-3.2,1.5-1,3.5-2.5,4.2-4.3.1-.3.2-.5.2-.8,0-.7-.4-.7.4-1,.5,0,1.1,0,1.6.1,1.1,0,2.2-.1,3.3-.1,1.2.1,2.6-.2,2,1.4,0,.2.3-.4,0,0m8-2.4c-4.7-.2-9.3-.2-14,.1,3.9-4.3,10.8-3.2,15.9-2.9-.5.5-1.4.9-1,1.8.2.6,1,.8,1.4,1.2-.7-.1-1.5-.2-2.3-.2h0"/><path class="cls-15" d="m122.3,32.5c.2.4,0,1.2.1,1.6.9.5,2.4.2,3.4.5-.6.3-1.2.6-1.9.9-1.9.8-3.8,1.7-5.6,2.8-1.9,1.1-3.6,2.4-5.4,3.5-.1-1.1-.4-2-.5-3.1.6-.4,1.4-1.1,2.5-2,2.6-1.7,7.4-4.2,7.4-4.2"/><g class="cls-2"><rect class="cls-23" x="114.3" y="38.3" width="17" height="3.5"/></g><g class="cls-6"><rect class="cls-26" x="73.8" y="31.7" width="47.4" height="26.4"/></g><polygon class="cls-24" points="31.8 59.2 13.4 46.9 15.8 43.4 31.1 53.6 34.8 47.9 38 50 31.8 59.2"/><path class="cls-24" d="m26.9,29.4l10.8,11.1c1.5,1.5,2.9,1.7,4.4.2,1.5-1.4,1.4-2.9-.1-4.4l-10.8-11.1,3-3,10.8,11.2c3.4,3.5,2.8,7-.3,10-3.1,3-6.6,3.6-10,.1l-10.8-11.1,3-3Z"/><polygon class="cls-24" points="51.2 10.9 53.1 14.1 49 16.7 58.7 32.3 55.1 34.5 45.4 19 41.2 21.6 39.2 18.4 51.2 10.9"/><path class="cls-24" d="m58.5,15.2c-1.9-5.1.1-7.9,4-9.4,3.9-1.5,7.2-.6,9.1,4.5l2.8,7.4c1.9,5.1-.1,8-4,9.4s-7.2.6-9.1-4.5l-2.8-7.4Zm6.9,6.5c.9,2.3,2.1,2.6,3.7,2,1.6-.6,2.3-1.6,1.5-3.9l-3.1-8.4c-.9-2.3-2.1-2.5-3.7-2s-2.3,1.6-1.5,3.9l3.1,8.4Z"/><polygon class="cls-24" points="79.6 23.7 76.9 1.8 81.6 1.2 89 13.5 89 13.5 87.4 .5 91.3 0 94 22 89.9 22.5 81.8 9.1 81.7 9.1 83.5 23.2 79.6 23.7"/><polygon class="cls-24" points="121 3.3 120.3 6.9 115.5 6 112 24 107.9 23.2 111.4 5.2 106.5 4.3 107.2 .6 121 3.3"/><path class="cls-24" d="m123.5,11.4c2.1-5,5.5-5.7,9.3-4.1s5.7,4.5,3.6,9.5l-3,7.3c-2.1,5-5.5,5.7-9.3,4.2s-5.7-4.5-3.6-9.5l3-7.4Zm.7,9.4c-.9,2.3-.2,3.3,1.3,3.9,1.6.6,2.8.4,3.7-1.8l3.5-8.3c.9-2.3.2-3.3-1.3-3.9s-2.8-.4-3.7,1.8l-3.5,8.3Z"/><polygon class="cls-24" points="146 13.5 149.1 15.9 142.4 29.1 142.4 29.1 153.8 19.7 157 22.2 150.4 35.4 150.4 35.5 161.7 26 164.8 28.4 147.3 42.7 144.1 40.2 151.1 26.4 151 26.4 139 36.2 135.8 33.6 146 13.5"/><polygon class="cls-24" points="152 47.8 170.1 35.1 172.8 38.9 165.4 51.2 165.4 51.2 176.2 43.7 178.4 46.9 160.3 59.6 158 56.3 165.9 42.8 165.9 42.7 154.2 50.9 152 47.8"/><polygon class="cls-24" points="12.6 142.1 31.3 130.3 37 139.3 34.2 141.1 30.6 135.3 25.7 138.3 28.4 142.6 25.6 144.4 22.9 140.1 14.6 145.3 12.6 142.1"/><path class="cls-24" d="m34.5,144.9c2.3-2.1,5.4-2.5,8.1.4s2.1,6-.2,8.1l-8.3,7.8c-2.3,2.1-5.4,2.5-8.1-.4s-2.1-6,.2-8.1l8.3-7.8Zm-5.7,10.5c-1.2,1.1-1.5,2-.4,3.1,1,1.1,2,.9,3.2-.2l8.2-7.6c1.2-1.1,1.5-2,.4-3.1s-1.9-.9-3.2.2l-8.2,7.6Z"/><path class="cls-24" d="m45.6,156.2c1.8-2.5,4.8-3.5,8-1.2s3.2,5.5,1.4,8l-6.6,9.3c-1.8,2.5-4.8,3.5-8,1.2s-3.2-5.4-1.4-8l6.6-9.3Zm-3.5,11.4c-1,1.3-1,2.3.2,3.2s2.1.5,3.1-.8l6.5-9.1c1-1.3,1-2.3-.2-3.2s-2.1-.5-3.1.8l-6.5,9.1Z"/><polygon class="cls-24" points="61.4 164 58.1 162.4 59.6 159.4 69.6 164.2 68.2 167.2 64.9 165.6 56.8 182.6 53.4 181 61.4 164"/><path class="cls-24" d="m71.4,164.9l5.5,1.4c3.9,1,5.1,3.5,4.2,7.2-.4,1.9-1.8,3.4-3.7,3.8,1.6,1.3,2.3,3.1,1.6,5.8-.9,3.5-3.2,5.8-7.4,4.7l-5.8-1.6,5.6-21.3Zm-1.2,19.3l1.5.4c1.9.5,3-.4,3.5-2.6s0-3.5-2.1-4.1l-1.2-.3-1.7,6.6Zm2.6-9.6l1.3.4c1.3.4,2.7-.4,3.1-1.7,0-.1.1-.2.1-.3.5-2,0-3.2-1.6-3.6l-1.4-.4-1.5,5.6Z"/><path class="cls-24" d="m84.3,190.3l-3.7-.3,6.1-21.6,4.7.4,2,22.4-3.7-.3-.2-4.9-4.2-.4-1,4.7Zm2-8l3,.3-.6-9.6h-.1l-2.3,9.3Z"/><polygon class="cls-24" points="98.3 191 96.8 168.9 100.6 168.7 101.9 187.4 107.8 187 108.1 190.3 98.3 191"/><polygon class="cls-24" points="112.8 189.5 107.9 168 111.6 167.1 115.7 185.5 121.5 184.1 122.3 187.3 112.8 189.5"/><path class="cls-24" d="m134.5,166.3l-.8-1.5c-.9-1.6-2-2-2.9-1.5-1.4.7-1.4,1.6-.7,3.1l5.2,9.9c.8,1.5,1.6,1.9,2.9,1.2s1.3-1.6.6-2.8l-1.2-2.4,3.4-1.8,1.2,2.2c1.4,2.8,1,5.9-2.4,7.6-3.5,1.8-6.3.4-7.8-2.3l-5.3-10.1c-1.4-2.8-1-5.9,2.6-7.7,3.4-1.8,6.3-.2,7.8,2.8l.8,1.4-3.4,1.9Z"/><polygon class="cls-24" points="150.5 173.8 137 156.3 140 154 151.5 168.8 156.2 165.2 158.2 167.8 150.5 173.8"/><path class="cls-24" d="m145,150.1l2.6-2.8,12.2,11.4c1.2,1.1,2.2,1.2,3.1.2s.8-2-.4-3.1l-12.2-11.4,2.6-2.8,12,11.3c2.8,2.6,2.8,5.6.3,8.3s-5.5,2.8-8.3.2l-11.9-11.3Z"/><path class="cls-24" d="m154.9,139.1l3-4.8c2.1-3.5,4.9-3.9,8.1-1.9,1.7.9,2.7,2.7,2.5,4.7,1.8-1.2,3.6-1.4,6.1.1,3.1,1.9,4.6,4.8,2.3,8.4l-3.2,5.1-18.8-11.6Zm9.7,1.5l.7-1.2c.8-1.2.4-2.7-.8-3.5-.1-.1-.2-.1-.3-.2-1.8-1.1-3.1-1-4,.5l-.8,1.2,5.2,3.2Zm8.4,5.2l.8-1.4c1-1.7.4-3-1.4-4.1s-3.3-1.1-4.5.9l-.6,1,5.7,3.6Z"/><path d="m0,99.9c.8,0,1.3-.1,1.3-1.3v-7.3c0-1.2-.5-1.3-1.3-1.3v-.3h6.7l.1,1.9h-.4c-.2-1-.7-1.3-1.7-1.3h-1.3c-.8,0-.8.2-.8,1.3v2.8h1.9c1,0,1.3-.2,1.3-1.3h.3v3.3h-.3c0-.9-.4-1.3-1.3-1.3h-1.9v3.2c0,1.2.1,1.3.8,1.3h1.4c.8.1,1.6-.4,1.8-1.3v-.2h.4l-.1,2.1H0v-.3Z"/><path d="m14.1,92c-.1-1.1-1.2-1.9-2.3-1.8-1,0-1.8.7-1.8,1.7v.1c0,1.4,1.8,1.9,3,2.7s1.9,1.4,1.9,2.9c0,2-1.6,3-3.6,3-.8,0-1.7-.1-2.5-.3l-.1-2.2h.3c.2,1.1,1.2,1.9,2.4,1.8,1.1.1,2.1-.8,2.1-1.9v-.1c0-1.7-2.4-2.2-3.8-3.3-.7-.5-1-1.3-1-2.1,0-1.9,1.5-2.7,3.3-2.7.8,0,1.5.1,2.3.3l.1,2.2-.3-.3Z"/><path d="m17.3,99.9c.9,0,1.4-.1,1.4-1.3v-8.3h-.9c-1.5,0-1.7.7-1.9,1.5h-.4l.1-2.1h7.4l.1,2.1h-.4c-.1-1-.5-1.5-2-1.5h-.7v8.3c0,1.2.5,1.3,1.4,1.3v.3h-4.1v-.3Z"/><path d="m164.3,99.9c1.2,0,1.4-.2,1.4-1.7v-5.3c0-.8-.1-1.2-.7-1.2-.3,0-.6.1-.9.2v-.3l2.3-1.3h.5v7.9c0,1.5.3,1.7,1.2,1.7v.3h-3.8v-.3Z"/><path d="m170.4,97.6c-.2-1.2.6-2.2,1.8-2.4h0c-1-.2-1.7-1.2-1.6-2.2,0-1.4,1.1-2.5,2.5-2.5h.2c1.3-.2,2.6.8,2.7,2.1v.4c.1,1-.6,2-1.6,2.2h0c1.1.3,1.9,1.3,1.8,2.4,0,2-1.2,2.8-2.9,2.8-1.4.2-2.7-.8-2.9-2.3v-.5m2.9,2.1c1.1,0,1.6-.9,1.6-2.1s-.5-2.1-1.6-2.1-1.6.9-1.6,2.1.5,2.1,1.6,2.1m0-4.9c1.1,0,1.4-.9,1.4-1.9s-.4-1.9-1.4-1.9-1.4.9-1.4,1.9.4,1.9,1.4,1.9"/><path d="m178.3,97.6c-.2-1.2.6-2.2,1.8-2.4h0c-1-.2-1.7-1.2-1.6-2.2,0-1.4,1.1-2.5,2.5-2.5h.2c1.3-.2,2.6.7,2.7,2.1v.4c.1,1-.6,2-1.6,2.2h0c1.1.3,1.9,1.3,1.8,2.4,0,2-1.2,2.8-2.9,2.8-1.4.2-2.7-.8-2.9-2.3v-.5m3,2.1c1.1,0,1.6-.9,1.6-2.1s-.5-2.1-1.6-2.1-1.6.9-1.6,2.1.4,2.1,1.6,2.1m0-4.9c1.1,0,1.4-.9,1.4-1.9s-.4-1.9-1.4-1.9-1.4.9-1.4,1.9.3,1.9,1.4,1.9"/><path d="m187.6,94.8c.5-.3,1.1-.5,1.8-.5,1.4,0,2.6,1.1,2.6,2.6v.2c0,2.3-1.8,3.3-3.7,3.3-.7,0-1.4-.1-2.1-.3v-.6c.5.2,1.1.3,1.6.3,1.5.1,2.8-.9,2.9-2.4v-.3c0-1-.8-1.9-1.8-1.9-.6,0-1.2.3-1.6.8h-.8l.3-5.4h4.6v.8h-3.5l-.3,3.4Z"/><path class="cls-15" d="m57.4,96.2l31.4-.2v-32.9s-4.5-2.4-7.8-.6-10.3,4.5-16.6,4.1c-3.8-.3-4.2-1.2-4.2-1.2l-5.2,9s7,4.4,7.3,7.1c0,0,2.3,5.1-.2,9-1.3,2.1-2.8,4-4.7,5.7"/><path class="cls-17" d="m135.1,96.2l-31.9-.2v-33.8s4.5-1.4,7.8.3,10.3,4.6,16.6,4.1c3.8-.3,4.2-1.2,4.2-1.2l5.2,9s-7,4.4-7.3,7.1c0,0-2.3,5.1.1,9,1.5,2.2,3.2,4.1,5.3,5.7"/><path class="cls-17" d="m88.6,152.6v-42l-34.3-.2c1.7,4.5,2.7,9.3,2.8,14.2.1,7.7,1.1,13.8,12.8,16.4,8.3,2,18.7,11.6,18.7,11.6"/><path class="cls-15" d="m103.3,151.3v-40.7l34.4-.1c-1.8,4.5-2.8,9.3-2.9,14.2-.1,7.7-1.1,13.8-12.8,16.4-8.3,1.9-18.7,10.2-18.7,10.2"/><path class="cls-19" d="m117.4,74.3c1,.1,2.3,1.2,1.9,2.3.8.1,1.5.4,2.1.9.6.6.9,1.4.7,2.3.7.7,2.2,1.3,1.9,2.9-.1.3-.3.6-.6.8.7.6,1.4,2.1.6,3.1.4.6.5,1.2.4,1.9-.1.4-.6.8-.5,1.2-.9.6-2.3.6-3.7.9-1,.2-2,.4-3,.5-2.2.2-4.3.2-6.5,0-.4,0-.8-.1-1.2-.2-.8-.1-1.5-.2-2.2-.3-.5-.2-.9-.5-1.3-.9-.3-.2-.6-.3-.8-.7-.3-.8-.1-1.7.5-2.3-.9-1.1,0-2.5.8-3.1-.4-.3-.3-1.4-.1-1.9.3-.8,1.3-1.3,1.8-1.7-.5-1.8,1.4-3.2,2.8-3.6,0-1.2,1.2-1.9,2.3-2.2.1-.1.1-.3.2-.5.6-.4,1.2-.6,1.9-.7.5.1.9.3,1.3.6.1.1.1.2.2.3s.6,0,.5.4"/><path class="cls-16" d="m115.2,73.6c.2,0,.3.1.4,0-.1,0-.3-.1-.4,0"/><g class="cls-1"><rect class="cls-21" x="105.6" y="74.6" width="18.6" height="14.7"/></g><g class="cls-5"><rect class="cls-20" x="107.2" y="88.3" width="14.3" height="2.3"/></g><path class="cls-19" d="m116.8,76.7c-1-.2-2-.2-3,0-.3.1-.6,0-.7.3.1.2.4.1.7.1h1.8c.6,0,1.3.3,1.8.1,0-.4-.4-.5-.6-.5"/><path class="cls-19" d="m119.4,79.3c.1.1.1.3.3.4s.2-.1.2-.3c-.1-.2-.3-.2-.5-.1.1,0,0,0,0,0"/><path class="cls-19" d="m120.3,79.6h.2v-.2h-.2c-.1.1-.1.2,0,.2"/><path class="cls-19" d="m118.8,79.6c-.6-.2-1.3-.2-1.9-.2.3.2,1.5.7,1.9.2"/><path class="cls-19" d="m110.1,79.8c.4.3,1.2-.1,1.7-.2,0-.2.2-.1.3-.2-.7.2-1.6.1-2,.4"/><path class="cls-19" d="m121.5,82.2c-.4-.1-.7-.2-1.1-.2,0,.3.9.5,1.1.2"/><path class="cls-19" d="m121.8,82.4c0,.2.2.4.5.4,0-.1.1-.1.1-.2-.2-.2-.4-.3-.6-.2"/><path class="cls-19" d="m114.1,82.4h-1.8c-1.1,0-2.2.2-3.3.5-.2.1-.6.1-.7.3.6,0,1.1-.1,1.6-.3,1.5-.2,2.9-.2,4.4-.2.2,0,.6.1.7-.1,0-.3-.6-.2-.9-.2"/><path class="cls-19" d="m122.6,83.4c-1.1-.4-2.3-.6-3.5-.6,1.2.3,2.4.6,3.6.9q-.1-.1-.1-.3"/><path class="cls-19" d="m122,85.4c-.1-.2-.6-.3-.9-.3,0,.3.6.4.9.3"/><path class="cls-19" d="m112.1,85.1c-1.1.1-2.2.2-3.2.5-.3.1-.8.1-.9.4,1.5-.3,3-.5,4.5-.6h1.6c-.1-.5-1.5-.3-2-.3"/><path class="cls-19" d="m119.5,85.6c.9.2,1.7.3,2.5.6.1.1.5.3.6,0-.5-.3-1-.4-1.5-.5l-1.7-.3h0s.1,0,.1.2"/><path class="cls-19" d="m122.7,85.7c0-.3-.2-.3-.5-.3,0,.2.2.3.3.3h.2"/><path class="cls-19" d="m122.3,88.5c.1.2.3.3.5.4,0-.1.1-.1.1-.2-.3-.6-1.2-.8-2-.9.3.3.9.4,1.4.7"/><path class="cls-12" d="m74,113.1c.1.2.4.2.6.3.6-.8,1.7-1.1,2.6-.6.8.5,2.6,2.5,2,3.9-.1.3-.5.5-.5.7,0,.4.7.2,1,.4s.5,1.1.5,1.8c0,1.1-.4,2.1-1.1,2.9-.3.2-.5.3-.8.3s-.5-.4-.9-.3-.8,1.1-1.2,1.3c-.6.3-1.3.5-2,.5-.6,0-1.1,0-1.7-.1h-.7c-.7-.3-1-1.1-.6-1.8,0-.1.1-.1.1-.2-.1-.3-.5-.2-.8-.3s-.4-.3-.6-.3-.6.3-1.1.2c-.8-.5-1.4-1.4-1.4-2.4-.2-1.6.4-3,2.1-2.8.1-.2-.1-.4,0-.6-.2-.2-.7-.2-1-.4,0-.6.2-1.2.6-1.7.5-.6,1-1.1,1.7-1.4.3-.1.6-.3.9-.4h.3c.5-.2,1.1-.2,1.6-.2.3.4.5.8.4,1.2m-2.1.5c-.4.4-1,.6-1.3,1-.1.1-.2.3-.2.4.3-.4.7-.8,1.2-1,0,.1.1.2.2.2s.4-.2.4-.5c0-.1-.2-.1-.3-.1m4.3.5c.2.5,1.1.4,1,1.3.2.2.2,0,.4.1.1-.8-.7-1.2-1.4-1.4m-1.4,3c-.3.2-.6.3-1,.4.1-.2.1-.3-.2-.3-.2,0,.1.2,0,.3-.7-.1-1.3-.8-1.8-.4,0,.6.4.9.5,1.4-.3.4-.9.6-.9,1.3.1.1.2.1.3.1.5-.6,1.6,0,1.8.5-.1.4.1.8.4.8s.1-.5.1-.7c.1-.4.4-.8.8-1,.2-.1.3-.3.5-.5s.7-.2.7-.5-.3-.4-.5-.6c-.3-.3-.2-.8.1-1.1-.2-.6-.5.1-.8.3m-5.3,3.9c0-.1.2,0,.2-.2s-.3-.2-.4-.3c-.1-.4-.2-.8-.2-1.2-.1-.1,0,.1-.1.1,0-.4.1-1-.1-1.3-.3,1-.6,2.8.6,2.9m9.4-2.3c0,.5.1,1.1,0,1.6,0,.2-.2.4,0,.5.6-.1.5-2,.1-2.2h-.1v.1Zm-4,1.3c.1,0,.1.1.2.1.3,0,.2-.4.5-.5-.2-.5-.6.2-.7.4m-4,1.6c-.1.4.5.1,0,0m2.4,1.3c-.1-.1-.3-.1-.4,0,0,.2.1.3.3.4.6,0,1.2-.1,1.8-.4-.4-.5-1.3-.1-1.7,0"/><path class="cls-19" d="m72.2,113.8c0,.3-.2.4-.4.5s-.2,0-.2-.1c-.5.2-.9.6-1.2,1,0-.2.1-.3.2-.4.4-.4.9-.7,1.3-1,.1-.1.2-.1.3,0"/><path class="cls-19" d="m77.6,115.6c-.1-.1-.2,0-.4-.1.1-.9-.8-.8-1-1.3.7.1,1.5.5,1.4,1.4"/><path class="cls-19" d="m75.6,116.9c-.3.3-.3.8-.1,1.1.1.2.5.4.4.6s-.5.3-.7.4c-.1.2-.3.3-.5.5-.4.2-.6.6-.8,1,0,.2.1.5-.1.7-.2.2-.5-.4-.4-.8-.2-.5-1.2-1.1-1.8-.5-.1,0-.2-.1-.3-.1,0-.7.6-.9.9-1.3-.2-.5-.6-.8-.5-1.5.5-.4,1.1.4,1.8.4.2-.1-.1-.2,0-.3s.2.1.1.3c.4-.1.7-.2,1-.4.4-.1.7-.7,1-.1m-1,1.2c-.3-.9-2.1.1-1.6,1,.2,0,.3.2.5.2.6-.2,1.3-.5,1.1-1.2"/><path class="cls-16" d="m73.5,119.3c-.2,0-.3-.2-.5-.2-.5-.8,1.3-1.9,1.6-1,.2.6-.5.9-1.1,1.2"/><path class="cls-19" d="m68.8,118.3c.2.3.1.9.1,1.3.1,0,0-.2.1-.1,0,.4,0,.8.2,1.2.1.1.3.1.4.3,0,.2-.1.1-.2.2-1.1-.2-.8-2-.6-2.9"/><path class="cls-19" d="m78.9,118.7h0c.4.3.6,2.1,0,2.2-.1-.2,0-.3,0-.5.1-.5,0-1.1,0-1.6v-.1Z"/><path class="cls-19" d="m75.5,119.8c-.3.1-.2.4-.5.5-.1,0-.1-.1-.2-.1.2-.3.6-1,.7-.4"/><path class="cls-19" d="m70.9,121.7c.5.1-.1.4,0,0"/><path class="cls-14" d="m83.2,124.7c0,.1.2.1.2.2-.1.3-.2.6-.3.8,0,.1,0,.2.1.2-.3.6-.7,1.1-1.1,1.7,0,.2.1.2.1.3-.4.4-.7.8-1.1,1.2-.1.1-.1.2-.2.3s-.3.1-.4.2l-.3.3c-.5.3-1.1.4-1.5.8,0-.6.1-1.2.3-1.8-.4.1-.3.7-.5,1.1-.4-.1-.5-.6-.6-1s-.2-.9-.2-1.3c.1,0,.3,0,.4-.1-.1-.6,0-1.1.3-1.6.1,0,.1.1.2.1.4-.3.4-.8.6-1.2.2-.4.6-.5.8-.8.2,0,.2-.1.3,0,.7-1.1,2-1.9,3.3-2h.1c-.2.6.1,1.1,0,1.6-.3.5-.5.6-.5,1m-1.7-.1c-.5.5-.8,1.1-1.1,1.7-.1.2-.5.4-.3.6.4,0,.5-.5.7-.8.2-.4.4-.7.6-1,.2-.2.4-.2.3-.5h-.2m-2,3.9c.1-.3.1-.6,0-.9.1,0,.2,0,.2.1.1-.1.3-.3.2-.5s-.3.2-.4.2v-.4c-.1,0-.1-.1-.3-.1,0,.5-.4,1.6.3,1.6"/><path class="cls-19" d="m74.9,122.9c-.5.3-1.1.4-1.8.4-.2-.1-.3-.2-.3-.3.1-.1.2-.1.4,0,.5,0,1.4-.4,1.7-.1"/><path class="cls-19" d="m81.7,124.7c.1.3-.2.4-.3.5-.2.3-.4.6-.6,1-.2.3-.3.8-.7.8-.2-.2.2-.4.3-.6.3-.6.7-1.2,1.1-1.7h.2"/><path class="cls-17" d="m73.4,125.3c.1.6.2,1.3.2,1.9-.1-.1-.2-.3-.2-.5-.5-.3-.4-1.2-1.2-1.2,0-.2-.2-.2-.2-.4.5,0,1,0,1.4.2"/><path class="cls-14" d="m74.9,125.1c.2,1.3.6,2.6,1.3,3.8.3.5.7.9,1,1.3s.6.9.9,1.3c.6.7,1.3,1.4,2,2,1.2,1,2.6,1.9,3.4,3.4-.2.5-.3,1-.4,1.5-.3-.4-.5-.9-.8-1.4-.6-.7-1.3-1.4-2.1-2,0-.1-.1-.2-.1-.3-.9-.6-1.7-1.3-2.4-2,0-.1-.1-.1,0-.3-.4-.2-.5-.8-.8-1.1s-.6-.4-.6-.8c-.5-.3-.7-.8-1-1.4-.2-.3-.4-.7-.6-1-.3-1-.5-2-.6-3,.2.1.5,0,.8,0"/><path class="cls-19" d="m69.4,126.2c0,.2-.4.1-.4-.1s.4,0,.4.1"/><path class="cls-19" d="m69.7,126.3c.2,0,.2.1.4.1,0,.2-.1.2-.3.2,0-.1-.1-.1-.1-.3"/><path class="cls-19" d="m70.1,126.6c.2.1.4.1.6.2,0,.2-.2.2-.4.2s-.2-.2-.2-.4"/><path class="cls-19" d="m79.2,127c.2,0,.1.1.3.1-.1.1,0,.2,0,.4.2-.1.2-.3.4-.2s-.1.3-.2.5c0-.1-.2,0-.2-.1.1.3.1.6,0,.9-.6,0-.3-1.2-.3-1.6"/><path class="cls-14" d="m84.3,127.5c.2,0,0,.1,0,.3.5.2,1,0,1.3.3q0,.1.1.2c.1.1.2.1.3.2.3.3.4.6.4,1,.3.7.5,1.4.5,2.2-.5.2-.8-.2-1.3-.2-.2,0-.3.1-.5.2-.4,0-.8-.3-1.2-.3s-1,.1-1.5,0c-.6-.2-1.1-.5-1.6-.8-.2,0-.1.2-.2.2-.3,0-.5-.3-.6-.6.5-.4,1.1-1.2,2-1.1.3,0,.6.2.9.3.5,0,1-.2,1.4,0,.1,0,.1-.1.1-.1-.1-.7-1.1-.3-1.6-.1-.4-.2-.9-.3-1.4-.2-.1-.1.1-.2.2-.3.3-.3.6-.6,1-.8.8.1,1.1-.5,1.7-.4m-.5,1.9c0,.2.2.2.4.2,0-.3-.2-.3-.4-.2m1.1.5c0-.1-.1-.2-.3-.2,0,.1.2.3.3.2"/><path class="cls-17" d="m73.9,128.1c.1.2.2.3.3.5-.2,0-.3-.1-.5-.2.1,0,.2-.1.2-.3"/><path class="cls-19" d="m84.2,129.6c-.2,0-.4,0-.4-.2.2,0,.4,0,.4.2"/><path class="cls-19" d="m84.6,129.7c.1,0,.3.1.3.2-.2.1-.3,0-.3-.2"/><path class="cls-14" d="m73.7,131.2c-.8.1-1.6.4-2.1,1-.4-.1-.7.1-1,.3.1.2.3,0,.6,0-.1.2-.3.4-.5.6-.3.2-.9.2-.8.7.4-.2.9-.4,1.3-.6.1-.1,0-.2.1-.3.5-.5,1.1-.9,1.8-1.2.2-.1.5,0,.7.1-.1.2-.1.5-.2.6s.2.1.2.3c-.2.4-.8.6-.7,1.1-.1.2-.5.2-.4.7-.2.2-.6.2-.6.6-.7.4-1.4.7-2.2.9-.1,0-.1.1-.2.2-.8-.1-1.5.3-2,0-.1-.1.1-.2.2-.3.2-.7.5-1.5.8-2.1.2-.8.8-1.5,1.5-1.8.1,0,.1-.2.1-.2.9-.7,2-.8,3-.5,0-.3.3-.3.4-.1"/><path class="cls-12" d="m83.6,138.6c0-.4.2-.5,0,0"/><path class="cls-14" d="m66.9,123.6c.3,0,.5.4.8.5h.4c.4.1.7.5,1.1.1.4.3.8.4,1.3.3.5.5,1.3.6,1.5,1.3.5.1.8.5.7,1,.5.2.4,1.1.7,1.5-1.1-.2-1.3-1.5-1.9-2.3-.1.6.3,1,.5,1.5-.2,0-.3-.2-.6-.2.2.5,1,.5,1.2,1,.3,0,.6.2.8.4-.5.1-.8.4-1.3.5-.2,0-.5-.1-.8-.1s-.6,0-.9-.1c-.1-.1-.2-.2-.4-.3-.3-.1-.6-.1-.9-.2-.3-.2-.6-.4-.8-.5,0-.1.2-.1.2-.2-.5-.6-1.4-1.2-1.3-2.2-.1-.2-.2-.5-.2-.8.2,0,.1-.1.3-.1,0-.6-.3-.8-.4-1.1m2.2,2.4c0,.2.3.3.3.1,0-.1-.2-.2-.3-.1m.7.6c.2,0,.3,0,.3-.2-.1,0-.2-.1-.4-.1,0,.1.1.1.1.3m.5.3c.2,0,.3-.1.4-.2-.1-.1-.4-.1-.6-.2,0,.3.1.3.2.4"/><path class="cls-19" d="m74.7,112.6c.6-.5,1.5-.6,2.2-.4,1.4.7,2.5,1.9,2.9,3.5.1.6.1,1.1-.2,1.6,2,.8,1.2,4.9-.1,5.9-.5.4-1.2.5-1.8.2-.5.8-1.3,1.3-2.2,1.6,0,2.7,1.2,4.2,2.5,5.7.1-.4-.3-.7-.4-1.2-.3-.9-.4-1.8-.3-2.8.2-.1.2.2.3.3.4-.6.4-1.7,1.1-1.9.1-.4.5-.7.8-1,.1-.1.1-.3.3-.4s.4-.2.5-.3c.5-.5,1.1-.9,1.7-1.1.7-.3,1.5-.4,2.2-.4-.1.3-.4.3-.5.6,0,.3.1.5.2.7-.1.3-.1.8-.3,1,0,.2.2.1.3.3,0,.2-.2.4-.3.7s.2.1.2.2c-.3.6-.7,1.3-1.1,1.8,0,.1.2.1.2.2.7-.1,1.5-.2,2.2-.2.1.1,0,.2-.1.3,1.1.2,1.4,1.1,2,1.9-.1.3.2.6.2,1v.3c0,.4.5.9.1,1.2,0,.2.3.1.3.3-.3.2-.6-.1-.8-.2s-.4,0-.5-.1c-.2-.1-.3-.2-.5-.2s-.3.1-.5.2h-1.3c-.4,0-.9.1-1.3,0-.6-.1-1.1-.3-1.5-.7-.7.2-1.2-.4-1.5-.8-.2,0-.5.1-.7.3s-.2.5-.5.6c0,.1.2.2.1.4.6.7,1.3,1.3,2,1.9.1-.1.2-.3.4-.4.2.3.2.6.4.9.4.4.9.8,1.4,1.2.7.5,1.1,1.3,1.1,2.2,0,.2-.1.4-.1.6s.1.3,0,.4c-.1.1-.2.2-.2.3-.1.3,0,.7-.3.9-.4.1-.4-.4-.5-.7-.2,0-.2.1-.3,0-.4-1.1-1.1-2.1-2-2.9-.4-.4-.9-.8-1.3-1.1-.4-.5-.9-.9-1.4-1.3-.3-.2-.8-.1-1-.5,0-.1.2-.1.4-.1-.6-1-1.3-2-3-1.7-.1.3-.3.5-.1.8-.1.6-.7.8-.6,1.4-.2.2-.4.4-.7.5v.3c-.2.2-.6.3-.7.6-.8.3-1.6.6-2.3,1-.1.1-.1.2-.2.2-.4.2-.8,0-1.2.3-.7-.2-1.4-.2-2.1-.2,0-.4.2-.5.5-.5.6-.8.9-1.7,1.1-2.7.2-.2.3-.4.5-.7s.6-.4.8-.7c.1-.1.1-.3.2-.4s.6-.3.9-.4l.3-.3c.3-.2.7-.1,1.1-.3.4.2.8.2,1.2,0,.8.4,1.7.6,2.5.5-.4-.5-.8-1.8-1.5-1.8-.4,0-.6.4-1,.5-1,0-2.3.2-2.9-.5-.7,0-1.3-.2-1.8-.6-.1-.1,0-.1,0-.2-.6-.4-1.1-1-1.3-1.7-.2-.4-.4-.9-.4-1.3,0-.3-.3-.6-.3-.9,0-.1.2-.1.3-.1-.3-.5-.5-1.1-.5-1.7.3-.1.5.3.6.6.3.1.5.2.8.4.4-.3.7.1,1,.2.1-.1,0-.2.1-.3.5,0,.7.4,1,.5s.7.1,1,.3c-.2-.5-.3-1-.3-1.5-.1-.1-.3-.2-.4-.3-3.2,1.2-4.7-5.2-1.9-6.1-.4-.6-.5-1.3-.2-2,.4-1.2,1.8-2.1,3-2.5.2-.1.4-.2.6-.3h.6c1.2,0,2.2-.1,2.6.8m-1.1-.3c-.5,0-1.1,0-1.6.2h-.3c-.3.1-.6.2-.9.3-.6.4-1.1,1-1.6,1.6-.4.5-.6,1.1-.6,1.7.3.2.7.2,1,.4,0,.2.1.3,0,.6-1.6-.2-2.2,1.2-2.1,2.8,0,1,.6,1.9,1.4,2.4.5.2.8-.2,1.1-.2s.3.3.6.3c.2.1.7,0,.8.3-.4.6-.3,1.5.3,1.9.1,0,.1.1.2.1h.7c.6.1,1.1.1,1.7.1.7-.1,1.4-.2,2-.5.5-.3.8-1.2,1.2-1.3s.6.3.9.3.6-.1.8-.3c.7-.8,1.1-1.9,1.1-2.9,0-.8-.1-1.6-.5-1.8s-.9,0-1-.4c0-.2.3-.4.5-.7.6-1.4-1.1-3.4-2-3.9s-2-.3-2.6.6c-.2-.1-.5-.1-.6-.4.1-.4-.1-.8-.5-1m10.1,11.5c.1-.5-.2-1,0-1.6h-.1c-1.3.1-2.5.8-3.3,2-.1,0-.2.1-.3.1-.2.3-.6.5-.8.8s-.2.9-.6,1.2c-.1,0-.1-.1-.2-.2-.2.5-.3,1.1-.3,1.6-.1.1-.2.1-.4.1,0,.4.1.9.2,1.3.1.4.2.9.6,1,.2-.4.1-.9.5-1.1-.2.6-.3,1.2-.3,1.8.4-.5,1-.5,1.5-.8l.3-.3c.1-.1.3-.1.4-.2s.2-.2.2-.4c.4-.4.8-.7,1.2-1.1,0-.2-.1-.1-.1-.3.4-.6.8-1.1,1.1-1.7-.1,0-.1-.1-.2-.2.2-.2.3-.5.3-.8,0-.1-.2-.1-.2-.2.2-.3.5-.6.5-1m-16.2,1c-.2,0-.2.1-.3.1,0,.3.1.5.2.8-.1,1,.7,1.6,1.3,2.2,0,.1-.2.1-.2.2.3.1.5.4.8.5.3.2.6.1.9.2s.3.2.4.3c.3.1.6.1.9.1.3.1.5.1.8.2.5,0,.8-.3,1.3-.5-.2-.2-.5-.4-.8-.4-.2-.6-1-.5-1.2-1,.3,0,.4.1.6.1-.1-.5-.6-.9-.5-1.5.6.8.8,2.1,1.9,2.3-.3-.4-.2-1.3-.7-1.5.1-.5-.3-.9-.7-1-.2-.7-1-.9-1.5-1.3-.5.1-.9,0-1.3-.3-.4.4-.7,0-1.1-.1-.1,0-.3.1-.4,0-.3-.1-.5-.5-.8-.5,0,.5.4.7.4,1.1m4.7.5c0,.2.2.2.2.4.8,0,.7.9,1.2,1.2,0,.2.1.4.2.5-.1-.6-.1-1.3-.2-1.9-.4-.2-.9-.2-1.4-.2m1.9.2c.1,1,.3,2,.7,3,.2.3.4.7.6,1,.3.6.5,1.1,1,1.4,0,.4.4.5.6.8s.4.9.8,1.1v.3c.7.7,1.5,1.4,2.4,2,0,.1.1.2.1.3.8.6,1.5,1.3,2.1,2,.3.4.5.9.8,1.4.1-.5.2-1,.4-1.5-.8-1.5-2.2-2.4-3.4-3.4-.7-.6-1.4-1.3-2-2-.3-.4-.6-.9-.9-1.3s-.7-.9-1-1.3c-.7-1.2-1.1-2.5-1.3-3.8-.3-.2-.6-.1-.9,0m8.9,2.5c-.4.2-.7.5-1,.8-.1.1-.3.2-.2.3.5-.1.9,0,1.4.2.4-.1,1.5-.5,1.6.2,0,.1-.1.1-.1.1-.4-.3-.9,0-1.4,0-.3,0-.6-.2-.9-.3-.9,0-1.4.7-2,1.1.1.3.2.5.6.6.1,0,0-.3.2-.2.5.4,1,.6,1.6.8h1.5c.4,0,.8.3,1.2.3.2,0,.3-.1.4-.1.5,0,.8.4,1.3.2-.1-.7-.3-1.5-.5-2.2,0-.4-.2-.7-.4-1-.1-.1-.2-.1-.4-.2-.1-.1,0-.2-.1-.2-.3-.3-.9-.1-1.3-.3-.1-.1.1-.3,0-.3-.7-.1-1,.5-1.5.2m-9.2.8c.2,0,.3.1.5.2,0-.2-.1-.4-.3-.5,0,.1-.1.1-.2.3m-.5,2.5c-1-.3-2.1-.2-3,.5-.1,0,0,.2-.1.2-.7.4-1.3,1-1.5,1.8-.3.7-.6,1.4-.8,2.1-.1.1-.3.2-.2.3.5.3,1.2-.1,2,0,.1-.1.1-.2.2-.2.8-.3,1.6-.6,2.3-1,0-.4.4-.4.6-.6-.1-.4.3-.5.4-.7-.1-.5.6-.7.7-1.1,0-.2-.2-.1-.2-.3.1-.2.2-.4.2-.6-.2-.2-.5-.2-.7-.1-.7.3-1.3.7-1.8,1.2-.1.1,0,.2-.1.3-.4.3-.8.5-1.3.6-.2-.5.5-.5.8-.7.2-.2.4-.4.5-.6-.3,0-.4.2-.6,0,.3-.1.6-.4,1-.3.6-.6,1.3-.9,2.1-1,0-.2-.4-.2-.5-.1"/><path class="cls-19" d="m118.9,111.8c.1.3,0,.7.3.8.4,0,.6-.4.9-.6.4.1.2.6.3.9.5,0,.7-.6,1.1-.3s-.2.8-.1,1.2c.5-.1.8-.7,1.3-.5.2.2,0,.5,0,.8.3.2.7.1,1,.2.2.7-.4,1-.8,1.5-.5.8-1,1.6-1.5,2.5.2.2.8.3.7.6s-.4.3-.6.5c.1.4.7.5.5.9s-.7.2-.8.5c0,.4.5.7.5,1s-.5.1-.6.3c0,.3.3.6.1,1-.3,0-.6,0-.7.1,0,.3,0,.6-.1.9-.4-.2-.8-.1-1.1.3-.1.1-.1.2-.1.4-.6-.1-1,.2-1,.7,0,.1-.2.2-.3.1-.2,1-.1,2.1.5,3,.5-.9,1.1-1.8,1.8-2.6.2.3.5.5.8.7.1-.5-.6-.6-.6-1.2.4-.1.5.3.8.4.6.1,1.2-.5,1.4-1.1.1-.4-.1-.9,0-1.3.7.1.3,1,.8,1.1.3.1.4-.2.6-.4s.4-.3.6-.4c.3-.5.5-1,.7-1.6.7,0,.2,1,.7,1.2.6,0,1.1-.2,1.6-.5.2-.1.3-.3.5-.4.3-.1.6-.3.9-.4.1,0,.2.1.3.2-.3.8-1.7,1.2-1.3,2.4.2.1.5,0,.6.2-.2.7-1.1.6-1.2,1.4s1.2.7,1.2,1.6c-.8,0-1.4.6-1.6,1.3-.1.4,0,.8-.1,1-.2.1-.2-.3-.4-.4s-.4,0-.5,0c-.8.3-.6,1.5-.9,2-.4,0-.3-.3-.6-.3-.7-.1-.9,1-1.3,1.4-.5-.1-.3-.8-1-.9-.6,0-.7,1-1.3,1.2-.4-.2-.5-.7-1-.9-.3.2-.7.1-.9-.2h0c-.4.5-.7,1.1-.9,1.7-.1.3-.2.7-.3,1-.2.4-.3.9-.4,1.3-.5.2-1.1,1.2-1.6,1.5-.6.3-1.1.2-1.2-.4.1-.9.3-1.8.6-2.6-.4-.4-.8-.8-1.3-1-.2,0-.3.2-.5.2-.6-.3-1.2-.3-1.8,0-.3.2-.7.9-1,.2.5-1.1-.2-1.4-1.2-1.4-.6,0-1,.7-1.5.5.3-.6.3-1.2.1-1.8-.4-.5-1.9-.2-1.2-1.2.6-.3,1.3-.5,1.7-1.1.2-.4,0-.9-.4-1.1h-.1c-.4-.1-1.2-.3-1.6-.4-.4-.1-1.1,0-1-.5,0-.2.3-.2.6-.4.7-.3,1.3-.9,1.4-1.7-.2-.6-1.3-.1-1.5-.7.3-.4,1-.7,1.2-1.2.2-.6-.4-.9-.5-1.5.4-.3,1.5-.4,1.5-1,0-.3-.6-.5-.5-.9s.9-.5,1-.9c.4-.6.6-1.4.7-2.1.1,0,.1.1.3.1.3.8-.5,2.3.2,2.9.9.3,1.6-1.4,2.2-.5-.6.7-1.4,2.3-.6,3.1.6.1,1.1-.7,1.5-.2-.4.7-.7,1.5-.9,2.3.1.3.3.5.5.7.9.2,1.3-.7,2.1-.5-.1.7-.8,1.1-.6,1.9.1.3.2.6.4.9.2.3.6.4.6.7s-.6.7-.8,1c-.1.2-.2.5-.1.8,0,.3.4.6.3.8,0,.2-.5.5-.4.9.6.4,1.5.6,1.8,1.1.4-.5.6-1.4,1-1.9-.5-.5-.5-1.5-.7-2.3,0-.3-.1-.5,0-.8,0-.2-.1-.4-.1-.7s0-.7.2-1c-.1-.5.1-1.2-.3-1.5-.3,0-.6.1-.8-.2.1-.4.4-.8,0-.9-.3-.2-.5.2-.9.1q0-.1-.1-.1c0-.2.1-.4.2-.6,0-.2-.7-.1-.9-.4-.2-.4.3-.5.3-.8.1-.5-.6-.4-.8-.8.2-.5.7-.4.9-.9-.1-.3-.6-.2-.6-.5.2-.3.9-.1,1-.6-.3-.3-.7-.9.2-.8.3-.1.5-.3.7-.6,0-.2-.2-.3-.2-.6s.2-.1.2-.2c-.3-1.1-.7-2.1-1.2-3.1.7.2.6-.5.8-.9.5-.1.3.5.7.6s.4-.7.6-1.1c.4,0,.3.3.5.4.4-.1.4-.8.9-.7.3.1,0,.7.4.8s.5-.7,1.1-.6c-.2-.2-.1-.2,0-.1m-.3.6c-.3.2-.3.7-.7.7s-.6-.4-.9-.6c-.1.4-.4.6-.9.4,0,.6-.6.9-1.3.6-.7.3-.4.8-.1,1.5.1.1.2.3.3.4.2.4.3.8.3,1.2.2.2.4.6.8.4.1-.2.1-.6.2-.6.2-.1.2.3.4.4.4.3,1,.2,1.3-.2.3.2.3.5.6.6s.6-.3,1-.4c.1.1,0,.4.1.5.4.1.7-.1,1-.1s0,.3-.1.4c.5.5.8-.1,1.3,0,.6-.9,1.1-1.8,1.7-2.6-.4-.2-.7-.5-.9-.8-.3.3-.8.3-1.2,0-.1-.1-.2-.3-.2-.5-.6.1-.9-.3-1.1-.6-.8.3-1.2-.3-1.6-.7m2.3,5.7c-.2-.2-.5-.2-.7-.5-.3.2-.7-.1-1-.3-.2.1-.5.1-.7.2-.2-.1-.4-.3-.6-.4-.2.1-.4.2-.7.2-.2-.1-.5-.3-.7-.3-.2.3-.5.4-1,.3-.1.5-.5.8-.9,1,.3.5-.2,1-.6,1.1.4.4-.2,1-.5,1.1.6.2.7.8.4,1.4.2,0,.3.1.5.2.1.2.2.5.1.7h.5c.2.3.6.5.4,1.1,1.8.4.4,2.5,1,3.7,0,.2-.1.2-.1.4.4.7.4,1.8.8,2.5-.1.2.1.2,0,.5-.3.7-.8,1.2-1,2-.2,0-.3.2-.5.2-.7-.5-1.4-1-2.2-1.3-.2-.5-.1-1,.2-1.5-.7-.9,0-2,.5-2.6-.8-.5-1.1-1.6-.8-2.5-1.5.4-2.6-.9-1.8-2.5-1.4-.2-1.4-1.4-1.2-2.8-.5,0-.7.1-1-.2s-.3-.8-.5-.8-.6.6-.7.7c1,.8-.1,1.8-.9,2,.5.7.4,1.7-.3,2.3.4.1.8.2,1,.5,0,.6-.2,1.3-.7,1.7-.2.2-.6.3-.6.5,1.2.2,2.7.8,2.6,1.9-.1.9-1,1.2-1.5,1.7.9.3,1,1,1.2,1.8,1-.4,2.5-.1,2.6,1,.5-.2,1.1-.3,1.7-.3.1-.1.1-.2.2-.2,1.3.1,1.7.9,2.4,1.4-.1.6-.3,1.2-.4,1.9-.1.1-.3.2-.1.4.6-.4,1-.9,1.8-.9.3-1,.7-2,1.1-3,.2-.4.5-1.1.8-1.2.2.1.3.3.6.4.3.1.4-.1.5,0,.4.1.5.6.9.8.3-.4.4-1.1,1-1.2.6-.1.8.3,1.2.6.3-.6.8-1.4,1.6-.8,0-1.1.5-2.6,1.8-1.9,0-.8.6-1.6,1.3-1.9-1-.4-1.3-2.1-.2-2.5-.2-.4-.3-.9-.2-1.3-.6.3-1.9.2-2.2-.5-.2.4-.5.5-.7.8s-.6,1-1.4.7c-.3.8-.9,1.4-1.7,1.5.4.6.3,1.4-.2,2,.7,1-.6,2.7-1.6,2.1,0-1.2.8-2.2,1.1-3.4-.1-.2-.4-.2-.5-.2-.6.8-1.2,1.6-1.5,2.6-.4,0-.3-.4-.7-.5,0-.4-.3-.8-.4-1.2,0-.1.1-.2.1-.3s-.2-.5-.2-.7c0-.5.1-.9.2-1.4,0-.1.2-.2.3-.3.3-.4.5-.9,1.1-.7.1-.5.6-.8,1.1-.7l.1-.7c.2-.3.5-.1.6-.4v-.5c0-.2.2-.2.4-.4-.3-.5-.2-1.1.2-1.5-.3-.3-.3-.7-.1-1.1-.4.2-.4-.3-.6-.5m-.6,11.6c.4.1,1-.9.6-1.4-.3.3-.5.8-.6,1.4m-3.8,6.6c.2.1.3,0,.3-.2-.1,0-.2.1-.3.2"/><path class="cls-18" d="m119.9,112.9c.3.3.5.8,1.1.6,0,.5.4.8.9.8.2,0,.4-.1.5-.2.2.3.5.6.9.8-.6.8-1.1,1.8-1.7,2.6-.4-.1-.8.6-1.3,0,0-.1.2-.3,0-.4-.2-.1-.6.2-1,.1-.1-.1,0-.4-.1-.5-.3.1-.6.5-1,.4s-.3-.4-.6-.6c-.3.4-.8.5-1.3.2h0c-.1-.1,0-.4-.3-.4s-.1.5-.2.7c-.4.2-.6-.1-.8-.4,0-.4-.2-.8-.3-1.2-.1-.1-.2-.2-.3-.4-.3-.7-.5-1.2.1-1.5.6.3,1.2.1,1.3-.6.5.1.8,0,.9-.4.3.2.5.6.9.6s.4-.5.7-.7c.3.4.8,1,1.4.5m2.5,1.5c-.6.7-1.1,1.5-1.6,2.3,0,.2,0,.3.1.4,0-.1.1-.1.2-.1.5-.9,1-1.7,1.4-2.6,0,.1,0,0-.1,0m-1.4,0c-.1.3-.4.6-.6,1-.2.4-.5.8,0,.9.4-.5.7-1.1.8-1.8,0-.1-.1-.1-.2-.1m-2.4.9c0-.3.2-.7,0-.9-.1.3-.2.8,0,.9"/><path class="cls-19" d="m122.5,114.5c-.4.9-.9,1.8-1.4,2.7-.1,0-.2-.1-.2,0-.1-.1-.1-.3-.1-.4.4-.8,1-1.6,1.6-2.3,0-.1,0,0,.1,0"/><path class="cls-19" d="m121.2,114.6c-.1.7-.4,1.3-.8,1.8-.5,0-.2-.6,0-.9.2-.3.4-.7.6-1,.1,0,.2,0,.2.1"/><path class="cls-19" d="m118.6,114.6c.2.2,0,.6,0,.9-.2-.2-.2-.7,0-.9"/><path class="cls-19" d="m116.9,117.8c0,.1,0,.2-.1.2-.1-.1-.2-.1-.2-.3.1,0,.2,0,.3.1"/><path class="cls-19" d="m115.9,117.7c.1,0,.1.1.2.1,0,.1-.1.3-.1.4-.1,0-.1-.1-.2-.1,0-.1,0-.3.1-.4"/><path class="cls-19" d="m120.7,119c-.4,0-.7-.1-.7-.4.3-.2.8,0,.7.4"/><path class="cls-19" d="m119.2,118.5h.1c0,.3-.1.5-.3.7-.2-.2.1-.5.2-.7"/><path class="cls-19" d="m120.7,120.2c-.6.4-.8-1.1-.1-.5.1,0,.1.2.1.5"/><path class="cls-19" d="m119.7,119.9c-.1.3-.2.7-.5.7-.1-.3.2-.9.5-.7"/><path class="cls-19" d="m120.4,121.1c.1.8-.6,1.5-1.2,1.2.4-.4.7-.8,1-1.3.1,0,.1.1.2.1"/><path class="cls-19" d="m118.9,121.4h0c.1.4-.4.9-.8.9.2-.4.5-.7.8-.9"/><path class="cls-19" d="m118.9,123.2c0,.1-.1.2-.1.3h-.3c-.2-.4.1-.6.4-.3"/><path class="cls-19" d="m110,122c.2.3.4.6.3,1-.3-.2-.5-.6-.3-1"/><path class="cls-19" d="m124.7,126.4c-.2.8-.6,1.5-1.1,2,.3-.7.7-1.4,1.1-2"/><path class="cls-19" d="m109.5,124.9c.3.9.5,1.8.7,2.7-.4-.8-.7-1.7-.7-2.6v-.1"/><path class="cls-15" d="m120.8,128.2c.4.4-.2,1.4-.6,1.4,0-.5.2-1,.6-1.4"/><path class="cls-19" d="m118.2,129.8c-.3,0-.5-.2-.4-.4.3-.1.4.1.4.4"/><path class="cls-19" d="m117.3,129.6c.2.1.3.2.3.5,0,0-.1,0-.1.1-.2-.1-.3-.3-.2-.6h0"/><path class="cls-19" d="m121.2,130.6c.1,0,.2.1.2.2s-.2.1-.3,0c.1-.1.1-.2.1-.2"/><path class="cls-19" d="m111.6,130.3c.3.1.3.4.5.5.3,0,.6.2.6.4-.1.7-1.2-.4-1.1-.9"/><path class="cls-14" d="m116.7,136.1c0,.2-.1.3-.3.2,0-.2.2-.3.3-.2"/><path class="cls-14" d="m121.3,118.7c-.2.4-.1.8.1,1.1-.5.4-.6,1-.2,1.5-.2.2-.3.2-.4.4-.1.2,0,.4,0,.5-.1.3-.5.1-.6.4-.2.3-.1.4-.1.7-.5-.1-1,.2-1.1.7-.6-.2-.8.3-1.1.7l-.3.3c-.1.5-.2.9-.2,1.4,0,.2.2.4.2.7,0,.2-.1.2,0,.3.1.5.4.9.4,1.2.3.1.3.4.7.5.4-.9.9-1.8,1.5-2.6.2,0,.5,0,.5.2-.3,1.2-1.2,2.2-1.1,3.4,1,.6,2.3-1.1,1.6-2.1.5-.6.5-1.4.2-2,.8-.2,1.5-.7,1.7-1.5.8.3,1.1-.3,1.4-.7s.6-.4.7-.8c.3.7,1.6.8,2.2.5-.1.4,0,.9.2,1.3-1.1.4-.8,2.1.2,2.5-.8.3-1.3,1.1-1.4,1.9-1.3-.7-1.8.8-1.8,1.9-.8-.7-1.3.2-1.6.8-.4-.2-.7-.6-1.2-.6s-.7.8-1,1.2c-.4-.2-.5-.7-.9-.8-.2-.1-.4,0-.5,0-.2,0-.3-.3-.6-.4-.4.1-.6.8-.8,1.2-.4,1-.8,2-1.1,3.1-.8,0-1.2.6-1.8.9-.1-.2.1-.2.1-.4.1-.6.2-1.3.4-1.9-.8-.5-1.2-1.2-2.4-1.3-.1,0-.2.1-.2.2-.6-.1-1.2,0-1.7.3,0-1.1-1.6-1.4-2.6-1-.1-.8-.3-1.6-1.1-1.8.5-.6,1.4-.8,1.5-1.7.1-1.1-1.3-1.6-2.6-1.9,0-.2.4-.3.6-.5.5-.5.7-1.1.7-1.7-.2-.3-.6-.4-1-.5.7-.6.8-1.6.3-2.3.8-.2,1.9-1.2.9-2,.1,0,.6-.7.7-.7s.3.6.5.8.5.2,1,.2c-.2,1.4-.2,2.6,1.2,2.8-.8,1.6.3,2.9,1.8,2.5-.3.9,0,1.9.8,2.5-.5.6-1.2,1.7-.5,2.6-.3.4-.4,1-.2,1.5.8.3,1.5.8,2.2,1.3.2,0,.3-.2.5-.2.3-.7.7-1.3,1-2,0-.2-.2-.2,0-.5-.5-.7-.4-1.8-.8-2.5,0-.1.1-.2.1-.4-.6-1.2.8-3.3-1-3.7.2-.6-.2-.8-.5-1.1h-.5c0-.2,0-.5-.1-.7-.2,0-.4-.1-.5-.2.2-.6.1-1.2-.5-1.4.3-.2.8-.7.5-1.1.3-.2.8-.6.6-1.1.4-.2.9-.5.9-1.1.5.2.8,0,1-.3.3.1.5.2.7.3.2,0,.5-.1.7-.2.2.1.4.2.6.4.2,0,.5-.1.7-.2.3.2.7.5,1,.3.2.2.5.3.7.5.4,0,.4.4.7.4m-4.7-1c0,.2.1.2.2.3.1-.1.1-.2.1-.2-.1-.1-.2-.1-.3-.1m-.8.5c.1,0,.1.1.2.1.1-.1.1-.2.1-.4-.1,0-.1-.1-.2-.1-.1,0-.1.2-.1.4m4.2.4c0,.3.3.4.7.4.1-.4-.4-.5-.7-.4m-1,.6c.2-.2.3-.4.3-.7h-.1c-.1.2-.5.5-.2.7m1.6.5c-.7-.6-.4.9.1.5,0-.3,0-.4-.1-.5m-1.5.9c.3,0,.5-.4.6-.7-.4-.2-.6.4-.6.7m1.1.4c-.3.5-.6.9-1,1.3.6.3,1.3-.4,1.2-1.2,0,0,0-.1-.2-.1m-2,1.3c.4.1.8-.4.8-.8h-.1c-.3.2-.5.5-.7.8m.2,1.2c.1.1.2,0,.3,0,0-.1.1-.2.1-.4-.1-.2-.5,0-.4.4m-8.1-.5c.1-.4-.1-.7-.3-1-.2.4,0,.8.3,1m7.5,6.4c-.1.2.1.4.4.4.1-.3-.1-.4-.4-.4m-.3.8c0-.1.1,0,.1-.1,0-.2,0-.4-.3-.5,0,.2,0,.5.2.6m3.7.6c.1.1.2.1.3,0,0-.1-.1-.2-.2-.2s-.1.1-.1.2m-8.5.4c0-.2-.2-.4-.5-.4-.2-.2-.2-.4-.5-.5-.2.6.9,1.6,1,.9"/><g class="cls-3"><rect class="cls-22" x="69.1" y="69.2" width="13.9" height="25.3"/></g><path class="cls-19" d="m77.6,71.1c.4-.3.8-.7,1.2-1v-.3c.8.2.6,1.5.4,2.2.6-.2.9-.8,1.5-.8.2-.1.3-.2.6-.2,0,.9-.3,1.8-.7,2.7.5-.2,1.7-.2,1.3.4-.6,0-1.1.1-1.6.4-.2-.2-.1-.6-.3-.8.3-.6.5-1.2.7-1.9-1-.2-1.2,1-2.2,1.1-.6-.5.6-1.6.3-2.5-.6.6-1.1,1.3-1.5,2-.3-.1-.1-.8-.4-1,0-.6,0-1.3-.1-1.9-.3.2-.3.6-.4.9s-.3.6-.4.9,0,.5-.2.6c-.4-.2-.4-1.1-.7-1.5,0,0-.2-.5-.3-.5s-.5,1.2-.5,1.4.3.5-.1.7c-.6-.1-.4-1-.7-1.4-.2.6-.2,1.3-.2,1.9,0,.2.3.3.1.5-.4.1-.4-.5-.8-.5-.2-.3-.3-.6-.7-.7-.2.5-.4,1.5,0,1.8,0,.2-.2.4-.5.4s-.4-.6-.7-.6c0,.4,0,.9.1,1.3h.3c.3.4-.2.7-.5,1-.3,0-.3-.3-.6-.3-.1.6-.1,1.3.2,1.8.3.2.5.5.3.9-.6.2-.7-.5-1.1-.6-.3,1.2.6,1.8.9,2.7-.3.3-.8.4-1.1.1l-.1-.1c.2.7.7,1.4,1.3,1.8.1,0,0-.2.1-.1.5.8.8,1.8,1,2.7,0,.1.2,0,.2.1,0,.3.2.6.4.8-.2.5-.8.6-.7,1.2,0,.3.3.3.3.7-1.1.3-1-1.7-.3-2-.1-.9-.3-1.9-.7-2.7-.8-.3-1.4-.8-1.7-1.6-.3-.4-.5-1-.4-1.5.3-.1.5,0,.8.1-.3-.7-.5-1.5-.5-2.2,0-.2-.3-.2-.2-.4,0-.2.5-.2.8-.2.1-.8,0-1.6-.1-2.4.3-.1.5.2.7.2.1-.6,0-1.3.1-2,.3-.2.6,0,.9.1.1-.6.3-1.3.5-1.9.6,0,.7.5,1,.7.2-.7.1-1.5.5-1.9.3.1.6.3.8.6.2-.4.7-.8.6-1.4.4,0,.5.4.6.6.2.2.4.5.5.7.5-.5.6-1.3,1.3-1.5.6.6.5,1.6.7,2.4"/><path class="cls-19" d="m80,85.3c.6.1,1,.7.9,1.3-.1.3-.2.5-.4.7.1.1.1.2.1.3-.1.1-.4,0-.6.1s.1.1.1.2c.2,1.3.6,2.6,1.2,3.8.3.4.8,1.1.4,1.5-.7,0-1.3.9-2.1.4,0,0,0,.3-.2.4-.4,0-.8.4-1.2.5h-1.1c-1.2-.1-2.8.7-3.7,0-.8.3-1.8.1-2.4-.7-.8-.1-1.5-.4-1.4-1.2,0-.2.2-.3.3-.5.2-.3.3-.7.5-1,.6-.9,1.1-1.9,1.5-3-.1-.2-.4-.1-.4-.3.7-.2,1.5-.2,2.2,0-.1.7-1.1,0-1.5.3-.9,1.6-1.3,3.2-2.1,4.7.1.3.5.3.9.3.1-.2.1-.4.3-.5.2.1.3.3.3.5.4-.7.7-1.4.9-2.2.1.6-.3,1.2-.4,1.9,0,.4-.1.7-.2,1.1.1.2.6.1.8.1.2-1,.5-2,.9-3,.3,1-.3,1.8-.2,2.8.4.4,1.1.5,1.6.1.1-.4,0-.8.4-.9.2.2.1.6.1,1,.3,0,.7,0,1-.1,0-1.2.1-2.4.2-3.5.2.2.3.5.3.8.1.8,0,1.9.1,2.8.6.3,1.1-.2,1.6-.2.1-.1.2-.2.3-.3h.4c0-.9-.4-2.1-.4-3,.3,0,.5.4.5.7.1.7.3,1.5.5,2.2.3-.2.8-.2,1.1-.5-.8-1.6-1.3-3.3-1.6-5-1-.3-2.3.4-3-.2.3,0,.4-.2.7-.3.8-.1,1.6-.1,2.5-.2.2-.4.7-1,.2-1.4-.1,0-.1.2-.2.2-.9-.1-1.8-.1-2.8-.1,0-.5.9-.1,1.2-.3.2.1.4.1.6.1,0-.6.2-1.3.6-1.8.4.5-.4,1.1-.3,1.7h.3c.2-1.2.7-2.3,1.4-3.3.3-.3.7-.6.8-1.2.4-.1.6-.4.9-.7-.4-.3-.5-.8-.4-1.3.3-.1.5-.3.6-.5-.4-.4-1.3-.4-1.1-1.3.3-.3.8-.6.9-1.1-.6-.2-1,.5-1.4.2,0-.2.2-.2.3-.3-.1-.2-.2-.4-.2-.6.5-.4.8-.9,1-1.6.2-.1.2-.6.6-.4-.1.8-.4,1.6-.8,2.2.4.1.9-.3,1.3-.1.2,1-.7,1.5-1.1,2.1.2.1.5.2.7.3.2-.1.2-.3.5-.2.3.8-.4,1.4-.9,1.8.1.2.5.1.7.2,0,.7-.4,1.4-1.2,1.5-.1,1-1.2,1.1-1.3,2h0c-.2.7-.4,1.4-.6,2"/><path class="cls-19" d="m74.5,74.3c-.1-.5-.1-1,0-1.5-.1-.1-.1-.2-.2-.2-.2.6-.3,1.5.2,1.7"/><path class="cls-19" d="m76.1,74.1c.1-.4.4-1,0-1.2,0,.4-.2,1.1,0,1.2"/><path class="cls-19" d="m77.6,74.4c0-.5-.2-1-.6-.8.3.3.3.9.4,1.4.3,0,.2-.4.2-.6"/><path class="cls-19" d="m72.9,74.2c-.3.6-.3,1.8.3,2,.1-.6-.4-1.3.1-1.7.2.2.3.4.4.7.1.3.1.6.3.8.1-.9-.2-2-1.1-1.8"/><path class="cls-19" d="m79,75.1c.6.4,0,1-.1,1.5,0,0,.1,0,.1.1.6-.3.8-1.1.5-1.6,0-.1.1-.1.1-.2s-.1-.1-.2-.1c-.1.1-.3.1-.4.3"/><path class="cls-19" d="m77.9,77c.4-.2.8-.8.5-1.2-.1.4-.6.7-.5,1.2"/><path class="cls-19" d="m80.4,78.3c.4,0,.5-.8.2-.9-.1.3-.4.6-.2.9"/><path class="cls-19" d="m73.9,78.6c.2-.1,0-.4,0-.6-.5-.4-.6.7,0,.6"/><path class="cls-19" d="m73.3,79.7c-.1-.2-.3-.2-.4-.3-.2-.4-.3-.9-.3-1.3-.1,0-.1-.1-.2-.1-.3.5.2,2.4.9,1.7"/><path class="cls-19" d="m77.7,79c.1-.2.2-.4.2-.7-.1,0-.1-.1-.2-.1-.1.3-.4.7,0,.8"/><path class="cls-19" d="m80.8,79.9c.5.5,1.1-1.3.5-1.4-.2.5-.6.9-.5,1.4"/><path class="cls-19" d="m75.9,78.7c-.1.4-.3,1.4,0,1.7.3-.3.4-1.6,0-1.7"/><path class="cls-19" d="m77.8,80.3c.1-.1.3-.7,0-.8-.1.2-.4.7,0,.8"/><path class="cls-19" d="m80.1,80.3c-.2.2-.8,1.6-.4,1.8.3-.1.3-.5.4-.8.1-.3.2-.7.2-1,0,0-.1-.1-.2,0"/><path class="cls-19" d="m73.7,81.3c-.1,1.4.5,2.8.3,4.3-.3.1-.8-.1-.7.3.3.1.6.1.9.1.1-.1.1-.2.2-.2,0-1.2-.1-2.3-.3-3.5-.1-.4-.2-.8-.4-1h0Z"/><path class="cls-19" d="m78.1,84c0,.2-.3.6,0,.7.4-1,.7-2,.8-3h0c-.3.8-.6,1.5-.8,2.3"/><path class="cls-19" d="m76.2,82.8c.1-.1.1-.3,0-.5q-.1-.1-.2-.1c-.1.4-.1.6.2.6"/><path class="cls-19" d="m76.3,85.6c0,.1.1.3.2.3.2-.9.3-1.8.2-2.7h-.1c-.2.8-.3,1.6-.3,2.4"/><path class="cls-19" d="m75.8,83.9c.1.1.1.2.3.2s.1-.1.1-.3c-.1,0-.4-.1-.4.1"/><path class="cls-19" d="m76.1,85.4c0-.3-.2-.3-.3-.4-.3.3.1.6.3.4"/><path class="cls-19" d="m75.1,85.9c.2.1.4.1.5,0,0,.2.4.2.3-.1-.3-.1-.5-.1-.8-.2.1.1,0,.1,0,.3"/><path class="cls-19" d="m109.3,124.6c0,.6,0,1.1.2,1.7.1.6.4,1.1.8,1.5l-.5-2.5-.5-.7Z"/><path class="cls-19" d="m110.6,128.8c0,.2.1.5.2.7.1.1.3.2.4.3l-.6-1Z"/><path class="cls-19" d="m123.4,128.6c.7-.7,1.3-1.6,1.7-2.6,0-.4-1,1.2-1,1.2l-.7,1.4Z"/><path class="cls-19" d="m122.9,129.3c-.1.4-.3.7-.6.9-.2.1-.4.2-.7.2l.7-.8.6-.3Z"/><path class="cls-19" d="m118.6,119.7c.2.2-.4.6-.4.6l.1-.5.3-.1Z"/><path class="cls-19" d="m118.2,121.2c.1-.1.1-.2,0-.3,0-.1-.1-.1-.2-.1s-.3.3-.3.3h.5v.1Z"/><path class="cls-19" d="m117.5,122.7c0,.2.1.5.2.6v-.4l-.2-.2Z"/><polygon class="cls-19" points="117.3 121.7 117.8 121.9 117.5 122 117.3 121.7"/><polygon class="cls-19" points="120.6 114.1 119.7 115.8 119.3 116 119.7 114.9 120.2 114.2 120.6 114.1"/><polygon class="cls-19" points="119.1 113.5 118.7 116.1 118.9 116.3 119.2 114.6 119.1 113.5"/><path class="cls-19" d="m118.1,118.1c.1.1.1.2.1.4h-.2l.1-.4Z"/><path class="cls-19" d="m69.4,134.4c-.2.1-.4.3-.5.5h.3l.2-.5Z"/><path class="cls-19" d="m107.2,102.7c1-.1,3.6-1.7,3.4-3.8-.2-2.5-7.8-1-11,.3l.8-.8c.1-.1-.7-1.2-.7-1.2,0,0,.6-.7.6-1.1s0-.1-.2.1-.9.9-.8,1.2c0,.3.5.8.4,1-.2.3-.5.6-.7.9h0c-.3-.5-.5-.6,0-1.3.2-.6,0-1.2-.6-1.5q-.1,0-.2-.1c-.1,0-.2-.1-.3-.2.1-.4.2-.9.5-1.2.5-.5,1.1-.8,1.8-1,0,0-.3-.6-1.9.6-.4.3-.7.7-.9,1.2-.3-.2-.6-.2-.9-.2-.4,0-.8.2-1.1.4-.2-.5-.5-1-1-1.3-1.9-1.3-2-.7-2-.7.7.3,1.3.7,1.9,1.1.3.4.5.8.6,1.2-.1.1-.3.1-.4.1-.7.2-.6,1.2-.5,1.6s.3.7-.2,1.3l-.1.1c-.3-.4-.7-.8-.9-1.2,0-.2.5-.6.6-.9s-.6-.9-.7-1.1,0-.4-.2-.1.4,1,.4,1c0,0-1,1-.9,1.1l1.3,1.6c-2.1-.5-9-3.9-10.7-1.4s1.3,4,2.5,4.5c.8.4,1.6.1,2.9-.2-.8.4-1.6.8-2.4,1.3-2.1,1.4,1.8,3,3.3,2.6,1.5-.6,2.9-1.5,4.1-2.5-.1.2-.2.4-.3.7l-2.1,1.5c-.2,1-.6,2-1.1,2.9-.6.7,1.3-.7,1.7-2.3,0-.2.7-.6,1.1-.9-.1.2-.1.5-.2.8v.1l-.8,1.4s-.3,1.8-.4,2.4c-.2.5-.4,1-.8,1.4.5-.1,1-.5,1.1-.9.2-.8.4-1.6.6-2.4l.2-.4c.5,2.5,2,4.6,4.1,6,.4,0,1.4-.2,2.8-2.7.6-1,1.1-2.1,1.3-3.3l.2.2c.1.8.3,1.6.6,2.4.2.5.6.8,1.2.9-.4-.4-.7-1-.8-1.5-.2-.6-.4-2.1-.4-2.1l-.8-1.3c0-.3-.1-.6-.1-.9.4.3,1,.7,1,.9.4,1.6,2.2,3,1.7,2.3-.5-.9-.8-1.9-1.1-2.9l-1.8-1.3c-.1-.3-.2-.5-.2-.7,1,.8,3,2.4,4.2,2.4,1.4,0,4.5-2.1,3.1-3-.8-.5-1.7-.9-2.6-1.2.9.1,1.9.1,2.8.1"/><g class="cls-4"><rect class="cls-27" x="92.6" y="96.1" width="6.9" height="17.3"/></g><path class="cls-19" d="m93,106.9s-.1-1.5,3-1.5,3,1.4,3,1.4c-1,.2-1.9.3-2.9.4-1.2-.1-3,.2-3.1-.3"/><path class="cls-19" d="m93.6,108.3h2.4c1.7,0,2.6.2,2.8.7.2.4-1,1-2.8,1s-2.1.1-2.4-.3c-.2-.4-.9-1.3,0-1.4"/><path class="cls-19" d="m94.2,111.2c1.7-.1,2.4-.3,3.1.1.8.4,1.7.7.6,1.1-.9.3-1.9.4-2.8.3-.5-.1-.9-.5-1-.9-.2-.5.2-.6.1-.6"/><path class="cls-19" d="m98,101.3h0c.8-.6-.2-1.8.1-2.1.5-.5-.5-1.6-1.9-1.5-2.4.1-2.1,1.9-1.9,2.3.1.5.3.4.2.7-.1.2-.1.4-.2.6-.1.2-.2.5-.2.7,0,.4.2.8.5,1.1.3.3.3.6,1.8.5,1.2-.1,1.5-.4,1.7-1.1.3-.4.2-.9-.1-1.2"/><path class="cls-12" d="m93.6,100.8c-.6-.2-6.7-2.5-7.9-2.5s-2.6-.2-2.9,1.4,1.7,2.4,2.3,2.5,2.9-.1,6.8.2c1.4.1,1.9.4,1.6-.2-.1-.5-.1-1,.1-1.4"/><path class="cls-12" d="m92.5,102.1c-1.6.2-3.1.7-4.6,1.4-1.1.6-2.7,1.3-2.1,1.7.8.8,2,1.1,3.1.8,1.6-.4,4.8-2.8,4.8-3.2-.1-1.2-1.2-.7-1.2-.7"/><path class="cls-12" d="m98.7,100.6c.7-.2,6-2.2,8.5-2.4s2.6.6,2.5.9-1,2.4-2.4,2.8-6.2,0-7.5.7c-.9.5-.7-.2-.8-.7s-.8-1.2-.3-1.3"/><path class="cls-12" d="m99.6,101.5c.6-.2,4.5,1.4,5.2,1.8s1.7.7,1.5,1.1-2,2-2.8,1.6c-1.1-.5-2.2-1-3.2-1.7-.8-.5-1.6-.9-1.4-1.4.3-.5-.2-1.1.7-1.4"/><path class="cls-19" d="m91.1,101.1c-1.9-.4-4.2-.8-4.2-.8l1.8.6,2.5.2s-.1,0-.1,0Z"/><path class="cls-19" d="m100.7,100.9s3.9-.4,4.4-.6c.2-.1.5-.1.8,0-.6.3-1.3.5-2,.6-1.2,0-3.3,0-3.2,0"/><path class="cls-19" d="m91.4,103.6l-1.5.4-.3.1c-.7.2-1.3.3-1.4.3.6,0,1.2-.1,1.8-.3l1.4-.5"/><path class="cls-19" d="m101.2,103.2c.6.4,1.3.8,2,1.2.8.3.3.3.3.3-.4-.1-.8-.3-1.1-.5-.5-.3-1.2-1-1.2-1"/><path d="m96.1,157l-7.8-4v-41.8h-32.7l-3.6-7.6,4.9-7.9h31.4v-29.8h15.5v29.8h31.7l3.8,6.9-2.4,8.6h-33v41.8l-7.8,4Zm-7.1-4.4l7,3.6,7-3.6v-42.1h33.2l2.2-7.8-3.4-6.3h-32v-29.8h-14v29.8h-31.7l-4.4,7.2,3.1,6.9h33v42.1Z"/><path class="cls-13" d="m96.4,63.7c1.7.1,3.3,0,5-.2.5-.2,2.2-3.6,10-3.1s11.5,4.2,14.5,4.9,3.3.2,3.3.2c-.8-1.4-.3-3.3,1.1-4.1l.1-.1c2.7-1.4,4.8,1.5,5.3,2.7.4,1.3.9,2.5,1.4,3.7.5.8,3.6,3.6,4.2,5s.1,3.8-.8,4.2c-3.6,1.8-4.8-1.1-4.8-1.1,0,0-4.3,2.7-2.4,11.9s6.3,12.9,6.3,12.9c0,0-2.4-3.1,1.4-4.7,2.1-.8,3.8,1.5,4,2.4.6,2.5-.9,4.5-2.9,5.9s-5.6,3.9-5.1,13.9,1.4,15.4-4.4,21.7-16,3.8-16,3.8c0,0-2.1,4.8-5.3,7.3-4.4,3.3-10.6,3.1-12.4,6.8-.2.4,1.8,5.3-2.9,5.3h-.3c-4.7,0-2.7-5-2.9-5.3-1.8-3.6-8-3.5-12.4-6.8-3.3-2.5-5.3-7.3-5.3-7.3,0,0-10.3,2.4-16-3.8-5.7-6.3-4.9-11.7-4.4-21.7s-3.1-12.5-5.1-13.9-3.5-3.4-2.9-5.9c.2-.9,1.9-3.2,4-2.4,3.8,1.5,1.4,4.7,1.4,4.7,0,0,4.3-3.7,6.3-12.9,2-9.2-2.4-11.9-2.4-11.9,0,0-1.2,2.9-4.8,1.1-.9-.4-1.5-2.8-.8-4.2.7-1.4,3.7-4.2,4.2-5,.6-1.2,1.1-2.5,1.4-3.7.4-1.2,2.5-4.2,5.3-2.7,1.5.7,2.1,2.5,1.3,4,0,0,0,.1-.1.1,0,0,.3.5,3.3-.2s6.7-4.5,14.5-4.9,9.5,2.9,10,3.1c1.7.2,3.3.2,5,.2h1.1v.1Zm-.7,3.6l-4.1.1s-2.2,2.9-4.7,1c-2.2-1.6-.1-3.7-.1-3.7,0,0-.1-.9-3.1-.9-3.8,0-8.7,4.9-14.6,5.8-3.4.5-6.9-.2-9.8-2-.1.8-.3,1.6-.7,2.3-.4.6-.9,1.2-1.4,1.7,0,0,8.5,2.5,6.9,17-1.3,11.5-9.9,15.3-9.9,15.3,0,0,3.6,2.3,4.8,8.8.9,4.7-.1,12.2,1.2,17.2.9,3.6,3.1,8.6,9.1,9.9s6.5-1.3,8.2-.5.2,3.7,4.3,7c1.3,1,6.3,2.6,9,4.3,1.7,1.1,5.3,5.6,5.3,5.6h0s3.6-4.5,5.3-5.6c2.6-1.7,7.7-3.3,9-4.3,4.2-3.2,2.6-6.2,4.3-7s2.2,1.8,8.2.5,8.2-6.3,9.1-9.9c1.3-5,.3-12.5,1.2-17.2,1.2-6.5,4.8-8.8,4.8-8.8,0,0-8.6-3.8-9.9-15.3-1.6-14.5,6.9-17,6.9-17-.5-.5-1-1.1-1.4-1.7-.4-.7-.6-1.5-.7-2.3-2.9,1.8-6.4,2.5-9.8,2-5.8-.8-10.8-5.8-14.6-5.8-3,0-3.1.9-3.1.9,0,0,2.1,2.1-.1,3.7-2.5,1.9-4.7-1-4.7-1l-4.1-.1h-.8Z"/><path d="m96.1,163.7h-.3c-1.1.1-2.1-.3-2.9-1.1-1.1-1.3-.7-3.2-.5-4.2,0-.1,0-.3.1-.4-1-1.8-3.2-2.6-5.8-3.5-2.3-.7-4.4-1.7-6.4-3-2.9-2.1-4.8-5.9-5.3-7.1-2,.4-10.8,1.8-16.1-4-5.3-5.8-5.1-11.1-4.7-19.7,0-.8.1-1.6.1-2.4.5-9.5-2.8-12-4.8-13.4l-.1-.1c-2.6-1.9-3.6-4.1-3.1-6.4.4-1.1,1.1-2,2.1-2.6.7-.4,1.6-.5,2.4-.2,1.1.3,2,1.2,2.4,2.3.1.2.1.5.1.7,2.3-3.3,3.9-7,4.6-10.9,1.5-7.1-.8-10.1-1.8-11.1-.4.6-.9,1-1.6,1.2-1.2.4-2.5.2-3.5-.4-1.1-.6-1.9-3.2-1.1-4.9.8-1.3,1.8-2.4,2.9-3.4.5-.5,1-1,1.4-1.6.4-.9.8-1.8,1.1-2.7.1-.3.2-.6.3-.9.6-1.4,1.6-2.5,3-3.2,1.8-.7,3.9.3,4.6,2.1.3.8.3,1.6,0,2.4.9,0,1.7-.1,2.6-.4,1.1-.3,2.2-.8,3.2-1.4,3.5-2.1,7.4-3.3,11.4-3.5,6.8-.4,9.2,2.1,10,3l.2.2c1.6.1,3.2.2,4.7.1h.8c1.6.1,3.2,0,4.8-.1l.2-.2c.9-.9,3.2-3.3,10-3,4,.3,7.9,1.5,11.4,3.5,1,.6,2.1,1.1,3.3,1.4.8.2,1.7.3,2.6.3-.6-1.9.4-3.9,2.2-4.5.8-.3,1.6-.3,2.4,0,1.4.6,2.4,1.8,3,3.2.1.3.2.6.3.9.3,1,.6,1.9,1.1,2.8.4.6.9,1.1,1.4,1.6,1.1,1,2,2.2,2.8,3.4.8,1.7.1,4.3-1.1,4.9-1.1.6-2.3.8-3.5.4-.6-.2-1.2-.7-1.6-1.2-1,.9-3.3,4-1.8,11,.7,3.9,2.3,7.6,4.6,10.9,0-.3,0-.5.1-.7.4-1.1,1.3-1.9,2.4-2.2.8-.3,1.7-.3,2.5.1,1,.6,1.8,1.5,2.1,2.6.6,2.3-.5,4.5-3.1,6.4l-.1.1c-2,1.4-5.3,3.9-4.8,13.4,0,.8.1,1.6.1,2.4.5,8.6.8,13.8-4.7,19.7s-14.1,4.4-16.1,4c-.6,1.2-2.5,5-5.3,7.1-2,1.3-4.1,2.3-6.4,3-2.6.9-4.9,1.7-5.8,3.5,0,.1.1.2.1.4.2,1,.5,2.9-.5,4.2-.4.8-1.5,1.2-2.6,1.2m-20.6-20.5l.1.4s2.1,4.8,5.2,7.1c1.9,1.3,3.9,2.3,6.1,2.9,2.7,1,5.3,1.9,6.4,4.1.1.2.1.4,0,.9-.2.9-.5,2.5.3,3.4.6.6,1.4.9,2.2.8h.3c.8.1,1.6-.2,2.2-.8.8-.9.5-2.6.3-3.4-.1-.5-.1-.7,0-.9,1.1-2.2,3.7-3.1,6.4-4.1,2.2-.6,4.2-1.6,6.1-2.9,3.1-2.4,5.2-7.1,5.2-7.1l.2-.4.4.1c.1,0,10.1,2.3,15.6-3.7,5.2-5.6,4.9-10.4,4.4-19,0-.8-.1-1.6-.1-2.4-.5-10,3.2-12.8,5.1-14.2l.1-.1c2.3-1.7,3.2-3.5,2.7-5.4-.3-.8-.9-1.5-1.7-2-.5-.3-1.1-.3-1.7-.1-.8.2-1.5.8-1.8,1.6-.1.8.1,1.6.6,2.3l-.7.7c-.2-.2-4.5-3.9-6.4-13.2-2-9.4,2.4-12.3,2.6-12.4l.5-.3.2.5c.3.6.8,1,1.3,1.2.9.3,1.9.1,2.8-.4.6-.3,1.2-2.3.6-3.6-.8-1.2-1.7-2.2-2.7-3.2-.6-.5-1.1-1.1-1.6-1.8-.5-.9-.9-1.9-1.2-2.9-.1-.3-.2-.6-.3-.9-.5-1.2-1.3-2.1-2.5-2.7-.7-.3-1.5-.2-2.1.2-1.3.6-1.8,2.1-1.1,3.4,0,0,0,.1.1.1l.1.2-.2.2c-.4.5-1.6.5-3.8,0-1.2-.4-2.3-.9-3.4-1.5-3.3-2-7.1-3.1-11-3.4-6.3-.3-8.5,1.9-9.3,2.7-.1.2-.3.3-.5.4-1.7.2-3.5.3-5.2.2h-.8c-1.7.1-3.5,0-5.2-.2-.2-.1-.3-.2-.5-.4-.8-.8-2.9-3-9.3-2.7-3.9.3-7.7,1.4-11,3.4-1.1.6-2.2,1.1-3.4,1.5-2.2.5-3.5.5-3.8,0l-.1-.2.1-.2c.7-1.2.3-2.8-.9-3.6-.7-.4-1.5-.5-2.3-.2-1.1.5-2,1.5-2.5,2.6-.1.3-.2.6-.3.9-.3,1-.7,2-1.2,2.9-.5.6-1,1.2-1.6,1.8-1,1-1.9,2-2.7,3.2-.6,1.3,0,3.3.6,3.6.8.5,1.8.7,2.8.4.6-.2,1.1-.7,1.3-1.2l.2-.5.5.3c.2.1,4.6,3,2.6,12.4-2,9.2-6.2,13-6.4,13.2l-.7-.7c.5-.7.7-1.5.6-2.3-.3-.8-1-1.4-1.8-1.6-.5-.2-1.1-.2-1.7.1-.8.4-1.4,1.1-1.7,1.9-.5,2,.4,3.8,2.7,5.4l.1.1c2,1.5,5.7,4.2,5.2,14.2,0,.8-.1,1.6-.1,2.4-.5,8.6-.8,13.4,4.4,19,5.5,6,15.5,3.7,15.6,3.7l.5.2Zm20.4,13.6l-.3-.4s-3.5-4.4-5.2-5.5c-1.7-1-3.4-1.8-5.2-2.5-1.3-.5-2.6-1.1-3.8-1.9-1.8-1.3-3-3.2-3.4-5.3-.2-.9-.4-1.3-.8-1.5s-.8-.1-1.4.2c-1.1.5-2.8,1.2-6.7.4-4.8-1-8.1-4.6-9.5-10.3-.6-3.2-.9-6.5-.8-9.8.1-2.5-.1-5-.4-7.5-1.1-6.2-4.5-8.5-4.5-8.5l-.7-.5.8-.3c.1,0,8.4-3.9,9.6-15,1.5-13.8-6.2-16.4-6.5-16.5l-.8-.2.6-.6c.5-.5,1-1,1.4-1.6.3-.7.5-1.4.6-2.1l.1-.8.7.5c2.8,1.8,6.2,2.5,9.5,2,2.9-.4,5.7-1.9,8.1-3.3s4.6-2.5,6.5-2.5c3.2,0,3.6,1,3.6,1.4v.2l-.2.2c-.5.5-.7,1.1-.8,1.8.1.5.4.9.8,1.2,2.1,1.6,4-.8,4.1-.9l.1-.2,4.9-.1,4.3.1.1.2c.1.1,2,2.5,4.1.9.4-.3.7-.7.8-1.2,0-.7-.3-1.3-.8-1.8l-.1-.2v-.2c0-.3.4-1.4,3.6-1.4,2,0,4.1,1.2,6.5,2.5s5.2,2.8,8.1,3.2c3.3.5,6.7-.2,9.5-2l.6-.5.1.8c.1.7.3,1.4.6,2.1.4.6.8,1.1,1.4,1.6l.6.6-.8.2c-.3.1-8.1,2.6-6.5,16.5,1.2,11.1,9.6,14.9,9.6,15l.8.3-.7.5s-3.4,2.3-4.5,8.5c-.3,2.5-.5,5-.4,7.5.1,3.3-.2,6.5-.8,9.8-1.4,5.7-4.7,9.3-9.5,10.3-3.9.8-5.6.1-6.7-.4-.7-.3-1-.4-1.4-.2s-.6.6-.8,1.5c-.4,2.2-1.6,4.1-3.4,5.4-1.2.7-2.5,1.4-3.8,1.9-1.8.7-3.5,1.5-5.2,2.5-1.6,1.1-5.2,5.4-5.2,5.5l-.1.1-.4.3Zm-19.2-18.2c.3,0,.6.1.8.2.9.4,1.1,1.2,1.3,2.2.4,2,1.5,3.7,3.1,4.8,1.1.7,2.4,1.2,3.6,1.7,1.8.7,3.6,1.6,5.3,2.6,1.4.9,4.1,4.1,5,5.2,1-1.2,3.6-4.3,5-5.2,1.7-1,3.5-1.9,5.3-2.6,1.3-.5,2.5-1,3.6-1.7,1.6-1.2,2.7-2.9,3.1-4.8.2-.9.4-1.8,1.3-2.2.7-.3,1.5-.2,2.2.2,1.1.4,2.6,1.1,6.1.3,4.5-.9,7.4-4.2,8.8-9.6.6-3.1.8-6.3.7-9.5-.1-2.6.1-5.1.4-7.6.9-5.1,3.2-7.7,4.4-8.7-5.4-3.3-8.9-9-9.4-15.3-1.4-12.3,4.5-16.3,6.5-17.3-.4-.4-.7-.8-1-1.3s-.5-1.1-.6-1.8c-2.9,1.6-6.3,2.2-9.6,1.7-3.1-.4-5.9-2-8.4-3.4-2.3-1.3-4.4-2.4-6.1-2.4-.9-.1-1.7.1-2.5.4.5.6.8,1.4.8,2.2-.1.8-.5,1.5-1.2,1.9-2.2,1.6-4.3.2-5.2-.9l-3.8-.1h-.6l-3.8.1c-1,1.1-3.1,2.5-5.3.9-.7-.4-1.1-1.1-1.2-1.9,0-.8.2-1.6.8-2.2-.8-.4-1.7-.5-2.5-.4-1.7,0-3.8,1.1-6.1,2.4-2.5,1.4-5.3,2.9-8.4,3.4-3.3.5-6.7-.1-9.6-1.7-.1.6-.3,1.2-.6,1.8-.3.5-.6.9-1,1.3,2.1,1,7.9,5,6.5,17.2-.5,6.4-4.1,12.1-9.5,15.4,1.1,1,3.4,3.6,4.4,8.7.3,2.5.5,5.1.4,7.6-.1,3.2.1,6.4.7,9.5,1.4,5.4,4.3,8.6,8.8,9.6,3.6.8,5.1.1,6.1-.3.6-.2,1-.3,1.4-.4"/></g></svg>