<svg height="512pt" viewBox="-109 0 512 512.001" width="512pt" xmlns="http://www.w3.org/2000/svg"><path d="m163.679688 92.800781c0 21.113281-17.117188 38.226563-38.226563 38.226563-21.113281 0-38.226563-17.113282-38.226563-38.226563s17.113282-38.226562 38.226563-38.226562c21.109375 0 38.226563 17.113281 38.226563 38.226562zm0 0"/><path d="m284.433594 0h-21.128906c-5.144532 0-9.316407 4.171875-9.316407 9.316406v19.886719c-7.035156.652344-13.367187 5.324219-15.777343 12.449219l-23.558594 69.683594-60.578125 33.546874c-.351563-.019531-.703125-.054687-1.058594-.054687h-82.613281c-5.363282 0-10.460938 2.335937-13.960938 6.394531l-51.960937 60.214844c-6.910157 8.007812-5.6875 20.210938 2.726562 26.675781l57.707031 44.339844c3.347657 2.574219 7.300782 3.820313 11.222657 3.820313h.011719l.007812 203.59375c0 12.222656 9.910156 22.132812 22.132812 22.132812 12.226563 0 22.136719-9.910156 22.136719-22.132812v-176.914063h9.554688v176.914063c0 12.222656 9.910156 22.132812 22.132812 22.132812 12.222657 0 22.132813-9.910156 22.132813-22.132812-.011719-10.082032-.371094-291.34375-.402344-313.765626l64.929688-35.953124c4.019531-2.226563 7.066406-5.875 8.539062-10.226563l24.582031-72.71875h12.535157c5.148437 0 9.320312-4.167969 9.320312-9.316406v-38.570313c0-5.144531-4.171875-9.316406-9.316406-9.316406zm-239.273438 220.757812 30.988282-35.910156v59.71875zm0 0"/></svg>