<svg xmlns="http://www.w3.org/2000/svg" viewBox="0 0 135.02 157.82"><defs><style>.cls-1{fill:#feeb17;}.cls-2{fill:#8dd3f6;}.cls-3{fill:#fab512;}.cls-4{fill:#121309;}.cls-5{fill:#ffea00;}.cls-6{fill:#69023a;}.cls-7{fill:#1d1d1b;}</style></defs><g id="Layer_2" data-name="Layer 2"><g id="Layer_1-2" data-name="Layer 1"><path class="cls-1" d="M21.76,131.05C7.83,116.45,0,99.91,0,78.11V0H135V78.11c0,21.8-7.83,38.34-21.76,52.94-20,20.94-45.75,26.77-45.75,26.77S41.74,152,21.76,131.05Z"/><path class="cls-2" d="M130.67,4.35V78.22a68.53,68.53,0,0,1-5.29,27.36,75.29,75.29,0,0,1-15.26,22.47,95.1,95.1,0,0,1-28.81,20.18,92.14,92.14,0,0,1-13.8,5.1,92.55,92.55,0,0,1-13.8-5.1A95.22,95.22,0,0,1,24.9,128.05,75.06,75.06,0,0,1,9.65,105.58a68.35,68.35,0,0,1-5.3-27.35V4.35Z"/><path class="cls-3" d="M17.45,89c-.2-1.66-.26-4.24,1-5.67,2.2-2.47,3.92-3.22,6.44-1.56s2.68,3.44,2.31,6.13A25.64,25.64,0,0,0,27,92.6l0,.11c2.62.39,5.06.76,6.77,2.91s.44,6.6.06,7.87l0,.08c1.18.57,2.39,1.21,3.62,1.92,3.88,2.25,10.07,8.41,15.7,11.68,5,2.9,9.21,5.42,14.34,5.42h0c5.14,0,9.34-2.52,14.34-5.42,5.63-3.27,11.83-9.43,15.7-11.68,1.24-.71,2.45-1.36,3.63-1.92l-.05-.12c-.4-1.33-1.57-5.79.07-7.83s4.15-2.52,6.78-2.91V92.6a25.64,25.64,0,0,0-.19-4.71c-.37-2.69-.21-4.46,2.31-6.13s4.24-.91,6.44,1.56c1.28,1.43,1.22,4,1,5.68v.1a12.75,12.75,0,0,1,.55,4.37,13.57,13.57,0,0,1-2,7.08l-.07.11c1.5,3.64.06,8.74-1.19,10.79-1.37,2.26-3.41.84-9.42,4.19-5.77,3.22-12.08,9.74-18.12,13.29a37,37,0,0,1-19.81,5.55h0a37,37,0,0,1-19.81-5.55c-6-3.55-12.35-10.07-18.12-13.29-6-3.35-8-1.93-9.42-4.19-1.24-2-2.68-7.13-1.2-10.76l0-.11a13.63,13.63,0,0,1-2-7.11,12.82,12.82,0,0,1,.55-4.38Z"/><path class="cls-4" d="M114.58,90.55a5.2,5.2,0,0,0-3.5-2.72A18.16,18.16,0,0,0,109,87.6h-.1c-.33-2.49-.09-3.62,1.83-4.89,1.64-1.08,2.75-1.13,5,1.37,1,1.07.92,3.34.72,4.9v.08a13.32,13.32,0,0,1-1.5,1.36l-.29.23Z"/><path class="cls-4" d="M82,118.37l.38-.23a77.53,77.53,0,0,0,9.42-6.94,59,59,0,0,1,6.28-4.73,41.21,41.21,0,0,1,12.73-5c2.08-.41,3.35-.59,4-.66a8,8,0,0,1,.7,3.49,14.13,14.13,0,0,1-1.67,6.59c-.43.7-.86.83-2.28,1.17a24.34,24.34,0,0,0-6.73,2.62,70.24,70.24,0,0,0-9.29,6.77A78.27,78.27,0,0,1,86.75,128a35.85,35.85,0,0,1-19.24,5.4h0A35.85,35.85,0,0,1,48.27,128a78.27,78.27,0,0,1-8.85-6.53,70.24,70.24,0,0,0-9.29-6.77A24.31,24.31,0,0,0,23.41,112c-1.43-.34-1.86-.47-2.29-1.17a14.13,14.13,0,0,1-1.67-6.59,8,8,0,0,1,.7-3.49c.68.07,2,.25,4,.66a41.21,41.21,0,0,1,12.73,5,58,58,0,0,1,6.28,4.73,77.53,77.53,0,0,0,9.42,6.94l.39.23c4.94,2.87,9.2,5.35,14.51,5.35S77.09,121.24,82,118.37Z"/><path class="cls-4" d="M102.17,103a16.08,16.08,0,0,1-.69-4.25,4,4,0,0,1,.6-2.43c1.44-1.8,3.59-2.13,6.08-2.5l1-.15c3.11-.5,4.45-.77,6.48-2.38.44-.35.79-.66,1.09-.94a13.71,13.71,0,0,1,.26,2.83,2.44,2.44,0,0,1,0,.27,12.94,12.94,0,0,1-1.55,6.07l-.06.1a35.68,35.68,0,0,0-4.75.72,38.19,38.19,0,0,0-8.42,2.75Z"/><path class="cls-4" d="M113.65,91.19a4.22,4.22,0,0,0-2.76-2.25c-.67-.11-1.25-.17-1.73-.2H109a26.27,26.27,0,0,1,.08,3.73v.07a12.62,12.62,0,0,0,4.56-1.26Z"/><path class="cls-4" d="M19.58,99.51A13.15,13.15,0,0,1,18,93.45v-.27a13.85,13.85,0,0,1,.25-2.83c.3.28.65.59,1.09.94,2,1.61,3.37,1.88,6.48,2.38l1,.15c2.49.37,4.64.7,6.08,2.5a4,4,0,0,1,.6,2.43,16.09,16.09,0,0,1-.69,4.26l0,.08a38.19,38.19,0,0,0-8.42-2.75,35.68,35.68,0,0,0-4.75-.72Z"/><path class="cls-4" d="M21.41,91.14a4.13,4.13,0,0,1,2.72-2.2c.67-.11,1.25-.17,1.73-.2H26a27,27,0,0,0-.09,3.65v.14a12.62,12.62,0,0,1-4.56-1.26Z"/><path class="cls-4" d="M20.38,90.64l-.3-.23a13.32,13.32,0,0,1-1.5-1.36v-.14c-.19-1.56-.21-3.78.73-4.84,2.23-2.5,3.34-2.45,5-1.37,1.92,1.27,2.17,2.4,1.83,4.9H26a17.92,17.92,0,0,0-2.08.23,5.17,5.17,0,0,0-3.47,2.68Z"/><path class="cls-2" d="M25.21,109.9,27,105.17l2.26.84c1.06.39,1.82,1,1.47,1.9a1.35,1.35,0,0,1-1,.8,1.13,1.13,0,0,1,.39,1.37c-.39,1.06-1.34,1.13-2.57.68l-2.3-.86Zm2.28-1.4h0l-.32.87.67.25c.38.15.7.17.83-.18s-.19-.58-.69-.76l-.49-.18Zm.61-1.65h0l-.29.79.64.24c.31.11.58.06.69-.22s-.17-.49-.5-.61Z"/><path class="cls-2" d="M32.08,107.16l1.43.83L32,110.6c-.25.44-.38.85.21,1.19s.86.06,1.13-.41l1.51-2.62,1.43.83-1.42,2.47c-.81,1.4-1.81,1.64-3.26.8s-1.81-1.73-.94-3.23Z"/><path class="cls-2" d="M36.15,113.58l-1,1.42-1.33-1,3-4.06,1.91,1.41c1.36,1,1.53,1.69,1,2.48a1.17,1.17,0,0,1-1.42.49c.32.47.5.77-.1,1.58a2.88,2.88,0,0,0-.48.94l-1.34-1a3.19,3.19,0,0,1,.45-.76c.39-.53.43-.77-.19-1.23l-.4-.3Zm.65-.89h0l.53.39c.41.3.7.36.91.08s.09-.59-.22-.82l-.62-.46Z"/><polygon class="cls-2" points="41.75 117.24 42.42 116.31 43.43 115.06 44.66 116.05 41.5 119.98 40.29 119 40.62 115.74 39.94 116.67 38.94 117.91 37.71 116.92 40.87 112.99 42.08 113.97 41.75 117.24"/><polygon class="cls-2" points="41.7 120.16 44.84 116.21 46.13 117.24 43.73 120.27 45.51 121.68 44.77 122.6 41.7 120.16"/><polygon class="cls-2" points="44.91 122.77 47.85 118.67 51.19 121.06 50.51 122.01 48.51 120.58 48.09 121.17 49.78 122.38 49.1 123.34 47.4 122.13 46.94 122.77 49.02 124.26 48.34 125.22 44.91 122.77"/><polygon class="cls-2" points="51.98 127.24 50.52 126.45 51.39 124.84 51.26 121.12 52.89 122 52.84 123.92 54.41 122.82 56.02 123.69 52.86 125.6 51.98 127.24"/><polygon class="cls-2" points="55.73 128.98 57.21 124.16 60.96 125.31 60.62 126.43 58.45 125.77 58.17 126.64 59.9 127.17 59.56 128.3 57.83 127.77 57.31 129.47 55.73 128.98"/><path class="cls-2" d="M65.49,128.45a2.51,2.51,0,0,1-3,2.3,2.65,2.65,0,0,1,.71-5.26,2.5,2.5,0,0,1,2.27,3Zm-3.6-.49h0c-.08.64,0,1.46.79,1.57s1.06-.48,1.18-1.3-.09-1.44-.82-1.52S62,127.33,61.89,128Z"/><path class="cls-2" d="M70.94,128.31a2.52,2.52,0,0,1-2.6,2.73,2.66,2.66,0,0,1-.1-5.31,2.51,2.51,0,0,1,2.7,2.58Zm-3.64.07h0c0,.64.22,1.44,1,1.43s1-.64,1-1.47-.3-1.41-1-1.38S67.29,127.74,67.3,128.38Z"/><polygon class="cls-2" points="70.63 125.86 75.18 125.02 75.42 126.33 73.95 126.59 74.63 130.25 73 130.55 72.33 126.89 70.87 127.16 70.63 125.86"/><path class="cls-2" d="M77,129.71l-1.66-4.77,2.27-.79c1.08-.37,2-.42,2.35.53a1.34,1.34,0,0,1-.26,1.25,1.13,1.13,0,0,1,1.17.82c.37,1.06-.31,1.72-1.55,2.15l-2.32.81Zm.29-4.2h0l.27.8.65-.23c.31-.11.49-.33.39-.6s-.43-.27-.76-.16l-.55.19Zm.58,1.66h0l.3.88.68-.24c.39-.13.65-.31.53-.67s-.52-.31-1-.14Z"/><path class="cls-2" d="M81.34,128.13l-.77-5.3,1.48-.79,4,3.6-1.46.77-.48-.49-1.45.77.14.68-1.43.76Zm.67-4.35h0l.4,1.84.92-.49Z"/><polygon class="cls-2" points="86.19 125.52 83.32 121.37 84.68 120.43 86.88 123.61 88.75 122.32 89.42 123.29 86.19 125.52"/><polygon class="cls-2" points="89.67 123.06 86.56 119.1 87.86 118.07 90.25 121.11 92.03 119.71 92.76 120.64 89.67 123.06"/><path class="cls-2" d="M95,114.78a.82.82,0,0,0-1.21-.08c-.46.36-.42,1,.19,1.73.44.55,1,1,1.63.45a.85.85,0,0,0,.13-1.2l1.24-1a2.25,2.25,0,0,1-.58,3.13,2.65,2.65,0,0,1-3.44-4,2.23,2.23,0,0,1,3.27,0Z"/><polygon class="cls-2" points="98.25 116.2 95.29 112.12 96.63 111.15 98.9 114.28 100.74 112.95 101.43 113.9 98.25 116.2"/><path class="cls-2" d="M98.83,109.53l1.43-.82,1.5,2.62c.25.43.55.75,1.14.41s.48-.71.21-1.18l-1.5-2.62,1.43-.82,1.42,2.47c.8,1.41.5,2.39-.95,3.22s-2.41.69-3.27-.81Z"/><path class="cls-2" d="M105.68,111.43l-1.75-4.73,2.26-.83c1.06-.4,2-.46,2.35.48a1.3,1.3,0,0,1-.24,1.26,1.12,1.12,0,0,1,1.19.79c.39,1.06-.28,1.73-1.51,2.18l-2.3.85Zm.21-4.2h0l.29.79.64-.24c.31-.11.48-.33.38-.61s-.44-.26-.77-.14l-.54.2Zm.61,1.65h0l.32.88.68-.25c.38-.14.64-.33.51-.68s-.53-.31-1-.13Z"/><path class="cls-3" d="M50.13,110.25C41.72,104.37,36.22,96.63,36.22,85V43H98.8V85c0,11.59-5.5,19.33-13.91,25.21a58.35,58.35,0,0,1-17.38,8.07A58.35,58.35,0,0,1,50.13,110.25Z"/><path class="cls-4" d="M38.26,62.25H96.79V45H38.23V62.25Z"/><path class="cls-5" d="M38.23,62.25V85c0,9.85,4.15,17.33,13.05,23.55a57.21,57.21,0,0,0,16.23,7.65,57.21,57.21,0,0,0,16.23-7.65c8.9-6.22,13.05-13.7,13.05-23.55V62.25H38.23Z"/><path class="cls-6" d="M94.12,97.09h-3.2v-4.3H86.65v-4.3H82.38v-4.3H78.1V79.9H73.83V75.6H69.56V71.3H65.42v4.3H61.15v4.3H56.87v4.29H52.6v4.3H48.33v4.3H44.05v4.3h-3.2a24.57,24.57,0,0,1-2-6h1.88v-4h4.11v-4h4.11v-4H53v-4h4.11v-4h4.1V67h4.11l2.15-3.17L69.66,67h4.11v4h4.11v4H82v4h4.1v4H90.2v4h4.11v4H96.2a25.25,25.25,0,0,1-2,6Z"/><polygon class="cls-4" points="48.56 70.44 45.51 75.81 42.47 70.44 45.51 65.07 48.56 70.44"/><path class="cls-4" d="M67.83,87s.75.18.86-.27a5.12,5.12,0,0,0-.16-1.56,2.11,2.11,0,0,0-.88,0c-.52.14-.92.19-1-.08a3.47,3.47,0,0,1-.1-.86s.32-.13.72-.32a.82.82,0,0,1,1,.14c.24.24.69.45,1,.13a1.11,1.11,0,0,1,.75-.32.56.56,0,0,0-.22-.4.76.76,0,0,0-.91.08s-.45,0-.43-.16.3-.46,1.16-.38a4.88,4.88,0,0,0,1.88-.16c.48-.14.86-.3,1.26-.08a1.4,1.4,0,0,1,0,.53c-.06.22,0,.51.34,1a1.68,1.68,0,0,1,.14,1.94,5.64,5.64,0,0,0-.7,2.06,2.62,2.62,0,0,0,0,.92c0,.15,0,.23-.16.23l-.48,0c-.14,0-.12.47.07,1,0,.08,0,.29-.06.32a.93.93,0,0,1-.49,0s.29.88.05,1.1-.56,0-.81-.38-.37-.75-.53-.75-.24.22-.67.59-.65.43-.67,0-.11-.7-.33-.75-.4.13-.91.4-.75.24-.51-.32.24-.78-.11-.84-.78.25-1,.3-.29-.45.08-.91A2.85,2.85,0,0,1,68,88.06c1-.22,1.45-.26,1.76-.69s.25-.85.13-.84-.28.22-.46.54a1,1,0,0,1-1,.45C68,87.5,67.65,87.29,67.83,87Z"/><path class="cls-4" d="M65.18,91.74a1.66,1.66,0,0,0,.06.71c.11.14.4,0,.7-.18s.56.1.56.58.06.77.23.81.38-.43.76-.67.54.1.85.75.52.12.66-.37.34-.38.8-.08.55.27.53-.18.12-.42.5-.38.42-.1.1-.38-.68-.65-.9-.67-.69.43-1.27.61-.71,0-.69-.43-.06-.4-.32-.28a2.63,2.63,0,0,1-1.29.2c-.5-.06-.36-.3-.14-.8s0-.38-.26-.28a3.38,3.38,0,0,1-.94.18c-.25,0-.21-.48-.07-.85.08-.2,0-.36-.38,0a3.42,3.42,0,0,0-1,1.47c-.17.48.2.44.56.26S65.18,91.18,65.18,91.74Z"/><path class="cls-4" d="M75.88,100.92a2.93,2.93,0,0,1-1.26,2.74,3,3,0,0,1-1.57.38c-.2,0-.39.37-.61,1a1.7,1.7,0,0,0,0,1.41,2.64,2.64,0,0,0,1,.48c.34.12.34.53.46,1.23s0,.73-.46.52-.6-.14-.62.13a2.06,2.06,0,0,0,.18,1.26c.26.53.24.63-.08.59s-.45-.12-.57.14a2.69,2.69,0,0,0,.08,1.35c.12.46.1.62-.1.54s-.54-.28-.72-.18-.16.72-.1,1.07.06.5-.12.5-.75-.1-1-.1-.34.2-.81.52a1.7,1.7,0,0,1-1.12.39c-.41,0-.63-.07-.63-.25s.32-.38.57-.6.3-.26.11-.36a.76.76,0,0,0-.74.14.93.93,0,0,1-.86.18c-.37-.1-.37-.32-.06-.64a1.29,1.29,0,0,1,1-.43c.4,0,.53-.1.34-.2a1.55,1.55,0,0,0-.8-.16c-.4,0-.58.18-1,.16s-.26-.32.16-.76a1.7,1.7,0,0,1,2-.06,1.51,1.51,0,0,0,1.34.18c.35-.18.87-.57,1-2,.1-1.73-.08-2.15-.52-2.77a20.13,20.13,0,0,0-2.2-1.86,2.19,2.19,0,0,1-.34-2.49,2.76,2.76,0,0,0,.16-2.12,2.3,2.3,0,0,0-.9-1.27c-.16,0-.14.47-.14.47a9,9,0,0,1-1.82-1.67c-.34-.55-.38-.71.31-1a1.47,1.47,0,0,0,.8-1.53c-.08-.46-.34-.38-.34-.38a3,3,0,0,1-.28,1.18,2.09,2.09,0,0,1-1.31.61c-.3,0-.3.18-.42.54s-.19.55-.43.57-.58-.29-.82-.33-.28.29-.28.79-.33.22-.57,0-.46-.56-.64-.58-.34.5-.48.78-.43,0-.71-.28-.48-.26-.9-.06a1.24,1.24,0,0,1-1,.12c-.14-.1.1-.5.32-.89s-.16-.28-.38-.12-.57.37-.73.34-.14-.32.1-.62a.86.86,0,0,0,.26-.76c0-.19-.24-.07-.5.24s-.48.48-.62.4-.1-.44.18-.81a1.4,1.4,0,0,1,.94-.62,1.72,1.72,0,0,1,1.34.14,2.24,2.24,0,0,0,1.26.44c.47,0,.79-.2,1.69-.92s1.55-1.31,2-1.61.46-.57.24-.57a4.81,4.81,0,0,1-1.23.08,8,8,0,0,1-1.61-.36c-.51-.14-.18-.34.12-.52s.48-.46.36-.63a1,1,0,0,0-.76-.36c-.45-.06-.31-.18,0-.46s.44-.5.36-.71-.47-.24-.83-.34.06-.3.33-.62a2,2,0,0,0,.34-1.31c0-.56-.14-.6-.71-1.05s-1-.72-1.14-1-.06-.63.18-.57a5.25,5.25,0,0,1,.92.24c.41.16.28-.12.16-.28a3.82,3.82,0,0,0-.62-.46c-.26-.2,0-.4.46-.48a2.23,2.23,0,0,1,.93.06.45.45,0,0,0-.32-.47c-.25-.1-.48-.16-.4-.36s.52-.48,1.34-.38A1.46,1.46,0,0,1,63.3,84.8c0,.68-.36,1.57-.38,2.39a3.87,3.87,0,0,0,.44,2,3.49,3.49,0,0,1,.36,1.1s-.2.33-.52,1-.28.82-.16,1.05.64.16,1.05.12.46.08.46.34.06.36.4.3.73-.26.91-.16.26.69.46,1.07.43.46.69.18.48-.56.64-.56.52.54,1,1.06.58.06.68-.34.22-.52.47-.36a4.24,4.24,0,0,1,.4.3,2.75,2.75,0,0,1-.14,1.09,6.91,6.91,0,0,0-.18,2.33,3.41,3.41,0,0,0,1,2.44,11.5,11.5,0,0,1,1.43,2,3.21,3.21,0,0,0,.57.83,4.4,4.4,0,0,0,.78,0,1.91,1.91,0,0,0,1.31-.61,2.16,2.16,0,0,0,.22-2c-.24-.58-.48-.93-1.19-.91a2.64,2.64,0,0,1-2.09-.76s.58.08,1,.1.86-.14.58-.32-1.75-1-1.79-1.79a2.93,2.93,0,0,0,1,.48c.42,0,.78-.2.44-.48s-1.13-1.07-1-1.86a1.28,1.28,0,0,0,.48.29c.21,0,.32.13.43-.71.28-2.17.36-3.26,1.55-4.85s2.09-1.69,2.75-1.63,1.13.42,1.33,1.55a5.72,5.72,0,0,1-.46,3.46c-.56,1.43-1,2.5-1,2.86s-.26.16-.28-.34-.1-.91-.3-.87-.36.32-.42,0a2,2,0,0,1,.46-1.39c.4-.56.64-.84.64-1s-.24-.27-.64-.06-.75.38-.36-.19,1-.78,1.37-1.22a1.57,1.57,0,0,0,.1-1.66A1.24,1.24,0,0,0,76,88.92a6.13,6.13,0,0,0-2.26,4.17,7.64,7.64,0,0,0,1.09,5.09C75.6,99.51,75.84,99.8,75.88,100.92Z"/><path class="cls-4" d="M67.51,102.35a5.25,5.25,0,0,0-.58,2.14,1.81,1.81,0,0,1-1-.08c-.64-.21-1.25-.21-1.47.18s-.1.62.16,1.1a2.68,2.68,0,0,1,.4,1.41.21.21,0,0,1-.23.18,1.07,1.07,0,0,1-.39-.16c-.36-.22-.74-.2-.72.13a4.64,4.64,0,0,0,.26,1.12c.06.36,0,.61-.35.38s-.72-.34-.88-.22-.12.45-.1.73-.06.3-.38.2-.41,0-.83.38a1.9,1.9,0,0,1-1.29.47c-.42,0-.76-.06-.4-.51s.62-.72.42-.78-.42.06-.74.3-.73.28-.69,0,.08-.38.45-.67.52-.48.08-.44-.93.42-.91.18.16-.46.7-.62a1.33,1.33,0,0,1,1,0,1.27,1.27,0,0,0,1.27-.1c.64-.4,1.23-.63,1.23-2.24s-.2-2.59.22-3.5a1.61,1.61,0,0,1,1.73-1.11,16,16,0,0,1,2.36.18S66.67,102.49,67.51,102.35Z"/><polygon class="cls-4" points="86.46 70.44 89.51 75.81 92.56 70.44 89.51 65.07 86.46 70.44"/><path class="cls-5" d="M83.28,57.2l-.93,1.58a.42.42,0,0,1-.55.21.43.43,0,0,1-.09-.58l1.37-2.36,0,0c0-.22,0-.44-.07-.66a13.88,13.88,0,0,1-3.46.5c-.93,0-1.93-.06-2.07-.53s.1-.8.94-1.45a9.49,9.49,0,0,1,1.81-1A9.81,9.81,0,0,1,78,51.4a.81.81,0,0,1,.1-1.29,7,7,0,0,1,2.78-.2c1.17.08,2.47.32,2.47.32a1.55,1.55,0,0,0,0-.21l0-.09-1.24-2.24a.38.38,0,1,1,.64-.36l.89,1.6,0,0c.4-1.23,1.14-1.72,1.67-1.67.89.08,1.35.95,1.65,1.9l0,0,.87-1.55a.42.42,0,0,1,.55-.22.43.43,0,0,1,.1.58l-1.27,2.25v.06s0,.1,0,.15A17.09,17.09,0,0,1,90.66,50c1.73,0,2.44,0,2.48.62s-.83,1.27-2.42,2.2a6.2,6.2,0,0,1,1.55,1c.57.59.67,1.09.14,1.39a8.3,8.3,0,0,1-3.14.26c-.78-.08-1.87-.26-1.87-.26s0,.28,0,.4v0l1.52,2.59a.42.42,0,0,1-.09.58.43.43,0,0,1-.55-.21l-1-1.74,0,0c-.27,1.36-.9,3-2,3-.93,0-1.56-1.21-1.9-2.68v0Zm3.26.58h0a7.24,7.24,0,0,0,.37-1.31s-1.22.2-1.91.22a7.56,7.56,0,0,1-1.44-.13,4.88,4.88,0,0,0,.16.66c.06.2.12.4.19.59a12.4,12.4,0,0,0,1.24.07,13,13,0,0,0,1.39-.1Zm-1.39.8h0a8.18,8.18,0,0,1-.94,0,2,2,0,0,0,.31.48,1.11,1.11,0,0,0,1.65-.37s0-.1.08-.15a8,8,0,0,1-1.1.09ZM87,55.52h0l0-.38c-.83-.2-1.65-.48-1.65-.48a14.33,14.33,0,0,1-2,.6s0,.16,0,.39a10.51,10.51,0,0,0,1.75.16A11.48,11.48,0,0,0,87,55.52Zm-.6-5.73h0A3.39,3.39,0,0,0,86,48.5a1,1,0,0,0-1.57.12A2.86,2.86,0,0,0,84,49.87,8.2,8.2,0,0,1,86.43,49.79Z"/><path class="cls-5" d="M47.69,57.2l-.92,1.58a.42.42,0,0,1-.55.21.42.42,0,0,1-.09-.58l1.37-2.36v0q0-.33-.06-.66a13.88,13.88,0,0,1-3.46.5c-.93,0-1.94-.06-2.08-.53s.1-.8,1-1.45a9.49,9.49,0,0,1,1.81-1,9.81,9.81,0,0,1-2.29-1.45.81.81,0,0,1,.1-1.29,7,7,0,0,1,2.78-.2c1.16.08,2.47.32,2.47.32s0-.14,0-.21l0-.09-1.25-2.24a.43.43,0,0,1,.1-.58.42.42,0,0,1,.55.22l.89,1.6v0c.41-1.23,1.15-1.72,1.68-1.67.89.08,1.35.95,1.65,1.9l0,0,.88-1.55a.38.38,0,1,1,.64.36l-1.27,2.25v.06s0,.1,0,.15A17.09,17.09,0,0,1,55.08,50c1.73,0,2.44,0,2.48.62s-.83,1.27-2.42,2.2a6.2,6.2,0,0,1,1.55,1c.56.59.67,1.09.14,1.39a8.3,8.3,0,0,1-3.14.26c-.78-.08-1.88-.26-1.88-.26s0,.28,0,.4l0,0,1.52,2.59a.44.44,0,0,1-.09.58.42.42,0,0,1-.55-.21l-1-1.74,0,0c-.26,1.36-.89,3-2,3-.92,0-1.55-1.21-1.89-2.68l0,0Zm3.27.58h0a8.16,8.16,0,0,0,.37-1.31s-1.22.2-1.91.22A7.72,7.72,0,0,1,48,56.56c.05.22.1.45.16.66s.13.4.2.59c0,0,.61.07,1.23.07a13,13,0,0,0,1.4-.1Zm-1.4.8h0a8.4,8.4,0,0,1-.94,0,2.35,2.35,0,0,0,.32.48,1.11,1.11,0,0,0,1.65-.37s0-.1.08-.15a8,8,0,0,1-1.11.09Zm1.88-3.06h0c0-.26,0-.38,0-.38-.83-.2-1.65-.48-1.65-.48a14.23,14.23,0,0,1-2,.6s0,.16,0,.39a10.65,10.65,0,0,0,1.75.16,11.27,11.27,0,0,0,1.86-.29Zm-.59-5.73h0a3.39,3.39,0,0,0-.44-1.29,1,1,0,0,0-1.57.12,2.86,2.86,0,0,0-.46,1.25A8.16,8.16,0,0,1,50.85,49.79Z"/><path class="cls-5" d="M67.49,47.07c-.24,0-.58.4-.58,1.29s.06,2.09.06,2.8.2.68.48.72.58-.16.6-.82-.06-1.57,0-2.18S68.11,47.11,67.49,47.07Z"/><path class="cls-5" d="M68.9,47.67c-.18,0-.56.35-.58,1.07s.06,1.59.06,2.3.12.92.4.92.4-.24.44-1.06.06-2.14,0-2.56S69.1,47.69,68.9,47.67Z"/><path class="cls-5" d="M66.3,47.63c-.26,0-.68.51-.68,1.39s0,2.08.06,2.46.08.56.38.56.62,0,.62-.92,0-2.3-.06-2.7S66.58,47.61,66.3,47.63Z"/><path class="cls-5" d="M65.7,59.78c-.11,0-.16-.15-.16-.21,0-1.31-.08-1.58-.36-1.83s-.57-.28-.69-.77a18.45,18.45,0,0,1-.28-2.69,27.21,27.21,0,0,1,.24-4c.16-1.53.43-1.64.56-1.61s.33.2.35,1.47.06,1.83-.2,2.11-.69.33-.43.49a1.06,1.06,0,0,0,.89.26,6.6,6.6,0,0,1,1.87-.36,4.36,4.36,0,0,1,1.65.16c.26.08.28.46-.24.56a11.07,11.07,0,0,0-1.53.42c-.38.14-.58.43-.58,1a4.11,4.11,0,0,0,.14,1.27c.08.2.2.16.18-.42s-.06-1.27.5-1.53a7.38,7.38,0,0,1,1.47-.45c.5-.14.66-.14.64-.78s0-1.39.27-1.71.34,0,.68.42.32.78.34,1.79a6.3,6.3,0,0,1-.42,3.12,1.85,1.85,0,0,1-1.31,1c-.28,0-.7.26-.44.34s.42.3.44.87,0,.92-.66,1a5.24,5.24,0,0,1-1.31.16c-.38,0-.66-.1-1.11-.1A3.07,3.07,0,0,1,65.7,59.78Z"/><path class="cls-4" d="M63.63,16.6a1.87,1.87,0,0,0-.12.59s0,.08,0,.11a2.62,2.62,0,0,0,.12.41,2.72,2.72,0,0,1,.21,1,.71.71,0,0,1,0,.14,1,1,0,0,1-.41.73c0-.17,0-.33,0-.49,0-.4,0-.75-.16-.84a.14.14,0,0,0-.14,0,3,3,0,0,0-.7,1.24,2.43,2.43,0,0,1-.79.91,5,5,0,0,1,.43-2.22l.3-.39a5,5,0,0,0,.68-1v0l-.23.05h0a5.62,5.62,0,0,1-.6.87l-.31.4a5.47,5.47,0,0,0-.47,2.52l0,.19.17-.1a3.21,3.21,0,0,0,1-1.13,4,4,0,0,1,.55-1.09,2.21,2.21,0,0,1,.07.65c0,.18,0,.4,0,.64l0,.16.15-.06a1.14,1.14,0,0,0,.68-1,2.85,2.85,0,0,0-.21-1.17,2,2,0,0,1-.12-.38,1.69,1.69,0,0,1,.14-.72v0l-.22,0Z"/><path class="cls-4" d="M64.1,15.61l.4-.25h0l.08-.1a10.6,10.6,0,0,1,2.83-1.94,6.1,6.1,0,0,0,.87-.59,1.83,1.83,0,0,0-.67,0,7.29,7.29,0,0,0-1.94.7A3.17,3.17,0,0,0,66,12.05a2.55,2.55,0,0,0-.16-.87l0-.09-.1,0c-.08,0-2,1-2.38,2.4a8.08,8.08,0,0,0-.28,2.07,3.3,3.3,0,0,1-.1.85v.08a2.17,2.17,0,0,1,.26-.27v0c0-.18,0-.39,0-.63a8.62,8.62,0,0,1,.27-2c.31-1.16,1.79-2,2.19-2.22a2.08,2.08,0,0,1,.12.68,3,3,0,0,1-.22,1.05c-.14.34-.31.71-.31.71l.74-.35a8.07,8.07,0,0,1,1.67-.53l-.19.1a11.78,11.78,0,0,0-3.09,2.11c-.12.15-.22.3-.32.45Z"/><path class="cls-6" d="M65.8,16.89a2.67,2.67,0,0,1-.62-1.11,2.26,2.26,0,0,1,0-.77,9.59,9.59,0,0,0-1.28.75,3.76,3.76,0,0,0-1.11,1l.79-.15a3.14,3.14,0,0,1,1.2-.09A4,4,0,0,1,65.8,16.89Z"/><path class="cls-6" d="M63.73,29.18a2.82,2.82,0,0,1,1.39.62,4.24,4.24,0,0,0,1.93.8c.57,0,.92.08.49-.72a3,3,0,0,0-.41-.61,9.17,9.17,0,0,0-.93-.86,2.36,2.36,0,0,0,1.1.21,2.87,2.87,0,0,1,2.12.59,4.33,4.33,0,0,0,2.83.93l.3,0a.26.26,0,0,0-.07.21,5,5,0,0,0,.24,1.1c.19.59.32.77-.19,1.18a11.53,11.53,0,0,0-1.93,2.23c-.12.28.25.9.45,1.2a.27.27,0,0,0,.3.11c.57-.19,2.33-.74,3-.94,0,0,.7,1.32,1.29,1.5a2,2,0,0,0,2.2-.59l1.23,1.67h3.17c2.39,0,3.79.56,3.79,2.52A2.65,2.65,0,0,1,83.14,43H51.59a2.65,2.65,0,0,1-2.87-2.71c0-2,1.4-2.52,3.78-2.52h3.36A5.79,5.79,0,0,0,56.37,36a17.22,17.22,0,0,0,2.23,1.47c.16,0,2.15-2,2.15-2s1.18.7,2,1.13,1.1.38,1.44.08.46-2.09.46-2.09a13.36,13.36,0,0,0,1.88,1.77,14,14,0,0,0,1.42-1.61l0,1.29c1.07-.38,1.48-1.51,1.8-2.69a2.63,2.63,0,0,0,.13-1.58,1.66,1.66,0,0,1-.8,1c-.32.1-1,0-2.55-.78a12.4,12.4,0,0,1-1.72-1.11h0a1.43,1.43,0,0,0-.07-.68,1.78,1.78,0,0,0-.94-1h0Zm11.35,13.5h0a8.79,8.79,0,0,0-1.18-1c-.7-.51-.48-.67-.13-1s1.18.35,2.28,1a12.45,12.45,0,0,0,2.31,1.12c.42.17.59-.13.59-.34s-.22-.54-1.13-1.1-1.75-1.37-2.9-2.26a5.91,5.91,0,0,0-3.84-.83c-1.18,0-2.07.29-2.07.64s.54.78,1.21,1.24a6.83,6.83,0,0,1,1.4,1.15,5.72,5.72,0,0,0,1.07.89c.56.43.38.75,1.67.72.88,0,.83-.19.72-.32ZM67,43h0c.73,0-.1-1.32-.26-1.47a14.57,14.57,0,0,0-3-2.8A4.82,4.82,0,0,0,60.29,38c-1.1.22-1.4.54-1.4.84s.19.61.92,1.1a18.59,18.59,0,0,1,1.85,1.69c1.13,1,1.58,1.23,2.06,1.23s.73,0,.49-.29,0-.33.37-.38a2.12,2.12,0,0,1,1.24.32c.64.35.54.51,1.15.51Zm15.09-4.27h0c-.39,0-.32.52.13,1.1s.81.81,1.08.54.27-.59-.08-1a1.32,1.32,0,0,0-1.13-.6Zm-29.37-.1h0a1.66,1.66,0,0,0-1.36,1.1,2.48,2.48,0,0,0,0,1.82c.19.32.56.43.91.78s.43.59,1,.56.94-.34.65-.58-.91-.25-.94-.6.43-.51.75-.61a1.28,1.28,0,0,1,1.21.51,3,3,0,0,0,1.93,1.23c.86,0,1.07-.53.64-.86s-.91-.8-1.58-1.31a12.25,12.25,0,0,1-1.45-1.4A2.19,2.19,0,0,0,52.69,38.63Z"/><path class="cls-4" d="M61,29.13c-1.61.54-2.6,1.91-2.22,3a1.79,1.79,0,0,0,.93,1,3.57,3.57,0,0,0,2.68.06c1.61-.54,2.6-1.91,2.22-3a1.78,1.78,0,0,0-.94-1A3.59,3.59,0,0,0,61,29.13Z"/><path class="cls-5" d="M59.82,33a1.6,1.6,0,0,1-.84-.9c-.35-1,.59-2.29,2.1-2.8a3.42,3.42,0,0,1,2.53.06,1.55,1.55,0,0,1,.84.89c.35,1-.59,2.29-2.1,2.8A3.42,3.42,0,0,1,59.82,33Z"/><path class="cls-5" d="M66.48,28.43l-.8-.85a5.1,5.1,0,0,1-1.48-3.15A5.37,5.37,0,0,1,65,21.74,11.44,11.44,0,0,0,66.5,19c.35-1,.2-1.76-.44-2.21a2.65,2.65,0,0,0-.52-.29h0a2.07,2.07,0,0,1-.34-.75,1.78,1.78,0,0,1,0-.55h0l.53-.24a8.61,8.61,0,0,1,1.11-.47,2.57,2.57,0,0,1,2.23.8,1.7,1.7,0,0,1,.44,1.23,3.72,3.72,0,0,1-.22,1.2l-.15.44a8.26,8.26,0,0,0-.55,2.16c0,.41,0,.76,0,1s0,.55,0,.57V22h.08a5.84,5.84,0,0,1,2.67,1,15.06,15.06,0,0,1,3.17,3.08,6,6,0,0,0,1.5,1.37,2.45,2.45,0,0,1-.36.07l-.27,0,.23.15a3.38,3.38,0,0,0,1.46.61c.18,0,.21.07.21.08v0a1.2,1.2,0,0,1-.23.38l0,.06-.2.3c-.11.16-.16.23-.2.23a1.66,1.66,0,0,1-.48-.26l-.1-.06,0,.11s-.05.11-.11.12-.13,0-.22-.08-.93-.6-.93-.6a1.16,1.16,0,0,1,.14.31c0,.13,0,.2-.17.24a5.5,5.5,0,0,0-1.07.22c-.43.16-1.15.5-1.26.75h0a4.33,4.33,0,0,1-2.83-.93,2.87,2.87,0,0,0-2.12-.59,2.52,2.52,0,0,1-.7-.07Z"/><path class="cls-4" d="M72.29,30.12c.11-.25.82-.58,1.25-.74a5.5,5.5,0,0,1,1.07-.22c.19,0,.2-.11.17-.24a1.16,1.16,0,0,0-.14-.31s.78.48.93.6.16.1.22.08.09-.07.11-.12l0-.11.1.06a1.66,1.66,0,0,0,.48.26s.09-.07.2-.23l.2-.3,0-.06a1.2,1.2,0,0,0,.23-.38v0s0-.05-.21-.08a3.38,3.38,0,0,1-1.46-.61l-.23-.15.27,0a2.45,2.45,0,0,0,.36-.07,6,6,0,0,1-1.5-1.37A15.06,15.06,0,0,0,71.27,23a5.84,5.84,0,0,0-2.67-1h-.08v-.08s0-.23,0-.57,0-.62,0-1a8.26,8.26,0,0,1,.55-2.16l.15-.44a3.72,3.72,0,0,0,.22-1.2A1.7,1.7,0,0,0,69,15.31a2.57,2.57,0,0,0-2.23-.8,8.61,8.61,0,0,0-1.11.47l-.53.24h0a1.27,1.27,0,0,1,0-.22h0l.42-.19a8.36,8.36,0,0,1,1.13-.49,2.79,2.79,0,0,1,2.43.86,1.91,1.91,0,0,1,.5,1.37,4,4,0,0,1-.23,1.25l-.16.44a8.47,8.47,0,0,0-.54,2.12c0,.39,0,.74,0,1s0,.4,0,.49a6,6,0,0,1,2.67,1A14.69,14.69,0,0,1,74.6,26a6.52,6.52,0,0,0,1.61,1.43l.13.08-.14.08a1.17,1.17,0,0,1-.33.11,3.16,3.16,0,0,0,1.16.44.42.42,0,0,1,.36.2.24.24,0,0,1,0,.08c0,.14-.12.29-.27.51l0,.06-.2.29c-.14.21-.21.31-.36.31a1.42,1.42,0,0,1-.51-.23.34.34,0,0,1-.18.14.45.45,0,0,1-.39-.12L75,29.05a.26.26,0,0,1,0,.11.06.06,0,0,1,0,0,.12.12,0,0,1-.08.09,1.09,1.09,0,0,1-.3.06,4.87,4.87,0,0,0-1,.21,4.6,4.6,0,0,0-1,.53h0l-.27,0Z"/><path class="cls-4" d="M66.17,28.39l-.64-.68A5.44,5.44,0,0,1,64,24.43a5.57,5.57,0,0,1,.8-2.8A11.3,11.3,0,0,0,66.32,19c.31-.94.19-1.59-.37-2l-.14-.09h0a3.06,3.06,0,0,1-.28-.36h0a3.39,3.39,0,0,1,.52.29c.64.45.79,1.17.44,2.21A11.44,11.44,0,0,1,65,21.74a5.37,5.37,0,0,0-.76,2.69,5.1,5.1,0,0,0,1.48,3.15l.8.85.12.12a2.3,2.3,0,0,1-.4-.14Z"/><path class="cls-5" d="M64.1,15.61l-.22.15a8.16,8.16,0,0,0-.68.5v0c0-.18,0-.38,0-.62a8.62,8.62,0,0,1,.27-2c.31-1.16,1.79-2,2.19-2.22a2.08,2.08,0,0,1,.12.68,3,3,0,0,1-.22,1.05c-.14.34-.31.71-.31.71l.74-.35a8.07,8.07,0,0,1,1.67-.53l-.19.1a11.78,11.78,0,0,0-3.09,2.11,5.53,5.53,0,0,0-.32.46Z"/><path class="cls-5" d="M63.63,16.59a1.92,1.92,0,0,0-.12.6s0,.08,0,.11a2.62,2.62,0,0,0,.12.41,2.72,2.72,0,0,1,.21,1,.71.71,0,0,1,0,.14,1,1,0,0,1-.41.73c0-.17,0-.33,0-.49,0-.4,0-.75-.16-.84a.14.14,0,0,0-.14,0,3,3,0,0,0-.7,1.24,2.43,2.43,0,0,1-.79.91,5,5,0,0,1,.43-2.22l.3-.39a4.71,4.71,0,0,0,.68-1v0l.48-.09h.07Z"/><path class="cls-7" d="M67.05,15c-.43,0-.56.19-.32.3a.74.74,0,0,0,.62,0C67.62,15.17,67.62,15,67.05,15Z"/><path class="cls-4" d="M72.64,27.38c-.43,1.24-1.08.59-1.08.59a1.22,1.22,0,0,1-1.12-.16,1.82,1.82,0,0,1-1-.27,5.76,5.76,0,0,1-2-2.09,3.7,3.7,0,0,1-.3-2.44,6,6,0,0,0,.73,2.41,5.8,5.8,0,0,0,1.74,1.85c.48.27.78.38.94,0,0,0,.64.73.91,0,0,0,.23.38.46.46S72.64,27.38,72.64,27.38Z"/></g></g></svg>