<svg xmlns="http://www.w3.org/2000/svg" viewBox="0 0 125.15 167.06"><defs><style>.cls-1{fill:#fff;}.cls-1,.cls-2,.cls-3{fill-rule:evenodd;}.cls-2{fill:#c51a1b;}.cls-3{fill:#121309;}</style></defs><g id="Layer_2" data-name="Layer 2"><g id="Layer_1-2" data-name="Layer 1"><path class="cls-1" d="M62.57,162.31c-10.6-3.69-23.93-13.16-35.36-24.62V6.63c12.09-1.72,25.64-3,35.36-3a276.29,276.29,0,0,1,35.36,3V137.69c-11.42,11.46-24.75,20.93-35.36,24.62ZM92.29,37.49,70.19,15.4a3,3,0,0,0-4.16,0L33.64,47.78a3,3,0,0,0,0,4.16l3.41,3.41a3,3,0,0,0,4.17,0L54.7,41.86,60.85,48,33,75.92a3,3,0,0,0,0,4.16l3.42,3.41a3,3,0,0,0,4.16,0L54,70l7.7,7.7c-5.85.73-11.59,3.68-16.58,8.67-10.73,10.72-11.65,26.73-.66,37.71,9.07,9.08,21.74,6.42,31.18,0l-7.6-7.6c-5.32,3.47-13.11,6.27-18.46.92-7.26-7.26-4.28-17.39,2.13-23.8s16.38-9.54,23.8-2.13c4.54,4.54,3.15,11,.63,16L84,115.34c5.43-9.22,7.1-21.38-1.13-29.62h0L60.57,63.44l7.85-7.86L85,72.19a2.69,2.69,0,0,0,3.76,0l2.8-2.8a2.69,2.69,0,0,0,0-3.76L61.26,35.3l7.86-7.85,16.61,16.6a2.67,2.67,0,0,0,3.76,0l2.8-2.79A2.7,2.7,0,0,0,92.29,37.49Z"/><path class="cls-2" d="M69.21,16.38a1.57,1.57,0,0,0-2.2,0L34.63,48.77a1.54,1.54,0,0,0,0,2.19L38,54.37a1.56,1.56,0,0,0,2.19,0L54.7,39.89,62.82,48,33.93,76.9a1.57,1.57,0,0,0,0,2.2l3.41,3.4a1.54,1.54,0,0,0,2.19,0L54,68,64.7,78.72C58,78.69,51.52,82,46.11,87.35c-10,10-12.12,24.29-.66,35.75,7.51,7.51,18.69,7.1,28,.81l-5.61-5.61c-6.79,4.43-14.41,5-19.25.12-7.72-7.72-5.56-18.08,2.13-25.76s17.67-10.23,25.77-2.13c4.24,4.25,4.35,10.62,1.33,16.71l5.85,5.85c5.29-9,5.24-19.31-1.83-26.39L58.6,63.44l9.82-9.83L86,71.2a1.27,1.27,0,0,0,1.8,0l2.79-2.79a1.27,1.27,0,0,0,0-1.8L59.3,35.3l9.82-9.82L86.71,43.07a1.29,1.29,0,0,0,1.8,0l2.79-2.8a1.26,1.26,0,0,0,0-1.79Z"/><path class="cls-3" d="M62.57,167.06C38.2,158.9,0,122.46,0,98.64V9C6.43,5.35,42.57,0,62.57,0s56.15,5.35,62.58,9V98.64c0,23.82-38.21,60.26-62.58,68.42ZM92.29,37.49,70.19,15.4a3,3,0,0,0-4.16,0L33.64,47.78a3,3,0,0,0,0,4.16l3.41,3.41a3,3,0,0,0,4.17,0L54.7,41.86,60.85,48,33,75.92a3,3,0,0,0,0,4.16l3.42,3.41a3,3,0,0,0,4.16,0L54,70l7.7,7.7c-5.85.73-11.59,3.68-16.58,8.67-10.73,10.72-11.65,26.73-.66,37.71,9.07,9.08,21.74,6.42,31.18,0l-7.6-7.6c-5.32,3.47-13.11,6.27-18.46.92-7.26-7.26-4.28-17.39,2.13-23.8s16.38-9.54,23.8-2.13c4.54,4.54,3.15,11,.63,16L84,115.34c5.43-9.22,7.1-21.38-1.13-29.62h0L60.57,63.44l7.85-7.86L85,72.19a2.69,2.69,0,0,0,3.76,0l2.8-2.8a2.69,2.69,0,0,0,0-3.76L61.26,35.3l7.86-7.85,16.61,16.6a2.67,2.67,0,0,0,3.76,0l2.8-2.79a2.7,2.7,0,0,0,0-3.77ZM69.21,16.38a1.57,1.57,0,0,0-2.2,0L34.63,48.77a1.54,1.54,0,0,0,0,2.19L38,54.37a1.56,1.56,0,0,0,2.19,0L54.7,39.89,62.82,48,33.93,76.9a1.57,1.57,0,0,0,0,2.2l3.41,3.4a1.54,1.54,0,0,0,2.19,0L54,68,64.7,78.72C58,78.69,51.52,82,46.11,87.35c-10,10-12.12,24.29-.66,35.75,7.51,7.51,18.69,7.1,28,.81l-5.61-5.61c-6.79,4.43-14.41,5-19.25.12-7.72-7.72-5.56-18.08,2.13-25.76s17.67-10.23,25.77-2.13c4.24,4.25,4.35,10.62,1.33,16.71l5.85,5.85c5.29-9,5.24-19.31-1.83-26.39L58.6,63.44l9.82-9.83L86,71.2a1.27,1.27,0,0,0,1.8,0l2.79-2.79a1.27,1.27,0,0,0,0-1.8L59.3,35.3l9.82-9.82L86.71,43.07a1.29,1.29,0,0,0,1.8,0l2.79-2.8a1.26,1.26,0,0,0,0-1.79L69.21,16.38ZM62.57,162.31c10.61-3.69,23.94-13.16,35.36-24.62V6.63a276.29,276.29,0,0,0-35.36-3c-9.72,0-23.27,1.26-35.36,3V137.69C38.64,149.15,52,158.62,62.57,162.31Z"/></g></g></svg>