<svg xmlns="http://www.w3.org/2000/svg" viewBox="0 0 179.25 179.25"><defs><style>.cls-1,.cls-5{fill:#fff;}.cls-1,.cls-2,.cls-3,.cls-4{fill-rule:evenodd;}.cls-2{fill:#e41518;}.cls-3{fill:#121309;}.cls-4{fill:#feeb17;}</style></defs><g id="Layer_2" data-name="Layer 2"><g id="Layer_1-2" data-name="Layer 1"><path class="cls-1" d="M179.25,89.62A89.63,89.63,0,1,1,89.62,0,89.63,89.63,0,0,1,179.25,89.62Z"/><path class="cls-2" d="M174.76,89.62A85.14,85.14,0,1,1,89.62,4.49,85.13,85.13,0,0,1,174.76,89.62Z"/><path class="cls-1" d="M150.5,89.62A60.88,60.88,0,1,1,89.63,28.75,60.87,60.87,0,0,1,150.5,89.62Z"/><path class="cls-3" d="M146.14,89.62a56.52,56.52,0,1,0-56.52,56.52A56.63,56.63,0,0,0,146.14,89.62Z"/><path class="cls-1" d="M87.06,65.23c-.91,1.31-3.44,5.45-5.09,7.68.9,3.53,3.63,1,7.44.85,3.61-.16,5.23,2.83,7.52-1-1.5-2.49-4.15-6.52-5.05-7.7a4.26,4.26,0,0,1-2.46.81A4.33,4.33,0,0,1,87.06,65.23Z"/><path class="cls-1" d="M89.06,57.17h0s-.22-6.61-.24-9.93C86,45,85,48.83,82.06,51.24c-2.8,2.29-6.18,1.09-5.74,5.5,2.78,1.14,7.85,2.61,9.09,3A4.34,4.34,0,0,1,89.06,57.17Z"/><path class="cls-1" d="M85.15,60.42c-1-.31-6.26-2-9.32-2.54-2.79,3.45.7,4.3,1.79,7.75,1.15,3.63-.16,7.41,3.46,7.05,1.58-2.38,4.61-6.69,5.43-7.87a4.21,4.21,0,0,1-1.36-4.39Z"/><path class="cls-1" d="M89.7,57.17a4.35,4.35,0,0,1,3.65,2.53c1.24-.35,6.31-1.82,9.09-3,.44-4.41-2.94-3.21-5.74-5.5-3-2.41-3.93-6.28-6.76-4,0,3.32-.24,9.93-.24,9.93Z"/><path class="cls-1" d="M93.6,60.42a4.38,4.38,0,0,1,.17,1.15,4.17,4.17,0,0,1-1.44,3.18c.83,1.18,3.77,5.18,5.35,7.56,3.61.35,2.31-3,3.46-6.68,1.08-3.45,4.58-4.3,1.79-7.75C99.87,58.47,94.58,60.11,93.6,60.42Z"/><path class="cls-1" d="M74.14,57.9a7.64,7.64,0,0,0-.29,3.72c.21,1.05,2.05,1.77,2.75,3.68,1.05,2.88-.43,8.22,3.48,8.07C72.5,78.68,66.17,60.14,74.14,57.9Z"/><path class="cls-1" d="M104.21,57.54c8.18,1.19,2.61,16-.78,16.75a6.44,6.44,0,0,1-4.09-.48c3.25-1.07,2-3.92,2.94-8.15.54-2.44,2.92-3,3-5.1C105.37,59.08,104.27,58.83,104.21,57.54Z"/><path class="cls-1" d="M81.1,74.37c1.82,3.47,4.25.75,9.14.9,3.27.1,6.38,1.74,7.76-.77C100.41,82.53,79.35,83.84,81.1,74.37Z"/><path class="cls-1" d="M88.38,46c-3.55-1.66-3.83,2-7.82,4.81-2.66,1.89-6.13,2.47-5.71,5.3C68.07,51.15,84.05,37.37,88.38,46Z"/><path class="cls-1" d="M90.31,46c3.55-1.66,3.83,2,7.82,4.81,2.66,1.89,6.13,2.47,5.71,5.3C110.62,51.15,94.64,37.37,90.31,46Z"/><path class="cls-1" d="M91.2,42.7S89.31,44,89.36,45.52c-.07-1.56-1.91-2.77-1.91-2.77s1.91-1.35,1.84-2.82A3.41,3.41,0,0,0,91.2,42.7Z"/><path class="cls-1" d="M108,57.68a7,7,0,0,0-3.29-1.07,4.45,4.45,0,0,0,2.43-2.46,4.1,4.1,0,0,0,3.29,1.06C109.1,55.51,108,57.68,108,57.68Z"/><path class="cls-1" d="M99.31,78.24a5.46,5.46,0,0,0-.16-3.48c.95,1.25,3.32,1,3.32,1s-.78,2.27.17,3.49C101.69,78.11,99.31,78.24,99.31,78.24Z"/><path class="cls-1" d="M76.89,75.43a3.2,3.2,0,0,0,3.34-.86A4.49,4.49,0,0,0,80.1,78a4.74,4.74,0,0,0-3.34.86A3.78,3.78,0,0,0,76.89,75.43Z"/><path class="cls-1" d="M71.78,54.43c0,1.41,2,2.5,2,2.5a3.1,3.1,0,0,0-2.91,1.29,4,4,0,0,0-2-2.5S71.2,55.7,71.78,54.43Z"/><path class="cls-1" d="M93.13,61.49a3.75,3.75,0,1,1-3.8-3.69A3.74,3.74,0,0,1,93.13,61.49Z"/><path class="cls-3" d="M89.39,63.67a1.08,1.08,0,0,1-.89.48,1.84,1.84,0,0,1-1.71-1.67,1.07,1.07,0,0,1,.46-.9,1,1,0,0,1-.48-.88A1.84,1.84,0,0,1,88.44,59a1.05,1.05,0,0,1,.89.45,1.11,1.11,0,0,1,.89-.48,1.86,1.86,0,0,1,1.71,1.68,1.05,1.05,0,0,1-.45.89,1.1,1.1,0,0,1,.48.88,1.87,1.87,0,0,1-1.68,1.72h0A1.06,1.06,0,0,1,89.39,63.67Z"/><path class="cls-1" d="M88.46,59.73a1.14,1.14,0,0,0-.95,1,.34.34,0,0,0,.16.26l.86.59-.84.62a.32.32,0,0,0-.15.28,1.11,1.11,0,0,0,1,.95.33.33,0,0,0,.26-.16l.6-.87.62.86a.33.33,0,0,0,.27.14,1.1,1.1,0,0,0,.95-1,.32.32,0,0,0-.16-.27l-.85-.6.84-.61a.33.33,0,0,0,.15-.27,1.11,1.11,0,0,0-1-.95.3.3,0,0,0-.26.16l-.6.84-.61-.83a.34.34,0,0,0-.28-.15Z"/><path class="cls-3" d="M90.71,60.52a.84.84,0,0,0-.29-.05.81.81,0,0,0-.24-.55,1.27,1.27,0,0,0-.84-.3,1.19,1.19,0,0,0-.84.33.83.83,0,0,0-.23.54,1.15,1.15,0,0,0-.28.06,1.2,1.2,0,0,0,0,2,1.14,1.14,0,0,0,.29.06.8.8,0,0,0,.24.54,1.23,1.23,0,0,0,.85.3,1.22,1.22,0,0,0,.83-.32.76.76,0,0,0,.23-.55.83.83,0,0,0,.29-.06,1.06,1.06,0,0,0,.55-1A1,1,0,0,0,90.71,60.52Z"/><path class="cls-1" d="M90.45,61.89h0a.63.63,0,0,1-.32-.14.76.76,0,0,0,0-.21.58.58,0,0,0,0-.19c.15-.11.26-.16.31-.15h0a.54.54,0,0,1,0,.69Z"/><path class="cls-1" d="M89.7,62.66a.49.49,0,0,1-.33.1.47.47,0,0,1-.32-.09l0-.06a.73.73,0,0,1,.16-.33.69.69,0,0,0,.2,0,1,1,0,0,0,.18,0c.09.13.18.26.17.32Z"/><path class="cls-1" d="M88.31,61.92h0a.47.47,0,0,1-.12-.35.44.44,0,0,1,.11-.35h0a.81.81,0,0,1,.32.15,1.11,1.11,0,0,0,0,.19.63.63,0,0,0,0,.19A.61.61,0,0,1,88.31,61.92Z"/><path class="cls-1" d="M89,60.45a.55.55,0,0,1,.34-.1.49.49,0,0,1,.33.1l0,0a.6.6,0,0,1-.15.31.58.58,0,0,0-.19,0,.64.64,0,0,0-.2,0,.64.64,0,0,1-.16-.31Z"/><path class="cls-1" d="M89.61,61.56a.25.25,0,1,0-.25.24A.25.25,0,0,0,89.61,61.56Z"/><path class="cls-1" d="M77,128.67c.74,1.37.62,2.83-.67,3.37a3.89,3.89,0,0,1-4.3-1.43c-3.62-5.48-1.61-12-4.68-17.49-.74-1.37-.62-2.82.67-3.36a3.89,3.89,0,0,1,4.3,1.42C75.9,116.66,73.89,123.19,77,128.67Z"/><path class="cls-1" d="M111.8,113.13c.73-1.38.61-2.83-.68-3.37a3.89,3.89,0,0,0-4.3,1.42c-3.61,5.48-1.6,12-4.68,17.49-.73,1.37-.62,2.83.68,3.37a3.91,3.91,0,0,0,4.3-1.43C110.74,125.14,108.73,118.6,111.8,113.13Z"/><path class="cls-4" d="M56.22,120.22a1.39,1.39,0,0,1,.94,1.75L56,125.91a1.4,1.4,0,0,1-2.69-.81l1.18-3.94A1.41,1.41,0,0,1,56.22,120.22Z"/><path class="cls-4" d="M60,120.1a1.41,1.41,0,0,1,1,1.75l-1.19,3.94a1.39,1.39,0,0,1-1.74.94A1.41,1.41,0,0,1,57,125l1.18-3.93A1.41,1.41,0,0,1,60,120.1Z"/><path class="cls-4" d="M63.9,119.69a1.41,1.41,0,0,1,.94,1.76l-1.17,3.93a1.41,1.41,0,0,1-2.7-.81l1.18-3.93A1.41,1.41,0,0,1,63.9,119.69Z"/><path class="cls-4" d="M67.72,119.4a1.41,1.41,0,0,1,.94,1.75l-1.18,3.94a1.41,1.41,0,0,1-2.7-.81L66,120.35A1.42,1.42,0,0,1,67.72,119.4Z"/><path class="cls-4" d="M123,120.22a1.41,1.41,0,0,0-.94,1.75l1.18,3.94a1.41,1.41,0,0,0,2.7-.81l-1.19-3.94A1.41,1.41,0,0,0,123,120.22Z"/><path class="cls-4" d="M119.24,120.1a1.43,1.43,0,0,0-.94,1.76l1.19,3.93a1.4,1.4,0,1,0,2.69-.81L121,121.05A1.41,1.41,0,0,0,119.24,120.1Z"/><path class="cls-4" d="M115.32,119.69a1.41,1.41,0,0,0-.94,1.76l1.18,3.93a1.41,1.41,0,0,0,1.75.94,1.39,1.39,0,0,0,.94-1.75l-1.18-3.94A1.41,1.41,0,0,0,115.32,119.69Z"/><path class="cls-4" d="M111.51,119.4a1.42,1.42,0,0,0-1,1.75l1.19,3.94a1.4,1.4,0,1,0,2.69-.81l-1.18-3.93A1.41,1.41,0,0,0,111.51,119.4Z"/><path class="cls-1" d="M114.11,70.2c-2.19,18.94-12,30-23.6,39.54,1.92,1.32,3.87,2.52,5.82,3.64,17.84-10.14,32.21-23.74,33.32-50.61C124.33,65.11,119.36,67.8,114.11,70.2Z"/><path class="cls-1" d="M75.37,118.25c.34,1.27.27,2.56.61,3.37,4.13-1.6,9-2.8,12.79-4.8-2-.84-4-1.75-6-2.76a23.56,23.56,0,0,1-7.46,3.75C75.34,118,75.35,118.1,75.37,118.25Z"/><path class="cls-1" d="M103.49,120.29c.08-.73.16-1.47.27-2.21C84.18,108.74,68.58,95.67,65.13,70.2c-5.25-2.4-10.21-5.09-15.53-7.43,1.92,35.29,25.81,50.25,53.8,58.35Z"/><path class="cls-1" d="M18.89,85.58c1.73.16,2.54-1.13,2.69-2.66.09-1-.06-2.57-1.39-2.7S18.36,82,17.67,83.9,16,87.67,13.58,87.44c-2.66-.25-3.71-2.9-3.48-5.26.25-2.72,1.68-5.11,4.7-4.83l-.27,2.78c-1.58-.06-2.09,1-2.21,2.39-.09.92.19,2,1.29,2.12s1.19-.52,2.34-3.71c.33-.93,1.21-3.8,4.17-3.52,2.4.23,4,2.28,3.68,5.83-.28,2.89-2,5.46-5.17,5.12Z"/><polygon class="cls-1" points="11.62 72.94 12.42 70.17 17.26 71.56 18.72 66.45 13.88 65.06 14.68 62.29 27.28 65.91 26.49 68.68 21.05 67.12 19.59 72.23 25.02 73.79 24.23 76.56 11.62 72.94"/><polygon class="cls-1" points="16.36 58.23 20.75 49.46 22.91 50.55 19.81 56.74 22.33 58 25.17 52.31 27.17 53.32 24.33 59 27.2 60.44 30.37 54.12 32.54 55.2 28.08 64.1 16.36 58.23"/><polygon class="cls-1" points="23.11 45.78 28.58 38.36 30.53 39.8 26.77 44.9 29.21 46.69 32.47 42.28 34.27 43.61 31.01 48.02 35.37 51.24 33.65 53.56 23.11 45.78"/><polygon class="cls-1" points="30.48 36.26 37 29.75 38.72 31.46 34.23 35.94 36.37 38.08 40.26 34.2 41.84 35.79 37.95 39.67 41.78 43.5 39.74 45.54 30.48 36.26"/><rect class="cls-5" x="42.94" y="25.78" width="2.88" height="13.11" transform="translate(-10.49 34.51) rotate(-38.35)"/><polygon class="cls-1" points="44.51 23.92 52.9 18.85 54.15 20.92 48.23 24.51 49.68 26.91 55.12 23.62 56.28 25.54 50.84 28.83 52.51 31.58 58.56 27.92 59.81 30 51.29 35.14 44.51 23.92"/><polygon class="cls-1" points="56.97 16.94 59.65 15.9 63.52 25.86 69.48 23.55 70.36 25.81 61.71 29.17 56.97 16.94"/><path class="cls-1" d="M69.79,12.37l5.56-1c3.34-.61,6.23,1,7,5.3.68,3.74-.72,6.87-4.66,7.59l-5.56,1L69.79,12.37Zm4.76,10,2.53-.46c1.64-.3,3-1.6,2.5-4.46-.47-2.6-1.68-4.09-4.5-3.58l-2,.37Z"/><path class="cls-1" d="M103.24,19.3c-.39,3.52-2.66,5-6.15,4.61s-5.36-2.32-5-5.86L93,10l2.87.32L95,18.37c-.16,1.42,0,2.87,2.36,3.13,2,.23,2.8-.59,3-2.52l.91-8.11,2.87.33Z"/><polygon class="cls-1" points="108.02 12.01 110.75 12.86 113.36 22.89 113.4 22.9 116.01 14.5 118.59 15.3 114.69 27.82 111.94 26.96 109.34 16.96 109.31 16.95 106.69 25.33 104.12 24.53 108.02 12.01"/><rect class="cls-5" x="114.18" y="22.13" width="13.11" height="2.88" transform="translate(47.88 122.69) rotate(-64.73)"/><polygon class="cls-1" points="129.1 23.33 125.76 21.25 127.04 19.19 136.16 24.87 134.88 26.93 131.54 24.85 125.9 33.93 123.45 32.41 129.1 23.33"/><polygon class="cls-1" points="138.17 26.43 145.58 32.85 143.99 34.68 138.76 30.14 136.92 32.27 141.72 36.43 140.26 38.12 135.45 33.96 133.35 36.39 138.69 41.02 137.1 42.85 129.58 36.33 138.17 26.43"/><path class="cls-1" d="M148.84,36.22l3.49,4.45c2.1,2.67,2,6-1.43,8.68-3,2.34-6.42,2.56-8.89-.59l-3.49-4.46,10.32-8.08Zm-6.63,8.86,1.58,2c1,1.32,2.83,1.94,5.11.15,2.08-1.63,2.85-3.4,1.08-5.65L148.71,40Z"/><polygon class="cls-1" points="161.67 55.6 165.17 64.13 162.93 65.05 160.52 59.19 157.72 60.34 159.8 65.41 157.73 66.27 155.65 61.18 150.63 63.24 149.54 60.57 161.67 55.6"/><rect class="cls-5" x="153.16" y="68.47" width="2.83" height="2.88" transform="translate(-13.64 47.87) rotate(-16.87)"/><path class="cls-1" d="M164.28,80.42a2.84,2.84,0,0,0,1.8-3.2c-.43-2.56-2.76-3.16-5-2.78s-4.17,1.68-3.74,4.23c.28,1.74,1.64,2.52,3.38,2.45l.46,2.76a5.55,5.55,0,0,1-6.24-4.81c-.66-4,1.94-6.86,5.67-7.48s7.22,1.23,7.89,5.23c.47,2.85-.8,5.51-3.73,6.35Z"/><rect class="cls-5" x="156.03" y="85.97" width="2.83" height="2.88" transform="translate(-2.67 5) rotate(-1.8)"/><path class="cls-1" d="M74.93,167.77l-2.55-.55,1.75-8.15L71,158.39l.41-1.92c1.77.42,3.54.16,4.22-1.71l2,.44Z"/><path class="cls-1" d="M83.7,155.73c3.18.28,4.09,2.57,4,3.81a2.8,2.8,0,0,1-2.11,2.57v0a3,3,0,0,1,2.11,3.34c-.23,2.68-2.77,3.81-5.14,3.59s-4.76-1.67-4.51-4.43a3.06,3.06,0,0,1,2.69-2.94v0a2.57,2.57,0,0,1-1.65-2.8c.21-2.31,2.54-3.3,4.63-3.11Zm-1,11.36a2.12,2.12,0,0,0,2.39-2,2.09,2.09,0,0,0-2-2.24,2,2,0,0,0-2.45,1.83,2.17,2.17,0,0,0,2.08,2.38Zm.51-6a1.75,1.75,0,1,0,.3-3.46,1.81,1.81,0,0,0-2.11,1.6A1.75,1.75,0,0,0,83.22,161.14Z"/><path class="cls-1" d="M93.74,155.86c3.19-.2,4.43,1.94,4.5,3.18a2.77,2.77,0,0,1-1.7,2.85v0a3,3,0,0,1,2.59,3c.17,2.69-2.17,4.18-4.55,4.32s-5-.94-5.12-3.71a3,3,0,0,1,2.22-3.3v0a2.57,2.57,0,0,1-2.05-2.53c-.14-2.3,2-3.63,4.11-3.76Zm.33,5.43a1.73,1.73,0,0,0,1.83-1.81,1.71,1.71,0,0,0-2-1.66,1.8,1.8,0,0,0-1.85,1.9,1.75,1.75,0,0,0,2.06,1.57Zm.39,6a2.11,2.11,0,0,0,2.06-2.3A2.08,2.08,0,0,0,94.2,163a2,2,0,0,0-2.15,2.18A2.16,2.16,0,0,0,94.46,167.24Z"/><path class="cls-1" d="M103.67,164.53a1.84,1.84,0,0,0,2,1.2c1.85-.4,1.82-2.93,1.59-4.35l0,0a3.26,3.26,0,0,1-2.53,2,4.1,4.1,0,0,1-3.17-.68A4.4,4.4,0,0,1,100,160.1a4.46,4.46,0,0,1,3.41-5.54c3.81-.82,5.54,2.28,6.23,5.46s0,6.87-3.53,7.64a4,4,0,0,1-4.83-2.62l2.43-.51Zm2.76-6a2.22,2.22,0,0,0-2.54-1.89,2.14,2.14,0,0,0-1.42,2.7c.25,1.19,1.11,2.25,2.43,2A2.13,2.13,0,0,0,106.43,158.54Z"/></g></g></svg>