<svg xmlns="http://www.w3.org/2000/svg" viewBox="0 0 170.19 170.19"><defs><style>.cls-1{fill:#da9b04;}.cls-2{fill:#1b4185;}.cls-3{fill:#fff;}.cls-4{fill:#f7f4f4;}.cls-5{fill:#e62a37;}.cls-6{fill:#cccbce;}.cls-7{fill:#d2d2d4;}.cls-8{fill:#677eb9;}.cls-9{fill:#6a78b5;}</style></defs><g id="Layer_2" data-name="Layer 2"><g id="Layer_1-2" data-name="Layer 1"><circle class="cls-1" cx="85.09" cy="85.09" r="85.1"/><circle class="cls-2" cx="85.09" cy="85.09" r="82.38"/><path class="cls-1" d="M26.09,85.09a59,59,0,1,1,59,59A59,59,0,0,1,26.09,85.09Z"/><path class="cls-3" d="M27.84,85.09a57.26,57.26,0,1,1,57.25,57.26A57.25,57.25,0,0,1,27.84,85.09Z"/><path class="cls-4" d="M9.24,67.31a8,8,0,1,0,8-8A7.95,7.95,0,0,0,9.24,67.31Z"/><path class="cls-4" d="M16,94.74a23,23,0,0,1,2.54.37c.51,0,3.51-.37,3.51,1.92,0,.2-.07.69-.07.69a2.35,2.35,0,0,1,1.09-.16c.83,0,2.14.83,2.14,3.61,0,.56.63,1.32.63,2.77a1.75,1.75,0,0,1-1.84,2,2.17,2.17,0,0,1,.53,1.34c0,.78-.75,2-2.89,2.79-.51.18-2.21,1.59-2.91,1.59-1.48,0-2-.94-2-1.31a2,2,0,0,1-1.71,1c-1.41,0-2.58-1.82-3-2.1s-2.42-1.64-2.42-2.84a2.35,2.35,0,0,1,.77-1.65,1.91,1.91,0,0,1-1.57-2,8.88,8.88,0,0,1,1.16-3c.17-.53.68-3.18,2.6-3.18a1.86,1.86,0,0,1,1.11.46A2.22,2.22,0,0,1,16,94.74Z"/><path class="cls-5" d="M16.91,100.19c.48-1.12.83-1.93.86-1.93s.25.86.54,2.06a3.12,3.12,0,0,1,.69.33c.67-.78,2.25-2.72,2.25-3.56C21.25,95.7,19,96,18.46,96s-2-.31-2.47-.31c-1.12,0-1.39.6-1.39,1.22a13.55,13.55,0,0,0,1.64,3.44,3.14,3.14,0,0,1,.67-.17Zm-1.39,3a1.82,1.82,0,1,0,1.82-1.82,1.82,1.82,0,0,0-1.82,1.82Zm-1.21,0c0,.07,0,.14,0,.2a13.6,13.6,0,0,1-3.72.45c-.59-.2-1.06-.65-.71-1.71.14-.42.9-1.69,1.08-2.24s.6-2.75,1.91-2.31c.79.27,2.09,2.32,2.64,3.24a2.85,2.85,0,0,0-.74.81c-1.23-.09-2.11-.14-2.11-.11s.7.65,1.66,1.49a1.24,1.24,0,0,0,0,.18ZM14,107.23a18.66,18.66,0,0,0,2.2-1.24,2.25,2.25,0,0,0,.44.14,14,14,0,0,1-.8,3.76c-.38.49-1,.79-1.85.11-.35-.27-1.3-1.39-1.76-1.75s-2.41-1.46-1.56-2.56c.49-.63,2.72-1.18,3.81-1.41a3.09,3.09,0,0,0,.4.71c-.51,1.24-.88,2.18-.88,2.24Zm9.33-.6c.36.51.47,1.15-.44,1.8-.36.25-1.72.83-2.19,1.17s-2.11,1.86-2.91.73c-.47-.67-.32-3.06-.22-4.14a2.44,2.44,0,0,0,.39-.06A24.32,24.32,0,0,0,20,107.71s-.18-1-.48-2.39a3,3,0,0,0,.47-.6,14.49,14.49,0,0,1,3.43,1.91Zm1.1-4.67c.17.56,1.1,2.59-.22,3-.79.23-3-.65-4-1.09a2.2,2.2,0,0,0,.06-.37c1.15-.71,2-1.25,2-1.26s-.93-.1-2.19-.21a3.21,3.21,0,0,0-.53-.85,14,14,0,0,1,2.88-2.64c.6-.18,1.25-.09,1.57,1C24.18,99.93,24.3,101.4,24.47,102Z"/><path class="cls-4" d="M155.13,94.74a23,23,0,0,0-2.54.37c-.51,0-3.51-.37-3.51,1.92,0,.2.07.69.07.69a2.35,2.35,0,0,0-1.09-.16c-.83,0-2.14.83-2.14,3.61,0,.56-.63,1.32-.63,2.77a1.74,1.74,0,0,0,1.84,2,2.17,2.17,0,0,0-.53,1.34c0,.78.75,2,2.89,2.79.51.18,2.21,1.59,2.9,1.59,1.49,0,2-.94,2-1.31a2,2,0,0,0,1.7,1c1.42,0,2.59-1.82,3-2.1s2.43-1.64,2.43-2.84a2.34,2.34,0,0,0-.78-1.65,1.91,1.91,0,0,0,1.58-2,8.88,8.88,0,0,0-1.16-3c-.17-.53-.68-3.18-2.6-3.18a1.91,1.91,0,0,0-1.12.46A2.21,2.21,0,0,0,155.13,94.74Z"/><path class="cls-5" d="M154.25,100.19c-.48-1.12-.84-1.93-.86-1.93s-.25.86-.54,2.06a3.12,3.12,0,0,0-.69.33c-.67-.78-2.25-2.72-2.25-3.56,0-1.39,2.21-1.08,2.79-1.08s2-.31,2.47-.31c1.12,0,1.39.6,1.39,1.22a13.55,13.55,0,0,1-1.64,3.44,3.14,3.14,0,0,0-.67-.17Zm1.39,3a1.82,1.82,0,1,1-1.82-1.82,1.82,1.82,0,0,1,1.82,1.82Zm1.21,0c0,.07,0,.14,0,.2a13.53,13.53,0,0,0,3.71.45c.6-.2,1.07-.65.72-1.71-.14-.42-.9-1.69-1.08-2.24s-.61-2.75-1.91-2.31c-.79.27-2.09,2.32-2.64,3.24a2.85,2.85,0,0,1,.74.81c1.23-.09,2.11-.14,2.11-.11s-.7.65-1.66,1.49a1.24,1.24,0,0,1,0,.18Zm.27,4.09a18.66,18.66,0,0,1-2.2-1.24,2.25,2.25,0,0,1-.44.14,13.62,13.62,0,0,0,.8,3.76c.38.49,1,.79,1.85.11.34-.27,1.3-1.39,1.76-1.75s2.41-1.46,1.56-2.56c-.49-.63-2.72-1.18-3.81-1.41a3.09,3.09,0,0,1-.4.71c.51,1.24.88,2.18.88,2.24Zm-9.33-.6c-.36.51-.47,1.15.44,1.8.36.25,1.71.83,2.19,1.17s2.11,1.86,2.91.73c.47-.67.32-3.06.22-4.14a2.28,2.28,0,0,1-.39-.06,24.32,24.32,0,0,1-1.95,1.58s.18-1,.48-2.39a3,3,0,0,1-.47-.6,14.49,14.49,0,0,0-3.43,1.91Zm-1.1-4.67c-.17.56-1.1,2.59.22,3,.79.23,3-.65,4-1.09a2.2,2.2,0,0,1-.06-.37c-1.15-.71-2-1.25-2-1.26s.93-.1,2.19-.21a3,3,0,0,1,.53-.85,14,14,0,0,0-2.88-2.64c-.6-.18-1.25-.09-1.57,1C147,99.93,146.86,101.4,146.69,102Z"/><path class="cls-5" d="M22.08,65.72c-.34,0-.71,0-1.12,0l-3,7.09c.41.35.71.63.93.84,1.81-2.3,3.14-4.52,3.22-7.91Zm-6.17-3.84a4.55,4.55,0,0,1,3.39-1.27A7.06,7.06,0,0,0,14,61a11.91,11.91,0,0,1,1.88.84Zm6.82,3.87c.6,0,1,.08,1.33.12a6.76,6.76,0,0,1,.15,1.44A7,7,0,0,1,19.43,74a13.06,13.06,0,0,0,3.3-8.2Zm-3.18-4.49a5.6,5.6,0,0,1,1.55.21,7.16,7.16,0,0,1,1.67,1.58,6.7,6.7,0,0,0-2.2-.47,4,4,0,0,0-2.41.62c-.53-.34-1.09-.68-1.66-1a4.41,4.41,0,0,1,3.05-.94Zm-7.34,10a11.78,11.78,0,0,1-1.33-.87,7.14,7.14,0,0,0,1.53,2.08,6.14,6.14,0,0,1-.2-1.21Zm6.23,2.92-.05.07a7.88,7.88,0,0,1-1.2.1,7.55,7.55,0,0,1-.83,0,8.77,8.77,0,0,1-1.46-1.81,18.68,18.68,0,0,0,2.48.72c.38.33.77.69,1.06,1Zm1-6.54c-1.34-.82-6.06-3.66-8-4.29a7.2,7.2,0,0,1,1.81-1.8c1.65.19,5.48,2.76,7.12,4l-.91,2.13Zm-1.14,2.66-.95,2.23c-2.86-.61-6-2.22-6.95-3.48a6.91,6.91,0,0,1-.22-1.71,7,7,0,0,1,.07-.92c1.68,1.7,6.08,3.61,8,3.88ZM14,72.11c-.38-.16-.76-.34-1.12-.52a4.32,4.32,0,0,0,.57,1.66,7,7,0,0,0,1.77.79A6.93,6.93,0,0,1,14,72.11Zm5.15-3.89-.61,1.42c-2.16-.11-7.2-2.67-8.17-4a6.76,6.76,0,0,1,.67-1.72c1.3.33,5.46,2.71,8.11,4.33ZM23.4,64a7.51,7.51,0,0,0-2.83-.79,4,4,0,0,0-1.81.35c1,.67,1.83,1.26,2.09,1.45a26.67,26.67,0,0,1,3,.15A6.91,6.91,0,0,0,23.4,64Z"/><path class="cls-4" d="M161,67.31a8,8,0,1,1-7.95-8A7.95,7.95,0,0,1,161,67.31Z"/><path class="cls-5" d="M148.14,65.72c.33,0,.7,0,1.11,0l3,7.09c-.4.35-.71.63-.92.84-1.82-2.3-3.15-4.52-3.22-7.91Zm6.16-3.84a4.54,4.54,0,0,0-3.39-1.27,7,7,0,0,1,2.11-.32,7,7,0,0,1,3.16.75,12.78,12.78,0,0,0-1.88.84Zm-6.82,3.87c-.6,0-1,.08-1.33.12a6.76,6.76,0,0,0-.15,1.44A7,7,0,0,0,150.78,74a13.12,13.12,0,0,1-3.3-8.2Zm3.18-4.49a5.58,5.58,0,0,0-1.54.21,6.79,6.79,0,0,0-1.67,1.58,6.59,6.59,0,0,1,2.19-.47,4.06,4.06,0,0,1,2.42.62c.52-.34,1.09-.68,1.65-1a4.41,4.41,0,0,0-3.05-.94Zm7.34,10a11.78,11.78,0,0,0,1.33-.87,7.14,7.14,0,0,1-1.53,2.08,5.47,5.47,0,0,0,.2-1.21Zm-6.23,2.92.06.07a7.74,7.74,0,0,0,1.19.1,7.89,7.89,0,0,0,.84,0,9.1,9.1,0,0,0,1.45-1.81,18.26,18.26,0,0,1-2.48.72c-.37.33-.77.69-1.06,1Zm-1-6.54c1.34-.82,6.07-3.66,8-4.29a7.2,7.2,0,0,0-1.81-1.8c-1.65.19-5.48,2.76-7.12,4l.91,2.13Zm1.14,2.66,1,2.23c2.87-.61,6-2.22,6.95-3.48a6.91,6.91,0,0,0,.22-1.71c0-.31,0-.62-.06-.92-1.68,1.7-6.09,3.61-8.06,3.88Zm4.28,1.84c.37-.16.75-.34,1.11-.52a4.32,4.32,0,0,1-.57,1.66A6.89,6.89,0,0,1,155,74a7.24,7.24,0,0,0,1.23-1.93ZM151,68.22l.61,1.42c2.17-.11,7.2-2.67,8.18-4a7.17,7.17,0,0,0-.68-1.72c-1.29.33-5.46,2.71-8.11,4.33ZM146.81,64a7.51,7.51,0,0,1,2.83-.79,4,4,0,0,1,1.81.35c-1,.67-1.83,1.26-2.09,1.45a26.67,26.67,0,0,0-3,.15A7.86,7.86,0,0,1,146.81,64Z"/><path class="cls-6" d="M126.25,85.18c0-3.61-3.17-5.72-6.57-5.72-3.79,0-6.41,3.26-6.62,3.26s.86-3,5.74-6.6c3.55-2.61,7.06-5.06,7.06-8.87,0-4.38-2.84-7.23-6.63-7.23-6.25,0-7.36,5-7.36,5.8a2.31,2.31,0,0,0,.37,1.45,2.9,2.9,0,0,1,3.16-3c1.92,0,2.68,2,2.68,2.93s0,1.87-3.62,5.11-6.62,5.52-6.62,9.5,1.92,6.23,4.69,9.36,2.7,4.61,2.7,6.47a3.64,3.64,0,0,1-3.79,3.55c-2.69,0-6.66-1.08-8-5a33.87,33.87,0,0,1-2-9.23,10.89,10.89,0,0,0-2.16-5.66l.3-3.27a2.71,2.71,0,0,0,1.56.38c2.07,0,4.61-2,4.61-4.4a4.74,4.74,0,0,0-1.42-3.41,1.85,1.85,0,0,1-2,1.77c-2,0-3.64-1.72-3.64-4.48s1.18-4,2.76-4A5.4,5.4,0,0,1,105.44,66a12.06,12.06,0,0,1-.08-5.24,5.4,5.4,0,0,1-1.56.2c-1.38,0-1.87-.44-1.87-1.38a3.08,3.08,0,0,1,2.82-2.66c2.29,0,2.09,1.07,2.09,1.07s1.85-2.72,2.06-2.85.09-1.42.09-1.42l.92.43,1-1.68c-.43-1.14-2-1.61-2.37-1.93a3.6,3.6,0,0,1-1.13-1.72c-1.44-.26-12-1.06-12-6.94-.74.33-4.51,2.22-4.51,4.43a1.61,1.61,0,0,0,.33,1c-1.21,0-4.67-.28-6.17,3.2A2.6,2.6,0,0,1,88.3,53.2a4.37,4.37,0,0,1-4.2,4,2.37,2.37,0,0,1-2.54-1.6c-.76.63-1.72,4,1.82,5.65,0,1.33-2.83,6-3.24,6a23.22,23.22,0,0,1-9-1.84c-2.83-1.66-5.12-4.08-6.06-4.08v-1.7c2.54-1.7,6-4.4,6-8.29a7.81,7.81,0,0,0-7.93-7.52,8.09,8.09,0,0,0-7.88,7.48c0,4,4.12,7.15,5.71,7.15-.46.73-2,1-2,1a4.29,4.29,0,0,0,2.41.87v1A3.07,3.07,0,0,0,58.21,64c0,1.12.87,1.59.87,1.77,0,.45-1.08.75-1.08,1.85,0,.91,1,1.42,1,1.73a2.19,2.19,0,0,0,2.29,2.71V88.73a4.47,4.47,0,0,0-2.14,2.13c-.59,0-2.24-1.07-2.24,2.58a2.63,2.63,0,0,1,2-.82,2.92,2.92,0,0,0-.76,2,4,4,0,0,0,.4,1.73c.62-1.08,1.64-.05,1.87-.05,0,2.21.44,2.76.9,3.21v12.54H60.15v3.4h1.91A2.82,2.82,0,0,0,60.43,118,2.79,2.79,0,0,0,66,118a2.87,2.87,0,0,0-1.69-2.51h1.83v-3.4H65.06V100.93a1.88,1.88,0,0,0,1.19.33c-.4-2.89,2.84-4.78,5.22-4.78a3.78,3.78,0,0,1,3.33,1.7A26.8,26.8,0,0,0,85.34,91c.3,0,2.86,4.7,2.86,4.7-2.44.68-13,7.79-13,13.28,0,2.68,3.11,3.93,3.11,3.93,0,7.75-3.34,9-4.83,9s-2.42-.3-4.22-.3-5.31,1-5.31,3.91a4.31,4.31,0,0,0,.49,2.15,3.51,3.51,0,0,0-.21,1.08,3.25,3.25,0,0,0,1.87,3c-.49-2.42,1.64-3.15,3.68-3.15a4.14,4.14,0,0,0,2.16,3.79c-.38-3.39,2.85-3.74,3.63-3.74,0,.8.38,2.26,2.62,3.11-.47-1.55.52-2.83,2.41-3.17,2.75-.49,3.49-1.7,4.31-5.16.46-2,1.62-5,7.29-6-4.16-1-5.51-2.32-5.51-4,0-3.14,5.71-4.9,7-4.9,3.26,5.59,6.23,7.13,8.63,7.13a4.75,4.75,0,0,1,1,3.24c0,2.66-1,4.63-1.66,4.63s-8.33-.57-8.33,4.26a1.79,1.79,0,0,0,.49,1.46,3.79,3.79,0,0,0,1.41,3.13c.36-1.95,1.49-2.52,4.62-2.52,0,.85.29,2.55,1.69,3.06,0-.88,0-3.09,3.37-3.09a2.27,2.27,0,0,0,1.75,2.42,2.29,2.29,0,0,1,2.27-2.42c1.13,0,2-.61,2-2.46V121c0-3,2.17-8.35,5.1-11.14a8.36,8.36,0,0,1-3.4.84c-6.94,0-9.24-8.38-9-8.38a14.52,14.52,0,0,0,9.85,3.73c5.86,0,8-3.32,8-6.27,0-6.37-5.9-9.42-5.9-12.22a2.56,2.56,0,0,1,2.56-2.22c1.21,0,3.85,1.25,3.85,3.67a5.25,5.25,0,0,1-.8,2.23,7.78,7.78,0,0,0,5.1-6.08ZM63.13,53.28h0c-1.06,0-.67-.86-.67-1.92s-.39-1.56.67-1.56,1.93.49,1.93,1.56a1.92,1.92,0,0,1-1.93,1.92Zm7.53,32.43h0c-.91.7-3.48,2.91-5.6,2.91V73c1.44,0,6.54,1.21,6.54,3.42a2.28,2.28,0,0,1-2.21,2.13c.55,1.33,2.19,1.89,3.77,1.89a6.89,6.89,0,0,0,5.61-3,6.19,6.19,0,0,1,1.64,2.31A63.39,63.39,0,0,0,70.66,85.71Z"/><path class="cls-7" d="M108.28,57.55l-1,1.32a4.08,4.08,0,0,0,3.4,2c3.44,0,4.19-3.48,4-4.49a3.91,3.91,0,0,1-3.72,2.18A3.64,3.64,0,0,1,108.28,57.55Z"/><path class="cls-2" d="M123.81,82.7c0-3.61-3.18-5.72-6.58-5.72-3.79,0-6.41,3.26-6.62,3.26s.86-3,5.74-6.6c3.55-2.61,7.07-5.06,7.07-8.87,0-4.38-2.85-7.23-6.64-7.23-6.25,0-7.36,5-7.36,5.8a2.31,2.31,0,0,0,.37,1.45,2.9,2.9,0,0,1,3.16-3c1.92,0,2.68,2,2.68,2.93s0,1.87-3.62,5.1-6.62,5.53-6.62,9.51,1.93,6.22,4.69,9.36,2.7,4.61,2.7,6.47A3.64,3.64,0,0,1,109,98.76c-2.7,0-6.66-1.08-8-5a34.23,34.23,0,0,1-2-9.24,10.93,10.93,0,0,0-2.15-5.65l.29-3.28a2.62,2.62,0,0,0,1.56.39c2.08,0,4.62-2,4.62-4.4a4.75,4.75,0,0,0-1.42-3.42,1.86,1.86,0,0,1-2,1.78c-2,0-3.63-1.72-3.63-4.48s1.17-4,2.75-4A5.4,5.4,0,0,1,103,63.51a12.38,12.38,0,0,1-.08-5.24,5.4,5.4,0,0,1-1.56.2c-1.37,0-1.87-.44-1.87-1.38a3.08,3.08,0,0,1,2.82-2.66c2.29,0,1.62,1.75,1.62,1.75s2.32-3.4,2.53-3.53.09-1.42.09-1.42l.92.43,1-1.68c-.44-1.14-2-1.61-2.38-1.93A3.6,3.6,0,0,1,105,46.33c-1.44-.26-12-1.06-12-6.94-.73.33-4.5,2.21-4.5,4.43a1.64,1.64,0,0,0,.32,1c-1.21,0-4.67-.29-6.17,3.2a2.6,2.6,0,0,1,3.26,2.68,4.36,4.36,0,0,1-4.2,4,2.37,2.37,0,0,1-2.54-1.59c-.76.63-1.72,4,1.82,5.65,0,1.33-2.82,6-3.23,6a23.23,23.23,0,0,1-9-1.84c-2.83-1.66-5.12-4.08-6.06-4.08v-1.7c2.54-1.7,6-4.4,6-8.29a7.81,7.81,0,0,0-7.93-7.52,8.09,8.09,0,0,0-7.88,7.48c0,4,4.13,7.14,5.71,7.14-.46.74-2,1-2,1a4.29,4.29,0,0,0,2.41.87v1a3.07,3.07,0,0,0-3.09,2.69c0,1.12.87,1.59.87,1.77,0,.45-1.08.75-1.08,1.84,0,.92,1,1.43,1,1.74a2.19,2.19,0,0,0,2.29,2.71V86.25a4.47,4.47,0,0,0-2.14,2.13c-.58,0-2.23.3-2.23,3.94a2.65,2.65,0,0,1,2-.82,2.94,2.94,0,0,0-.76,2,4,4,0,0,0,.41,1.74A2.77,2.77,0,0,1,58,93.84c0,2.21.43,2.76.89,3.21v12.54H57.7V113h1.91A2.84,2.84,0,0,0,58,115.51a2.79,2.79,0,0,0,5.57,0A2.87,2.87,0,0,0,61.86,113h1.83v-3.4H62.61V98.45a1.9,1.9,0,0,0,1.2.33C63.41,95.89,66.64,94,69,94a3.78,3.78,0,0,1,3.33,1.7,26.8,26.8,0,0,0,10.54-7.2c.3,0,2.87,4.69,2.87,4.69-2.45.69-13,7.8-13,13.29,0,2.68,3.11,3.93,3.11,3.93,0,7.74-3.34,9-4.83,9s-2.42-.3-4.22-.3-5.31,1-5.31,3.91a4.31,4.31,0,0,0,.49,2.15,3.49,3.49,0,0,0-.21,1.07,3.27,3.27,0,0,0,1.87,3.05c-.49-2.42,1.64-3.15,3.68-3.15a4.15,4.15,0,0,0,2.16,3.79c-.38-3.39,2.85-3.75,3.63-3.75,0,.81.39,2.27,2.63,3.11-.48-1.54.51-2.82,2.41-3.16,2.74-.49,3.48-1.7,4.3-5.16.46-2,1.62-5,7.29-6-4.16-1-5.51-2.32-5.51-4,0-3.13,5.72-4.89,7-4.89,3.26,5.59,6.23,7.13,8.63,7.13a4.72,4.72,0,0,1,1,3.23c0,2.67-1,4.63-1.65,4.63s-8.34-.56-8.34,4.26a1.8,1.8,0,0,0,.49,1.47,3.79,3.79,0,0,0,1.41,3.13c.36-2,1.49-2.52,4.62-2.52,0,.85.29,2.55,1.69,3,0-.87.05-3.08,3.37-3.08a2.27,2.27,0,0,0,1.75,2.42,2.29,2.29,0,0,1,2.28-2.42c1.12,0,1.94-.61,1.94-2.46v-6.39c0-3,2.17-8.36,5.1-11.14a8.53,8.53,0,0,1-3.4.84c-6.94,0-9.23-8.38-9-8.38a14.55,14.55,0,0,0,9.85,3.73c5.86,0,8-3.32,8-6.27,0-6.37-5.9-9.42-5.9-12.23a2.55,2.55,0,0,1,2.56-2.21c1.21,0,3.85,1.25,3.85,3.67a5.28,5.28,0,0,1-.79,2.23,7.8,7.8,0,0,0,5.1-6.08ZM60.68,50.8h0a1.93,1.93,0,1,1,1.93-1.92,1.92,1.92,0,0,1-1.93,1.92Zm7.53,32.43h0c-.91.69-3.48,2.91-5.6,2.91V70.55c1.44,0,6.54,1.21,6.54,3.42a2.28,2.28,0,0,1-2.21,2.13C67.5,77.43,69.13,78,70.71,78A6.92,6.92,0,0,0,76.33,75,6.29,6.29,0,0,1,78,77.35,63.39,63.39,0,0,0,68.21,83.23Z"/><path class="cls-8" d="M85.85,50.72a4.34,4.34,0,0,1-4,4h0c3.67,0,5.3-2.43,5.3-4.64,0-1.75-1-3.21-2.37-3.21A2.89,2.89,0,0,0,82.59,48,2.6,2.6,0,0,1,85.85,50.72Z"/><path class="cls-8" d="M64.53,49a2.93,2.93,0,0,0-2.91-2.84,2.8,2.8,0,0,0-2.91,2.74,3,3,0,0,0,3,3.09v1.8c2-1.84,2.78-3.63,2.78-4.79ZM60.68,50.8h0a1.93,1.93,0,1,1,1.93-1.92A1.92,1.92,0,0,1,60.68,50.8Z"/><path class="cls-8" d="M52.75,48.84c0,4,4.13,7.14,5.71,7.14a8.34,8.34,0,0,1-3.89-7.08,8.17,8.17,0,0,1,4.28-7.34A8.21,8.21,0,0,0,52.75,48.84Z"/><path class="cls-8" d="M58.85,58.83c.34,0,.94.59,1.87.77V57.72s-1.25.09-1.87.09Z"/><path class="cls-8" d="M62.6,58.87v1.48a33.86,33.86,0,0,1,4.88,1.85C65.21,60.64,63.41,58.87,62.6,58.87Z"/><path class="cls-8" d="M57.89,60.59a11.15,11.15,0,0,1,3.86,2.1c0,.21-2.33.23-3.1.23s-1.74-.18-1.74-1.17C56.91,61.28,57.34,60.59,57.89,60.59Z"/><path class="cls-8" d="M57.92,63.86c.5,0,3.64,1,3.64,1.3s-2.64.74-3.35.74-1.22-.4-1.22-1A1,1,0,0,1,57.92,63.86Z"/><path class="cls-8" d="M58.4,66.83a8.9,8.9,0,0,1,2.62.64,6,6,0,0,1-2.62.85.8.8,0,0,1-.72-.75A.74.74,0,0,1,58.4,66.83Z"/><path class="cls-9" d="M68.79,86.14c1-.47,13.39-6.94,14.47-8.28a24.09,24.09,0,0,1-5.3-.51,63.39,63.39,0,0,0-9.75,5.88c-.91.69-3.48,2.91-5.6,2.91-.78,0-1.09-.27-2-.27V71.55a2.1,2.1,0,0,0-1.8-2V86.25a4.47,4.47,0,0,0-2.14,2.13c-.55,0-2.06.27-2.22,3.38.59-1.14,1.75-2.45,2.73-2.45,0-1.44,3.37-1.58,5.58-1.58A16.38,16.38,0,0,0,68.79,86.14Z"/><path class="cls-8" d="M56.44,91.5a2.94,2.94,0,0,0-.76,2,4.1,4.1,0,0,0,.24,1.36A11.41,11.41,0,0,1,58,91.65S56.73,91.5,56.44,91.5Z"/><path class="cls-8" d="M59.71,94.16A3.24,3.24,0,0,0,58,93.84c0,2,.35,2.63.75,3.06A4.92,4.92,0,0,1,59.71,94.16Z"/><path class="cls-8" d="M60.65,110V95.49c-1.18,0-1.8,1.56-1.8,1.56v12.54H57.7v1.63C60.36,111.22,60.65,110.35,60.65,110Z"/><path class="cls-8" d="M61.41,115a1.68,1.68,0,0,0-1.64-1.69,2.36,2.36,0,0,0-1.09.37,2.68,2.68,0,0,0-.7,1.81,1.5,1.5,0,0,0,0,.22,1.94,1.94,0,0,0,1.55,1.16A1.78,1.78,0,0,0,61.41,115Z"/><path class="cls-8" d="M62.61,98.45a1.9,1.9,0,0,0,1.2.33,3.93,3.93,0,0,1-1.07-2.09,1.54,1.54,0,0,1,.18-.7,2.86,2.86,0,0,0-1.69-.45C61.23,97.06,61.51,97.82,62.61,98.45Z"/><path class="cls-8" d="M83,98.85c4-2,10.3-3.82,10.3-7.43,0-3-2.87-3.6-3.76-3.6a4.29,4.29,0,0,1,.84,2.25c0,3.21-3.79,3.12-4.62,3.12-2.45.69-13,7.8-13,13.29,0,2.68,3.11,3.93,3.11,3.93,0,7.74-3.34,9-4.83,9s-2.42-.3-4.22-.3-5.31,1-5.31,3.91a4.31,4.31,0,0,0,.49,2.15c.63-5.16,2.65-4.4,8.83-4.4,3,0,7.9-3.22,7.9-10.76,0,0-3.08-1.12-3.08-4.15C75.63,102.26,79,100.82,83,98.85Z"/><path class="cls-8" d="M61.77,126.25a3.27,3.27,0,0,0,1.87,3.05c0-.11,0-.2,0-.3a2.7,2.7,0,0,1-.69-1.87,3.14,3.14,0,0,1,1-1.95H62A3.49,3.49,0,0,0,61.77,126.25Z"/><path class="cls-8" d="M69.39,126.15H67.32a4.15,4.15,0,0,0,2.16,3.79,3.59,3.59,0,0,1-.71-2.08A2.18,2.18,0,0,1,69.39,126.15Z"/><path class="cls-8" d="M75.66,129a3.5,3.5,0,0,1-1.17-2.83H73.11c0,.81.39,2.27,2.63,3.11C75.71,129.21,75.68,129.11,75.66,129Z"/><path class="cls-8" d="M100.64,122.07c.28,0,3-3.88,3-7.32a6.28,6.28,0,0,0-1.72-4.24c-4.86,0-6.76-2-6.76-4.27a17,17,0,0,0-2.24-.27,14.18,14.18,0,0,0-1.66.12c3.26,5.59,6.23,7.13,8.63,7.13a4.72,4.72,0,0,1,1,3.23c0,2.67-1,4.63-1.65,4.63s-8.34-.56-8.34,4.26a1.8,1.8,0,0,0,.49,1.47C91.38,123.48,93.3,122.07,100.64,122.07Z"/><path class="cls-8" d="M92.23,128.05a2.14,2.14,0,0,1,.4-1.24H91.38a3.93,3.93,0,0,0,1.23,3A3.93,3.93,0,0,1,92.23,128.05Z"/><path class="cls-8" d="M98.42,128.73a1.62,1.62,0,0,1,.52-1.31H97.41c0,.85.29,2.55,1.69,3h0A3.23,3.23,0,0,1,98.42,128.73Z"/><path class="cls-8" d="M107.91,80.14c0-4.07,3.09-6.47,6.09-9.09s4.48-4.18,4.48-6.07a4.07,4.07,0,0,0-4.21-4.16c-1.54,0-4.13.83-4.31,3a2.81,2.81,0,0,1,3-1.95c1.92,0,2.68,2,2.68,2.93s0,1.87-3.62,5.1-6.62,5.53-6.62,9.51,1.93,6.22,4.69,9.36,2.7,4.61,2.7,6.47A3.64,3.64,0,0,1,109,98.76c-2.4,0-5.8-.86-7.48-3.84.64,2,2.69,5.92,8.69,5.92,4.66,0,5.46-3.42,5.46-5.08,0-3.3-1.94-5.79-3.66-7.75S107.91,83.42,107.91,80.14Z"/><path class="cls-8" d="M117.32,81.18a4.15,4.15,0,0,0-4.13,3.37h0a2.73,2.73,0,0,1,2.46-1.66c1.21,0,3.85,1.25,3.85,3.67a5.28,5.28,0,0,1-.79,2.23,8.77,8.77,0,0,0,.82-.34,4.3,4.3,0,0,0,1.65-3.16C121.18,83.82,120.1,81.18,117.32,81.18Z"/><path class="cls-8" d="M104.21,129.8a3.2,3.2,0,0,1-.68-1.83,1.23,1.23,0,0,1,.18-.58h-1.24A2.27,2.27,0,0,0,104.21,129.8Z"/><path class="cls-3" d="M99.42,48.77c0,.7,0,1.11.69,1.22l.9-1.22Z"/><path class="cls-3" d="M98.21,48.77H96c-.52,1.25,2.26,2.49,3.18,2.49l.4-.53A1.58,1.58,0,0,1,98.21,48.77Z"/><path class="cls-8" d="M69.15,74a2.28,2.28,0,0,1-2.21,2.13,2.85,2.85,0,0,0,.93.22c.55,0,2.51-.18,2.51-1.92,0-1.93-2.34-2.7-4-3C67.87,72,69.15,72.86,69.15,74Z"/><path class="cls-5" d="M105.83,55.07l-1,1.32a4.08,4.08,0,0,0,3.4,2c3.44,0,4.19-3.48,4-4.5A3.91,3.91,0,0,1,108.61,56,3.64,3.64,0,0,1,105.83,55.07Z"/><path class="cls-8" d="M77.05,71.35A5.41,5.41,0,0,1,76.68,73c2.91,0,3.58-2.3,3.58-4.14a3.45,3.45,0,0,0-.51-2.18,32.49,32.49,0,0,0,4.15-8.64c-.5,0-5.13-1-4.71-4.73h0a1.33,1.33,0,0,1-.08-.21c-.76.63-1.72,4,1.82,5.65,0,1.33-2.82,6-3.23,6a26.32,26.32,0,0,1-7.41-1.18C73.52,65.52,77.05,68.5,77.05,71.35Z"/><path class="cls-8" d="M88.44,43.82a1.64,1.64,0,0,0,.32,1,8.59,8.59,0,0,0-3.59.52,31.47,31.47,0,0,1,6-.34,3.23,3.23,0,0,1-.69-1.82,7,7,0,0,1,2.5-3.81C92.21,39.72,88.44,41.6,88.44,43.82Z"/><path class="cls-1" d="M120.26,33.43l18-9.32-6.58,19.38L127.66,40,129,36.18l-2.52-2.13-3.44,1.88-2.79-2.5Zm-78.2-9.52A8,8,0,0,0,39,23.29a8.18,8.18,0,0,0-8.17,8.56c0,5.43,4.85,8.59,8.77,8.59s8.27-3.34,8.27-7.93a6.47,6.47,0,0,0-.69-3.34L43.88,30a9.9,9.9,0,0,1,.61,2.66c0,1-1.12,3.61-3.44,3.61s-5.94-3.61-5.94-6.41a3.5,3.5,0,0,1,3.43-3.28,4.94,4.94,0,0,1,2.64.43l.88-3.11Zm3.5-6.84L50,15l2.77,5.53,3-1.44L53.2,13.56l4.48-2.09,7.11,14.75-4.53,2.26-3-6.19-3,1.51,2.83,6.09L52.6,32l-7-15Zm19.23-7.8L68,25.38l10.57-2.13L77.81,20l-5.52,1.2-.62-3.52,5.1-1-.57-3.38L71,14.4l-.63-2.93,5.55-1-.74-3.33L64.79,9.27ZM82.34,6.59h5.09l-.22,13.19h5.57v3.58l-10.73-.14.29-16.63Zm26.55,7.54-3.33,1.12c-.08-1.75-.74-3.17-2-3.17a1.25,1.25,0,0,0-1.12,1.17c0,1.67,5,2.6,4.93,6.91a5.6,5.6,0,0,1-5.68,5.55,6.45,6.45,0,0,1-6.45-5.24L98.57,19c.12.74.68,3,2.29,3a1.25,1.25,0,0,0,1.36-1.31c0-2.19-5-2.78-5-7a5.26,5.26,0,0,1,5.57-5.25,6,6,0,0,1,6.08,5.65Zm7.3-1.12-7.42,14.66,9.63,4.86,1.39-3-5.08-2.46,1.68-3.16,4.6,2.4,1.64-3-4.74-2.4,1.31-2.7,5,2.62,1.48-3.08Z"/><path class="cls-3" d="M108,13.54l-1.73.63c-.17-1.16-1-2.83-2.67-2.83a1.94,1.94,0,0,0-1.87,1.93c0,2.54,4.94,2.77,4.94,6.76a4.9,4.9,0,0,1-4.84,4.86,5.73,5.73,0,0,1-5.59-4l1.9-.86c.34,1.53,1.3,2.73,2.75,2.73A2.14,2.14,0,0,0,103,20.62c0-2.72-4.86-2.93-4.86-6.87a4.63,4.63,0,0,1,4.66-4.5,5.32,5.32,0,0,1,5.2,4.29ZM41.15,24.42l-.38,1.67a10.6,10.6,0,0,0-2.2-.28,4.61,4.61,0,0,0-4.28,4.34c0,3,3.89,6.87,6.86,6.87,2,0,4.08-2.2,4.08-4.61a6.7,6.7,0,0,0-.37-1.78l1.8-.52a8.09,8.09,0,0,1,.45,2.26,7.65,7.65,0,0,1-7.55,7.27,8,8,0,0,1-7.91-8,7.44,7.44,0,0,1,9.5-7.23Zm5.4-7L53,31l3.13-1.57-2.91-6.12,4.46-2.16,3,6.24,3.11-1.64L57.32,12.34l-3.17,1.57,2.73,5.49-4.45,2.17-2.72-5.69-3.16,1.58ZM65.67,9.81,74.6,8,75,9.81l-5.53,1,.86,4.5,5.29-1.06.3,1.76-5.14,1.05.89,4.95,5.64-1.19.34,1.78-9,1.83-3-14.67ZM116.55,14l8.13,4.1-.79,1.67-5-2.6-2.11,4.08,4.82,2.43-.85,1.57-4.69-2.35-2.36,4.44,5.17,2.55-.83,1.61-8.23-4.14L116.55,14ZM83.1,7.42h3.45l-.19,13.06H92v2.05l-9.13-.18L83.1,7.42Zm38.52,26.13L123.18,35l3.5-1.85L129.9,36l-1.3,3.77,2.78,2.41L137,25.65l-15.34,7.9Zm8.88.68h0l-2.22-1.94,3.53-1.86Z"/><path class="cls-1" d="M137.26,133.42s.24-1-1.24-2a2.83,2.83,0,0,0-3.37.41l-3,2.93,6.5,6.71a38,38,0,0,0,3.5-3.58,2.79,2.79,0,0,0-.71-4c-1.09-.72-1.67-.46-1.67-.46Zm-98.78,3.14L39.92,135l-4.34-4.12-6.53,6.73,2.31,2.13L33.9,137l2,1.91,1.44-1.52-2-1.93,1-1,2.18,2.16Zm3.92,1.28A4.47,4.47,0,0,1,47,142.35a5.26,5.26,0,0,1-4.85,5.28A4.81,4.81,0,0,1,37.45,143a5.25,5.25,0,0,1,4.95-5.18Zm-1,7.41c.87,0,3-2.41,3-3.91a1.2,1.2,0,0,0-1.17-1.15c-1.34,0-3.16,2.54-3.16,3.72a1.24,1.24,0,0,0,1.28,1.34ZM51,143.56a5.26,5.26,0,0,0-3.87,6,4.8,4.8,0,0,0,5.5,3.62,5.26,5.26,0,0,0,3.76-6.11A4.49,4.49,0,0,0,51,143.56Zm.39,7.48h0A1.24,1.24,0,0,1,49.85,150c-.22-1.17,1.07-4,2.4-4.26a1.19,1.19,0,0,1,1.36.9c.29,1.47-1.39,4.26-2.25,4.42Zm13.71-2.26-5.79-2.07-.79,2,1.55.55-2.48,6.92,2.83,1,2.49-6.88,1.44.51.75-2Zm7.51,6.28s1-.37,1-2.13a2.84,2.84,0,0,0-2.19-2.6l-4.1-.92-2.06,9.12a38.55,38.55,0,0,0,4.91,1,2.79,2.79,0,0,0,3-2.79c0-1.31-.53-1.65-.53-1.65Zm-4,2.16h0L69,155.5s1.14-.18,1.14.91c0,1.39-1.51.81-1.51.81Zm.8-3.75h0l.3-1.4s.88,0,.88.75c0,.94-1.18.65-1.18.65Zm4.78,7,5.21-10.64L83,161l-3.17-.17-.67-2.19-1.65,0-.94,1.94-2.38-.1Zm10.72-8.91h3l.22,7.1h3.18l.07,2.11-6.08.15-.37-9.36Zm7.69-.39,3.05-.53,1.06,7.12,3.18-.5.32,2.19-6.11,1-1.5-9.27Zm21.5-2.31,1.14-1.68A5.18,5.18,0,0,0,112,146a4.7,4.7,0,0,0-4.61,4.83,5.14,5.14,0,0,0,4.81,5c2.79,0,4.67-1.86,4.67-4.92l-2-.26c0,1.13-.32,2.81-1.94,2.81s-2.62-2.32-2.62-3.61a1.84,1.84,0,0,1,1.87-1.92,2.81,2.81,0,0,1,2,.94Zm1.64-4.74,2.62-1.49,3.6,6.29,2.69-1.52,1.1,1.83-5.35,3.13-4.66-8.24Zm6.45-3.66,2.43-1.76,3.81,5.1a.83.83,0,0,0,.58.32,1.28,1.28,0,0,0,1.23-1c0-.15-.26-.47-.26-.47l-3.76-5.05,1.76-1.4,4,5.53a2.16,2.16,0,0,1,.41,1.45c0,2.37-2.83,3.77-4.09,3.77a3.54,3.54,0,0,1-2.51-1.45l-3.65-5Zm14.7-2.52h0l-1.24-1.25a.94.94,0,0,1,1.4-.45c1.16.76-.16,1.7-.16,1.7Zm-2.69-2.71h0l-1-1s.47-.74,1.1-.32C135.08,134.38,134.2,135.21,134.2,135.21Z"/><path class="cls-3" d="M123,140.54l1.54-1.15,3.55,4.83a1.41,1.41,0,0,0,1,.54,2,2,0,0,0,1.74-1.69,2,2,0,0,0-.43-.92l-3.4-4.53.84-.67,3.46,4.64a2.69,2.69,0,0,1,.62,1.6c0,1.48-2,3.13-3.57,3.13a2.41,2.41,0,0,1-1.79-1L123,140.54Zm-84.48-4.83.62-.7-3.5-3.39-5.72,6,1.38,1.31,2.62-2.79,2,1.95.64-.69-2-2,1.72-1.84,2.22,2.15Zm3.75,2.64a4.33,4.33,0,0,1,4.29,4.14A5,5,0,0,1,42.09,147a4.11,4.11,0,0,1-4-4.12c0-2.15,2-4.53,4.14-4.53Zm-.89,7.45c1.57,0,3.64-2.79,3.64-4.51a1.75,1.75,0,0,0-1.75-1.74c-1.43,0-3.72,2.68-3.72,4.48a1.88,1.88,0,0,0,1.83,1.77Zm9.56-1.7c-2.09.41-3.61,3.13-3.2,5.24a4.11,4.11,0,0,0,4.71,3.28,5,5,0,0,0,3.49-5.28,4.33,4.33,0,0,0-5-3.24Zm.55,7.48h0a1.89,1.89,0,0,1-2.14-1.39c-.34-1.75,1.39-4.82,2.8-5.1a1.75,1.75,0,0,1,2,1.37c.33,1.69-1.17,4.82-2.71,5.12Zm8.17-4.2,4.67,1.67L64,150l-1.47-.58-2.42,7-1.79-.71,2.39-6.9-1.42-.45.34-1ZM71.68,155a1.88,1.88,0,0,0,1.43-2c0-1.72-1.91-2.2-1.91-2.2L67.63,150,66,158.1a25.93,25.93,0,0,0,4.26.86,2.27,2.27,0,0,0,2.32-2.25,1.83,1.83,0,0,0-.93-1.76Zm-2.27,2.94h0a12.4,12.4,0,0,1-1.41-.32l.59-2.78s2.14.09,2.14,1.57-1.08,1.53-1.32,1.53Zm.58-3.76h0a8,8,0,0,1-1.24-.22l.52-2.53s2,.1,2,1.29A1.3,1.3,0,0,1,70,154.13Zm66.69-20a1.88,1.88,0,0,0-.88-2.28,2.48,2.48,0,0,0-2.88.4l-2.59,2.58,5.89,5.76a26,26,0,0,0,3.05-3.09,2.28,2.28,0,0,0-.61-3.18,1.81,1.81,0,0,0-2-.19Zm1.21,3.52h0a12.79,12.79,0,0,1-1,1l-2-2s1.25-1.74,2.48-.93a1.3,1.3,0,0,1,.56,1.95Zm-2.83-2.55h0a7.37,7.37,0,0,1-.86.91l-1.83-1.81s1.15-1.58,2.15-.93a1.3,1.3,0,0,1,.54,1.83ZM80.28,160.33H82.2l-2.94-9-4.2,8.54,1.18,0,.93-1.91,2.45.12.66,2.18Zm-2.68-3.18h0L78.65,155l.66,2.16Zm7.83-5.05h2l.19,7.17h3.24v1H85.77l-.34-8.16Zm7.84-.56,1.88-.29,1.15,7.11,3.12-.52.15,1.14-5,.78-1.28-8.22Zm20.6-3.48.6-.84a4.08,4.08,0,0,0-2.35-.7,4.15,4.15,0,0,0-4.12,4.24,4.26,4.26,0,0,0,4.25,4.41,4,4,0,0,0,4-3.79l-1-.12a2.53,2.53,0,0,1-2.46,2.71c-2.1,0-3.11-2.84-3.11-4.15a2.44,2.44,0,0,1,2.37-2.48,3.1,3.1,0,0,1,1.8.72Zm2.71-3.73,4.06,7.18L125,149l-.52-.91-2.68,1.52-3.62-6.31Z"/></g></g></svg>