<svg xmlns="http://www.w3.org/2000/svg" viewBox="0 0 163.16 166.99"><defs><style>.cls-1{fill:#fff;}.cls-2{fill:#283b7e;}</style></defs><g id="Layer_2" data-name="Layer 2"><g id="Layer_1-2" data-name="Layer 1"><path class="cls-1" d="M163.13,105.22a.2.2,0,0,0-.19-.16l-10.17-3.91A8.69,8.69,0,0,1,154,98.43l5.24,2.3a1.07,1.07,0,0,0,.54.13,1.39,1.39,0,0,0,1.17-.66,15,15,0,0,0,.88-1.74,5.65,5.65,0,0,0,.32-3.6,3.82,3.82,0,0,0-2.21-2.4l-14-6.41a.3.3,0,0,1-.09-.07,4,4,0,0,0-2.78-.09V84.56c0-1.07,0-2.21-.09-3.35s-.16-2.36-.29-3.6a67.83,67.83,0,0,0-3.13-14.18l-.25-.63c-2.75-7.64-4.89-13.71-4.83-20.94,0-5.46,6.85-13.11,9.47-15.6l2.47-2.34L120.59.32l-2,1.36a31.6,31.6,0,0,1-17.28,4.83A31.3,31.3,0,0,1,83.38,1.27L81.58,0l-1.8,1.26A31.37,31.37,0,0,1,61.9,6.51,31.54,31.54,0,0,1,44.63,1.68L42.57.32,19.2,21.64l-2.5,2.28,2.44,2.34c2.62,2.49,9.44,10.14,9.5,15.6,0,7.23-2.11,13.3-4.86,20.94l-.22.63a65.86,65.86,0,0,0-3.13,14.18c-.12,1.24-.22,2.44-.28,3.6S20,83.49,20,84.56c0,.45,0,.89,0,1.33A3.85,3.85,0,0,0,17.3,86h0s-.06.07-.09.07l-14,6.41A3.81,3.81,0,0,0,1,94.86a5.65,5.65,0,0,0,.32,3.6,9.62,9.62,0,0,0,.92,1.74,1.28,1.28,0,0,0,1.13.66,1.07,1.07,0,0,0,.54-.13l5.24-2.3a9.43,9.43,0,0,1,1.27,2.72L.22,105.06a.2.2,0,0,0-.19.16.36.36,0,0,0,0,.25L.63,107a87.12,87.12,0,0,0,75.49,54.67l5.24,5.19a.29.29,0,0,0,.22.09.35.35,0,0,0,.22-.09L87,161.69A87.21,87.21,0,0,0,162.53,107l.6-1.55A.28.28,0,0,0,163.13,105.22Z"/><path class="cls-2" d="M163.13,105.21a.35.35,0,0,0-.16-.16l-10.17-3.91A8.81,8.81,0,0,1,154,98.42l5.24,2.34a1.69,1.69,0,0,0,.53.09,1.37,1.37,0,0,0,1.17-.66,10.85,10.85,0,0,0,.89-1.74,5.63,5.63,0,0,0,.31-3.6,3.77,3.77,0,0,0-2.21-2.4l-14-6.38s0-.06-.09-.06a3.7,3.7,0,0,0-2.78-.13V84.59c0-1.11,0-2.25-.1-3.38s-.16-2.37-.28-3.57a65.4,65.4,0,0,0-3.16-14.19l-.22-.63c-2.72-7.67-4.9-13.74-4.83-20.94,0-5.46,6.85-13.14,9.47-15.63l2.47-2.34L120.59.35l-2.06,1.32a31.57,31.57,0,0,1-17.27,4.84A31.31,31.31,0,0,1,83.38,1.26L81.58,0l-1.8,1.26A31.4,31.4,0,0,1,61.9,6.51,31.6,31.6,0,0,1,44.62,1.67l-2-1.32L19.2,21.64l-2.5,2.27,2.43,2.34c2.62,2.49,9.45,10.17,9.51,15.63,0,7.2-2.12,13.27-4.86,20.94l-.22.63a65.37,65.37,0,0,0-3.13,14.19c-.13,1.2-.22,2.4-.29,3.57S20,83.48,20,84.59c0,.44,0,.85,0,1.29A3.61,3.61,0,0,0,17.3,86h0s-.06,0-.09.06l-14,6.38A3.82,3.82,0,0,0,1,94.85a5.57,5.57,0,0,0,.32,3.6,8.46,8.46,0,0,0,.91,1.74,1.29,1.29,0,0,0,1.14.66,1.7,1.7,0,0,0,.54-.09l5.24-2.34a10,10,0,0,1,1.26,2.72L.21,105.05a.38.38,0,0,0-.19.16.35.35,0,0,0,0,.25L.62,107a87.18,87.18,0,0,0,75.49,54.68l5.25,5.21a.44.44,0,0,0,.22.09.38.38,0,0,0,.22-.09L87,161.69a86.38,86.38,0,0,0,44.29-15.42A87.17,87.17,0,0,0,162.53,107l.6-1.55A.35.35,0,0,0,163.13,105.21Z"/><path class="cls-1" d="M21.12,81.27c.07-1.17.16-2.34.32-3.54a63.2,63.2,0,0,1,3.06-14l.22-.63c2.78-7.74,5-13.87,4.9-21.29,0-5.78-7.08-13.74-9.79-16.33l-1.68-1.58,1.71-1.55L42.66,1.58l1.39.91a32.83,32.83,0,0,0,17.85,5A32.52,32.52,0,0,0,80.35,2.08l1.23-.85,1.23.85a32.45,32.45,0,0,0,18.45,5.44,32.69,32.69,0,0,0,17.81-5l1.39-.91L145,23.94l-1.67,1.61c-2.72,2.56-9.76,10.52-9.79,16.3-.07,7.42,2.11,13.55,4.89,21.29l.22.63a62.41,62.41,0,0,1,3.07,14c.12,1.2.25,2.37.31,3.54s.1,2.24.1,3.32c0,8.08-1.55,15.12-4.71,20.87a30.29,30.29,0,0,1-1.77,2.85c-.06.12-.16.25-.28.44l-.07.06c-11.11,16.68-27.47,27.07-46.11,29.25H89l-7.45,7.45-7.46-7.45H74c-18.64-2.18-35-12.57-46.15-29.25l0-.06-.29-.41c-.63-.92-1.23-1.9-1.77-2.88C22.58,99.71,21,92.67,21,84.59,21,83.51,21.06,82.37,21.12,81.27Z"/><path class="cls-2" d="M141.84,24,120.27,4.31a34.93,34.93,0,0,1-19,5.34A34.47,34.47,0,0,1,81.58,3.84,34.53,34.53,0,0,1,61.9,9.65a34.75,34.75,0,0,1-19-5.34L21.31,24S31.73,33.84,31.8,41.83s-2.34,14.5-5.28,22.68A63,63,0,0,0,23.58,78c-.12,1.07-.25,2.24-.31,3.41s-.07,2.12-.1,3.19c0,6.63,1.11,13.71,4.46,19.84a27.78,27.78,0,0,0,1.64,2.65C31,109.59,45.12,133,75.1,136l.13.1,6.35,6.35L88,136.12l.09-.1c30-3.06,44.09-26.43,45.83-28.93a22.81,22.81,0,0,0,1.64-2.65C138.87,98.31,140,91.23,140,84.6c0-1.07,0-2.15-.1-3.19s-.19-2.34-.28-3.41a63.31,63.31,0,0,0-3-13.49c-2.91-8.18-5.31-14.65-5.24-22.68S141.84,24,141.84,24Z"/><path class="cls-1" d="M124.85,32.9a3.35,3.35,0,0,1-2.28.56,3.7,3.7,0,0,1,1.58-1.92,3.28,3.28,0,0,1,2.28-.57,3.54,3.54,0,0,1-1.58,1.93Zm1.2-9a3.94,3.94,0,0,1-.45,2.56A3.75,3.75,0,0,1,124,28.25a4.1,4.1,0,0,1,.41-2.56,3.75,3.75,0,0,1,1.68-1.83Zm-4,3.76a3.73,3.73,0,0,1-.51-2.27,3.3,3.3,0,0,1,1.58,1.54,3.45,3.45,0,0,1,.5,2.25A3.14,3.14,0,0,1,122,27.62Zm.56,4a4.32,4.32,0,0,0-.31-2.55,3.85,3.85,0,0,0-1.07,2.3,4.42,4.42,0,0,0,.31,2.59,3.86,3.86,0,0,0,1.07-2.34Zm1.52-2.52a4,4,0,0,0-.88,2.43,3.58,3.58,0,0,0,2-1.42,4.07,4.07,0,0,0,.89-2.4,3.34,3.34,0,0,0-2,1.39Zm.16-7.71a3.94,3.94,0,0,0-1.08,2.31,4.18,4.18,0,0,0,.32,2.59A4.16,4.16,0,0,0,124.59,24a4.42,4.42,0,0,0-.31-2.59Zm-1.77-3a4.19,4.19,0,0,1,.82,2.46,4.39,4.39,0,0,1-.57,2.5,3.78,3.78,0,0,1-.82-2.4,4.08,4.08,0,0,1,.57-2.56Zm.32,6.73a3.54,3.54,0,0,0-1.17-2,3.06,3.06,0,0,0-2-.86,3.42,3.42,0,0,0,1.17,2,3,3,0,0,0,2,.86Zm-3.89-6.92a3.64,3.64,0,0,1,1.86,1.61,4.24,4.24,0,0,1,.7,2.49,3.34,3.34,0,0,1-1.87-1.61,4.17,4.17,0,0,1-.69-2.49Zm.41,16.93A3.61,3.61,0,0,1,121,33.31a4.23,4.23,0,0,1-.38,2.56A3.84,3.84,0,0,1,119,37.7a3.9,3.9,0,0,1,.38-2.56Zm-.09,3.69a3.37,3.37,0,0,1,2.11,1.05,3,3,0,0,1-2.27.5A3.25,3.25,0,0,1,117,39.31a3.13,3.13,0,0,1,2.31-.48Zm-3.13-1.23a3.94,3.94,0,0,0-1.49,2,3,3,0,0,0,2.28-.72,3.66,3.66,0,0,0,1.45-2,3.27,3.27,0,0,0-2.24.73Zm-2.59,2.87a6.67,6.67,0,0,0-.82-.37,3.25,3.25,0,0,0-2.06-.07,3.44,3.44,0,0,0-2,1.3,3.15,3.15,0,0,0,2.34.22,3.61,3.61,0,0,0,2-1.23l.32.28A9,9,0,0,0,110.76,43l.73,1.2a12.82,12.82,0,0,1,2.05-3.32,12,12,0,0,1,2.15,3.32c.31-.47.44-.69.76-1.17a8.89,8.89,0,0,0-2.69-2.4,3.25,3.25,0,0,0,.35-.31,3.39,3.39,0,0,0,2,1.26,3.15,3.15,0,0,0,2.33-.22,3.46,3.46,0,0,0-2.05-1.3,3.21,3.21,0,0,0-2,.07s0,0-.06,0c-.26.13-.51.22-.73.34ZM111,37.6a4,4,0,0,1,1.46,2,3,3,0,0,1-2.25-.72,3.58,3.58,0,0,1-1.48-2,3.34,3.34,0,0,1,2.27.73Zm-.85,1.71A3.25,3.25,0,0,1,108,40.38a3.1,3.1,0,0,1-2.3-.5,3.46,3.46,0,0,1,2.15-1.05,3.07,3.07,0,0,1,2.27.48Zm-6.67-10.17a3.73,3.73,0,0,1,.51-2.25,3.22,3.22,0,0,1,1.61-1.54,3.71,3.71,0,0,1-.54,2.27,3.12,3.12,0,0,1-1.58,1.52Zm.38,2.43a4,4,0,0,0-.88-2.43,3.34,3.34,0,0,0-2-1.39,4.07,4.07,0,0,0,.89,2.4,3.69,3.69,0,0,0,2,1.42Zm1-2.46a4.09,4.09,0,0,0-.31,2.55,3.68,3.68,0,0,0,1,2.34,4.18,4.18,0,0,0,.32-2.59,3.73,3.73,0,0,0-1.05-2.3Zm1.33,7.32a3.1,3.1,0,0,1-2.31-.56,3.59,3.59,0,0,1-1.58-1.9,3,3,0,0,1,2.28.57,3.75,3.75,0,0,1,1.61,1.89Zm-.47.51a3.38,3.38,0,0,1,2.05,1.2,3,3,0,0,1-2.31.35,3.61,3.61,0,0,1-2.08-1.2,3.13,3.13,0,0,1,2.34-.35Zm2.46.76a3.57,3.57,0,0,1-1.64-1.83,4.13,4.13,0,0,1-.41-2.56,3.49,3.49,0,0,1,1.64,1.83,4.15,4.15,0,0,1,.41,2.56Zm-1.83-17.88a3.71,3.71,0,0,1,1.83-1.61,4.13,4.13,0,0,1-.66,2.49,3.44,3.44,0,0,1-1.87,1.61,4.24,4.24,0,0,1,.7-2.49Zm-.89,3.35a3.63,3.63,0,0,0-1.16,2,3.1,3.1,0,0,0,2-.86,3.79,3.79,0,0,0,1.17-2,3.06,3.06,0,0,0-2,.86Zm-1.64-2.31a4.19,4.19,0,0,1,.82-2.46A4.08,4.08,0,0,1,105.2,21a4.17,4.17,0,0,1-.82,2.4,4,4,0,0,1-.57-2.5Zm-1,.57a4.19,4.19,0,0,0-.31,2.59,4,4,0,0,0,1.07,2.31,4.11,4.11,0,0,0,.32-2.59,3.94,3.94,0,0,0-1.08-2.31Zm-1.8,2.43a3.75,3.75,0,0,1,1.68,1.83,4.14,4.14,0,0,1,.44,2.56,3.65,3.65,0,0,1-1.67-1.83,4.07,4.07,0,0,1-.45-2.56ZM103,31.54a3.85,3.85,0,0,1,1.58,1.92,3.28,3.28,0,0,1-2.28-.56A3.61,3.61,0,0,1,100.68,31a3.34,3.34,0,0,1,2.31.57Zm18.7,7a3.43,3.43,0,0,0,2-1.2,3,3,0,0,0-2.3-.35,3.46,3.46,0,0,0-2.09,1.2,3.1,3.1,0,0,0,2.34.35Zm1.55-2.62a3,3,0,0,1-2.28.56,3.54,3.54,0,0,1,1.58-1.89,3.05,3.05,0,0,1,2.31-.57A3.81,3.81,0,0,1,123.24,35.87Z"/><path class="cls-1" d="M39.41,37.29a3.08,3.08,0,0,1,2.33-.35,3.55,3.55,0,0,1,2.09,1.2,3.13,3.13,0,0,1-2.34.35,3.61,3.61,0,0,1-2.08-1.2Zm19.87-1.42a3,3,0,0,1-2.28.56,3.54,3.54,0,0,1,1.58-1.89A3,3,0,0,1,60.85,34a3.57,3.57,0,0,1-1.57,1.9Zm.5,1.42a3.42,3.42,0,0,1-2.08,1.2,3,3,0,0,1-2.31-.35,3.38,3.38,0,0,1,2.09-1.2,3,3,0,0,1,2.3.35Zm-.09-8.15a3.05,3.05,0,0,1-1.61-1.52,3.73,3.73,0,0,1-.51-2.27,3.3,3.3,0,0,1,1.58,1.54,3.78,3.78,0,0,1,.54,2.25Zm.47,0a4.25,4.25,0,0,0-.88,2.43,3.58,3.58,0,0,0,1.95-1.42,4.07,4.07,0,0,0,.89-2.4,3.34,3.34,0,0,0-2,1.39Zm-1.83,0a3.91,3.91,0,0,0-1.08,2.3A4.41,4.41,0,0,0,57.57,34a3.86,3.86,0,0,0,1.07-2.34,4.32,4.32,0,0,0-.31-2.55Zm.28,4.35a3.7,3.7,0,0,1,1.58-1.92A3.26,3.26,0,0,1,62.47,31a3.58,3.58,0,0,1-1.58,1.93,3.36,3.36,0,0,1-2.28.56Zm3.48-9.6a4.16,4.16,0,0,1-.41,2.56A3.84,3.84,0,0,1,60,28.25a4.1,4.1,0,0,1,.41-2.56,3.71,3.71,0,0,1,1.68-1.83Zm-1.77-2.43a3.94,3.94,0,0,0-1.08,2.31,4.18,4.18,0,0,0,.32,2.59A4.23,4.23,0,0,0,60.63,24a4.19,4.19,0,0,0-.31-2.59Zm-1.8-3a3.81,3.81,0,0,1,.82,2.46,4,4,0,0,1-.54,2.5A4.17,4.17,0,0,1,58,21a4.52,4.52,0,0,1,.57-2.56Zm.34,6.73a3.46,3.46,0,0,0-1.16-2,3.06,3.06,0,0,0-2-.86,3.42,3.42,0,0,0,1.17,2,3,3,0,0,0,2,.86ZM55,18.21a3.64,3.64,0,0,1,1.86,1.61,4.19,4.19,0,0,1,.67,2.49,3.4,3.4,0,0,1-1.84-1.61A4.17,4.17,0,0,1,55,18.21Zm.41,16.93A4.37,4.37,0,0,0,55,37.7a3.57,3.57,0,0,0,1.64-1.83A4.13,4.13,0,0,0,57,33.31a3.61,3.61,0,0,0-1.64,1.83Zm-.09,3.69a3.54,3.54,0,0,1,2.14,1.05,3.17,3.17,0,0,1-2.33.5A3.25,3.25,0,0,1,53,39.31a3.13,3.13,0,0,1,2.31-.48ZM52.17,37.6a3.63,3.63,0,0,0-1.45,2A3,3,0,0,0,53,38.9a3.66,3.66,0,0,0,1.45-2,3.27,3.27,0,0,0-2.24.73Zm-3.32,2.5h0a3.19,3.19,0,0,0-2-.07,3.29,3.29,0,0,0-2,1.3,3.11,3.11,0,0,0,2.33.22,3.48,3.48,0,0,0,2-1.26,3.07,3.07,0,0,0,.32.31A9,9,0,0,0,46.74,43c.28.48.44.7.75,1.17a12,12,0,0,1,2.15-3.32,12.77,12.77,0,0,1,2,3.32c.32-.47.44-.73.76-1.2a9.51,9.51,0,0,0-2.56-2.37c.13-.09.22-.19.35-.28a3.56,3.56,0,0,0,2,1.23,3.12,3.12,0,0,0,2.34-.22,3.44,3.44,0,0,0-2-1.3,3.12,3.12,0,0,0-2,.07,4.72,4.72,0,0,0-.82.37c-.25-.12-.5-.21-.76-.34a0,0,0,0,0,0,0Zm-1.8-2.5a4,4,0,0,1,1.45,2,2.94,2.94,0,0,1-2.24-.72,3.58,3.58,0,0,1-1.48-2,3.39,3.39,0,0,1,2.27.73Zm-.82,1.71a3.4,3.4,0,0,1-2.15,1.07,3.05,3.05,0,0,1-2.3-.5,3.45,3.45,0,0,1,2.14-1.05,3.2,3.2,0,0,1,2.31.48Zm-2-1.61a4.32,4.32,0,0,0-.38-2.56,3.75,3.75,0,0,0-1.64-1.83,4,4,0,0,0,.38,2.56,3.7,3.7,0,0,0,1.64,1.83ZM42.38,19.82a3.71,3.71,0,0,1,1.83-1.61,3.92,3.92,0,0,1-.7,2.49,3.25,3.25,0,0,1-1.83,1.61,4.24,4.24,0,0,1,.7-2.49Zm-.86,3.35a3.46,3.46,0,0,0-1.16,2,2.91,2.91,0,0,0,1.92-.86,3.42,3.42,0,0,0,1.17-2,2.93,2.93,0,0,0-1.93.86Zm-2,6A3.73,3.73,0,0,1,40,26.89a3.3,3.3,0,0,1,1.58-1.54,3.53,3.53,0,0,1-.51,2.27,3,3,0,0,1-1.58,1.52Zm.41,2.43A4.3,4.3,0,0,0,39,29.14a3.25,3.25,0,0,0-2-1.39,4,4,0,0,0,.88,2.4,3.69,3.69,0,0,0,2,1.42Zm1-2.46a4,4,0,0,1,1,2.3A4.12,4.12,0,0,1,41.62,34a3.86,3.86,0,0,1-1.07-2.34,4.3,4.3,0,0,1,.34-2.55Zm-1-8.25a4,4,0,0,1,.82-2.46A4.29,4.29,0,0,1,41.24,21a4.17,4.17,0,0,1-.82,2.4,4.16,4.16,0,0,1-.57-2.5Zm-1,.57A4.19,4.19,0,0,0,38.59,24a3.91,3.91,0,0,0,1.07,2.31A4.41,4.41,0,0,0,40,23.74a4.13,4.13,0,0,0-1.08-2.31Zm-1.8,2.43a3.75,3.75,0,0,1,1.68,1.83,4.14,4.14,0,0,1,.44,2.56,3.71,3.71,0,0,1-1.68-1.83,4.13,4.13,0,0,1-.44-2.56ZM36.72,31a3.35,3.35,0,0,1,2.31.57,3.7,3.7,0,0,1,1.58,1.92,3.39,3.39,0,0,1-2.31-.56A3.82,3.82,0,0,1,36.72,31Zm1.61,3a3,3,0,0,1,2.28.57,3.54,3.54,0,0,1,1.58,1.89,3.05,3.05,0,0,1-2.28-.56A3.73,3.73,0,0,1,38.33,34Z"/><path class="cls-1" d="M67.14,43.19l13-27.51a1.68,1.68,0,0,1,1.33-2.34,1.74,1.74,0,0,1,1.48,2.31L96,43c2.21,1.08,3.19,2.43,3.06,3.35a2.3,2.3,0,0,1-1.61,1.9c.06,5-.16,22.55-.1,32.59,1.11.25,1.11,1.42,1,5.21s.26,4.87-2.14,4.87c-.32,0-1,0-1,0V89.66c0-.64,0-.83-.38-1-1-.41-2.08-.76-3.25-1.24-.82-.28-25.52-9.12-25.52-9.12a1.57,1.57,0,0,1-1.14-1.42c0-.1,0-1.05,0-1.36V72c0-.92.6-1.23,1.13-1.17,0,0,0-.09,0-.16C66,67.45,66,50.42,66,48.63a2.26,2.26,0,0,1-1.45-1.14C64,46.32,64.58,44.55,67.14,43.19Z"/><path class="cls-2" d="M71.75,74.05c-1.1-.41-1.67-.6-2.81-1-.09,0-.19,0-.19.13v4.64c0,.13.1.25.19.25,1.14.41,1.71.6,2.81,1,.13,0,.19,0,.19-.16V74.3a.3.3,0,0,0-.19-.25Zm9.38,3.28c-1.13-.35-1.67-.57-2.81-1a.14.14,0,0,0-.19.13v4.58a.32.32,0,0,0,.19.25c1.11.41,1.68.6,2.81,1a.12.12,0,0,0,.19-.1V77.58a.29.29,0,0,0-.19-.25Zm7.62-25.81a16.44,16.44,0,0,1,2.88.16c1.1.16,2.71.51,3.44.66V51.08a35.27,35.27,0,0,0-6.85-1.49c-1.14-.15-2.47-.28-3.76-.37l-.25,5c.66,0,1.1,0,1.1,0,.85.06,1.71.09,2.56.19a58.8,58.8,0,0,1,7.23,1.2V53.83c-1.86-1.55-6.16-1.68-6.41-1.68s-.5-.06-.5-.31.31-.29.56-.32ZM68.57,46.38a42.4,42.4,0,0,1,12.89-1.71c7.93,0,12.67,1.74,13.24,2s1.2.47,1.48,0a1.11,1.11,0,0,0-.51-1.36c-1.73-1.1-7.83-2.49-14.21-2.4a54.32,54.32,0,0,0-13.71,1.83c-.91.35-1.29.89-1,1.39.48.86,1.26.41,1.83.26ZM95.13,81.63c-1.1-.35-1.67-.51-2.78-.82a.14.14,0,0,0-.19.15c0,2.09,0,3.13,0,5a.37.37,0,0,0,.19.28c1.14.38,1.71.57,2.81,1a.14.14,0,0,0,.19-.13V81.91a.31.31,0,0,0-.19-.28Zm-15.3-26c1.45,0,3.28,0,3.28,0l.35-6.42c-1.52-.09-4,0-4,0l.38,6.38ZM95.32,77.06v3.31c-5.49-1.51-12.79-3.79-18.57-5.9-5.53-1.93-8-2.94-8.09-4.55,0-1-.15-5.12-.06-6.16l-.09-15.38c0-.45.72-.7,1.42-.89a52.71,52.71,0,0,1,11.53-1c6.79,0,11.56.82,12.79,1.29a6.4,6.4,0,0,1,.79.38v1.36c-1.17-.16-5.56-.79-7.42-.88-.89-.07-2-.13-3.1-.16a.7.7,0,0,0-.12-.32.56.56,0,0,0-.35-.16c-2.4-.09-3.26-.09-5.72,0a.54.54,0,0,0-.35.16,1,1,0,0,0-.12.38l.31,5.88h-.25c-1.2.12-6,.79-6.32.85s-.53.25-.47.41.38.16.73.13c2.4-.26,4.54-.41,6.38-.48l.06.92a.46.46,0,0,0,.47.47h0a42,42,0,0,1,4.76,0,.47.47,0,0,0,.51-.47l.06-.92c.76,0,1.17.07,1.17.07,3.44.31,7.9,1,9.82,2.11l0,1.39A51,51,0,0,0,90.08,58a10.44,10.44,0,0,0-2.18,0c-.22,0-.41.15-.38.31s.22.29.51.32,4.55.19,7.14,2l0,1.39a81.6,81.6,0,0,0-9.92-1.43,80.73,80.73,0,0,0-10.61.38c-.45.1-.67.22-.63.45s.12.34.72.31a86.71,86.71,0,0,1,12.95.29,26.87,26.87,0,0,1,7.49,1.83l0,1.77c-1.39-.29-4.45-.89-6-1a52,52,0,0,0-5.59-.23c-.35,0-.48.16-.48.35s.26.22.48.25a42,42,0,0,1,5.43.48A21,21,0,0,1,95.23,67l0,1.8c-.92-.13-2.75-.32-3.51-.35a13.08,13.08,0,0,0-2.24.07c-.22.06-.31.19-.28.34a.32.32,0,0,0,.35.22,28.45,28.45,0,0,1,2.93.29,12.36,12.36,0,0,1,2.78.85v2.34a25.48,25.48,0,0,0-4-.76,30.31,30.31,0,0,0-4.8,0c-.12,0-.5.07-.5.41s.41.29.6.29c1,0,1.86,0,3.63.16a20.73,20.73,0,0,1,5,1.16V76c0,.07-1.1-.28-2.84-.53a16.51,16.51,0,0,0-2.43-.19c-.32,0-.63.09-.63.37s.69.42,1,.48,1,.06,2.37.28a18.18,18.18,0,0,1,2.55.64Zm-4.84,3.19c-1.11-.32-1.68-.51-2.78-.86-.13,0-.23,0-.23.16v4.8a.36.36,0,0,0,.19.28l2.82,1c.09.07.18,0,.18-.12V80.53a.31.31,0,0,0-.18-.28Zm-4.67-1.43c-1.14-.35-1.67-.51-2.81-.88a.14.14,0,0,0-.19.12v4.68A.31.31,0,0,0,83,83c1.1.38,1.67.6,2.81,1,.09,0,.19,0,.19-.13V79.07a.32.32,0,0,0-.19-.25Zm-9.36-3.09c-1.14-.38-1.68-.57-2.82-1a.14.14,0,0,0-.19.13v4.58a.32.32,0,0,0,.19.25c1.11.38,1.68.6,2.82,1a.13.13,0,0,0,.18-.13V76c0-.09-.09-.18-.18-.25Zm16-33.84c-.09-.16-.15-.35-.28-.6A29.68,29.68,0,0,0,86.33,40c-.38,0-1-.06-1-.34s.22-.35.85-.35a39.09,39.09,0,0,1,5.34.66l-1.11-2.4a31.65,31.65,0,0,0-6.95-1.14c-.79-.09-1-.19-1-.44s.53-.22,1.76-.25c1.42,0,4.55.22,5.44.31-.29-.63-.6-1.29-.92-2a9.39,9.39,0,0,0-4.11-1c-.6,0-.82-.25-.79-.44s.35-.28.6-.32,2.85,0,3.07-.06.31-.09.19-.32c-.26-.56-.41-.91-.7-1.48A5.17,5.17,0,0,0,85.69,30c-.38-.06-1.61-.13-2.24-.19-.35-.09-.41-.16-.41-.28s.09-.26.41-.29c.79-.06,2.24,0,2.56,0s.47-.09.38-.28c-.16-.38-.32-.7-.48-1.05a7.46,7.46,0,0,0-1.32-.34,17.67,17.67,0,0,0-2.53-.26c-.22,0-.41-.12-.41-.25s.09-.25.35-.28c.6-.1,1.86-.1,2.37-.13s.91-.09.75-.44c-.28-.57-.44-1-.72-1.52a14.29,14.29,0,0,1-1.52-.09c-.19,0-.44-.07-.44-.22s.22-.26.44-.35.7-.22,1.08-.32c-.19-.34-.32-.66-.48-1-.54,0-1.51-.09-2.27-.09-.32,0-.48-.16-.48-.29s.07-.22.41-.28a10.92,10.92,0,0,1,1.9-.25l-1.42-3.07c-3.48,7.42-9.86,21.1-10.9,23.28a55.1,55.1,0,0,1,10.74-1.17A65.47,65.47,0,0,1,92.48,41.89Z"/><path class="cls-1" d="M64,103.87c0-4,2.56-6.82,6.25-6.82,3.23,0,5.21,1.89,5.21,5,0,.25,0,1.39-.47,1.39H71.66c-1.36,0-3.26,0-4.11.06.06,3.09,1.71,4.86,4.49,4.86a4.32,4.32,0,0,0,2.68-.85c.22-.16.47,0,.35.38-.25.92-.32,1.14-.54,1.9a12.94,12.94,0,0,1-4,.78c-4,0-6.54-2.71-6.54-6.69Zm16.93,6.22c-.41,0-1.26,0-2,0s-1.65,0-2.15,0a26.2,26.2,0,0,0,.31-4.64v-3.16a19.33,19.33,0,0,0-.53-4.9c1,0,2.52,0,3.57-.09l0,3,.94-1.23c1.17-1.58,2-2.06,3.22-2.06a2.21,2.21,0,0,1,1.14.26c-.38,1.32-.76,2.71-1,3.53-.06.16-.22.42-.44.13-.51-.54-.6-.76-1.2-.76a2.07,2.07,0,0,0-1.8,1.14,3.78,3.78,0,0,0-.51,2.34v2.11a12,12,0,0,0,.51,4.33Zm-28.59-2.68c-.19.63-.72,2.62-.79,2.81-2.9-.13-4.83-.13-6.53-.13H40.26a34.4,34.4,0,0,0,.35-4.9V97.08a18.12,18.12,0,0,0-.51-5c.86.06,1.49.06,2.12.06h4.86c1.74,0,2.43-.06,4.33-.06-.35,1.23-.69,2.52-.85,3s-.41.13-.45.06c-.78-1.17-2.36-1.29-3.82-1.29-.47,0-1,0-1.67,0,0,.44-.1,1.67-.1,2.81v2.62h2.15a30,30,0,0,0,3.79-.22c.26,0,.19.19.19.19-.19.73-.44,1.64-.6,2.24a34.22,34.22,0,0,0-3.72-.19H44.49V105c0,2.37.26,3.16,3.1,3.16a5.58,5.58,0,0,0,4.2-1.3c.28-.25.66-.13.5.51Zm7.77,0,2.47-5.72a19.18,19.18,0,0,1,2.27-4.26c.13-.13.19-.35-.19-.32a14.55,14.55,0,0,1-1.73.13c-.57,0-1.24,0-1.61,0,0,.44,0,.78,0,1.13a11.7,11.7,0,0,1-.7,2.78L59.09,105a13.68,13.68,0,0,0-.57,1.61s-.51-1.74-.76-2.53l-.95-3.28a18.56,18.56,0,0,1-.76-3.7,38,38,0,0,1-4.67.13,13.42,13.42,0,0,1,2.27,4.61l1.71,5.21a18.24,18.24,0,0,1,.79,3l1.64,0c.6,0,1.2,0,1.49,0a14.11,14.11,0,0,1,.78-2.65Zm42.08,3.06c-4.08,0-6.48-2.37-6.48-6.47s2.46-7,7.08-7c4.1,0,6.44,2.34,6.44,6.35,0,4.39-2.75,7.14-7,7.14Zm.19-12c-2.15,0-3,2-3,5,0,3.63,1.08,5.56,3.07,5.56s3.06-1.71,3.06-5c0-3.6-1.14-5.55-3.16-5.55Zm-7-1c-.1.38-.38,1.45-.54,1.89-1-.09-1.61-.12-2.31-.12H91.37c0,.88-.07,1.92-.07,2.68v3c0,2,.22,3.47,2,3.47a3.47,3.47,0,0,0,1.68-.47c.12-.06.37-.06.28.32-.16.57-.32,1.1-.47,1.77a11,11,0,0,1-3.07.5c-2.27,0-3.72-1-3.72-4.17v-4c0-1.26,0-2.21,0-3.09a12.13,12.13,0,0,0-1.8.15c-.06,0-.25,0-.16-.28,0-.1.35-1.3.48-1.71.31,0,1,.07,1.58.07,0-1-.06-1.58-.1-2.37a20.59,20.59,0,0,0,3.32-1.49c.28-.19.41.07.38.35a23.5,23.5,0,0,0-.25,3.51H93.2a9.18,9.18,0,0,0,2-.19c.12,0,.25,0,.19.22ZM121,110.06c-.85,0-1.7,0-2.18,0a28.17,28.17,0,0,0,.35-5v-2.31c0-1.51-.13-3.31-2.31-3.31a3.09,3.09,0,0,0-2.11.88c-.67.67-.86,1.23-.86,2.88v1.86a15.68,15.68,0,0,0,.54,5c-.41,0-1.26,0-2.08,0s-1.71,0-2.15,0a32.91,32.91,0,0,0,.32-5v-3.22a17,17,0,0,0-.57-4.61c1.17,0,2.78,0,3.91-.1l-.09,2.28,1.07-.92A5.46,5.46,0,0,1,118.47,97c3,0,4.07,1.74,4.07,4.71v3.41a15.68,15.68,0,0,0,.54,5c-.44,0-1.3,0-2.12,0Zm-48.9-9.43a2,2,0,0,0-2-2.08c-1.65,0-2.34,1.23-2.47,3.34l3-.09C71.62,101.8,72.06,101.45,72.06,100.63Z"/><path class="cls-1" d="M9.5,97.85l-.16-.25-5.72,2.56a.67.67,0,0,1-.85-.32,6.89,6.89,0,0,1-.85-1.61A5.36,5.36,0,0,1,1.6,95a3.13,3.13,0,0,1,1.83-2l14-6.41s.06,0,.09,0a3,3,0,0,1,1.27-.29,3.9,3.9,0,0,1,1.23.25c0,.42,0,.76.06,1.14a2.71,2.71,0,0,0-1.32-.41,2,2,0,0,0-.83.19l-.09,0a2.73,2.73,0,0,0-1.26,2,6.45,6.45,0,0,0,.57,3.67l.09.25a.65.65,0,0,1-.35.82l-6.66,2.94.22.32a10,10,0,0,1,1.45,3l-.95.38A9.21,9.21,0,0,0,9.5,97.85Z"/><path class="cls-1" d="M161.9,106.76a86.47,86.47,0,0,1-75,54.29.32.32,0,0,0-.22.1l-5.08,5-5.09-5a.29.29,0,0,0-.22-.1,86.47,86.47,0,0,1-75-54.29l-.51-1.23L20,98.14a1,1,0,0,1,1.32.41l0,0a4.28,4.28,0,0,0,.75.91c.16.51.32,1,.51,1.49a4.74,4.74,0,0,1-2-1.74l-.07-.13a.23.23,0,0,0-.15-.06h-.07L19,99.59l-.61.25.1.25c.06.13.09.26.13.32.57,1.42,1.2,2.78,1.83,4.14a5.71,5.71,0,0,1,.31.6l.6-.22,2.53-.92c.16.32.32.6.44.89l-2.49.91-.63.22a5.33,5.33,0,0,0,.31.57,68.79,68.79,0,0,0,21.35,24.16,67.75,67.75,0,0,0,34.53,12l1.07,1.05a67.94,67.94,0,0,1-36.16-12.23,69.09,69.09,0,0,1-24.74-31.08l-.12-.28L2.08,106.1l.12.28a85.35,85.35,0,0,0,74.64,53.69l4.52,4.49.22.22,4.74-4.71A85.4,85.4,0,0,0,161,106.38l.1-.28-15.35-5.91-.1.28a69.27,69.27,0,0,1-24.76,31.08A68.06,68.06,0,0,1,84.7,143.78l1.08-1.05a67.72,67.72,0,0,0,34.52-12,68.4,68.4,0,0,0,21.35-24.16A5.45,5.45,0,0,0,142,106l-.63-.22-2.5-.91c.13-.29.29-.57.41-.89l2.56.92.6.22.32-.6c.63-1.36,1.26-2.72,1.83-4.14a2.28,2.28,0,0,0,.13-.32l.12-.25-.63-.25-1.36-.54h-.09a.22.22,0,0,0-.13.06l-.06.13a5,5,0,0,1-2,1.77c.15-.51.34-1,.5-1.52a5,5,0,0,0,.76-.91l0,0a1,1,0,0,1,1.33-.41l19.26,7.39Z"/><path class="cls-1" d="M76.68,142A66.89,66.89,0,0,1,43.23,130.2,68.26,68.26,0,0,1,22.1,106.38l2.53-.88c.06.15.16.28.22.44.57,1,1.17,2,1.83,3,.07.09.16.22.29.38l0,.09C38.27,126.25,54.82,136.76,73.68,139Z"/><path class="cls-1" d="M138.53,105.5l2.52.88A67.38,67.38,0,0,1,86.47,142l3-3c18.86-2.25,35.41-12.76,46.66-29.63l.06-.09c.09-.16.19-.29.28-.42a28.68,28.68,0,0,0,1.8-2.93A4.2,4.2,0,0,0,138.53,105.5Z"/><path class="cls-1" d="M112.6,142.75l-.51.25,1,2.25a3,3,0,0,0,.6-.26,1.14,1.14,0,0,0,.66-1.67,1.17,1.17,0,0,0-1.8-.57Zm-7.37,2.86c-.94.32-1.32,1.39-.76,3s1.43,2.28,2.47,1.93,1.36-1.3.76-3-1.43-2.28-2.47-1.93Zm-65-7.08L38.38,140l1.61,1,.63-2.27c.07-.29.13-.51.19-.7a5.81,5.81,0,0,0-.56.45ZM32.94,136l-.76-1.55a2.2,2.2,0,0,1,.19-2.5c.94-1.17,2.62-.88,3.69,0a6.37,6.37,0,0,1,1.49,1.8c.09.19.09.29,0,.35s-.1.09-.16.13l-.85.47a.31.31,0,0,1-.32,0s-.06-.1-.12-.16a3.54,3.54,0,0,0-1-1.26c-.35-.32-.89-.51-1.23-.1s0,.76.12,1.08l.67,1.29a2.2,2.2,0,0,1-.16,2.56,2.71,2.71,0,0,1-3.95.22A8.11,8.11,0,0,1,29,136.48c-.13-.19-.13-.28,0-.35a.3.3,0,0,1,.15-.12l.83-.54c.12-.06.22-.13.34,0s.07.09.1.16a5.91,5.91,0,0,0,1.2,1.42,1,1,0,0,0,1.39.06,1,1,0,0,0,0-1.07ZM19.2,125a.32.32,0,0,1-.1.42l-.47.37a.32.32,0,0,1-.38,0l-1.8-2.37a.26.26,0,0,1,0-.37l.5-.38a.26.26,0,0,1,.41,0l.35.44,4.52-3.48-.38-.47a.27.27,0,0,1,.06-.41l.51-.35a.24.24,0,0,1,.35,0l1.89,2.47a.26.26,0,0,1,0,.38l-.51.35a.24.24,0,0,1-.4,0l-.42-.47-4.51,3.41.38.47Zm34,24.74a.3.3,0,0,1,.16.37l-.25.57a.23.23,0,0,1-.35.13L50,149.75a.36.36,0,0,1-.19-.35l.26-.6c.06-.19.19-.22.38-.16l.47.19,2.15-5.24-.57-.22a.28.28,0,0,1-.16-.38l.25-.57a.23.23,0,0,1,.32-.16l2.91,1.17a.28.28,0,0,1,.18.35l-.25.56a.26.26,0,0,1-.38.16l-.6-.22-2.11,5.24.53.23Zm-13.93-7.49-1.7-1.11-.35-.22-1.14.92a.37.37,0,0,1-.47,0l-1.1-.73c-.1-.06-.1-.15-.07-.25l.1-.09L41,136.1a.45.45,0,0,1,.47,0l1,.66a.37.37,0,0,1,.22.44L41,144.85c0,.09,0,.13-.06.16s-.19.19-.35.09l-1.07-.72a.42.42,0,0,1-.23-.51l.35-1.36-.35-.25Zm5.28-2.43,1.89,1-2.9,5.53c-.13.22-.13.25.09.34l1.17.63c.22.1.25.07.38-.15l2.91-5.5,1.83.92c.19.12.35.15.5,0l.51-.79v0c.09-.12.06-.25-.13-.34l-.53-.29-5-2.59a.26.26,0,0,0-.41.1l-.41.79a.3.3,0,0,0,.13.44ZM116,142.45c.79,1.67-.1,3.09-1.71,3.82a3.46,3.46,0,0,1-.6.25l1,2.15c.1.19.07.32-.19.44l-1,.48a.29.29,0,0,1-.44-.16l-3.13-6.63c-.12-.26-.06-.35.16-.48l1.67-.75a3.77,3.77,0,0,1,3-.42,2.65,2.65,0,0,1,1.3,1.3ZM96.11,153.57l.57-.1a.32.32,0,0,1,.34.26l.1.6a.26.26,0,0,1-.22.31l-2.94.51c-.16,0-.32-.07-.32-.19l-.12-.63a.27.27,0,0,1,.22-.35l.53-.1-.94-5.56-.63.1a.27.27,0,0,1-.32-.25l-.13-.6a.28.28,0,0,1,.22-.29l3.1-.53a.28.28,0,0,1,.32.19l.09.63a.27.27,0,0,1-.22.34l-.63.1,1,5.56ZM145,112a.53.53,0,0,1,0-.57l.44-.69c.1-.19.22-.22.41-.09l6.51,3.56c.22.13.25.29.13.45l-.63,1c-.13.26-.32.26-.57.1l-3.48-2h0l2.65,3.7a.33.33,0,0,1,0,.47l-.22.35a.4.4,0,0,1-.47.25l-4.61-.51,0,0,3.44,2.21c.28.15.25.31.09.5l-.5.82c-.13.23-.29.29-.51.13l-6.06-4.11c-.22-.18-.22-.31-.13-.5l.44-.7a.46.46,0,0,1,.54-.25l5.81.6,0,0L145,112ZM76.18,148.32l-.92,7.24c0,.28-.19.34-.38.31l-1-.12a.56.56,0,0,1-.47-.32l-2.88-5h0L70,154.93c0,.25-.15.31-.37.28l-1.08-.13c-.25,0-.38-.09-.31-.37l.88-7.27c0-.28.19-.35.44-.28l.95.09a.48.48,0,0,1,.44.32l2.88,5h0l.57-4.49c0-.25.15-.31.38-.28l1.13.12c.29,0,.29.23.29.41Zm28.58-4.2c2.34-.75,4.08.54,4.8,2.75.85,2.47-.09,4.49-2.18,5.18s-4-.41-4.77-2.78,0-4.42,2.15-5.15Zm18.83-.09-3.23-5.34,1.77-1c.22-.13.32-.25.22-.44l-.41-.86v0c-.09-.12-.19-.15-.38-.06l-.5.32-4.86,2.87c-.19.09-.26.22-.13.41l.44.73c.1.22.25.25.44.12l1.84-1.07L122,145c.15.19.19.22.38.09l1.13-.66c.19-.13.22-.16.07-.41ZM82,154.93a.26.26,0,0,1,.28.28v.63a.24.24,0,0,1-.25.25l-3,0a.26.26,0,0,1-.29-.25v-.63c0-.22.13-.28.29-.28h.57l.06-5.66-.6,0a.27.27,0,0,1-.29-.28v-.61A.26.26,0,0,1,79,148l3.12.06a.27.27,0,0,1,.29.26V149a.26.26,0,0,1-.29.28h-.63l-.09,5.66Zm47.56-16,.48-.31a.26.26,0,0,1,.41.06l.35.51a.22.22,0,0,1,0,.34l-2.4,1.77a.31.31,0,0,1-.41,0l-.34-.51a.25.25,0,0,1,0-.4l.44-.32-3.38-4.55-.51.38a.3.3,0,0,1-.41-.09l-.34-.48a.25.25,0,0,1,0-.38L126,133.1a.26.26,0,0,1,.37,0l.38.51a.27.27,0,0,1-.06.41l-.51.35,3.38,4.54ZM24.94,131l-2-2.15,4.55-4.16c.19-.16.16-.29,0-.48l-.79-.85a.31.31,0,0,0-.47,0l-5.43,5c-.22.19-.19.31,0,.5l3,3.22a.33.33,0,0,0,.5,0l.63-.6c.16-.16.19-.32,0-.48Zm108-3.5,1.86,5.4,0,0-5.43-2.12a.45.45,0,0,0-.57.1l-.63.57c-.16.15-.19.28,0,.5l4.73,5.56,0,0c.15.19.31.16.5,0l.7-.63c.19-.19.28-.28.06-.54l-2.75-3,0,0,4.33,1.7c.25.1.35,0,.54-.12l.31-.29a.35.35,0,0,0,.1-.44l-1.55-4.26,2.81,2.81c.22.25.38.31.6.09l.85-.79a.28.28,0,0,0,0-.44s0,0,0,0l-5.33-5.15a.29.29,0,0,0-.45,0l-.56.54a.51.51,0,0,0-.16.57Zm9.09-4.11c1.39,1.14,1.39,2,.73,2.75s-1.48,1-2.9-.19l-3.1-2.53c-.19-.16-.29-.12-.44.07l-.73.85c-.13.16-.19.35,0,.5l3.19,2.63c1.9,1.54,3.6,1.54,5.12-.29,1.45-1.67,1.39-3.44-.6-5.12l-3.19-2.62c-.19-.16-.32-.09-.48.07l-.72.88a.31.31,0,0,0,0,.47l3.12,2.53ZM86.69,150c.07.38.54.54.83.66l1.39.51a2.15,2.15,0,0,1,1.67,2A2.69,2.69,0,0,1,87.86,156a8.33,8.33,0,0,1-2.46-.22c-.19,0-.25-.13-.25-.22a.4.4,0,0,1,0-.19l.25-1a.21.21,0,0,1,.22-.22.49.49,0,0,1,.19,0,5.34,5.34,0,0,0,1.83.22c.51,0,1.08-.35,1-.92s-.41-.59-.79-.75l-1.58-.6a2.22,2.22,0,0,1-1.61-2c-.13-1.45,1.29-2.43,2.65-2.53a5.7,5.7,0,0,1,2.34.29c.19.06.25.12.28.25a1,1,0,0,0,0,.19l-.32.91c0,.16-.09.19-.19.22s-.12,0-.22,0a4.36,4.36,0,0,0-1.61-.25c-.47,0-1,.25-1,.79Zm-26.94-2.31c-.22-.19-.6-.53-.5-.88.16-.54.72-.57,1.16-.41a4.35,4.35,0,0,1,1.4.79l.18.12c.13,0,.19,0,.29-.15l.6-.76a.16.16,0,0,0,.09-.13c0-.09,0-.19-.15-.34a5.29,5.29,0,0,0-2.06-1.08c-1.29-.41-3,0-3.41,1.39a2.28,2.28,0,0,0,.76,2.4l1.3,1.14a.91.91,0,0,1,.44,1c-.16.54-.82.6-1.3.47a6.74,6.74,0,0,1-1.64-.85c-.06-.1-.13-.1-.16-.13a.25.25,0,0,0-.31.16l-.57.79c0,.06-.1.13-.1.19s0,.19.16.28a7.91,7.91,0,0,0,2.21,1.11,2.7,2.7,0,0,0,3.57-1.67,2.2,2.2,0,0,0-.82-2.47l-1.14-.95Zm-44-34.08v0L13.67,119a.52.52,0,0,0,.06.54l.51.85c.12.19.22.26.47.1L21,116.68c.15-.1.28-.19.12-.45l-.6-1a.3.3,0,0,0-.47-.12l-3.89,2.37,2.15-5.37a.55.55,0,0,0,0-.54l-.51-.82c-.15-.19-.25-.28-.53-.13L11,114.47c-.22.15-.22.28-.06.5l.57.92a.3.3,0,0,0,.47.12l3.85-2.37Zm74.45,14.3a2.64,2.64,0,0,1-2.94-2.56c0-1.3.79-2,2.12-2.78a2.81,2.81,0,0,1-1.65-2.4,2.68,2.68,0,0,1,2.82-2.56A2.43,2.43,0,0,1,93.23,120a2.69,2.69,0,0,1-1.77,2.36c1.11.64,2.09,1.39,2.09,2.75,0,1.68-1.39,2.88-3.32,2.88Zm-17.72-.44a3.81,3.81,0,0,0-.79-.07,6.48,6.48,0,0,0-.82.07h-.13l0-.1a15,15,0,0,0,.16-2.46v-4.49c0-1.26-.09-1.39-.5-1.39-.1,0-.29,0-.51.06l-.69.16a1.88,1.88,0,0,0-.51.19h0l-.19-.16,0-.06a3.29,3.29,0,0,0,.28-.79l0-.06h0a6.75,6.75,0,0,0,1-.16l1.49-.32a5.56,5.56,0,0,0,.85-.22h0l.19.16,0,0a16.83,16.83,0,0,0-.16,2.34v4.86a8.6,8.6,0,0,0,.25,2.28l0,.13Zm4.3.25a2.66,2.66,0,0,1-2.94-2.56c0-1.3.82-2,2.11-2.81A2.76,2.76,0,0,1,74.34,120a2.66,2.66,0,0,1,2.84-2.56,2.41,2.41,0,0,1,2.63,2.31A2.71,2.71,0,0,1,78,122.12c1.1.61,2.08,1.36,2.08,2.72a3,3,0,0,1-3.31,2.91Zm0-4.88a2.55,2.55,0,0,0-1.74,2.25,1.75,1.75,0,0,0,1.84,1.77,1.82,1.82,0,0,0,1.89-1.77c0-1-.66-1.52-2-2.25Zm.42-1.21c.69-.41,1.42-.92,1.42-1.89a1.52,1.52,0,0,0-3,0c0,.92.72,1.42,1.61,1.93Zm5.83,5.93c.09-1.3.57-2.56,1.83-4.86a26.72,26.72,0,0,1,2.43-3.83l0,0,0,0c0-.13-.12-.76-.12-.88v-.1l-.1,0H81.32V118a14.71,14.71,0,0,1-.34,1.48l0,.06.22.13.07,0a2.55,2.55,0,0,1,1.58-.44h3.06L81,127.46l.12.26h0c.67-.07,1.8-.07,1.8-.07H83l0-.06Zm7.17-4.52a2.55,2.55,0,0,0-1.74,2.24,1.75,1.75,0,0,0,1.83,1.77,1.8,1.8,0,0,0,1.9-1.77c0-1-.66-1.51-2-2.24Zm.41-1.21a2.25,2.25,0,0,0,1.42-1.9,1.47,1.47,0,0,0-1.51-1.51,1.45,1.45,0,0,0-1.49,1.48C89.06,120.85,89.76,121.35,90.64,121.86Z"/><path class="cls-2" d="M16.11,93.23a7.65,7.65,0,0,1-.47-3.89c0-.06,0-.16.06-.25l.13-.63L3.86,94a2.12,2.12,0,0,0-1.3,1.36c-.38,1.27.41,2.91.76,3.57l.16.25,12.76-5.62Z"/><path class="cls-1" d="M143.07,86.61a3.61,3.61,0,0,1,1.27-.29,3,3,0,0,1,1.26.29s.06,0,.1,0l14,6.41a3.08,3.08,0,0,1,1.83,2,5.14,5.14,0,0,1-.31,3.19,7.19,7.19,0,0,1-.86,1.61.65.65,0,0,1-.82.32l-5.75-2.56-.15.25a9.26,9.26,0,0,0-1.49,3.07l-.91-.38a9.15,9.15,0,0,1,1.42-3l.22-.32-6.67-2.94a.65.65,0,0,1-.34-.82l.09-.25a6.45,6.45,0,0,0,.57-3.67,2.64,2.64,0,0,0-1.26-2l-.07,0a2.18,2.18,0,0,0-.85-.19,2.53,2.53,0,0,0-1.33.44C143.07,87.33,143.07,87,143.07,86.61Z"/><path class="cls-2" d="M147.05,93.23a7.66,7.66,0,0,0,.48-3.89c0-.06,0-.16-.06-.25l-.16-.63,12,5.49a2.15,2.15,0,0,1,1.3,1.36c.37,1.27-.42,2.91-.76,3.57l-.16.25-12.76-5.62Z"/></g></g></svg>