<svg xmlns="http://www.w3.org/2000/svg" viewBox="0 0 152.14 151.85"><defs><style>.cls-1{fill:#121309;}.cls-1,.cls-2,.cls-3,.cls-4,.cls-5,.cls-6{fill-rule:evenodd;}.cls-2{fill:#babbbf;}.cls-3{fill:#fff;}.cls-4{fill:#0bb5eb;}.cls-5{fill:#f1b336;}.cls-6{fill:#e63024;}</style></defs><g id="Layer_2" data-name="Layer 2"><g id="Layer_1-2" data-name="Layer 1"><path class="cls-1" d="M38.71,112.38c6-1.78,8.31-4.28,8.89-8a16.41,16.41,0,0,0,1.47,4.84c2.53,5.25,7.58,8,12.35,10.91,5.16,3.1,9.78,6.17,13.78,10.61-10.52-.2-31.71-3.79-35.21-5.47l1.46-3.08c1.71-3.57-4.2-5.46-12.65-5.2-3.39-2.39-5.58-3-8.44-1.15a10.16,10.16,0,0,1-3.61-1.58l2.66-7.82c-5.24-4.33-12.86-6.42-14.59-1.72L.43,116.55c-2.81,7.6,8.93,12.73,15.28,15.11l-.67,2a4.73,4.73,0,0,0,2.35,5.79c12.74,7.22,37.91,12.43,58.68,12.43s46-5.21,58.69-12.43a4.74,4.74,0,0,0,2.34-5.79l-.67-2c6.35-2.38,18.1-7.51,15.28-15.11l-4.38-11.88c-1.74-4.7-9.36-2.61-14.59,1.72l2.66,7.82a10.29,10.29,0,0,1-3.62,1.58c-2.86-1.85-5-1.24-8.44,1.15-8.45-.26-14.36,1.63-12.65,5.2l1.46,3.08c-3.49,1.68-24.68,5.27-35.21,5.47,4-4.44,8.62-7.51,13.78-10.61,4.77-2.88,9.83-5.66,12.35-10.91a16.35,16.35,0,0,0,1.47-4.83c.59,3.76,2.84,6.26,8.89,8h0a4,4,0,0,0,.5.09,8,8,0,0,0,3-.24c3.33-.84,5.12-2.76,6.87-5.24l-.36-.36a2.27,2.27,0,0,0,.89-.75h0a3.18,3.18,0,0,0,.5-.95,4.37,4.37,0,0,0,.23-1,2.45,2.45,0,0,0,.69-1.26,3.34,3.34,0,0,0,0-1.34A3.07,3.07,0,0,0,126,101h0a4.63,4.63,0,0,0,.35-2h0a2.79,2.79,0,0,0-.06-.48,5.13,5.13,0,0,0-.1-.51l0,0h0l0-.11a2.94,2.94,0,0,0,.42-.92h0a2.8,2.8,0,0,0,0-.48,1.84,1.84,0,0,0,0-.33l1.9-1.28a14.65,14.65,0,0,1-2.28-3.18l1.46-2.57-1.85-1.37a12.78,12.78,0,0,1,5.47-.78c3.54.44,4.19,3.89,3.08,7.12a14,14,0,0,0-.77,5.93,32.71,32.71,0,0,0,4.35-3.63l.62,1c1.31-1.58,1.24-2.9,1.59-5L141,93a9.61,9.61,0,0,0-.88-5.19l.75-.26a8.49,8.49,0,0,0-4.26-4.88,13,13,0,0,0,2.08-3.26,8.4,8.4,0,0,0-2.76-.86c1.24-2.08,1.66-3,1.56-7.1l-.57.44a7.7,7.7,0,0,0-.6-4.06l-.42.71a12.43,12.43,0,0,0-2.29-4l-.11.83a14.39,14.39,0,0,0-3.18-3.44c.13,2.12,1.14,7,.38,11.23-.65,3.66-2.74,6.92-6.18,7.74V79l-1.89-1.87.85-2.55-2-2.52.87-3.41a27.63,27.63,0,0,1-3.69-3.39,4.68,4.68,0,0,0,1.44-1.8,8.22,8.22,0,0,1,3.09-3.73,13.26,13.26,0,0,0,3-2.68c1.35-1.81,1.09-2.36.8-3.27l2.11.44-.69-1.37-.83-2.17,2.31-.25-1.48-1.85c-.08-.06,1.73-.33,1.6-.45l-2.36-2,2.42.43-1.91-2.29,1.72-.26-3.44-1.92,1.24-2.39-1.67.75.84-1.24-1.53.16.57-1.78-1.12.48.74-1.68-1.22.54a7.17,7.17,0,0,0,.64-2l-1.8,1c-.17-.93,0-1.42-.18-3.21l-1.6,1.91-.67-2.19-1,1.22c-.53-1.66-1.2-1.51-2-2a4.85,4.85,0,0,1-1.11,3c-.67-1.26-1.26-2.4-3.26-2.57.39.84.62,2.51,1,3.37a4.11,4.11,0,0,0-3-1,10.21,10.21,0,0,1,1.93,3.3l-1,.67-.38.39-.52.83L107,44.26l-.25.6L105.2,46l-.27,2.55,1,1.19,1.44.27,1-.58-1.43,1.46-.52-.45-.52.23-.45,1,.35.83.9.06.69-.19.64-.48.53-.66.54-.76.53-.58.06.46.07.39.72.21,1.25-2.05,2-.6,1.33.85-.93,1.26-5.53,3.14-3.43,3.12-.22.32-1.59,3.5-2.26-4.91-.51-.78-2.7-1.2-2.58.88L95,54.6l-4.68,3.09a1.41,1.41,0,0,0-.24-.36L87.83,55a1.89,1.89,0,0,0-2.47,0l-.19.15a1.77,1.77,0,0,0-.69,1.11L83.28,55a1.35,1.35,0,0,0-.58-.36l-.46-2.2h-.33l-.5-2.33-.66-1-.62-8h.12a.71.71,0,0,0,.64-.75v-.27a.8.8,0,0,0-.16-.49,4.89,4.89,0,0,1,.37-.81c.16-.21.94,0,1.4-.4a1.6,1.6,0,0,0,.52-1c.17-.69.74-.34.74-.92V34.9H80.48c.17-1.83.72-3.24,1.78-3.78,1.7-.86,2.52,0,2.34.94-.14.73-1.08,1.43-1.38,1.91,2.48.89,4.27-.81,3.59-2.75a2.18,2.18,0,0,0,2.29.11c.68-.41,1.09-.87,1.27-2.77a4.24,4.24,0,0,1,1.3-2.72c-2.57-.79-3,1.41-4.19,2.56-.34.34-1,.3-1.53.27a2.47,2.47,0,0,0,.1-4.13c-.53,2.73-3.29,3.35-5.3,4.41l0-2.12c1.16-.73,1.83-1.29,2.93-2.11L82.15,24l1.59-.11-2.22-2.2,2.2-2.53-1.18.23.38-1L81.17,19l-.39-1.48-1.58.68-.67-2-.42,1.11-.42-.93L77,18.8l-1.42-.64-.3.4-.12,1.15-.58-.51-.46,2.32v.38l0,.12-.39.12-.45.27-1.14,1.05-.12,1.07-.45.4-.32-.86-3.64-3.71V13.93c5.93-3,12.64-.3,18.63.53,7.82,1.08,14.33-1.09,20.4-6.16C99.5,9.4,93.25,10,86.29,7.14c-6.12-2.49-11-4.59-17.21-3.63a3.08,3.08,0,0,0,.08-.68A2.83,2.83,0,1,0,65,5.32v13l-1.21.33,0,2.94L65,22.73v8l-1.33,2.57L65,32.68V54.87a1.91,1.91,0,0,0-2.38.08l-.19.15a1.49,1.49,0,0,0-.38,2.2l.82.86L62.27,58,57.14,54.6l-.27-.15-2.57-.88-2.71,1.2-.5.78-2.27,4.91L47.23,57,47,56.64l-3.43-3.12-5.53-3.14-.92-1.26,1.32-.85,2,.6,1.25,2.05.73-.21.06-.39.06-.46.53.58.54.76.53.66.64.48.69.19.9-.06.35-.83-.44-1-.53-.23-.52.45-1.43-1.46,1,.58,1.44-.27,1-1.19L47,46l-1.52-1.12-.25-.6-4.36-4.67-.52-.83-.38-.39-1-.67a10.21,10.21,0,0,1,1.93-3.3,4.12,4.12,0,0,0-3,1c.36-.86.6-2.53,1-3.37-2,.17-2.59,1.31-3.27,2.57a4.85,4.85,0,0,1-1.11-3c-.81.46-1.47.31-2,2l-1-1.22-.67,2.19-1.6-1.91c-.19,1.79,0,2.28-.18,3.21l-1.8-1a7.17,7.17,0,0,0,.64,2l-1.22-.54.74,1.68-1.12-.48.57,1.78-1.53-.16.84,1.24-1.67-.75,1.25,2.39L22.27,44l1.72.26-1.91,2.29,2.42-.43-2.36,2c-.12.12,1.68.39,1.6.45l-1.48,1.85,2.32.25-.84,2.17-.69,1.37,2.12-.44c-.3.91-.56,1.46.8,3.27a13,13,0,0,0,3,2.68,8.28,8.28,0,0,1,3.09,3.73,4.66,4.66,0,0,0,1.43,1.8,27.55,27.55,0,0,1-3.68,3.39l.86,3.41-2.05,2.52.85,2.55L27.59,79v1.85c-3.45-.82-5.54-4.08-6.19-7.74-.76-4.28.25-9.11.38-11.23a14.39,14.39,0,0,0-3.18,3.44l-.11-.83a12.62,12.62,0,0,0-2.29,4l-.42-.71a7.9,7.9,0,0,0-.6,4.06l-.56-.44c-.11,4,.31,5,1.56,7.1a8.38,8.38,0,0,0-2.77.86,13,13,0,0,0,2.08,3.26,8.52,8.52,0,0,0-4.26,4.88l.76.26A9.43,9.43,0,0,0,11.12,93l.9-.68c.35,2.11.29,3.43,1.59,5l.62-1A33.36,33.36,0,0,0,18.58,100,14,14,0,0,0,17.81,94c-1.1-3.23-.46-6.68,3.09-7.12a12.76,12.76,0,0,1,5.46.78l-1.85,1.37L26,91.64a14.65,14.65,0,0,1-2.28,3.18l1.9,1.28a1.84,1.84,0,0,0,0,.33,2.1,2.1,0,0,0,.06.48h0a2.92,2.92,0,0,0,.41.92l0,.11h0v0a3.24,3.24,0,0,0-.11.51,2.79,2.79,0,0,0-.06.48h0a4.5,4.5,0,0,0,.34,2h0a3,3,0,0,0,.16.31,3.53,3.53,0,0,0,0,1.34,2.6,2.6,0,0,0,.69,1.26,4.93,4.93,0,0,0,.23,1,3.18,3.18,0,0,0,.5.95h0a2.23,2.23,0,0,0,.9.75l-.37.36c1.75,2.48,3.54,4.4,6.88,5.24a8,8,0,0,0,3,.24,4,4,0,0,0,.5-.09ZM71.26,34.9H68.39v1.56c0,.58.56.23.73.92a1.6,1.6,0,0,0,.52,1c.46.38,1.25.19,1.4.4a4.89,4.89,0,0,1,.37.81.86.86,0,0,0-.15.49v.27a.69.69,0,0,0,.63.75H72l-.61,8-.67,1-.49,2.33h-.33l-.5,2.37a1.86,1.86,0,0,0-1.75-.09V33.38l.32-.24.41.71.76-.64.75.73.58-1.07.09,1.06.75-.94.1.88-.16,1ZM67.66,30V26.76l.89.68-.27.91,2.15,1.1-2.77.5Zm0-3.35v-.5l.6.13-.6.37Zm19.3,33L83.8,62.76l7.43,1,1.1-2.7.3-.14,3.74-2.67,1.67.27.46,1.21.1.59a3.07,3.07,0,0,0-2.47-.62l-.5.12h0c-2.32.72-3.48,2.88-2.26,5.08a16.59,16.59,0,0,1-5.47.61c-2.46-.16-4.8-1-5.23-2.6a2.6,2.6,0,0,0,.89-2.59,1.62,1.62,0,0,0,0-.19A2.13,2.13,0,0,0,85,59.69l.19-.15a1.88,1.88,0,0,0,.7-1.12L87,59.58Zm-9.74-.68a3.72,3.72,0,0,0-.5.68,4,4,0,0,0-.36.78h0a8.47,8.47,0,0,0-.28,1,7,7,0,0,0-.28-1h0a3.48,3.48,0,0,0-.21-.48l.3-.19.18-.15a1.79,1.79,0,0,0,.7-1.12l.46.48Zm-8.43.71a4.44,4.44,0,0,0-.21.71,2.6,2.6,0,0,0,.89,2.59c-.43,1.64-2.77,2.44-5.23,2.6a16.59,16.59,0,0,1-5.47-.61c1.22-2.2.06-4.36-2.25-5.08h0L56,59.7a3.1,3.1,0,0,0-2.48.62l.1-.59.46-1.21,1.68-.27,3.73,2.67.3.14,1.11,2.7,7.42-1-2.62-2.64a2.17,2.17,0,0,0,1.06-.43l.19-.15a1.88,1.88,0,0,0,.7-1.12l1.12,1.19ZM47.59,98.7l-.06-.59-.42.63a12,12,0,0,0-1.42-5.3l-.12.82a15,15,0,0,0-2.35-4.15l-.52,1a7.47,7.47,0,0,0-.89-1.88,15.65,15.65,0,0,0,1.1-1.74l.34-.67c.12-.08.24-.16.35-.25h0c.63-.52,2-2.08,1.38-2.88a5.75,5.75,0,0,0,1.94-2.33l.21-.38,1.56-2,2.2,3.35.28,2c-.61,2.5-1.4,5-2.11,7.54l0,0-.65.53.37.58a41.14,41.14,0,0,0-1.18,5.8Zm4.76-31.31.07-.44c.1.18.2.36.32.54l-.39-.1ZM101,84.23l.29-2,2.2-3.35L105,81l.22.38a5.72,5.72,0,0,0,1.93,2.33c-.63.8.75,2.36,1.39,2.88h0a3.27,3.27,0,0,0,.36.25l.34.67a14.26,14.26,0,0,0,1.09,1.74,7.47,7.47,0,0,0-.89,1.88l-.52-1a14.73,14.73,0,0,0-2.34,4.15l-.13-.82a12,12,0,0,0-1.42,5.3l-.42-.63c0,.2,0,.39,0,.59a44.18,44.18,0,0,0-1.18-5.8l.36-.58-.64-.53,0,0c-.7-2.52-1.5-5-2.11-7.54ZM99.72,67l.07.44-.39.1c.12-.18.22-.36.32-.54Zm19.85,37.14c-1.58,3.58-6.17,1.21-8.1-.83a7.6,7.6,0,0,1-1.53-6.56,18.74,18.74,0,0,1,3.46-3.07A4.68,4.68,0,0,0,116.24,96c.69,1.36,4.34,5.09,3.33,8.09Zm-87,0c-1-3,2.63-6.73,3.32-8.09a4.7,4.7,0,0,0,2.85-2.37A19,19,0,0,1,42.2,96.7a7.6,7.6,0,0,1-1.53,6.56C38.75,105.3,34.15,107.67,32.58,104.09Z"/><path class="cls-2" d="M71.17,50.23H81l.46,2.16H70.71l.46-2.16ZM66.25,3h.17a.85.85,0,0,1,.76.91v16l-1.69-1.73h0V3.92A.85.85,0,0,1,66.25,3Zm.93,22.3V30l-1.69.31V22.7l.6-.26.41.32-.38,1.06.42,1.49Zm0,8.42V54.94h0L67,55.1a1.77,1.77,0,0,0-.69,1.11l-.8-.84V32.47l.33-.15-.33,1.2L67,33.09l.12.69.06-.05ZM66.33.39A2.43,2.43,0,0,0,65,4.87v-1a1.63,1.63,0,0,1-.35-1,1.67,1.67,0,1,1,3.34,0,1.58,1.58,0,0,1-.29.93c.32-.07.63-.13,1-.18a2.67,2.67,0,0,0,.11-.75A2.44,2.44,0,0,0,66.33.39Zm59.19,85.83c.31-.93.37-1.21.66-2.2a2.88,2.88,0,0,1-1.83-1.29c1.12-.18,5.09-1.34,5.6.15s-3.87,3.18-4.43,3.34ZM33.37,38.35c.19-.09.47,0,.65-.1a12.54,12.54,0,0,0,1.39-1.34l1.68.31,2.7,2,.58.94,4.25,4.41.4,1,1.32,1,.21,1.92-.59.9-1.25.17L42.46,48l-.57,0-.25.61.44,1.64-.26.07-.7-1.78-.21-.35-1.23-.59-.54-.28-.29-1.65-1,1.37-1,.86-1.83.17-.91-1.59-.51.92-1.93-3.12L33,47.5l2.13,1.85L32.53,49l3,.88-2,.48,2.91.06-.67.8,1.15-.41,2.32,1.08,3.9,2.49L46,57.56l2.07,4.19.27,1,1.06,2,.83,2.74.28,2.83-.57,2.81,0-4.38L49,66.55l-.23,3.07.41,2.11-.94-.09L47.61,69l-.79-3,.27,5.74,1.16,2.05,2.54,1.85,3,4.4.43,4L54.4,87l.42,2.83-.57,3.08.15,2.2L53,98.29l-.65-1.08,1.08-2.47-1.56,1.65-.53-.89,1.42-2.26L50.83,94.7l-.46-.77,1.88-1.73L50,93.27l-.37-.62L52,91.23v-1l.31-4.11-.62-4.23-2.18-4.13L47,76.93l-1.73-.63-1.1-.79-.94-2-1.05-.7-1.28.4-1.27-.77L38.41,72l3,2.27,1.64,2,1.69,1.13,3,1.07-.79,1.16c-4.08.77-11.68-.73-13.32-4.84l.49-2.06c2.06,1.77,4.25,2.93,6.73,2.57-3.2-.65-5.5-1.71-6.28-3.78a8.22,8.22,0,0,1,0-3.19l.79.23,1.53-.13,1.32-.6,1.21-1.21.33-1.28-.39-1.67-2.65-1.86h1.15L39,62.5l.86,1.08.3-.18,0-1.65-.56-1,.37-.19,0-.73-1.26-1.58.34-.28L38.43,57,38,56.54l-2.82-1.27L36,54.9c-.15-.2-.22-.51-.45-.6A19.07,19.07,0,0,0,33,53.7c-1.44-.33-2.11-2.16-2.78-3.48a9.68,9.68,0,0,1-.85-3.75,12.74,12.74,0,0,1,.44-4.4,6.91,6.91,0,0,1,1.75-2.63,6.08,6.08,0,0,1,1.82-1.09Zm-4.15,68.34a3.17,3.17,0,0,0,2.78-.64c2.15,1.66.8,2.44.16,3a1.16,1.16,0,0,0,1.3-.94,2.79,2.79,0,0,0,2,1.58c.81,0,1.29-1.26.23-1.45a4.19,4.19,0,0,1-3.15-2.7,9.6,9.6,0,0,0,3.06,1.6c2.54.89,4.81.89,4.33,3-.59,2.51-5,1.66-7.72-.13a12,12,0,0,1-3-3.33Zm2.41-22.94a10.34,10.34,0,0,0,4.55,2.77c2.64.67,5.87.15,7.18-.9a10,10,0,0,0,1.37-2.14c-5.49,1.57-10.81.43-12.88-3.66L31,81.72a2,2,0,0,0,.63,2Zm-1.78,1c-.27,1.12.67,1.75,1.14,2.54,2.76,2,7,3.43,10.13,1.49A18.52,18.52,0,0,0,42.31,87c-1.75.15-4.05.74-6,.07a11.44,11.44,0,0,1-4.64-2.39c-.38-.4-.77-1-1.25-1.19l-.61,1.27Zm-.44,4.85A8.64,8.64,0,0,0,33,92c2.17.75,4.67.94,5.74.16a7.61,7.61,0,0,0,1.13-1.68,10,10,0,0,1-10.58-4l-.61,1.48c-.19.47.27,1.19.73,1.68Zm-.86,2.79a8,8,0,0,0,3.22,2.17c1.91.7,4.07.87,5,.17a6.48,6.48,0,0,0,.9-1.52,8.86,8.86,0,0,1-9.32-3.69l-.47,1.34c-.14.42.28,1.08.7,1.53ZM27.7,95a6.85,6.85,0,0,0,2.72,1.82c1.61.58,3.41.73,4.14.15a5.48,5.48,0,0,0,.72-1.27,7.57,7.57,0,0,1-7.85-3.08l-.35,1.11c-.11.35.26.9.62,1.27Zm-.63,2.78a5.42,5.42,0,0,0,2.35,1.47c1.4.43,3,.47,3.69-.08a5.51,5.51,0,0,0,.7-1.16A6.14,6.14,0,0,1,27,95.68l-.37,1c-.12.32.18.78.48,1.1Zm2,4c-.94-.14-1.71-.36-2-1a3.15,3.15,0,0,1-.11-2.06c.75,1.25,2.83,2,5.83,1.27a6.36,6.36,0,0,1-.67,1.07,3.52,3.52,0,0,1-3.05.76Zm.26,2a3.08,3.08,0,0,0,2.24-.62,4.49,4.49,0,0,0,.27-1c-1.63.74-3.44.78-4.5-.33a1.42,1.42,0,0,0,.32,1.43,2.68,2.68,0,0,0,1.67.52Zm.89,2.28c.77,0,1.48-.25,1.64-.71a8,8,0,0,0,0-1.19c-1.28.49-2.72.77-3.77-.06a2.35,2.35,0,0,0,.43,1.27,2.09,2.09,0,0,0,1.74.69ZM40.36,93.37a2.92,2.92,0,0,0-.14-1.84c-.32.54-.58,1.2-1,1.41a20.43,20.43,0,0,1,4.89,4.7,12.64,12.64,0,0,1,2.59,8,11.69,11.69,0,0,0,.55-6.27c-.06.45-.22,1.09-.63,1.31a9.38,9.38,0,0,0-.89-6c.39,1.56.1,2.65-.64,3.07a9.25,9.25,0,0,0-1.74-6.17c0,1.16-.11,3.16-.85,3.29A9.83,9.83,0,0,0,41.29,90c.12,1.59.1,2.57-.93,3.35ZM33,80.18a11.29,11.29,0,0,0,4.71,2.92c2.74.76,6.08.36,7.44-.65a10,10,0,0,0,1.42-2.09c-5.37,1.07-10.59-.78-13.34-4.11l-.89,1.87A2.09,2.09,0,0,0,33,80.18Zm3-44.49c.11-.65.93-2.77,2.15-2.95a13.54,13.54,0,0,0-.89,3.83c-.61-.82-.21-2.2-.3-2.41a8.19,8.19,0,0,0-1,1.53Zm1.72,1a5.85,5.85,0,0,1,1-1c0,.17-.55,1.13-.22,1.87A9.89,9.89,0,0,1,40,34.89c-1-.09-2,1.33-2.23,1.8ZM35.1,40.16c.13.28.17.4.51.54a3.08,3.08,0,0,0,1,.22,8.47,8.47,0,0,0,2,1.45,2.13,2.13,0,0,0,1.58-.22c.14.06.22.16.33.2A3.63,3.63,0,0,0,38.77,40c-.5,0-1.14.53-1.63.43s-.38-.34-.64-.44a1.68,1.68,0,0,0-1.4.15Zm7.73,5.93.86.3.66,1.38.15-.45-.12-.73.55,1.25.7.18.28-.2-.08-1.13-.5-.39-.3.09.15.51-.12.12-.29-.58.14-.43-.42-.28-1.66.36Zm6.49,15.6L50,63.08l1.33,4.75,1.34-8.17.77-2,2.46-.6,3.59,2.86.87.39,1,2.84.63-.08-.66-2.61L62.62,63l.77-.1-1.07-2.42,1.88,2.31.88-.12-1.29-2.19,2.11,2.08L67,62.39l-2.72-2.73-2-.81L57,55.37l-2.74-1.06-2.18,1-2.72,6.41ZM26.62,86.22c-.56-.16-5-1.74-4.43-3.34s4.48-.33,5.6-.15A2.88,2.88,0,0,1,26,84c.28,1,.35,1.27.65,2.2Zm76.2-24.53-.68,1.39-1.32,4.75-1.35-8.17-.77-2-2.46-.6-3.59,2.86-.87.39-1,2.84-.63-.08.67-2.61L89.53,63l-.78-.1,1.07-2.42L88,62.76l-.89-.12,1.29-2.19-2.11,2.08-1.09-.14,2.72-2.73,2-.81,5.27-3.48,2.74-1.06,2.17,1,2.72,6.41Zm6.49-15.6-.86.3-.66,1.38-.15-.45.12-.73-.55,1.25-.7.18-.28-.2.08-1.13.5-.39.3.09-.15.51.12.12.29-.58-.14-.43.42-.28,1.66.36Zm7.74-5.93c-.14.28-.18.4-.52.54a3.09,3.09,0,0,1-1,.22,8.74,8.74,0,0,1-2,1.45,2.14,2.14,0,0,1-1.58-.22c-.14.06-.21.16-.32.2A3.57,3.57,0,0,1,113.38,40c.49,0,1.13.53,1.62.43s.39-.34.64-.44a1.71,1.71,0,0,1,1.41.15Zm-2.64-3.47a6,6,0,0,0-1-1c0,.17.55,1.13.23,1.87a10.27,10.27,0,0,0-1.43-2.71c1-.09,2,1.33,2.24,1.8Zm1.71-1c-.11-.65-.93-2.77-2.15-2.95a13.2,13.2,0,0,1,.89,3.83c.62-.82.21-2.2.3-2.41a7.69,7.69,0,0,1,1,1.53Zm3,44.49a11.42,11.42,0,0,1-4.71,2.92c-2.74.76-6.09.36-7.45-.65a10,10,0,0,1-1.42-2.09c5.37,1.07,10.59-.78,13.34-4.11l.89,1.87a2.08,2.08,0,0,1-.65,2.06Zm-7.33,13.19a2.92,2.92,0,0,1,.14-1.84c.32.54.58,1.2,1,1.41a20.43,20.43,0,0,0-4.89,4.7,12.64,12.64,0,0,0-2.59,8,11.69,11.69,0,0,1-.55-6.27c.06.45.22,1.09.63,1.31a9.44,9.44,0,0,1,.89-6c-.39,1.56-.1,2.65.65,3.07a9.14,9.14,0,0,1,1.74-6.17c0,1.16.1,3.16.84,3.29A9.83,9.83,0,0,1,110.85,90c-.12,1.59-.09,2.57.93,3.35Zm10.16,12.72c-.77,0-1.48-.25-1.64-.71a8,8,0,0,1,0-1.19c1.29.49,2.72.77,3.77-.06a2.35,2.35,0,0,1-.43,1.27,2.08,2.08,0,0,1-1.74.69Zm.89-2.28a3.08,3.08,0,0,1-2.24-.62,5.92,5.92,0,0,1-.27-1c1.63.74,3.44.78,4.51-.33a1.44,1.44,0,0,1-.33,1.43,2.68,2.68,0,0,1-1.67.52Zm.27-2c.93-.14,1.7-.36,2-1a3.16,3.16,0,0,0,.1-2.06c-.74,1.25-2.83,2-5.83,1.27a6.36,6.36,0,0,0,.67,1.07,3.53,3.53,0,0,0,3.06.76Zm2-4a5.44,5.44,0,0,1-2.34,1.47c-1.41.43-3,.47-3.69-.08a5.56,5.56,0,0,1-.71-1.16,6.13,6.13,0,0,0,6.85-2.34l.37,1c.12.32-.18.78-.48,1.1ZM124.45,95c.35-.37.72-.92.61-1.27l-.35-1.11a7.56,7.56,0,0,1-7.84,3.08,5.11,5.11,0,0,0,.71,1.27c.73.58,2.53.43,4.14-.15A7,7,0,0,0,124.45,95Zm-.86-2.61a8,8,0,0,1-3.22,2.17c-1.91.7-4.07.87-5,.17a6.48,6.48,0,0,1-.9-1.52,8.88,8.88,0,0,0,9.33-3.69l.46,1.34c.14.42-.28,1.08-.7,1.53Zm-.85-2.79c.45-.49.91-1.21.72-1.68l-.61-1.48a10,10,0,0,1-10.57,4,7.57,7.57,0,0,0,1.12,1.68c1.08.78,3.57.59,5.74-.16a8.68,8.68,0,0,0,3.6-2.39Zm-.45-4.85-.6-1.27c-.49.15-.88.79-1.26,1.19a11.41,11.41,0,0,1-4.63,2.39c-1.92.67-4.22.08-6-.07A20.57,20.57,0,0,0,111,88.79c3.17,1.94,7.37.56,10.14-1.49.46-.79,1.41-1.42,1.13-2.54Zm-1.78-1a2,2,0,0,0,.63-2l-.85-1.9c-2.07,4.09-7.38,5.23-12.88,3.66a10.36,10.36,0,0,0,1.37,2.14c1.31,1,4.54,1.57,7.18.9a10.29,10.29,0,0,0,4.55-2.77Zm2.42,22.94a3.18,3.18,0,0,1-2.79-.64c-2.15,1.66-.8,2.44-.15,3a1.17,1.17,0,0,1-1.31-.94,2.77,2.77,0,0,1-2,1.58c-.81,0-1.28-1.26-.23-1.45a4.19,4.19,0,0,0,3.15-2.7,9.64,9.64,0,0,1-3,1.6c-2.54.89-4.82.89-4.34,3,.59,2.51,5,1.66,7.72-.13a12,12,0,0,0,3-3.33Zm-4.16-68.34c-.19-.09-.47,0-.64-.1a11.81,11.81,0,0,1-1.4-1.34l-1.67.31-2.7,2-.59.94-4.24,4.41-.4,1-1.33,1-.2,1.92.58.9,1.25.17L109.69,48l.57,0,.24.61-.44,1.64.26.07.7-1.78.22-.35,1.23-.59.54-.28.28-1.65,1,1.37,1,.86,1.83.17.91-1.59.51.92,1.93-3.12-1.26,3.23L117,49.35l2.58-.32-3,.88,2,.48-2.9.06.66.8-1.15-.41-2.32,1.08L109,54.41l-2.83,3.15-2.07,4.19-.28,1-1,2-.84,2.74-.27,2.83.56,2.81,0-4.38.93-2.22.23,3.07-.4,2.11.93-.09.68-2.66.78-3-.27,5.74-1.16,2.05-2.54,1.85-3,4.4L98,84,97.75,87l-.42,2.83.56,3.08-.15,2.2,1.45,3.19.64-1.08-1.08-2.47,1.57,1.65.52-.89-1.42-2.26,1.89,1.46.46-.77L99.9,92.2l2.26,1.07.37-.62-2.35-1.42v-1l-.31-4.11.63-4.23,2.17-4.13,2.48-.88,1.73-.63,1.1-.79.94-2,1-.7,1.28.4,1.27-.77,1.2-.41-3,2.27-1.64,2-1.69,1.13-3,1.07.79,1.16c4.08.77,11.68-.73,13.32-4.84L118,72.79c-2.06,1.77-4.25,2.93-6.73,2.57,3.2-.65,5.5-1.71,6.28-3.78a8,8,0,0,0,0-3.19l-.79.23-1.52-.13-1.32-.6-1.22-1.21-.33-1.28.4-1.67,2.64-1.86h-1.15l-1.19.63-.86,1.08L112,63.4l0-1.65.55-1-.37-.19,0-.73,1.26-1.58-.33-.28.66-.95.42-.45L117,55.27l-.85-.37c.15-.2.22-.51.46-.6a18.59,18.59,0,0,1,2.58-.6c1.44-.33,2.12-2.16,2.78-3.48a9.51,9.51,0,0,0,.85-3.75,13,13,0,0,0-.43-4.4,7,7,0,0,0-1.76-2.63,6.08,6.08,0,0,0-1.82-1.09ZM70.26,52.85H81.88l.35,1.65a2.09,2.09,0,0,0-1.41.45l-.19.15a1.64,1.64,0,0,0-.33.31H79.17L78.73,55a1.88,1.88,0,0,0-2.46,0l-.19.15a1.64,1.64,0,0,0-.33.31H74.62L74.19,55a1.89,1.89,0,0,0-2.47,0l-.19.15a2.42,2.42,0,0,0-.33.31H70.08l-.29-.3.47-2.26ZM72.37,39.3c-.68,0-.53-.53-.9-1-.16-.21-1,0-1.41-.39a1.48,1.48,0,0,1-.51-.93c-.18-.65-.74-.31-.74-.87v-.81h2.91V37h2.9V35.28h2.9V37h2.91V35.28h2.9v.81c0,.56-.56.22-.73.87a1.46,1.46,0,0,1-.52.93c-.46.36-1.25.18-1.4.39-.38.49-.23,1-.9,1H72.37Zm.11,1.85h7.19l.59,7.65H71.88Z"/><path class="cls-3" d="M109.93,48.92l-.75.63-1,1.41-.86.78-.7.19-.6-.09-.08-.26.2-.42.34.31h.39l.76-.43L109.33,49l.6,0ZM71.22,69v48.78c-2.16-1.5-4.71-3.07-7-4.43l.07-42.17.64-.07A16.54,16.54,0,0,0,71.22,69Zm16.67,2.18v42.17c-2.21,1.33-4.69,2.86-6.83,4.33l0-48.62a16.82,16.82,0,0,0,6.16,2.05l.72.07Zm-48-29.43a2.28,2.28,0,0,0-.29-.45.6.6,0,0,1-.57.42.76.76,0,0,1-.62-.53.64.64,0,0,1-.3.22,1.4,1.4,0,0,0,.89.49,1.56,1.56,0,0,0,.89-.15Zm2.33,7.16.6,0L44.54,51l.76.43h.4l.33-.31.2.42-.08.26-.6.09-.7-.19L44,51l-1-1.41-.74-.63Zm70-7.16a1.53,1.53,0,0,0,.88.15,1.43,1.43,0,0,0,.9-.49.64.64,0,0,1-.3-.22.78.78,0,0,1-.63.53.59.59,0,0,1-.56-.42A1.9,1.9,0,0,0,112.26,41.76Z"/><path class="cls-4" d="M76.07,150.86c19.73,0,41.89-3.38,59.08-13.05a3.27,3.27,0,0,0,1.23-3.43l-4.81-14.88c-11.86,9.2-41.06,14.6-55.5,14.6s-43.64-5.4-55.5-14.6l-4.8,14.88A3.25,3.25,0,0,0,17,137.81c17.2,9.67,39.35,13.05,59.08,13.05Zm-36-27.74-.76,1.65a15.54,15.54,0,0,1-3.89-1.11c.62.06,3.59.19,4.65-.54Zm74.62-2.31c.18-1.38,4-1.06,5.47-1.13a14.8,14.8,0,0,1-2.87,1.28c-1,.28-2.7.61-2.6-.15Zm-2.58,2.31c1.06.73,4,.6,4.65.54a15.54,15.54,0,0,1-3.89,1.11l-.76-1.65Zm24.43-16,1.91,5.58c1.61-.78,6.93-4.93,5.11-7.08-1.52-1.8-5.24.34-7,1.5Zm-4,11.58c5.88-2,12.8-4.46,15.07-10.88L151,117c.84,2.31-.59,4.44-2.12,6.16a35.87,35.87,0,0,1-12.59,7.23l-3.71-11.71Zm-7.76,1.89,1.36-1.69c.62-.76,1.33-1.37,1.77-1s-.11.84-1,1.39l-2.13,1.31Zm-87.34.24c.11.76-1.65.43-2.6.15A14.8,14.8,0,0,1,32,119.68c1.46.07,5.29-.25,5.47,1.13Zm-10.14-.24-2.12-1.31c-.89-.55-1.42-1.05-1-1.39s1.15.25,1.76,1l1.36,1.69Zm-7.76-1.89-3.71,11.71a35.73,35.73,0,0,1-12.58-7.23c-1.53-1.72-3-3.85-2.13-6.16l3.36-9.2c2.26,6.42,9.19,8.92,15.06,10.88Zm-4-11.58c-1.78-1.16-5.5-3.3-7-1.5-1.82,2.15,3.49,6.3,5.11,7.08l1.9-5.58Zm42.09,35.1-2.11-.26,1.34-2.57.77,2.83Zm68.77-6.7-2.22-5.13c-.11-.22-.23-.47.41-.77,1.71-.78,2.88,1.29,3.29,2.23,1.06,2.44.47,3.49-.65,4-.48.22-.65.07-.83-.33ZM22,135c.63.18.94.22,1.22-.46l1.93-4.92c-.28-.95-.43-1-.56-1.11l.1-.25,2.13.88L28.58,135h0l1.24-3.14c.24-.62.26-1-.54-1.42l.1-.25,2.18.9-.1.25c-.77-.2-.92,0-1.12.51L28,137.94l-.28-.12-2.29-7.49h0l-1.63,4.15c-.3.75-.16,1,.55,1.43l-.1.26-2.29-.95L22,135Zm102.36,2.36c.63-.29.69-.68.53-1.05l-2.19-5c-.27-.63-.72-.45-1.12-.31l-.12-.26,3-1.38c2.79-1.28,4.47.09,5.15,1.66a3.75,3.75,0,0,1-2,5.19l-3.15,1.44-.11-.25ZM115,133l5.94-2.1.72,2.13-.25.08c-.75-1.41-1.57-1.42-3-.93-.57.21-.74.31-.59.77l.83,2.45c1-.34,1.43-.8,1.14-2.17l.27-.09,1.2,3.58-.27.09c-.57-1.27-1.2-1.41-2.22-1.05l.86,2.56c.15.47.39.52,1.06.29a2.85,2.85,0,0,0,2.09-2.83l.28-.1.33,2.34-6,2.13-.08-.26c.56-.27.87-.42.65-1.08l-1.71-5.11c-.24-.7-.68-.57-1.17-.43L115,133Zm.19,7.79-3.77,1-.06-.27c.75-.28,1-.37.76-1.28l-1.49-5.69a1.91,1.91,0,0,0-1.56,2.39l-.3.08-.54-2.18,6.33-1.74.58,2.17-.3.08a1.85,1.85,0,0,0-2.5-1.27l1.49,5.7c.23.92.5.86,1.29.71l.07.27Zm-5.62,1.5-3.73.81-.06-.27c.57-.18,1-.32.83-1l-1.09-5.29c-.15-.72-.66-.64-1.16-.56l-.06-.27,3.74-.82,0,.27c-.49.13-1,.26-.85,1l1.1,5.3c.15.7.58.64,1.18.55l0,.28ZM98,144.21c.64-.19.93-.31.82-1L98,137.93c-.72-.66-.89-.67-1-.64l0-.28,2.28-.37,4.47,4.11h0l-.52-3.35c-.1-.66-.29-1-1.17-.93l0-.28,2.31-.37,0,.27c-.75.23-.78.49-.7,1l1,6.51-.31,0-5.71-5.21h0l.68,4.41c.12.8.38,1,1.19.93l0,.28-2.44.39,0-.27Zm-1.09-6.86c-.59.15-.83.3-.75,1l.36,3.55a3.58,3.58,0,0,1-.38,2.21,3.05,3.05,0,0,1-2.06,1,3.43,3.43,0,0,1-2.27-.46,2.25,2.25,0,0,1-1-1.93l-.38-3.72c-.1-.94-.38-.93-1-.93l0-.27,3.67-.4,0,.28c-.72.11-1.05.16-1,1.13l.38,3.72c.06.63.22,2.16,1.78,2,1.91-.21,1.76-1.91,1.69-2.62l-.35-3.39c-.07-.68-.24-1-1.18-1l0-.28,2.38-.25,0,.27Zm-16.41,1,6.28-.34.12,2.24-.27,0c-.34-1.58-1.13-1.81-2.59-1.74-.61,0-.8.09-.78.57l.14,2.59c1,0,1.59-.36,1.68-1.76h.28l.19,3.77-.28,0c-.2-1.39-.77-1.7-1.85-1.64l.14,2.7c0,.5.24.62.94.58a2.79,2.79,0,0,0,2.77-2.13l.3,0-.32,2.35-6.37.34,0-.28c.63-.1,1-.15.93-.84l-.28-5.4c0-.74-.5-.74-1-.75v-.27Zm-.23,7.57H73.93v-.28c.62-.08.94-.11.94-.79v-5.41c0-.74-.45-.77-.94-.8v-.28h3.81v.28c-.76,0-1.1,0-1.1,1V145c0,.54.24.63,1,.63,1.65,0,2.26-.93,2.76-2.19h.32l-.45,2.54Zm-8.2-.07-3.89-.15v-.27c.8,0,1.06-.06,1.1-1l.2-5.88a1.87,1.87,0,0,0-2.18,1.81H67l.11-2.25,6.54.24-.05,2.25-.32,0a1.87,1.87,0,0,0-2-2l-.2,5.89c0,1,.23,1,1,1.06l0,.29Zm-6-5.62c-.14-.79-.71-2.12-2-2.22a1.08,1.08,0,0,0-1.24,1c0,.61.15.86,1,1.4l1.55.93a2.31,2.31,0,0,1,1,2.14,2.39,2.39,0,0,1-2.86,2.13,8.18,8.18,0,0,1-1.83-.51c-.23,0-.3.18-.36.35l-.31,0,.19-2.75.31,0c.15,1.14.69,2.44,2.07,2.55a1.24,1.24,0,0,0,1.45-1.15c0-.75-.44-1.05-1.13-1.45l-.7-.41c-1.8-1-1.74-2-1.7-2.52a2.15,2.15,0,0,1,2.55-2,8.17,8.17,0,0,1,1.68.49c.25,0,.31-.14.38-.35l.33,0-.16,2.42-.31,0Zm-5.36,5-3.51-.45,0-.27c.68,0,.88,0,.92-.32a6.72,6.72,0,0,0-.32-1.54l-2.44-.31a8,8,0,0,0-.65,1.37c0,.42.47.52.84.59l0,.27-2.2-.27,0-.28c.6,0,.8-.37,1.22-1.16l3.14-5.78.3,0,1.71,6.15c.35,1.25.48,1.65,1,1.69l0,.28Zm-6.86-2.37a3.84,3.84,0,0,1-6.52-3.38,3.79,3.79,0,0,1,4.43-3.35,8.2,8.2,0,0,1,2,.88c.29,0,.43-.17.58-.43l.29,0-.4,2.59-.27,0c-.23-1-.94-2.46-2.16-2.66-1.58-.25-2.26,1.37-2.55,3.23a5.51,5.51,0,0,0,.09,2.51,2,2,0,0,0,1.49,1.22,3.25,3.25,0,0,0,2.75-.94l.28.33ZM48.05,136a.89.89,0,0,0-.9.52l-3.6,6.06-.28-.07L42.63,137h-.07l-3.09,4.64-.3-.07-.77-7.1c-.07-.56-.15-.69-.58-.86l.06-.28L41,134l-.06.27c-.39-.06-.7-.1-.79.3a1.21,1.21,0,0,0,0,.38l.37,4.23h0l2-3-.14-1.14c-.08-.27-.17-.42-.68-.56l.06-.27,3.32.78-.06.28c-.46-.08-.78-.14-.86.23a3.4,3.4,0,0,0,0,.63l.33,3.9h0l2-3.42a1.26,1.26,0,0,0,.18-.44c.1-.45-.27-.55-.63-.65l.06-.28,1.94.46-.06.28Zm-16.39-4.87,6,2L37,135.27l-.26-.09c.23-1.59-.42-2.1-1.82-2.57-.57-.19-.77-.2-.91.25l-.79,2.47c1,.34,1.62.24,2.19-1l.27.09L34.52,138l-.27-.09c.29-1.37-.13-1.87-1.16-2.21l-.81,2.57c-.16.47,0,.66.67.89a2.74,2.74,0,0,0,3.33-1l.29.09-1.11,2.08-6.07-2,.08-.27c.61.14.94.21,1.15-.45l1.63-5.15c.23-.7-.2-.87-.67-1.06Z"/><path class="cls-5" d="M18.48,106.63l-2.42,7.28-1.46-.63,2-6.45c-1.59-1.48-8.26-4.35-9.34-1.3-.44,3.42,2.73,5.91,5.26,7.6a32.61,32.61,0,0,0,7.59,3.55l-.52,1.21a61.63,61.63,0,0,1-8.3-3.83c-2.72-1.58-8-6.47-5.37-10.12,2.15-3,10.47.47,12.52,2.69Zm8.15-15.58-1.31-1.73,2.07-1.69-.45-3,2.11-1.54-2.42,7.92Zm45-56.15.21-1-.11-.7.81-.84.42,1L76,29.83l1.12,5.07h-3v1.65H72.11V34.9Zm9.18-12.57-.13.11-.28.89-.08.15L80,24l-.8.4-.16.21a.45.45,0,0,1-.15.18l-.34.43-.91.54-.9,2.7,1.54,4.43,0-4L79,25.83l.53,2.62.32,1.44.35-1.32-.1-2.19,1.08-.68,1.24-.91-1.14-.54L80.7,24l.64-.48,1.11-.13-1.06-1Zm-3.38,1.11-.19.38-.77.07s-.84-.4-.36-.88.78-.56,1-.23l.35.66Zm2.75-.59c0,.27-.06.55-.28.57L79,23.5l-.15.25a1.86,1.86,0,0,1,0,.62c-.11.67-.92.24-.92.24l-.4-.66.19-.37s.36-.07.74-.11h0l.1-.17a2.19,2.19,0,0,0-1.25-.64l.48-.95-.24-.5A.47.47,0,0,0,77.1,21l-.56-.28.07-.14h.76l.22-.43s.94.08.94.22.14,1,.14,1l.89-.46s1.38.74.71,1.73l-.38-.19s-.23-.38-.53-.3l-.4.1-.24.47.08,0s.28-.34.43-.21.32.34.53.25.46-.17.43.1Zm-3-.78.16-.33c.11-.2-.13-.3-.32-.29a.19.19,0,0,1-.21-.13l-.23-.48-.15-.08a5.34,5.34,0,0,0-.39.63c-.14.29.32.42.62.39s.52.29.52.29Zm.16-2.8a8.33,8.33,0,0,1,3.85,2,14.64,14.64,0,0,1,1.53-1.51l-1,.33.39-.91-1.43.48-.32-1.54L79,18.77l-.51-1.46-.49.85-.31-1s-.18,1.45-.33,2.08Zm-6.31,8.07.12,1.46-.46.18-2.06-.85.13-.87-.68-.59,1-.79-1.64-.14,1.14-.7H66.87l-.28-1.37.61-1.8-.67-1.22.9.29,3.47,3.4.18,3ZM73.39,26l-.54,1.27-.92,1.12-.26-.71.16-.82.62-.67.94-.19Zm4-1.28-.79,1.12-.33,1.23.25.2.31,0-1.25,1.05-1.48.74L75,27.77l.91-1.45-.18-.15h-.2l-1,1.13-1,1.18.63-1.4.75-1.77,1.27-.77,1.23.21Zm-.43-5,0,.23-.52.43-.55.85,0,.89-.4,1,0,1.06-1.67,1-2.14.34L73,24.28,74.81,23l-1.06.35-1.4.42,1-.94,1.36-.42-.22-1.11.25-1.59.37.53.51.32.11-.79.23-.82.75.22.28.5Zm-10.55.08-.62.31.28.72-.71.13.46,1-.7.34-.84-.9V18.85l1.07-.22,1,1.16Zm6.19,9.75L69,30.39l-3.42.45-1.19,1.82,2.08-1-.49,1.23,1.42-.71.08.71.78-.6.3.82.93-.59.41.44.67-1.15.37.86,1-.88-.08.88.92-1.16L73,32.77l2.81-3.33L74,29.86l-1.48.9.08-1.22Zm11.69-.38c.73-.31,2.49.53,3.42,0,1.2-.67,1.2-2.77,2.82-2.81-1.58.86-.25,3.66-2,4.33s-2.34-.48-3.12-1c1.19,1.76,1.56,3.87-1.17,3.87,2.53-1.39.25-3.89-1.86-3.22-1.11.36-2.17,1.59-2.47,4.31a3.86,3.86,0,0,1,0-4c1-1.42,4.07-2.23,5.62-3.39a1.62,1.62,0,0,0,.68-1.47C87.6,28,84.56,28,84.3,29.16ZM81.6,62.24c-1,5.12,11.22,5,13.6,3A2.33,2.33,0,0,1,96,60.89c1.77-.55,2.86.94,3.13,2.55,1,6.15-7.72,7.19-11.92,6.7-4.39-.52-11.73-3.79-9.76-9.4a3.08,3.08,0,0,1,3.52-2.08c1.2.28,2.47,2.79.67,3.58Zm1.33-6.83a1.32,1.32,0,0,0-1.73,0l-.13.1a1.05,1.05,0,0,0-.27,1.55l.52.54a3.33,3.33,0,0,1,1.59,1.22,4.14,4.14,0,0,1,.39.68,1.48,1.48,0,0,0,1.29-.27l.13-.1A1.05,1.05,0,0,0,85,57.57l-2-2.16Zm4.55,0a1.32,1.32,0,0,0-1.73,0l-.14.1a1.05,1.05,0,0,0-.26,1.55l2,2.12.63-.63L89.76,58a.88.88,0,0,0-.23-.45l-2-2.16Zm-22.74,0,2.05,2.16a1.05,1.05,0,0,1-.26,1.56l-.13.1a1.47,1.47,0,0,1-1.31.26l-.93-.94L64,58.49l-1.36-1.43a1.05,1.05,0,0,1,.27-1.55l.13-.1a1.32,1.32,0,0,1,1.73,0Zm4.55,0a1.32,1.32,0,0,0-1.73,0l-.13.1a1.05,1.05,0,0,0-.27,1.55l1.91,2,.16-.26A3.1,3.1,0,0,1,71,57.57a1.8,1.8,0,0,1,.32-.06l-2-2.1Zm4.55,0a1.32,1.32,0,0,0-1.73,0l-.14.1a1,1,0,0,0-.26,1.55l.39.42a4.28,4.28,0,0,1,3.19,1.88,1.37,1.37,0,0,0,.2-.13l.13-.1a1.06,1.06,0,0,0,.27-1.56l-2-2.16Zm4.55,0a1.33,1.33,0,0,0-1.74,0l-.13.1a1.05,1.05,0,0,0-.27,1.55l1.37,1.44a4.13,4.13,0,0,1,2.72-1l-2-2.06Zm-7.85,6.83c1,5.12-11.22,5-13.6,3a2.33,2.33,0,0,0-.76-4.33c-1.77-.55-2.86.94-3.13,2.55-1,6.15,7.72,7.19,11.92,6.7,4.4-.52,11.73-3.79,9.76-9.4a3.06,3.06,0,0,0-3.51-2.08c-1.21.28-2.48,2.79-.68,3.58Zm31.22,11.11-1-3.1-.8-1.84a5.57,5.57,0,0,0-4.85,3.36c-2.45,5.33,0,13.57,1.9,20.32l-.4-2.17v-.45l.44-2.6c.18-2.35.4-4.67.65-7L98,79.2,98.84,78a6.53,6.53,0,0,1,.73-3.46,2.71,2.71,0,0,1,2.19-1.18ZM100.71,87.2c.35,1.25.72,2.51,1.08,3.78l-1-.62-.09-3.16Zm1.89,6.92a34.56,34.56,0,0,1,1,6.47c.22,5.7-1.75,10.91-7.73,14.94-6.79,4.56-14.26,7.83-19.8,14.41-5.54-6.58-13-9.85-19.79-14.41-6-4-8-9.24-7.73-14.94a33.72,33.72,0,0,1,1-6.47l3.56,5.63.28-.62a14.14,14.14,0,0,0,5,12.15c1.13,1,15.83,8.91,17.64,12.2,1.82-3.29,16.52-11.24,17.64-12.2a14.16,14.16,0,0,0,5.06-12.14l.27.61,3.56-5.63ZM50.36,91c.35-1.27.72-2.53,1.07-3.77l-.09,3.15-1,.62Zm3-13a6.74,6.74,0,0,0-.73-3.46,2.75,2.75,0,0,0-2.2-1.18l1-3.1.8-1.84A5.56,5.56,0,0,1,57,71.77c2.45,5.33,0,13.59-1.9,20.34l.4-2.19v-.45l-.44-2.6c-.18-2.35-.4-4.67-.65-7l-.24-.65L53.31,78Zm80.47-11.62.11-.92a11.22,11.22,0,0,1,1.93,4.17l.41-.81a7.9,7.9,0,0,1,.18,4l.69-.45a8.37,8.37,0,0,1-2.76,6.9,5.37,5.37,0,0,1,3.43.56,6.51,6.51,0,0,1-2.31,3c2.5,1.13,3.64,1.79,4.55,4.35l-.66.35c.69.69,1.21,2.89,1.09,4.33l-.8-.6c-.16,1.35-.43,4.13-1.1,4.94l-.52-.81c-1.1,1.33-2.64,2.21-3.77,3.57-.17-3.43,1.91-6.37,1.18-9.08-1.27-4.79-6.2-3.79-9.94-2.88,1.47-.53,2.11-.83,3-1.23.83-.56,2-1.08,2.24-2.2a4.43,4.43,0,0,0-.38-1.38c-.91-.86-2-.3-3.08-.48l-1.64.18A13.5,13.5,0,0,0,131.6,73c.49-3-.16-6.42-.39-9.37.45,0,2.15,1.8,2.57,2.72Zm-16.21,1.42a1.13,1.13,0,0,1-1-1.79,4.43,4.43,0,0,1,1.56-1.26c-.85,1.45-1.09,3.11-.54,3.05Zm1.55-31.58c-.28-.63,0-2.67-1.06-3.44a2.81,2.81,0,0,1-.8,2.44,1,1,0,0,0-.2,1.17c4.34,1.32,5.89,3.94,6.35,6.09a12.06,12.06,0,0,1-1.26,9,4.2,4.2,0,0,0,.37,3.07c.87,1.34,2.84-.1,3.28.49a2.59,2.59,0,0,1-2.89.49,7.71,7.71,0,0,1-2.11-1.92c-.75,2.42,2.08,2.6,3.55,2.81a1.64,1.64,0,0,1-2.36.5c-.76-.41-1.21-1.26-2-1.8a3.26,3.26,0,0,0-2.36-.42,8.5,8.5,0,0,1,2.2,2.49c.72.54,1.92.39,2.78.79-1.56.81-2.61,0-4-1.34-.88-.89-1.91-.8-3.21-.15h1.37c1.61,0,1.46,1.87,2.75,2.35.48.15,1.2,0,1.57.15-2.32,1-3-.8-4.1-1.09a3.5,3.5,0,0,0-3.13.75c.82-.44,1.88,0,3,.38s2,1.26,3.45.87c-1.22,1.4-2.82.62-4.48.35-1.07-.17-3,0-3,1.54.85-.41,2.23-1.11,3.37-.71a5.39,5.39,0,0,0,3.31.07c-1.25,1.19-3,1.37-4.44,1.87a2.48,2.48,0,0,0-1.61,2.42,2.4,2.4,0,0,0,1.3,1.94c-.1-.52-.46-.93-.38-1.49a2.89,2.89,0,0,1,.82-1.6c1.19-.9,3.26-1.32,3.84-1.83-.49,1.71-2.81,1-3.57,2.64a1.93,1.93,0,0,0,.23,2,2.49,2.49,0,0,1,2.14-2.6,3,3,0,0,0,1.83-2.1c1-3,4.23-3.73,6-6.11s-.84-4-1.06-6.19c.79.3,1,1.19,1.52,2a4.58,4.58,0,0,0,2.08,1.47,4.75,4.75,0,0,1-1.38-3,3.27,3.27,0,0,0-1.92-2.25c.78-.36,2.49,1.69,3.88,1.59-.86-.63-2.33-2.64-3.3-3.33.81-.24,2.33,1.75,3.43,1.57-1-.57-2.12-2.72-3.25-3.05.72-.54,2.64.31,3.34.68a7.18,7.18,0,0,0-2.62-2,9.54,9.54,0,0,1,2,0,9.32,9.32,0,0,0-3.41-1,20.8,20.8,0,0,0,1.71-2.14,4.56,4.56,0,0,1-2.41,1.1,25.5,25.5,0,0,1,2-1.94,7.4,7.4,0,0,0-2.3.61c.43-.66,1-1.21,1.57-2-.94.34-1.4.74-2.19,1.08a22.93,22.93,0,0,0,1.28-2.16c-.68.36-1.3.78-2,1.15.3-.63.9-1.56,1.21-2.34-.6.36-1.76,1.15-2.25,1.42a8.2,8.2,0,0,0,.84-3c-.8.88-1.07,1.77-2,2.33a26.35,26.35,0,0,0,.22-3.25,11.13,11.13,0,0,1-1.46,2.63ZM135,96.66c.65-.66,2.55-3.21,2.31-5.61a9.16,9.16,0,0,0-2.58-5,15.6,15.6,0,0,1,1.86,5.22c.24,2.24-1.32,4.47-1.59,5.34Zm-2.81-17.4a6.08,6.08,0,0,0,2.79-2.79,7.9,7.9,0,0,0,.08-4.25,12.39,12.39,0,0,1-.85,3.81,13,13,0,0,1-2,3.23Zm-1.34-.17c1-.64,2.47-3.27,2.85-6.29a11.8,11.8,0,0,0-1.26-6.9,23.73,23.73,0,0,1,.31,7,17.28,17.28,0,0,1-1.9,6.16ZM137.91,91a5.82,5.82,0,0,0,.12-3.9,7.67,7.67,0,0,0-2.88-3.07,11.93,11.93,0,0,1,2,3.29,12.4,12.4,0,0,1,.75,3.68Zm-11.63,4.23,1.13-.74-.88-1-.85-1.58.6,3.33Zm-5.12-26.11-.81,3.2,2,2.47-.88,2.64,2,1.93-.64,3c-.89-2.26-1.88-4.36-2.64-6.46a16.63,16.63,0,0,1-1.09-8.31l2.1,1.58Zm4.35,21.91,1.31-1.73-2.07-1.69.45-3-2.11-1.54,2.42,7.92ZM31,69.14l2.1-1.58A16.74,16.74,0,0,1,32,75.87c-.76,2.1-1.76,4.2-2.65,6.46l-.64-3,1.95-1.93-.87-2.64,2-2.47L31,69.14ZM25.86,95.25l-1.12-.74.88-1,.84-1.58-.6,3.33ZM14.23,91a5.88,5.88,0,0,1-.12-3.9A7.62,7.62,0,0,1,17,84.05a11.67,11.67,0,0,0-2,3.29A12.4,12.4,0,0,0,14.23,91Zm7.11-11.93c-1-.64-2.47-3.27-2.85-6.29a11.8,11.8,0,0,1,1.26-6.9,23.73,23.73,0,0,0-.31,7,17.7,17.7,0,0,0,1.9,6.16ZM20,79.26A13,13,0,0,1,18,76a12.7,12.7,0,0,1-.85-3.81,8,8,0,0,0,.08,4.25A6.12,6.12,0,0,0,20,79.26Zm-2.81,17.4c-.26-.87-1.83-3.1-1.58-5.34a15.38,15.38,0,0,1,1.86-5.22,9,9,0,0,0-2.58,5c-.25,2.4,1.66,5,2.3,5.61ZM33,36.21c.29-.63,0-2.67,1.06-3.44a2.82,2.82,0,0,0,.81,2.44,1,1,0,0,1,.2,1.17c-4.34,1.32-5.9,3.94-6.36,6.09a12.11,12.11,0,0,0,1.26,9,4.2,4.2,0,0,1-.37,3.07c-.87,1.34-2.84-.1-3.28.49a2.59,2.59,0,0,0,2.89.49,7.56,7.56,0,0,0,2.11-1.92c.75,2.42-2.07,2.6-3.55,2.81a1.65,1.65,0,0,0,2.37.5c.75-.41,1.21-1.26,2-1.8a3.26,3.26,0,0,1,2.36-.42,8.65,8.65,0,0,0-2.2,2.49c-.72.54-1.92.39-2.78.79,1.57.81,2.61,0,4-1.34.89-.89,1.91-.8,3.21-.15H35.4c-1.61,0-1.46,1.87-2.75,2.35-.48.15-1.19,0-1.56.15,2.31,1,3-.8,4.1-1.09a3.51,3.51,0,0,1,3.13.75c-.83-.44-1.89,0-3,.38-1.29.45-2,1.26-3.46.87,1.22,1.4,2.83.62,4.48.35,1.07-.17,3,0,3.06,1.54-.86-.41-2.23-1.11-3.37-.71a5.42,5.42,0,0,1-3.32.07c1.25,1.19,3,1.37,4.44,1.87a2.47,2.47,0,0,1,1.62,2.42,2.42,2.42,0,0,1-1.3,1.94c.1-.52.45-.93.37-1.49A2.83,2.83,0,0,0,37,64.3c-1.18-.9-3.26-1.32-3.84-1.83.49,1.71,2.81,1,3.57,2.64a1.93,1.93,0,0,1-.22,2,2.5,2.5,0,0,0-2.15-2.6,3,3,0,0,1-1.83-2.1c-1-3-4.23-3.73-6-6.11s.84-4,1.06-6.19c-.79.3-1,1.19-1.52,2A4.55,4.55,0,0,1,24,53.52a4.79,4.79,0,0,0,1.37-3,3.3,3.3,0,0,1,1.92-2.25c-.78-.36-2.49,1.69-3.88,1.59.86-.63,2.33-2.64,3.3-3.33-.81-.24-2.33,1.75-3.42,1.57.95-.57,2.11-2.72,3.24-3.05-.72-.54-2.63.31-3.34.68a7.35,7.35,0,0,1,2.62-2,9.44,9.44,0,0,0-2,0,9.27,9.27,0,0,1,3.4-1,22.25,22.25,0,0,1-1.71-2.14,4.56,4.56,0,0,0,2.41,1.1,25.5,25.5,0,0,0-2-1.94,7.33,7.33,0,0,1,2.3.61c-.42-.66-1-1.21-1.56-2,.94.34,1.39.74,2.18,1.08-.3-.49-.88-1.34-1.28-2.16.68.36,1.3.78,2,1.15-.3-.63-.9-1.56-1.21-2.34.6.36,1.76,1.15,2.25,1.42a8.61,8.61,0,0,1-.84-3c.8.88,1.07,1.77,2,2.33a28.47,28.47,0,0,1-.22-3.25A11.13,11.13,0,0,0,33,36.21Zm1.55,31.58a1.13,1.13,0,0,0,1-1.79A4.4,4.4,0,0,0,34,64.74c.84,1.45,1.09,3.11.53,3.05ZM18.36,66.37l-.11-.92a11.05,11.05,0,0,0-1.92,4.17l-.42-.81a8,8,0,0,0-.18,4L15,72.34a8.4,8.4,0,0,0,2.76,6.9,5.37,5.37,0,0,0-3.43.56,6.51,6.51,0,0,0,2.31,3c-2.5,1.13-3.64,1.79-4.55,4.35l.66.35a6.93,6.93,0,0,0-1.08,4.33l.79-.6c.16,1.35.43,4.13,1.1,4.94l.52-.81c1.1,1.33,2.65,2.21,3.77,3.57.18-3.43-1.91-6.37-1.18-9.08C18,85,22.91,86,26.65,86.92c-1.46-.53-2.11-.83-3-1.23-.84-.56-2-1.08-2.25-2.2a4.43,4.43,0,0,1,.38-1.38c.91-.86,2-.3,3.09-.48l1.64.18A13.47,13.47,0,0,1,20.54,73c-.49-3,.16-6.42.4-9.37-.45,0-2.15,1.8-2.58,2.72Zm99.12,55.22c-1.35.26-3.35.77-4.06-.52-1.24-2.23,6.84-2.23,7.88-2.28l1.91-1.32c-2.31.2-12.34-.21-12,3.86.19,2.55,6,1.75,7.38,1.27a24.43,24.43,0,0,0,5.82-3.25c.54-.39,3.34-2.93,4.21-2.3,1.41,1-.25,2.64-4.89,4.72a115.52,115.52,0,0,1-47.63,9.77,115.56,115.56,0,0,1-47.63-9.77c-4.64-2.08-6.29-3.69-4.89-4.72.87-.63,3.67,1.91,4.22,2.3a24.39,24.39,0,0,0,5.81,3.25c1.41.48,7.19,1.28,7.38-1.27.31-4.07-9.72-3.66-12-3.86l1.91,1.32c1,0,9.12,0,7.89,2.28-.72,1.29-2.72.78-4.07.52-2.62-.5-10.23-8.19-12.54-5.41-1.94,2.35.8,4.55,5.22,6.65,14,6.68,31.86,10.48,48.73,10.48s34.71-3.8,48.74-10.48c4.42-2.1,7.16-4.3,5.21-6.65-2.31-2.78-9.91,4.91-12.54,5.41Zm16.18-15c2.05-2.22,10.37-5.68,12.52-2.69,2.62,3.65-2.65,8.54-5.36,10.12a62.32,62.32,0,0,1-8.31,3.83l-.52-1.21a32.61,32.61,0,0,0,7.59-3.55c2.53-1.69,5.71-4.18,5.26-7.6-1.07-3-7.75-.18-9.34,1.3l2,6.45-1.46.63Z"/><path class="cls-4" d="M67.66,4.24a20.2,20.2,0,0,1,3.81-.49v2.1a13.35,13.35,0,0,0-3.81.94V4.24Zm7.18-.31A25.69,25.69,0,0,1,79,4.87V7.32A17,17,0,0,0,74.84,6V3.93ZM79,10.41v2.12A33.14,33.14,0,0,0,74.84,12V9.07A17.52,17.52,0,0,1,79,10.41Zm-7.55,1.76a12.3,12.3,0,0,0-3.81,1.23V9.88a13.72,13.72,0,0,1,3.81-1Z"/><path class="cls-6" d="M79.49,5c2.18.7,4.39,1.62,6.8,2.6,6.45,2.62,12.3,2.32,18.84,1.39a24.47,24.47,0,0,1-18.84,4.92c-2.2-.3-4.49-.86-6.8-1.3V5ZM72.16,3.74c.67,0,1.34,0,2,.1v2.5A16.64,16.64,0,0,1,79,7.78V9.62a16.64,16.64,0,0,0-4.87-1.44V12a16.47,16.47,0,0,0-2,.09v-4a13.12,13.12,0,0,0-4.5,1V7.25a13.36,13.36,0,0,1,4.5-1Z"/></g></g></svg>