<svg xmlns="http://www.w3.org/2000/svg" width="304.41" height="340.41" viewBox="0 0 304.41 340.41"><g id="Layer_2" data-name="Layer 2"><g id="Layer_1-2" data-name="Layer 1"><path d="M0,0V112.7c0,88.43,32.78,143.66,60.28,174.43,32.73,36.61,70.59,53.28,91.93,53.28s59.19-16.67,91.92-53.28c27.5-30.77,60.28-86,60.28-174.43V0Z" fill="#112713"/><path d="M152.21,330.2c35.5,0,142-60.5,142-217.5V10.2h-284V112.7C10.21,269.7,116.71,330.2,152.21,330.2Z" fill="#03a550"/><path d="M280.53,27l-4.62-1.63a22,22,0,0,0-8.84-1.8h-.19c-1.34-2.37-4.29-4-8.63-4.59a28.16,28.16,0,0,0-22.9,7.45A86.44,86.44,0,0,0,219,48.34c-9.51,8.59-29.65,31.14-37.41,41.9l-.15.2-2.55,2c-12.17,15.15-53.29,61.6-78,89.13l-3.36,3.74.29,0-30.2,33.9c-4.24,4.24-6.1,5.75-11.71,7.13a24.91,24.91,0,0,1-5.22,1.25A26.51,26.51,0,0,0,56,229.56c5.83,1,11.21-.35,15.83-2a26.62,26.62,0,0,0-2.4,18.39c0,1.61,2.07,4.49,2.07,4.49a18,18,0,0,1,1.23-4.35c1.5-5.17,3.66-8.89,8.9-15.32,6.77-8.32,15.31-17.88,22.17-25.57,5.69-6.39,10.24-11.48,12.31-14.19l0,.12,2-2.41c9.69-11.45,14-15.82,24.81-19.89l3.67-.84c4.79.4,9.58.58,14.32.58l-4.88,9.14,4.8,18.47a54.47,54.47,0,1,0,19.93-3.79l-2.27,0c-1.43-6.53-2.75-12.57-2.87-13.13L183.16,167c15.18-2.11,29-6.38,39.8-12.52,23.73-13.52,37.35-33.35,42.86-62.4,2.6-13.69,3.13-28.26,3.13-41.69,0-3.11,0-6.16-.07-9.13V40.06a29.26,29.26,0,0,0,7.41-6.2c1.19-1.24,2.31-2.42,3.53-3.47L281.38,29l1.46-1.25Zm-165,152.61-.32-.17.43-.29C115.6,179.27,115.56,179.43,115.52,179.58Zm55.72,13.65-.32.06c-1,.19-2.06.42-3.07.67l-4-16,5.51-9.68c1.78-.09,3.55-.21,5.3-.36L168,178.14Z" fill="#2d4500"/><path d="M154.09,98.44a15.17,15.17,0,0,0-2-7.07l-1.76-3.31L149,91.56a7.14,7.14,0,0,1-1.3,2.1l-.47-.39c-2.56-2.21-6.72-5.77-18.4-4.07a13.8,13.8,0,0,1,.71-1.19l3.33-.29c6.38-.4,15.11-1,16.74-11.2l0-.16v-.17a9.63,9.63,0,0,0-3.85-7.27A11.83,11.83,0,0,0,142.15,67a35,35,0,0,1,8.7,2.25l2.76,1.36-.32-3.06c-.63-6.05-3.6-6.6-6.42-6.34h-.11l-2.48-1.55c-3.89-2.53-8.73-5.68-14.27-5.25a2.67,2.67,0,0,0-2.32,1.15,3,3,0,0,0-.48,1.69,5.85,5.85,0,0,0,.23,1.44,13.47,13.47,0,0,1-2.22-.21c-25.58-4.22-40.43-4.16-46.73.17a10.58,10.58,0,0,0-4.85,8.39,8.46,8.46,0,0,0,1.5,4.76,10,10,0,0,0,5.52,3.81,61.15,61.15,0,0,0-17.54,1.9l-.14,0-.13.06A20.4,20.4,0,0,1,58,79C60.17,74.9,64,67.52,65.22,63.09l.55-1.92-2-.24A9.42,9.42,0,0,0,59.31,62a14.34,14.34,0,0,0-.79-4.21l-.59-1.49-1.52.51a12.22,12.22,0,0,0-3.92,2.21,9,9,0,0,0-1-3.11l-2.27-4.46s-.71,3.94-.86,4.74a22,22,0,0,1-1.5,2,14.53,14.53,0,0,0-1.46,2C40.16,68,38.77,72.49,37.5,80.15v.21c0,.37,0,.73,0,1.1A35.38,35.38,0,0,0,38,87c-2.95.92-5.32,0-7-2.69s-.86-7.39-.16-11.09l.12-.68c.58-3.08,1.18-3.92,4-5.61,1.94-1.15,3.64-6,4-7.75l.81-4.09-3.44,2.35c-1.3.89-4.14,1.69-6.11,2.23a7.12,7.12,0,0,0-7-5.2l-3,0,1.52,2.61A8.49,8.49,0,0,1,22.72,61c-.42-.19-.93-.44-1.67-.86a1.93,1.93,0,0,0-2.55,0l-.55.57.09.8a27.92,27.92,0,0,0,1.13,6.22l-1.35-1.68-.72,3.56a14.67,14.67,0,0,0-.3,2.9,11.51,11.51,0,0,0,2.12,6.75,3.84,3.84,0,0,1-1-.39l-3.17-2,.58,3.7c.5,3.14,3.52,6.72,6.3,7.93a1,1,0,0,1-.1.22c-.09.09-.43.31-1.7.34l-2.75.07,1.3,2.43c2.23,4.19,7.22,6.69,13.36,6.72a18.6,18.6,0,0,0,7-1.27c-.34,2.25-1,3.91-2,4.65-.27.2-1.08.81-3,.28-5.51-1.5-6.93-2.49-7.28-2.85L26.37,99l-.19-.11c-4.1-2.41-7.64-1.43-10.85,0l-4.18,1.85L15.53,102a4.25,4.25,0,0,1,1.06.46l-4.76,2.43,3.06,1.45,1.82.95L9.47,112.7l6.34-.76c2.94-.35,5.32-.81,7.23-1.19a23.18,23.18,0,0,1,3.9-.57v0a10.88,10.88,0,0,1-.43,2.48L26,114.83h2.19c.06,0,5.14-.81,7.21-2.64l.66-.11a5.85,5.85,0,0,1,1.39-.23,2,2,0,0,1,.07.66v1.71h1.7c1.93,0,4.73-2.7,5.56-5a1.58,1.58,0,0,1,1,.21,3,3,0,0,1,1.12,2.68v2.58l2.37-1a10.57,10.57,0,0,0,6.14-8.36,16.59,16.59,0,0,0,.21-2.64,16.08,16.08,0,0,0-.27-2.83A41.84,41.84,0,0,0,87.14,94c3.27-2,6.09-3.63,10.78-4.21.58-.07,1.25-.07,1.88-.1a8.69,8.69,0,0,0-1.57.71,4.65,4.65,0,0,0-2.46,3.12,7.79,7.79,0,0,0-.41,2.4c0,2,1,4.3,4.14,6l.89.39a24.79,24.79,0,0,1,4.34,2.17c-1.87.13-6-2.67-7.56-3.69l-2.08-1.31c-2.12-1.06-9.22-2.66-11.83-1.88l-2.43.73,1.6,2a25.34,25.34,0,0,0,2.5,2.55l.35.33a21.16,21.16,0,0,0-6.88,2.24l-4.84,2.89,8.27.4,1,0a19.39,19.39,0,0,0-2.67,2.31l-1.51,1.58,1.91,1.08c5.7,3.2,14.34-.86,16.55-2,9.59,1.85,15.93.16,18.86-1.06l.33-.14.25-.25c2.28-2.37,3.81-6.64,5-10.07l.3-.83c9.14-2.25,14.42-3,15.68-2.18a.45.45,0,0,0,0,.11,9.78,9.78,0,0,0-1.34,4.43,4.23,4.23,0,0,0,.76,2.55c.67.92,2.07,1.82,4.7,1.57l.73,1a32,32,0,0,0,4.22,5.19l4.53,4-1.74-5.76-.67-1.93a13,13,0,0,1-.57-1.94,5.52,5.52,0,0,0,2.57-1A8.4,8.4,0,0,0,154.09,98.44Zm-55.49-35a3.73,3.73,0,0,0-1.88,3.07v.06a3.65,3.65,0,0,0,1.16,2.48,41,41,0,0,1-13.21-.65c-.65-.19-2-.72-2.11-1.72a.34.34,0,0,1,0-.1,3.29,3.29,0,0,1,2.07-2.49A38.47,38.47,0,0,1,97.13,62.4c8.25,0,17.17,1.16,25.79,2.24l10.52,1.25c1.82.19,3.88.43,5.95.71l-.37,0a36.74,36.74,0,0,0-8.57-.25,62.2,62.2,0,0,1-12.37-.34,49.67,49.67,0,0,1-6.81-1.52,30.26,30.26,0,0,0-11.79-1.4l-.48,0ZM99.37,76l26.26-2.19,1.43,0c3-.09,9.12-.28,11.81,1.06,1,.52,1.61.91,1.67,1.16,0,0,0,0,0,.08a3.77,3.77,0,0,1-.88,1.72C137.18,79.51,132,80,126.56,79A154.49,154.49,0,0,0,99.37,76Z" fill="#2d4500"/><path d="M48.48,28.09H38.4V22.55H19.49V52.41H80.13V41.08l12.85,0V52.41h61V22.55H135.08v5.54H124.82V22.55H105.9v5.54H96.38V22.55H76.73v5.54H67.57V22.55H48.48Zm0,7.54v5.22H47.25V35.63Zm77.56.24v5.22h-1.22V35.87Z" fill="#2d4500" fill-rule="evenodd"/><path d="M150.63,92.17c-.6,1.58-2.18,3.73-3.19,3.42-2.69-1.8-5.69-7.38-21.39-4.17a20.33,20.33,0,0,1,2.57-5c7.08-1,17.61.79,19.35-10.13-.19-5.66-6.4-8.46-9-7.91-5.26-1.12-11.94.73-21.12-.6-7.94-1.16-9.65-3.42-18.26-2.91-4.1,2.88,4.15,5.22,2.12,5.49-7.29,1-11,1-17.45-.27-5-1.45-4-5.78-.3-7.53A40.3,40.3,0,0,1,97.14,60.7c11.77.06,24.72,2.26,36.48,3.5,7.49.79,14.51,1.82,18,3.53-.61-5.88-3.41-4.84-5.26-4.77-4.14-2.31-9.87-7.41-16.32-6.84-2.15,0-.56,3.21-.31,4a9.72,9.72,0,0,1-4.77.1c-16.89-2.79-37.95-5.3-45.49-.11-2.88,2-5.87,6.35-2.9,10.8,2.77,4.14,9.94,4.27,15.72,4l33.27-2.77c2.23,0,10.43-.61,14.09,1.2,2.19,1.09,4,2.28,1.21,5.77-3.22,2.41-9.38,2.58-14.6,1.59a150.07,150.07,0,0,0-32.21-3c-11.79.18-17.57-1.65-30.5,1.55a22.88,22.88,0,0,1-8.43,1.77c0-.2,6.76-12.31,8.49-18.32C62,62.43,59,64.06,57.5,64.8A14.29,14.29,0,0,0,57,58.46c-3.12,1-4.59,3.16-6.19,4.38-.41-1.55.83-3-.76-6.12,0,.6-2.89,3.81-3.09,4.41-5,7.34-6.45,11.55-7.73,19.29a33.86,33.86,0,0,0,.68,7.74c-5.19,2.36-8.56,0-10.37-2.91-2.21-3.54-1-9-.27-13,.66-3.51,1.55-4.81,4.83-6.76,1.09-.65,2.75-4.46,3.19-6.62-1.92,1.31-6,2.25-8.13,2.88-.65-1.29-1-5.47-6-5.56,1.37,2.36,1.15,4,1.53,6.6-1,1.14-5.06-1.68-4.91-1.44.49,4.71.83,5.3,2.32,9.47-1.73.63-1.73,1.08-3.28-.86A10.38,10.38,0,0,0,23.22,81.2c-2.11.17-4.57.13-6.16-.87.53,3.37,4.43,7,6.43,7,.12,2.7-1,3.43-3.56,3.49,4.26,8,18.71,6.58,20.81,2.71,0,4.59-1,11.9-7.39,10.11-2.2-.6-6.63-1.89-8-3.28-3-1.79-5.65-1.54-9.3.07a4.7,4.7,0,0,1,3.27,2.67c-1.31.64-2.57,1.15-3.62,1.79l4.24,2.2-4.3,3.19c11.08-1.32,14.4-4.38,12.55,2.88.6,0,6.42-1.71,6.42-2.5,1.19,0,4.61-1.91,4.61,1.88,1.31,0,4.11-3,4.11-4.51,1.17-1.1,5.24-.68,5.24,4.11,7.09-3,5.62-13.43,3.94-15,2.94,1.57,12.24,2.86,20.19,1.07,12.94-2.91,15-8.9,25-10.13,3.65-.45,8.29-.24,14.78,1,2.91.48,4,3.59-.17,2.21-5.18-1.73-14.19-1-14.89,2.53-1.19,3.49.65,5.37,2.89,6.6.66.36,8.05,3,6.43,4.89C104,108.48,96.33,102,94.33,101s-8.58-2.37-10.58-1.77c1.9,2.33,4.48,3.83,4.48,5.23-2.21.27-6.32.86-9,2.43,3.45.26,6.77,0,7.87,1.18a23.88,23.88,0,0,0-5.7,4.17c5,2.82,13.65-1.22,15.42-2.28,8,1.65,14.36.85,18.51-.87,2.41-2.5,4-7.85,5.28-11.16,7.49-1.87,20.15-5,18.56-.1-2.24,4-1.71,7.25,3.3,6.23,1.2,1.45,2.88,4.43,5.32,6.75-.9-2.86-1.76-4-1.32-6.49C148.4,106.4,155.74,101.82,150.63,92.17ZM44.49,68.66a5.74,5.74,0,0,1,3.95,2.15c-.6,0-5.12,1-5.66,1ZM41,81.21c1.89-1.82,6.37-3.15,7.55-3.15a36.57,36.57,0,0,0,4.74,4.68C51,83,45.25,82,41,81.21Zm11.35-9.37c.6,0,4.83.27,5.37.32L56,75.29C54.82,75.29,53,73,52.31,71.84Z" fill="#ff0" fill-rule="evenodd"/><path d="M136.78,24.25v5.54H123.12V24.25H107.6v5.54H94.68V24.25H78.43v5.54H65.87V24.25H50.18v5.54H36.7V24.25H21.19V50.71H78.43V39.38l16.25,0V50.71h57.58V24.25Zm-86.6,18.3H45.55V33.93h4.63Zm77.56.24h-4.62V34.16h4.62Z" fill="#ff0" fill-rule="evenodd"/><path d="M179.55,194.09l1.32,0a52.87,52.87,0,1,1-9.64.9l3.48,16.39c-3.45,1.88-8.25.33-16,12.94,4.25-2.39,8.93-6.12,18.87-6.48,3.56,5.29,6.34,12.7,11.15,18.84a34.09,34.09,0,0,0-.9-16.34,63,63,0,0,1,17.82,10.42c-2.25-13.77-11.39-15-13.24-15.86,5.68-.28,10.64-.2,16.32-.59-5.06-6.18-16.48-5.45-26.11-5.28l-3.1-14.91Z" fill="#ff0" fill-rule="evenodd"/><path d="M102.17,182.65c26.77-29.86,66.14-74.4,78-89.19l-7.79,18.68c-13.67,17-37.86,43.51-55.07,63.24-4.2,4.48-10.32,6.35-15.15,7.27Z" fill="#ff0" fill-rule="evenodd"/><path d="M267.79,38.72c-.93-1.87-2-5.06-1.57-6.93l12.49-2.69c-3.69,3.18-6.54,7.48-10.92,9.62Z" fill="#ff0" fill-rule="evenodd"/><path d="M267.18,41.32c-2.47,11.68-7,22.35-20.94,21-14.86-1.58-13-15.86-11.91-25.15l1-.42c.21,7.85-1.11,19.75,9,22.8,10.5.18,18-2,22.12-20.22-3.15-5.36-1.71-8.87-.72-14.51-1.09-2.51-4.39-3.7-7.63-4.17a26.58,26.58,0,0,0-21.47,7A84.45,84.45,0,0,0,220.32,49.4c-9.16,8.22-29.51,30.93-37.38,41.83-2.05,6-6.21,15.17-8,20,13.41,5.92,29.12-1.25,38.63-13.14,15.38-1.22,29.33-5,40-10.66l-.16,2.73a57.09,57.09,0,0,1-10.45,5c-2.71,18-13.25,32.74-27.19,42.42-13.52,9.39-30.22,13.93-47,15.39-6.33,6.14-12.45,10.48-21.93,13.37,26,2.19,55.13-1.75,75.28-13.23,26.4-15,37.4-36.84,42-61.24C267.21,75.72,267.4,58.5,267.18,41.32Zm-27.72-5.6,7-1.13a7.82,7.82,0,0,1,15.63,0,7.83,7.83,0,0,1-7.82,7.7,8,8,0,0,1-7.45-5.33c-3.23-.27-6.12-.2-7.4-.38Z" fill="#ff0" fill-rule="evenodd"/><path d="M266.33,30a19.33,19.33,0,0,1,.76-4.74c4.54-.07,6.68,1.25,11,2.66L266.33,30Z" fill="#ff0" fill-rule="evenodd"/><path d="M165,124.13l8.38-10.23c6.1,2.62,23,7.12,41.38-12.73l4.62-.6C209.63,120,184.08,128.21,165,124.13Z" fill="#ff0" fill-rule="evenodd"/><path d="M153.47,137.79l9.81-11.26c15.49,1.67,27.1-.07,36.66-4.82a52.4,52.4,0,0,0,22.56-21.66l8.95-1.86c-16,41-62.61,43.57-78,39.6Z" fill="#ff0" fill-rule="evenodd"/><path d="M126.47,167.71l25.08-27.21c39.07,5.13,67.93-8.77,82.68-42.94L240.47,96c-7.07,34.33-37.56,52.23-72.68,54.64-8.5,8-16.28,14.93-41.32,17.08Z" fill="#ff0" fill-rule="evenodd"/><path d="M116.92,187.59c-1-3.5.24-7.52.9-10.18l7.54-8c6.09.1,11.41-1,17.07-2.15-11.07,4.18-15.66,8.75-25.51,20.38Z" fill="#ff0" fill-rule="evenodd"/><path d="M71.14,245.59A24.87,24.87,0,0,1,74,227.22L115.41,180c-1.13,4.6-1.32,7.43-.36,9.64-4.15,5.58-22.22,24.73-34.7,40-5.14,6.3-7.57,10.26-9.21,15.92Z" fill="#ff0" fill-rule="evenodd"/><path d="M56.33,227.89c5.94-1.46,8.08-3.15,12.57-7.65l32-35.92c4.2,0,7.94-.87,12.86-4.35L72.9,225.32c-4.88,1.91-10.52,3.61-16.57,2.57Z" fill="#ff0" fill-rule="evenodd"/><polygon points="162.5 195.4 157.95 177.9 162.66 169.08 167.04 169.01 162.06 177.76 166.26 194.61 162.5 195.4 162.5 195.4" fill="#ff0" fill-rule="evenodd"/><path d="M178.57,216.08c-6.86.09-10.29,1.73-15.2,3.79,3.8-3.71,7.3-5.63,13.84-7l-7.41-34.36L176,169l4.22-.46L173.92,179c2.21,10.37,4.82,21.75,7,32.11,19.27-1.57,23.62,1.37,24.34,1.65-3.85,1.09-12.14-.64-16.59.85-2,0,14.17,8.06,14.6,13.3,1.2.38-19-12.33-20-11.41,3.24,2.24,4.42,12.64,4.41,16.58-3.8-6.78-4.15-8.79-9.12-16Z" fill="#ff0" fill-rule="evenodd"/><path d="M254.4,28a6.51,6.51,0,1,0,6.73,6.51A6.63,6.63,0,0,0,254.4,28Zm-.52,11a4.65,4.65,0,1,1,4.82-4.65A4.74,4.74,0,0,1,253.88,38.93Z" fill="#ff0" fill-rule="evenodd"/><path d="M149.74,246.34l1.58-.18a1.46,1.46,0,0,0,1.62,1.06,2,2,0,0,0,1.33-.42,1.34,1.34,0,0,0,0-2.06,1.62,1.62,0,0,0-1.18-.43,2.37,2.37,0,0,0-1.53.64l-1.55-.25.87-3.79h5.16v1.22H152l-.37,1.59a3.42,3.42,0,0,1,1.84-.54,3.16,3.16,0,0,1,2.11.74,2.39,2.39,0,0,1-.15,3.79,4,4,0,0,1-2.44.76,3.78,3.78,0,0,1-2.15-.57,2.55,2.55,0,0,1-1.08-1.56Z" fill="#2d4500" fill-rule="evenodd"/><path d="M148.77,241.78a3.5,3.5,0,0,0-5,0,4.78,4.78,0,0,0,0,5.64,3.5,3.5,0,0,0,5,0,4.79,4.79,0,0,0,0-5.63Zm-2.52,5.44c-1.12,0-1.68-.87-1.68-2.62s.56-2.62,1.69-2.62,1.7.87,1.7,2.62S147.39,247.22,146.25,247.22Z" fill="#2d4500" fill-rule="evenodd"/><path d="M141.39,241.69a3.43,3.43,0,0,0-2.78-1,3.62,3.62,0,0,0-2.3.73,2.34,2.34,0,0,0-.91,1.92,2.19,2.19,0,0,0,.85,1.81,3.12,3.12,0,0,0,2,.67,3.08,3.08,0,0,0,2.33-1c-.05,1.58-.76,2.37-2.12,2.37-.69,0-1.12-.23-1.29-.7l-1.71.18c.31,1.18,1.3,1.77,3,1.77a3.51,3.51,0,0,0,2.86-1.17,4.52,4.52,0,0,0,1-3A3.76,3.76,0,0,0,141.39,241.69Zm-1.52,2.43a1.8,1.8,0,0,1-1.21.42c-1,0-1.54-.45-1.54-1.33a1.17,1.17,0,0,1,.43-.93,1.6,1.6,0,0,1,1.14-.38,2,2,0,0,1,1.18.34,1,1,0,0,1,.48.9A1.27,1.27,0,0,1,139.87,244.12Z" fill="#2d4500" fill-rule="evenodd"/><path d="M132.42,248.28v-5.16h-1.35v-1a3.73,3.73,0,0,0,1.76-1.38H134v7.55Z" fill="#2d4500" fill-rule="evenodd"/></g></g></svg>