<svg xmlns="http://www.w3.org/2000/svg" viewBox="0 0 129.76 155.07"><defs><style>.cls-1{fill:#fff;}.cls-2{fill:#23214e;}.cls-3{fill:#7a4615;}.cls-4{fill:#2d1a14;}.cls-5{fill:#008542;}.cls-6{fill:#a71a17;}.cls-7{fill:#603411;}</style></defs><g id="Layer_2" data-name="Layer 2"><g id="Layer_1-2" data-name="Layer 1"><path class="cls-1" d="M2.52,5.3,0,5.78V81.52a76.09,76.09,0,0,0,7.92,30.85A74.43,74.43,0,0,0,27,136.86c10,8.38,22.41,14.45,37,18l.3.07.51.12.67-.1.36-.09c14.58-3.57,27-9.64,37-18a74.53,74.53,0,0,0,19.06-24.49,76.18,76.18,0,0,0,7.92-30.86V5.78l-2.52-.48A376.08,376.08,0,0,0,64.88,0,376.54,376.54,0,0,0,2.52,5.3Z"/><path class="cls-2" d="M126.93,6.91a367.93,367.93,0,0,0-124.1,0l-1.19.23V81.52a74.24,74.24,0,0,0,7.75,30.13A73.12,73.12,0,0,0,28,135.6c9.77,8.23,22,14.18,36.31,17.68l.3.08.19,0,.28,0,.29-.08c14.34-3.5,26.55-9.45,36.31-17.68a73,73,0,0,0,18.65-23.95,74.24,74.24,0,0,0,7.75-30.14V7.14Z"/><path class="cls-1" d="M99.82,133.34l-.59.48V52.66H84.89v90.43a90.19,90.19,0,0,1-12.58,5.15V52.66H56.92v95.4A90.43,90.43,0,0,1,44,142.65v-90H29.65v80.43a69.57,69.57,0,0,1-12.56-14V52.66H4.6V9.6a374.55,374.55,0,0,1,60.28-5,375.67,375.67,0,0,1,60.28,5V52.66h-13v67.17A69.61,69.61,0,0,1,99.82,133.34Z"/><path class="cls-2" d="M22.37,38.21l-3.48-9-3.55,9.05ZM17.26,24.44h3.48L30.48,46.7h-4.6l-2.11-5.09H14l-2,5.09H7.42l9.84-22.26Zm14.78,0h4V43.12h9.61V46.7H32V24.44ZM51.69,43.31h3.7c2.07,0,5-.35,5-3.27,0-2.33-1.53-3.15-4.79-3.15H51.69v6.42Zm0-9.81h3.67c2.68,0,4-1.13,4-2.8,0-1.92-1.34-2.86-4.37-2.86H51.69V33.5Zm-4-9.06h8.81c3.42,0,6.94,1.54,6.94,5.6a5,5,0,0,1-3.93,4.87V35a5.34,5.34,0,0,1,4.89,5.38c0,4.84-4.29,6.35-8.57,6.35H47.66V24.44Zm18.68,0h4V46.7h-4V24.44ZM84.48,43.68c4.7,0,7.79-3.52,7.79-8.27a7.78,7.78,0,1,0-15.55,0c0,4.75,3.1,8.27,7.76,8.27Zm0-19.8c7.06-.13,12,4.53,12,11.66,0,7-5,11.6-12,11.73s-12-4.65-12-11.6c0-7.14,5-11.79,12-11.79Zm14.28.56h5.33L115,41l.07.06H115l.07-.06V24.44h4V46.7H114L102.81,29.63h-.06V46.7h-4Z"/><path class="cls-2" d="M7.82,12.54H9.55l1.67,6.3h0l2-6.3H14.8l2,6.3h0l1.75-6.3h1.6l-2.58,8.75H16L14,14.63h0L11.9,21.29H10.45L7.82,12.54Zm13.62,0h5.88V14H23V16.1H27.1v1.41H23v2.37h4.53v1.41H21.44V12.54Zm12.33,1.88a1.88,1.88,0,0,0-1.55-.69c-.73,0-1.46.32-1.46,1.12,0,1.76,4.22.75,4.22,3.87,0,1.88-1.51,2.79-3.25,2.79a3.7,3.7,0,0,1-2.92-1.19L30,19.19a2.1,2.1,0,0,0,1.76.91c.72,0,1.55-.39,1.55-1.2,0-1.91-4.21-.81-4.21-3.94,0-1.8,1.63-2.64,3.27-2.64a3.69,3.69,0,0,1,2.55.9l-1.16,1.2Zm5-.47H36V12.54h7V14H40.33v7.34H38.75V14Zm11.31,6h1.46c.81,0,1.94-.13,1.94-1.28,0-.91-.6-1.24-1.88-1.24H50.06V20Zm0-3.85H51.5c1.06,0,1.59-.44,1.59-1.1s-.53-1.12-1.73-1.12h-1.3V16.1Zm-1.58-3.56H52c1.34,0,2.71.61,2.71,2.2a1.94,1.94,0,0,1-1.54,1.91v0A2.09,2.09,0,0,1,55,18.79c0,1.9-1.68,2.5-3.36,2.5h-3.2V12.54Zm11.07,3.71c.89,0,1.93-.08,1.93-1.21s-1-1.16-1.8-1.16H58.32v2.37Zm-2.81-3.71h3.08c1.71,0,3.32.54,3.32,2.51a2.25,2.25,0,0,1-2.06,2.37l2.36,3.87H61.53l-2.06-3.71H58.32v3.71H56.74V12.54ZM68.87,20.1a3,3,0,0,0,3.07-3.25,3.06,3.06,0,1,0-6.12,0,3,3,0,0,0,3.05,3.25Zm0-7.78a4.38,4.38,0,0,1,4.73,4.58,4.5,4.5,0,0,1-4.73,4.61A4.42,4.42,0,0,1,64.16,17a4.44,4.44,0,0,1,4.7-4.63Zm6.21.22h2.41l2.37,6.13,2.4-6.13h2.38v8.75h-1.5V14h0l-2.7,7.27H79.3L76.6,14h0v7.27H75.07V12.54Zm10.9,0h1.74l1.66,6.3h0l2-6.3H93l2,6.3h0l1.74-6.3h1.6L95.7,21.29H94.2l-2.06-6.66h0l-2.06,6.66H88.6L86,12.54Zm13.52,0h1.58v8.75H99.49V12.54Zm9.62,2.05a2.41,2.41,0,0,0-1.86-.86,3,3,0,0,0-3,3.12,3,3,0,0,0,3,3.25,2.51,2.51,0,0,0,2-1.06l1.3.91a3.93,3.93,0,0,1-3.31,1.56A4.42,4.42,0,0,1,102.54,17a4.44,4.44,0,0,1,4.69-4.63,3.86,3.86,0,0,1,3.11,1.38l-1.23.89Zm2.82-2.05h1.58V16h4.15V12.54h1.58v8.75h-1.58V17.43h-4.15v3.86h-1.58Z"/><path class="cls-1" d="M80.18,104a4.2,4.2,0,0,1-1.48,1.39,16.24,16.24,0,0,0-4.65,2.93,20.15,20.15,0,0,1,1.32-1.8s.76-.83.94-1c.54-.56,2.27-2,3.72-2.08h.08l.09,0s.17,0,.48,0l-.5.6ZM63.63,117.82a3.87,3.87,0,0,0-.81-2c.37-.33,2-1.83,3.73-3.34-.59,1.7-1.24,3.52-1.69,4.49l-.36.78c-.32,0-.61.08-.87.1Zm-5.93-3.54c0,.19.1.36.15.53a3.78,3.78,0,0,1,1.41-.5l.42-.6a43.76,43.76,0,0,1,5.58-6.5c-2-.29-4.35-.7-5.08-.82a29.26,29.26,0,0,1-13.5-4.84l1.19,1.39a9.27,9.27,0,0,0,2.2,1.32h0a14.46,14.46,0,0,1,7.59,10ZM91.17,127l0-.26a11.49,11.49,0,0,0-1.85-3.9c2.67-.39,5.91-1.36,7.41-3.61l.37-.56-.4-.54c-1.67-2.2-5.05-3.07-7.72-3.42a9.75,9.75,0,0,0,1.46-3.2l.29-1.32a7.1,7.1,0,0,1-1.44.19,6.49,6.49,0,0,1-.82,0,16.07,16.07,0,0,0-3.16,0,10.05,10.05,0,0,0-2.81.7,10.47,10.47,0,0,0,.46-2.75c0-.12,0-.24,0-.34a33,33,0,0,0-1.1-4.06l-.3-.57a19,19,0,0,1,4.33.53,103.19,103.19,0,0,1,13,5.06c.25.13,7,3.62,12,.84a3.41,3.41,0,0,0,.86-1.12l-3.69-1.92a10.6,10.6,0,0,0,4.13-.29,5.51,5.51,0,0,0-2.68-3.67,4.58,4.58,0,0,0,2.68-.38,7.87,7.87,0,0,0-.44-1c-.1-.12-1.61-2.88-6.39-4.91a1.25,1.25,0,0,0,.16-.47c0,.06,0,.14,0,.14a1.2,1.2,0,0,0,.09-.43c0-.82-1-3-8.25-6.42l0,0,0,0a56.71,56.71,0,0,0-8.32-3c-2-1.65-17.2-13.65-36.29-17.6-.76-1.08-2.93-4.14-4-5.33-.4-.53-4-5.13-9.66-5.06a13,13,0,0,0-5.11,1.17,2.42,2.42,0,0,1-1.16-.28c-2.95-1.65-5.22-2.78-5.24-2.79l-.12-.07-.13,0a1.56,1.56,0,0,0-1.82.64,1.59,1.59,0,0,0,0,1.63h0a30.76,30.76,0,0,0,2.26,3.17,12,12,0,0,0-3.75.09h0l-.05,0h0a1.56,1.56,0,0,0-1.1.86,1.51,1.51,0,0,0-.13.6,1.77,1.77,0,0,0,.27.91l0,0c.1.18.4.73,2.13,1.52s4.68,2.56,4.93,2.72c1.38.94,2.67,5,3.15,7.28v0c1.19,4.63,2.34,8.22,2.63,9.2,1.16,3.88,3.68,11.27,10.7,16.35l-.09,2.26c0,.68-.11,2.56-.19,3.15a3.92,3.92,0,0,0,0,.73,11.49,11.49,0,0,0,.27,2.32,9,9,0,0,0-2.47-.8,14.5,14.5,0,0,0-2.95-.19,6.58,6.58,0,0,1-.72,0,4.57,4.57,0,0,1-1.37-.49l.15,1.53a9.75,9.75,0,0,0,1.18,3.3c-2.5.21-5.69.91-7.38,3l-.39.49.3.55c1.28,2.37,4.25,3.5,6.65,4a10.13,10.13,0,0,0-1.67,2.94l-.33,1.1s.93,0,1.48.15a3.88,3.88,0,0,1,.59.11,14.72,14.72,0,0,0,2.94.31,9.84,9.84,0,0,0,2.95-.44,5.49,5.49,0,0,0,0,.7,10.84,10.84,0,0,0,.16,1.63l.09.73c0,.62-.15,2.44-.26,3.08l0,2,1.21-1.1a11.3,11.3,0,0,1,2.53-1A12,12,0,0,0,53,129.15a13.68,13.68,0,0,0-.31,2.82,16.81,16.81,0,0,0,.1,1.83,14.63,14.63,0,0,1,.18,2.08,2.6,2.6,0,0,1,0,.59l-.2,2,1.64-.93c.59-.4,2.24-1.49,2.77-1.75a10.56,10.56,0,0,0,2.47-1.94,8.65,8.65,0,0,0,.75,2.45,12.8,12.8,0,0,0,1.52,2.48,4.38,4.38,0,0,1,.39.59,9.35,9.35,0,0,1,.58,1.3l1-.9A9.59,9.59,0,0,0,66,136.88c1.61,1.91,4,4.1,6.79,4.24l.6,0,.28-.54a6.11,6.11,0,0,0,.69-3,12.86,12.86,0,0,0-1.09-4.73,10.9,10.9,0,0,0,3.45-.3l1.58-.43s.4.08.32,0a7.6,7.6,0,0,0,1.08.44,12.15,12.15,0,0,1,2.61,1.14l1.53.93,0-1.74c-.06-.62-.19-2.3-.19-3v-.25a9.55,9.55,0,0,0-.63-2.93,10.56,10.56,0,0,0,2.82.53,16.69,16.69,0,0,0,3.15-.15,5,5,0,0,1,.57-.08A8.73,8.73,0,0,1,91.17,127Z"/><path class="cls-1" d="M34.86,68.29c6.83,2.37,1.08-1.72,1.08-1.61C38.25,68.57,34.86,68.29,34.86,68.29Z"/><path class="cls-1" d="M37.79,69.77A11.25,11.25,0,0,1,34.62,69l.29-1.43a5.31,5.31,0,0,0,.9,0,3.73,3.73,0,0,0-.33-.29L35.22,67l0-.87L35.7,66c.38-.13.61,0,1.56.72A7.87,7.87,0,0,1,38.62,68a1,1,0,0,1-.83,1.79Z"/><path class="cls-1" d="M37.74,66.19a1.53,1.53,0,0,1,1.51-1.61A3,3,0,0,1,42.12,66a11.5,11.5,0,0,1,.81,2.15s.25.66-.36.36a7.16,7.16,0,0,0-3.31-.94A1.54,1.54,0,0,1,37.74,66.19Z"/><path class="cls-1" d="M38.47,66.15Zm0,0a.8.8,0,0,0,.84.73,8.59,8.59,0,0,1,2.61.54,8,8,0,0,0-.44-1,2.28,2.28,0,0,0-2.16-1.09c-.76.08-.86.55-.85.84Zm4.36,3.21a1.38,1.38,0,0,1-.59-.15l-.18-.1a6.26,6.26,0,0,0-2.85-.76,2.25,2.25,0,0,1,0-4.5,3.77,3.77,0,0,1,3.58,1.83,11.14,11.14,0,0,1,.87,2.3,1.05,1.05,0,0,1-.21,1.16A.87.87,0,0,1,42.83,69.36Z"/><path class="cls-1" d="M39.79,66a.53.53,0,1,1-1,0,.53.53,0,0,1,.49-.58A.55.55,0,0,1,39.79,66Z"/><path class="cls-1" d="M39.06,66.06a.17.17,0,0,0,0,.11.22.22,0,0,0,.16,0c.11,0,.21-.09.2-.18a.18.18,0,0,0-.21-.17.24.24,0,0,0-.16.07.15.15,0,0,0,0,.12Zm.21,1.28A1.29,1.29,0,0,1,38,66.12a1.27,1.27,0,0,1,1.19-1.36,1.2,1.2,0,0,1,.89.32,1.27,1.27,0,0,1,.43.9,1.32,1.32,0,0,1-.33,1,1.2,1.2,0,0,1-.86.4Z"/><path class="cls-1" d="M79,90.64c7.46,1.12,5-2.25,5-2.3,3.93,1,4.27,2.58,4.32,2.63A12.22,12.22,0,0,1,79,90.64Z"/><path class="cls-1" d="M83.44,88.85l0,0,0,0Zm1.68.6a1.73,1.73,0,0,1-.18.84,1.84,1.84,0,0,1-.64.72,10.14,10.14,0,0,0,2.85-.42,5.69,5.69,0,0,0-2-1.14Zm-1,3a11.79,11.79,0,0,0,4.41-.84l1.07-.44-.74-.68c-.43-.92-1.62-2.14-4.75-2.9L81.52,87l1.9,1.84c.11.17.33.61.2.83s-.64.84-4.52.25l-.44,1.38A13.22,13.22,0,0,0,84.16,92.49Z"/><path class="cls-1" d="M41.81,76c.29.67.29,1.3,0,1.42s-.72-.34-1-1-.29-1.3,0-1.41S41.53,75.3,41.81,76Z"/><path class="cls-1" d="M41.73,78.13c-.59,0-1.2-.54-1.59-1.47A2.52,2.52,0,0,1,40,74.85a1,1,0,0,1,.54-.57c.71-.29,1.5.27,2,1.39a2.59,2.59,0,0,1,.17,1.82,1.06,1.06,0,0,1-.55.57A1.16,1.16,0,0,1,41.73,78.13Z"/><path class="cls-1" d="M44.34,80.21c.5.69.68,1.4.4,1.59s-.9-.22-1.39-.92-.67-1.4-.4-1.59S43.85,79.52,44.34,80.21Z"/><path class="cls-1" d="M44.59,82.58a2.54,2.54,0,0,1-1.84-1.27,2.83,2.83,0,0,1-.64-1.94,1,1,0,0,1,.43-.68c.66-.45,1.6,0,2.4,1.09h0a2.91,2.91,0,0,1,.64,1.94,1,1,0,0,1-.43.69A1,1,0,0,1,44.59,82.58Z"/><path class="cls-1" d="M47.53,84.69c.68.92.95,1.85.61,2.09s-1.15-.31-1.83-1.23-1-1.84-.61-2.08S46.86,83.78,47.53,84.69Z"/><path class="cls-1" d="M46.72,84.85a2.11,2.11,0,0,0,.18.27l.23.28-.19-.27h0l-.22-.28ZM48,87.57A3.4,3.4,0,0,1,45.72,86a3.91,3.91,0,0,1-.88-2.39,1.09,1.09,0,0,1,.43-.73c.89-.62,2.09.36,2.85,1.39A3.84,3.84,0,0,1,49,86.64a1,1,0,0,1-1,.93Z"/><path class="cls-1" d="M51.4,89.45c.67.91,1,1.84.61,2.08s-1.15-.31-1.83-1.22-1-1.85-.61-2.08S50.73,88.53,51.4,89.45Z"/><path class="cls-1" d="M50.59,89.61l.18.26.22.28a2,2,0,0,0-.18-.26h0l-.22-.27Zm1.23,2.72a3.43,3.43,0,0,1-2.23-1.58,3.88,3.88,0,0,1-.88-2.4,1.13,1.13,0,0,1,.44-.73C50,87,51.23,88,52,89a3.9,3.9,0,0,1,.88,2.39,1.06,1.06,0,0,1-.44.73A1,1,0,0,1,51.82,92.33Z"/><path class="cls-1" d="M57.27,99.1c1.23.62,2,1.48,1.82,1.91s-1.41.29-2.64-.33-2-1.48-1.82-1.92S56.05,98.48,57.27,99.1Z"/><path class="cls-1" d="M55.68,99.29a4.61,4.61,0,0,0,1.1.73,5,5,0,0,0,1.26.46A4.85,4.85,0,0,0,57,99.76h0a5.22,5.22,0,0,0-1.26-.46ZM58.45,102a5.59,5.59,0,0,1-2.34-.67c-.43-.22-1.86-1-2.18-2a1.16,1.16,0,0,1,0-.89c.56-1,2.31-.64,3.62,0,.44.21,1.88,1,2.2,2a1.13,1.13,0,0,1-.07.9A1.32,1.32,0,0,1,58.45,102Z"/><path class="cls-1" d="M56.56,93.52c1.08.85,1.71,1.85,1.39,2.23s-1.44,0-2.52-.84-1.71-1.84-1.4-2.22S55.47,92.68,56.56,93.52Z"/><path class="cls-1" d="M54.94,93.4a4.83,4.83,0,0,0,.94.93A4.9,4.9,0,0,0,57,95a5.13,5.13,0,0,0-.94-.93h0a4.9,4.9,0,0,0-1.16-.7Zm2.61,3.24A4.86,4.86,0,0,1,55,95.49a4.19,4.19,0,0,1-1.74-2.4,1.15,1.15,0,0,1,.23-.87c.71-.86,2.29-.26,3.55.73a4.51,4.51,0,0,1,1.75,2.39,1.18,1.18,0,0,1-.24.87A1.21,1.21,0,0,1,57.55,96.64Z"/><path class="cls-1" d="M62.81,96.94c1.21.66,2,1.53,1.76,2s-1.43.25-2.64-.4-2-1.54-1.75-2S61.59,96.29,62.81,96.94Z"/><path class="cls-1" d="M61.21,97.09a4.89,4.89,0,0,0,1.07.76,5.22,5.22,0,0,0,1.25.49,5.18,5.18,0,0,0-1.07-.75,4.92,4.92,0,0,0-1.25-.5ZM64,99.87a5.45,5.45,0,0,1-2.39-.73c-.42-.23-1.84-1.06-2.13-2.08a1.09,1.09,0,0,1,.09-.89c.57-1,2.31-.58,3.62.13h0c.42.23,1.84,1.06,2.13,2.07a1.13,1.13,0,0,1-.08.89A1.32,1.32,0,0,1,64,99.87Z"/><path class="cls-3" d="M34.86,68.29c6.83,2.37,1.08-1.72,1.08-1.61C38.25,68.57,34.86,68.29,34.86,68.29Z"/><path class="cls-4" d="M37.74,66.19a1.53,1.53,0,0,1,1.51-1.61A3,3,0,0,1,42.12,66a11.5,11.5,0,0,1,.81,2.15s.25.66-.36.36a7.16,7.16,0,0,0-3.31-.94A1.54,1.54,0,0,1,37.74,66.19Z"/><path class="cls-1" d="M39.79,66a.53.53,0,1,1-1,0,.53.53,0,0,1,.49-.58A.55.55,0,0,1,39.79,66Z"/><path class="cls-4" d="M40.35,80.18c.35.83.36,1.62,0,1.76s-.91-.42-1.27-1.26-.37-1.62,0-1.76S40,79.34,40.35,80.18Z"/><path class="cls-4" d="M41.81,76c.29.67.29,1.3,0,1.42s-.72-.34-1-1-.29-1.3,0-1.41S41.53,75.3,41.81,76Z"/><path class="cls-4" d="M44.34,80.21c.5.69.68,1.4.4,1.59s-.9-.22-1.39-.92-.67-1.4-.4-1.59S43.85,79.52,44.34,80.21Z"/><path class="cls-4" d="M42.89,85.61c.55,1,.71,1.94.35,2.14s-1.11-.45-1.67-1.43-.71-1.95-.34-2.14S42.33,84.62,42.89,85.61Z"/><path class="cls-4" d="M47.53,84.69c.68.92.95,1.85.61,2.09s-1.15-.31-1.83-1.23-1-1.84-.61-2.08S46.86,83.78,47.53,84.69Z"/><path class="cls-4" d="M51.4,89.45c.67.91,1,1.84.61,2.08s-1.15-.31-1.83-1.22-1-1.85-.61-2.08S50.73,88.53,51.4,89.45Z"/><path class="cls-4" d="M41.84,91.83c.64,1.07.92,2.06.63,2.22s-1-.56-1.66-1.63-.91-2.06-.63-2.23S41.21,90.76,41.84,91.83Z"/><path class="cls-4" d="M46,97.05c.9.86,1.42,1.78,1.15,2S46,98.86,45.07,98s-1.42-1.78-1.15-2S45.13,96.18,46,97.05Z"/><path class="cls-4" d="M51.41,100.93c1.13.57,1.9,1.29,1.72,1.62s-1.22.13-2.34-.44-1.89-1.28-1.71-1.61S50.3,100.37,51.41,100.93Z"/><path class="cls-4" d="M57.27,99.1c1.23.62,2,1.48,1.82,1.91s-1.41.29-2.64-.33-2-1.48-1.82-1.92S56.05,98.48,57.27,99.1Z"/><path class="cls-4" d="M46.3,90.8c.9,1,1.32,2.13.94,2.45S45.82,93,44.92,92s-1.31-2.12-.93-2.44S45.41,89.77,46.3,90.8Z"/><path class="cls-4" d="M51.15,95.72c1.07.86,1.67,1.88,1.35,2.25s-1.44,0-2.51-.89-1.66-1.87-1.35-2.25S50.09,94.86,51.15,95.72Z"/><path class="cls-4" d="M56.56,93.52c1.08.85,1.71,1.85,1.39,2.23s-1.44,0-2.52-.84-1.71-1.84-1.4-2.22S55.47,92.68,56.56,93.52Z"/><path class="cls-4" d="M62.81,96.94c1.21.66,2,1.53,1.76,2s-1.43.25-2.64-.4-2-1.54-1.75-2S61.59,96.29,62.81,96.94Z"/><path class="cls-4" d="M63.91,101.1c1.19.23,2.08.74,2,1.14s-1.12.54-2.31.31-2.08-.74-2-1.14S62.72,100.87,63.91,101.1Z"/><path class="cls-4" d="M58,103.12c1.21.16,2.14.6,2.08,1s-1.07.55-2.27.39-2.14-.61-2.08-1S56.84,103,58,103.12Z"/><path class="cls-4" d="M69.34,100c1.06.21,1.87.63,1.8,1s-1,.41-2,.2-1.88-.63-1.81-.94S68.27,99.79,69.34,100Z"/><path class="cls-4" d="M39.1,86.11c.37.93.45,1.77.19,1.87s-.76-.59-1.12-1.52-.45-1.78-.19-1.87S38.74,85.17,39.1,86.11Z"/><path class="cls-5" d="M85.24,115.43c.4-.43,2-.39,2-.39,1.58-1.08,2.2-3.76,2.2-3.76a5.45,5.45,0,0,1-1.14,0,15.1,15.1,0,0,0-3,0,9.31,9.31,0,0,0-5.56,2.56,3,3,0,0,1,1.12-1.55,9.93,9.93,0,0,0,1-4.25,14.82,14.82,0,0,0-1-3.58,5.23,5.23,0,0,1-1.86,1.74,13.72,13.72,0,0,0-8.28,9,8.55,8.55,0,0,1-1.12,2.17,13.48,13.48,0,0,1,3.1.66,77.77,77.77,0,0,1,18.72.84,132.16,132.16,0,0,0-16.61.07,17.09,17.09,0,0,1,2.15,1.34l.06,0,0,0c.59.52,1.5,1,1.9,1.35l1.78.91-1.66.95c-.54.27-2.07,1.06-2.63,1.41a10.24,10.24,0,0,1-2.88,1,8.76,8.76,0,0,1,1.69,1.82,14.69,14.69,0,0,1,1.33,2.31A16.86,16.86,0,0,0,80,131.74a13.32,13.32,0,0,1,2.9,1.3s-.23-2.46-.2-3.29a8.75,8.75,0,0,0-1.31-4.19,3.16,3.16,0,0,1-1.23-1.49,9.41,9.41,0,0,0,5.72,2.25,15.42,15.42,0,0,0,3-.14,5.26,5.26,0,0,1,1.13-.05s-.8-2.64-2.44-3.63c0,0-1.51.06-1.94-.34,0,0,7.9.17,10.32-3.47h0C93.24,115.2,85.24,115.43,85.24,115.43Z"/><path class="cls-5" d="M74.62,128.44a8.43,8.43,0,0,0-4.74-3.26,3.25,3.25,0,0,1,1.9.17,9.75,9.75,0,0,0,4.3-1.16c.71-.45,2.93-1.51,2.93-1.51a10.6,10.6,0,0,1-2.5-1.61c-4.56-3.37-8.59-3-11.74-2.43-.43.07-.82.11-1.18.14a3.79,3.79,0,0,1-1.08,2.14,3.49,3.49,0,0,1-.72.56c2.44,6.37,9.06,15.24,9.06,15.24a64.86,64.86,0,0,1-10.17-14.79,4.51,4.51,0,0,1-.53.1,3.75,3.75,0,0,1,.45,1.7,3.89,3.89,0,0,1-6,3.31,12.64,12.64,0,0,0-.89,6.65,11.58,11.58,0,0,1,.1,3s2.18-1.46,2.88-1.81a9.73,9.73,0,0,0,3.22-3,3.1,3.1,0,0,1,.83-1.68,8,8,0,0,0,.44,5.64,12.52,12.52,0,0,0,1.42,2.31,4.15,4.15,0,0,1,.54.88s2-1.88,2.23-3.66c0,0-.82-1.24-.65-1.77,0,0,3.67,6.31,8,6.55h0c2-3.77-2-9.78-2-9.78.56.12,1.23,1.32,1.23,1.32,1.66.76,4.36,0,4.36,0a4.07,4.07,0,0,1-.5-.9A12.2,12.2,0,0,0,74.62,128.44Z"/><path class="cls-5" d="M52.81,123.74a3.72,3.72,0,0,1,.5-1.77,3.9,3.9,0,0,1-3.59-3.87c0-.15,0-.3,0-.44-6.07-.64-12.33-.58-12.33-.58A61.87,61.87,0,0,1,50,116.76a3.9,3.9,0,0,1,3.65-2.55,3.86,3.86,0,0,1,3.09,1.61,3.46,3.46,0,0,1,.35-.4c-.1-.27-.19-.57-.28-.89-.81-3-2.09-6.76-7.11-9.41a10.7,10.7,0,0,1-2.52-1.57s-.1,2.49-.21,3.25a9.46,9.46,0,0,0,.7,4.3,3.07,3.07,0,0,1,1,1.61,8.39,8.39,0,0,0-5-2.85,13.12,13.12,0,0,0-2.75-.19,4.62,4.62,0,0,1-1.05-.06s.42,2.7,1.81,3.87c0,0,1.51,0,1.86.49,0,0-7.39-.66-10.06,2.69h0c2,3.77,9.33,4,9.33,4-.42.37-1.82.23-1.82.23-1.57.9-2.47,3.49-2.47,3.49a4.29,4.29,0,0,1,1,.12,13.53,13.53,0,0,0,2.74.3,8.5,8.5,0,0,0,5.42-1.94,3.09,3.09,0,0,1-1.22,1.42c-.9,1.28-.08,3.61-.11,4.52a9.84,9.84,0,0,1-.54,2.8,13,13,0,0,1,2.85-1.22,9.55,9.55,0,0,0,5.43-3.8A3.9,3.9,0,0,1,52.81,123.74Z"/><path class="cls-6" d="M50.43,118.1a3.19,3.19,0,0,0,3.19,3.19h.11l1-.12-.51.67a3.18,3.18,0,1,0,5.14.08l-.46-.64.87.09a3.19,3.19,0,1,0,0-6.37A3.15,3.15,0,0,0,57,116.58l-.31.54-.31-.55a3.18,3.18,0,0,0-6,1.53Z"/><path class="cls-1" d="M52.83,117.13c-.39.53-.92.81-1.19.61s-.17-.8.22-1.34.93-.81,1.2-.61S53.22,116.59,52.83,117.13Z"/><path class="cls-1" d="M58.89,117.24c-.4.54-.93.81-1.2.61s-.16-.8.23-1.34.93-.81,1.19-.61S59.28,116.7,58.89,117.24Z"/><path class="cls-1" d="M56,122.62c-.39.54-.93.8-1.19.6s-.17-.8.22-1.33.93-.81,1.2-.61S56.35,122.08,56,122.62Z"/><path class="cls-7" d="M111.27,106.18s-.54-2.72-5.16-4.45a13.09,13.09,0,0,0,5.22.34,17.44,17.44,0,0,0-7.13-4.72s-6.85-2.68-7.61-3c0,0,5.23,1.3,6.87,1.61,0,0,.83.24.79-.17,0,0,.09-1.58-7.61-5.43a56,56,0,0,0-8.38-3S72.05,73.78,51.81,69.75c0,0-3-4.32-4.25-5.64,0,0-3.44-4.69-8.73-4.62A11.42,11.42,0,0,0,34,60.64a3.52,3.52,0,0,1-2.07-.44c-2.93-1.63-5.16-2.75-5.16-2.75-.87-.2-.45.56-.45.56.48.94,3.85,5.18,3.85,5.18C25,62.53,24,63,24,63c-.56.11-.24.61-.24.61.2.39,1.57,1,1.57,1,2,.91,5.11,2.81,5.11,2.81,2.29,1.57,3.65,8,3.65,8,1.32,5.18,2.75,9,2.75,9,.24.38-.16-1.47-.16-1.47-.14-.45-.52-1.88-.52-1.88-.59-2.5-1.3-5.89-1.3-5.89-1.05-6-3.13-7.93-3.13-7.93-.8-1-6.25-3.55-6.25-3.55,1.53-.18,7.39.84,7.39.84l-4.41-5.11,2.95,1.71a10.68,10.68,0,0,0,1.67.76,2.64,2.64,0,0,1,.59,1.32s.14,1,1.6,1a13.34,13.34,0,0,0,2.5-.49,9.51,9.51,0,0,1,5.35.45s2.47.73,3.17,2c0,0,.38.62-.35.73a5.14,5.14,0,0,1-2.47-.21l.07.17a5.31,5.31,0,0,1,3.62,5.7s-.18,1.91-.25,2.57c0,0-.8,4.14,2.26,6.64a4.92,4.92,0,0,1,.42-3.72,15.83,15.83,0,0,0,9,12.93s10.91,6,22.8,4.38a31.34,31.34,0,0,1-13,.59s-3-.51-3.54-.65a50.56,50.56,0,0,0-5.08-.67s-.11.1.21.17a92.21,92.21,0,0,0,9.76,3s3.65,1,4.45,1.25c0,0,1.43.32,1,1.26,0,0-2.54,4.9-15.08,4.9,0,0,2.7.52,5.17.87a6.21,6.21,0,0,1,2.26.72,43.61,43.61,0,0,0-6.84,7.61,3.65,3.65,0,0,1,1.28.63s4.52-4.21,7-6.08c0,0-2,6.32-3,8.51,0,0,1.6-.14,1.77-.14,0,0,5-10.15,7.75-12.58,0,0,2.26-2.32,4.52-2.43a16.09,16.09,0,0,1,6.15.45,104.35,104.35,0,0,1,13.17,5.14s6.43,3.38,10.87.87c0,0-6.63-3.4-7.85-4.06A21.08,21.08,0,0,0,111.27,106.18Z"/><path class="cls-1" d="M52.29,78.31s1.64,1.48,2.82.29a12.13,12.13,0,0,0,2.74,5.31S54.36,83.7,52.29,78.31Z"/><path class="cls-1" d="M72,86.77a17.37,17.37,0,0,1,2.8,2.9c-3.16.16-7.77-2.16-7.77-2.16a9.9,9.9,0,0,1,3.41,4.68C63.11,92,57.28,87,57.28,87l.2-.06c4.89,2.8,8.05,2.74,8.05,2.64A20,20,0,0,0,62,84.17c7.14,2.84,9.56,1.17,9.61,1.17.53-1.47-.54-3.32-.49-3.32,1.24,2.13,8.45,4.52,8.61,4.56A20.67,20.67,0,0,1,72,86.77Z"/><path class="cls-1" d="M79,90.64c7.46,1.12,5-2.25,5-2.3,3.93,1,4.27,2.58,4.32,2.63A12.22,12.22,0,0,1,79,90.64Z"/></g></g></svg>