<svg xmlns="http://www.w3.org/2000/svg" width="86.86mm" height="90.22mm" viewBox="0 0 246.22 255.74"><g id="Layer_2" data-name="Layer 2"><g id="Layer_1-2" data-name="Layer 1"><path d="M195,30.12A102.85,102.85,0,1,0,49.57,175.58,102.85,102.85,0,0,0,195,30.12Z" fill="#fff"/><path d="M210.16,45.57A123.11,123.11,0,0,0,36.06,219.68,123.11,123.11,0,0,0,210.16,45.57Z" fill="#111"/><path d="M208.08,47.66A120.16,120.16,0,0,0,38.14,217.59,120.16,120.16,0,1,0,208.08,47.66Z" fill="#fff"/><path d="M206,49.74A117.22,117.22,0,0,0,40.23,215.51,117.22,117.22,0,0,0,206,49.74Z" fill="#c02026"/><path d="M179.36,76.38a79.54,79.54,0,1,0,23.3,56.24A79,79,0,0,0,179.36,76.38Z" fill="#fff"/><path d="M177.28,78.46a76.62,76.62,0,1,0,22.43,54.16A76.1,76.1,0,0,0,177.28,78.46ZM123.11,206.27a73.65,73.65,0,1,1,73.65-73.65A73.65,73.65,0,0,1,123.11,206.27Z" fill="#111"/><path d="M133.32,203.84l1.47-.22v-142l-1.47-.22Z" fill="#e6e6e5"/><path d="M177.1,180.17c.5-.56,1-1.14,1.47-1.72V86.8c-.48-.58-1-1.16-1.47-1.72Z" fill="#e6e6e5"/><path d="M155.21,197c.49-.25,1-.5,1.47-.76V69l-1.47-.75Z" fill="#e6e6e5"/><path d="M111.43,203.62l1.47.22V61.41l-1.47.22Z" fill="#e6e6e5"/><path d="M89.54,196.26,91,197V68.23c-.5.24-1,.5-1.48.75Z" fill="#e6e6e5"/><path d="M67.65,178.45c.48.58,1,1.16,1.48,1.72V85.08c-.5.56-1,1.14-1.48,1.72Z" fill="#e6e6e5"/><path d="M206.56,95.38A4.7,4.7,0,0,0,204,92.84a2.42,2.42,0,0,0-.35-.12L202,92.27l-12.94-3.55c-.16-.11-1.17-.71-.87-.29l0,.06-1.45-.4.82,1-37,15.19L161.7,92.18l.11-.13,7.91-9.72a2.9,2.9,0,0,0,.62-1.34l.57-3.2c.19-1-.25-.61-1.08-1.29l-2.41-1.09c-.54-.44-.88,1.09-1.56,1.09-.27,0,.66-2.91.4-2.84a3,3,0,0,0-2,1.88l-.8,2.29L142,97.7a2.88,2.88,0,0,0-1.1-1.09l-1.38-.78c0-2.25-.45-5.62-3.33-7.57a17,17,0,0,0-3.6-1.59l-.07-.08,4.94-7.11c8.63-4.44,9.35-6.66,9.59-7.41a2.94,2.94,0,0,0-1.34-3.46,3.9,3.9,0,0,0-1.92-.46c-2.38,0-6.06,1.65-11.23,5a3.17,3.17,0,0,0-.81.78l-5.55,8a10.71,10.71,0,0,0-4.69,0L116,74a3.12,3.12,0,0,0-.8-.78c-5.18-3.38-8.85-5-11.24-5a3.86,3.86,0,0,0-1.91.46,2.94,2.94,0,0,0-1.34,3.46c.24.75,1,3,9.59,7.41l4.93,7.11-.06.08a17.08,17.08,0,0,0-3.61,1.59c-2.88,1.95-3.36,5.32-3.33,7.57l-1.38.78A3,3,0,0,0,105.58,98L83.78,77.83,83,75.54a3,3,0,0,0-2-1.88,3.21,3.21,0,0,0-.8-.11c-.68,0-.86.6-1.4,1l-.57,1c-.82.68-2.07,1.18-1.88,2.22l.56,3.2a2.9,2.9,0,0,0,.62,1.34l7.91,9.72.12.13,11.12,12.11L59.29,89l-.41-.13.28-.38-1.08.3a2.86,2.86,0,0,0-1.33.37L45.63,92.17l-2,.55a2.06,2.06,0,0,0-.35.12,4.7,4.7,0,0,0-2.61,6l1.78,5.68h0l3.62,11.57a2.83,2.83,0,0,0,.06,1.08A3,3,0,0,0,49,119.38h8.25a3.66,3.66,0,0,0-.64,5,3.07,3.07,0,0,0,.29.34l10.86,10.9a3,3,0,0,0,2.09.87,2,2,0,0,0,.34,0,2.93,2.93,0,0,0,2.34,1.16H82.81a2.86,2.86,0,0,0,1.4-.36l6.85-3.72a8.22,8.22,0,0,0-1.28,2.62c-.45,1.3-4.19,12-7.68,19.43-1.46,3.12-5,8.93-10.57,17.27-.39.58-.57.85-.66,1a3.41,3.41,0,0,1-.66.08,6.75,6.75,0,0,0-.82.1l-1.79.32a2.94,2.94,0,0,0-2.32,2c-.33,1.07.4,1.17,1.21,1.94.23.23,2,3.26,4.89,3.26a9.37,9.37,0,0,0,4.67-1.68,3,3,0,0,0,.66-.62L97,153.42V163a3,3,0,0,0,.4,1.48l8.11,13.94a2.83,2.83,0,0,0,.78.87l11.19,8.42,4.16,5a2.94,2.94,0,0,0,4.52,0l4.17-5,11.19-8.42a2.83,2.83,0,0,0,.78-.87l8.1-13.94a2.86,2.86,0,0,0,.4-1.48v-8.9l19.77,25.21a2.78,2.78,0,0,0,.66.62,9.37,9.37,0,0,0,4.67,1.68c2.94,0,4.09-3.65,4.32-3.87.81-.77,2.17-1.4,1.84-2.46s-1.29-.72-2.38-.91l-1.79-.32a6.9,6.9,0,0,0-.83-.1,3.21,3.21,0,0,1-.65-.08l-.66-1c-5.56-8.34-9.12-14.15-10.57-17.27-3.45-7.36-7.22-18.11-7.68-19.43a8.55,8.55,0,0,0-1.29-2.62l6.85,3.72a2.9,2.9,0,0,0,1.41.36h10.32a3,3,0,0,0,2.34-1.16,2,2,0,0,0,.34,0,3,3,0,0,0,2.09-.87l10.86-10.9c.1-.11.2-.22.29-.34a3.67,3.67,0,0,0-.64-5h8.24a1.7,1.7,0,0,0,1.63-.92c.11.51.24.94.24.94l5.12-16.33,1.33-4.23A4.7,4.7,0,0,0,206.56,95.38Z" fill="#fff"/><path d="M55.13,92.61l-.15,0-10.6,2.9a1.77,1.77,0,0,0-1,2.3l4.92,15.69,14.86-7.93Z" fill="#111"/><path d="M78,126,63.11,119.4s-.29,0-.31,0l-3.7,2.23a.73.73,0,0,0-.15,1l10.86,10.9Z" fill="#111"/><polygon points="102.21 112.5 102.21 109.74 58.18 91.68 65.67 104.09 102.21 112.5" fill="#111"/><polygon points="80.21 76.5 79.26 77.28 79.83 80.47 87.74 90.19 102.83 106.61 104.79 101.32 81.24 79.49 80.21 76.5" fill="#111"/><polygon points="102.21 114.59 65.92 107.03 48.96 116.43 102.21 116.43 102.21 114.59" fill="#111"/><polygon points="102.21 118.52 66.59 118.52 80.19 124.11 102.21 120.55 102.21 118.52" fill="#111"/><polygon points="82.81 134.68 102.21 124.11 102.21 122.2 81.52 126.38 72.49 134.68 82.81 134.68" fill="#111"/><path d="M92.61,137s-4.07,11.81-7.84,19.85c-2.67,5.7-10.92,17.82-11.42,18.61-1,1.57-2.77,1.36-3.38,1.48l-1.87.34a5.33,5.33,0,0,0,3.28,1.38,7,7,0,0,0,3-1.17L97,148.7V136.78l6.18-8.51C93.37,132.67,92.61,137,92.61,137Z" fill="#111"/><path d="M202.88,95.56l-10.6-2.9-.14,0-8.09,13,14.87,7.93,4.91-15.69A1.76,1.76,0,0,0,202.88,95.56Z" fill="#111"/><path d="M188.16,121.63l-3.7-2.23s-.28,0-.3,0L169.31,126l8.15,7.58,10.86-10.9A.72.72,0,0,0,188.16,121.63Z" fill="#111"/><polygon points="145.05 112.5 181.6 104.09 189.09 91.68 145.05 109.74 145.05 112.5" fill="#111"/><polygon points="159.53 90.19 167.44 80.47 168.01 77.28 167.06 76.5 166.03 79.49 142.47 101.32 144.44 106.61 159.53 90.19" fill="#111"/><polygon points="145.05 114.59 145.05 116.43 198.3 116.43 181.35 107.03 145.05 114.59" fill="#111"/><polygon points="145.05 118.52 145.05 120.55 167.07 124.11 180.68 118.52 145.05 118.52" fill="#111"/><polygon points="145.05 124.11 164.46 134.68 174.78 134.68 165.75 126.38 145.05 122.2 145.05 124.11" fill="#111"/><path d="M173.92,175.45c-.5-.79-8.75-12.91-11.42-18.61-3.78-8-7.84-19.85-7.84-19.85s-.76-4.32-10.53-8.72l6.19,8.51V148.7l22.55,28.78a7,7,0,0,0,3,1.17,5.33,5.33,0,0,0,3.28-1.38l-1.87-.34C176.68,176.81,174.9,177,173.92,175.45Z" fill="#111"/><path d="M140.6,127.61l2.46-1.78V109.49l-3.57-10.32-3-1.71s1-4.84-1.87-6.76A20,20,0,0,0,131,89.22a28.43,28.43,0,0,1-2.06-2.51l6.6-9.52s8.17-4.12,8.78-6c0,0-1.72-1-10.07,4.48l-6.82,9.77a8.06,8.06,0,0,0-7,0l-6.81-9.77c-8.36-5.46-10.08-4.48-10.08-4.48.62,1.9,8.78,6,8.78,6l6.61,9.52a28.43,28.43,0,0,1-2.06,2.51,20,20,0,0,0-3.62,1.48c-2.84,1.92-1.88,6.76-1.88,6.76l-3,1.71-3.56,10.32v16.34l2.46,1.78-7.25,10.26V163l8.11,13.94,11.46,8.62,4.38,5.23,4.38-5.23,11.47-8.62L147.85,163V137.87Zm-9.71-37.28,3.44,6.14-4.66-1.66Zm-14,0,1.23,4.48-4.67,1.66ZM110.77,113l13.12-4.5,13.45,6.06-4.52,10.07v-7.92L123.89,112l-13.12,1.68Zm21.11,48.54h-16l-8.69-6.63,8.66,3.32h16l8.66-3.32Z" fill="#111"/><polygon points="140.48 108.97 139.63 106.51 133.31 100.95 138.94 102.99 138.21 100.88 131.71 97.27 123.89 97.27 116.07 97.27 109.58 100.88 108.85 102.99 114.47 100.95 108.16 106.51 107.31 108.97 107.19 109.35 116.07 104.52 123.89 104.52 131.71 104.52 140.6 109.35 140.48 108.97" fill="#fdb71e"/><polygon points="143.02 166.42 131.94 170.48 123.89 170.42 115.85 170.48 104.76 166.42 108.91 173.55 117.32 176.44 111.25 176.5 120.45 183.44 123.89 183.44 127.33 183.44 136.54 176.5 130.47 176.44 138.88 173.55 143.02 166.42" fill="#fdb71e"/><polygon points="132.31 140.2 141.83 134.68 137.96 129.21 132.37 132.95 123.89 132.95 115.42 132.95 109.83 129.21 105.96 134.68 115.48 140.2 102.58 138.85 102.58 145.73 111 148.92 123.89 148.92 136.79 148.92 145.21 145.73 145.21 138.85 132.31 140.2" fill="#fdb71e"/><path d="M30.84,131.11a3.4,3.4,0,0,0,.86-2.27,3.44,3.44,0,1,0-6,2.27,4.41,4.41,0,1,0,5.15,0Zm-2.57-3.87a1.6,1.6,0,1,1-1.6,1.6A1.6,1.6,0,0,1,28.27,127.24Zm0,9.91a2.48,2.48,0,1,1,2.47-2.48A2.48,2.48,0,0,1,28.27,137.15Z" fill="#fff"/><path d="M218.85,131.11a3.44,3.44,0,1,0-6-2.27,3.4,3.4,0,0,0,.86,2.27,4.4,4.4,0,1,0,5.15,0Zm-2.58-3.87a1.6,1.6,0,1,1,0,3.19,1.6,1.6,0,0,1,0-3.19Zm0,9.91a2.48,2.48,0,1,1,2.48-2.48A2.47,2.47,0,0,1,216.27,137.15Z" fill="#fff"/><polygon points="17.36 139.03 19.52 139.03 19.52 125.4 17.36 126.89 17.36 139.03" fill="#fff"/><path d="M232.64,129.86a4.42,4.42,0,1,0-4.42,4.42h.15L225.49,139h2.36l4.24-7h0A4.39,4.39,0,0,0,232.64,129.86Zm-6.9,0a2.48,2.48,0,1,1,2.48,2.48A2.48,2.48,0,0,1,225.74,129.86Z" fill="#fff"/><polygon points="82.62 50.13 80.96 46.66 86.36 44.07 84.77 40.75 79.36 43.34 77.7 39.87 84.49 36.61 82.9 33.29 76.11 36.55 73.54 37.78 72.78 38.14 80.89 55.05 81.65 54.69 84.21 53.46 91.34 50.04 89.75 46.72 82.62 50.13" fill="#f7f8f8"/><polygon points="104.49 27.08 107.2 38.09 96.44 29.08 96.44 29.06 92.86 29.95 97.34 48.15 100.92 47.27 98.15 36.03 108.97 45.29 112.55 44.41 108.06 26.2 104.49 27.08" fill="#f7f8f8"/><path d="M66.48,54.09l-.09.11a5.06,5.06,0,0,0-7.13-7h0l-3.09,2.5-2,1.63-.85.69,11.8,14.58L68,64.26l-4.81-6,1.11-.9,8.2,3.21,3.85-3.11ZM63.27,54h0l-2.2,1.78-3-3.68,2.2-1.78h0a2.36,2.36,0,0,1,3,3.66Z" fill="#f7f8f8"/><path d="M183.35,56.17l-.13-.06a5.06,5.06,0,0,0,5.06-8.62h0l-3.18-2.39L183,43.52l-.86-.65-11.28,15,3,2.21,4.6-6.12,1.14.86-1.12,8.74,4,3ZM182.69,53h0l-2.26-1.7,2.84-3.78,2.26,1.7h0A2.35,2.35,0,0,1,182.69,53Z" fill="#f7f8f8"/><path d="M50.42,66.57a4.45,4.45,0,0,0-7.66-3.86v0L40,66l-.68.8-1.7,2L52,81l.84-1,1.54-1.82L57.06,75h0a5.46,5.46,0,0,0-.84-7.54A5.53,5.53,0,0,0,50.42,66.57ZM42.33,68.2l.24-.28L44,66.26,44.2,66h0a2.11,2.11,0,0,1,3.23,2.72h0L47.2,69l-1.4,1.66-.24.28Zm11.34,5.24h0l-.27.32-1.58,1.89-.27.32-3.68-3.1.27-.32,1.59-1.88.27-.33h0a2.4,2.4,0,0,1,3.67,3.09Z" fill="#f7f8f8"/><polygon points="131.23 25.42 116.11 25.42 116.11 28.73 121.83 28.73 121.83 44.17 125.51 44.17 125.51 28.73 131.23 28.73 131.23 25.42" fill="#f7f8f8"/><polygon points="150.41 32.05 151.07 28.8 140.04 26.55 140.04 26.55 140.04 26.55 136.29 44.92 139.9 45.66 141.38 38.4 147.24 39.59 147.9 36.34 142.05 35.15 142.99 30.54 150.41 32.05" fill="#f7f8f8"/><path d="M164.47,33.69a9.58,9.58,0,1,0,6.45,11.92A9.59,9.59,0,0,0,164.47,33.69Zm-4.42,14.85a5.91,5.91,0,1,1,7.35-4A5.91,5.91,0,0,1,160.05,48.54Z" fill="#f7f8f8"/><path d="M204.25,62.35l-.92-.92-3.82-3.82-13.07,13,4.17,4.19h0l.56.57a9.23,9.23,0,0,0,13.08-13ZM193.11,72.66l-1.74-1.74,8.41-8.38,1.73,1.74a5.93,5.93,0,1,1-8.4,8.38Z" fill="#f7f8f8"/><path d="M102,228.68a3.27,3.27,0,0,0,2.52-2.23,3.34,3.34,0,0,0-2.16-4.09h0l-3.12-.95-.76-.24-1.91-.58-4.06,13.27.95.29,1.72.53,3,.92v0a4,4,0,0,0,3.82-6.89Zm-3.58-5.05.27.08,1.57.48.26.08h0a1.55,1.55,0,0,1-.91,3h0l-.26-.08-1.58-.48-.26-.09Zm-.2,9.21h0l-.31-.09-1.78-.54-.31-.1,1-3.38.3.09,1.79.55.3.09h0a1.76,1.76,0,0,1-1,3.37Z" fill="#fff"/><path d="M204.69,189.88a3.25,3.25,0,0,0-.94-3.24,3.33,3.33,0,0,0-4.61.2h0l-2.2,2.41-.54.59L195,191.31l10.26,9.35.67-.73,1.21-1.33,2.12-2.32h0a4,4,0,0,0-4.6-6.39Zm-6.1,1.06.19-.21,1.11-1.21.19-.21h0a1.55,1.55,0,0,1,2.29,2.09h0l-.19.21-1.11,1.21-.19.21Zm8.24,4.13h0l-.21.24-1.26,1.38-.21.23-2.61-2.38.21-.24,1.26-1.38.21-.23h0a1.76,1.76,0,0,1,2.6,2.38Z" fill="#fff"/><polygon points="91.33 218.69 80.93 214.25 79.96 216.53 83.89 218.2 79.37 228.82 81.9 229.9 86.43 219.29 90.36 220.96 91.33 218.69" fill="#fff"/><path d="M54.23,196.17a7.2,7.2,0,1,0,7.2,7.2A7.2,7.2,0,0,0,54.23,196.17Zm0,11.65a4.45,4.45,0,1,1,4.44-4.45A4.45,4.45,0,0,1,54.23,207.82Z" fill="#fff"/><path d="M68.63,207.47a7.2,7.2,0,1,0,7.2,7.2A7.2,7.2,0,0,0,68.63,207.47Zm0,11.65a4.45,4.45,0,1,1,4.45-4.45A4.44,4.44,0,0,1,68.63,219.12Z" fill="#fff"/><path d="M188.58,198.22l5.65,6.3a2.65,2.65,0,0,1-3.95,3.54l-5.64-6.31-2,1.77,6.6,7.37c1.46,1.62,4.4,1.36,6.59-.6s2.76-4.86,1.31-6.48l-6.6-7.36Z" fill="#fff"/><path d="M169.91,221.72a4.4,4.4,0,1,1-2.08-3.65l.62-2.67a7.06,7.06,0,1,0,4.11,6.73Z" fill="#fff"/><polygon points="129.42 235.61 128.9 224.43 126.25 224.56 126.89 238.38 126.89 238.38 129.54 238.26 134.91 238.01 134.78 235.36 129.42 235.61" fill="#fff"/><polygon points="143.49 233.65 141.76 222.6 139.14 223.01 141.28 236.68 141.28 236.68 143.9 236.27 149.2 235.44 148.79 232.83 143.49 233.65" fill="#fff"/><polygon points="180.78 218.41 174.44 209.19 172.25 210.69 180.09 222.1 180.1 222.1 182.28 220.6 186.7 217.55 185.2 215.37 180.78 218.41" fill="#fff"/><polygon points="50.21 193.05 52.15 191.62 47.28 185.02 47.28 185.02 47.28 185.02 36.3 193.14 37.89 195.3 42.23 192.09 44.82 195.59 46.76 194.16 44.17 190.66 46.93 188.62 50.21 193.05" fill="#fff"/><path d="M117.7,238.28l2.82.32-3.74-14.32-2.84-.31-6.8,13.14,2.82.31,1.47-2.84,5.46.61Zm-5-6.22,2.21-4.28,1.22,4.66Z" fill="#fff"/></g></g></svg>