<svg xmlns="http://www.w3.org/2000/svg" viewBox="0 0 138.36 162.85"><defs><style>.cls-1{fill:#85754e;}.cls-1,.cls-2,.cls-3,.cls-4,.cls-5,.cls-7{fill-rule:evenodd;}.cls-2{fill:#003671;}.cls-3,.cls-6{fill:#fff;}.cls-4{fill:#e30613;}.cls-5{fill:#d51317;}.cls-7{fill:#9b7c42;}</style></defs><g id="Layer_2" data-name="Layer 2"><g id="Layer_1-2" data-name="Layer 1"><path class="cls-1" d="M69.18,0C52.66,0,22.21,4.27,6.7,13.29c-20.42,72.39,7.35,121.62,62.48,149.56,55.13-27.94,82.89-77.41,62.48-149.56C116.13,4.27,85.69,0,69.18,0Z"/><path class="cls-2" d="M69.18,4.65C53,4.65,34.69,6.73,10.76,16.5-7,79.69,13.61,130.33,69.18,157.94c55.57-27.61,76.22-78.25,58.4-141.44C103.66,6.73,85.41,4.65,69.18,4.65Z"/><path class="cls-3" d="M69.19,157.89c53.48-33,65.44-80.28,49.21-145C102.76,7,85.44,4.59,69.29,4.59l-.1,153.3Z"/><path class="cls-3" d="M69.1,4.59C53,4.59,35.62,7,20,12.91c-16.23,64.7-4.25,112,49.22,145L69.1,4.59Z"/><path class="cls-4" d="M69.19,4.58C53,4.58,36.52,7,23.16,11.69,6.35,79.5,19.85,125.3,69.21,156.59l0-152Z"/><path class="cls-5" d="M69.23,4.58c16.24,0,32.68,2.46,46.05,7.11,16.8,67.81,3.31,113.61-46.07,144.9l0-152Z"/><path class="cls-3" d="M48.21,106.91c-7.17,4.91-12.87,6.68-19.49,8.44l-4-6.21A75,75,0,0,0,43.45,95.56c.54,6,3.34,10.3,4.76,11.35Z"/><path class="cls-1" d="M47.24,106.65c-6.81,4.67-16.28,7.92-27.12,9.51l-2.21-3.36c9.29-3.48,18.25-8.67,25.21-16a26.44,26.44,0,0,0,4.12,9.81Z"/><path class="cls-3" d="M29.12,78.13a4.72,4.72,0,1,1-9.44,0h0a4.72,4.72,0,1,1,9.44,0Z"/><path class="cls-3" d="M28.62,68.84V86.63h14c.91-6,4.3-12.3,12-17.79Z"/><path class="cls-3" d="M29.18,86.63c-3.13.05-5.7-3.88-5.75-8.79s2.47-8.94,5.61-9h.11Z"/><path class="cls-1" d="M24.78,81.62a3,3,0,0,1-.91.14,3.46,3.46,0,0,1-3.26-3.63h0a3.45,3.45,0,0,1,3.26-3.63,3.1,3.1,0,0,1,.69.08C25.33,72,27,70.06,29,69.8v0H53.44c-6.74,5-9.44,10.68-10.54,16H29v0C27.18,85.51,25.62,83.91,24.78,81.62Z"/><path class="cls-3" d="M95.79,90.8a26.86,26.86,0,1,1-53.71,0h0a26.86,26.86,0,1,1,53.71,0Z"/><path class="cls-3" d="M90.16,90.8a21.22,21.22,0,1,1-42.44,0h0a21.22,21.22,0,1,1,42.44,0Z"/><path class="cls-1" d="M88.76,90.8a19.82,19.82,0,1,1-39.63,0h0a19.82,19.82,0,1,1,39.63,0Z"/><path class="cls-3" d="M77.2,90.8a8.27,8.27,0,1,1-16.53,0h0a8.27,8.27,0,1,1,16.53,0v0Z"/><rect class="cls-6" x="66.08" y="70.52" width="5.64" height="13.17"/><polygon class="cls-3" points="84.66 77.95 87.74 82.68 76.7 89.85 73.63 85.12 84.66 77.95"/><polygon class="cls-3" points="61.02 91.86 64.04 96.63 52.92 103.67 49.9 98.9 61.02 91.86"/><rect class="cls-6" x="66.08" y="98.35" width="5.64" height="13.17"/><path class="cls-4" d="M63.43,97a10.13,10.13,0,0,0,2.65,1.66l0,11.75a18.65,18.65,0,0,1-12.39-7L63.45,97Z"/><path class="cls-5" d="M74.42,97a10.27,10.27,0,0,1-2.65,1.65l0,11.75a18.65,18.65,0,0,0,12.39-7L74.41,97Z"/><path class="cls-5" d="M77.09,92.06l11.65-1.4a19,19,0,0,1-1.6,7.93L77.06,92.06Z"/><path class="cls-3" d="M77.11,92c0-.19,0-.35.11-.89l11.49-1.49a4.27,4.27,0,0,1,0,1L77.11,92Z"/><path class="cls-3" d="M94.13,82.33h15.08c-.47,1.78-.93,3.6-3.1,4.41a82.89,82.89,0,0,1-10.64,2.54,30.91,30.91,0,0,0-1.34-7Z"/><path class="cls-3" d="M83.62,68.58l39.41,0L121.64,83l-26.92,1.4C93.27,78,88.38,71.84,83.62,68.58Z"/><path class="cls-1" d="M107.93,82.64c-.42,1.46-.82,2.77-2.73,3.44a68,68,0,0,1-9.79,2.08,40,40,0,0,0-1-4.86h0C92.83,77.47,89.31,73.22,85,69.6h0l50.31,0-1.92,11.74Z"/><path class="cls-7" d="M78.88,47.66c0,.64-.14,2.39-.21,2.88h7.8a42.21,42.21,0,0,1-.75-7.19c0,.16-.13-4.47-.13-4.47a1.44,1.44,0,0,1,.33-1,1,1,0,0,1,.89-.32c.33-.15.94-.15,1,1.11l.2,4.8a46.54,46.54,0,0,1-.2,7h7.52c-.06-.64-.28-2.24-.34-2.72C96,49.9,98,51,100.72,51a6.61,6.61,0,0,0,3.79-1.26,3.82,3.82,0,0,0,.4.79h14a42.34,42.34,0,0,1-1.22-7.19l-2-15.65-7.18-1.29a51.92,51.92,0,0,1,1.28,7.19l1.1,10.07a53.3,53.3,0,0,1,.33,5.76v.15l-.27-.64a17.31,17.31,0,0,1-1-5.27l-.26-3.2c-.41-5.11-3.19-7.34-9.3-7.34a21.5,21.5,0,0,0-5.16.64l.41,5.74,1.63-.95a6.56,6.56,0,0,1,3.59-1.13,1.77,1.77,0,0,1,1.84,1,14.74,14.74,0,0,0-3.87,1.12,7.42,7.42,0,0,0-4.13,4v-.15l-.22-5.28a5.38,5.38,0,0,0-5.62-5.58,7.26,7.26,0,0,0-4.06,1.28c-.08-.17-.14-.32-.21-.49l-.28-.64-6.24-.32a46.58,46.58,0,0,1,.75,5.43A8,8,0,0,0,76,33.13a8.71,8.71,0,0,0-4.61-1.28,8.9,8.9,0,0,0-6.23,2.56,9.07,9.07,0,0,0-2.52,6.38,6.08,6.08,0,0,0-2.36-1.59l-2.85-1.45h-.14c-.67-.32-.75-.47-.75-.62.08-.32.75-.65,1.63-.65a9.67,9.67,0,0,1,4.27,1.44l.14-5.11a10.32,10.32,0,0,0-4.48-.8,10.63,10.63,0,0,0-4.88,1.12,15.79,15.79,0,0,0-1.28,1L52,32.64a5.63,5.63,0,0,0-5.55,1.77c-.08-.17-.22-1-.35-1.28l-6.71.32a26.32,26.32,0,0,1,.41,7L39.61,43v.32c-.08,1.28-.14,2.72-.27,4-.55-1.77-1.15-4.17-1.64-6.07l-3.32-15L24.89,27.7a6.12,6.12,0,0,1,.28,1.11,11.64,11.64,0,0,1-.82,4.64c-1.56,4.3-3.73,10.86-5.83,15.49-.27.64-.82,1.6-.82,1.6h7.39a27.66,27.66,0,0,1,1.09-4.47,48.76,48.76,0,0,0,4.88-.17,27,27,0,0,1,.62,3.52l.12,1.12H46.59a40.59,40.59,0,0,1-.07-7.36c.14-2.07.55-3.51,1.43-4.3a2.44,2.44,0,0,1,2-1c-.08,2.87,1.75,4.15,3.39,4.94l2.91,1.45c1,.64,1,.79,1,1.12s-.89.64-1.63.64c-1.56,0-3.66-1-6-3.51l-.14,6.7a13.79,13.79,0,0,0,6.17,1.43c3.39,0,7-1.59,7.93-4.62a9.11,9.11,0,0,0,8.28,4.62,8.78,8.78,0,0,0,7-3ZM27.94,41.11c.42-1.11.75-2.07,1.36-3.83.41,1.76.61,2.87.81,3.68a9.91,9.91,0,0,1-2.17.15Zm41.51-1.76c0-2.22.81-3.19,1.62-3.19.28,0,.88-.16,1.16,1a4.08,4.08,0,0,1,.2.94c0,.64-.34.81-.75.81V39a17.25,17.25,0,0,0-2.23.8v-.49ZM77.18,44c-1.43,1.27-2.45,2.08-4.14,2.08A3.14,3.14,0,0,1,70.4,44c1.42-.48,6.91-2.56,8.48-3.2,0,1.28.06,2.72.06,2.72v2.71L77.18,44Zm25.29,2.23a1.54,1.54,0,0,1-1.62-1.58c.06-.65.26-1.61,2.3-2.25.07.8.14,1.44.14,1.44v.64c.06.49.06,1,.12,1.43A6.84,6.84,0,0,1,102.47,46.22Z"/><path class="cls-3" d="M61.37,33.6a12.72,12.72,0,0,0-3.32-.47,10.37,10.37,0,0,0-4.27,1c-1.5,1-2.58,2.23-2.64,3.68-.14,2.23,1,3.19,2.71,4,1.15.64,2.25,1.28,2.92,1.6.88.48,1.69,1,1.63,2.08s-1.1,1.92-2.79,1.92a8.46,8.46,0,0,1-4.88-2.24l-.06,3.36a11.75,11.75,0,0,0,5,1c3.11,0,7-1.44,7-5,.08-2.72-1.83-3.68-3-4.31-1.15-.48-2.31-1.12-2.85-1.28-.55-.32-1.63-.64-1.55-1.92.12-1.11,1.42-1.6,2.77-1.6a6.88,6.88,0,0,1,3.19.8Z"/><path class="cls-3" d="M33.51,27.7l-7.2,1a13.15,13.15,0,0,1-.88,5.11C24,38.07,21.51,45.26,19.6,49.43h4.49A21.75,21.75,0,0,1,25.37,45L32,44.79a37.21,37.21,0,0,1,.8,4.64h6a67.07,67.07,0,0,1-2.3-8L33.51,27.7Zm-7.2,14.52,3.27-9.41,2,9.26Z"/><path class="cls-3" d="M50.73,33.6l-.14,3.21a4.07,4.07,0,0,0-3.52,1.26c-1,1-1.56,2.4-1.69,5a52.94,52.94,0,0,0-.08,6.4H40.22a44.73,44.73,0,0,0,.53-6.24l.14-2.55a25.54,25.54,0,0,0-.2-6.08l4.49-.15a8.83,8.83,0,0,1,.26,2.87C47.4,34.24,49.31,33.6,50.73,33.6Z"/><path class="cls-3" d="M114.68,28.66l-4.62-.81a54.73,54.73,0,0,1,.89,5.6L112,43.51a44.9,44.9,0,0,1,.35,5.92h5a38.89,38.89,0,0,1-.89-5.92Z"/><path class="cls-3" d="M94,49.43a58.66,58.66,0,0,1-.47-5.92l-.2-5.27c-.14-2.88-1.77-4.47-4.48-4.47a5.77,5.77,0,0,0-4.75,2.39,11.22,11.22,0,0,0-.55-2.39l-4.05-.17A41.61,41.61,0,0,1,80,39.51l.08,4A57.53,57.53,0,0,1,80,49.43H85a58.66,58.66,0,0,1-.47-5.92L84.43,39a2.52,2.52,0,0,1,2.38-2.72c1.42,0,2.1,1,2.16,2.39l.22,4.8a57.9,57.9,0,0,1-.08,5.92Z"/><path class="cls-3" d="M109.87,49.43a19.81,19.81,0,0,1-1.09-5.6l-.27-3.19c-.28-3.83-1.89-6.4-8.15-6.4a18.27,18.27,0,0,0-3.91.48l.19,2.88a7.83,7.83,0,0,1,4.21-1.44c1.69,0,3.11.8,3.25,3.19a13.87,13.87,0,0,0-4.82,1.29c-1.89.79-3.86,2.39-3.66,4.94.2,2.88,2.38,4.17,5.1,4.17a5.5,5.5,0,0,0,4.33-1.93,8.41,8.41,0,0,0,.55,1.61Zm-7.4-2.08a2.53,2.53,0,0,1-2.78-2.56c0-1.76,1.09-3.19,4.55-3.68l.2,2.72a22.63,22.63,0,0,0,.21,2.39A3.47,3.47,0,0,1,102.47,47.35Z"/><path class="cls-3" d="M75.28,34.09A6.74,6.74,0,0,0,71.35,33c-3.33,0-7.74,2.4-7.6,8.47.06,6.23,4.82,8.15,8.14,8.15A8,8,0,0,0,78,47l-1-1.45A5.77,5.77,0,0,1,73,47.18c-2.11-.15-3.45-1.6-4.2-3.83L78.05,40c-.27-3-1.35-4.8-2.77-5.91ZM72.09,40l-3.66,1.43a17.94,17.94,0,0,1-.14-2.08c0-3.67,2-4.31,2.72-4.31a2.13,2.13,0,0,1,2.38,1.77C73.78,38.24,73.65,39.52,72.09,40Z"/><polygon class="cls-3" points="50.39 81.59 53.49 76.88 64.5 84.08 61.4 88.81 50.39 81.59"/><polygon class="cls-3" points="73.89 96.61 76.99 91.88 88 99.1 84.9 103.83 73.89 96.61"/><path class="cls-1" d="M94.39,90.8a25.45,25.45,0,1,1-50.89,0h0a25.45,25.45,0,1,1,50.89,0Zm-21.7,0h0a3.75,3.75,0,1,0-7.49,0h0a3.75,3.75,0,1,0,7.49,0Zm3.54,0a7.79,7.79,0,0,1-.18,1.61L88,100.23a21.2,21.2,0,0,0,2.2-9.43h0A21.19,21.19,0,0,0,88,81.46l-12,7.77a7.22,7.22,0,0,1,.17,1.55v0Zm-2,5.06a7.3,7.3,0,0,1-3.33,2V112a21.18,21.18,0,0,0,15.06-8.41L74.19,95.86Zm-7.22,2a7.33,7.33,0,0,1-3.36-2l-11.84,7.51A21.18,21.18,0,0,0,67,111.94V97.82ZM61.8,92.29a7.14,7.14,0,0,1-.15-1.48h0a7.32,7.32,0,0,1,.43-2.49L50.32,80.6a21.26,21.26,0,0,0-2.6,10.2h0a21.1,21.1,0,0,0,2.06,9.12l12-7.63Zm2.54-7.16A7.33,7.33,0,0,1,67,83.77V69.64A21.21,21.21,0,0,0,52.5,77.36l11.84,7.77Zm6.52-1.37a7.31,7.31,0,0,1,3.37,2L86,78.13a21.22,21.22,0,0,0-15.12-8.49Z"/><path class="cls-1" d="M71.65,90.8a2.72,2.72,0,0,1-5.43,0h0a2.72,2.72,0,1,1,5.43,0Z"/></g></g></svg>