<svg xmlns="http://www.w3.org/2000/svg" viewBox="0 0 134.6 169.53"><defs><style>.cls-1{fill:#fff;}.cls-2{fill:#292b65;}.cls-3{fill:#203d82;}.cls-4{fill:#2f388c;}.cls-5{fill:#dddada;}.cls-6{fill:#b2abab;}.cls-7{fill:#c31724;}</style></defs><g id="Layer_2" data-name="Layer 2"><g id="Layer_1-2" data-name="Layer 1"><path class="cls-1" d="M82.55,131.15a15.11,15.11,0,1,1-15.11-14.92A15,15,0,0,1,82.55,131.15Z"/><path class="cls-1" d="M66.12,169.53c-10.58,0-17.35-3.63-24.48-7.46a78.46,78.46,0,0,0-12.26-5.65c-13-4.36-21.52,1-21.88,1.21L5.77,155c.41-.26,10.12-6.42,24.62-1.55a79.73,79.73,0,0,1,12.75,5.87c7.36,3.94,14.3,7.67,25.73,7,10.69-.64,18-4.27,25.14-7.78a96.71,96.71,0,0,1,8.93-4.06l.69-.27c3.8-1.5,15.38-6.07,25.37,1.54l-1.92,2.53c-8.57-6.53-18.53-2.59-22.28-1.11l-.75.29c-2.88,1.08-5.67,2.46-8.63,3.92-7,3.48-15,7.43-26.36,8.12C68.05,169.49,67.07,169.53,66.12,169.53Z"/><path class="cls-2" d="M66.13,168.49c-10.37,0-17-3.57-24.06-7.34a79.6,79.6,0,0,0-12.41-5.72C16.19,150.91,7.1,156.68,7,156.74l-.75-1.14c.4-.25,9.74-6.18,23.83-1.45A80.64,80.64,0,0,1,42.71,160c7.47,4,14.53,7.8,26.21,7.1,10.87-.66,18.3-4.33,25.49-7.88a95.73,95.73,0,0,1,8.84-4l.71-.28c4.08-1.61,14.9-5.87,24.48,1.42l-.82,1.08c-9-6.83-19.28-2.77-23.16-1.23l-.73.28a94.15,94.15,0,0,0-8.72,4c-7,3.44-14.86,7.34-26,8Q67.52,168.49,66.13,168.49Z"/><path class="cls-3" d="M95.55,142.61c-9.55,6.09-17.31,9.73-27.08,9.77-13.2.05-23.43-8.7-37.37-13.38s-30,3.13-30,3.13a21.88,21.88,0,0,1,5.5,14.05s9.31-6.07,23.25-1.39S51,168.81,69,167.72c15.62-.93,24.5-8.16,34.53-11.94,3.11-1.16,14.59-6.5,24.51,1a27.8,27.8,0,0,1,5.64-14.28C121.76,134,102.56,138.14,95.55,142.61Z"/><path class="cls-4" d="M82.22,89.46l.27.26S82.45,89.61,82.22,89.46Z"/><path class="cls-4" d="M75.19,38.34c-.2-1-.42-2.19-.58-3.54C74.74,35.92,74.92,37.09,75.19,38.34Z"/><path class="cls-1" d="M75.19,38.34c-.2-1-.41-2.18-.58-3.53h0C74.74,35.93,74.92,37.09,75.19,38.34Z"/><path class="cls-3" d="M98,85.4l0-.17s0,0,0,.11l-.27-.56a9,9,0,0,0-.75-1.32,38.67,38.67,0,0,0-5.78-7.1l.05.94h0l.1,1.47s-11-6.42-15.77-12.33c-3.65-4.59-7.86-9.6-10.35-15.74l-.93-1.47c-3.18-3.79-6.5-3.07-13.77-11.49a34.58,34.58,0,0,1-6.12-12.32A54.75,54.75,0,0,1,44.8.58s.93-2.69-4.11,5.31h0a37.5,37.5,0,0,0-5.12,13.2A34.39,34.39,0,0,0,35,26.22,52.72,52.72,0,0,1,31,15.3,45.5,45.5,0,0,1,29.79,0s-.88-.87-3.94,7.3a41,41,0,0,0-2.13,23C18.1,25.52,16.83,16.8,15,9.9h0l-.07.1a3.5,3.5,0,0,0-.23,1.08c0,.5-.06,1-.06,1.49a43.4,43.4,0,0,0,4.16,22.66l.3.69c.69,1.44,1.5,2.75,2.23,4,1.22,2.15,2.17,2.67,3.54,4.57-.15,0-8.41-1.76-11.44-2.21a92.9,92.9,0,0,1,9,7.81s11.41.92,20.36,7.54a51.33,51.33,0,0,0-17.06-4.44l1.64,1.55c2.65,2.49,5.32,5,7.69,7.07h0l-6.73-.67L37.9,69l1.74.06a29.11,29.11,0,0,1,6.46.61,18.81,18.81,0,0,1,5.25,1.9,21.71,21.71,0,0,0-7-.63,30.62,30.62,0,0,0-3.26.61l.56.45,6.1,4.91,5.44.14c-4.59,2.86-9.09,4-14.86,2a28,28,0,0,1-8.57-4.67c1,2.5,3.39,4.66,5.23,6.55a45.78,45.78,0,0,1-16.54-4.42,48.45,48.45,0,0,0,5.5,7.3,31.49,31.49,0,0,0,5.17,4.35c.74.44,4.14.43,6.39.21.42,0,.8-.08,1.12-.14.51-.08,1.16-.22,1.84-.38,2.32-.53,5.1-1.31,4.95-1.21a37.21,37.21,0,0,1-3.26,1.88c-.68.35-1.38.69-2.1,1a19.81,19.81,0,0,1-10,1.85A46.41,46.41,0,0,0,39.23,94a4.41,4.41,0,0,0,2.92-.42c1.7-.79,3.11-1.43,4.46-2.08.68-.33,1.36-.66,2-1,1-.48,1.92-1,3-1.6-.63.59-1.26,1.14-1.91,1.69l-1.11.92c-1.31,1.08-2.72,2.19-4.32,3.6,4.29.3,6.78,1,12.49-.77A31.67,31.67,0,0,1,54,96.15l1.69,3.32-1.83-.82,1.2,2.25a12,12,0,0,0,2.08,1.95l.42,1.33a12.62,12.62,0,0,1-2.76-1.68c1,3.83,3.23,3.08,3.89,5.4.44,1.57,2.1,4.38,1.16,5.87-1.1,1.75-1.82,1.63-3.38,3-1.8,1.62-.41,3.64,0,4.28A4.56,4.56,0,0,1,59,117.72c1.26-.37,2.77-.09,3.32-.64,2-2,6.25-2.48,9.2-.63-1.36-2.21-2.07-2.14-4.79-2.93,4.81.32,5.13,1.37,7.48,4.11.19-1.56-1.1-3.55-2.21-4.49-.34-.3-4.16-.83-7.87-1.16-1.31-.11-1.84-1.78-2-2.69a5,5,0,0,0,2.3.67c-.26-1.3-.62-2.79-.84-3.68a3.27,3.27,0,0,0,1.57.42l-.54-2.19c-.25-1.75-.82-3,.86-5.71a9.68,9.68,0,0,1,1.76,1.41,17.23,17.23,0,0,0,.74,2.57c.07.17,1.73,1.59,1.79,1.76l-2.85-.83a8.9,8.9,0,0,0,2.83,3.41,6.17,6.17,0,0,1,2.43,1.28,3.14,3.14,0,0,1,.63,2.31c-.21.53-1.73-1.72-4.91,1,2.17,0,4.78.63,5.34,1.29a10.81,10.81,0,0,0,1.78,2c2.32,1.38,2.48,2.11,2.29,4.83,1.43-1.1,1-4,.82-4.68a6.68,6.68,0,0,1,.9,6.58c1.42-.79,3.15-3.94,1.52-6.42-.44-.4-2.85-2.2-3.32-2.74-1.2-1.38-1.51-2.93-2.1-4.5.42,0,.94.19,1.37.19-.22-.93-.52-2.15-.75-3.49l-.06-.37a.77.77,0,0,1,0-.15l-.09-.6s0-.1,0-.15c0-.2,0-.41-.07-.62a8.88,8.88,0,0,0,1.32.71l-1.33-3.63h0a8,8,0,0,1,.1-.82s0,0,0,0c0-.25.09-.5.15-.74a.59.59,0,0,0,0-.13c.06-.22.13-.44.2-.67,0,0,0-.1.05-.16.1-.26.2-.53.32-.79-.6,1.3,1.17,3.18,1.17,3.18.23-2.88,2.8-5.56,5-6.53a3,3,0,0,0,.3,1.6,4,4,0,0,1,2.87-2.11l1.74.71,1.85.74.49.2a4.43,4.43,0,0,0,1.15,2.12,40.89,40.89,0,0,0,3.57,2.37,2.13,2.13,0,0,1-1.48,1.27c2.79,1,6.32-.21,5.82-3.21-.18-1.06-.64-4-.64-4h0l.66-2.16.19-.64L99,90l.1-.3A10.64,10.64,0,0,0,98,85.4Z"/><path class="cls-3" d="M114.55,20.94l.16,0a26.68,26.68,0,0,0-12.65,3.93c3-5.95,9.8-10,15.76-12.33,0,0,.74-1.15-6.47-.07a26.41,26.41,0,0,0-2.78.46h0a27,27,0,0,0-10.9,5.14A25,25,0,0,0,92.88,23a52.49,52.49,0,0,0-8.12,15.14S83.88,27.74,97.2,14a52.1,52.1,0,0,1,4.93-6.92s.31-1.56-7.23,4.16A49.31,49.31,0,0,0,81.25,25.63C80,27.84,77.37,32.8,76.61,36.08c0,.1,0,.2,0,.3s.08,2,.44,4.58a63.78,63.78,0,0,0,1.74,7.53,62.69,62.69,0,0,1-3-7.61c-.26-.89-.46-1.73-.64-2.54-.11-.51-.19-1-.27-1.47,0-.25-.09-.52-.13-.79-.06-.43-.13-.86-.18-1.28-.16-1.53-.23-3-.25-4.42,0-1.92.06-3.65.14-4.9A41.72,41.72,0,0,0,70.71,42c-.17,1.57-.27,2.73-.33,3.71a47.11,47.11,0,0,0,5.34,10.26s-2.57-1.43-5.59-6.71a38.38,38.38,0,0,1-.79,4.55,82.73,82.73,0,0,0,10,13.72V60.57a29.36,29.36,0,0,1,2.4,2.65,76.14,76.14,0,0,1,2.16-7.84c6-18,13.2-23.44,13.2-23.44C90.47,42.23,84.43,63,84.68,72.76c1.28,1.08,2.42,2,3.36,2.62A6.63,6.63,0,0,1,87,73.06,49.8,49.8,0,0,1,99.07,50.12c2-19.89,24.5-28.32,24.5-28.32C125.4,20.46,114.55,20.94,114.55,20.94Z"/><path class="cls-5" d="M117.93,135.51V124.26c-1.18.91-2.29,1.71-3.34,2.45V130h-1.7v-2.15c-7.31,4.83-10.93,5.34-10.93,5.34a56.87,56.87,0,0,0,10.93-7.09v-4.29a85.06,85.06,0,0,1-20,13c0,.21,0,.87,0,1.79h15.4a47.24,47.24,0,0,1,9.66-.62Z"/><path class="cls-6" d="M104,137.54a39.23,39.23,0,0,0-6.44,2.23v-2.23Z"/><path class="cls-6" d="M84.66,147l-2.12.93v-7h2.11v6Z"/><rect class="cls-6" x="82.55" y="134.77" width="2.11" height="5.31"/><path class="cls-6" d="M92,142.59v-1.66H90.11v3.19c.63-.36,1.26-.74,1.9-1.13Z"/><rect class="cls-6" x="90.11" y="134.77" width="1.89" height="5.31"/><path class="cls-6" d="M87,144.46v-3.53H85.5v5.65l1.46-.73Z"/><rect class="cls-6" x="85.5" y="134.77" width="1.46" height="5.31"/><rect class="cls-6" x="87.79" y="134.77" width="1.46" height="5.31"/><path class="cls-6" d="M89.25,144.09v-3.16H87.79v4.48c.49-.26,1-.52,1.46-.8Z"/><rect class="cls-6" x="82.55" y="130.27" width="9.46" height="3.67"/><path class="cls-6" d="M44.87,143.16l-2.08-1v-1.23h2.08v2.24Z"/><rect class="cls-6" x="42.79" y="134.77" width="2.11" height="5.31"/><path class="cls-6" d="M50.31,145.79c.63.31,1.28.6,1.91.88l0-4.11v-1.63H50.31v4.86Z"/><rect class="cls-6" x="50.35" y="134.77" width="1.89" height="5.31"/><rect class="cls-6" x="45.71" y="134.77" width="1.45" height="5.31"/><rect class="cls-6" x="48.04" y="134.77" width="1.43" height="5.31"/><rect class="cls-6" x="42.79" y="130.27" width="9.46" height="3.67"/><path class="cls-6" d="M48,144.7c.44.21,1,.5,1.45.73v-4.5H48v3.77Z"/><path class="cls-6" d="M40.49,141.07l1.46.68v-4.21H40.49v3.53Z"/><path class="cls-6" d="M45.71,143.58l.25.11,1.21.59v-3.35H45.71v2.65Z"/><path class="cls-5" d="M17.28,131.54v-7.28c1.17.91,2.28,1.71,3.33,2.45V130h1.7v-2.15c7.31,4.83,10.93,5.33,10.93,5.33a56.91,56.91,0,0,1-10.93-7.08v-4.29A86.16,86.16,0,0,0,42,134.67v2s-13.1.07-13.43,0a36.35,36.35,0,0,0-11.24-.52Z"/><path class="cls-6" d="M37.35,139.71c-1.83-.76-4.3-1.75-5.67-2.21h5.67Z"/><path class="cls-6" d="M38.2,139.59v-2.06h1.45v3.15l-1.46-.62Z"/><path class="cls-6" d="M94.45,140.93v-3.39h-1.6v4.94c.53-.32,1.06-.66,1.59-1Z"/><path class="cls-6" d="M96.74,139.77v-2.23H95.29V141q.67-.4,1.44-.78Z"/><path class="cls-6" d="M81.72,133.93v-2.59a14.32,14.32,0,1,0-28.64,0v2.59h2.44a12.39,12.39,0,0,1-.24-2.38,12,12,0,1,1,24.06,0,12.5,12.5,0,0,1-.23,2.39Z"/><path class="cls-5" d="M20.61,123.51v-3.22l-3.33-3.37v3.78a22.15,22.15,0,0,0,3.33,3.89Z"/><path class="cls-5" d="M117.93,120.7a22.85,22.85,0,0,1-3.34,3.89v-4.3l3.34-3.36v3.77Z"/><path class="cls-6" d="M78.9,134.8a12,12,0,0,1-23.17,0l-2.65,0v12.28c5,2.16,9.94,3.74,15.35,3.74h.11a36.21,36.21,0,0,0,13.16-2.54l0-13.48Z"/><path class="cls-6" d="M14,115.36a14.24,14.24,0,0,1,1.43.35v6.43a12,12,0,0,0-1.43-.35Z"/><path class="cls-6" d="M13.19,121.66a13.54,13.54,0,0,0-1.44-.11v-6.43l.7,0,.74.07Z"/><path class="cls-6" d="M9.48,121.66a13.54,13.54,0,0,1,1.44-.11v-6.43a13.54,13.54,0,0,0-1.44.11Z"/><path class="cls-6" d="M7.22,122.15a10.31,10.31,0,0,1,1.43-.36v-6.43a14.22,14.22,0,0,0-1.43.36Z"/><path class="cls-6" d="M5.92,110.14c.31-.14.63-.27,1-.39v.77Z"/><path class="cls-6" d="M10.92,112.39c-.49,0-1,0-1.44.11v-3.34a13.54,13.54,0,0,1,1.44-.11Z"/><path class="cls-6" d="M13.19,109.16a13.54,13.54,0,0,0-1.44-.11v3.34c.49,0,1,0,1.44.11Z"/><path class="cls-6" d="M14,109.29a12,12,0,0,1,1.43.35V113a14.24,14.24,0,0,0-1.43-.35Z"/><path class="cls-6" d="M8.65,112.63a14.24,14.24,0,0,0-1.43.35v-3.34a14.22,14.22,0,0,1,1.43-.36Z"/><path class="cls-6" d="M15.77,109.75a8.88,8.88,0,0,1,1,.4l-1,.38Z"/><path class="cls-6" d="M5.92,116.21c.31-.14.63-.27,1-.39v.78Z"/><path class="cls-6" d="M15.77,115.82a8.88,8.88,0,0,1,1,.4l-1,.38Z"/><path class="cls-6" d="M16.76,108a13.09,13.09,0,0,0-5.42-1.1A13.22,13.22,0,0,0,5.92,108v1.4a13.06,13.06,0,0,1,5.42-1.09,13.25,13.25,0,0,1,5.42,1.09Z"/><path class="cls-6" d="M16.76,114.1a13.09,13.09,0,0,0-5.42-1.1,13.06,13.06,0,0,0-5.42,1.09v1.4a13.05,13.05,0,0,1,5.42-1.1,13.09,13.09,0,0,1,5.42,1.1Z"/><path class="cls-6" d="M16.76,107.36a13.09,13.09,0,0,0-5.42-1.11,13.05,13.05,0,0,0-5.42,1.1l4.3-4.1c.36,0,.74,0,1.12,0s.74,0,1.11,0Z"/><path class="cls-6" d="M10.22,102.11v.67c.36,0,.74,0,1.11,0s.76,0,1.12,0v-.67c0-.26-.55-.27-.7-.27h-.83C10.77,101.84,10.22,101.84,10.22,102.11Z"/><path class="cls-6" d="M15.45,129.12a10.31,10.31,0,0,0-1.43-.36v-6.25a12,12,0,0,1,1.43.35Z"/><path class="cls-6" d="M13.19,128.63a13.54,13.54,0,0,0-1.44-.11v-6.25a13.54,13.54,0,0,1,1.44.11Z"/><path class="cls-6" d="M10.92,128.52a13.54,13.54,0,0,0-1.44.11v-6.26c.47-.06.95-.09,1.44-.11Z"/><path class="cls-6" d="M8.65,128.76a12,12,0,0,0-1.43.35v-6.25a12,12,0,0,1,1.43-.35Z"/><path class="cls-6" d="M126.56,115.36a14.24,14.24,0,0,1,1.43.35v6.43a12,12,0,0,0-1.43-.35Z"/><path class="cls-6" d="M125.73,121.66a13.54,13.54,0,0,0-1.44-.11v-6.43l.7,0,.74.07Z"/><path class="cls-6" d="M122,121.66a13.54,13.54,0,0,1,1.44-.11v-6.43a13.54,13.54,0,0,0-1.44.11Z"/><path class="cls-6" d="M119.76,122.15a10.68,10.68,0,0,1,1.43-.36v-6.43c-.5.1-1,.22-1.43.36Z"/><path class="cls-6" d="M118.46,110.14c.31-.14.64-.27,1-.39v.77Z"/><path class="cls-6" d="M123.46,112.39c-.49,0-1,0-1.44.11v-3.34a13.54,13.54,0,0,1,1.44-.11Z"/><path class="cls-6" d="M125.73,109.16a13.54,13.54,0,0,0-1.44-.11v3.34c.49,0,1,0,1.44.11Z"/><path class="cls-6" d="M126.56,109.29a12,12,0,0,1,1.43.35V113a14.24,14.24,0,0,0-1.43-.35Z"/><path class="cls-6" d="M121.19,112.63a14.24,14.24,0,0,0-1.43.35v-3.34c.46-.14.93-.26,1.43-.36Z"/><path class="cls-6" d="M128.32,109.75c.34.12.67.25,1,.4l-1,.38Z"/><path class="cls-6" d="M118.46,116.21c.31-.14.64-.27,1-.39v.78Z"/><path class="cls-6" d="M128.32,115.82c.34.12.67.25,1,.4l-1,.38Z"/><path class="cls-6" d="M129.31,108a14,14,0,0,0-10.85,0v1.4a13.06,13.06,0,0,1,5.42-1.09,13.27,13.27,0,0,1,5.43,1.09Z"/><path class="cls-6" d="M129.31,114.1a14,14,0,0,0-10.85,0v1.4a13.93,13.93,0,0,1,10.85,0Z"/><path class="cls-6" d="M129.31,107.36a13.87,13.87,0,0,0-10.85,0l4.3-4.1c.37,0,.74,0,1.12,0s.75,0,1.11,0Z"/><path class="cls-6" d="M122.76,102.11v.67c.37,0,.74,0,1.12,0s.75,0,1.11,0v-.67c0-.26-.55-.27-.7-.27h-.83C123.31,101.84,122.76,101.84,122.76,102.11Z"/><path class="cls-6" d="M128,129.12a10.31,10.31,0,0,0-1.43-.36v-6.25a12,12,0,0,1,1.43.35Z"/><path class="cls-6" d="M125.73,128.63a13.54,13.54,0,0,0-1.44-.11v-6.25a13.54,13.54,0,0,1,1.44.11Z"/><path class="cls-6" d="M123.46,128.52a13.54,13.54,0,0,0-1.44.11v-6.26c.47-.06,1-.09,1.44-.11Z"/><path class="cls-6" d="M121.19,128.76a12.45,12.45,0,0,0-1.43.35v-6.25a12.45,12.45,0,0,1,1.43-.35Z"/><path class="cls-6" d="M128,137.9c-.48-.17-1-.33-1.45-.47,0-.38,0-3.09,0-3.09v-4.82s1,.22,1.44.36v8Zm-2.27-.7c-.48-.13-1-.25-1.44-.35v-7.57s1,.05,1.44.11v7.81Zm-2.25-2.61,0-5.31c-.49,0-1.43.11-1.43.11v5.2s0,1.37,0,1.85q.73.1,1.47.24v-2.09Zm-2.29.27v-5.34c-.49.1-1.43.36-1.43.36v5.55s0,.1,0,.74c.48,0,1,.09,1.42.15v-1.46ZM15.45,134v-4.13c-.45-.14-1.43-.36-1.43-.36v7l1.43-.23V134Zm-2.26-4.62c-.47-.06-1.44-.11-1.44-.11v4.94s0,2.3,0,2.7l1.44-.29v-7.24Zm-2.26,7.72-1.46.36c0-.34,0-3.25,0-3.25v-4.83s.95-.09,1.44-.11v7.83Zm-2.29.59-1.42.42v-8.24s.93-.26,1.43-.36v8.18Z"/><path class="cls-7" d="M63.08,128.26a.39.39,0,0,0,.07.53,25.58,25.58,0,0,0,4.31,2.64.35.35,0,0,0,.17,0,.36.36,0,0,0,.29-.13,14.41,14.41,0,0,1,8.61-4.68.38.38,0,0,0,.28-.56,10.91,10.91,0,0,0-3.45-3.7.34.34,0,0,0-.2-.06,9.81,9.81,0,0,0-4.1.91,14.93,14.93,0,0,0-6,5Zm-1.13-.5a7.89,7.89,0,0,1-2.39-3.62.39.39,0,0,1,.1-.36,10.91,10.91,0,0,1,7.69-3.19,11,11,0,0,1,3.37.53.39.39,0,0,1,.27.38.39.39,0,0,1-.3.36,14.54,14.54,0,0,0-8.16,5.85.36.36,0,0,1-.28.15h0a.45.45,0,0,1-.27-.1Zm.74,7.9a13.39,13.39,0,0,1-5.92-6.29.4.4,0,0,1,0-.24,11.12,11.12,0,0,1,1.72-3.92.38.38,0,0,1,.66.06,10.08,10.08,0,0,0,2.31,3.09,23.68,23.68,0,0,0,5.94,3.89.4.4,0,0,1,.2.24,14.91,14.91,0,0,1,.57,4.58.36.36,0,0,1-.14.29.41.41,0,0,1-.24.08H67.7a17.23,17.23,0,0,1-5-1.77Zm5.22,2.71a.37.37,0,0,0-.24-.16,18.1,18.1,0,0,1-5-1.68,14.46,14.46,0,0,1-5.51-4.82.4.4,0,0,0-.44-.15.39.39,0,0,0-.26.38,10.77,10.77,0,0,0,.85,3.78A10.82,10.82,0,0,0,66,142.25h0a.37.37,0,0,0,.29-.14A7.27,7.27,0,0,0,68,138.66a.38.38,0,0,0-.06-.29Zm5.77-9.68a16.55,16.55,0,0,1,.82,5.12,12,12,0,0,1-.69,4,9.7,9.7,0,0,1-2.5,3.76.32.32,0,0,1-.12.08,10.56,10.56,0,0,1-3.24.69h0a.41.41,0,0,1-.33-.18.38.38,0,0,1,0-.4,8.42,8.42,0,0,0,1-2.43,11.56,11.56,0,0,0,.31-3.06,15.12,15.12,0,0,0-.62-3.93.42.42,0,0,1,.08-.36,13.74,13.74,0,0,1,4.75-3.51.44.44,0,0,1,.32,0,.37.37,0,0,1,.2.24Zm3.84-1.08a10.86,10.86,0,0,1-.08,7.93,10.69,10.69,0,0,1-2.7,3.9.35.35,0,0,1-.26.1.34.34,0,0,1-.22-.07.39.39,0,0,1-.12-.48,10.51,10.51,0,0,0,.77-2.19,13.68,13.68,0,0,0,.34-3.73,18.26,18.26,0,0,0-.85-4.69.44.44,0,0,1,0-.3.38.38,0,0,1,.22-.19,14.67,14.67,0,0,1,2.47-.53A.38.38,0,0,1,77.52,127.61Z"/><path class="cls-7" d="M114.07,157.64a9.63,9.63,0,0,0,3.14-4c-5.49-.3-10.35,1.62-12.75,2.57l-.73.29a92.84,92.84,0,0,0-8.72,4c-7,3.44-14.86,7.35-26,8-1,.06-2,.08-2.87.08-10.37,0-17-3.57-24.06-7.34a79.6,79.6,0,0,0-12.41-5.72,31.41,31.41,0,0,0-12.23-1.65,17.81,17.81,0,0,0,3.18,3.55l.14.11.12.11.1.08h0a2.1,2.1,0,0,1,.54,1.53,2,2,0,0,1-.72,1.57c-.77.57-1.83.28-2.85,0-.26-.07-.52-.14-.77-.19a6.3,6.3,0,0,0-3.84.26l-1,.56-.08-3.21-.84.15c-.3.07-3.11.67-4.59-.46A2.23,2.23,0,0,1,6,156.2,21.37,21.37,0,0,0,.67,142.6L0,142l.84-.41c.66-.32,16.44-7.87,30.48-3.17a119.27,119.27,0,0,1,14.16,6.15c7.55,3.7,14.69,7.2,22.88,7.2h.11c9.11,0,17-3.73,26.73-9.67,7.54-4.59,27-8.54,38.82-.05l.58.42-.47.54a27.54,27.54,0,0,0-5.51,14.24,2.25,2.25,0,0,1-1,1.7c-1.53,1.06-4.31.33-4.63.24l-.81-.19-.23,3.21-.93-.6a6.24,6.24,0,0,0-3.83-.45c-.25,0-.51.1-.78.16-1,.22-2.1.46-2.85-.14a2,2,0,0,1-.63-1.61,2,2,0,0,1,.82-1.69l.28-.19Zm-94.09,1-.17-.15c-1-.74-3.82-.68-6.21-.39l0,1.31a7.1,7.1,0,0,1,1.85-.22,9.69,9.69,0,0,1,2,.2l.85.21c.62.17,1.46.4,1.73.21a.83.83,0,0,0,.17-.57.74.74,0,0,0-.21-.6Zm-2.09-2A16.34,16.34,0,0,1,16,154a24.56,24.56,0,0,0-8.56,2.59.86.86,0,0,0,.25.29c.84.64,2.87.37,3.51.23a26.88,26.88,0,0,1,6.72-.53ZM7.24,155.2c2.74-1.42,11.17-4.83,22.85-.91A79.21,79.21,0,0,1,42.7,160.1c7.48,4,14.54,7.79,26.23,7.09,10.87-.65,18.31-4.33,25.5-7.88a96,96,0,0,1,8.84-4l.7-.27c3.94-1.56,14.17-5.59,23.49.72a29,29,0,0,1,5.22-13.07c-11.43-7.62-29.64-3.85-36.79.51-8.15,5-17,9.81-27.42,9.85h-.11c-8.5,0-15.77-3.56-23.46-7.32a116.2,116.2,0,0,0-14-6.09c-11.78-4-25.28,1.27-28.68,2.74a23,23,0,0,1,5,12.84Zm120.05,2a18.26,18.26,0,0,0-8.73-3.43,9.79,9.79,0,0,1-1.93,3.25,26.75,26.75,0,0,1,6.74.83c.66.19,2.67.56,3.54-.05a.86.86,0,0,0,.38-.6Zm-12.47,1.5-.37.28a.76.76,0,0,0-.17.52c0,.3,0,.51.15.58s1.11,0,1.73-.12c.3-.06.59-.13.87-.17a8.65,8.65,0,0,1,3.79.21l.1-1.32a23.4,23.4,0,0,0-3.74-.36A5.61,5.61,0,0,0,114.82,158.72Z"/><path class="cls-1" d="M99.65,153.87l-3.19-7.8,5.15-2.1.74,1.81L99.47,147l.45,1.12,2.19-.89,1,1.68-2.46,1,.51,1.24,3-1.21.74,1.82-5.24,2.14ZM121.83,144a2.58,2.58,0,0,0-1.56-.79c-1.15-.13-2,.65-2.15,2.09a2,2,0,0,0,1.73,2.51,3.4,3.4,0,0,0,1.76-.37l.1,2.05a5,5,0,0,1-2.44.3c-2.57-.27-3.92-2.08-3.63-4.75a4,4,0,0,1,4.68-3.88,4.61,4.61,0,0,1,2.08.71l-.57,2.13ZM74.6,163.79l-.69-1.42-2.62.36-.22,1.46-2.4.33,1.73-8.78,2.78-.38,3.87,7.7-2.45.73Zm-3-3,1.54-.21L72,158l-.43,2.75Zm-32.24-5.3,3-5.63-2-1,1-1.83,6,3.14-.66,2L44.49,151l-3,5.63-2.22-1.16Zm17.7,8-5-1.61,2.58-8,2.39.77-1.94,6,2.27.73L57,163.47Zm21.77-.65,5-1.54-1-1.93-2.27.7-1.86-6-2.39.75,2.48,8Zm31.69-12.75-2.43.51-1.73-8.24,5.21-1.1.42,2-2.78.58.28,1.33,2-.42.76,1.92-2.35.5.62,2.91Zm-59.75,11,1.17-8.54-2.51-1.26L43,157.51l2.16,1.09,1-1.08,2.36,1.19-.24,1.56,2.44.79Zm-1.85-4.29-1.38-.7,1.9-2-.52,2.72Zm-19.75-5.65-2.41-.65.77-2.85-1.41-5.8,2.65.37.69,3.54,2.32-2.63,2.51.68-4.33,4.44-.79,2.9Zm-14.59-1c-2.53.48-4.35-.85-4.85-3.49A4,4,0,0,1,13,141.51a4.59,4.59,0,0,1,2.2.07l.07,2.21a2.65,2.65,0,0,0-1.73-.31c-1.14.22-1.72,1.22-1.45,2.63s1.24,2.12,2.39,1.9a3.35,3.35,0,0,0,1.58-.86l.69,1.93a5,5,0,0,1-2.25,1Zm82.11,5.4a5.14,5.14,0,0,0,1.91-1.55l-1.18-1.69a3.31,3.31,0,0,1-1.29,1.24,2,2,0,0,1-2.8-1.2c-.64-1.29-.33-2.41.71-2.91a2.58,2.58,0,0,1,1.74-.16l-.65-2.12a4.6,4.6,0,0,0-2.14.52,4,4,0,0,0-1.9,5.77c1.17,2.42,3.28,3.23,5.6,2.1Zm-59.91-7.16c-.75-.67-.86-.9-.73-1.2s.4-.33.86-.14a5.36,5.36,0,0,1,1.91,1.6l1.13-1.71a5.79,5.79,0,0,0-2.33-1.65c-1.53-.66-3.11-.4-3.79,1.19-.59,1.36-.09,2.19,1.25,3.42.9.83,1,1.07.88,1.39s-.5.37-1,.18a7.08,7.08,0,0,1-2.32-1.87l-1.14,1.73a7.65,7.65,0,0,0,2.68,1.87c1.57.68,3.2.55,4-1.28.55-1.26.08-2.19-1.43-3.53ZM114,149.54a1.19,1.19,0,1,1-.19-2.37,1.19,1.19,0,0,1,.19,2.37Zm-91.65.28L20.94,147l-.38,0-.16,2.6-2.47-.15.5-8.41,3.22.19c2.17.13,3.36,1.17,3.25,3a2.54,2.54,0,0,1-1.61,2.33l1.69,3-2.66.24Zm-1.05-6.77-.5,0-.13,2.26.51,0a1.08,1.08,0,0,0,1.31-1.08c0-.71-.38-1.13-1.19-1.18Zm102.42,7.67a1.18,1.18,0,1,0-1.28-1.08,1.17,1.17,0,0,0,1.28,1.08Zm-59,11.15-.39,0-.08,2.53-2.49-.08.28-8.43,2.92.1c2.17.07,3.47,1.06,3.41,3s-1.52,3-3.65,2.9Zm0-4.08h-.3L64.34,160h.28c.83,0,1.29-.33,1.32-1.12s-.39-1.12-1.22-1.14Zm25.54.77-1.06-1.17-2.42,1.1L87,160l-2.21,1L84,152l2.55-1.15,5.9,6.29-2.14,1.39Zm-3.77-2,1.42-.64-1.79-2.11Z"/><path class="cls-1" d="M71.94,148.6a2.26,2.26,0,0,1-1.12-.26l.1-.62a2,2,0,0,0,1,.29c.43,0,.75-.21.75-.64s-.24-.59-.68-.59a1.55,1.55,0,0,0-.58.1l-.46-.1.13-1.95h2.06l.1.6H71.65l-.07.86a1.91,1.91,0,0,1,.56-.08,1.09,1.09,0,0,1,1.22,1.12,1.26,1.26,0,0,1-1.42,1.27Zm-3.32,0c-.89,0-1.48-.68-1.48-1.92s.59-1.92,1.48-1.92,1.47.69,1.47,1.92-.59,1.92-1.47,1.92Zm0-3.27c-.5,0-.78.48-.78,1.35s.28,1.36.78,1.36.76-.48.76-1.36-.27-1.35-.76-1.35Zm-4.36,3.28-.09-.59a1.74,1.74,0,0,0,1.51-1.11,1.59,1.59,0,0,1-.89.28A1,1,0,0,1,63.68,146,1.25,1.25,0,0,1,65,144.76c.81,0,1.38.54,1.38,1.57a2.29,2.29,0,0,1-2.12,2.28Zm.74-3.3a.62.62,0,0,0-.65.69.58.58,0,0,0,.65.65,1.21,1.21,0,0,0,.73-.26v0c0-.69-.29-1.06-.73-1.06Zm-2.21,3.22h-.7v-3l-.75.29-.08-.55.91-.42h.62Z"/><path class="cls-1" d="M88,89.83l-1.49-2.68-3.79-1.91,3.1,3.6a24.71,24.71,0,0,0-7.43-3s2.57,2.39,3.79,3.59c.23.15.27.27.27.27l-.27-.27a6.51,6.51,0,0,0-3.06-.66,14.57,14.57,0,0,1-5.66-1.68,6.8,6.8,0,0,0,1.14,1.21l0,0a0,0,0,0,0,0,0,9.47,9.47,0,0,0,3.19,1.77c.11,0,1.53.62,1.64.65a11,11,0,0,0-2.6,1.45,8.48,8.48,0,0,0-2.75,3.67c-.88,2.26-1.7,6.34-1.07,8.67-2-2.63-3.7-6-2.73-9.87-3,1.68-4.92,1.13-7,.82a15.61,15.61,0,0,0-2.38,7c-.17-.28-.34-.59-.49-.9a14.5,14.5,0,0,1-1.26-5.34,12.82,12.82,0,0,1,0-2.06h0l6.83-4.85-9.93-.83h0c.16-.12.34-.24.5-.37a22,22,0,0,1,13.28-4.33c.37,0,.73,0,1.1.08-3-1.7-8.41-1.62-11.58-.63-4.31,1.35-6,1.43-10.63.61,4.84-1,4.67-1.11,7.54-2.47,2.36-1.32,6.84-3.76,12.49-2.72a23.78,23.78,0,0,0-4.25-1.57,16.8,16.8,0,0,0-7.19-.13A9.94,9.94,0,0,1,63,74.45C58,70,43.34,62.92,43.34,62.92,64.2,67.85,73.07,77.64,74.39,79.23l.26.2A46.27,46.27,0,0,0,56.56,59c-1.76-1.1-3.7-1.87-5.49-2.91a57.2,57.2,0,0,1-7.92-5.53l0,0C19.57,31.82,28.35,6,28.35,6a38.84,38.84,0,0,0,2,17.06,57.83,57.83,0,0,0,3.91,9,69.53,69.53,0,0,0,4.46,7.24,36,36,0,0,0,10.46,8.87s-17.8-12.13-7.69-38c-.39,1.11-7.39,21.82,18.92,39.87.5.34.87.33,1,.7,3.5,8.43,17,21.84,19.5,28.3-.11-1.32-.23-2.64-.34-4a14.53,14.53,0,0,1,3.31,5.76c.12-1.3.23-3.28.34-4.59a36.24,36.24,0,0,1,8.08,6.58l-.07-.08L92,82.53l.12.12.06.07.09.09.07.08L92.18,81l-.05-.89s4,5,5.39,8.78c.08.22.15.44.21.65a7.2,7.2,0,0,1-.36,2.28,4.12,4.12,0,0,1-.9,1.17.81.81,0,0,1-.16.1,1.12,1.12,0,0,0,.24-.82,4.45,4.45,0,0,0-.24-1.31c-.14-.45-.31-.89-.45-1.22s-.28-.6-.28-.6a6.54,6.54,0,0,1-.06,2,.06.06,0,0,1,0,0c-.2.89-.61,1.12-.72,1.17h0c0-.14-.06-.28-.09-.4-.11-.33-.24-.64-.36-1-.46-1.14-2.13-4.29-2.67-5.38-.47.67.16,2.23.16,2.23.21.41.71,1.47.71,1.47A2.12,2.12,0,0,0,93.65,92a2.6,2.6,0,0,1-1.73-.36,8,8,0,0,0,1.44,1.87C92.19,93.17,89.51,91,88,89.83Zm6,7.92.23.19s-.52-1-.62-1.18a7,7,0,0,0-2.16-2.34v0l.29.88.06.17.21.64.83.68,1.16.94Zm3.6.69c.81-1-.57-4.49-.59-4.6a3,3,0,0,1-1,.43l-1.68.41h0l-.78-.45-.73-.41-.12-.06-1.63-.92-.48-.27-.12,0h0l-.1,0h0l0,0,.17.15,3.21,2.79h0c1.4,1.61,2.13,3.18.78,4l-.12.06-.15.08,0,0a3.14,3.14,0,0,0,1.91-.29A4,4,0,0,0,97.68,98.44Z"/></g></g></svg>