<svg xmlns="http://www.w3.org/2000/svg" viewBox="0 0 132.24 180.01"><defs><style>.cls-1{fill:#fff;}.cls-1,.cls-2,.cls-3,.cls-4,.cls-5{fill-rule:evenodd;}.cls-2{fill:#e30613;}.cls-3{fill:#00a197;}.cls-4{fill:#f8e800;}.cls-5{fill:#ca181a;}</style></defs><g id="Layer_2" data-name="Layer 2"><g id="Layer_1-2" data-name="Layer 1"><path class="cls-1" d="M17.38,56.08l-.84,13.37S17.38,94,20,103.94s10.81,31.76,12,34.51,14.26,21,14.26,21A96.24,96.24,0,0,1,65.74,157a86.18,86.18,0,0,1,20.31,2.63l10.44-13.85s11.65-18.19,15.43-37.4,3.79-50.12,3.79-50.12-16.65,6-22.3,6-26.78-9.61-26.78-9.61S54,63.79,39.7,63.79s-22.32-7.71-22.32-7.71Z"/><path class="cls-2" d="M16.31,53.59c.49.11,1.31-.15,1.89,0s1.58,1.35,2.1,1.76a30.38,30.38,0,0,0,7.38,4.13,32.47,32.47,0,0,0,12.93,2.36,35.29,35.29,0,0,0,20.16-6.63c.61-.42,1.58-1.41,2.24-1.56a19.87,19.87,0,0,1,3.45,0,17.88,17.88,0,0,1,3.31.07,9.88,9.88,0,0,1,2.31,1.63,37.1,37.1,0,0,0,20.16,7c5.1.16,9.14-1.24,13-2.57a24.79,24.79,0,0,0,8.53-5.08,5.73,5.73,0,0,1,1-.88c.6-.18,1.37.14,1.9,0a213,213,0,0,1-.28,32.48,137,137,0,0,1-5.54,28.16c-4.64,15-10.86,28.28-19.63,39.39-.58.73-1.11,1.47-1.83,2.36-.52.66-1.59,2-2.1,2.1-.92.14-2.35-.73-3.31-.74,0-.34.43-.65.74-1a115.22,115.22,0,0,0,22.13-40.4,148.07,148.07,0,0,0,7-41.42,112.38,112.38,0,0,0-.13-15.56,14.57,14.57,0,0,0-2.51,1.35A36.2,36.2,0,0,1,88.45,65a44.74,44.74,0,0,1-22.06-9.67,44.17,44.17,0,0,1-9.88,5.95,37.1,37.1,0,0,1-12.25,3.59A39,39,0,0,1,30,63.74a51.91,51.91,0,0,1-10.76-5C17,97.06,26.44,126.41,41.55,148.4a83.8,83.8,0,0,0,6.16,7.92c.26.29.77.68.68,1-1-.09-2.32.83-3.32.67-.5-.08-1.57-1.45-2.09-2.1-9.39-11.52-16.49-25.67-21.26-41.68a142.2,142.2,0,0,1-5.41-28.16,198.75,198.75,0,0,1-.07-32.28C16.24,53.69,16.23,53.6,16.31,53.59Z"/><path class="cls-2" d="M66.39,57.31c5.56,4.14,12.29,8.17,21,9.34a41.39,41.39,0,0,0,24.84-4.6c1.12,31.47-5.76,57-17,77a84.23,84.23,0,0,1-11.37,16.1c-.47.52-1.45,1.86-1.89,2a3.35,3.35,0,0,1-1.36-.27c-.25-.2-.13-.08.07-.33.69-.88,2-2.14,2.57-2.85,14.37-16.63,23.29-39,26.53-66.73-28.94-.15-57.84-.07-86.83-.06,3,25.81,10.94,46.87,23.49,63.21a46.66,46.66,0,0,0,5,5.88c.18.17.57.43.48.75-.52,0-.91.24-1.36.2s-1.32-1.24-1.89-1.89c-9.16-10.42-16.19-23.31-20.85-38a153,153,0,0,1-5.88-25.51,168,168,0,0,1-1.29-29.71C26.92,65,35.7,68,45.14,66.51A45.51,45.51,0,0,0,66.39,57.31Z"/><path class="cls-3" d="M19.76,142.58a53,53,0,0,0,9.68-4.87c-.33-.33-.34-1-.74-1.22A58.4,58.4,0,0,1,16,142.18a23.19,23.19,0,0,1-7.72,1.28,16,16,0,0,1-7-1.89c.23.58.49,1.12.74,1.69,5,3,12.74,1.14,17.73-.68ZM82.23,177.5c-5.79-1.34-11.83-2.64-19.09-2.3a68.94,68.94,0,0,0-10.49,1.42c-3.81.79-8.23,2.54-12.18,1.63.24.48.94.61,1.49.81,2.92,1.05,6.2.06,8.93-.54a61.68,61.68,0,0,1,16-1.76,77.79,77.79,0,0,1,15.49,2.3,21.92,21.92,0,0,0,5,.95c1.89,0,3.94-.56,4.6-1.56-3.32,1.09-6.85-.28-9.74-.95Zm11.3-13.26c3.2.61,7,1,9.81-.48.62-.33,1-.9,1.76-1.28a31.25,31.25,0,0,1-4.26,6.5A61.38,61.38,0,0,1,96,174.8a9,9,0,0,1-7.38,2.64,34.8,34.8,0,0,1-5.35-1.29,69.38,69.38,0,0,0-17.32-2.5A69.76,69.76,0,0,0,48.39,176c-2.76.68-6.6,2-9.61.67a11.59,11.59,0,0,1-3.52-3.11,76.37,76.37,0,0,1-8.19-11.57c.45-.05.59.46.81.67,1.24,1.15,3.65,1.78,6.23,1.76,4.9,0,9.63-1.59,14.41-2.64a87.82,87.82,0,0,1,15-2.09c11.74-.55,20.4,2.76,30.05,4.6Zm37.09-4.2c-3.29,2-8.64,2.41-13.4,1.63a48.7,48.7,0,0,1-11.91-3.79c-1.16,5.69-9.27,3.66-14.28,2.64-2.8-.58-5.58-1.46-8.33-2-5.59-1.18-12.1-2.35-18.81-2a89.73,89.73,0,0,0-16.25,2.3c-2.41.55-4.94,1.19-7.51,1.76-4.76,1-12.21,1.81-13.06-2.91-6.18,3-18.18,6.17-25.51,2a7,7,0,0,0-1.56.81,19.39,19.39,0,0,0,6,2.3,26.07,26.07,0,0,0,7.79.2c5.17-.43,9.2-2.12,13-3.72,1.23,3.71,6.35,3.86,10.9,3.25,2.92-.4,5.75-1.25,8.25-1.83a98.29,98.29,0,0,1,17.6-2.57c10.28-.49,18.28,1.78,26.33,3.79,5.54,1.39,13.64,2.78,15.7-2.37a42.37,42.37,0,0,0,12.85,3.79c5.35.6,10.54-.14,13.81-2.5a5.75,5.75,0,0,0-1.62-.75Zm-31.27.27c2-.12,4.38-.78,4.4-2.77s-1.82-3.32-3.25-4.4a21.15,21.15,0,0,0-4.94-2.78c-2,2.93-4.23,5.52-6.29,8.33,1.38.31,3.06.7,4.8,1a22.42,22.42,0,0,0,5.28.61Zm-69.44-5.88a4.32,4.32,0,0,0-1.28,3.11c.2,1.81,2.49,2.32,4.26,2.44,3.71.25,7.29-1,10.22-1.56-2-2.62-4.31-5.57-6.36-8.39-2.26,1.23-5.18,2.51-6.84,4.4ZM105,156.12c5.08,2.55,11.54,5,19.49,4.53a10.9,10.9,0,0,0,4.67-1.49c-2.45-1.93-5.14-3.61-7-6.16a16.64,16.64,0,0,0,7-7.24c-4.57,2-10.69.81-14.89-.54-4.41-1.42-8.29-3.72-11.92-5.68,0,0,0-.08-.06-.07-1.85,3.28-3.86,6.38-5.82,9.54,3.36,1.83,6.83,3.54,8.46,7.11ZM3.18,145.29c5.9,2.53,12.75.44,17.8-1.62a68.88,68.88,0,0,0,9.14-4.54c1.85,3.29,3.83,6.45,5.82,9.61-3.35,1.85-6.87,3.51-8.53,7a41.24,41.24,0,0,1-11.24,3.92c-4.2.77-9.76.91-13.06-.94a37.52,37.52,0,0,0,7.11-6,18.1,18.1,0,0,1-7-7.44Zm119.72,0a31.54,31.54,0,0,1-7.51-1.49A61.36,61.36,0,0,1,103,138.18a7.75,7.75,0,0,1,.68-1.35,63.09,63.09,0,0,0,12.45,5.68c4.35,1.4,11.2,2.22,14.83-.6.09.63-.46,1.21-.61,1.82A16.76,16.76,0,0,1,122.9,145.29Z"/><path class="cls-2" d="M29.19,89.28a3.64,3.64,0,0,1,2,.45l.59-1.18H27.5a5.09,5.09,0,0,1,.32,1.9V94a5.14,5.14,0,0,1-.32,1.91h1.78A5.14,5.14,0,0,1,29,94V92.51a4.37,4.37,0,0,1,1.8.36l.67-1.06H29V89.28Zm73.91,5.93h-.25V92.11a1.85,1.85,0,0,1,1.75,1.71,1.37,1.37,0,0,1-1.5,1.39Zm-.25-6a1.29,1.29,0,0,1,1.45,1.21,1.5,1.5,0,0,1-1.45,1.47V89.24ZM104.48,92a1.72,1.72,0,0,0,1.06-1.58,1.79,1.79,0,0,0-1-1.55,4.18,4.18,0,0,0-1.9-.3h-1.25a4.9,4.9,0,0,1,.33,1.9V94a5,5,0,0,1-.33,1.91h1.54c1.9,0,2.93-.82,2.93-2A2.18,2.18,0,0,0,104.48,92ZM100,88.55H98.22a5.09,5.09,0,0,1,.31,1.9V93a1.72,1.72,0,0,1-1.75,2.11,1.74,1.74,0,0,1-1.47-.71,2.38,2.38,0,0,1-.2-1.29V90.45a4.9,4.9,0,0,1,.32-1.9H93.65a4.9,4.9,0,0,1,.32,1.9v3a2.75,2.75,0,0,0,.26,1.39,1.74,1.74,0,0,0,.63.66,2.93,2.93,0,0,0,1.55.48,3.83,3.83,0,0,0,2.25-.89v.81H100A5,5,0,0,1,99.68,94V90.45a4.9,4.9,0,0,1,.31-1.9Zm-9.74,1.9a4.9,4.9,0,0,1,.33-1.9H88.79a4.9,4.9,0,0,1,.33,1.9V94a5,5,0,0,1-.33,1.91h3.74c.16-.42.36-.86.59-1.36a8.85,8.85,0,0,1-2.87.66V90.45Zm-7.87,1.83a2.63,2.63,0,0,1,2.71-2.92,3.5,3.5,0,0,1,2.07.63V88.7a7.84,7.84,0,0,0-1.8-.24,4.58,4.58,0,0,0-2.93.92,3.62,3.62,0,0,0-1.39,2.94,3.46,3.46,0,0,0,1.36,2.84,3.82,3.82,0,0,0,2.4.78,7,7,0,0,0,2.51-.54l0-1.23A3.78,3.78,0,0,1,85,95a2.52,2.52,0,0,1-2.64-2.75Zm-7.46-1.83a4.9,4.9,0,0,1,.33-1.9H73.46a4.9,4.9,0,0,1,.33,1.9V94a5,5,0,0,1-.33,1.91H77.2c.16-.42.35-.86.59-1.36a8.92,8.92,0,0,1-2.87.66V90.45Zm-5.34,0a4.9,4.9,0,0,1,.33-1.9H68.12a4.9,4.9,0,0,1,.33,1.9V94a5,5,0,0,1-.33,1.91h3.74c.16-.42.35-.86.59-1.36a8.92,8.92,0,0,1-2.87.66V90.45Zm-7.2,2.3,1-2.08.89,2.08Zm1-4.36-2.87,5.69a11.1,11.1,0,0,1-1.12,1.79h1.78a1.65,1.65,0,0,1,0-.21,2.64,2.64,0,0,1,.3-1.09l.48-1h2.67l.5,1.16a1.73,1.73,0,0,1,.21.77,2.24,2.24,0,0,1,0,.34h1.91a8.47,8.47,0,0,1-1-1.58l-2.8-5.9Zm-7.12,6.82h-.24V92.11a1.85,1.85,0,0,1,1.74,1.71,1.37,1.37,0,0,1-1.5,1.39Zm-.24-6a1.3,1.3,0,0,1,1.45,1.21,1.51,1.51,0,0,1-1.45,1.47V89.24ZM57.69,92a1.73,1.73,0,0,0,1.07-1.58,1.8,1.8,0,0,0-1-1.55,4.11,4.11,0,0,0-1.89-.3H54.61a5.09,5.09,0,0,1,.32,1.9V94a5.14,5.14,0,0,1-.32,1.91h1.53c1.9,0,2.93-.82,2.93-2A2.18,2.18,0,0,0,57.69,92Zm-10-2.19A5.9,5.9,0,0,1,50,89.35V94a5,5,0,0,1-.33,1.91h1.79A5,5,0,0,1,51.13,94V89.35a4,4,0,0,1,2,.42l.48-1.22H48l-.33,1.24ZM44,95.06A2.14,2.14,0,0,1,42.19,94a3.6,3.6,0,0,1-.54-2c0-1.59.91-2.68,2.16-2.68a2.19,2.19,0,0,1,1.92,1.22,3.75,3.75,0,0,1,.46,1.87c0,1.56-.92,2.62-2.17,2.62Zm0-6.58a3.39,3.39,0,0,0-2.71,1.31,3.72,3.72,0,0,0-.78,2.38,3.82,3.82,0,0,0,1.18,2.92,3.34,3.34,0,0,0,2.22.85,3.24,3.24,0,0,0,2.32-1,3.88,3.88,0,0,0,1.09-2.82,3.8,3.8,0,0,0-1-2.71,3.09,3.09,0,0,0-2.29-1Zm-7.83,6.58A2.14,2.14,0,0,1,34.33,94a3.69,3.69,0,0,1-.54-2c0-1.59.92-2.68,2.17-2.68a2.2,2.2,0,0,1,1.92,1.22,3.75,3.75,0,0,1,.46,1.87,2.33,2.33,0,0,1-2.18,2.62Zm0-6.58a3.41,3.41,0,0,0-2.72,1.31,4.11,4.11,0,0,0,.41,5.3,3.32,3.32,0,0,0,2.22.85,3.24,3.24,0,0,0,2.31-1,4.15,4.15,0,0,0,.07-5.53A3.12,3.12,0,0,0,36.14,88.48Z"/><path class="cls-4" d="M7.09,101.73A4.69,4.69,0,0,1,6.54,103,4.88,4.88,0,0,0,6,104.31l-.54-1.23-.32-2.89,1-3.49,1,1Z"/><path class="cls-4" d="M9.13,129.34a12.8,12.8,0,0,1-2.37-.15c-.6-.17-1-4-1-4l1.69-6,2.9-6.32,1.9,3.42,2.37,3.29.84,3.65-.77,3.44-1.14,2.6s-1.58-.08-2.13-.08-2.29.15-2.29.15Z"/><path class="cls-2" d="M14,93.59c0,1.47-.48,2.26-.59,3.73a4.22,4.22,0,0,0,0,.61s-.08.08-.11,0c-.13-.25-.27-.36-.41-.61a4.86,4.86,0,0,1-.57-1.65,5.94,5.94,0,0,1-.11-1.32h0a16.6,16.6,0,0,1,0-1.74,10.31,10.31,0,0,0-.2-2.21,6.68,6.68,0,0,0-.51-1.35c-.07-.17-.3-.44-.24-.5s.3.06.4.11c1.69,1,2.35,2.65,2.38,4.71v.19Z"/><path class="cls-2" d="M5.44,92.34a6.68,6.68,0,0,1,2.43,5,7.24,7.24,0,0,1-.16,2.58c-.06.24-.09.37-.16.61a5.79,5.79,0,0,1-.42,1.22c0,.08-.1.1-.11,0A11.52,11.52,0,0,0,7,99.31a8.22,8.22,0,0,0-.54-1.79.44.44,0,0,0-.13.19,9.79,9.79,0,0,0-.61,2.48,9.21,9.21,0,0,0,.3,4c0,.13-.08.18-.2.06a6.37,6.37,0,0,1-1.42-3,6.84,6.84,0,0,1,0-3.15c.25-1.34.77-2,.85-3.34A6.49,6.49,0,0,0,5,92.29c0-.07,0-.08,0-.11s.33.13.38.16Z"/><path class="cls-2" d="M10.81,96.65c2.6,2.77,2.5,5.5,3,9.26.09.62.08,1.07.17,1.59a3.25,3.25,0,0,1,2.48-1,.37.37,0,0,1-.08.22,6.56,6.56,0,0,0-.41,5.16c.25.94.62,1.82,1,2.72.23.62.51,1.19.7,1.81a15,15,0,0,1,.72,4.39,9.76,9.76,0,0,1-1.64,5.81c-.3.45-.65.87-1,1.31A6.37,6.37,0,0,1,14.13,129a1.79,1.79,0,0,1-.85.28,11.62,11.62,0,0,0,1.28-3.54,9.75,9.75,0,0,0,.1-2.35,10,10,0,0,0-1.73-4.78,15,15,0,0,1-2.26-3.6,13,13,0,0,1-1.87,4.53c-.26.52-.65.92-.86,1.45a11.91,11.91,0,0,0-1.61,3.88,6.21,6.21,0,0,0,.7,4.22c0,.07,0,.05-.08.08l0,0,0,0a5.8,5.8,0,0,1-3.44-2.28,10.7,10.7,0,0,1-1.94-7.38c0-1,.07-2.07,0-3.09a12,12,0,0,0-.85-3.89.12.12,0,0,1,.09-.1,5.07,5.07,0,0,1,2,1A7,7,0,0,1,4.3,115.1c0-3,1.09-6,2.34-8.78.49-1.14,1-2.23,1.54-3.34A16,16,0,0,0,10,96c0-.08,0-.11,0-.19.37.17.55.5.87.84Z"/><path class="cls-4" d="M11,102.05a57.91,57.91,0,0,0,1.88,8.08,27.11,27.11,0,0,0,1.39,3.67c.68,1.66,1.47,3.19,2.07,4.94a10.12,10.12,0,0,1-.21,6.65,8.06,8.06,0,0,1-.81,1.5,3.78,3.78,0,0,1,.23-.89,11.33,11.33,0,0,0-.4-6.69,13.8,13.8,0,0,0-1-2.23,15.78,15.78,0,0,0-1.18-2l-.21-.31a12.32,12.32,0,0,1-.69-1.08,8.34,8.34,0,0,1-.62-1.32,7.77,7.77,0,0,1-.74-3.19c0-.05-.09,0-.13,0a7.14,7.14,0,0,0-1.7,3.31c-.2,1-.46,1.92-.72,2.89a28.5,28.5,0,0,1-1.87,4.4,12.66,12.66,0,0,0-1.17,7.38.16.16,0,0,0,0-.06H5.07a6.7,6.7,0,0,1-1.22-2,10.1,10.1,0,0,1-.64-2.6,15,15,0,0,1,.35-5.25,4.94,4.94,0,0,1,1,1.1c.19.25.29.54.48.77,0,0,.1,0,.12-.05a21.57,21.57,0,0,1,1.63-6.25c.39-.88.74-1.84,1.19-2.72s.94-1.9,1.4-2.85A20.78,20.78,0,0,0,11,102.05Z"/><path class="cls-5" d="M10.9,119.33a7.31,7.31,0,0,1,2.16,6.51,10.46,10.46,0,0,1-.68,2.14,3,3,0,0,1-1.07,1.31c0-.08-.15-.12-.07-.22a6.22,6.22,0,0,0,.52-2.15,5.12,5.12,0,0,0-.82-2.93.77.77,0,0,0-.22-.22A9.92,9.92,0,0,1,9.78,126a6.22,6.22,0,0,0-.45,1.25,4.55,4.55,0,0,0-.06,1.52,1.13,1.13,0,0,1,.09.51c-.28,0-.4-.23-.61-.43a3,3,0,0,1-.44-.61,3.86,3.86,0,0,1-.41-2.55,6.25,6.25,0,0,1,.18-1,8.56,8.56,0,0,1,1.26-2.53c.58-1,1.14-1.34,1.35-2.38a4.86,4.86,0,0,0,.08-.54c.08-.07.09,0,.13.07Z"/><path class="cls-3" d="M71.44,29.24a1,1,0,0,0,.43.69,1,1,0,0,0,.75.23,1,1,0,0,0,.75-.23,1,1,0,0,0,.44-.69c0-.5-.42-1-.15-1.57.15-.18.48-.47.47-.52s-.08-.08-.08-.08a8.52,8.52,0,0,1-2.85,0s-.07,0-.08.08.32.34.47.52c.27.52-.2,1.07-.15,1.57Zm-7.23,4.67c0,.18-.08.35-.13.53,0,0-.24-.24-.5-.53h0c-.5-.54-1.24-1.37-1.63-1.83l0-.1c.75-.86.77-.89,2.27-2.55v0a10.55,10.55,0,0,1,0,4.44h5c0-.06,0-.13-.06-.18A10.37,10.37,0,0,1,69,31a2,2,0,0,1,.37.22c.22.11.45.2.68.3,0,.3-.19.76.21.91.39,0,.45-.44.66-.68.34.05.71.14,1.06.16,0,.91,0,1.27,0,2h0c0,.19,0,.39,0,.63a2,2,0,0,0-.42-.35,1.31,1.31,0,0,0-1.34,0,1.4,1.4,0,0,0-.54.68c0,.15-.12.3-.07.48,0,0,0,0-.07,0a4.19,4.19,0,0,1-.33-.94c0-.15-.06-.32-.1-.48ZM62.48,37a2.89,2.89,0,0,0,.74-.87c-.65-.73-1.32-1.45-2-2.19-.17-.18-.33-.37-.48-.55a5.84,5.84,0,0,0-.53.55h0c-.56.62-1.43,1.6-1.92,2.17a.5.5,0,0,0,.14.53,2.22,2.22,0,0,0,1.45.92A2.66,2.66,0,0,0,62.48,37Zm-5-2.51a4.94,4.94,0,0,1-.15-.55h0a10.24,10.24,0,0,1-.12-3.83,2.3,2.3,0,0,1,.14-.56c.81.8,1.49,1.66,2.29,2.52-.53.63-1.09,1.27-1.65,1.87l-.51.55ZM61,25.84a3.06,3.06,0,0,0-3,1.74c.88,1.07,1.8,2.07,2.73,3.13.57-.66,2.4-2.72,2.65-3.13A3.54,3.54,0,0,0,61,25.84Zm4.1-3.79a15.4,15.4,0,0,1-1.73-1.6A13.33,13.33,0,0,1,62,18.7c-.26-.37-.47-.7-.65-1a15.44,15.44,0,0,1-1-2,11.63,11.63,0,0,1-1.14-4.14,6.1,6.1,0,0,1,0-1.48s0,0,0,0,.08-.1.07-.18h.15a8.85,8.85,0,0,0,2,.57,6,6,0,0,0,2.2.06,4.39,4.39,0,0,0,3.14-1.62,8.22,8.22,0,0,0,.79.77,7.18,7.18,0,0,0,5.66.46,8.26,8.26,0,0,0,.94-.3,5.24,5.24,0,0,1,0,2,10.57,10.57,0,0,1-.92,3.44c-.11.26-.18.4-.3.66-.33.69-.6,1.24-.9,1.77a15.6,15.6,0,0,1-1.12,1.64,16.08,16.08,0,0,1-4.23,3.8h-.07a18.05,18.05,0,0,1-1.46-1.08Zm4.79,5.61a3,3,0,0,1,3-1.79,3,3,0,0,1,1.87,1.07c.08.15.22.29.32.44s.25.45.39.65a2.14,2.14,0,0,0,.16.44,1.7,1.7,0,0,0-1.08.18c0,.21.22.21.33.31a.9.9,0,0,1,.45.61,1.12,1.12,0,0,1-.55.74,5.74,5.74,0,0,1-3.69.36c-.19-.11-.41-.1-.59-.24a2.67,2.67,0,0,1-.76-.51c0-.14-.11-.25,0-.39.11-.46.61-.66,1-.79a.1.1,0,0,0,0-.13,1.23,1.23,0,0,0-1.09-.26,3.25,3.25,0,0,1,.29-.69Zm6.31,3.17a4,4,0,0,1-.8.5c-.14.14-.51.06-.44.36a.93.93,0,0,1-.06.5.56.56,0,0,1-.21.16c-.41.1-.48-.38-.64-.61-.32.05-.63.07-1,.1,0,.82,0,1.42,0,2.07h0v.89c.12-.17.28-.31.39-.47a1.25,1.25,0,0,1,2.14.66l0,0c0,.07,0,.15,0,.22l.1-.16a9.49,9.49,0,0,0,.29-1.11c0-.11,0-.22.08-.33a10.76,10.76,0,0,0,.14-1.71l0-.06h0v-.17a5.33,5.33,0,0,0-.07-.82ZM74.6,36.59a2.38,2.38,0,0,1-1.51,1.13,2.86,2.86,0,0,1,0-1,1.91,1.91,0,0,1,.73-1.53.58.58,0,0,1,.8.11,1.48,1.48,0,0,1,0,1.3ZM72,37.72a4.22,4.22,0,0,0,0-.87,3.16,3.16,0,0,0-.25-1,1.4,1.4,0,0,0-.34-.57,2.41,2.41,0,0,0-.24-.21c-.07.09-.11-.07-.19,0s-.14.08-.28,0a.44.44,0,0,0-.2.27c-.05,0,0,.12-.05.16a1.27,1.27,0,0,0,.14,1,.43.43,0,0,0,.13.28,1.86,1.86,0,0,0,.71.71,1.63,1.63,0,0,0,.56.16ZM67.68,40h58.61V52.77H7V40h58.7c0-2.13.06-6.11,0-6.07-.14.37-.21.7-.39,1.12a7.64,7.64,0,0,1-.46,1,6.48,6.48,0,0,1-.61.93,5.89,5.89,0,0,1-.59.64,5,5,0,0,1-.5.42,3.51,3.51,0,0,1-.75.44,2.83,2.83,0,0,1-.57.23,3.14,3.14,0,0,1-.51.12,3,3,0,0,1-.9,0,3.55,3.55,0,0,1-.47-.08,4.94,4.94,0,0,1-.55-.15,3.67,3.67,0,0,1-.83-.44,4.11,4.11,0,0,1-.54-.39,5,5,0,0,1-1.42-1.9,4.69,4.69,0,0,1-.33-.72,6.51,6.51,0,0,1-.27-.78c-.06-.2-.1-.35-.14-.51s-.06-.25-.09-.41a7.71,7.71,0,0,1-.11-.84,8.25,8.25,0,0,1,0-1.11,6.73,6.73,0,0,1,.07-1,10.52,10.52,0,0,1,.21-1.12,7.75,7.75,0,0,1,.39-1.24A7.86,7.86,0,0,1,57,26.81a4.74,4.74,0,0,1,.51-.67,4.68,4.68,0,0,1,.56-.53,4.43,4.43,0,0,1,1-.7A3.53,3.53,0,0,1,60,24.6l.33-.06a4.61,4.61,0,0,1,.91,0c.15,0,.23,0,.38.05a2.84,2.84,0,0,1,1.12.43,4.31,4.31,0,0,1,.81.67,4.67,4.67,0,0,1,.45.44,4.88,4.88,0,0,1,.69,1,6.28,6.28,0,0,1,.49,1,5.62,5.62,0,0,1,.27.72c.09.26.2.68.2.68h0V24.88c-.36-.29-.66-.48-1.07-.81s-.71-.58-1.14-1-.64-.6-1-1-.5-.54-.79-.9-.4-.48-.63-.8-.46-.62-.72-1-.43-.69-.68-1.15a.13.13,0,0,0-.12.09v.4a2.66,2.66,0,0,1-.17.79c-.06.17-.18.43-.18.43a9.4,9.4,0,0,1-.61.9,6.15,6.15,0,0,1-.62.63c-.38.36-.66.5-1,.87a4.5,4.5,0,0,0-.64.67,2.71,2.71,0,0,0-.58,1.22,1.26,1.26,0,0,0,0,.39,1.78,1.78,0,0,0,.13.54,1.35,1.35,0,0,1-.68,0L54.78,25a1.36,1.36,0,0,1-.44-.55,1.24,1.24,0,0,1-.09-.33,1.09,1.09,0,0,1,0-.36,1.49,1.49,0,0,1,.07-.25,5.18,5.18,0,0,1-1,.33A5.3,5.3,0,0,1,52,24c.37.44.72.8,1.12,1.36.19.27.3.42.47.71a7.34,7.34,0,0,1,.49,1.11,6,6,0,0,1,.22.72,6.36,6.36,0,0,1,.25,1.3,7.91,7.91,0,0,1,.06.85c0,.31,0,.49,0,.8s-.06.55-.12.9a8.16,8.16,0,0,1-.36,1.35,5.83,5.83,0,0,1-.23.58,6.46,6.46,0,0,1-.4.84c-.14.23-.22.36-.38.58a7.63,7.63,0,0,1-.88,1.09c-.21.22-.33.33-.55.53a7.22,7.22,0,0,1-.68.56,9.41,9.41,0,0,1-.82.5c-.21.11-.33.18-.55.28a7.5,7.5,0,0,1-.83.32,6.93,6.93,0,0,1-1.26.35,8.52,8.52,0,0,1-1.42.13c-.41,0-.64,0-1,0a9.41,9.41,0,0,1-1.18-.11c-.33-.05-.52-.1-.86-.17A16.83,16.83,0,0,1,41.19,38c-1.12-.38-1.49-.56-2.6-.91a11.72,11.72,0,0,0-2-.47c-.36-.06-.57-.09-.94-.12a8.65,8.65,0,0,0-1.61,0,6.3,6.3,0,0,0-1.67.3,10.52,10.52,0,0,0-1.68.77,2,2,0,0,1,.08-.72,2.5,2.5,0,0,1,.16-.41,2,2,0,0,1,.23-.34,2.2,2.2,0,0,1,.33-.35,2.14,2.14,0,0,1,.39-.28,2.82,2.82,0,0,1,.49-.25,6.22,6.22,0,0,1,1-.34,9.07,9.07,0,0,0-1-.59,17.09,17.09,0,0,0-2.23-1c-.54-.21-.85-.31-1.41-.48a13.86,13.86,0,0,0-1.39-.42,11.33,11.33,0,0,0-1.16-.23c-.34,0-.53-.06-.87-.08a6,6,0,0,0-1.12,0,5.37,5.37,0,0,0-1.13.21,5.7,5.7,0,0,0-.78.3,4,4,0,0,0-.86.52,2.45,2.45,0,0,0-.35.29,2.18,2.18,0,0,0-.37.49,2.71,2.71,0,0,0-.21.37,2.62,2.62,0,0,0-.15.39,2.35,2.35,0,0,0-.11.75,2,2,0,0,0,0,.49,2,2,0,0,0,.24.58A1.84,1.84,0,0,0,21,37a2.32,2.32,0,0,0,.54.39,3.12,3.12,0,0,0,.42.18,2.34,2.34,0,0,0,.83.15,2.14,2.14,0,0,0,.79-.12,2.82,2.82,0,0,0,.48-.19,1.7,1.7,0,0,0,.26-.18,1.93,1.93,0,0,1-.35-.3,1.37,1.37,0,0,1-.2-.29,1,1,0,0,1-.11-.38.81.81,0,0,1,0-.31.89.89,0,0,1,.08-.32,1.38,1.38,0,0,1,.2-.33,1,1,0,0,1,.4-.38,1.07,1.07,0,0,1,.4-.1,2.08,2.08,0,0,1,.43,0,2.14,2.14,0,0,1,.34.09l.24.12a1.13,1.13,0,0,1,.34.27,1.17,1.17,0,0,1,.17.28,1,1,0,0,1,.08.29,1.78,1.78,0,0,1,0,.69,2,2,0,0,1-.14.47,2,2,0,0,1-.18.32,2.4,2.4,0,0,1-.3.41,3.24,3.24,0,0,1-.38.36,4.13,4.13,0,0,1-.42.31,3.25,3.25,0,0,1-1,.41,3.21,3.21,0,0,1-.52.11,3.94,3.94,0,0,1-.6,0,3.51,3.51,0,0,1-.56,0A3.29,3.29,0,0,1,21,38.62c-.2-.09-.3-.15-.49-.25A5.22,5.22,0,0,1,20,38a3,3,0,0,1-.43-.44,2.6,2.6,0,0,1-.28-.45,2.9,2.9,0,0,1-.25-.57,3.6,3.6,0,0,1-.12-.44,3.37,3.37,0,0,1-.09-.71,4.71,4.71,0,0,1,0-.53,3.55,3.55,0,0,1,.23-.92,4.14,4.14,0,0,1,.2-.43,3.52,3.52,0,0,1,.46-.7,3.57,3.57,0,0,1,.45-.5,4.33,4.33,0,0,1,.47-.38,4.39,4.39,0,0,1,.5-.34,4.45,4.45,0,0,1,.91-.43A4,4,0,0,1,22.8,31a6.33,6.33,0,0,1,.74-.12,9.94,9.94,0,0,1,1.34-.09,9.48,9.48,0,0,1,1.19.05c.41,0,.63.07,1,.14s.62.12,1,.22a12.72,12.72,0,0,1,1.47.5c.92.34,1.44.54,2.34.94.65.3,1,.47,1.64.81.39.21.65.38,1,.56a2.89,2.89,0,0,1-.07-.49,1.45,1.45,0,0,1,0-.29.85.85,0,0,1,.2-.44.88.88,0,0,1,.25-.22,1,1,0,0,1,.28-.14,2.14,2.14,0,0,1,.53-.1.52.52,0,0,0-.05.12,1.22,1.22,0,0,0,0,.57,2.18,2.18,0,0,0,.11.44,1.77,1.77,0,0,0,.15.31,2,2,0,0,0,.26.32,3.81,3.81,0,0,0,.5.4c.23.16.36.24.6.39a10.56,10.56,0,0,0,1.52.72,17.46,17.46,0,0,0,2.29.8,7.51,7.51,0,0,1-.57-1,3.55,3.55,0,0,1-.36-1.34,3.29,3.29,0,0,1,0-1,3.75,3.75,0,0,1,.29-.95,3,3,0,0,1,.23-.44,3.58,3.58,0,0,1,.7-.87,3.85,3.85,0,0,1,1-.68l.44-.19a3.4,3.4,0,0,1,1.3-.27,3.3,3.3,0,0,1,.63,0,3.13,3.13,0,0,1,.6.1,2.52,2.52,0,0,1,.53.17,2.8,2.8,0,0,1,.61.34,2,2,0,0,1,.28.23,1.66,1.66,0,0,1,.25.34,1.27,1.27,0,0,1,.2.63,1,1,0,0,1,0,.34,1.41,1.41,0,0,1-.19.6,1.54,1.54,0,0,1-.37.53,2,2,0,0,1-.3.21,1.39,1.39,0,0,1-.28.12,1.46,1.46,0,0,1-.46.1,1.36,1.36,0,0,1-.35,0,1.44,1.44,0,0,1-.4-.13,1.12,1.12,0,0,1-.3-.2,1.38,1.38,0,0,1-.37-.58,1.12,1.12,0,0,1-.05-.31,1.73,1.73,0,0,1,0-.32.86.86,0,0,1,.11-.28.78.78,0,0,1,.2-.24A1.09,1.09,0,0,1,45,31c.05,0,0-.05-.07-.08s-.2-.05-.33-.07a2.25,2.25,0,0,0-.58,0,2.41,2.41,0,0,0-.93.36,2.73,2.73,0,0,0-.47.35,2.37,2.37,0,0,0-.46.49,2.18,2.18,0,0,0-.42.9,2.81,2.81,0,0,0-.09.49,2.56,2.56,0,0,0,0,.78,2.42,2.42,0,0,0,.13.53A2.7,2.7,0,0,0,42.63,36a2.11,2.11,0,0,0,.37.3,3.6,3.6,0,0,0,.5.29,3,3,0,0,0,.72.23l.41,0a3.47,3.47,0,0,0,.72,0,3.68,3.68,0,0,0,.75-.14,3,3,0,0,0,.66-.3,2.09,2.09,0,0,0,.66-.47,2.21,2.21,0,0,0,.43-.66A1.75,1.75,0,0,0,48,35a1.55,1.55,0,0,0-.06-.78,3.28,3.28,0,0,1,.37.09,1.1,1.1,0,0,1,.26.15,1.67,1.67,0,0,1,.34.31,1.86,1.86,0,0,1,.28.41,4.69,4.69,0,0,1,.2.6,2.52,2.52,0,0,0,1.1-.81,4.22,4.22,0,0,0,.95-2.16,3.15,3.15,0,0,0,.05-.43,4.07,4.07,0,0,0,0-.78,4.34,4.34,0,0,0-.11-.61,3.35,3.35,0,0,0-.27-.81,2.55,2.55,0,0,0-.37-.59,3.34,3.34,0,0,0-.32-.33A1.62,1.62,0,0,0,50,29a1.93,1.93,0,0,0-.38-.19,1.8,1.8,0,0,0-.4-.1h-.34a2,2,0,0,0-.54.09,2.63,2.63,0,0,0-.73.37.56.56,0,0,1,0-.08,1.08,1.08,0,0,1-.12-.67,2.9,2.9,0,0,1,0-.51,2.18,2.18,0,0,1,.18-.71,2,2,0,0,1,.18-.32,1.49,1.49,0,0,1,.34-.41,1.86,1.86,0,0,1,.32-.23,2.66,2.66,0,0,1,.65-.3.56.56,0,0,0-.08-.15,1.8,1.8,0,0,0-.41-.47,4.23,4.23,0,0,0-1-.73,4.93,4.93,0,0,0-.8-.39,5.39,5.39,0,0,0-.64-.22,5.19,5.19,0,0,0-.93-.21,4.94,4.94,0,0,0-1.15,0,3.73,3.73,0,0,0-.67.09,4,4,0,0,0-1,.3,3.82,3.82,0,0,0-.83.48l-.4.32a3.23,3.23,0,0,0-.48.56,2.93,2.93,0,0,0-.39.69,3,3,0,0,0-.23.84,2.76,2.76,0,0,0,0,.76,3.1,3.1,0,0,0,.08.42c.06.23.11.38.18.58a2.34,2.34,0,0,1-.55.05,1.4,1.4,0,0,1-.44-.1,1.57,1.57,0,0,1-.49-.23,2.25,2.25,0,0,1-.49-.37A3.83,3.83,0,0,1,37.72,27c-.11-.25-.15-.46-.25-.66a2.09,2.09,0,0,0-.41.53,2.45,2.45,0,0,0-.26.48,3.85,3.85,0,0,0-.31.86,5.84,5.84,0,0,0-.16,1.1c0,.25,0,.39,0,.64a11.26,11.26,0,0,0,.12,1.38l-.07,0a.74.74,0,0,1-.53-.08,1.85,1.85,0,0,1-.4-.27,2.4,2.4,0,0,1-.39-.39,2.24,2.24,0,0,1-.35-.5,3.48,3.48,0,0,1-.22-.43,5.89,5.89,0,0,1-.35-1.11c-.21.19-.34.39-.58.61s-.31.29-.52.46a4.87,4.87,0,0,1-.93.6,1.56,1.56,0,0,1-.24-.52,2.94,2.94,0,0,1-.18-.89,2.6,2.6,0,0,1,0-.62l0,0-.15.1c-.25.18-.45.34-.75.52a2.91,2.91,0,0,1-.35.18,2.41,2.41,0,0,1-.45.16,5.53,5.53,0,0,1-1.63.16H16.43a8.91,8.91,0,0,1,.46,1.31c.08.34.11.54.16.88a6.68,6.68,0,0,1,.07.77,6.75,6.75,0,0,1,0,1.19,6.13,6.13,0,0,1-.15.94,7.56,7.56,0,0,1-.39,1.39,5.89,5.89,0,0,1-.24.58A4.42,4.42,0,0,1,16,37a3.88,3.88,0,0,1-.32.47,3.52,3.52,0,0,1-.36.41,2.86,2.86,0,0,1-.41.37,2.59,2.59,0,0,1-.47.32,2.4,2.4,0,0,1-.78.31,2.25,2.25,0,0,1-.52.07,3.32,3.32,0,0,1-.63,0,2.59,2.59,0,0,1-.55-.13,1.76,1.76,0,0,1-.37-.17,2,2,0,0,1-.74-.62,1.53,1.53,0,0,1-.19-.3,1.61,1.61,0,0,1-.12-.39,1.93,1.93,0,0,1-.08-.48,2,2,0,0,1,.09-.69,2.87,2.87,0,0,1,.17-.44,1.55,1.55,0,0,1,.32-.44,1.73,1.73,0,0,1,.3-.25,1.33,1.33,0,0,1,.35-.2,1.18,1.18,0,0,1,.45-.1,1,1,0,0,1,.66.07.8.8,0,0,1,.32.25l0,.08a2,2,0,0,0-.52.19,1.37,1.37,0,0,0-.42.29,1.55,1.55,0,0,0-.25.41,1.15,1.15,0,0,0-.09.28,1,1,0,0,0,0,.24,1,1,0,0,0,0,.34.75.75,0,0,0,.13.27,1.06,1.06,0,0,0,.17.2,1,1,0,0,0,.25.16,1.08,1.08,0,0,0,.52.15,1.39,1.39,0,0,0,.35,0,1.39,1.39,0,0,0,.41-.12,1.75,1.75,0,0,0,.46-.26,2.31,2.31,0,0,0,.62-.76A4.91,4.91,0,0,0,15,36a7.48,7.48,0,0,0,.35-.82,6,6,0,0,0,.18-.64c.06-.28.12-.74.12-.74s.06-.7.05-1.16a6,6,0,0,0-.16-1.52,5.68,5.68,0,0,0-.24-.77,4.81,4.81,0,0,0-.29-.71,3.8,3.8,0,0,0-.69-1,3.4,3.4,0,0,0-.76-.64s0,0,.06,0h7.23a1.84,1.84,0,0,0,.36-.52,2.17,2.17,0,0,0,.19-.44,3,3,0,0,0,.14-.89,3.58,3.58,0,0,0-.07-.93,3.16,3.16,0,0,0-.13-.53,2,2,0,0,0-.31-.59,1.3,1.3,0,0,0-.31-.35,1.4,1.4,0,0,0-.43-.24,1.33,1.33,0,0,0-.34-.1,1.29,1.29,0,0,0-.34,0,1.17,1.17,0,0,0-.26.1.75.75,0,0,0-.2.15.63.63,0,0,0-.24.34.64.64,0,0,0,0,.45.61.61,0,0,0,.16.28.57.57,0,0,0,.35.16.88.88,0,0,0,.48-.15s.18-.11.21-.06a1.24,1.24,0,0,1-.18.53,1,1,0,0,1-.32.34.87.87,0,0,1-.31.14,1.17,1.17,0,0,1-.41.06,1.22,1.22,0,0,1-.63-.14,1.31,1.31,0,0,1-.46-.35,1.33,1.33,0,0,1-.22-.34,2,2,0,0,1-.1-.5,1.69,1.69,0,0,1,0-.63,1.46,1.46,0,0,1,.26-.66,1.53,1.53,0,0,1,.26-.31,1.76,1.76,0,0,1,.31-.3,2,2,0,0,1,.53-.25,2.08,2.08,0,0,1,.56-.13,2,2,0,0,1,.77.11,2.19,2.19,0,0,1,.46.18,3.31,3.31,0,0,1,.69.46,10.21,10.21,0,0,1-.1-1.52A6.6,6.6,0,0,1,21.42,20a3.52,3.52,0,0,1,.24-.78,2,2,0,0,1,.29-.52,1.12,1.12,0,0,1,.28-.23,2.2,2.2,0,0,1,.38.56,3.27,3.27,0,0,1,.31.91,4.11,4.11,0,0,1,.12.77,4.21,4.21,0,0,1,0,.71,12.67,12.67,0,0,1-.18,1.49c.1-.05.16-.14.27-.21a2.73,2.73,0,0,1,.53-.29,1.86,1.86,0,0,1,.38-.12,2.05,2.05,0,0,1,.74-.07l.27,0a1.54,1.54,0,0,1,.66.27,1.31,1.31,0,0,1,.32.25,1.54,1.54,0,0,1,.44.63,1.42,1.42,0,0,1,.11.44,1.58,1.58,0,0,1-.1.83,1.48,1.48,0,0,1-.41.66.92.92,0,0,1-.25.19,1.81,1.81,0,0,1-.79.27.9.9,0,0,1-.4,0,.91.91,0,0,1-.37-.18,1.12,1.12,0,0,1-.18-.2A.88.88,0,0,1,24,25.1a1.45,1.45,0,0,1,0-.46.08.08,0,0,1,.08,0,.44.44,0,0,0,.11.15.34.34,0,0,0,.19.09.64.64,0,0,0,.49,0,.76.76,0,0,0,.19-.12.73.73,0,0,0,.16-.23.66.66,0,0,0,.06-.39.58.58,0,0,0-.18-.41.71.71,0,0,0-.49-.21,1,1,0,0,0-.35,0,1.49,1.49,0,0,0-.58.24,1.16,1.16,0,0,0-.29.25,1.42,1.42,0,0,0-.22.28,2.75,2.75,0,0,0-.2.38,2.91,2.91,0,0,0-.24.92,3.52,3.52,0,0,0,0,.65,2.68,2.68,0,0,0,.07.56,2.44,2.44,0,0,0,.14.53,1.86,1.86,0,0,0,.37.68h5.12a4.42,4.42,0,0,1-.37-.27,1.42,1.42,0,0,1-.3-.3,1.66,1.66,0,0,1-.22-.32,1.2,1.2,0,0,1-.17-.57.2.2,0,0,1,0-.11l.18.08.18.08a3.46,3.46,0,0,0,.54.19,2.57,2.57,0,0,0,1.07,0,2.29,2.29,0,0,0,.44-.09,3.54,3.54,0,0,0,.76-.3,7.09,7.09,0,0,0,.87-.55c1.12-.77,1.55-1.46,2.65-2.27a12.86,12.86,0,0,1,1.57-1.08c.34-.18.54-.27.89-.43a14.11,14.11,0,0,1,1.72-.63c-.09-.11-.2-.13-.31-.24a1.22,1.22,0,0,1-.2-.25,1.55,1.55,0,0,1-.19-.36,1.39,1.39,0,0,1-.09-.35,1.31,1.31,0,0,1,0-.28.93.93,0,0,1,.07-.33,1.24,1.24,0,0,1,.25-.45c0-.06.11-.06.14-.14h.06a4.14,4.14,0,0,0,.22.4,2,2,0,0,0,.36.4,1.79,1.79,0,0,0,.76.42,2.59,2.59,0,0,0,.48.12,8.87,8.87,0,0,0,1.46.07c.78,0,1.23,0,2,0,.5,0,.78,0,1.27.11a9.33,9.33,0,0,1,1.72.35A3.19,3.19,0,0,1,46,20a2.68,2.68,0,0,1,0-.8,3.34,3.34,0,0,1,.1-.4,2.73,2.73,0,0,1,.38-.81,2.26,2.26,0,0,1,.44-.53,2.31,2.31,0,0,1,.85-.48,2.1,2.1,0,0,1,.6-.14,1.94,1.94,0,0,1,1.19.16,1.6,1.6,0,0,1,.62.44,1.46,1.46,0,0,1,.34.54,1.56,1.56,0,0,1,.1.37,1.48,1.48,0,0,1,0,.42,1.17,1.17,0,0,1-.3.61,1.39,1.39,0,0,1-.21.21,1.12,1.12,0,0,1-.24.13.86.86,0,0,1-.34.09.87.87,0,0,1-.36,0,.81.81,0,0,1-.31-.1.68.68,0,0,1-.23-.14,1.14,1.14,0,0,1-.28-.3.91.91,0,0,1-.13-.26,1,1,0,0,1-.07-.52A2,2,0,0,1,48.3,18h-.12a3.83,3.83,0,0,0-.4.3l-.17.2a1.65,1.65,0,0,0-.21.42,1.91,1.91,0,0,0-.13.62,1.83,1.83,0,0,0,0,.33,1.5,1.5,0,0,0,.09.35,2.09,2.09,0,0,0,.19.4,2.24,2.24,0,0,0,.32.44,2.57,2.57,0,0,0,.28.29,2.36,2.36,0,0,0,.44.34,3.19,3.19,0,0,0,.58.3,3.81,3.81,0,0,0,.57.19,3.76,3.76,0,0,0,.94.15,3.88,3.88,0,0,0,1.48-.11,3,3,0,0,0,1-.42v0a2.16,2.16,0,0,1-.3-.21,1.27,1.27,0,0,1-.21-.25,1.18,1.18,0,0,1-.19-.95,1.06,1.06,0,0,1,.25-.52l.15-.16c.08.13.12.22.21.35a1.8,1.8,0,0,0,.26.29,1.5,1.5,0,0,0,.33.23,2.53,2.53,0,0,0,.37.18,2.47,2.47,0,0,0,.47.11,4.71,4.71,0,0,0,.53,0,3.27,3.27,0,0,0,.62-.07,2.81,2.81,0,0,0,.54-.17c.15-.07.23-.12.37-.2a3.32,3.32,0,0,0,.5-.33,2,2,0,0,0,.43-.54,1.73,1.73,0,0,0,.18-.39,1,1,0,0,0,.1-.4.67.67,0,0,0,0-.32,1.61,1.61,0,0,1-.71.23,1.22,1.22,0,0,1-1.31-1.17c0-.94.94-1.28,1.6-1.28a2.06,2.06,0,0,1,1.1.31,3.08,3.08,0,0,1,.42.41s.06-.05.08-.08c-.26-.58-.38-.92-.59-1.52a14.84,14.84,0,0,1-.63-2.06,12.22,12.22,0,0,1-.32-1.79c-.06-.5-.07-.78-.1-1.27a16,16,0,0,1,0-2.08,11.16,11.16,0,0,1,.18-1.51c0-.06,0-.08,0-.08h0s.28.31.48.49.29.23.48.37a5.38,5.38,0,0,0,.66.38,7,7,0,0,0,1.32.56l.5.15a5.72,5.72,0,0,0,1.84.2,5.07,5.07,0,0,0,.94-.09,3,3,0,0,0,.78-.22A2.5,2.5,0,0,0,65.17,8a2.22,2.22,0,0,0,.33-.28,2,2,0,0,0,.41-.58,1.65,1.65,0,0,0,.18-.61,1.43,1.43,0,0,0,0-.5,1.37,1.37,0,0,0-.08-.35,1,1,0,0,0-.38-.53A1.07,1.07,0,0,0,65.2,5a.76.76,0,0,0-.21,0,.7.7,0,0,0-.29,0,1.44,1.44,0,0,0-.31.13,1,1,0,0,0-.43.49.76.76,0,0,0-.11.36.71.71,0,0,0,0,.29.6.6,0,0,0,.09.22.7.7,0,0,0,.13.16.21.21,0,0,1-.08.11c-.36,0-.26,0-.41-.1a1.09,1.09,0,0,1-.34-.17A1.27,1.27,0,0,1,63,6.18a1.49,1.49,0,0,1-.17-.39,2,2,0,0,1-.09-.41,1.61,1.61,0,0,1,0-.38,2.21,2.21,0,0,1,.12-.42A1.66,1.66,0,0,1,63.18,4a1.38,1.38,0,0,1,.3-.29,2,2,0,0,1,.3-.2,1.68,1.68,0,0,1,.34-.15,1.6,1.6,0,0,1,.65-.12,1.91,1.91,0,0,1,.48,0,2.46,2.46,0,0,1,.53.15,3.65,3.65,0,0,1,.4.21c0-.31-.09-.56-.09-.91a4.29,4.29,0,0,1,0-.88A4.09,4.09,0,0,1,66.51.65,2.67,2.67,0,0,1,66.85,0a1.83,1.83,0,0,1,.42.6A3.52,3.52,0,0,1,67.63,2a4.52,4.52,0,0,1,.05.82,5.76,5.76,0,0,1-.14,1s0,0,0,0a2.14,2.14,0,0,1,2.08-.26,1.58,1.58,0,0,1,.86.88,1.49,1.49,0,0,1-.11,1.66,1.33,1.33,0,0,1-1,.53c-.12-.11.06-.18.08-.3a1.18,1.18,0,0,0,0-.87,1.06,1.06,0,0,0-1-.63,1.18,1.18,0,0,0-1,.78,2,2,0,0,0,.53,2.05,2.65,2.65,0,0,0,.85.59,3.88,3.88,0,0,0,.71.28,3.35,3.35,0,0,0,.89.12h.33a6.73,6.73,0,0,0,3.73-.93,5,5,0,0,0,1.53-1.2s.06,0,.07,0a20,20,0,0,1-.37,6.85l-.27,1c-.26.83-.59,1.63-.93,2.43a.65.65,0,0,1,0,.1s.11,0,.13.07a2.61,2.61,0,0,1,.41-.41,2.06,2.06,0,0,1,1.1-.31c.66,0,1.6.34,1.6,1.28a1.22,1.22,0,0,1-1.31,1.17,1.61,1.61,0,0,1-.71-.23.68.68,0,0,0,0,.32,1.14,1.14,0,0,0,.11.4,1.73,1.73,0,0,0,.18.39,2,2,0,0,0,.43.54,3.32,3.32,0,0,0,.5.33c.14.08.22.13.37.2a2.69,2.69,0,0,0,.55.17,3.08,3.08,0,0,0,.61.07,4.58,4.58,0,0,0,.53,0,2.47,2.47,0,0,0,.47-.11,2.12,2.12,0,0,0,.37-.18,1.5,1.5,0,0,0,.33-.23,1.8,1.8,0,0,0,.26-.29,3.12,3.12,0,0,0,.2-.35,2.19,2.19,0,0,1,.16.16,1.06,1.06,0,0,1,.25.52,1.18,1.18,0,0,1-.19.95,1,1,0,0,1-.22.25,1.75,1.75,0,0,1-.29.21v0a3,3,0,0,0,1,.42,3.88,3.88,0,0,0,1.48.11,3.76,3.76,0,0,0,.94-.15A3.81,3.81,0,0,0,84.2,22a3.19,3.19,0,0,0,.58-.3,2.36,2.36,0,0,0,.44-.34,2.57,2.57,0,0,0,.28-.29,2.81,2.81,0,0,0,.33-.44,2.87,2.87,0,0,0,.18-.4,1.5,1.5,0,0,0,.09-.35,1.83,1.83,0,0,0,0-.33,1.91,1.91,0,0,0-.13-.62,1.38,1.38,0,0,0-.21-.42l-.17-.2a3.83,3.83,0,0,0-.4-.3h-.12a2,2,0,0,1,.14.47,1,1,0,0,1-.07.52.91.91,0,0,1-.13.26,1.14,1.14,0,0,1-.28.3.68.68,0,0,1-.23.14,1.23,1.23,0,0,1-1,0,1.12,1.12,0,0,1-.24-.13,1.39,1.39,0,0,1-.21-.21,1.17,1.17,0,0,1-.3-.61,1.48,1.48,0,0,1,0-.42,1.56,1.56,0,0,1,.1-.37,1.46,1.46,0,0,1,.34-.54,1.6,1.6,0,0,1,.62-.44A1.94,1.94,0,0,1,85,16.85a2.1,2.1,0,0,1,.6.14,2.31,2.31,0,0,1,.85.48,2.26,2.26,0,0,1,.44.53,2.73,2.73,0,0,1,.38.81,3.34,3.34,0,0,1,.1.4,2.68,2.68,0,0,1,0,.8,3.19,3.19,0,0,1-.22.91,9.33,9.33,0,0,1,1.72-.35c.49-.07.77-.08,1.27-.11.78,0,1.23,0,2,0a8.75,8.75,0,0,0,1.45-.07,2.59,2.59,0,0,0,.48-.12,1.79,1.79,0,0,0,.76-.42,1.72,1.72,0,0,0,.36-.4,4.14,4.14,0,0,0,.22-.4h.06c0,.08.09.08.14.14a1.11,1.11,0,0,1,.25.45A1.23,1.23,0,0,1,96,20a2.62,2.62,0,0,1,0,.28,1.39,1.39,0,0,1-.09.35,1.55,1.55,0,0,1-.19.36,1.22,1.22,0,0,1-.2.25c-.11.11-.22.13-.31.24a14.11,14.11,0,0,1,1.72.63c.35.16.55.25.89.43a13,13,0,0,1,1.58,1.08c1.09.81,1.52,1.5,2.64,2.27a7.94,7.94,0,0,0,.87.55,3.54,3.54,0,0,0,.76.3,2.29,2.29,0,0,0,.44.09,2.57,2.57,0,0,0,1.07,0,3.46,3.46,0,0,0,.54-.19l.18-.08.18-.08a.2.2,0,0,1,0,.11,1.2,1.2,0,0,1-.17.57,1.66,1.66,0,0,1-.22.32,1.42,1.42,0,0,1-.3.3A4.42,4.42,0,0,1,105,28h5.12a1.86,1.86,0,0,0,.37-.68,2.44,2.44,0,0,0,.14-.53,3.57,3.57,0,0,0,.07-.56,4.68,4.68,0,0,0,0-.65,2.91,2.91,0,0,0-.24-.92,2.75,2.75,0,0,0-.2-.38A1.42,1.42,0,0,0,110,24a1,1,0,0,0-.29-.25,1.45,1.45,0,0,0-.57-.24,1.09,1.09,0,0,0-.36,0,.73.73,0,0,0-.49.21.63.63,0,0,0-.19.41.67.67,0,0,0,.07.39.73.73,0,0,0,.16.23.76.76,0,0,0,.19.12.64.64,0,0,0,.49,0,.34.34,0,0,0,.19-.09.44.44,0,0,0,.11-.15s.07,0,.08,0a1.79,1.79,0,0,1,0,.46.74.74,0,0,1-.14.28.79.79,0,0,1-.17.2.94.94,0,0,1-.36.18,1,1,0,0,1-.41,0,1.81,1.81,0,0,1-.79-.27.92.92,0,0,1-.25-.19,1.48,1.48,0,0,1-.41-.66,1.58,1.58,0,0,1-.1-.83,1.42,1.42,0,0,1,.11-.44,2,2,0,0,1,1.42-1.15l.27,0a2.05,2.05,0,0,1,.74.07,1.68,1.68,0,0,1,.38.12,2.73,2.73,0,0,1,.53.29c.11.07.17.16.27.21a12.67,12.67,0,0,1-.18-1.49,4.21,4.21,0,0,1,0-.71,5.13,5.13,0,0,1,.12-.77,3.29,3.29,0,0,1,.32-.91,2,2,0,0,1,.37-.56,1,1,0,0,1,.27.23,1.81,1.81,0,0,1,.3.52A3.52,3.52,0,0,1,112,20a6,6,0,0,1,.14,1.33,9,9,0,0,1-.1,1.52,3.31,3.31,0,0,1,.69-.46,2.19,2.19,0,0,1,.46-.18,2,2,0,0,1,.77-.11,2.08,2.08,0,0,1,.56.13,2,2,0,0,1,.53.25,1.76,1.76,0,0,1,.31.3,1.53,1.53,0,0,1,.26.31,1.46,1.46,0,0,1,.26.66,2,2,0,0,1,0,.63,2.68,2.68,0,0,1-.11.5,1.33,1.33,0,0,1-.22.34,1.23,1.23,0,0,1-.46.35,1.2,1.2,0,0,1-.62.14,1.19,1.19,0,0,1-.42-.06.87.87,0,0,1-.31-.14,1,1,0,0,1-.32-.34,1.24,1.24,0,0,1-.18-.53s.2,0,.21.06a.88.88,0,0,0,.48.15.57.57,0,0,0,.35-.16.61.61,0,0,0,.16-.28.7.7,0,0,0,0-.45.76.76,0,0,0-.24-.34,1,1,0,0,0-.21-.15,1.39,1.39,0,0,0-.26-.1,1.29,1.29,0,0,0-.34,0,1.54,1.54,0,0,0-.35.1,1.47,1.47,0,0,0-.42.24,1.3,1.3,0,0,0-.31.35,1.74,1.74,0,0,0-.3.59,2.44,2.44,0,0,0-.14.53,3.58,3.58,0,0,0-.06.93A2.67,2.67,0,0,0,112,27a2.17,2.17,0,0,0,.19.44,1.84,1.84,0,0,0,.36.52h7.23s0,0,.06,0a3.64,3.64,0,0,0-.76.64,3.8,3.8,0,0,0-.69,1,6.22,6.22,0,0,0-.29.71,5.68,5.68,0,0,0-.24.77,6,6,0,0,0-.16,1.52c0,.46,0,1.16,0,1.16s.06.46.12.74a4.32,4.32,0,0,0,.19.64,5.64,5.64,0,0,0,.59,1.26,2.31,2.31,0,0,0,.62.76,1.61,1.61,0,0,0,.46.26,1.48,1.48,0,0,0,.41.12,1.34,1.34,0,0,0,.35,0,1.08,1.08,0,0,0,.52-.15,1,1,0,0,0,.25-.16.79.79,0,0,0,.17-.2,1,1,0,0,0,.13-.27,1,1,0,0,0,0-.34,1,1,0,0,0,0-.24,1.15,1.15,0,0,0-.09-.28,1.55,1.55,0,0,0-.25-.41,1.37,1.37,0,0,0-.42-.29,2,2,0,0,0-.52-.19l0-.08a.8.8,0,0,1,.32-.25,1,1,0,0,1,.66-.07,1.14,1.14,0,0,1,.45.1,1.51,1.51,0,0,1,.35.2,1.16,1.16,0,0,1,.29.25,1.59,1.59,0,0,1,.33.44,2.09,2.09,0,0,1,.16.44,2,2,0,0,1,.1.69,2.53,2.53,0,0,1-.07.48,2.23,2.23,0,0,1-.13.39,1.53,1.53,0,0,1-.19.3,2,2,0,0,1-.74.62,1.76,1.76,0,0,1-.37.17,2.45,2.45,0,0,1-.55.13,3.32,3.32,0,0,1-.63,0,2.32,2.32,0,0,1-.52-.07,2.4,2.4,0,0,1-.78-.31,2.59,2.59,0,0,1-.47-.32,3.59,3.59,0,0,1-.42-.37,4.71,4.71,0,0,1-.35-.41,3.82,3.82,0,0,1-.31-.47,3.6,3.6,0,0,1-.33-.61,5.89,5.89,0,0,1-.24-.58,8.44,8.44,0,0,1-.39-1.39,6.13,6.13,0,0,1-.15-.94,6.75,6.75,0,0,1,0-1.19c0-.3,0-.47.07-.77a6.83,6.83,0,0,1,.17-.88,7.82,7.82,0,0,1,.45-1.31H105.11a5.56,5.56,0,0,1-1.64-.16A2.41,2.41,0,0,1,103,29a2.91,2.91,0,0,1-.35-.18c-.3-.18-.49-.34-.74-.52l-.15-.1,0,0a2.6,2.6,0,0,1,0,.62,3.27,3.27,0,0,1-.17.89,2.09,2.09,0,0,1-.24.52,4.64,4.64,0,0,1-.94-.6c-.21-.17-.32-.27-.52-.46s-.37-.42-.57-.61a6.8,6.8,0,0,1-.36,1.11,3.48,3.48,0,0,1-.22.43,2.24,2.24,0,0,1-.35.5A2.06,2.06,0,0,1,98,31a1.85,1.85,0,0,1-.4.27.74.74,0,0,1-.53.08l-.07,0a11.26,11.26,0,0,0,.12-1.38c0-.25,0-.39,0-.64a5.12,5.12,0,0,0-.16-1.1,3.85,3.85,0,0,0-.31-.86,2,2,0,0,0-.26-.48,2.09,2.09,0,0,0-.41-.53c-.1.2-.14.41-.25.66a3.86,3.86,0,0,1-.2.41,3.17,3.17,0,0,1-.54.71,2.59,2.59,0,0,1-.5.37,1.57,1.57,0,0,1-.49.23,1.4,1.4,0,0,1-.44.1,2.34,2.34,0,0,1-.55-.05,4.39,4.39,0,0,0,.18-.58,3.1,3.1,0,0,0,.08-.42,2.76,2.76,0,0,0,0-.76,3,3,0,0,0-.23-.84,2.93,2.93,0,0,0-.39-.69,3.23,3.23,0,0,0-.48-.56c-.15-.13-.24-.2-.4-.32a3.82,3.82,0,0,0-.83-.48,4,4,0,0,0-1-.3,3.73,3.73,0,0,0-.67-.09,4.94,4.94,0,0,0-1.15,0,5.19,5.19,0,0,0-.93.21,4.83,4.83,0,0,0-.64.22,4.93,4.93,0,0,0-.8.39,4.23,4.23,0,0,0-1,.73,2,2,0,0,0-.41.47.56.56,0,0,0-.08.15,2.84,2.84,0,0,1,.65.3,1.86,1.86,0,0,1,.32.23,1.49,1.49,0,0,1,.34.41,2,2,0,0,1,.18.32,2.18,2.18,0,0,1,.18.71,1.74,1.74,0,0,1,0,.51c0,.27,0,.45-.12.67a.56.56,0,0,1-.05.08,2.63,2.63,0,0,0-.73-.37,2,2,0,0,0-.54-.09h-.34a1.8,1.8,0,0,0-.4.1,1.93,1.93,0,0,0-.38.19,1.62,1.62,0,0,0-.34.26,3.34,3.34,0,0,0-.32.33,2.55,2.55,0,0,0-.37.59,3.35,3.35,0,0,0-.27.81,3.26,3.26,0,0,0-.11.61,4.07,4.07,0,0,0,0,.78,3.15,3.15,0,0,0,0,.43,4,4,0,0,0,.64,1.74,4.13,4.13,0,0,0,.31.42,2.52,2.52,0,0,0,1.1.81,4.69,4.69,0,0,1,.2-.6,1.86,1.86,0,0,1,.28-.41,1.67,1.67,0,0,1,.34-.31,1.1,1.1,0,0,1,.26-.15,3.28,3.28,0,0,1,.37-.09,1.67,1.67,0,0,0-.06.78,1.75,1.75,0,0,0,.12.32,2.15,2.15,0,0,0,1.09,1.13,3.27,3.27,0,0,0,.66.3,3.11,3.11,0,0,0,.75.14,3.47,3.47,0,0,0,.72,0l.41,0a3,3,0,0,0,.72-.23,3.6,3.6,0,0,0,.5-.29,3.32,3.32,0,0,0,.38-.3,2.76,2.76,0,0,0,.8-1.26,2.42,2.42,0,0,0,.13-.53,2.56,2.56,0,0,0,0-.78,4.17,4.17,0,0,0-.08-.49,2.31,2.31,0,0,0-.19-.52,1.87,1.87,0,0,0-.24-.38,2.62,2.62,0,0,0-.45-.49,3.27,3.27,0,0,0-.48-.35,2.49,2.49,0,0,0-.92-.36,2.33,2.33,0,0,0-.59,0c-.13,0-.23,0-.33.07s-.12,0-.07.08a1.09,1.09,0,0,1,.44.29.78.78,0,0,1,.2.24.86.86,0,0,1,.11.28,1.16,1.16,0,0,1,0,.32,1.65,1.65,0,0,1,0,.31,1.2,1.2,0,0,1-.15.3.91.91,0,0,1-.23.28,1.12,1.12,0,0,1-.3.2,1.34,1.34,0,0,1-.4.13,1.36,1.36,0,0,1-.35,0,1.46,1.46,0,0,1-.46-.1,1.69,1.69,0,0,1-.28-.12,2,2,0,0,1-.3-.21,2.23,2.23,0,0,1-.57-1.13,1.93,1.93,0,0,1,0-.34,1.57,1.57,0,0,1,.21-.63,1.66,1.66,0,0,1,.25-.34,2,2,0,0,1,.28-.23,2.8,2.8,0,0,1,.61-.34,2.52,2.52,0,0,1,.53-.17,3.13,3.13,0,0,1,.6-.1,3.32,3.32,0,0,1,.63,0,3.49,3.49,0,0,1,1.31.27l.43.19a3.91,3.91,0,0,1,1,.68,2.22,2.22,0,0,1,.36.39,2.27,2.27,0,0,1,.33.48,3,3,0,0,1,.23.44,3.75,3.75,0,0,1,.29.95,3.29,3.29,0,0,1,0,1,3,3,0,0,1-.14.78,3.78,3.78,0,0,1-.21.56,8.88,8.88,0,0,1-.58,1,17,17,0,0,0,2.29-.8A10.08,10.08,0,0,0,96,34.88c.24-.15.37-.23.6-.39a3.81,3.81,0,0,0,.5-.4,1.59,1.59,0,0,0,.26-.32,1.77,1.77,0,0,0,.15-.31,2.36,2.36,0,0,0,.11-.44,1.22,1.22,0,0,0,0-.57.77.77,0,0,0,0-.12,2.09,2.09,0,0,1,.52.1,1,1,0,0,1,.28.14.88.88,0,0,1,.25.22,1,1,0,0,1,.21.44,1.43,1.43,0,0,1,0,.29,2.14,2.14,0,0,1-.07.49c.34-.18.6-.35,1-.56.63-.34,1-.51,1.64-.81.9-.4,1.42-.6,2.35-.94a12.56,12.56,0,0,1,1.46-.5c.39-.1.61-.15,1-.22s.63-.1,1-.14a9.63,9.63,0,0,1,1.2-.05,10,10,0,0,1,1.33.09,6.33,6.33,0,0,1,.74.12,4,4,0,0,1,.68.19,4.22,4.22,0,0,1,.91.43,4.39,4.39,0,0,1,.5.34,4.33,4.33,0,0,1,.47.38,3.57,3.57,0,0,1,.45.5,3.52,3.52,0,0,1,.46.7,4.14,4.14,0,0,1,.2.43,4.64,4.64,0,0,1,.26,1.45,3.37,3.37,0,0,1-.09.71,2.4,2.4,0,0,1-.12.44,3.64,3.64,0,0,1-.25.57,2.6,2.6,0,0,1-.28.45,3,3,0,0,1-.43.44,4.14,4.14,0,0,1-.48.34c-.19.1-.29.16-.49.25a3.31,3.31,0,0,1-1.2.32,3.63,3.63,0,0,1-.57,0,4.12,4.12,0,0,1-.6,0,3.21,3.21,0,0,1-.52-.11,3.35,3.35,0,0,1-1-.41,4.13,4.13,0,0,1-.42-.31,3.24,3.24,0,0,1-.38-.36,2.4,2.4,0,0,1-.3-.41,2,2,0,0,1-.18-.32,2,2,0,0,1-.14-.47,1.78,1.78,0,0,1,0-.69,1,1,0,0,1,.08-.29,1.17,1.17,0,0,1,.17-.28,1.13,1.13,0,0,1,.34-.27,1.79,1.79,0,0,1,.24-.12,2,2,0,0,1,.35-.09,2,2,0,0,1,.42,0,1.07,1.07,0,0,1,.4.1,1,1,0,0,1,.4.38,1.38,1.38,0,0,1,.2.33,1.17,1.17,0,0,1,.09.32,1.61,1.61,0,0,1,0,.31,1.27,1.27,0,0,1-.11.38,1.94,1.94,0,0,1-.21.29,1.6,1.6,0,0,1-.35.3l.26.18a2.82,2.82,0,0,0,.48.19,2.14,2.14,0,0,0,.79.12,2.34,2.34,0,0,0,.83-.15,3.12,3.12,0,0,0,.42-.18,2.32,2.32,0,0,0,.54-.39,1.84,1.84,0,0,0,.44-.52,2,2,0,0,0,.24-.58,2,2,0,0,0,0-.49,2.1,2.1,0,0,0-.11-.75,2.62,2.62,0,0,0-.15-.39,2.71,2.71,0,0,0-.21-.37,2.18,2.18,0,0,0-.37-.49,2.45,2.45,0,0,0-.35-.29,4,4,0,0,0-.86-.52,5.24,5.24,0,0,0-.78-.3,5.37,5.37,0,0,0-1.13-.21,6,6,0,0,0-1.12,0c-.34,0-.53,0-.87.08s-.71.12-1.16.23a13.86,13.86,0,0,0-1.39.42c-.55.17-.87.27-1.41.48a17.09,17.09,0,0,0-2.23,1,8.19,8.19,0,0,0-1,.59,6.32,6.32,0,0,1,1,.34,3.78,3.78,0,0,1,.49.25,2.07,2.07,0,0,1,.38.28,1.83,1.83,0,0,1,.33.35,2,2,0,0,1,.23.34,1.84,1.84,0,0,1,.16.41,2,2,0,0,1,.08.72A10.74,10.74,0,0,0,101,36.8a6.45,6.45,0,0,0-1.67-.3,8.87,8.87,0,0,0-1.63,0c-.36,0-.56.06-.93.12a11.72,11.72,0,0,0-2,.47c-1.11.35-1.48.53-2.6.91a16.83,16.83,0,0,1-1.81.51c-.34.07-.52.12-.86.17a9.41,9.41,0,0,1-1.18.11c-.4,0-.63,0-1,0a8.52,8.52,0,0,1-1.42-.13,7.16,7.16,0,0,1-1.26-.35A7.5,7.5,0,0,1,83.8,38c-.22-.1-.34-.17-.55-.28a9.41,9.41,0,0,1-.82-.5,7.22,7.22,0,0,1-.68-.56c-.22-.2-.34-.31-.55-.53a8.39,8.39,0,0,1-.88-1.09c-.15-.22-.24-.35-.38-.58a6.46,6.46,0,0,1-.4-.84,5.83,5.83,0,0,1-.23-.58A8.16,8.16,0,0,1,79,31.71c-.06-.35-.09-.55-.12-.9s0-.49,0-.8a7.91,7.91,0,0,1,.06-.85,6.36,6.36,0,0,1,.25-1.3,6,6,0,0,1,.22-.72A6.46,6.46,0,0,1,79.83,26c.17-.29.28-.44.47-.71A17,17,0,0,1,81.42,24a5.3,5.3,0,0,1-1.34-.11,5.18,5.18,0,0,1-1-.33c0,.08.06.15.08.25a1.09,1.09,0,0,1,0,.36,1.24,1.24,0,0,1-.09.33,1,1,0,0,1-.24.37,1.12,1.12,0,0,1-.2.18l-.29.16a1.36,1.36,0,0,1-.68,0,1.53,1.53,0,0,0,.13-.54,1.67,1.67,0,0,0,0-.39A2.71,2.71,0,0,0,77.15,23a4.5,4.5,0,0,0-.64-.67c-.38-.37-.66-.51-1-.87a6.15,6.15,0,0,1-.62-.63,9.4,9.4,0,0,1-.61-.9s-.12-.26-.18-.43a3,3,0,0,1-.17-.79c0-.15,0-.4,0-.4a.12.12,0,0,0-.11-.08,21.62,21.62,0,0,1-4.66,5.47c-.52.44-1,.82-1.48,1.2,0,1.95,0,3.14,0,4.75,0,0,.09,0,.12,0,.09-.46.31-.86.42-1.31a9.93,9.93,0,0,1,1.18-2,5.18,5.18,0,0,1,2-1.46,3.92,3.92,0,0,1,3.09.23,6.78,6.78,0,0,1,1.39,1.07c0,.14.17.22.24.35a8.39,8.39,0,0,1,1.39,3c.1.45.18.93.24,1.39a11.26,11.26,0,0,1-.23,3h0a9.06,9.06,0,0,1-.6,1.8c-.72,1.58-2.27,3.23-4.12,3.23a4.39,4.39,0,0,1-1-.09,7.77,7.77,0,0,1-.76-.28A6.67,6.67,0,0,1,67.76,34s-.06,0-.08,0v6Zm-.74-20.84a2.13,2.13,0,0,1-.24-1l.38.07a1.27,1.27,0,0,1,0,.86.43.43,0,0,0,0,.05.71.71,0,0,0,.18-.12s0-.07.1-.09a5.28,5.28,0,0,0,.42,1.47c0,.07.09.12.07.2s0,0-.06,0h-.09l-.24-.08c-.11,0-.28-.08-.38,0a.09.09,0,0,0,0,.1.48.48,0,0,0-.12,0,.21.21,0,0,0-.19.12.17.17,0,0,0,0,.12.08.08,0,0,0,.06,0l0,0c0-.1.16-.11.27-.12s0,0,0,0l-.09.07a.14.14,0,0,0,0,.15.12.12,0,0,0,.11.07h0a.13.13,0,0,1,.05-.11.74.74,0,0,1,.44-.13,3.2,3.2,0,0,1,.93,0,.29.29,0,0,1,.1,0,.14.14,0,0,1,.1.1s0,0,.07,0a.24.24,0,0,0,.11-.2.13.13,0,0,0,0-.06.57.57,0,0,0-.39-.07.45.45,0,0,1-.28-.06c-.11-.08-.12-.22-.18-.33A5.61,5.61,0,0,1,67.89,19a.56.56,0,0,0,.32.13c.05,0,.12,0,.16,0L68.2,19a1.29,1.29,0,0,1-.31-1.13c.13,0,.13-.07.29.12a1.06,1.06,0,0,1,.18.33,1.39,1.39,0,0,1,.07.61s0,0,0,0a.13.13,0,0,0,.05-.09,1.46,1.46,0,0,0-.24-1.23,5.5,5.5,0,0,0-.71-.66,5,5,0,0,1,1.25,1,2.52,2.52,0,0,1,.3.56,1.92,1.92,0,0,1,.06,1.2s0,.05,0,.08,0,0,.07-.06a2.16,2.16,0,0,0,.28-.57,1.55,1.55,0,0,0-.29-1.52,3.13,3.13,0,0,0-1-.74h.17a1.09,1.09,0,0,0,.58-.28c.16-.12.11-.29.21-.46s.33-.41.48-.7a6.15,6.15,0,0,0,.28-.71,5.07,5.07,0,0,0,.36-.91,3,3,0,0,1,.09-.51c.08-.24.25-.31.36-.54a1.72,1.72,0,0,0,.18-1.07,2.38,2.38,0,0,0-.13-.54.77.77,0,0,0-.18-.4s0,0-.06,0,0,0,0,0a1.45,1.45,0,0,1,0,.3c0,.13-.06.25-.09.37a4.26,4.26,0,0,1-.54,1.14,1.22,1.22,0,0,0,0-.27,1.53,1.53,0,0,0-.08-.37,1.29,1.29,0,0,0-.08-.28,1.25,1.25,0,0,0-.43-.43.17.17,0,0,0-.12,0s0,0,0,0a.59.59,0,0,1,.07.5,2.89,2.89,0,0,1-.63,1.1A11.73,11.73,0,0,1,67.29,14l-.17.18a1.7,1.7,0,0,0-.35.61c-.08.24-.13.48-.2.73a1,1,0,0,1-.06.16s-.07.1-.13.09a.2.2,0,0,1-.1-.15,1.43,1.43,0,0,1,.41-1.24,7.81,7.81,0,0,0,.58-.71.56.56,0,0,0,0-.57.4.4,0,0,0-.17-.17s0,0,0,0,.11,0,.17,0a.84.84,0,0,0,.42,0,.31.31,0,0,0,.2-.2s0-.08,0-.1,0,0,0,0a.34.34,0,0,1-.26.1,3.05,3.05,0,0,1-.66-.17c-.15,0-.3-.1-.46-.13s-.4-.06-.51.1a.11.11,0,0,0,0,.12l-.29,0a1.18,1.18,0,0,0-.07-.2.5.5,0,0,1-.17,0,.52.52,0,0,1,.09.2.63.63,0,0,0-.36.21s-.06.08,0,.13a1,1,0,0,1,.43-.1.85.85,0,0,1,0,.22.59.59,0,0,1-.19,0s0,0,0,0,.09.07.13.1a.83.83,0,0,1-.14.22.32.32,0,0,0-.21-.1c-.15,0-.27.11-.41.14s-.06,0-.09,0a.11.11,0,0,0,0,.1s0,0,.08,0h.14c.1,0,.18-.09.27-.12s.09,0,.13,0l-.06.06c-.13.1-.29.14-.38.29a.25.25,0,0,0,0,.19.2.2,0,0,0,.2.1v0c0-.1.08-.18.15-.24a.18.18,0,0,0,0-.2l.14-.11a.47.47,0,0,0,.12.19.25.25,0,0,0,.27.05.32.32,0,0,0,.21-.28.35.35,0,0,1-.2.1l-.09-.09a.33.33,0,0,0-.24-.05,1.51,1.51,0,0,0,.18-.26,2.41,2.41,0,0,0,.37-.07.45.45,0,0,1,.45.11l0,.09a.52.52,0,0,1-.18.5,10,10,0,0,0-1.43,1.33,1.28,1.28,0,0,0-.16.28,1.66,1.66,0,0,0,0,1.49,2.06,2.06,0,0,0,1.13.94L66,18a3.85,3.85,0,0,1-.21,1,.77.77,0,0,0,.44-.22,3.92,3.92,0,0,1-.21.56,7.14,7.14,0,0,1-.59,1.07.31.31,0,0,1-.15.17c-.2.06-.34-.11-.54-.09s-.13,0-.16.07a.14.14,0,0,0,0,.09.5.5,0,0,0-.32,0,.18.18,0,0,0,0,.14s0,.07.08.08a.31.31,0,0,1,.24-.15.17.17,0,0,1,.12,0s0,0,0,0a.28.28,0,0,0-.11.08.16.16,0,0,0,0,.15.14.14,0,0,0,.16.08s0,0,0,0,.07-.11.12-.15a2.48,2.48,0,0,1,.61-.07,3,3,0,0,1,.52,0,.55.55,0,0,1,.28.09.09.09,0,0,1,0,.07s0,0,.08,0a.2.2,0,0,0,.08-.17.16.16,0,0,0-.12-.14h0a1.11,1.11,0,0,0-.41,0s-.09,0-.11,0a.24.24,0,0,1,0-.08c.24-.34.5-.67.73-1a1.14,1.14,0,0,0,.19-.57.83.83,0,0,0,.27.19A.27.27,0,0,0,66.94,19.16Z"/><path class="cls-1" d="M31.73,80.27A4.62,4.62,0,0,1,30,81.49a7.16,7.16,0,0,1-2.89.38c-.07-2.6,0-5.22,0-7.82,0-1.31,0-2.79,1.11-3.68a.56.56,0,0,0-.14-.29c-1.39,0-2.51,0-3.83,0a.35.35,0,0,0-.21.29,1.83,1.83,0,0,1,.65,1,10,10,0,0,1,.18,2.46c0,2.31,0,4.62-.07,6.94a3.1,3.1,0,0,1-.93,2.36.7.7,0,0,0,.09.24c2.32,0,4.65.09,7,0,.36-1,.77-2,1.05-3a.27.27,0,0,0-.18-.16Zm43.74-5.65-.09.31a2.77,2.77,0,0,1-1.31,1.47,3.27,3.27,0,0,1-1.47.27s-.08,0-.06,0c0-1.62,0-3.24.06-4.84A2.56,2.56,0,0,1,75.24,73a2.7,2.7,0,0,1,.23,1.64Zm2-2a4.41,4.41,0,0,0-4.05-2.42c-1.25,0-2.51,0-3.79,0a1.53,1.53,0,0,0-.19.3c.1.09.2.2.31.32a3.3,3.3,0,0,1,.51,1.89c0,2.68-.09,5.34-.06,8a4.89,4.89,0,0,1-.64,2.51c0,.1.07.2.12.28,1.14,0,2.29,0,3.44,0a.36.36,0,0,0,.13-.22,2.89,2.89,0,0,1-.66-1.39c-.15-1.26,0-2.33-.08-3.62,0,0,0-.1,0-.13,1.84-.14,3.75-.56,4.68-2.38a3.48,3.48,0,0,0,.48-2.22,4.42,4.42,0,0,0-.24-.92ZM63,76.06a2.42,2.42,0,0,1-1,.24c0-.75,0-2.65,0-2.64,0-.74,0-1.23,0-1.82.1,0-.07-.1,0-.12a3.28,3.28,0,0,1,.78.08,2.21,2.21,0,0,1,1.56.94,2,2,0,0,1,.07,2.09c-.09.14-.2.25-.27.38a4,4,0,0,1-.67.55,5.44,5.44,0,0,1-.58.3Zm3.44,4.67a42.57,42.57,0,0,1-2.2-3.65c.38-.27.82-.5,1.22-.77A3.51,3.51,0,0,0,67,73.82c0-.17,0-.41,0-.6a3.14,3.14,0,0,0-2-2.6A5.83,5.83,0,0,0,63,70.21c-1.25,0-2.55,0-3.8,0a.6.6,0,0,0-.16.33c.15.06.17.23.32.3a3.22,3.22,0,0,1,.44,1.79c0,2.45,0,5,0,7.44a11,11,0,0,1-.12,1.32,3.74,3.74,0,0,1-.4,1.33c-.1.26-.36.42-.47.61.07,0,.09.14.17.16h3.15c.29-.06.74.18.82-.22a3,3,0,0,1-.81-1.59s0-2.66-.08-3.89a.09.09,0,0,1,.09-.07c.47.86.86,1.62,1.37,2.39a7.63,7.63,0,0,0,2.91,3.22s0,0,0,0a3.23,3.23,0,0,0,2.17.2.58.58,0,0,0,.07-.21,9.13,9.13,0,0,1-2.26-2.61Zm19.71-.17a2.75,2.75,0,0,1-2.43,1.74,3,3,0,0,1-2.17-1.52,7,7,0,0,1-.9-2.76,11,11,0,0,1,0-2.92c0-.34.18-.7.25-1a2.21,2.21,0,0,1,.22-.64,2.87,2.87,0,0,1,2.24-1.76,2.58,2.58,0,0,1,2.11,1,7.74,7.74,0,0,1,1.27,4.77,8.48,8.48,0,0,1-.6,3.11ZM85,70.26a6.9,6.9,0,0,0-2.08-.11c-.37.1-.78.2-1.14.33a4.84,4.84,0,0,0-2,1.57,9.51,9.51,0,0,0-.7,1.19,11.32,11.32,0,0,0-.66,2.45,10.28,10.28,0,0,0,0,2.48,11.15,11.15,0,0,0,.78,2.54,7.28,7.28,0,0,0,1.62,2.09,4.77,4.77,0,0,0,1.51.83,9.19,9.19,0,0,0,1.07.2,5.16,5.16,0,0,0,4.46-1.92,8.81,8.81,0,0,0,.32-9.2A5.49,5.49,0,0,0,85,70.26Zm13.66,9.13c-.08.08,0,.2-.08.32a3.07,3.07,0,0,1-2.39,2.52,2.15,2.15,0,0,1-1.59-.48,3.53,3.53,0,0,1-1.17-1.43,6.46,6.46,0,0,1-.53-1.51,5.81,5.81,0,0,1-.15-.93,9.24,9.24,0,0,1,0-2.83c.25-1.17.68-2.61,1.82-3.19a1.88,1.88,0,0,1,1.12-.25l0,0c0-.09.09,0,.13,0s.21,0,.29,0c2.89.73,3,5.61,2.54,7.75Zm1.27-7.26a6,6,0,0,0-2.27-1.78l-.31-.12a5.14,5.14,0,0,0-5.25,1.3c-.17.18-.29.35-.45.52A9,9,0,0,0,91,73.23a9.2,9.2,0,0,0-.54,5.33,7.93,7.93,0,0,0,1.47,3.27,4.72,4.72,0,0,0,3.85,2,5.19,5.19,0,0,0,3.81-1.53,8,8,0,0,0,1.58-3,10.19,10.19,0,0,0-.1-4.69,8.93,8.93,0,0,0-1.17-2.45Zm10,8.25s-.08,0-.06.07A5.56,5.56,0,0,1,105.16,82a7.29,7.29,0,0,1,0-1.25c0-2.07-.06-4.19,0-6.26,0-1.38-.1-3,1.09-4,0-.09,0-.2-.07-.26-.6,0-1.18,0-1.8,0s-1.51,0-2.24,0c-.15,0-.15.17-.22.27s.07,0,.1.06c.67.36.74,1.18.81,1.87.09,1,0,2.07,0,3.11,0,1.66,0,3.33,0,5a5.22,5.22,0,0,1-.37,1.94,1.62,1.62,0,0,1-.6.87,1.3,1.3,0,0,0,.1.25c2.35,0,4.72,0,7.09,0,.35-.82.57-1.64.89-2.45,0-.18.12-.38.15-.56s-.11-.15-.21-.17ZM53.63,81.89a.28.28,0,0,1-.28-.06c0-.89,0-3.75,0-4.3,0-.11,0-.22.06-.31a3.76,3.76,0,0,1,2.93,1,.78.78,0,0,0,.24-.09c0-.82,0-1.66,0-2.46-.09-.29.19-.78-.24-.83a2.29,2.29,0,0,1-1,.72,5.43,5.43,0,0,1-2,.26l0,0c0-1.36,0-2.73,0-4.08a.12.12,0,0,1,0,0,5,5,0,0,1,3.81,1.13c.1,0,.16,0,.24-.06-.07-.85-.14-1.69-.23-2.54-1.39,0-2.79,0-4.18,0-.92,0-1.91,0-2.86,0l-.11.32a1.22,1.22,0,0,1,.51.47c.64,1.12.37,2.51.42,3.77,0,2,0,4,0,6A3.65,3.65,0,0,1,50,83s-.11,0-.11.12,0,.16.1.21c2.42,0,4.84.07,7.25.06.34-1,.76-2,1-3-.06-.06-.1-.13-.2-.11a5.75,5.75,0,0,1-4.5,1.59Zm-8-11.77c0,.1-.13.19-.14.3a.88.88,0,0,1,.45.46,3.77,3.77,0,0,1-.24,2.37c-.79,2.25-1.52,4.43-2.35,6.74-.29-.69-.45-1.41-.71-2.11,0-.06-1.09-3.34-1.62-5a2.32,2.32,0,0,1,.34-2.49.56.56,0,0,0-.14-.29c-1.37,0-2.72,0-4.08,0,0,0-.06.11-.1.16-.06.21.21.2.28.34,1,.92,1.13,2.26,1.59,3.41,1,3.19,2.15,6.22,3.23,9.35.53,0,1.06,0,1.6,0,.19.07.12-.17.22-.23s.22-.62.29-.88c1-2.72,1.91-5.47,2.93-8.17.52-1.32.9-2.84,2.2-3.67,0-.08,0-.21-.06-.31-1.24,0-2.46,0-3.69,0ZM36,82.65A4.23,4.23,0,0,1,35.54,81c0-2.06,0-4.12,0-6.18,0-1.55-.08-3.19.81-4.48l-.12-.22c-1.21,0-2.46,0-3.69,0l-.13.25.22.23a2,2,0,0,1,.17.27c.57,1.13.3,2.49.38,3.8v4.76a11.8,11.8,0,0,1-.16,2,2.27,2.27,0,0,1-.9,1.67.52.52,0,0,0,.13.28h4a.41.41,0,0,0,.2-.31A3.16,3.16,0,0,1,36,82.65Z"/><path class="cls-1" d="M60.7,162.61c-1.58.16-3.16.32-4.7.58-.06.64-.11,1.27-.12,1.91a.55.55,0,0,0,.28.15c.08-.12.14-.25.21-.38a2.35,2.35,0,0,1,2.05-1c.12.68.18,1.45.23,2.14a17,17,0,0,1,.15,3.63,1.71,1.71,0,0,1-.63,1.16,1.35,1.35,0,0,0,.14.22l3-.3c-.2-.35-.67-.76-.71-1.29a5.75,5.75,0,0,1-.14-.94l0-.08c-.15-1.52-.27-3-.4-4.55.07-.06,0-.12,0-.17a3.24,3.24,0,0,1,1.58.21l.42.28c.07.15.26.23.35.37s.23,0,.34-.09l-.57-1.88c-.5,0-1,.07-1.49.06ZM74.51,166a1,1,0,0,1-.88.23.91.91,0,0,1-.43-.24c-.21-.14-.24-.38-.32-.6a1.36,1.36,0,0,1,.39-1.09,1,1,0,0,1,.9-.21,1.18,1.18,0,0,1,.67.59,1.27,1.27,0,0,1-.33,1.32Zm-.14,3.27a1.3,1.3,0,0,1-.82,1,1.34,1.34,0,0,1-1.12-.18,1,1,0,0,1-.31-.52,1.65,1.65,0,0,1,.09-1.23,1.27,1.27,0,0,1,1.14-.77,1.05,1.05,0,0,1,.91.56,1.61,1.61,0,0,1,.11,1.1Zm1-5.74-.45-.27a2.26,2.26,0,0,0-2.45.25,2,2,0,0,0-.67,2.15,2.76,2.76,0,0,0,.77,1.09,2.81,2.81,0,0,1-.39.19c-.2.2-.44.23-.62.46a2.25,2.25,0,0,0-.67,2.49,2.38,2.38,0,0,0,1.13,1.29,3,3,0,0,0,2.09.14,2.49,2.49,0,0,0,1.64-2,2.28,2.28,0,0,0-1-2.16c-.06,0-.14,0-.16-.1a2.32,2.32,0,0,0,1.47-1.69,2.08,2.08,0,0,0-.72-1.85Zm-10.62,2.4a1,1,0,0,0-1,.34.86.86,0,0,0-.11.9.84.84,0,0,0,.82.53,1,1,0,0,0,.82-.56c0-.28.15-.65-.08-.88a.92.92,0,0,0-.46-.33Zm24.06,3.25a3,3,0,0,0,.34-1.05,2.24,2.24,0,0,0-.35-1.4c-.06-.12-.17-.22-.22-.34a3.5,3.5,0,0,1-.27-.28,3,3,0,0,0-3.12-.32c-.13,0-.24.15-.38.17s-.4.3-.57.46-.3.25-.38.4a15.26,15.26,0,0,0,1.16,1.37.39.39,0,0,0,.29-.06,1.33,1.33,0,0,1,0-.45,1.31,1.31,0,0,1,1-1,1.08,1.08,0,0,1,1,.29c0,.11.17.1.19.22a2,2,0,0,1-.53,2.12,12.44,12.44,0,0,1-4.53,2.87v0c-.24.14-.55.18-.82.31.07.09,0,.25.08.31,2,.47,4,1,6,1.47.4-.5.73-1,1.07-1.53v-.12c-.08,0,0-.15-.14-.13a2.77,2.77,0,0,1-1,.27,6.64,6.64,0,0,1-1.79-.15,1.81,1.81,0,0,1-.74-.2s0-.08,0-.11a7.58,7.58,0,0,0,3.69-3.09Zm-7.74-1.82a1,1,0,0,0-.25.25,1.2,1.2,0,0,1-1.09.09,1.25,1.25,0,0,1-.5-.33.07.07,0,0,0,0-.05s0,0-.06,0a1.28,1.28,0,0,1-.18-.81,1.41,1.41,0,0,1,.49-1,1.22,1.22,0,0,1,1.23-.19,1,1,0,0,1,.45.37,1.28,1.28,0,0,0,.13.29,1.72,1.72,0,0,1-.23,1.38Zm1.71,0a6.68,6.68,0,0,1-.9,2,8.45,8.45,0,0,1-2.47,2.25c-.33.15-.64.45-1,.44-.67-.15-1.35-.28-2-.44a.67.67,0,0,1-.08-.3c.18.08.38,0,.57,0a6.22,6.22,0,0,0,2.66-1.48,9.63,9.63,0,0,0,1-1.09,2.48,2.48,0,0,1-2.52-.91,2.25,2.25,0,0,1-.07-2.36,1.58,1.58,0,0,1,.32-.5,2.68,2.68,0,0,1,2.32-.89l.11,0a2.88,2.88,0,0,1,1.38.67,2.79,2.79,0,0,1,.77,2.57Zm-34.18,3.2a8.57,8.57,0,0,1-.76.85,8.66,8.66,0,0,1-1.1.68,7.85,7.85,0,0,1-1.3.4c-.18-.48-.26-1-.39-1.46l0-.06c-.13-.35-.13-.71-.27-1.07-.08-.13.11-.13.17-.17a2.19,2.19,0,0,1,2.13.36c.1.08.17-.07.25-.11-.18-.85-.43-1.7-.65-2.56a.37.37,0,0,0-.26-.08,2.07,2.07,0,0,1-1,1.13,8.41,8.41,0,0,1-.95.36c-.13,0-.05-.18-.12-.25-.17-.67-.3-1.25-.5-1.88,0-.27.33-.25.53-.32a3.55,3.55,0,0,1,2.77.12c.16.1.12-.12.25-.16a12.39,12.39,0,0,0-.7-1.47c-1.66.33-3.3.76-4.94,1.14-.1,0-.29,0-.3.17s.33.19.39.4a1.7,1.7,0,0,1,.56.82c.17.33.24.7.38,1,.14.72.35,1.45.56,2.17a13.7,13.7,0,0,1,.28,1.7,2.07,2.07,0,0,1,0,.5,1.77,1.77,0,0,1-.37,1,.32.32,0,0,0,.18.22c1.68-.44,3.37-.88,5.05-1.27.11-.06.3,0,.35-.14,0-.66,0-1.34,0-2-.08,0-.13-.08-.21-.07Zm4.7-3.67c-.71-.19-1.56-.2-2-.9a1.06,1.06,0,0,1,.14-1,1.54,1.54,0,0,1,1.32-.48,2,2,0,0,1,1,.45c.09.09.17.24.31.3s.23-.16.21-.27c-.13-.48-.26-1-.4-1.42-.45,0-.84,0-1.24,0a3.65,3.65,0,0,0-2.05.48,2.87,2.87,0,0,0-.86,1.24,2,2,0,0,0,.14,1.38,3.32,3.32,0,0,0,2.35,1.46A3.59,3.59,0,0,1,54,169a1.36,1.36,0,0,1,.19,1.21c-.11.53-.66.79-1.1.92h-.39a2.77,2.77,0,0,1-1.82-1,.83.83,0,0,0-.24.21c.2.6.39,1.17.62,1.75l.06.07c.9-.25,1.81,0,2.7-.33a2.37,2.37,0,0,0,1.2-.91,2.48,2.48,0,0,0,.26-2.53,3.39,3.39,0,0,0-2.16-1.46Zm16.13,2.23c.14-2.17.22-4.35.33-6.51-.25,0-.49-.07-.75-.06a14.31,14.31,0,0,1-1.7,1.43c-.2,0-.1.21-.12.31s.06,0,.09,0a1.65,1.65,0,0,1,.8,1.55c.08.77-.11,1.72-.11,2.59l0,0,0,0c0,.11,0,.28-.07.38a1.87,1.87,0,0,1-1,1.57.72.72,0,0,0,.1.22c.94.05,1.88.13,2.82.16.1,0,.1-.14.16-.22a2,2,0,0,1-.57-1.21C69.46,169.39,69.53,169.26,69.46,169.16Z"/><path class="cls-2" d="M59,126.88a8.46,8.46,0,0,1,3.31-7.38.12.12,0,0,1,.14.07c-.92,1.83-2,3.41-1.83,6.23a10,10,0,0,0,3.45,7c.6.52,1.41.82,1.83,1.49-3.39-1-6.55-3.34-6.9-7.38Zm6.7,15.91c.62.37,1,1,2,1a9.46,9.46,0,0,1-1.29-4.6,17.63,17.63,0,0,1-4.12-1.36A14.94,14.94,0,0,1,61,143c1.1,0,1.76-.81,2.37-1.08a33,33,0,0,1-3.52,7.64c-.35.58-1,1.95-1.63,2.17-1.2.42-2.5-1.11-3.86-.2-.11.13,0,.5-.13.6-1.12-.43-2.55.64-1.56,1.49a2.17,2.17,0,0,1,2.1-.81c-.77.22-1.51,1.79-.07,1.83.11-.21.13-.51.27-.68,1.91-.91,6-.91,8.12-.2.22.08.11.48.34.54a1.27,1.27,0,0,0,.75-1.42c-.35-1.17-2.75-.4-3.66-.88a5,5,0,0,1,1.22-2c1.55-2.14,3.48-4.05,3.93-7.17Zm5.95-12h-.2c0,.08,0,.19.07.2,1.78,1.59,4.25,3.08,6,5.28,2.13,2.74,3.84,6.76,2.51,11a6.9,6.9,0,0,0,1.69-2.64,10,10,0,0,0,.74-3.65c0-6.76-6-8.25-10.76-10.15Zm8.8-4.2a.18.18,0,0,0-.13-.2,13.42,13.42,0,0,1-5.08,1.82,7,7,0,0,0,3.72.27c.78-.3,1-1.44,1.49-1.89Zm-4.87-1.15a17.32,17.32,0,0,0,7.24-3.11h.13A7.91,7.91,0,0,1,79.32,126a11.37,11.37,0,0,1-5.42,1.83c.75-.59,1.72-1,1.63-2.37Zm1-2.91a2.47,2.47,0,0,1-.2,1.35c-.2.42-.79.64-.61.95a15.39,15.39,0,0,0,5.41-2.5c1.47-1.06,3-2.38,3.52-4.4h-.13a24.06,24.06,0,0,1-8,4.6Zm.41-2.78A32.78,32.78,0,0,0,86.36,113c.25,1.29-.74,2.3-1.43,3.11A22.17,22.17,0,0,1,76.54,122c.08-.51.75-1.3.41-2.24Zm0-2.84a43.06,43.06,0,0,0,12-10.15h.13a7.78,7.78,0,0,1-2,4.13c-2.57,3.47-6.4,6-10.29,8.19a2.39,2.39,0,0,0,.14-2.17Zm-4.67-1c-.58.51-1.34,1-1.56,1.76.74-.1,1.29-.76,1.9-1.22C75.89,114,79,112,81.48,108.74c1.25-1.65,3.32-4.68,1.36-6.7H82.7v.21a9.22,9.22,0,0,1-2,5.48c-2.32,3.35-5.49,5.61-8.39,8.19Zm10-3.59a26.42,26.42,0,0,0,4.46-4c1.55-1.65,3.86-3.91,2.84-6.84-.08,0-.09-.08-.2-.07a26.58,26.58,0,0,1-6.22,9.68c-.34.34-.88.65-.88,1.22Zm-18.82-3.86v-.54a9.4,9.4,0,0,1,2.17.41c-.58.2-1.68.66-2.17.13Zm-2.91,1.83a10.92,10.92,0,0,0,.27-1.22,3.11,3.11,0,0,1,1.56.2c0,.93-1.11.79-1.83,1Zm14.76,41.89a1.6,1.6,0,0,1-.61-.67c-1.31-2.3-1.38-5.45-1.83-8.53a2.91,2.91,0,0,0,2.64.61,7.26,7.26,0,0,1-2.64-7.11c-1.81-1.65-4.07-3.4-5.21-5.75a3.89,3.89,0,0,1-.48-2.85,14.37,14.37,0,0,0,4.47,6.3c2.13,1.95,4.63,4,4.26,8.26.56-.29.63-1.12.68-1.76.41-5.43-3.72-7.49-6.36-9.95a6,6,0,0,1-2-2.91c.86.56,1.71,1.58,2.91,2.3a6.35,6.35,0,0,0,6.29.41c.54-.32,1.27-.69,1.35-1.29a14.43,14.43,0,0,1-4.87-.61,5.07,5.07,0,0,1-2.5-1.22c1.61-.15,3-.56,3.38-1.89-1,0-2.48.23-3.18-.27,1.91-.33,3.82-.65,4.26-2.44-1.39,0-2.79.77-4.19.34,1.8-.68,4.17-.79,4.53-2.91-1.4.07-3,1.23-4.53,1,1.84-.92,4.63-1.23,4.6-3.79-1.1.13-2.41,1.32-3.59,1.15,5-3.07,10.07-7,13.4-12.19,1.44-2.22,4.1-6.61,1.49-9.2h-.2c0,.09-.09.09-.07.2a21.55,21.55,0,0,1-3.32,9.48,27.81,27.81,0,0,1-5.68,6.5c-2.22,1.85-4.85,3.33-7,5.14a7.64,7.64,0,0,0-2.43,3.65,7.34,7.34,0,0,1-2.37,3.73c-.36.22-.94.64-1.49.33.47-.53,1-.71,1.28-1.08a10.89,10.89,0,0,0,1.36-3.31,14.63,14.63,0,0,1,1.42-3.32c2.13-3.55,6.68-6.07,9.54-9.34,1.44-1.65,3.07-3.68,3.25-6.23.14-2-.68-2.88-2.17-3.24a7,7,0,0,1,.48,2.43c-.23,2.24-2,4.72-3.32,6.29A39,39,0,0,1,72,113.14c-1.61,1.39-3.62,2.93-4.67,4.94a18.72,18.72,0,0,0-1.22,3.59c-.18.69-.53,3.36-1.49,3.32-.57,0-.82-1.28-.81-2.17.06-4.57,4.34-6.59,5.82-9.61A4.61,4.61,0,0,0,70,112a2.94,2.94,0,0,0-1.36-2.77c2,.26,4.55.12,4.4-1.9-.32.11-.52.47-.94.61-2.85.92-7.72-3.44-9.82-.88-.24.12.14.53-.06.61a7.84,7.84,0,0,0-1.49.07c-.14-.39-.29-.75-.41-1.15-.27.11-.69.08-.95.2a1.81,1.81,0,0,1,.48,1.08c-1.07.29-2.06.66-2.24,1.83a6.26,6.26,0,0,1,2.37-.54,2.35,2.35,0,0,1-.27,1.22c-.18.22-.94-.13-1,.2-.06.51.58.32.67.68a4.13,4.13,0,0,1-.74,1.08c-1-1.19-2.18-.06-3.25.2-.26.07-.46,0-.68.14.83,1.45,2.41,0,3.66-.07-.38.8-2.19,1.07-2.51,2a1.12,1.12,0,0,0,1.09,1.56c-.25-.89.9-1.23,1.15-1.9.08-.22-.08-.54,0-.74s.53-.29.74-.54a1.68,1.68,0,0,0,3.32-.21c-.44.18-.6.53-1,.48s-.91-1.12-1.89-.75c.43-.43.65-1.06,1.08-1.49,1.6-.21,4-1,4.67.75a2.55,2.55,0,0,1-.07,1.56c-.46,1.15-1.92,2.2-3,3-3.19,2.56-7.34,5.36-7.71,10.49-.33,4.64,2.13,7.32,4.94,9a25.44,25.44,0,0,0,9.27,2.91,7.15,7.15,0,0,1,.2,5.08c.74-.15,1.15-1,1.63-1.15a27.85,27.85,0,0,0,1.83,7.17,5.88,5.88,0,0,1,.81,2.1c-1.31.41-4-1.68-4.4.34-1.22-.31-2.09.88-1.29,1.55a2,2,0,0,1,1.76-.81c-.6.33-1.09,1.67.14,1.69a1.63,1.63,0,0,1,.34-.61c1.06-1.09,5.88-1,7.85-.54.44.1.76.65,1,.75.38-.31,1-.59.81-1.29C78.84,151.81,76.41,152.76,75.33,152.19Z"/><path class="cls-1" d="M17.26,43.45c2,0,2.63,5.82.09,5.67-1.74-.1-2.52-5.72-.09-5.67Zm-1.63,0a3.84,3.84,0,0,0-.85,1.51c-.58,1.75.36,4.6,2,4.89,2.17.37,3.33-1.37,3.34-3.18a5,5,0,0,0-.94-3,2.44,2.44,0,0,0-3.6-.18Zm93.68.07c2,0,2.62,5.82.08,5.67-1.73-.1-2.52-5.72-.08-5.67Zm-1.64,0a4,4,0,0,0-.85,1.51c-.58,1.75.36,4.6,2.05,4.89,2.17.37,3.33-1.37,3.34-3.18a5,5,0,0,0-.94-3,2.44,2.44,0,0,0-3.6-.18Zm-84.79-.55-1.47,0-.9,0-.12.19a.67.67,0,0,1,.28.16.93.93,0,0,1,.19.22A1.7,1.7,0,0,1,21,44a4.26,4.26,0,0,1,.06.57c0,.37,0,.88,0,1.36v1.6c0,.25,0,.52,0,.75a1.88,1.88,0,0,0,.87,1.4,2.11,2.11,0,0,0,1.16.18,2.7,2.7,0,0,0,1.1-.37,2.28,2.28,0,0,0,.55-.35s.17-.19.17-.11a5.28,5.28,0,0,0,0,.7h1.64l.1-.18s-.2-.09-.3-.19a1,1,0,0,1-.25-.52,24.06,24.06,0,0,1-.05-2.47c0-.7,0-1.5.05-2.2a2.56,2.56,0,0,1,.1-.51,1.2,1.2,0,0,1,.32-.46,2.13,2.13,0,0,0,.21-.13.19.19,0,0,0-.07-.12.38.38,0,0,0-.13-.06h-2a.34.34,0,0,0-.08.14l0,.13s.07,0,.11.06l.11.09a.79.79,0,0,1,.16.23,1.46,1.46,0,0,1,.11.54c0,.62,0,3.85,0,3.85s-.93,1-1.71,1-.86-.42-.95-1,0-3.49,0-3.49a2.12,2.12,0,0,1,.29-1,1.46,1.46,0,0,1,.37-.3A.65.65,0,0,0,22.9,43a.11.11,0,0,0,0,0Zm5.38,0a5.27,5.27,0,0,1-.53,1.2,2.1,2.1,0,0,1-.89.78c-.05,0-.17-.17-.17-.17s.11-.15.18-.26a1.8,1.8,0,0,0,.21-.46,2.79,2.79,0,0,0,.12-.74c0-.07,0-.12,0-.17a.49.49,0,0,1,.07-.19Zm2.73,0H28.81l-.07.1s0,.09,0,.09a.37.37,0,0,1,.14.07.72.72,0,0,1,.22.26,1.59,1.59,0,0,1,.14.31,2.38,2.38,0,0,1,.05.49,29.54,29.54,0,0,1,0,4.32,2.1,2.1,0,0,1-.09.42l-.09.17a.81.81,0,0,1-.24.27,1.37,1.37,0,0,1-.14.1s0,.07,0,.1a.36.36,0,0,0,0,.12l1.25,0h2.34l.52-1.49s0-.07-.08-.09-.06,0-.07,0a1.64,1.64,0,0,1-.23.23,2.49,2.49,0,0,1-1,.45,5.21,5.21,0,0,1-.8.13.63.63,0,0,1-.21,0c-.05-.15,0-2.88,0-3.24s0-.79,0-1.19a5.43,5.43,0,0,1,0-.58,1.3,1.3,0,0,1,.17-.49,1.12,1.12,0,0,1,.39-.39s0-.06,0-.1l0-.07Zm54.05,0H82.86l-.07.1s0,.09,0,.09a.59.59,0,0,1,.14.07,1,1,0,0,1,.22.26,2.33,2.33,0,0,1,.13.31,2.38,2.38,0,0,1,0,.49c0,.47,0,1.25,0,1.87a22.11,22.11,0,0,1,0,2.45,2.92,2.92,0,0,1-.1.42l-.09.17a.92.92,0,0,1-.23.27c-.06.05-.13.08-.15.1s0,.07,0,.1a.36.36,0,0,0,.05.12l1.25,0h2.34l.53-1.49a.19.19,0,0,0-.09-.09s-.06,0-.07,0a1.64,1.64,0,0,1-.23.23,2.51,2.51,0,0,1-1,.45,5.51,5.51,0,0,1-.81.13H84.5c0-.15,0-2.88,0-3.24s0-.79,0-1.19a5.43,5.43,0,0,1,0-.58,1.3,1.3,0,0,1,.17-.49,1.12,1.12,0,0,1,.39-.39s0-.06,0-.1l0-.07Zm-49.72,0H33.14l-.07.1s0,.09,0,.09l.14.07a1,1,0,0,1,.22.26,2.33,2.33,0,0,1,.13.31,2.38,2.38,0,0,1,.05.49c0,.47,0,1.25,0,1.87a22.11,22.11,0,0,1,0,2.45,2.92,2.92,0,0,1-.1.42l-.09.17a.92.92,0,0,1-.23.27l-.15.1s0,.07,0,.1a.36.36,0,0,0,0,.12l1.25,0h2.34l.53-1.49a.19.19,0,0,0-.09-.09s-.06,0-.07,0a1.64,1.64,0,0,1-.23.23,2.51,2.51,0,0,1-1,.45A5.51,5.51,0,0,1,35,49a.63.63,0,0,1-.21,0,43.33,43.33,0,0,1,0-4.43,5.43,5.43,0,0,1,0-.58,1.5,1.5,0,0,1,.17-.49,1.21,1.21,0,0,1,.39-.39s0-.06,0-.1l0-.07Zm69.44.06h0a.3.3,0,0,1,0,.07s0,.08,0,.1a1.12,1.12,0,0,0-.39.39,1.31,1.31,0,0,0-.17.48,5.72,5.72,0,0,0,0,.59c0,.4,0,.81,0,1.19s0,3.09,0,3.24a.85.85,0,0,0,.21,0,5.29,5.29,0,0,0,.81-.12,2.51,2.51,0,0,0,1-.45,2.45,2.45,0,0,0,.23-.23s0,0,.07,0,.08.06.08.08l-.52,1.5h-2.34l-1.25,0a.36.36,0,0,1,0-.13s0-.08,0-.09a1.37,1.37,0,0,0,.14-.1.81.81,0,0,0,.24-.27l.09-.17a2.79,2.79,0,0,0,.1-.43,19.81,19.81,0,0,0,0-2.44c0-.62,0-1.4,0-1.87a2.38,2.38,0,0,0,0-.49,1.19,1.19,0,0,0-.14-.31.72.72,0,0,0-.22-.26.37.37,0,0,0-.14-.07s0-.06,0-.09l.07-.1ZM41,43l-1.31,0-.61,0a5.22,5.22,0,0,1,.28.47,1.59,1.59,0,0,1,.12.27,2.26,2.26,0,0,1,.16.48,2,2,0,0,1,0,.24c0,.19,0,.38,0,.61,0,.07,0,.35,0,.69v1c0,.27,0,.55,0,.78s0,.43,0,.75a3.06,3.06,0,0,1-.12.66,2.23,2.23,0,0,1-.24.49l-.14.16a.2.2,0,0,0-.07.06.11.11,0,0,0,0,.05.43.43,0,0,0,.08.18H41a.5.5,0,0,0,.07-.13s0-.08,0-.09a1,1,0,0,1-.19-.12.84.84,0,0,1-.2-.28,1.86,1.86,0,0,1-.14-.7,3.53,3.53,0,0,1,0-.54v-.29c0-.58,0-1.15,0-1.73,0-.31,0-.7,0-1a1.61,1.61,0,0,1,.26.31l.65,1,.37.54.64.92c.09.14.48.67.79,1.17a2.9,2.9,0,0,1,.26.43,2.75,2.75,0,0,1,.11.29c0,.07.05.14.08.23a2.78,2.78,0,0,0,.31,0h1.13a.62.62,0,0,0,.1-.22s0,0,0,0-.14-.15-.2-.24l-.06-.1a3,3,0,0,1-.14-1c0-.13,0-.25,0-.34s0-.35,0-.53c0-.37,0-.75,0-1.14,0-.57,0-1.15,0-1.69a5.27,5.27,0,0,1,.06-.63,1,1,0,0,1,.21-.45,1.49,1.49,0,0,1,.22-.21.32.32,0,0,1,.13-.08h0a.8.8,0,0,0-.12-.22h-1.8s-.18.15-.11.19.41.21.46.45a5.39,5.39,0,0,1,.08.93c0,.16,0,3.36,0,3.36-.56-.81-2.79-3.75-3-4.51,0,0,0-.43,0-.43Zm73.45.08-1.3,0-.62,0a4.33,4.33,0,0,1,.28.46l.13.27a2.81,2.81,0,0,1,.16.49.93.93,0,0,1,0,.24c0,.18,0,.38,0,.61v.69c0,.27,0,.64,0,1s0,.55,0,.79,0,.42,0,.75a2.48,2.48,0,0,1-.12.65,1.49,1.49,0,0,1-.24.49.7.7,0,0,1-.14.16s-.06,0-.07.07a.07.07,0,0,0,0,.05.4.4,0,0,0,.09.17h1.9a.46.46,0,0,0,.07-.13s0-.07,0-.08a1.4,1.4,0,0,1-.18-.13.68.68,0,0,1-.2-.27,2.14,2.14,0,0,1-.15-.7c0-.19,0-.38,0-.55a2.44,2.44,0,0,1,0-.28c0-.59,0-1.16,0-1.73,0-.32,0-.7,0-1a1.37,1.37,0,0,1,.27.31c.17.24.39.59.64,1,.12.16.26.36.37.54s.45.63.64.92c.1.13.48.66.8,1.16a3.94,3.94,0,0,1,.25.43c.05.12.08.21.11.3s.05.14.08.22a3,3,0,0,0,.32,0h1.13c0-.06.1-.15.1-.21a0,0,0,0,0,0,0,2.31,2.31,0,0,0-.2-.24.31.31,0,0,1,0-.1,3.29,3.29,0,0,1-.15-1,3.11,3.11,0,0,0,0-.34c0-.17,0-.36,0-.54,0-.37,0-.75,0-1.14,0-.57,0-1.14,0-1.68,0,0,0-.35.07-.64a.86.86,0,0,1,.2-.44,1.21,1.21,0,0,1,.23-.22l.12-.07s0,0,0,0a.75.75,0,0,0-.12-.21H117s-.17.15-.1.18.4.22.46.46a5.36,5.36,0,0,1,.08.92c0,.17,0,3.36,0,3.36-.56-.8-2.79-3.74-3-4.5,0,0,0-.43,0-.43Zm-64.84-.12H46.06s-.17.17-.11.23a.92.92,0,0,1,.29.32,1.7,1.7,0,0,1,.15.67c0,.33,0,.68,0,.9,0,.73,0,1.72,0,2.41a5.73,5.73,0,0,1-.05,1.13,1.53,1.53,0,0,1-.35.79c-.1.1-.21.15-.21.17a.43.43,0,0,0,0,.11.16.16,0,0,0,.09.09s.36,0,.36,0c.28,0,.72,0,1.16,0h2.23l.51-1.43A.33.33,0,0,0,50,48.2s-.06,0-.07,0a1.12,1.12,0,0,1-.26.21,3.68,3.68,0,0,1-1.38.49,4.18,4.18,0,0,1-.82.07V47.83c0-.71,0-1.3,0-1.3a2.36,2.36,0,0,1,.69.1,1.26,1.26,0,0,1,.75.46s.07,0,.12,0a.24.24,0,0,0,.09-.08l0-1.83a.32.32,0,0,0-.11-.06s0,0-.06,0a.7.7,0,0,1-.31.34,1.89,1.89,0,0,1-.47.26,4.57,4.57,0,0,1-.66.16h0s0,0,0-.11c0-.33,0-.66,0-1s0-.44,0-.65a3.1,3.1,0,0,1,0-.43h.22a4.31,4.31,0,0,1,1.18.17,1.73,1.73,0,0,1,.47.24l.16.08c.06,0,.19,0,.2-.08l-.16-1.18Zm73.74.27H119.8s-.16.17-.11.23a.91.91,0,0,1,.3.32,2.15,2.15,0,0,1,.15.67c0,.33,0,.68,0,.9,0,.73,0,1.72,0,2.41a6.66,6.66,0,0,1,0,1.13,1.6,1.6,0,0,1-.36.78c-.1.1-.21.16-.21.17a.42.42,0,0,0,0,.12s0,.08.08.09h3.76l.51-1.43a.5.5,0,0,0-.13-.11s-.06,0-.07,0a1,1,0,0,1-.25.2,3.63,3.63,0,0,1-1.39.5,3.4,3.4,0,0,1-.81.06c0-.08,0-.61,0-1.13,0-.72,0-1.3,0-1.3a2.52,2.52,0,0,1,.69.09,1.28,1.28,0,0,1,.75.47s.08,0,.12,0l.1-.08,0-1.83a.42.42,0,0,0-.12-.06s0,0-.06,0a.72.72,0,0,1-.3.34,2.12,2.12,0,0,1-.48.26,5.35,5.35,0,0,1-.66.16h0s0,0,0-.12c0-.32,0-.65,0-1s0-.43,0-.64,0-.29,0-.43h.23a4.42,4.42,0,0,1,1.18.17,1.61,1.61,0,0,1,.47.24l.16.08c.06,0,.18,0,.2-.08l-.17-1.18ZM60.9,43H57.37s-.17.17-.11.22a1.1,1.1,0,0,1,.3.33,2.15,2.15,0,0,1,.15.67c0,.33,0,.68,0,.9,0,.73,0,1.72,0,2.41a5.71,5.71,0,0,1-.06,1.13,1.47,1.47,0,0,1-.35.78c-.1.1-.21.16-.21.17a.24.24,0,0,0,0,.12s0,.08.08.09H61l.51-1.43a.36.36,0,0,0-.13-.11s-.06,0-.07,0a1,1,0,0,1-.26.2,3.53,3.53,0,0,1-1.38.5,3.4,3.4,0,0,1-.81.06c0-.08,0-.61,0-1.13,0-.72,0-1.3,0-1.3a2.52,2.52,0,0,1,.69.09,1.28,1.28,0,0,1,.75.47s.08,0,.12,0l.1-.08,0-1.84a.52.52,0,0,0-.12,0s0,0-.06,0a.75.75,0,0,1-.31.34,1.89,1.89,0,0,1-.47.26,5.35,5.35,0,0,1-.66.16h0s0,0,0-.12c0-.32,0-.65,0-1s0-.43,0-.64,0-.29,0-.43h.23a4.42,4.42,0,0,1,1.18.17,1.74,1.74,0,0,1,.47.24l.15.08c.07,0,.19,0,.21-.08L60.9,43Zm-8.22,0h0s.58-.15.09.19-.28,1.54-.28,1.54l1.2,3.74s1.34-4,1.4-4.37a1.23,1.23,0,0,0,0-.42A1,1,0,0,0,55,43.4s-.2-.25-.2-.25,0-.12.07-.14a7.17,7.17,0,0,1,1.11,0c.39,0,.78,0,.88,0s.06,0,.08.09a.29.29,0,0,1,0,.16,1,1,0,0,0-.24.15,2.35,2.35,0,0,0-.41.52,7.68,7.68,0,0,0-.57,1.3l-.42,1.08L54.61,48l-.68,1.79h-.79L51.82,46.3c-.22-.6-.45-1.19-.6-1.6a5.69,5.69,0,0,0-.5-.94,3.19,3.19,0,0,0-.37-.44,2.19,2.19,0,0,0-.22-.2c-.05,0,0-.09.11-.12a.83.83,0,0,1,.3,0Zm10.7.82v2.33a1.41,1.41,0,0,0,.52-.08,1.24,1.24,0,0,0,1-1.11,1.07,1.07,0,0,0-.81-1.1,2.12,2.12,0,0,0-.66,0ZM61.9,43h0c.53,0,1.16,0,1.69,0h.26a3.21,3.21,0,0,1,1.26.35,1.83,1.83,0,0,1,.58.56,1.31,1.31,0,0,1,.24.65,2.1,2.1,0,0,1,0,.64,1.45,1.45,0,0,1-.25.52,2.06,2.06,0,0,1-.66.56l-.4.19a.1.1,0,0,0,0,.05c.07.17.36.71.38.74.33.57.8,1.28.9,1.42s.33.4.47.56a1.64,1.64,0,0,0,.37.31c.2.11.38.12.45.19s0,.07-.08.2a2.12,2.12,0,0,1-1.06,0,2.25,2.25,0,0,1-.74-.42,5.71,5.71,0,0,1-.52-.54c-.28-.35-.56-.78-.61-.86-.26-.44-.5-.91-.58-1.05a1.39,1.39,0,0,0-.1-.21.27.27,0,0,0-.12,0s0,.4,0,.88,0,.76,0,1.06a2.09,2.09,0,0,0,0,.41,1.09,1.09,0,0,0,.3.48s.08,0,.09.08,0,.11-.07.12a.22.22,0,0,1-.1,0c-.27,0-.65,0-1.06,0h-.8s0,0-.05-.05-.07-.11-.06-.16l.05,0a1.46,1.46,0,0,0,.26-.32,2.26,2.26,0,0,0,.17-.56,7.88,7.88,0,0,0,.11-1.59c0-.36,0-.76,0-1.16s0-1.1,0-1.46a2.86,2.86,0,0,0,0-.53A1.37,1.37,0,0,0,62,43.4c-.07-.08-.16-.1-.22-.18s0-.09,0-.13A.66.66,0,0,1,61.9,43Zm8.17,0H67.92a.44.44,0,0,0-.15,0c-.11,0-.22.14-.19.22l0,0a1.22,1.22,0,0,1,.54.41,4.89,4.89,0,0,1,.58,1.52c.19.62.45,1.44.71,2.22.41,1.25.79,2.38.79,2.38h.27l.26,0,.5-1.59L72,45.86l1.23,3.88h.66l.75-2.22.77-2.22.26-.76s0-.14.13-.32a2.19,2.19,0,0,1,.65-.92c.13-.09.22-.09.25-.14v0c0-.05-.15-.13-.24-.15a2.28,2.28,0,0,0-.64,0h-1.4l-.12.19a.67.67,0,0,1,.34.22.76.76,0,0,1,.16.65c-.15.89-1.08,3.54-1.08,3.54L72.23,43h-.15l-1.49,4.59-.85-3.08a1.38,1.38,0,0,1,0-.84,1.09,1.09,0,0,1,.14-.23s.33-.21.32-.22-.16-.23-.16-.23Zm8.21,1.75-1.12,2.9,2.24,0L78.28,44.7Zm-3.53,4.94h0c.27,0,.72-.56.87-.77a23,23,0,0,0,1.51-3.41c.49-1.19,1-2.38,1-2.42s.68,0,.68,0,.19.42.44,1,.58,1.42.91,2.21l.79,1.84c.08.18.18.44.3.66a2.51,2.51,0,0,0,.38.54,2,2,0,0,0,.27.22.39.39,0,0,0,.22.09s0,.08,0,.11a.6.6,0,0,1-.1.11H79.47s-.14-.19-.12-.23.07,0,.1,0a.94.94,0,0,0,.29-.27A.67.67,0,0,0,79.8,49a1.55,1.55,0,0,0,0-.16l-.15-.44H76.89a.85.85,0,0,0-.08.22,1.76,1.76,0,0,0-.09.42.76.76,0,0,0,.18.51,1.86,1.86,0,0,0,.28.18s0,.19-.1.18H74.82l-.07-.21ZM98,44.76l-1.12,2.89,2.24,0L98,44.76ZM94.43,49.7h0c.27,0,.73-.57.87-.78a21,21,0,0,0,1.51-3.4c.5-1.2,1-2.39,1-2.43s.68,0,.68,0,.19.43.44,1,.58,1.42.91,2.21.59,1.38.79,1.84a5.38,5.38,0,0,0,.3.67,2.23,2.23,0,0,0,.38.53,1.9,1.9,0,0,0,.27.23.47.47,0,0,0,.22.09s0,.07,0,.1a.5.5,0,0,1-.1.12H99.16s-.14-.2-.12-.23.07,0,.1,0a.84.84,0,0,0,.29-.27.65.65,0,0,0,.06-.35,1.08,1.08,0,0,0,0-.16l-.15-.44-2.74,0-.07.23a1.8,1.8,0,0,0-.09.41.67.67,0,0,0,.18.51,1.86,1.86,0,0,0,.28.18s0,.2-.1.19H94.51l-.08-.21ZM87.22,43c-.09,0-.14.17-.09.2s.24.14.34.24a.78.78,0,0,1,.18.46c0,.15,0,1.09,0,2s0,2,0,2a3,3,0,0,1-.24,1.16.81.81,0,0,1-.21.3c-.1.09-.25.09-.24.11s.07.27.14.27.52,0,1,0,1.17,0,1.12,0,0,0,.1-.07.13-.16.08-.2a.89.89,0,0,1-.39-.27,1.26,1.26,0,0,1-.2-.54c0-.26,0-.54,0-.8,0-.74,0-1.59,0-1.59l2.68,3.46h1.79s0,0,.09-.12,0-.06,0-.07a3.61,3.61,0,0,0-.39-.22l-.2-.14a11.7,11.7,0,0,1-1.57-1.66c-.68-.85-1.32-1.78-1.32-1.79s.55-.61,1-1.13a13.36,13.36,0,0,1,1.06-1,2,2,0,0,1,1-.53.68.68,0,0,0-.17-.19A6.27,6.27,0,0,0,92,43H90.58s-.16.08-.07.21a.34.34,0,0,1,.08.34,3.07,3.07,0,0,1-.67,1c-.4.47-1.09,1.19-1.09,1.22l0-1.56a1.58,1.58,0,0,1,.44-.89.62.62,0,0,1,.22-.15s0-.08,0-.11,0-.09-.06-.09c-.4,0-1.15,0-1.75,0l-.49,0ZM10.84,49.55a.21.21,0,0,0,.07.21c.76,0,1.46.06,2.15,0a.29.29,0,0,0,.1-.24.85.85,0,0,1-.51-.55,5.24,5.24,0,0,1-.08-.53,5.63,5.63,0,0,1,0-.71c0-.36,0-.72,0-1.07a11.73,11.73,0,0,1,.63-1.22,12.72,12.72,0,0,1,1-1.59,3.33,3.33,0,0,1,.46-.46,1.73,1.73,0,0,1,.53-.3.19.19,0,0,0,0-.08h0a.86.86,0,0,1-.07-.1c-.69,0-1.34,0-2,0-.08.05-.08.13-.13.2a.81.81,0,0,1,.25.53,7,7,0,0,1-.89,2c-.19-.29-.37-.6-.54-.91a3,3,0,0,1-.4-1,.66.66,0,0,1,0-.28.7.7,0,0,1,.45-.39.24.24,0,0,0,0-.16c-1,0-1.86,0-2.76,0-.08.07-.09.17-.13.26a1.94,1.94,0,0,1,.7.36,4.17,4.17,0,0,1,.89,1.19s1,1.67,1.05,1.83v.94c0,.22,0,.44,0,.67a2.76,2.76,0,0,1-.07.49l-.08.26a1.71,1.71,0,0,1-.47.66Z"/><path class="cls-4" d="M125.63,101.73a4.69,4.69,0,0,0,.55,1.25,4.88,4.88,0,0,1,.57,1.33l.54-1.23.32-2.89-1-3.49-1,1Z"/><path class="cls-4" d="M123.59,129.34a12.8,12.8,0,0,0,2.37-.15c.6-.17,1-4,1-4l-1.69-6-2.9-6.32-1.9,3.42-2.37,3.29-.84,3.65.77,3.44,1.14,2.6s1.58-.08,2.13-.08,2.29.15,2.29.15Z"/><path class="cls-2" d="M118.74,93.59c0,1.47.48,2.26.59,3.73a4.22,4.22,0,0,1,0,.61s.08.08.11,0c.13-.25.27-.36.41-.61a4.86,4.86,0,0,0,.57-1.65,5.94,5.94,0,0,0,.11-1.32h0a16.6,16.6,0,0,0,0-1.74,10.31,10.31,0,0,1,.2-2.21,6.68,6.68,0,0,1,.51-1.35c.07-.17.3-.44.24-.5s-.3.06-.4.11c-1.69,1-2.35,2.65-2.38,4.71v.19Z"/><path class="cls-2" d="M127.28,92.34a6.68,6.68,0,0,0-2.43,5,7.24,7.24,0,0,0,.16,2.58c.06.24.09.37.16.61a5.79,5.79,0,0,0,.42,1.22c0,.08.1.1.11,0a11.52,11.52,0,0,1,.06-2.4,8.22,8.22,0,0,1,.54-1.79.36.36,0,0,1,.12.19,9.38,9.38,0,0,1,.62,2.48,9.21,9.21,0,0,1-.3,4c0,.13.08.18.2.06a6.37,6.37,0,0,0,1.42-3,6.84,6.84,0,0,0,0-3.15c-.25-1.34-.77-2-.85-3.34a6.49,6.49,0,0,1,.18-2.49c0-.07,0-.08,0-.11s-.33.13-.38.16Z"/><path class="cls-2" d="M121.91,96.65c-2.6,2.77-2.5,5.5-3,9.26-.09.62-.08,1.07-.17,1.59a3.25,3.25,0,0,0-2.48-1,.32.32,0,0,0,.08.22,6.56,6.56,0,0,1,.41,5.16c-.25.94-.62,1.82-1,2.72-.23.62-.51,1.19-.7,1.81a15,15,0,0,0-.72,4.39,9.76,9.76,0,0,0,1.64,5.81c.3.45.65.87,1,1.31a6.37,6.37,0,0,0,1.58,1.14,1.79,1.79,0,0,0,.85.28,11.62,11.62,0,0,1-1.28-3.54,9.75,9.75,0,0,1-.1-2.35,10,10,0,0,1,1.73-4.78,15,15,0,0,0,2.26-3.6,13,13,0,0,0,1.87,4.53c.26.52.65.92.86,1.45a12.13,12.13,0,0,1,1.61,3.88,6.21,6.21,0,0,1-.7,4.22c0,.07,0,.05.08.08l0,0,0,0a5.8,5.8,0,0,0,3.44-2.28,10.7,10.7,0,0,0,1.94-7.38c0-1-.07-2.07,0-3.09a12,12,0,0,1,.85-3.89.12.12,0,0,0-.09-.1,5,5,0,0,0-2,1,7,7,0,0,0-1.61,1.64c.05-3-1.09-6-2.34-8.78-.49-1.14-1-2.23-1.54-3.34a16,16,0,0,1-1.79-7c0-.08,0-.11,0-.19-.37.17-.55.5-.87.84Z"/><path class="cls-4" d="M121.7,102.05a57.91,57.91,0,0,1-1.88,8.08,27.11,27.11,0,0,1-1.39,3.67c-.68,1.66-1.47,3.19-2.07,4.94a10.12,10.12,0,0,0,.21,6.65,8.64,8.64,0,0,0,.8,1.5,3.3,3.3,0,0,0-.22-.89,11.33,11.33,0,0,1,.4-6.69,13.8,13.8,0,0,1,1-2.23,15.78,15.78,0,0,1,1.18-2l.21-.31a12.32,12.32,0,0,0,.69-1.08,9.33,9.33,0,0,0,.62-1.32,7.77,7.77,0,0,0,.74-3.19c0-.05.09,0,.13,0a7.14,7.14,0,0,1,1.7,3.31c.2,1,.46,1.92.72,2.89a28.5,28.5,0,0,0,1.87,4.4,12.66,12.66,0,0,1,1.17,7.38.16.16,0,0,1,0-.06h.07a6.7,6.7,0,0,0,1.22-2,10.1,10.1,0,0,0,.64-2.6,15,15,0,0,0-.35-5.25,4.94,4.94,0,0,0-1,1.1c-.19.25-.29.54-.48.77,0,0-.1,0-.12-.05a21.57,21.57,0,0,0-1.63-6.25c-.39-.88-.74-1.84-1.19-2.72s-.94-1.9-1.4-2.85a20.78,20.78,0,0,1-1.64-5.12Z"/><path class="cls-5" d="M121.82,119.33a7.31,7.31,0,0,0-2.16,6.51,10.46,10.46,0,0,0,.68,2.14,3,3,0,0,0,1.07,1.31c0-.08.15-.12.07-.22a6.46,6.46,0,0,1-.52-2.15,5.12,5.12,0,0,1,.82-2.93.77.77,0,0,1,.22-.22,9.92,9.92,0,0,0,.94,2.21,6.9,6.9,0,0,1,.45,1.25,4.55,4.55,0,0,1,.06,1.52,1.13,1.13,0,0,0-.09.51c.28,0,.4-.23.61-.43a3,3,0,0,0,.44-.61,3.86,3.86,0,0,0,.41-2.55,6.25,6.25,0,0,0-.18-1,8.56,8.56,0,0,0-1.26-2.53c-.58-1-1.14-1.34-1.35-2.38a4.86,4.86,0,0,1-.08-.54c-.08-.07-.09,0-.13.07Z"/><path class="cls-3" d="M117.09,137.61c.12-1.32,1.65-1.28,3.11-1.35v-1.83h4.06a11.23,11.23,0,0,0,.07,2c1.28-.19,2.8,0,3,1,.42,1.73-1.46,2.14-3.11,2v2.77a16.5,16.5,0,0,1-4-.34,16,16,0,0,1-.07-2.43c-1.75.16-3.24-.31-3.11-1.7Zm-101.46,0c-.12-1.32-1.65-1.28-3.11-1.35v-1.83H8.46a11.23,11.23,0,0,1-.07,2c-1.28-.19-2.8,0-3,1-.42,1.73,1.46,2.14,3.11,2v2.77a16.5,16.5,0,0,0,4-.34,16,16,0,0,0,.07-2.43c1.75.16,3.24-.31,3.11-1.7Zm-7.17-4.19a28.85,28.85,0,0,1,4.26,0,5,5,0,0,1,2.78-2.71c-1.11-1.26-9.09-1.16-10.22-.07a6.86,6.86,0,0,1,3.18,2.78Zm115.8,0a28.85,28.85,0,0,0-4.26,0,5,5,0,0,0-2.78-2.71c1-1.14,9-1.28,10.22-.07A6.86,6.86,0,0,0,124.26,133.42Z"/></g></g></svg>