<svg xmlns="http://www.w3.org/2000/svg" viewBox="0 0 170.98 170.98"><defs><style>.cls-1{fill:#212b58;}.cls-2{fill:#fff;}.cls-3{fill:#7ab0e0;}.cls-4{fill:#a8c8ea;}.cls-5{fill:#fdca52;}.cls-6{fill:#e52716;}.cls-7{fill:#d6a301;}</style></defs><g id="Layer_2" data-name="Layer 2"><g id="Layer_1-2" data-name="Layer 1"><path class="cls-1" d="M85.49,0A85.49,85.49,0,1,0,171,85.49,85.6,85.6,0,0,0,85.49,0Z"/><path class="cls-2" d="M162.05,85.49a76.6,76.6,0,1,0-76.6,76.6A76.57,76.57,0,0,0,162.05,85.49Z"/><circle class="cls-3" cx="85.49" cy="85.49" r="48.76" transform="translate(-2.6 168.3) rotate(-88.23)"/><path class="cls-1" d="M85.49,35.82a49.68,49.68,0,1,0,49.68,49.67A49.74,49.74,0,0,0,85.49,35.82Zm0,102.27a52.62,52.62,0,1,1,52.64-52.64A52.68,52.68,0,0,1,85.49,138.09Z"/><path class="cls-3" d="M85.49,5.26a80.21,80.21,0,1,0,80.19,80.23A80.27,80.27,0,0,0,85.49,5.26Zm0,162.22a82,82,0,1,1,82-82A82.07,82.07,0,0,1,85.49,167.48Z"/><polygon class="cls-3" points="17.07 83.61 15.7 83.95 15.32 82.53 17.62 81.86 18.79 81.86 18.79 89.87 17.07 89.87 17.07 83.61"/><path class="cls-3" d="M25,84.2h0a1,1,0,0,0-1.13-1c-.71,0-1.13.41-1.13.92v0a1.15,1.15,0,0,0,2.26,0Zm.2,3.34h0c0-.63-.58-1-1.37-1s-1.38.37-1.38,1,.5,1,1.38,1,1.37-.42,1.37-1Zm-4.42.12h0a1.92,1.92,0,0,1,1.29-1.92,1.86,1.86,0,0,1-1-1.75v0c0-1.21,1.13-2.17,2.8-2.17s2.8,1,2.8,2.17v0a1.9,1.9,0,0,1-1,1.75A2,2,0,0,1,27,87.62v0c0,1.46-1.3,2.34-3,2.34S20.79,89,20.79,87.66Z"/><path class="cls-3" d="M146.86,84.49h0a1.24,1.24,0,0,0-1.38-1.25,1.18,1.18,0,0,0-1.34,1.21v0a1.37,1.37,0,0,0,2.72,0Zm0,2.09a2.49,2.49,0,0,1-1.63.54c-1.71,0-2.84-1-2.84-2.55v0a3.18,3.18,0,0,1,5.34-1.92,3.89,3.89,0,0,1,.92,3v0c0,2.59-1.21,4.34-3.46,4.34a3.84,3.84,0,0,1-2.63-1l.91-1.34a2.66,2.66,0,0,0,1.76.67C146.4,88.37,146.73,87.25,146.82,86.58Z"/><path class="cls-3" d="M154.21,86.7V84.24l-2.14,2.46Zm0,1.42h-3.89L150,86.87l4.34-5.05h1.46V86.7h1.09v1.42h-1.09v1.71h-1.67V88.12Z"/><path class="cls-2" d="M85.49,37.65a47.84,47.84,0,1,0,47.84,47.84A47.89,47.89,0,0,0,85.49,37.65Zm0,97.52a49.68,49.68,0,1,1,49.68-49.68A49.74,49.74,0,0,1,85.49,135.17Z"/><path class="cls-1" d="M84.58,42.7c-24.51,0-38.66,3.22-38.66,3.22a146.14,146.14,0,0,0-2.42,49c1.33,11.56,10.73,36.4,41.87,44.91,31.14-8.47,40.53-33.35,41.87-44.91a146.26,146.26,0,0,0-2.42-49S110.67,42.7,86.16,42.7Z"/><path class="cls-4" d="M122.94,88.54c-.29,8.35-1.59,33.31-37.61,47.05-35.74-13.36-37.62-39.2-37.62-47Z"/><path class="cls-2" d="M121.85,87.16a166.45,166.45,0,0,0-2.54-37.48s-13.45-2.59-33.94-2.59-34.19,2.84-34.19,2.84a156.37,156.37,0,0,0-2.71,37.19h73.38Z"/><path class="cls-3" d="M86.45,134.83l-38-46C47.05,98.35,54.73,126.28,86.45,134.83Z"/><path class="cls-3" d="M59.78,88.58,95,131a44,44,0,0,0,8.68-5.39L72.93,88.58Z"/><path class="cls-3" d="M84.2,88.62l26,31.36a50.87,50.87,0,0,0,6.26-8.27L97.35,88.62Z"/><path class="cls-3" d="M122.31,88.62l-13,0,10.89,13.15C122.1,97.68,122.31,90.88,122.31,88.62Z"/><path class="cls-1" d="M100.69,105.82h0a1.15,1.15,0,0,0-.63-.67l-2.17-.75a1,1,0,0,0-.58,0,3.21,3.21,0,0,0-1.21-1.88c-.09,0-.17-.12-.26-.16a4.49,4.49,0,0,0-.45-.26c-.3-.12-.59-.2-.84-.29a7.05,7.05,0,0,1-2-1,5.49,5.49,0,0,1-1.42-1.5c-.09-.12-.17-.21-.25-.33a3.73,3.73,0,0,0-.8-.88,3.36,3.36,0,0,0-1.87-.58c-.17,0-.3,0-.46,0v0a1.21,1.21,0,0,0-.17-.75L86.2,95a1.09,1.09,0,0,0-.83-.42.93.93,0,0,0-.8.38l-1.41,1.79a1,1,0,0,0-.21.8c-.13,0-.21,0-.34,0a3.31,3.31,0,0,0-1.88.58.92.92,0,0,0-.21.17,3.23,3.23,0,0,0-.37.37,6.67,6.67,0,0,0-.54.71A6.48,6.48,0,0,1,78,101a5.79,5.79,0,0,1-1.88.88l-.37.12a2.91,2.91,0,0,0-1.09.5,3.12,3.12,0,0,0-1.25,2,1.4,1.4,0,0,0-.71,0l-2.13.71a1.15,1.15,0,0,0-.67.63,1.07,1.07,0,0,0,.13.87l1.29,1.88a1.28,1.28,0,0,0,.63.42,3.21,3.21,0,0,0-.17,2.34.61.61,0,0,1,.08.25,1.5,1.5,0,0,0,.26.5,8.06,8.06,0,0,0,.5.71A5.84,5.84,0,0,1,74,116.76v.42a2.24,2.24,0,0,0,.17,1.17,3.3,3.3,0,0,0,1.42,1.75.72.72,0,0,0-.13.5v2.25a.93.93,0,0,0,.42.79,1.07,1.07,0,0,0,.88.17l2.21-.62a.93.93,0,0,0,.46-.34,3.39,3.39,0,0,0,2.46.88,2.34,2.34,0,0,0,.54-.09l.84-.24a6.3,6.3,0,0,1,2.25-.42,6.66,6.66,0,0,1,2.05.37l.37.13a3.05,3.05,0,0,0,1.17.21,3.24,3.24,0,0,0,2.17-.88,1,1,0,0,0,.46.34l2.17.66a1.2,1.2,0,0,0,.92-.12,1,1,0,0,0,.42-.8l0-2.25a1.18,1.18,0,0,0-.12-.5,3,3,0,0,0,1.42-1.75c0-.09,0-.17.08-.29a2.27,2.27,0,0,0,.08-.55,6.41,6.41,0,0,0,0-.88,6.63,6.63,0,0,1,.3-2.25,4.85,4.85,0,0,1,1-1.79c.08-.13.16-.21.25-.34a3.13,3.13,0,0,0,.58-1,3.23,3.23,0,0,0-.21-2.42,1.06,1.06,0,0,0,.5-.34l1.34-1.83A.77.77,0,0,0,100.69,105.82Z"/><path class="cls-5" d="M84.16,110.71a1.27,1.27,0,0,1,1.29-1.26,1.3,1.3,0,0,1,1.3,1.26,1.27,1.27,0,0,1-1.3,1.25A1.29,1.29,0,0,1,84.16,110.71Z"/><path class="cls-6" d="M78.27,109.16a1.43,1.43,0,0,0-.92,1.8.36.36,0,0,0,.13.25s0,.08.08.08a0,0,0,0,0,0,0,5.7,5.7,0,0,1,1,1.59,4.86,4.86,0,0,1,.21,1.79,1,1,0,0,0,.09.5,1.41,1.41,0,0,0,1.79.92.93.93,0,0,0,.5-.29s.13-.12.17-.17,2.42-3.29,2.46-3.42,0-.29-.08-.37a1.42,1.42,0,0,1-.3-.55,3,3,0,0,1-.08-.58c0-.17,0-.29-.17-.34s-3-1-3.84-1.25a1.84,1.84,0,0,0-1,0ZM76.39,111c.21.67,1.17,1.54,1.42,2.33s0,1.92.21,2.59A1.73,1.73,0,0,0,80.19,117a.09.09,0,0,1,.13.12c-.55.84-1,1.51-1.8,1.76a2.15,2.15,0,0,1-2.71-1.38,1.92,1.92,0,0,1-.09-.84,6.27,6.27,0,0,0-.25-2.5,9.68,9.68,0,0,0-1.54-2.67c-.08-.13-.12-.25-.17-.34a.42.42,0,0,1-.08-.21,2.13,2.13,0,0,1,1.38-2.71,3.79,3.79,0,0,1,2.46.38c.08,0,.08.16,0,.21A1.73,1.73,0,0,0,76.39,111Zm8.35-7.48a1.31,1.31,0,0,1,.25.92v4c0,.17-.12.21-.29.25a1.55,1.55,0,0,0-.54.25,3.9,3.9,0,0,0-.42.46.29.29,0,0,1-.34.17c-.12-.05-4-1.3-4-1.3a.42.42,0,0,1-.21-.08,1.29,1.29,0,0,1-.46-.38,1.45,1.45,0,0,1,.33-2,1.62,1.62,0,0,1,.46-.21,6.78,6.78,0,0,0,1.67-.75,4.45,4.45,0,0,0,1.25-1.38l0,0,.09-.08a.55.55,0,0,1,.21-.17,1.46,1.46,0,0,1,2,.33Zm-2.34-1.25a1.8,1.8,0,0,1,2.43.38c.08.08.2.08.2,0a3.89,3.89,0,0,0-.41-2.47,2.14,2.14,0,0,0-3-.46.63.63,0,0,0-.17.13.73.73,0,0,0-.25.25,9.77,9.77,0,0,1-2.08,2.25,5.56,5.56,0,0,1-2.3,1,2.55,2.55,0,0,0-.75.34,2.1,2.1,0,0,0-.46,3,3.77,3.77,0,0,0,2.21,1.17c.09,0,.13-.08.09-.16a1.72,1.72,0,0,1,.37-2.38c.59-.42,1.67-.46,2.42-1,.59-.42,1.13-1.59,1.71-2Zm9.73,5.6a1.43,1.43,0,0,0-.33-2,.81.81,0,0,0-.25-.17s-.09,0-.13,0h0a5.07,5.07,0,0,1-1.71-.75,4.63,4.63,0,0,1-1.21-1.34,2.86,2.86,0,0,0-.34-.37,1.42,1.42,0,0,0-2,.33,1.25,1.25,0,0,0-.25.55c0,.08,0,.16,0,.25v4.21c0,.21.16.21.29.25a4.34,4.34,0,0,1,.54.25,2.07,2.07,0,0,1,.42.42c.08.13.17.25.33.17s3-1,3.84-1.25a1.42,1.42,0,0,0,.88-.5Zm.46-2.59c-.59-.42-1.84-.54-2.5-1.17s-1.13-1.55-1.72-2a1.76,1.76,0,0,0-2.42.37c0,.13-.17.09-.17,0A3.92,3.92,0,0,1,86.2,100a2.14,2.14,0,0,1,3-.46,2.56,2.56,0,0,1,.58.63,7.62,7.62,0,0,0,1.71,1.88,10.58,10.58,0,0,0,2.8,1.25.68.68,0,0,1,.34.16.86.86,0,0,1,.2.13,2.14,2.14,0,0,1,.46,3,3.65,3.65,0,0,1-2.21,1.17c-.13,0-.21-.08-.13-.16a1.65,1.65,0,0,0-.37-2.38Zm-2.34,10.93a1.76,1.76,0,0,1-.83-.62c-.59-.75-2.26-3.13-2.38-3.26s0-.25.08-.37a1.33,1.33,0,0,0,.29-.55,3.54,3.54,0,0,0,.09-.62.35.35,0,0,1,.16-.34l4-1.29a.57.57,0,0,1,.25,0,1.52,1.52,0,0,1,.59,0,1.42,1.42,0,0,1,.92,1.79c-.09.17-.17.34-.25.46A5.19,5.19,0,0,0,92.3,113a5.08,5.08,0,0,0-.17,1.84V115a.68.68,0,0,1,0,.3,1.47,1.47,0,0,1-1.84.91Zm2.59-.33c.25-.71,0-1.92.25-2.63.29-.88,1.17-1.54,1.38-2.21a1.72,1.72,0,0,0-1.13-2.17c-.12,0-.12-.13,0-.17a4,4,0,0,1,2.5-.38A2.14,2.14,0,0,1,97.18,111a2.34,2.34,0,0,1-.42.71,7.2,7.2,0,0,0-1.25,2.17,9.58,9.58,0,0,0-.33,3.05,1.93,1.93,0,0,1-.09.33.39.39,0,0,1,0,.21,2.13,2.13,0,0,1-2.71,1.38,4.11,4.11,0,0,1-1.8-1.76c-.08-.12,0-.21.13-.16a1.7,1.7,0,0,0,2.17-1.09Zm-11.15,1.09A1.37,1.37,0,0,1,82,116c.54-.75,2.29-3.13,2.38-3.26s.21-.12.37,0a1.29,1.29,0,0,0,.59.12,2.35,2.35,0,0,0,.62-.12c.09,0,.25-.13.38,0s2.5,3.38,2.5,3.38a.69.69,0,0,1,.13.21,1.44,1.44,0,0,1-1.29,2,2.28,2.28,0,0,1-.51-.09,5.65,5.65,0,0,0-1.79-.37,5,5,0,0,0-1.84.37h0a.16.16,0,0,1-.13,0,.66.66,0,0,1-.29,0,1.41,1.41,0,0,1-1.42-1.42Zm1.13,2.33a1.69,1.69,0,0,1-1.71-1.71.12.12,0,0,0-.21-.08,3.86,3.86,0,0,0-1.13,2.21,2.12,2.12,0,0,0,2.17,2.13h.21a1.36,1.36,0,0,0,.38,0,9.49,9.49,0,0,1,3-.63,7.58,7.58,0,0,1,2.47.5,2.5,2.5,0,0,0,.83.17A2.15,2.15,0,0,0,91,119.68a3.57,3.57,0,0,0-1.12-2.21c0-.08-.17,0-.17.08A1.74,1.74,0,0,1,88,119.26c-.71,0-1.63-.62-2.55-.62s-1.92.62-2.63.62Zm12.73-11.85a3,3,0,0,1,2.13.63l1.25-1.72-2-.71a3.28,3.28,0,0,1-1.34,1.8Zm-3.88,11.81a3.12,3.12,0,0,1,0,2.21l2.05.63,0-2.13a3.29,3.29,0,0,1-2.13-.71Zm-12.52,0a3.34,3.34,0,0,1-2.13.75v2.13l2.09-.63a3.23,3.23,0,0,1,0-2.25Zm-4-11.81a3.46,3.46,0,0,1-1.37-1.76l-2,.67L73,108a3.82,3.82,0,0,1,2.17-.67Zm10.23-7.43a3.05,3.05,0,0,0-1.34-1.84l1.34-1.71,1.25,1.71A3.09,3.09,0,0,0,85.41,99.94Z"/><path class="cls-5" d="M97.43,66.54l8.81-3.05A28.91,28.91,0,0,0,105.7,70a13.34,13.34,0,0,0,2.38,6.47L97.22,80.23Z"/><path class="cls-7" d="M108.08,76.48a14.56,14.56,0,0,1-2.26-6,25,25,0,0,1,.42-7,25.09,25.09,0,0,1-5.76,10.77,10.9,10.9,0,0,0-2.59,4.39L97.72,57.9s-2.08.75-2.29.79a.62.62,0,0,0-.38.29c0,.13-.08.21-.25.25s-1.38.51-2.21.76a.11.11,0,0,0,0,.21c1-.05,2.42-.17,2.55-.17s.29-.13.29-.25v0a.36.36,0,0,1,.33-.3c.13,0,.88-.08,1.34-.16l-.21,22.33h1V80Z"/><path class="cls-5" d="M69.05,80.82A6.15,6.15,0,0,1,67,77.31a4.42,4.42,0,0,1,.71-3.67L78.35,70a9.22,9.22,0,0,0,0,4.55,15,15,0,0,0,2.42,5.1A27.35,27.35,0,0,0,73,79.36C69.42,79.82,69.05,80.82,69.05,80.82Z"/><path class="cls-5" d="M56.77,78.14A24.08,24.08,0,0,1,62,70.55a19,19,0,0,1,4.88-3.88,17.66,17.66,0,0,0-2.42,6.51,20.1,20.1,0,0,0,0,5.67s-2-.41-4.3-.66A17.7,17.7,0,0,0,56.77,78.14Z"/><path class="cls-7" d="M66.87,66.67a18.19,18.19,0,0,0-2.37,6.51,20.1,20.1,0,0,0,0,5.67l-1.67-.37C58.11,77.39,66.87,66.67,66.87,66.67Z"/><path class="cls-7" d="M73.14,69.59,73.05,60l-2.29.79c-.25.08-.38.25-.38.33s-.08.21-.25.25-1.38.46-2.21.76c-.17,0-.09.2,0,.2,1,0,2.42-.16,2.54-.16a.38.38,0,0,0,.34-.25v0a.36.36,0,0,1,.33-.3c.13,0,.84-.08,1.34-.12l-.08,8.18h.75Z"/><path class="cls-7" d="M85.58,60.9h.75V51.68s-2.09.75-2.3.79-.37.25-.37.3-.09.2-.25.24l-2.22.76a.11.11,0,0,0,0,.21c1,0,2.42-.17,2.55-.17a.37.37,0,0,0,.33-.25.35.35,0,0,1,.34-.29c.12,0,.79-.09,1.29-.13Z"/><path class="cls-5" d="M83.7,53.85h0c.21,0,.29-.13.29-.25a.26.26,0,0,1,.21-.25L84,52.56c-.25.08-.33.25-.33.29s-.09.17-.21.21Z"/><path class="cls-5" d="M70.42,62.12h0c.2,0,.29-.13.29-.26a.33.33,0,0,1,.21-.25l-.26-.79c-.24.09-.33.25-.33.29s-.08.17-.21.21Z"/><path class="cls-5" d="M95.05,60h0c.21,0,.3-.13.3-.25s.08-.21.21-.25l-.26-.8c-.25.09-.33.25-.33.3s-.08.16-.21.21Z"/><path class="cls-7" d="M80.73,79.61a18.82,18.82,0,0,1-2.38-5.18,9.92,9.92,0,0,1,0-4.47A13.38,13.38,0,0,1,74.51,76c-1.87,1.5-6.51,2.88-5.42,4.8.16-.25.62-.75,2.5-1.21.21,0,.46-.09.71-.13v3.17h1V79.36A32.72,32.72,0,0,1,80.73,79.61Z"/><path class="cls-5" d="M67.92,73s-1.25-.75-1.09-3.17a6.06,6.06,0,0,1,1.42-3.68l8.31-2.84a4.88,4.88,0,0,0-.17,3.14,7.13,7.13,0,0,0,2,3.54,29.09,29.09,0,0,0-7.93,1.34A4.93,4.93,0,0,0,67.92,73Z"/><path class="cls-7" d="M72.84,67.75a16.14,16.14,0,0,0,3.68-4.47,9,9,0,0,0-.08,3A6.8,6.8,0,0,0,78.31,70a30.22,30.22,0,0,0-7,1.09c-2.42.67-3.17,1.63-3.38,2C67.12,71.17,70.42,69.75,72.84,67.75Z"/><path class="cls-5" d="M82.32,81.44a8.22,8.22,0,0,1-2.84-4.92,5.45,5.45,0,0,1,1.25-4.38l13-4.47a13.54,13.54,0,0,0,0,5.63c.76,3.09,3.6,6.93,3.6,6.93a29.74,29.74,0,0,0-10.07-1C82.74,79.86,82.32,81.44,82.32,81.44Z"/><path class="cls-5" d="M79.69,60.86A6,6,0,0,1,81,57.23L90.34,54a6.05,6.05,0,0,0-.46,2.71,6.26,6.26,0,0,0,1.62,3.63,22.84,22.84,0,0,0-8,1.29c-2.38.84-2.63,2-2.63,2S79.77,63.28,79.69,60.86Z"/><path class="cls-7" d="M87,58.36A20.35,20.35,0,0,0,90.34,54a6.05,6.05,0,0,0-.46,2.71,6.26,6.26,0,0,0,1.62,3.63,25.66,25.66,0,0,0-7.76,1.3c-1.63.58-2.67,1.46-2.8,2C80.4,61.78,84.74,60.36,87,58.36Z"/><path class="cls-5" d="M81,71.59a7.71,7.71,0,0,1-1.59-4A3.66,3.66,0,0,1,80.78,64l10.77-3.72a7.22,7.22,0,0,0,0,3,12.88,12.88,0,0,0,2,4.35s-5.76.16-9.31,1.54A6.89,6.89,0,0,0,81,71.59Z"/><path class="cls-7" d="M88.17,65.37a13.15,13.15,0,0,0,3.38-5,9.28,9.28,0,0,0,0,3,11.64,11.64,0,0,0,2.21,4.3A34.62,34.62,0,0,0,85.12,69a8.38,8.38,0,0,0-4.05,2.63C80.53,69.59,85.83,67.37,88.17,65.37Z"/><path class="cls-7" d="M97.47,80.44a25,25,0,0,1-3.8-7.14,14.12,14.12,0,0,1,0-5.59,17.24,17.24,0,0,1-4.39,7.64c-2.75,2.54-8.18,3.76-7,6.13.21-.37.83-1.29,3.05-1.83l0,3h1V79.44C91.17,78.69,97.47,80.44,97.47,80.44Z"/><path class="cls-5" d="M102.48,87.58c.67-.13,1.34-.29,2.34-.54a1.09,1.09,0,0,0-.17-.13c-1.08-1.21-.92-2.5-.25-3.13,2.42-2.25,2.38-3.92,2.38-3.92a101.75,101.75,0,0,1-13.65,1.62c-.5,0-2.29.84-2.84.84-1.08,0-2.17.08-3.3.08-14.65.13-18.74-.92-23.54-1.79a34.64,34.64,0,0,1-7-1.88l-.17.5s3.84,1.5,6.6,2.84c.58.29,2.88,3.71,3.63,4.88H49.09A145.64,145.64,0,0,1,52,50.68s13.32-2.84,33.36-2.84V45.71c-21.25,0-35.4,3-35.4,3A133.43,133.43,0,0,0,47,96.47c1.38,10.81,10.32,31.06,38.24,40.45l1.21-1.71-1.21-1.71c-26.3-8.81-34-26.63-35.31-36.78-.3-2.25-.5-4.51-.67-6.68H85.37V87H66.83c.42-1.33,1.71-1.67,3.34-1.29a16.93,16.93,0,0,0,4.93.75c4-.21,3.38-1.25,3.76-1.25,4.09.25,5.63,1.25,9.18,1.17a11.28,11.28,0,0,0,4.67-.92c4,0,5.47,1.8,9.44,2.13Z"/><path class="cls-7" d="M120.68,48.72s-14.11-3-35.35-3v2.13c20,0,33.31,2.84,33.31,2.84A143.42,143.42,0,0,1,121.52,87H104.07a2.53,2.53,0,0,1-.13-3.5c2-1.84,2-3.09,2-3.09a69.4,69.4,0,0,1-12.48,1.5c-.5,0-2.67,1-3.22,1-1.08,0-2.58.09-3.71.09-10.1,0-15.07-.21-23.84-2.09a6.35,6.35,0,0,1,.42.54c0,.08,3.84,1,3.88,1.13a6.59,6.59,0,0,0,2.26,1.83,14.43,14.43,0,0,0,5.21,1.51c4,.25,3.22-1.25,3.59-1.25C82.15,84.53,84.78,86,88.33,86c3.26,0,3.34-1.08,3.67-1.08,3.22-.17,6.48,1.21,9.27,2.12H85.33V90h36c-.17,2.22-.38,4.43-.67,6.68-1.33,10.19-9,28-35.31,36.78v3.42c27.92-9.39,36.9-29.6,38.23-40.45A132.79,132.79,0,0,0,120.68,48.72Z"/><polygon class="cls-1" points="20.12 58.11 21.58 55.31 28.18 54.85 24.84 49.13 26.3 46.38 38.03 52.56 36.69 55.1 29.01 51.09 32.31 57.02 32.27 57.06 25.59 57.73 33.19 61.74 31.85 64.29 20.12 58.11"/><path class="cls-1" d="M41.33,40.37,37,38.7l1.92,4.21,2.42-2.54Zm-7.81-3.13,1.84-2,13.61,5L46.88,42.5l-3-1.17L40,45.42l1.34,2.92-2,2.17Z"/><polygon class="cls-1" points="44.04 27.59 46.34 26.21 55.9 29.97 51.68 23 54.14 21.5 60.99 32.81 58.86 34.1 49.01 30.22 53.39 37.45 50.93 38.95 44.04 27.59"/><path class="cls-1" d="M61.87,25.3h0a6.74,6.74,0,0,1,4.71-8.56,6.94,6.94,0,0,1,5.6.5L71,19.83a4.76,4.76,0,0,0-3.68-.5,4,4,0,0,0-2.54,5.05v0a3.93,3.93,0,0,0,4.84,2.92,4.78,4.78,0,0,0,2.92-2.46l2.3,1.29A6.83,6.83,0,0,1,70.26,30,6.65,6.65,0,0,1,61.87,25.3Z"/><polygon class="cls-1" points="77.77 14.65 80.65 14.57 80.82 19.83 86.16 19.7 86.03 14.44 88.96 14.36 89.29 27.64 86.37 27.72 86.24 22.37 80.86 22.54 81.03 27.84 78.1 27.93 77.77 14.65"/><path class="cls-1" d="M106.11,29.43l2.43-1.17a6,6,0,0,0,2.92,3.13c1.08.5,1.92.38,2.25-.33v0c.33-.67,0-1.21-1.71-2.63-2.13-1.76-3.38-3.13-2.3-5.51v-.05c1-2.17,3.43-2.79,5.89-1.67a7.55,7.55,0,0,1,3.76,3.6l-2.3,1.37a6,6,0,0,0-2.59-2.63c-1-.46-1.75-.25-2,.34v0c-.38.79,0,1.29,1.88,2.79,2.13,1.76,3.13,3.3,2.13,5.39v0c-1.09,2.38-3.55,2.88-6.14,1.71A9.32,9.32,0,0,1,106.11,29.43Z"/><polygon class="cls-1" points="125.48 30.22 122.27 27.76 123.9 25.63 132.62 32.27 131 34.44 127.78 31.98 121.39 40.37 119.06 38.61 125.48 30.22"/><path class="cls-1" d="M143.31,57.19c.62,1.25,1.67,1.67,2.67,1.17h0c1.13-.54,1.3-1.63.67-2.88l-1.29-2.59L142,54.6l1.3,2.59Zm3.13-8.14,2.71,5.43a5.37,5.37,0,0,1,.55,4,4.25,4.25,0,0,1-2.22,2.39h0a4.12,4.12,0,0,1-5-.72l-2.79,5-1.55-3,2.51-4.47-1-2-3.8,1.92L134.5,55Z"/><polygon class="cls-1" points="97.26 23.54 102.15 24.59 103.53 22.25 97.85 21 98.39 18.37 105.32 19.87 105.91 17.37 96.1 15.24 93.3 28.18 103.19 30.35 103.73 27.8 96.68 26.26 97.26 23.54"/><polygon class="cls-1" points="136.63 36.23 126.44 44.75 132.96 52.47 134.92 50.8 130.33 45.29 132.46 43.5 135.71 47.38 138.34 46.5 134.46 41.83 136.5 40.12 141.06 45.54 143.06 43.87 136.63 36.23"/><path class="cls-1" d="M63,149.28h0a6.86,6.86,0,0,1,7.06-7,7,7,0,0,1,5.34,2.09l-1.88,2.17a4.87,4.87,0,0,0-3.46-1.5,4,4,0,0,0-3.93,4.21v.05a4,4,0,0,0,3.93,4.25A4.88,4.88,0,0,0,73.6,152l1.87,1.92a6.83,6.83,0,0,1-5.55,2.42A7,7,0,0,1,63,149.28Z"/><rect class="cls-1" x="78.35" y="142.47" width="2.96" height="13.48"/><polygon class="cls-1" points="88.21 145.23 84.11 145.23 84.11 142.47 95.3 142.47 95.3 145.23 91.21 145.23 91.21 156 88.25 156 88.25 145.23 88.21 145.23"/><polygon class="cls-1" points="101.73 150.66 96.56 142.47 100.02 142.47 103.23 147.9 106.49 142.47 109.87 142.47 104.69 150.57 104.69 155.96 101.73 155.96 101.73 150.66"/></g></g></svg>