<svg xmlns="http://www.w3.org/2000/svg" viewBox="0 0 176.44 178.72"><defs><style>.cls-1{fill:#12110c;}.cls-2,.cls-3{fill:#ffe600;}.cls-2,.cls-5{fill-rule:evenodd;}.cls-4,.cls-5{fill:#d41116;}</style></defs><g id="Layer_2" data-name="Layer 2"><g id="Layer_1-2" data-name="Layer 1"><path class="cls-1" d="M97,171.48c-.71,2.1-3,7.24-8.48,7.24-6.26,0-8.43-6.77-8.53-7.05l-.19-.64s5.39.44,8.36.44,8-.29,8.85-.44Z"/><path class="cls-1" d="M113.38,168.15l1.28.16c-1.53,4-4.28,8.48-9.67,8.48a9.64,9.64,0,0,1-8.94-5.07l-.91-.57A82.28,82.28,0,0,0,113.38,168.15Z"/><path class="cls-1" d="M63.77,168.15l-1.28.16c1.52,4,4.28,8.48,9.69,8.48a10.56,10.56,0,0,0,9.2-5.07l.63-.57A82.36,82.36,0,0,1,63.77,168.15Z"/><path class="cls-2" d="M88.53,177.45h0c5.06,0,7-5.84,7-5.84-.32,0-1.41.08-1.41.08h0c-.38,1.1-1.8,3.68-3.66,3.68h0a1.21,1.21,0,0,1-1.34-1.1h0a1.26,1.26,0,0,1,1.26-1.2h0a2.29,2.29,0,0,0,2.44-1.16h0c-.74,0-2.3,0-4.75,0h0c-2.45,0-6.74-.27-6.74-.27h0S83.45,177.43,88.53,177.45Z"/><path class="cls-2" d="M72.3,175.41a9,9,0,0,0,7-3.32,9.76,9.76,0,0,1-1.5-.21h0a5,5,0,0,1-3.4,2h0c-1.24,0-1.6-.53-1.65-1h0a.78.78,0,0,1,.82-.9h0a2.47,2.47,0,0,0,.69.17h0c1.21,0,1.39-.52,1.39-.52h0a67.55,67.55,0,0,1-11.24-2.29h0C65.26,170.81,67.17,175.41,72.3,175.41Z"/><path class="cls-3" d="M88.05,142c17.73,0,37.36-10.88,51.15-26.56,1.5-1.7,4-4.92,10-4.92a13.69,13.69,0,0,1,13,15.42c-.7,7.24-11.05,23.59-28.78,33.64a90.21,90.21,0,0,1-90.81,0c-17.73-10-28.08-26.4-28.77-33.64a13.69,13.69,0,0,1,13-15.42c6,0,8.53,3.22,10,4.92C50.69,131.11,70.34,142,88.05,142Z"/><path class="cls-1" d="M26.9,111.15a12.81,12.81,0,0,0-9.1,4.26,13.17,13.17,0,0,0-3.29,10.46c.7,7.35,11.24,23.39,28.45,33.15a89.61,89.61,0,0,0,90.18,0c17.21-9.76,27.75-25.8,28.46-33.15a13.21,13.21,0,0,0-3.28-10.46,12.84,12.84,0,0,0-9.12-4.26,11.22,11.22,0,0,0-9.29,4.44l-.23.26c-14.52,16.52-34.3,26.78-51.63,26.78s-37.11-10.26-51.6-26.78l-.22-.24a11.24,11.24,0,0,0-9.33-4.46Zm61.15,61.32a91.4,91.4,0,0,1-45.71-12.34C24.75,150.16,14,133.61,13.24,126a14.49,14.49,0,0,1,3.61-11.44,14.18,14.18,0,0,1,10-4.68,12.37,12.37,0,0,1,10.29,4.9l.22.24c14.26,16.25,33.67,26.34,50.64,26.34s36.39-10.09,50.67-26.34l.23-.26a12.37,12.37,0,0,1,10.25-4.88,14.16,14.16,0,0,1,10.06,4.68A14.42,14.42,0,0,1,162.87,126c-.73,7.62-11.52,24.17-29.1,34.14A91.39,91.39,0,0,1,88.05,172.47Z"/><path class="cls-4" d="M87.9,144.4c-17.83,0-38.12-10.52-53.07-27.54-1.52-1.73-3.46-4-8.07-4A11.13,11.13,0,0,0,19,116.57a11.37,11.37,0,0,0-2.83,9.06c.6,6.11,10.29,21.94,27.56,31.76a87.85,87.85,0,0,0,88.37,0c17.26-9.82,27-25.65,27.54-31.76a11.41,11.41,0,0,0-2.8-9.06,11.19,11.19,0,0,0-7.77-3.67c-4.63,0-6.56,2.23-8.07,4C126.06,133.88,105.74,144.4,87.9,144.4Z"/><path class="cls-1" d="M164.62,55.63l.07-4.14a4,4,0,0,0,5.06-.5,3.9,3.9,0,0,0,.95-2.82,5.21,5.21,0,0,0-1.53-3.39c-5.17-5.05-9.77-10.1-9.77-10.1a4.17,4.17,0,0,0-1.64-1.48,3.32,3.32,0,0,0-4.61,1.27,9.89,9.89,0,0,0-1,6.91L157,48A79.46,79.46,0,0,0,164.62,55.63Z"/><path class="cls-1" d="M60.93,12.77A78.14,78.14,0,0,1,80.15,8.35l1.14-.64c-4.2-3.31-8.38-5.57-12.53-5.57-2.61,0-7.92,1.77-9.11,11.14Z"/><path class="cls-1" d="M115.19,12.77A78.18,78.18,0,0,0,96,8.35l-1.16-.64c4.22-3.31,8.38-5.57,12.54-5.57,2.61,0,7.9,1.77,9.11,11.14Z"/><path class="cls-1" d="M81.15,8c3.08-5.9,5.89-8,7.46-8,1.94,0,4.23,3.09,6,7.08L95,8l-1.58-.12a42.79,42.79,0,0,0-5.11-.24c-1.16,0-3.65,0-5.15.14Z"/><path class="cls-3" d="M56.93,141.16l-4.45,8.05c-1.34,2.41-2.73,3.95-5,2.65s-1.71-3.1-.34-5.6l4.46-8-3.6-2-4.71,8.51c-2.6,4.68.67,7.58,3.23,9,2.72,1.51,6.7,2.63,9.27-2l4.75-8.55-3.61-2Zm18.2,6.47,3.49.92-3.88,14.53-3.12-.84L66.4,149.76,63.63,160.1l-3.47-.92,3.89-14.53,3.19.86,5.14,12.38,2.75-10.26Zm12,1.83-3.94-.21-.79,15,3.94.21.79-15Zm3.56-.12.27,2,4.21-.59L97,163.62l3.92-.54-1.82-12.91,4.15-.58-.29-2-12.26,1.73Zm33-10.1-5.09,2.93,7.53,13.07,5.08-2.93c5.24-3,5.73-7.6,3.67-11.27-2.48-4.36-6.58-4.46-11.19-1.8Zm7.69,4c1.91,3.34,1.52,5.78-1.42,7.46l-1.4.82L123,141.94l1.5-.88c3.53-2,5.54-.22,6.85,2.16Zm-17.25,14.51,5.46-1.75.61,1.91-9.22,3-4.65-14.29,8.36-2.72.62,1.9-4.57,1.49,1.27,4,4.47-1.45.62,1.92-4.47,1.44Z"/><path class="cls-3" d="M54.39,52.85v70.41l33.66,21.63,33.67-21.63,0-70.31a45.16,45.16,0,0,0-5.07-4.12H59.26A54.36,54.36,0,0,0,54.39,52.85Z"/><path class="cls-5" d="M80.79,80.16H77.34S79,82.66,79.86,84h0a26.75,26.75,0,0,1,2.88,6.42h0a1.79,1.79,0,0,1-.59,1.79h0c-.69.56-2.6,2-2.6,4.16h0a5.07,5.07,0,0,0,1.19,3.41h0c.25.43,1.35,1.82,1.35,2.46h0a4.43,4.43,0,0,1-.32,1.4h0s-1.33,2.81-1.74,3.49h0c-.44.68-1.79,1.54-2.22-.68h0a69.55,69.55,0,0,1-.65-8.88h0a5.43,5.43,0,0,1,.58-2h0A47.37,47.37,0,0,0,80.06,91h0s-4-.42-5.48-9.57h0c0-.25-.42-.55-.72.08h0a3.58,3.58,0,0,1-.68,1h0c-.18.26-.61.3-1.11.09h0a12.14,12.14,0,0,0-1.57-.67h0c-.56-.12-1.23-.3-1.65.5h0c-.43.81-1.26,2.63-1.68,3.49h0a1.79,1.79,0,0,1-2.16,1h0a18.46,18.46,0,0,1-2.25-.8h0c-.42-.16-.68,0-.42.43h0a17.43,17.43,0,0,1,1.24,2.89h0a23.46,23.46,0,0,1,.49,3.79h0c0,.49.31.49.73,0h0a14.82,14.82,0,0,1,3.66-2.89h0c1.57-.77,3.91-1,4.51,0h0c.59,1-1,2.65-2.34,3.3h0a.62.62,0,0,0,0,1.15h0c.51.15,1.7.35,2,1.45h0c.3,1.12.4,11.76.53,16.22h0c.13,4.47,1.66,5.54,3.5,5.61h0c1.85,0,3.13,0,3.13,0h0a35.83,35.83,0,0,1-.39,6.06h0c-.5,3.71-.5,5.16.71,6.77h0c1.22,1.59,2.1,2.92,2.16,3.88h0a9.41,9.41,0,0,1-.12,2.67h0c-.2,1.08-.2,3.06,2.68,2.49h0c2.86-.57,7.66-2.49,5.43-5.35h0c-2.25-2.87-3.33-5.18-3-5.93h0c.31-.78,1.91-1.22,2.73-2h0c.84-.83.9-1.73,0-2.94h0c-1-1.22-3.9-5.16-3.19-7.47h0s10.65,11.36,11.41,12.12h0c.77.77,1.51.58,1.59-.62h0a8.51,8.51,0,0,0-.31-2.37h0a21.35,21.35,0,0,1-.2-3.24h0a36.13,36.13,0,0,1,.58-4.28h0c.13-1-.13-2.68-1.66-2.82h0c-.76-.06-1.78.14-1.78-.77h0a13.8,13.8,0,0,1,.51-2.93h0c.18-.75,0-.88-.46-1.2h0a1.54,1.54,0,0,0-1.83.32h0a2,2,0,0,1-2.36.51h0a15,15,0,0,1,2.8-4.73h0s4.71,1.49,6.44,3.38h0v19.08c0,1.13,3.06,1.25,3.06-.06h0V109.17a7.87,7.87,0,0,0,1.46-2.74h0a5.4,5.4,0,0,0-.13-2.69h0a2.53,2.53,0,0,0,1-2.11h0a8.56,8.56,0,0,0-2.24-5h0V92.89h5.08l0-8.13.89-1.41-2.23-4-2.24,4,.91,1.41V89h-2.58V84.76l.87-1.41-2.22-4-2.23,4,.89,1.41V89H99.16V84.76l.88-1.41-2.24-4-2.22,4,.88,1.44V92.9h5.05v2.57a7.57,7.57,0,0,0-3.12.43h0c-1.34.58-2.93,1.41-3.7,1.66h0c-.77.27-1.14.2-1.28-.18h0c-.12-.39,0-.64.45-1h0c.2-.17,2.19-1.07,2.42-1.73h0c.14-.38-.07-.47-.26-.62h0c-.44-.39-3.38-2.62-3.38-2.62h0A10.86,10.86,0,0,0,93.09,89h0v-2.1A9.77,9.77,0,0,1,96,80.2H92.58l-2-4.54L87.93,80.2l-2.51,0L83,75.55l-2.21,4.61ZM89,85.82c-.54-.29-.44-1.06-.06-1.68h0c.4-.6,1.23-1.28,1.46-1.18h0c.26.11.08,1.27,0,1.83h0c-.13.73-.58,1.12-1,1.12h0a.8.8,0,0,1-.36-.09Zm-5-1c-.08-.56-.24-1.72,0-1.83h0c.24-.1,1,.58,1.42,1.18h0c.39.62.49,1.39,0,1.68h0a.81.81,0,0,1-.37.09h0c-.45,0-.9-.38-1-1.12Zm1.73,5.57H89a15.29,15.29,0,0,1-1.59,3.79h0a15.38,15.38,0,0,1-1.66-3.79Zm10.62,10.26c0-.43,1-1,2.75-1h0a2.87,2.87,0,0,1,2.42,1.08h0v2.62c-3.63,0-5.17-2-5.17-2.75Z"/><polygon class="cls-4" points="57.03 70.4 57.03 74.64 119.14 74.64 119.14 70.4 114.56 70.4 114.56 71.09 61.61 71.09 61.61 70.4 57.03 70.4"/><rect class="cls-4" x="57.03" y="51.35" width="62.1" height="16.89"/><path class="cls-3" d="M106.9,67.56V65.35h-4.49V63.5h3.67V55.33H102.7l-1.15-2.24-1.13,2.24H97V63.5h3.68v1.85H91.88V63.5h3.67V55.33H92.17L91,53.09l-1.16,2.24H86.49V63.5h3.69v1.85h-9V63.5h3.68V55.33H81.46l-1.13-2.24-1.16,2.24H75.79V63.5h3.69v1.85l-7.13,0-7.09-1.66,1.42,3.84ZM67.7,63.34,75,55.54v1.81l-2.57,7.16Z"/><path class="cls-2" d="M65.55,5.49c-.34,1.16.58,1.67.9,1.59h0c.34-.09.59-.19.5-.51h0c-.08-.33.17-1.17,1.34-1.17h0a1.7,1.7,0,0,1,1.62,1.84h0c0,.75-1.19,2-3.38,2h0c-2.15,0-3.25-1.44-3.16-2.76h0a13.1,13.1,0,0,0-2.09,5.61c6-2,10.53-3.57,17.91-4.22-3.4-2.37-6.42-4.36-9.9-4.36h0c-1.82,0-3.38.69-3.74,2Z"/><path class="cls-1" d="M19.51,48l4.87-6.61a10,10,0,0,0-1.06-6.9,3.32,3.32,0,0,0-4.6-1.28,4.23,4.23,0,0,0-1.63,1.48S12.41,39.83,7.26,44.9a5.61,5.61,0,0,0-1.6,3.27,4,4,0,0,0,1,2.86,4.05,4.05,0,0,0,5.13.46l.09,4.14A78.33,78.33,0,0,0,19.51,48Z"/><path class="cls-3" d="M88.05,38.37c27.73,0,43.5,26,46.94,30.59,6.12,8.16,13.6,14.79,22.28,12.6C170,78.3,169.35,59.42,169.35,59.42c-3.08-2.21-8.32-5-17.87-18.54C142.12,27.61,121,7.94,88.05,7.94S34,27.61,24.65,40.88C15.09,54.42,9.83,57.21,6.79,59.42c0,0-.69,18.88,12.06,22.14C27.52,83.75,35,77.12,41.13,69,44.56,64.39,60.34,38.37,88.05,38.37Z"/><path class="cls-1" d="M88.05,37.73c25.74,0,41.25,22.05,46.34,29.3.46.64.83,1.17,1.11,1.54,7.56,10.09,14.63,14.13,21.61,12.37,11.22-2.87,11.61-18.76,11.6-21.19l-.77-.53c-3.13-2.16-8.37-5.77-17-18-5.4-7.67-25.9-32.67-62.91-32.67s-57.49,25-62.88,32.67C16.59,53.39,11.36,57,8.24,59.18l-.82.57c0,2.42.36,18.32,11.59,21.19,7,1.76,14-2.28,21.61-12.36.27-.38.64-.89,1.08-1.52,5.09-7.26,20.59-29.33,46.35-29.33ZM153.9,82.62c-6.36,0-12.75-4.38-19.42-13.28-.29-.38-.67-.92-1.13-1.58-5-7.11-20.22-28.75-45.3-28.75S47.74,60.67,42.74,67.79c-.45.65-.82,1.17-1.1,1.55C33.73,79.88,26.22,84.07,18.69,82.17,5.6,78.83,6.14,59.59,6.15,59.4v-.31l.25-.18,1.1-.78c3.06-2.11,8.17-5.66,16.62-17.62,5.48-7.79,26.27-33.2,63.92-33.2s58.46,25.41,64,33.2c8.48,12,13.6,15.55,16.66,17.65l1.06.74.25.19v.31c0,.19.53,19.43-12.55,22.77A14.24,14.24,0,0,1,153.9,82.62Z"/><path class="cls-4" d="M88.05,35.9c26.73,0,42.63,22.67,48.37,30.85,7.61,10.15,14.05,14,20.24,12.41,8.94-2.27,10.05-14.58,10.17-18.31v-.14l-.1-.08c-3.15-2.19-8.43-5.81-17.26-18.33-5.27-7.48-25.29-31.91-61.42-31.91S31.91,34.82,26.64,42.3C17.88,54.74,12.36,58.54,9.41,60.57l-.12.1v.13c.12,3.73,1.23,16.1,10.15,18.36,6.2,1.58,12.65-2.26,20.24-12.41C45.43,58.57,61.34,35.9,88.05,35.9Z"/><path class="cls-3" d="M149.7,63.9s2.32,1.16,4.86-1.12c2.13-1.91,1.41-4.53-.81-7l-4.09-4.55L138.49,61.3l2.64,2.93,4.44-4,1.29,1.45L144,68l3.37,2.69,2.29-6.83ZM30.57,47.26l-2.79,3.33L33,61.39,21.79,57.72l-2.41,2.86L30.9,70.25l1.75-2.08-8.14-6.85,10.91,3.56,1.14-1.36-5.2-10.43,8.18,6.85,2.55-3L30.57,47.26Zm8.49-10,14.76,6.21-2.9,3.11L47,44.9,43.5,48.64l2,3.81-1.76,1.89L36.49,40l2.57-2.75Zm6.08,6.82-5.3-2.35,2.69,5.15,2.61-2.8Zm11.5-20.42,5.64,9L49.72,28l-2.8,1.75,8,12.77,3-1.91-5.68-9.09,12.7,4.71,2.74-1.72-8-12.76-3.06,1.94ZM73.54,17a7.76,7.76,0,0,1,4.82.32L77.9,19.2h0a5.38,5.38,0,0,0-3.5-.35c-2.47.53-4.64,3.1-3.85,6.85.54,2.52,2.69,5.45,6.3,4.68a5,5,0,0,0,3-1.76l1.36,1.57a7.76,7.76,0,0,1-4.28,2.26c-7.47,1.59-9.83-3.29-10.45-5.93C65.4,21.62,68.63,18,73.54,17Zm19.6-.79L93,22.3l-5.89-.09.09-6.14-4-.08L83,31l3.95.09.13-6.89,5.9.1-.11,6.88,4,.06.26-15-4-.06ZM104.23,31l1.59-4.58L110.24,28l.66-1.91-4.43-1.52,1.34-3.93,4.57,1.56.64-1.89-8.31-2.86L99.82,31.65,109,34.79l.65-1.9L104.23,31Zm10.32,7.5a7.64,7.64,0,0,1-3.74-4.47l2-.85A4.86,4.86,0,0,0,115,36.42a2.12,2.12,0,0,0,3.17-.72c.59-1-.25-2.49-1-3.71-.3-.6-.82-1.49-.82-1.49a4.48,4.48,0,0,1,0-4.9c1.08-1.81,3.7-2.32,6.91-.38a7.06,7.06,0,0,1,3.26,3.93l-1.81.78a4.49,4.49,0,0,0-1.87-2.64c-1.1-.67-2.32-.6-2.84.26s0,1.64.58,2.68c.29.63.71,1.13,1,1.83,1.25,2.46,1.24,3.84.2,5.5-1.43,2.37-4.49,2.65-7.29,1ZM130,30.07l-1.34,1.47,3.15,2.85L123,44.08,126,46.73,134.7,37l3.11,2.8,1.34-1.47-9.2-8.3Zm4.32,22.58L137.94,57l-1.55,1.29-6.21-7.42,11.5-9.66L147.33,48l-1.54,1.28-3.08-3.68-3.17,2.66,3,3.59L141,53.12l-3-3.57-3.74,3.1Zm17.42,3.84a2.34,2.34,0,0,1-.15,3.61c-1.19,1.1-2.7.84-3.85-.42l-.66-.74,3.78-3.42Z"/><path class="cls-2" d="M13,54h0c7.53-7.48,10.16-12.07,10.16-12.07h0c.2-.87.58-4.67-.85-6.68h0a2.51,2.51,0,0,0-2-1.27h0a3,3,0,0,0-1.22.34h0a2.48,2.48,0,0,0-1.36,1.83h0a3.35,3.35,0,0,0,.56,2.16h0a8.25,8.25,0,0,0,3,2h0A41.72,41.72,0,0,1,13,50.69V54Z"/><path class="cls-2" d="M8.23,45.59A4.07,4.07,0,0,0,7.05,48.1h0a2.82,2.82,0,0,0,.67,2h0c1.14,1.29,3.16.64,4-.12h0a38.42,38.42,0,0,0,7.55-9.1h0a5.52,5.52,0,0,1-2.27-2h0a7,7,0,0,1-.6-1.62h0c-3,3.32-7.16,7.54-8.14,8.37Z"/><path class="cls-2" d="M96.94,7.88c7.39.65,11.92,2.22,17.91,4.22a13,13,0,0,0-2.08-5.61h0c.08,1.32-1,2.76-3.17,2.76h0c-2.18,0-3.38-1.26-3.38-2h0a1.71,1.71,0,0,1,1.63-1.84h0c1.16,0,1.42.84,1.33,1.17h0c-.08.32.16.42.5.51h0c.33.08,1.24-.43.91-1.59h0c-.36-1.28-1.92-2-3.75-2h0c-3.47,0-6.49,2-9.9,4.36Z"/><path class="cls-2" d="M93.22,7.24h0c-1.09-2.53-3.18-6.05-4.62-6.05h-.19a5.53,5.53,0,0,0-2.13,1.9h0c-.83,1.17,2,1.14,2,1.14h0A3,3,0,0,1,85.5,6.48h0a4.19,4.19,0,0,1-1.74-.22h0c-.2.32-.38.56-.59.9h0c1.21,0,4-.12,5.15-.12h0C89.44,7,92.54,7.2,93.22,7.24Z"/><path class="cls-2" d="M163.15,54h0l0-3.31a41.63,41.63,0,0,1-8.33-10.42h0a8.25,8.25,0,0,0,3-2h0a3.43,3.43,0,0,0,.57-2.16h0a2.51,2.51,0,0,0-1.37-1.83h0a3,3,0,0,0-1.22-.34h0a2.5,2.5,0,0,0-2,1.27h0c-1.44,2-1.06,5.81-.86,6.68h0S155.63,46.52,163.15,54Z"/><path class="cls-2" d="M159.17,38.84a5.59,5.59,0,0,1-2.27,2,38.15,38.15,0,0,0,7.55,9.1h0c.81.76,2.82,1.41,4,.12h0a2.82,2.82,0,0,0,.67-2h0a4,4,0,0,0-1.19-2.51h0c-1-.83-5.16-5.05-8.13-8.37h0a7,7,0,0,1-.6,1.62Z"/><path class="cls-1" d="M55,122.91l33,21.22,33-21.22,0-69.67-.32-.29a38.8,38.8,0,0,0-4.3-3.48h-57c-1.36,1-3.7,3-4.43,3.64v69.8Zm33,22.74L53.75,123.6v-71l.17-.19a56.11,56.11,0,0,1,5-4.1l.17-.12h57.82l.15.1A38,38,0,0,1,121.66,52l.75.67V53l0,70.65Z"/><path class="cls-2" d="M101.5,171.63s.18.56,1.39.52h0a2.47,2.47,0,0,0,.69-.17h0a.78.78,0,0,1,.82.9h0c-.06.42-.41,1-1.64,1h0a5,5,0,0,1-3.41-2h0a9.76,9.76,0,0,1-1.5.21h0a9,9,0,0,0,7.05,3.32c5.13,0,7-4.6,7.84-6.07a67.55,67.55,0,0,1-11.24,2.29Z"/><path class="cls-3" d="M.64,97.06A15.4,15.4,0,1,1,16,112.47,15.4,15.4,0,0,1,.64,97.06Z"/><path class="cls-1" d="M16,82.3A14.77,14.77,0,1,0,30.79,97.06,14.78,14.78,0,0,0,16,82.3Zm0,30.81a16,16,0,1,1,16-16A16.06,16.06,0,0,1,16,113.11Z"/><path class="cls-4" d="M16.12,84.12a12.95,12.95,0,1,0,13,12.94A12.94,12.94,0,0,0,16.12,84.12ZM23,87.19l.77.63a10.39,10.39,0,0,1,2.7,3.55c.73,1.75-1.53,4.4-2.2,5-3,2.81-4.86,2.75-5.92,2.91A1.36,1.36,0,0,1,16.61,98a21.13,21.13,0,0,1,2.21-7.13,2.74,2.74,0,0,1,.83-.79,5.9,5.9,0,0,0,2.75-1.4A2.76,2.76,0,0,0,23,87.19ZM12.22,85.5A11.93,11.93,0,0,1,16,84.88a10.2,10.2,0,0,1,5.55,1.39,1.11,1.11,0,0,1,.53,1.06c0,1.52-2.38,2-4,2A18.42,18.42,0,0,1,13.2,88.3c-1.37-.44-1.67-1.23-1.67-1.59s.27-1.07.69-1.21ZM7.14,104A11,11,0,0,1,4.38,96.5a12.11,12.11,0,0,1,.48-3.38s.29-.48.54-.07.46.6.68,1,1.48,1.35,1.38,2.12a27.48,27.48,0,0,0,.09,7.25c.12.63,0,.9-.41.59Zm.32-9.75C6.89,94,6.21,92.49,6,92.06A2.22,2.22,0,0,1,6,90.5a9.42,9.42,0,0,1,4-4c.21-.09.51-.11.51.4,0,.27.15.7.15,1a1.8,1.8,0,0,1-.23,1.27A20.44,20.44,0,0,0,8.2,93.87c-.07.35-.17.71-.74.39Zm8.79,13.87H16a13.11,13.11,0,0,1-5.86-1.6c-1.44-.79-2-4.48-2-6.35a19,19,0,0,1,2.9-10.4A1.65,1.65,0,0,1,13,89.17c.67.19.91.31,1.69.54a18.32,18.32,0,0,0,1.85.41c.61.15,1.28.28.88,1.43a23,23,0,0,0-1.88,7.22,21.83,21.83,0,0,0,.94,7.77c.45,1.17.45,1.61-.23,1.59Zm3.05-.48c-.67.21-1-.26-1.27-.6-1.2-1.38-1.51-5-1.51-5.53s.18-1,.53-1A10.27,10.27,0,0,0,23.89,98a11.08,11.08,0,0,0,2.88-3.64c.17-.35.56-.29.63.2a9.72,9.72,0,0,1,.23,1.92A11.78,11.78,0,0,1,19.3,107.65Z"/><path class="cls-3" d="M145,97a15.4,15.4,0,1,1,15.39,15.41A15.38,15.38,0,0,1,145,97Z"/><path class="cls-1" d="M160.4,82.3A14.75,14.75,0,1,0,175.16,97,14.76,14.76,0,0,0,160.4,82.3Zm0,30.78a16,16,0,1,1,16-16A16.06,16.06,0,0,1,160.4,113.08Z"/><path class="cls-4" d="M160.43,84.09a12.94,12.94,0,1,0,13,12.93,12.95,12.95,0,0,0-13-12.93ZM155,86.23a10.16,10.16,0,0,1,5.55-1.4,12.22,12.22,0,0,1,3.78.62c.44.14.7.85.7,1.21s-.29,1.16-1.68,1.59a18.18,18.18,0,0,1-4.91,1.06c-1.59,0-4-.52-4-2a1.09,1.09,0,0,1,.52-1Zm-4.88,5.1a9.91,9.91,0,0,1,2.68-3.55s.55-.46.77-.63a2.61,2.61,0,0,0,.59,1.45A5.7,5.7,0,0,0,156.9,90a2.9,2.9,0,0,1,.84.81A20.81,20.81,0,0,1,160,97.93a1.37,1.37,0,0,1-1.73,1.31c-1.06-.14-2.93-.11-5.92-2.9-.66-.61-2.92-3.25-2.18-5Zm7.14,16.27a11.8,11.8,0,0,1-8.34-11.15,12.37,12.37,0,0,1,.21-1.92c.1-.48.46-.56.64-.21A11.06,11.06,0,0,0,152.67,98a10.39,10.39,0,0,0,6.85,2.48c.35,0,.52.53.52,1s-.3,4.15-1.49,5.52c-.32.35-.62.83-1.28.6Zm9.16-1.11a13.12,13.12,0,0,1-5.87,1.6h-.25c-.66,0-.67-.44-.22-1.61a22.19,22.19,0,0,0,.92-7.75,21.88,21.88,0,0,0-1.88-7.22c-.39-1.15.27-1.29.9-1.42s1.44-.3,1.85-.43c.76-.24,1-.35,1.69-.55a1.7,1.7,0,0,1,1.94.62,19.31,19.31,0,0,1,2.89,10.42c0,1.86-.54,5.55-2,6.34Zm1.95-12.66a20.92,20.92,0,0,0-2.32-4.75,1.72,1.72,0,0,1-.24-1.26c0-.27.16-.7.16-1,0-.49.29-.48.5-.39a9.36,9.36,0,0,1,4.05,4,2.28,2.28,0,0,1,.06,1.56c-.23.43-.9,1.89-1.48,2.2s-.67,0-.73-.38Zm1,10.12c-.34.34-.53,0-.39-.58a28.92,28.92,0,0,0,.08-7.24c-.11-.77,1.14-1.72,1.37-2.12s.49-.71.68-1,.53,0,.53,0a11.58,11.58,0,0,1,.49,3.39A10.93,10.93,0,0,1,169.42,104Z"/></g></g></svg>