<svg xmlns="http://www.w3.org/2000/svg" width="143.68mm" height="161.53mm" viewBox="0 0 407.28 457.89"><g id="Layer_2" data-name="Layer 2"><g id="Layer_1-2" data-name="Layer 1"><polygon points="203.64 457.89 407.28 254.24 340.26 100.49 378.14 100.49 378.14 0 29.14 0 29.14 100.49 67.02 100.49 0 254.24 203.64 457.89 203.64 457.89" fill="#e40f18" fill-rule="evenodd"/><path d="M48.23,19.09V81.4H359.05V19.09Z" fill="#feeb00" fill-rule="evenodd"/><path d="M203.64,100.49H87.85L22.7,249.94l180.94,181V100.49Z" fill="#12110c" fill-rule="evenodd"/><path d="M319.43,100.48H203.64V430.9l180.94-181L319.43,100.48Z" fill="#feeb00" fill-rule="evenodd"/><polygon points="92.52 42.14 99.29 73.5 108.13 73.5 118.58 29.18 110.52 29.18 103.78 63.27 97.05 29.18 88.56 29.18 81.73 63.27 74.88 29.18 66.67 29.18 77.12 73.5 86.31 73.5 92.52 42.14 92.52 42.14" fill="#12110c" fill-rule="evenodd"/><path d="M133.64,57.76,138.5,42.7l4.88,15.06ZM148.47,73.5H157L142.71,34.79H134.3L120.06,73.5h8.48l2.92-9h14.09l2.92,9Z" fill="#12110c" fill-rule="evenodd"/><polygon points="157.09 34.79 157.09 41.52 167.69 41.52 167.69 73.5 175.82 73.5 175.82 41.52 186.21 41.52 187.82 34.79 157.09 34.79 157.09 34.79" fill="#12110c" fill-rule="evenodd"/><polygon points="194.7 34.79 194.7 73.5 202.55 73.5 202.55 56.73 214.29 56.73 214.29 50 202.55 50 202.55 41.52 216.16 41.52 217.77 34.79 194.7 34.79 194.7 34.79" fill="#12110c" fill-rule="evenodd"/><path d="M240.78,68.35c-7.71,0-9.62-6.28-9.62-14s1.91-14,9.62-14,9.63,6.28,9.63,14-1.91,14-9.63,14Zm0-34c-13.18,0-18.71,9-18.71,20s5.53,20,18.71,20,18.72-9,18.72-20-5.53-20-18.72-20Z" fill="#12110c" fill-rule="evenodd"/><path d="M282.87,51.61h-6.1V41.52h6.1c2.21,0,5.55.34,5.55,4.72s-3.34,5.37-5.55,5.37Zm5,5.54v-.42c2.6,0,9.12-2.46,9.12-10.74s-6.31-11.2-13.53-11.2H268.77V73.5h8V57.36h.68c2.69,0,12.16,16.15,12.16,16.15h10.1L287.85,57.15Z" fill="#12110c" fill-rule="evenodd"/><path d="M322,66.78h-6.12V41.52H322c5.29,0,8.33,5.11,8.33,12.73s-3,12.53-8.33,12.53Zm-.28-32H308V73.5h13.75c12.35,0,17.49-8.26,17.49-19.25s-5.14-19.46-17.49-19.46Z" fill="#12110c" fill-rule="evenodd"/><path d="M138.12,131a13.36,13.36,0,0,0,.25,2.6,16.72,16.72,0,0,1,.25,3.32c0,5.91-1.37,8.67-2.29,8.67a2.45,2.45,0,0,1-.36,0c-.11-.13-.3-.39-.45-.61-1.59-2.27-3.78-4.7-9.67-4.7-5.45,0-9.12,3.87-9.12,9.64,0,8.46,2.14,15.3,3.86,20.79,1,3.2,1.86,6,1.86,7.79a5,5,0,0,1-1.13,3.23c-2.14,0-2.86-.73-4.36-2.22a14.07,14.07,0,0,0-11.12-4.79c-2.67,0-8.87.92-8.87,9.43,0,3.71,1.29,6.87,2.54,9.93,1.33,3.25,2.7,6.61,2.7,11,0,.36,0,3.48-1,3.48-4,0-5.53-2.49-7.85-6.88-2-3.83-4.53-8.59-10.35-8.59-9.56,0-9.56,14.29-9.56,19.66,0,30.37,28.83,41.4,48.2,41.4a47.5,47.5,0,0,0,7.92-.62,49.18,49.18,0,0,1,8.19-.6c11.75,0,20.66,2.35,26,6.79a29.75,29.75,0,0,0-10.67-1.87c-10.11,0-13.86,2.41-17.4,5.31a10.48,10.48,0,0,1-4.13,2.42l-14.38,4.12L131.75,273c6.09,1.37,9.47,6.15,13,11.21,3.81,5.4,8.12,11.52,16.05,11.52a14.19,14.19,0,0,0,2.1-.16,78.17,78.17,0,0,0-1.24,14c0,7.91,1.93,11,4.47,14.19l1.22,1.62c1.13,1.66,2.34,3.27,3.52,4.82,4.17,5.52,8.11,10.73,8.11,17.88,0,3.81.19,6.88.36,9.85s.34,5.78.34,9.3c0,10.54,7.28,13.8,11.2,15.55.39.18.87.39,1.24.58.75,3.6,4.3,4.78,6.53,5.5l.78.26.82.33a12.46,12.46,0,0,0,5.47,1.15c7.28,0,10.47-5.41,11.14-9.91l.37-.17c3.21-1.42,9.89-4.37,9.89-13.76A68.22,68.22,0,0,0,226,354.76a40.85,40.85,0,0,1-.75-6.58c0-6,2.43-9,5.79-13.14,4.53-5.62,10.16-12.61,10.16-28.34a103.65,103.65,0,0,0-.72-13.05,13.22,13.22,0,0,0,2.84.35c10.43,0,14-6.25,16.63-11.42a15.82,15.82,0,0,1,14.33-9.13s-7.48-12.94-25.3-12.94A30.73,30.73,0,0,0,236.24,263a12,12,0,0,1,6-7.15c4.91-2.62,12.22-2.83,18.69-2.83a84.66,84.66,0,0,1,9.51.57,76.87,76.87,0,0,0,8.63.55c26.27,0,33.17-8.32,40.47-17.13,6.19-7.48,10.3-14.74,10.3-26,0-7.55-2.18-15.6-8.3-15.6-5.3,0-7.59,4.95-9.42,8.93-2.19,4.75-3.47,6.73-5.74,6.73-2.94,0-5.35-2.9-5.35-6.47,0-3.3,2.19-7.46,4.31-11.49,2.41-4.61,4.91-9.36,4.91-14.09a8.51,8.51,0,0,0-3.09-6.68,9.51,9.51,0,0,0-6.06-2.14c-4.66,0-8.38,3.88-12,7.63-2.29,2.4-5.41,5.65-7.32,5.77a4.56,4.56,0,0,1-1-2.71c0-3.28,1.47-8.11,2.89-12.78,1.52-5,3-9.78,3-13.6,0-8.22-4.8-11.9-9.55-11.9-4.33,0-7.14,2-9.4,3.65-1.69,1.22-2.78,1.92-4.12,2a1.56,1.56,0,0,1-.06-.15c0-.17,0-3.94,0-3.94,0-1.2,0-2.35,0-3.46,0-8.72-.36-14.64-3.74-18a8.67,8.67,0,0,0-6.4-2.5c-11.94,0-17.28,15.77-17.28,31.39,0,7.25.3,13.65.59,19.84.27,5.9.53,11.47.53,17.5,0,14.49-3,26.37-5.5,32.57-.82-6.92-2.08-17.33-10.14-17.33-6.66,0-8.22,8.52-10,18.39-1.62,8.86-3.84,21-9.35,21-4.61,0-6-8.44-7.23-19.47-1.25-10.81-2.67-23.06-12.3-23.06-10.46,0-11.14,13.56-11.59,22.53-.06,1.12-.13,2.46-.22,3.75-2.55-5-5.65-13.64-5.65-21.56,0-10,.64-17.91,1.26-25.53.59-7.3,1.2-14.85,1.2-24,0-20.21-5-25.67-9.47-30.49l-.3-.34c-3-3.23-5.78-6.29-10.19-6.29-6.32,0-9.64,6-9.64,11.86Z" fill="#12110c" fill-rule="evenodd"/><path d="M231.73,299.21l-.65,1.08a26.17,26.17,0,0,0-6.92-1.17c-6,0-8.18,4.12-8.18,4.12a12.18,12.18,0,0,1,5.84-1.17c5.14,0,8.89,2.76,8.89,3.78s-1.59,1.64-2.86,1.64c0,2.48-3.36,5.89-13.51,5.89,0,5,3.08,8.33,3.08,9.78-2.57,0-2.94,2.48-2.94,6.87,0,0-3.56-14.07-3.56-19.73,0-8.37,3.37-14.69,10.53-14.69,5.09,0,10.28,3.6,10.28,3.6ZM253.38,271a8.78,8.78,0,0,1,2.45.28C246.4,273,246.5,284.43,239,284.43a5.3,5.3,0,0,1-2.74-.73c1.06-2.07,4.6-2.56,4.6-5.37a30,30,0,0,0-6.63.7c0-.91,7.54-8,19.19-8Zm-63.17,59.6v-6.08c0-1.68-.75-2.43-2.25-2.43l3.93-9v-.89c-7,0-13-1.4-13-6.36h-2a1.43,1.43,0,0,1-1.3-1.31c0-.61,2.33-3.27,7.85-3.27a12.52,12.52,0,0,1,6.74,1.77,9.8,9.8,0,0,0-8.8-5.61c-3.78,0-4.77.52-4.77.52s2.3-2.95,5.38-2.95c9.68,0,12.21,6.08,12.21,16.79a43,43,0,0,1-4,18.8Zm-26.9-50.56c0,1,3.14,1.74,5,1.74,0,1.12-2.2,2.76-4.25,2.76-7.91,0-4.07-12.26-19.88-15.34a7.82,7.82,0,0,1,2.9-.38c12.49,0,16.09,9.68,22.87,9.68-2,.24-6.6.38-6.6,1.54Zm158.22-80.81c-6.32,0-5.9,15.67-15.16,15.67-5.12,0-9.16-4.58-9.16-10.29,0-8.32,9.21-17.86,9.21-25.58a5.07,5.07,0,0,0-5.33-5c-6.22,0-12.53,13.43-19.41,13.43-3.23,0-4.68-4.21-4.68-6.55,0-7.48,5.85-19.69,5.85-26.38,0-5.37-2.43-8.09-5.73-8.09-6.1,0-8.14,5.74-13.87,5.74-2.19,0-3.52-2.39-3.52-3.94,0-15,.77-24.2-6.3-24.2-9.14,0-13.46,13.82-13.46,27.57,0,14,1.12,24.76,1.12,37.34,0,19.49-4.71,35.81-8.8,39.35,0,0-1,11.35,3.47,11.35,9,0,23.75-25.35,42-25.35,8.23,0,8.8,5,8.8,7.11,0,6.64-9.36,10-9.36,14.22,0,2.15,3.27,2.34,7.3,2.34,12,0,20.76-7.39,20.76-7.39s-8.6,10.19-22.07,10.19c-5.89,0-10.48-1.87-10.48-5.33,0-5.52,11.13-9.91,11.13-15.43,0-1.69-1.87-4-6.08-4-14.87,0-30.58,28.15-42.83,28.15-2.53,0-6-1.68-6-8.09,0-5.46-.43-28-7.26-28-8.2,0-4.28,39.38-19.38,39.38-16,0-6.43-42.54-19.53-42.54-7.95,0-6.7,11.52-7.95,21.89-1,8.48-3.48,16.21-8.7,16.21-6.87,0-11.73-3.17-17.58-6.79-3.73-2.3-7.68-4.58-11-7.05-5.33-4-8.26-8-13.53-8-2.8,0-5.89,1.54-5.89,4.42,0,5.61,5.89,7.79,5.89,12.63,0,2.73-4,4.91-8.55,4.91-13.89,0-22.24-9.12-22.24-12.77,0,0,6.94,9.82,22.87,9.82,3.44,0,4.7-.77,4.7-2.46,0-3.15-4.77-6-4.77-12.06a7,7,0,0,1,7.36-7c5.55,0,9.3,4.06,15,8.22,8.23,6,18.93,12.76,27.14,12.76,3.16,0,5.26-1.4,5.26-4.68,0-3.11-9.33-11.67-9.33-29.14,0-20,2.46-31.14,2.46-49.54,0-19.2-4.6-23.71-8.77-28.25-3.13-3.41-4.84-5-7.37-5-4.34,0-5.82,4.77-5.82,8,0,2,.49,2.13.49,5.92,0,6.8-1.61,12.49-6.1,12.49-5.26,0-2.52-5.34-10.48-5.34-3.81,0-5.3,2.74-5.3,5.83,0,13.19,5.71,22.59,5.71,28.58,0,3-1.71,7.05-4.8,7.05-7.93,0-6.52-7-15.62-7-3.88,0-5,2.24-5,5.61,0,6.52,5.24,11.51,5.24,20.95,0,4.16-1.41,7.3-4.87,7.3-11.83,0-10.36-15.47-18.2-15.47-4,0-5.74,5.25-5.74,15.84,0,28.34,27.68,37.58,44.38,37.58,7.09,0,7.86-1.22,16.11-1.22,38.75,0,35.63,23.73,35.63,23.73s-5-11.17-20.27-11.17c-14.91,0-13.3,5.52-20.48,7.58,14.89,3.34,16.23,22.63,28.25,22.63a10,10,0,0,0,8-4.12s-3.37,8.68-3.37,21.73c0,8.91,2.63,10.12,5,13.66,5.13,7.54,12.29,14.19,12.29,24.85,1.72,0,3-7.93,4-7.93.64,0,1.16,1.23,1.16,3,0,4.07-4.42,11.23-4.42,24.1,0,7.71,4.85,10.22,8.45,11.85.88,0,5.93-10.61,5.93-10.61-3,8.28-2.1,12.91-2.1,13.47,0,2.2,2.13,2.65,4.87,3.56,1.54.52,2.35,1.28,5.07,1.28,6.33,0,7.46-5.66,7.46-7.88s-2.3-6.45-2.3-9c0,0-.09-1.54.28-1.54.8,0,4.15,8.82,4.15,8.82,3-1.33,8-3.24,8-10.44,0-8.37-5.07-19.73-5.07-24.85,0-1.19.42-2,.84-2,1,0,2.64,4.63,2.64,4.63,2.19-12.8,15.64-14,15.64-37.78,0-15-2.29-19.88-2.29-19.88s4,3.37,8.23,3.37c14.5,0,11.06-14.45,22.45-19.27,0-1.43-6.13-6.59-16.79-6.59-13.47,0-17.82,7.29-17.82,7.29,0-21.14,14.8-22.4,29.75-22.4,8,0,11.43,1.12,18.14,1.12,24.51,0,30.53-7.3,37.55-15.78,6.24-7.53,9.41-14,9.41-23.5,0-5.12-1.27-11.79-4.49-11.79Z" fill="#e40f18" fill-rule="evenodd"/><path d="M215.6,308.94l-.56,1.22a6.68,6.68,0,0,0,3.69.84c5.05,0,7.28-4.09,6.78-4.58s-2.66,3.13-6.59,3.13a6.77,6.77,0,0,1-3.32-.61Z" fill="#e40f18" fill-rule="evenodd"/><path d="M221.07,307.54c0,.38-.5.7-1.12.7s-1.12-.32-1.12-.7.5-.7,1.12-.7,1.12.31,1.12.7Z" fill="#e40f18" fill-rule="evenodd"/><path d="M182.41,305.66c.52.4,1.57,3,4.34,3a3.85,3.85,0,0,0,2.92-1.1.64.64,0,0,1,.89.89c-.4.58-1.15,1.33-3.72,1.33a6.48,6.48,0,0,1-5.52-3.37c-.44-1.14,0-1.54,1.09-.8Z" fill="#e40f18" fill-rule="evenodd"/><path d="M187.24,306.45c0,.36-.42.64-.94.64s-.93-.28-.93-.64.41-.64.93-.64.94.28.94.64Z" fill="#e40f18" fill-rule="evenodd"/></g></g></svg>