<svg xmlns="http://www.w3.org/2000/svg" viewBox="0 0 148.46 148.46"><defs><style>.cls-1{fill:#0057a5;}.cls-1,.cls-2,.cls-3,.cls-4{fill-rule:evenodd;}.cls-2{fill:#fff;}.cls-3{fill:#f8ad00;}.cls-4{fill:#004e9e;}</style></defs><g id="Layer_2" data-name="Layer 2"><g id="Layer_1-2" data-name="Layer 1"><path class="cls-1" d="M148.46,74.23A74.23,74.23,0,1,1,74.23,0,74.23,74.23,0,0,1,148.46,74.23Z"/><path class="cls-2" d="M21,74.69a53.23,53.23,0,1,0,105.61-10v-.18l3.85.85c5.29,1.2,9.88,2.11,11.12,1.9s.53-1-1.24-1.85a63,63,0,0,0-10.21-3.89l-4.52-1.31-.06-.2A53.24,53.24,0,0,0,21.32,68.36l-.05.31c-1.62.26-3.73.56-6.26.82-7.07.75-8.94.61-9.13,1-.29.58.52,2,3.38,2.94,1.83.61,6.33,1.12,11.72.92l0,.35Zm124.63-.46a71.4,71.4,0,1,1-71.4-71.4A71.4,71.4,0,0,1,145.63,74.23Z"/><path class="cls-2" d="M86.54,68.68c1.4.94,2.83,1.86,4.29,2.7.93.54,1.88,1.06,2.86,1.52l.76.35-.66.52a1.52,1.52,0,0,1-.88.24,4.94,4.94,0,0,1-2.2-.72c-1.41-.79-2.8-1.65-4.15-2.54-1.82-1.19-3.59-2.46-5.38-3.69-2.38-1.63-4.78-3.2-7.25-4.68-1.25-.75-2.53-1.52-3.83-2.16a10.92,10.92,0,0,0-2.7-1,14.56,14.56,0,0,0-3.9-.09A26.72,26.72,0,0,0,60,59.7c-1.5.32-3,.71-4.48,1.12-3.53,1-7,2.08-10.52,3.16l-4.89,1.5-2.18.66c-3.27,1-6.55,1.83-9.89,2.54-4.25.89-8.54,1.53-12.86,2-2.18.24-4.35.41-6.54.58l-.92.07a8.6,8.6,0,0,0,2,.94,13.43,13.43,0,0,0,2.18.47c1.09.17,2.2.27,3.3.34a64.35,64.35,0,0,0,8.56,0c3.68-.26,7.33-.65,11-1.07,3.24-.37,6.49-.76,9.74-1l1.29-.11a73.33,73.33,0,0,1,8-.33,16.29,16.29,0,0,1,6.58,1.32,26.35,26.35,0,0,1,3.92,2.34c.3.22.6.46.88.71s.44.35.44.63v.33l-.29.14a1.59,1.59,0,0,1-.94,0,4.91,4.91,0,0,1-1.89-1c-3,.8-6.08,1.6-9.12,2.37a36.41,36.41,0,0,1-7.2.93,63.43,63.43,0,0,1-9.93-.43c-1.31-.15-2.62-.33-3.92-.49-1-.12-1.92-.24-2.88-.29-.78,0-2.21-.11-2.77.58a2.88,2.88,0,0,0-.09,2.62,12.22,12.22,0,0,0,2.91,4.31A14.94,14.94,0,0,0,39.67,89a8,8,0,0,0,1.69-.15,22,22,0,0,0,3.06-.93c1.44-.5,2.87-1,4.35-1.32A19.21,19.21,0,0,1,53.48,86a27.88,27.88,0,0,1,4.08.38c1.61.25,3.21.57,4.81.86,3,.56,6,1.23,9,1.8a63.93,63.93,0,0,0,9.23,1.23c5.58.24,10.73-1.44,16-3,2.75-.79,5.46-1.73,8.2-2.55a57.54,57.54,0,0,1,6.76-1.68,7.48,7.48,0,0,0-1.54-.54,8.72,8.72,0,0,0-.89-.16,16.57,16.57,0,0,0-1.73-.12h-2.52l1.42-.95a4.1,4.1,0,0,1,.86-.38,5.88,5.88,0,0,1,2-.37,8.27,8.27,0,0,0,3.85-.9.8.8,0,0,0,.33-.64,6.51,6.51,0,0,1-1.76-.9c-.83-.56-1.63-1.2-2.42-1.81-2.61-2-5.6-4-9-4l-2.62.05,2.41-1c.28-.12.57-.26.84-.4a22.14,22.14,0,0,0,2-1.22c1.29-.86,2.62-1.66,4-2.43,2-1.11,4-2.16,6-3.1,2.37-1.09,5.5-2.52,8.17-2,3.25.63,6.51,1.34,9.74,2.08,1.71.38,3.42.75,5.13,1.09,1.11.23,2.23.44,3.35.61-.66-.31-1.35-.6-2-.88a67.81,67.81,0,0,0-7.33-2.59c-1.24-.35-2.47-.72-3.71-1.09-.92-.27-1.84-.55-2.77-.79-1.59-.42-3.2-.81-4.81-1.13a33.2,33.2,0,0,0-4.43-.6,18.41,18.41,0,0,0-4.86.34c-.76.14-1.52.33-2.27.51a48.2,48.2,0,0,0-6.28,2.1c-2.55,1-5.1,2.14-7.55,3.38-.42.2-.83.42-1.24.63-1.41.72-2.82,1.44-4.22,2.18l-1.15.6Zm16.71,10h-.61l.49-.79a2.14,2.14,0,0,1,1.78-1.07,2.06,2.06,0,0,1,1.28.57,3.28,3.28,0,0,1,.31.34l.08.12a.6.6,0,0,1,0,.62,1.65,1.65,0,0,1-.28.44,1.92,1.92,0,0,1-1.35.64A1.87,1.87,0,0,1,103.25,78.64Z"/><path class="cls-3" d="M113.86,78.83a1.39,1.39,0,0,1-.55,1.32,8.56,8.56,0,0,1-4.13,1,5.57,5.57,0,0,0-2.6.66,15.38,15.38,0,0,1,3.55.29,4.8,4.8,0,0,1,2.43,1.16l.13.23.71-.09A22,22,0,0,1,122,84s.18-2.29-2.67-3.72a15.89,15.89,0,0,0-5.44-1.57Z"/><path class="cls-4" d="M53,130.46l-2.36,2.68,2.14.87.22-3.55Zm47.25,6.42-5.37-4.12,1.91,5.35-1.7.61L92,130l1.52-.54,5.36,4.1-1.9-5.34,1.7-.61,3.12,8.72-1.52.55Zm-12.88-3.79a1.46,1.46,0,0,0-1.22-.28,1.52,1.52,0,0,0-1.07.69c-.28.44-.29.88,0,2.63s.48,2.17.89,2.49a1.56,1.56,0,0,0,1.24.29,1.49,1.49,0,0,0,1.05-.69c.28-.45.31-.89,0-2.64s-.48-2.16-.9-2.49Zm2.41,6a3.59,3.59,0,0,1-4.93.86c-1.09-.76-1.26-1.91-1.54-3.48s-.5-2.71.26-3.8a3.61,3.61,0,0,1,4.94-.86c1.08.76,1.27,1.9,1.54,3.48s.49,2.71-.27,3.8ZM78.2,141.39l-.45-9.25,1.81-.09.45,9.26-1.81.08Zm-6.62-7.76-1.76-.13-.16,2.13,1.76.13a1.08,1.08,0,1,0,.16-2.13Zm-.17,3.76-1.88-.14-.17,2.27,1.88.14a1.14,1.14,0,1,0,.17-2.27Zm-.11,3.9-3.87-.3.71-9.24,3.71.29c1.8.13,2.78,1.23,2.65,2.81a2.14,2.14,0,0,1-1.28,1.82,2.15,2.15,0,0,1,1.11,2.17,2.56,2.56,0,0,1-3,2.45ZM57.71,139l2.13-9,1.76.42-1.76,7.45,4.09,1-.37,1.57L57.71,139Zm-5.18-1.69.11-1.73-3-1.24-1.14,1.31L46.7,135l6.62-7.31,1.31.53L54.27,138Z"/><path class="cls-4" d="M23,40l-1,1.58,1.9,1.25,1-1.58A1.14,1.14,0,1,0,23,40Zm97.86.2,7.75-5.08,3.35,5.1-1.35.88-2.36-3.58-1.82,1.19,2,3-1.35.89-2-3.06-1.88,1.24,2.36,3.59-1.35.88-3.35-5.1Zm-3.17-3.86,9-3.88-1.26-1.41-5.74,2.63,3.27-5.4-1.25-1.4-4.88,8.45.9,1Zm-1.13-11.32a1.63,1.63,0,0,0-1.79-1.49c-.52.07-.87.35-2,1.72s-1.34,1.76-1.32,2.28A1.53,1.53,0,0,0,112,28.7a1.51,1.51,0,0,0,1.21.36c.52-.07.87-.34,2-1.71s1.34-1.77,1.32-2.29Zm-3,5.7a3.6,3.6,0,0,1-3.85-3.21c-.12-1.31.64-2.19,1.66-3.42s1.74-2.14,3.06-2.26a3.62,3.62,0,0,1,3.86,3.2c.12,1.32-.63,2.21-1.66,3.44s-1.75,2.12-3.07,2.25Zm-8.86-5.49,1.56.92,4.7-8-1.56-.92-1.92,3.27L104.78,19l1.92-3.26-1.56-.92-4.69,8,1.56.91,2-3.34,2.71,1.59-2,3.34ZM92.24,11.19a.7.7,0,0,0-.95.5,1.94,1.94,0,0,0,.29,1.17l.45-.14a1,1,0,0,0,.74-.59.72.72,0,0,0-.53-.94Zm-1.67,3.38c-.65.22-1.11.46-1.3,1.09a1.32,1.32,0,0,0,1,1.65,1.9,1.9,0,0,0,1.47-.13l-1.15-2.61Zm2.22,5-.42-1a3.43,3.43,0,0,1-2.55.17c-2-.58-2.63-1.9-2.13-3.57A3.08,3.08,0,0,1,90,13.32a3,3,0,0,1-.33-2.15,2.19,2.19,0,0,1,3-1.37,2.16,2.16,0,0,1,1.64,2.77,1.93,1.93,0,0,1-1.37,1.28s-.5.19-.77.27l1,2.22A2.93,2.93,0,0,0,94,14.91l1.54.46a4.5,4.5,0,0,1-1.77,2.47l1,2.36-2-.61Zm-14-2.87-3.41-5.85-.26,5.68-1.81-.08.42-9.25,1.61.07,3.41,5.83L79,7.46l1.8.08-.41,9.25-1.61-.07ZM67.57,9.66a1.62,1.62,0,0,0-2.31.28c-.3.43-.34.87-.13,2.64s.35,2.18.75,2.53a1.54,1.54,0,0,0,1.22.35,1.5,1.5,0,0,0,1.09-.63c.3-.43.35-.87.14-2.64S68,10,67.57,9.66Zm2.08,6.1a3.33,3.33,0,0,1-2.36,1.3,3.37,3.37,0,0,1-2.62-.71c-1-.82-1.15-2-1.34-3.56S63,10.06,63.8,9a3.36,3.36,0,0,1,2.37-1.3,3.32,3.32,0,0,1,2.6.71c1,.82,1.17,2,1.36,3.56s.34,2.74-.48,3.78ZM57.85,11l2,7.38-1.74.48-2-7.38-2.33.64-.42-1.56,6.41-1.75.42,1.56L57.85,11ZM52,21l1.65-.74-3.8-8.45-1.65.74L49.76,16,46.9,17.27l-1.55-3.45-1.65.74L47.5,23l1.65-.74-1.59-3.53,2.86-1.29L52,21Zm-8,2.88a3.66,3.66,0,0,1-4.24,2.86A2.65,2.65,0,0,1,38.42,26,12.25,12.25,0,0,1,37,24.14a12.38,12.38,0,0,1-1.14-2,2.65,2.65,0,0,1-.14-1.58,3.38,3.38,0,0,1,1.52-2.22,3.32,3.32,0,0,1,4.55.54l-1.52,1a1.57,1.57,0,0,0-2.14-.21,1.48,1.48,0,0,0-.69,1.05c0,.55.06.89,1.07,2.42s1.27,1.77,1.81,1.93a1.43,1.43,0,0,0,1.24-.24,1.67,1.67,0,0,0,.78-1.14A1.78,1.78,0,0,0,42,22.44l-.2-.3-1.42.95-.83-1.26,2.91-1.94L43.23,21a3.69,3.69,0,0,1,.82,2.84Zm-7.94,7.07,1.38-1.17-6-7L30.1,23.89l6,7ZM26.3,29.84,25.15,31.1,27,32.75,28.1,31.5a1.23,1.23,0,1,0-1.8-1.66ZM32.89,34l-3.95-1.17-.88,1,2.72,2.5L29.56,37.6l-6.83-6.26,2.46-2.67a2.8,2.8,0,0,1,4.12-.3A2.49,2.49,0,0,1,30,31.26l4.34,1.17L32.89,34Zm-13.08,4.1a1.07,1.07,0,1,1,1.78,1.17l-1,1.48-1.78-1.18,1-1.47Zm6.56,4-2.13,3.24L16.5,40.18l2-3.11a2.53,2.53,0,0,1,3.75-1,2.13,2.13,0,0,1,1,2,2.16,2.16,0,0,1,2.44.08A2.57,2.57,0,0,1,26.37,42Z"/></g></g></svg>