<svg xmlns="http://www.w3.org/2000/svg" viewBox="0 0 134.18 149.24"><defs><style>.cls-1{fill:#40aee3;}.cls-2{fill:#832c37;}.cls-3{fill:#dbad26;}.cls-4{fill:#fbd33b;}.cls-5{fill:#d4ac22;}.cls-6{fill:#fad833;}.cls-7{fill:#fff;}</style></defs><g id="Layer_2" data-name="Layer 2"><g id="Layer_1-2" data-name="Layer 1"><path class="cls-1" d="M67.09,72v0l.08.09L67.09,72ZM134.17,4.84h0A450.12,450.12,0,0,0,67.08,0,450.08,450.08,0,0,0,0,4.83v56c0,47.32,27.45,73.93,66,88.08l1.1.35h0l1.1-.35c38.54-14.15,66-40.76,66-88.08v-56Z"/><path class="cls-2" d="M129.54,9.47h0A420,420,0,0,0,67.08,5,420,420,0,0,0,4.63,9.46V62.51c0,44.05,25.55,68.83,61.43,82l1,.32h0l1-.32c35.88-13.17,61.42-37.95,61.43-82v-53Z"/><path class="cls-3" d="M97.91,120.53c1,1,2.57-.06,4.19-1.68s2.67-3.2,1.69-4.19L41.85,54.28a3.11,3.11,0,0,0-4.31,4.32Z"/><path class="cls-4" d="M43.78,53.36l5.06-6s.48-.63-.26-1.54A69.51,69.51,0,0,0,42.7,40c-.56-.42-1-.32-1.57.28-3.11,3-11,10.6-11.47,11.1A2,2,0,0,0,29,53.47c.19,1.06.76,2.83-.22,4.54l-5.33,8.4c-.67,1-.87,1.92-.36,2.42.27.26.95.57,2.32-.39.66-.46,7.91-5.34,10.22-7.24C37,60.09,38,59.08,38,59.08l4.37-4.29S43.3,53.88,43.78,53.36Z"/><path class="cls-3" d="M25.43,67.9c-1.52,1-1.51,1.18-1.3,1.15a3.53,3.53,0,0,0,1.26-.61c.66-.45,7.91-5.34,10.22-7.24,1-.78,1.75-1.52,2.14-1.88a9.06,9.06,0,0,0-3.64,1.6C32.87,62,27.59,66.44,25.43,67.9Z"/><path class="cls-3" d="M43.77,53.36l5.07-6a1.08,1.08,0,0,0,.06-1s-.42-.48-1.88,1.23c-1.23,1.43-1.81,2-2.84,3.23a9.14,9.14,0,0,0-1.63,3.75C42.84,54.33,43.42,53.74,43.77,53.36Z"/><path class="cls-3" d="M36.4,120.53c-1,1-2.57-.06-4.19-1.68s-2.67-3.2-1.68-4.19l62-60.4a3.11,3.11,0,0,1,4.32,4.32Z"/><path class="cls-4" d="M35.8,119.93,93.6,60.57a2.83,2.83,0,0,0-.36-4,3.38,3.38,0,0,0-2.15-1l-60.56,59c-1,.94,0,2.42,1.46,4S34.89,120.85,35.8,119.93Z"/><path class="cls-4" d="M90.56,53.34l-5.07-6s-.47-.64.27-1.54A68.41,68.41,0,0,1,91.63,40c.57-.42,1-.32,1.58.28,3.1,3,11,10.6,11.47,11.09a2,2,0,0,1,.67,2.09c-.19,1.06-.75,2.83.23,4.54l5.33,8.39c.66,1,.86,1.93.36,2.42-.27.27-1,.57-2.33-.38-.66-.46-7.91-5.34-10.22-7.24-1.35-1.11-2.38-2.13-2.38-2.13L92,54.76S91,53.86,90.56,53.34Z"/><path class="cls-3" d="M108.91,67.88c1.51,1,1.51,1.18,1.29,1.15a3.61,3.61,0,0,1-1.26-.61c-.66-.46-7.91-5.34-10.22-7.24-1-.78-1.74-1.52-2.13-1.89a9.24,9.24,0,0,1,3.63,1.61C101.46,61.93,106.74,66.41,108.91,67.88Z"/><path class="cls-3" d="M90.56,53.34l-5.07-6a1.09,1.09,0,0,1,0-1s.41-.47,1.87,1.24c1.23,1.43,1.81,2,2.85,3.22a9.38,9.38,0,0,1,1.63,3.76C91.5,54.3,90.91,53.72,90.56,53.34Z"/><path class="cls-3" d="M100.32,55.06a1.22,1.22,0,0,1-1.73,0L96,52.47a1.24,1.24,0,0,1,0-1.73,1.22,1.22,0,0,1,1.73,0l2.6,2.59A1.24,1.24,0,0,1,100.32,55.06Z"/><path class="cls-5" d="M96.34,52.47A1.22,1.22,0,0,1,97,50.4a1.21,1.21,0,0,0-1,.34,1.24,1.24,0,0,0,0,1.73l2.6,2.59a1.21,1.21,0,0,0,1,.35,1.18,1.18,0,0,1-.69-.35Z"/><path class="cls-3" d="M97.48,53.42a.13.13,0,0,1-.18,0,.14.14,0,0,1,0-.19L98.49,52a.13.13,0,0,1,.18,0,.14.14,0,0,1,0,.19Z"/><path class="cls-3" d="M97.88,53.82a.13.13,0,1,1,0-.19A.14.14,0,0,1,97.88,53.82Z"/><path class="cls-3" d="M97.06,53a.14.14,0,0,1-.19,0,.13.13,0,0,1,0-.18.14.14,0,0,1,.19,0A.13.13,0,0,1,97.06,53Z"/><path class="cls-3" d="M98,51.39,97.61,51a.13.13,0,0,0-.19.19l.07.06a.07.07,0,0,1,0,.09l-1,1a.14.14,0,0,0,0,.19.13.13,0,0,0,.18,0l1.06-1.06a.08.08,0,0,1,.08,0l.07.07a.13.13,0,0,0,.19-.19Z"/><path class="cls-3" d="M100.2,53.58a.14.14,0,0,0-.19,0l-.69.5a.06.06,0,0,1-.09,0,.07.07,0,0,1,0-.08l.14-.29a.12.12,0,0,0,0-.14h0a.16.16,0,0,0-.15,0l-.28.14a.06.06,0,0,1-.08,0,.06.06,0,0,1,0-.09l.5-.69a.13.13,0,0,0,0-.19.13.13,0,0,0-.18,0l-1,1.36a.13.13,0,0,0,0,.17h0a.16.16,0,0,0,.15,0l.48-.24a.08.08,0,0,1,.08,0,.08.08,0,0,1,0,.09l-.24.48a.12.12,0,0,0,0,.15h0a.13.13,0,0,0,.17,0l1.36-1A.14.14,0,0,0,100.2,53.58Z"/><path class="cls-4" d="M43.6,56a3.12,3.12,0,0,0-2.2.94,2.64,2.64,0,0,0-.35,3.67L65.8,86,70,81.74Z"/><path class="cls-4" d="M103.79,114.66,72.57,84.23a4.71,4.71,0,0,0-1.36.93,4.52,4.52,0,0,0-.38,6l27.93,28.63c.91.92,2.38,0,3.89-1.56.26-.26.5-.51.72-.76C104.17,116.33,104.48,115.35,103.79,114.66Z"/><path class="cls-6" d="M97.42,53.36a.11.11,0,0,1-.18,0,.13.13,0,0,1,0-.18L98.43,52a.12.12,0,0,1,.19,0,.13.13,0,0,1,0,.18Z"/><path class="cls-6" d="M97.82,53.76a.13.13,0,0,1-.18,0,.12.12,0,0,1,0-.19.13.13,0,0,1,.18,0A.14.14,0,0,1,97.82,53.76Z"/><path class="cls-6" d="M97,52.94a.13.13,0,1,1,0-.18A.13.13,0,0,1,97,52.94Z"/><path class="cls-6" d="M98,51.33l-.41-.41a.13.13,0,0,0-.18,0,.12.12,0,0,0,0,.19l.06.07a.06.06,0,0,1,0,.08l-1.05,1.06a.13.13,0,0,0,0,.18.12.12,0,0,0,.19,0l1.05-1a.07.07,0,0,1,.09,0l.06.07a.13.13,0,0,0,.19-.19Z"/><path class="cls-6" d="M100.14,53.53a.14.14,0,0,0-.19,0l-.69.5a.06.06,0,0,1-.09,0,.06.06,0,0,1,0-.08l.14-.29a.14.14,0,0,0,0-.14h0a.12.12,0,0,0-.14,0l-.28.14a.08.08,0,0,1-.09,0,.06.06,0,0,1,0-.09l.5-.69a.14.14,0,0,0,0-.19.14.14,0,0,0-.19,0L98,54a.14.14,0,0,0,0,.17h0a.12.12,0,0,0,.15,0L98.7,54a.07.07,0,0,1,.08,0,.08.08,0,0,1,0,.08l-.24.48a.16.16,0,0,0,0,.15h0a.14.14,0,0,0,.17,0l1.36-1A.13.13,0,0,0,100.14,53.53Z"/><path class="cls-3" d="M38.34,50.76a1.22,1.22,0,0,1,0,1.73l-2.59,2.6A1.22,1.22,0,0,1,34,53.36l2.59-2.6A1.24,1.24,0,0,1,38.34,50.76Z"/><path class="cls-5" d="M34.24,53.58,36.83,51a1.22,1.22,0,0,1,1.61-.1l-.1-.12a1.24,1.24,0,0,0-1.73,0L34,53.36a1.22,1.22,0,0,0,0,1.73l.11.1A1.22,1.22,0,0,1,34.24,53.58Z"/><path class="cls-3" d="M36.64,53.79a.13.13,0,0,1,0,.18.14.14,0,0,1-.19,0l-1.19-1.19a.13.13,0,0,1,0-.18.12.12,0,0,1,.19,0Z"/><path class="cls-3" d="M37,53.39a.13.13,0,1,1-.19,0A.14.14,0,0,1,37,53.39Z"/><path class="cls-3" d="M36.22,54.21a.13.13,0,1,1-.18,0A.13.13,0,0,1,36.22,54.21Z"/><path class="cls-3" d="M34.61,53.25l-.41.41a.13.13,0,0,0,0,.18.12.12,0,0,0,.19,0l.06-.06a.07.07,0,0,1,.09,0l1.05,1a.13.13,0,0,0,.19-.19l-1.05-1a.08.08,0,0,1,0-.09l.07-.06a.13.13,0,0,0-.19-.19Z"/><path class="cls-3" d="M36.8,51.07a.15.15,0,0,0,0,.19l.51.69a.06.06,0,0,1,0,.09.06.06,0,0,1-.08,0l-.29-.13a.12.12,0,0,0-.14,0h0a.12.12,0,0,0,0,.14l.13.28a.07.07,0,0,1,0,.09.08.08,0,0,1-.09,0L36.07,52a.15.15,0,0,0-.19,0,.14.14,0,0,0,0,.19l1.36,1a.15.15,0,0,0,.17,0h0a.12.12,0,0,0,0-.15l-.24-.49a.08.08,0,0,1,0-.08.1.1,0,0,1,.09,0l.48.24a.14.14,0,0,0,.15,0h0a.14.14,0,0,0,0-.17L37,51.1A.14.14,0,0,0,36.8,51.07Z"/><path class="cls-6" d="M36.64,53.65a.13.13,0,1,1-.19.19l-1.19-1.19a.13.13,0,0,1,.19-.19Z"/><path class="cls-6" d="M37,53.26a.13.13,0,1,1-.19,0A.14.14,0,0,1,37,53.26Z"/><path class="cls-6" d="M36.22,54.08a.13.13,0,1,1-.18,0A.13.13,0,0,1,36.22,54.08Z"/><path class="cls-6" d="M34.61,53.12l-.41.41a.13.13,0,0,0,0,.18.13.13,0,0,0,.19,0l.06-.06a.06.06,0,0,1,.09,0l1.05,1.05a.13.13,0,1,0,.19-.19l-1.05-1a.07.07,0,0,1,0-.09l.07-.06a.13.13,0,0,0-.19-.19Z"/><path class="cls-6" d="M36.8,50.94a.14.14,0,0,0,0,.18l.51.7a.06.06,0,0,1,0,.09.06.06,0,0,1-.08,0l-.29-.14a.14.14,0,0,0-.14,0h0a.12.12,0,0,0,0,.14l.13.28a.08.08,0,0,1,0,.09s-.07,0-.09,0l-.69-.5a.14.14,0,1,0-.16.22l1.36,1a.15.15,0,0,0,.17,0h0a.12.12,0,0,0,0-.15l-.24-.49a.08.08,0,0,1,0-.08.1.1,0,0,1,.09,0l.48.24a.16.16,0,0,0,.15,0h0a.13.13,0,0,0,0-.17L37,51A.14.14,0,0,0,36.8,50.94Z"/><path class="cls-7" d="M42.74,35.91A4.07,4.07,0,0,1,38.1,32.1l-.21-6.8,2.66-.19c.06,2.26.13,4.53.19,6.79a1.58,1.58,0,0,0,1.92,1.6l.39,0a1.73,1.73,0,0,0,1.82-1.85c0-2.26-.11-4.53-.16-6.79l2.66-.15c.05,2.26.1,4.53.14,6.79a4.43,4.43,0,0,1-4.38,4.4l-.39,0Zm6.67-11.3,3.09-.14q2.07,3.36,4.13,6.72h0l-.06-6.85,2.66-.07L59.35,35l-3,.07q-2.06-3.36-4.14-6.7h0c0,2.28.07,4.56.1,6.84l-2.63.12c-.07-3.58-.14-7.17-.2-10.75Zm11.81-.37,2.66,0c0,3.58,0,7.17,0,10.75l-2.63,0q0-5.37-.07-10.75Zm8,2.22c-1.38,0-2.06,0-3.43,0,0-.91,0-1.36,0-2.26,3.19,0,6.37,0,9.55.09,0,.9,0,1.35,0,2.25l-3.42-.06c0,2.83,0,5.67,0,8.5-1,0-1.58,0-2.63,0q0-4.26,0-8.5Zm8-2.13c2.41.07,4.81.16,7.22.26,0,.9,0,1.35,0,2.26-1.82-.09-2.72-.13-4.54-.19,0,.78,0,1.18,0,2l3.7.14c0,.9,0,1.36,0,2.26-1.48-.07-2.21-.1-3.69-.15,0,.82,0,1.22,0,2l4.72.19c0,.91,0,1.36,0,2.26-2.45-.11-4.89-.2-7.34-.27q.06-5.38.11-10.75ZM90.46,33.4c1.82.11,3-.89,3-2.95a2.89,2.89,0,0,0-2.87-3.29l-1.49-.09L89,33.31l1.48.09Zm-3.94-8.73c1.71.08,2.56.13,4.26.24a5.6,5.6,0,0,1,5.44,5.75,5.16,5.16,0,0,1-5.71,5c-1.68-.11-2.53-.15-4.21-.24.07-3.58.15-7.17.22-10.75ZM15.6,12.09c1.38-.18,2.07-.26,3.46-.42.62,3.05,1.25,6.1,1.87,9.15h0Q22,16,23.1,11.21l3-.31c.69,3.06,1.39,6.12,2.08,9.18h0q1-4.77,2-9.56c1.36-.12,2.05-.18,3.42-.28L30.23,24c-1.61.14-2.41.22-4,.38-.55-2.59-1.09-5.17-1.64-7.76h0c-.55,2.69-1.09,5.39-1.64,8.09l-4,.45L15.6,12.09Zm87-1.67c1.49.12,2.24.19,3.72.34,1,2.89,2,5.8,3,8.7h0l2.94-8.09c1.47.16,2.21.24,3.67.42l2.43,13.81L115,25.19q-.6-4.52-1.19-9h0c-1,2.85-1.94,5.71-2.9,8.56l-3-.31q-1.47-4.57-3-9.16h0l-1,8.78-3.48-.29q1.15-6.66,2.3-13.32ZM35,10.15q4.56-.35,9.12-.61c-.06,1.14-.1,1.71-.16,2.85l-5.66.35V15.2c1.85-.13,2.77-.19,4.62-.29v2.83c-1.85.11-2.77.16-4.62.29v2.55l5.92-.36c0,1.13,0,1.7,0,2.83q-4.62.27-9.23.61V10.15Zm24.68,1.7c-1.71,0-2.56.05-4.27.1V9.11Q61.3,9,67.24,9v2.83c-1.71,0-2.57,0-4.27,0V22.49c-1.33,0-2,0-3.32,0V11.85ZM72.74,9c1.33,0,2,0,3.32,0v5.41c1.91,0,3.83.09,5.74.15V9.2l3.31.13V22.84l-3.31-.13V17.42l-5.74-.16v5.29l-3.32-.05V9Zm20,3.81q-.75,2.43-1.49,4.87l3,.18-1.47-5ZM95,20.55c-1.82-.12-2.73-.18-4.55-.28-.32,1.11-.49,1.67-.81,2.79-1.36-.08-2-.11-3.41-.17L90.37,9.58c1.78.1,2.68.16,4.46.28q2.22,6.92,4.43,13.83l-3.4-.25c-.33-1.16-.5-1.73-.83-2.89ZM50.36,9c-2.47.09-5.27,1.61-5.28,4.38,0,4.24,6.33,3.1,6.72,5.42.11.64-.61,1.18-1.53,1.17a9.2,9.2,0,0,1-4.43-1c-.07,1.16-.12,1.78-.17,2.84A8,8,0,0,0,50.19,23c2.38.06,5.24-1.59,5.26-4.37,0-4.2-6.26-3.25-6.72-5.44-.12-.56.56-1.11,1.59-1.17a7.79,7.79,0,0,1,3.53.65c.07-1.34.09-1.53.16-2.84A6.71,6.71,0,0,0,50.36,9Z"/><path class="cls-7" d="M47.52,120.68l1.61.7-2.27,5.2,2.69,1.17-.6,1.38-4.3-1.88,2.87-6.57Zm6.41,8.44a2,2,0,0,0,2.44-1.56,1.94,1.94,0,1,0-3.74-1,2,2,0,0,0,1.3,2.59Zm1.54-5.61a3.71,3.71,0,1,1-2,7.15,3.71,3.71,0,1,1,2-7.15Zm4.33,1.19,1.77.18,1.64,3.53a12.94,12.94,0,0,1,.47,1.28h0s0-.78,0-1.23l.34-3.34,1.74.18-.72,7.14-1.76-.18-1.65-3.53a13.37,13.37,0,0,1-.48-1.27h0s0,.78-.05,1.23L60.82,132l-1.75-.18.73-7.14Zm10,6.16a2.09,2.09,0,0,0-.22-4.16l-.72,0,.22,4.16.72,0Zm-2.78-5.53,2.55-.14a3.59,3.59,0,1,1,.38,7.17l-2.54.14-.39-7.17Zm11.44,4.41a2,2,0,0,0,1.43-2.51,1.94,1.94,0,1,0-3.79.83,2,2,0,0,0,2.36,1.68Zm-1.25-5.68a3.71,3.71,0,1,1,1.59,7.25,3.68,3.68,0,0,1-4.47-2.86,3.64,3.64,0,0,1,2.88-4.39Zm4.38-1,2.69,6.65L86,129.1,84.7,126c-.17-.42-.53-1.11-.53-1.11h0a12.15,12.15,0,0,0,1,.91l3.1,2.36,1.64-.66-2.69-6.66-1.63.66,1.26,3.11a12,12,0,0,0,.53,1.1h0a12.15,12.15,0,0,0-1-.91l-3.09-2.36Z"/></g></g></svg>