<svg xmlns="http://www.w3.org/2000/svg" viewBox="0 0 140.34 174.93"><defs><style>.cls-1{fill:#fff;}.cls-1,.cls-2,.cls-3{fill-rule:evenodd;}.cls-2{fill:#ffdc00;}.cls-3{fill:#005ba5;}</style></defs><g id="Layer_2" data-name="Layer 2"><g id="Layer_1-2" data-name="Layer 1"><path class="cls-1" d="M80.84,144a87.83,87.83,0,0,1-10.67,7,89.41,89.41,0,0,1-10.67-7V68.71H80.84V144ZM68.53,75.34a2,2,0,0,0,1.93,1.81,32.84,32.84,0,0,1-2.71,6.92,5.82,5.82,0,0,0-3.89.18A2.64,2.64,0,0,0,62,86.67c.05,1,1.6,1.72,2.55,1.63a7,7,0,0,0,4.09-2.36c1.55.9,2.72,1.79,4.19,2,2.33.34,4.79-.72,6.06-4.17A8.31,8.31,0,0,1,74.18,86a10,10,0,0,1-4.73-1.31c1.4-1.8,2.14-4.17,3.06-7.46a7.18,7.18,0,0,0,5.62-2.94,2.11,2.11,0,0,0-.68-3.11,4.71,4.71,0,0,0-4.26.81c-1.27,1-1.76,2.76-2.33,4.26a2.6,2.6,0,0,1-2.33-.93ZM68.86,145c1.62,0,3.47-1.35,4.82-3.63.11-.19.1-.59-.11-.66s-.59.15-.77.37c-1.19,1.47-2.38,2.43-3.39,2.43-2.36,0-3-3.34-1.79-7.34s4.27-7.42,7.25-7.29c1.19,0,1.4,1,1.33,2.16,0,.19-.13.55.06.56s.44-.29.49-.52c.39-1.84-.15-2.91-2.34-3-3.92-.15-8.08,3.81-9.75,8.43s1.07,8.48,4.2,8.48Zm4-31.3a15.78,15.78,0,0,0,4.17-.36c1.14-.29,1.79-.67,2.1-2.55a3.62,3.62,0,0,1-2.45,1.32c-2.77.28-5.58-.54-8.35-.2-1.14.14-3.08.75-3.08,2.11,0,2,2,1.93,3.47,1.77-1-.08-1.87-.69-1.76-1.47s1.32-1,1.79-.91c.74.06,1.51.14,2.31.19l-1.4,5.06a6.19,6.19,0,0,0-2.28.35c-1,.38-1.85,1.93-1.23,2.85,0-1,.8-1.46,1.85-1.64a8.21,8.21,0,0,1,1.26-.11l-.88,3.19c-.31,1.15-1.59,3.11-3,3.3-1,.14-1.8-.74-2.07-2-.23,2.42,2,4,5,1.8a7.17,7.17,0,0,0,2.05-2.48,16.16,16.16,0,0,0,1.34-3.72,13.62,13.62,0,0,0,2.21,0c1.53-.18,1.73-1.7,1.39-3-.28,1.18-.65,1.76-1.88,1.74-.44,0-.92,0-1.41-.1.34-1.72.58-3.5.83-5.14Zm-3.52-22A4,4,0,0,0,65.26,94c.93-1,2.28-1.87,3.3-1.44.71.3.35,1.67,0,2.18l-4.81,8.46A3.23,3.23,0,0,0,64,107c1.15,1.11,3.83.57,4.85-.08a7.31,7.31,0,0,0,2.34-2.76,4,4,0,0,0-.09,2.16A2.7,2.7,0,0,0,73.64,108c2.29-.16,3.29-2,1.8-4.1a1.88,1.88,0,0,1-1.22,2.43,1.75,1.75,0,0,1-1.74-2.42L78,92.12H76.13l-5.42,11.51a4.69,4.69,0,0,1-4.12,2.68c-1.5-.07-1.26-2.49-.76-3.36l4.46-7.83c.93-1.62.35-3.06-.93-3.39Zm7-19.38c-1-.69-2.09.15-2.8,1.49a11.54,11.54,0,0,0-.84,2.55A6.13,6.13,0,0,0,75.9,75c.94-.85,1.36-2,.49-2.61ZM67,85a4.13,4.13,0,0,0-1.78-.44c-1.48.06-2.12.66-2.15,1.24-.05.89,1,1.14,1.74,1A3.23,3.23,0,0,0,67,85Zm2.16-40.62-1.54,2.15-2.16-.71a6.16,6.16,0,0,1-1-2.91l1.33-1.84,2.51.82.81,2.49Zm3.78-7.59a6.15,6.15,0,0,1,2.47,1.8v2.27l-2.52.81-2.12-1.54V37.46l2.17-.69Zm3.88,6.12L75.44,41l-2.51.83-.81,2.49,1.55,2.14,2.16-.7a6.16,6.16,0,0,0,1-2.91Zm-4.63,5.58,1.34-1.84L71.93,44.5H69.31l-1.56,2.13,1.35,1.84a5.86,5.86,0,0,0,1.52.19,5.94,5.94,0,0,0,1.53-.19Zm-6.27-9.9v2.27l2.52.81,2.11-1.54V37.46l-2.16-.69a6.09,6.09,0,0,0-2.47,1.8ZM59.05,33a10.79,10.79,0,0,1,6.09-4.42c-.82,1-1.36,2.24-2.45,3s-2.44.92-3.64,1.39Zm11.57,3a6.54,6.54,0,1,0,6.54,6.54A6.56,6.56,0,0,0,70.62,36ZM58,50.56a10.51,10.51,0,0,1-1.81-3.37,10.88,10.88,0,0,1-.52-3.79c.7,1.09,1.71,2,2.13,3.27s.12,2.6.2,3.89ZM74.39,57a10.91,10.91,0,0,1-7.53,0c1.25-.33,2.41-1,3.76-1s2.52.69,3.77,1ZM85.58,43.4a10.85,10.85,0,0,1-2.32,7.16c.07-1.29-.22-2.61.2-3.89s1.43-2.18,2.12-3.27Zm-.72-6.77A10.43,10.43,0,0,0,71.8,27.14a10.39,10.39,0,0,0-1.18-3.59,10.61,10.61,0,0,0-1.18,3.59,10.44,10.44,0,0,0-13.06,9.49,10.39,10.39,0,0,0-3.78,0,10.43,10.43,0,0,0,3,2.23,10.44,10.44,0,0,0,5,15.36,10.43,10.43,0,0,0-1.15,3.6,10.54,10.54,0,0,0,3.06-2.21,10.44,10.44,0,0,0,16.15,0,10.54,10.54,0,0,0,3.06,2.21,10.25,10.25,0,0,0-1.16-3.6,10.44,10.44,0,0,0,5-15.36,10.17,10.17,0,0,0,3-2.23,10.62,10.62,0,0,0-3.78,0ZM75.93,49.46a12.73,12.73,0,0,1,1.84,2.17,6.91,6.91,0,0,0,.93.84c.84.33,2.27-1.1,2.49-1.71.52-1.49-.12-3.14.39-4.7s2-2.53,2.45-4c.18-.61-.14-2.61-1-2.85a7,7,0,0,0-1.25.14A12.63,12.63,0,0,1,79,40a1,1,0,1,1-1.31-.84,1,1,0,0,1,1.19.46,12.65,12.65,0,0,1,2.63-1.08,7.16,7.16,0,0,0,1.09-.62c.57-.7-.35-2.51-.87-2.9-1.25-1-3-.86-4.34-1.83s-1.79-2.67-3.09-3.57c-.53-.36-2.53-.68-3,.08A8.46,8.46,0,0,0,71,30.91a12.28,12.28,0,0,1-.21,2.84,1,1,0,0,1,.81,1,1,1,0,0,1-2,0,1,1,0,0,1,.8-1,13.49,13.49,0,0,1-.21-2.84A7.32,7.32,0,0,0,70,29.68c-.48-.76-2.49-.44-3-.08-1.29.9-1.75,2.61-3.08,3.57s-3.1.88-4.35,1.83c-.51.39-1.43,2.2-.86,2.9a7.55,7.55,0,0,0,1.09.62,13.11,13.11,0,0,1,2.63,1.08,1,1,0,1,1,.56,1.45A1,1,0,0,1,62.24,40a12.72,12.72,0,0,1-2.77-.67,6.92,6.92,0,0,0-1.25-.14c-.87.23-1.19,2.24-1,2.85.45,1.51,1.93,2.48,2.44,4s-.12,3.22.4,4.7c.21.61,1.65,2,2.49,1.71a6.91,6.91,0,0,0,.93-.84,12.73,12.73,0,0,1,1.84-2.17,1,1,0,0,1-.08-1.27A1,1,0,0,1,66.65,48a1,1,0,0,1-1,1.72,12.73,12.73,0,0,1-1.5,2.43,7.52,7.52,0,0,0-.51,1.14c-.05.9,1.76,1.82,2.4,1.84,1.57,0,3-1.08,4.59-1.08s3,1.11,4.6,1.08c.64,0,2.45-.94,2.4-1.84a7.52,7.52,0,0,0-.52-1.14,12.2,12.2,0,0,1-1.49-2.43,1,1,0,0,1-1-1.72,1,1,0,0,1,1.33,1.49Zm3.4,3.72A4,4,0,0,0,81.87,51c.54-1.53-.1-3.14.4-4.7s2-2.48,2.44-4A4.11,4.11,0,0,0,84,39a7.9,7.9,0,0,0,3-1.76,7.79,7.79,0,0,0-3.43.31,4.06,4.06,0,0,0-1.3-3.1c-1.29-1-3-.87-4.35-1.83S76.07,29.94,74.74,29a4.12,4.12,0,0,0-3.35-.29,8,8,0,0,0-.77-3.35,8,8,0,0,0-.76,3.35,4.11,4.11,0,0,0-3.35.29c-1.34.92-1.77,2.61-3.09,3.57s-3.06.84-4.35,1.83a4.09,4.09,0,0,0-1.3,3.1,7.78,7.78,0,0,0-3.43-.31,7.94,7.94,0,0,0,3,1.76,4.08,4.08,0,0,0-.77,3.28c.47,1.55,1.94,2.48,2.44,4s-.14,3.17.4,4.7a4.06,4.06,0,0,0,2.54,2.2,8.06,8.06,0,0,0-1.35,3.16,7.83,7.83,0,0,0,2.59-2.26A4.11,4.11,0,0,0,66,55.82c1.62,0,3-1.07,4.59-1.07s3,1.11,4.6,1.07a4.07,4.07,0,0,0,2.87-1.74,7.93,7.93,0,0,0,2.59,2.26,7.92,7.92,0,0,0-1.35-3.16ZM70.62,34.26a.47.47,0,1,1-.47.47.47.47,0,0,1,.47-.47ZM78.46,40a.47.47,0,0,1-.31.59.46.46,0,0,1-.58-.3.47.47,0,0,1,.3-.59.48.48,0,0,1,.59.3ZM62.79,40a.47.47,0,1,1,.3.59.46.46,0,0,1-.3-.59Zm3,9.21a.47.47,0,1,1,.65-.1.46.46,0,0,1-.65.1Zm9.68,0a.46.46,0,0,1-.65-.1.47.47,0,1,1,.76-.55.47.47,0,0,1-.11.65Zm.65-20.61a10.81,10.81,0,0,1,3.44,1.66A11.16,11.16,0,0,1,82.2,33c-1.21-.47-2.55-.6-3.65-1.39S76.93,29.55,76.11,28.55Z"/><path class="cls-2" d="M70.17,169.82C35.73,149.4,5.38,113.86,5.38,55.54a151.31,151.31,0,0,1,2.2-25.81c14.74-15,37.33-24.62,62.59-24.62s47.86,9.63,62.6,24.62A152.34,152.34,0,0,1,135,55.54c0,58.32-30.34,93.86-64.79,114.28ZM75.61,40.88l1.18,1.63h0a6.09,6.09,0,0,0-1.19-3.63v2Zm-5-4.55a6.13,6.13,0,0,0-1.92.31l1.92.62,1.92-.62a6.08,6.08,0,0,0-1.92-.31Zm5,9.78-1.91.63-1.19,1.63a6.2,6.2,0,0,0,3.1-2.26Zm-6.88,2.26-1.19-1.63-1.91-.63a6.24,6.24,0,0,0,3.1,2.26Zm-4.27-5.86,1.18-1.63v-2a6.15,6.15,0,0,0-1.18,3.63Zm6.16-2.28L69.55,41l-1.08.79.41,1.26.41,1.27H72l.41-1.27.42-1.26L71.7,41l-1.08-.78ZM80.84,144V68.71H59.5V144a89.41,89.41,0,0,0,10.67,7,87.83,87.83,0,0,0,10.67-7ZM20.25,61.58H120.1a113.51,113.51,0,0,0-.26-13.46c-.66-6.51-2.51-9-5.53-11.29A72.1,72.1,0,0,0,70.17,22.31,72.09,72.09,0,0,0,26,36.83c-3,2.31-4.88,4.78-5.54,11.29a111.51,111.51,0,0,0-.25,13.46Zm99.52,13.84c.13-1.7.19-3.41.19-5.1,0-.54,0-1.08,0-1.61H113.8l6,6.71ZM53.13,138.77V127.25l-5.48,6.18q2.64,2.77,5.48,5.34ZM42.56,127.66l10.57-11.89V101.6L36.82,120c1.79,2.65,3.71,5.23,5.74,7.71Zm-10-14.46L53.13,90.11V75.94L28,104.17q2.05,4.6,4.58,9Zm-7.71-17,24.45-27.5H36.75L22,85.36A88.56,88.56,0,0,0,24.9,96.21ZM20.57,75.42l6-6.71H20.38v1.61c0,1.69.07,3.4.19,5.1Zm94.87,20.79a86.86,86.86,0,0,0,3-10.85L103.59,68.71H91l24.45,27.5Zm-7.7,17a100.57,100.57,0,0,0,4.57-9L87.21,75.94V90.11l20.53,23.09Zm-10,14.46c2-2.48,4-5.06,5.75-7.71L87.21,101.6v14.17l10.57,11.89ZM87.21,138.77q2.83-2.57,5.49-5.34l-5.49-6.18Z"/><path class="cls-3" d="M70.17,174.93C41.25,159.16,15.46,131.34,6,98c-6.7-23.6-8.22-48.34-2.3-71.81C19.35,10.22,43.34,0,70.17,0S121,10.22,136.65,26.14c5.92,23.47,4.4,48.21-2.3,71.81-9.47,33.39-35.26,61.21-64.18,77ZM68.53,75.34a2,2,0,0,0,1.93,1.81,32.84,32.84,0,0,1-2.71,6.92,5.82,5.82,0,0,0-3.89.18A2.64,2.64,0,0,0,62,86.67c.05,1,1.6,1.72,2.55,1.63a7,7,0,0,0,4.09-2.36c1.55.9,2.72,1.79,4.19,2,2.33.34,4.79-.72,6.06-4.17A8.31,8.31,0,0,1,74.18,86a10,10,0,0,1-4.73-1.31c1.4-1.8,2.14-4.17,3.06-7.46a7.18,7.18,0,0,0,5.62-2.94,2.11,2.11,0,0,0-.68-3.11,4.71,4.71,0,0,0-4.26.81c-1.27,1-1.76,2.76-2.33,4.26a2.6,2.6,0,0,1-2.33-.93ZM68.86,145c1.62,0,3.47-1.35,4.82-3.63.11-.19.1-.59-.11-.66s-.59.15-.77.37c-1.19,1.47-2.38,2.43-3.39,2.43-2.36,0-3-3.34-1.79-7.34s4.27-7.42,7.25-7.29c1.19,0,1.4,1,1.33,2.16,0,.19-.13.55.06.56s.44-.29.49-.52c.39-1.84-.15-2.91-2.34-3-3.92-.15-8.08,3.81-9.75,8.43s1.07,8.48,4.2,8.48Zm4-31.3a15.78,15.78,0,0,0,4.17-.36c1.14-.29,1.79-.67,2.1-2.55a3.62,3.62,0,0,1-2.45,1.32c-2.77.28-5.58-.54-8.35-.2-1.14.14-3.08.75-3.08,2.11,0,2,2,1.93,3.47,1.77-1-.08-1.87-.69-1.76-1.47s1.32-1,1.79-.91c.74.06,1.51.14,2.31.19l-1.4,5.06a6.19,6.19,0,0,0-2.28.35c-1,.38-1.85,1.93-1.23,2.85,0-1,.8-1.46,1.85-1.64a8.21,8.21,0,0,1,1.26-.11l-.88,3.19c-.31,1.15-1.59,3.11-3,3.3-1,.14-1.8-.74-2.07-2-.23,2.42,2,4,5,1.8a7.17,7.17,0,0,0,2.05-2.48,16.16,16.16,0,0,0,1.34-3.72,13.62,13.62,0,0,0,2.21,0c1.53-.18,1.73-1.7,1.39-3-.28,1.18-.65,1.76-1.88,1.74-.44,0-.92,0-1.41-.1.34-1.72.58-3.5.83-5.14Zm-3.52-22A4,4,0,0,0,65.26,94c.93-1,2.28-1.87,3.3-1.44.71.3.35,1.67,0,2.18l-4.81,8.46A3.23,3.23,0,0,0,64,107c1.15,1.11,3.83.57,4.85-.08a7.31,7.31,0,0,0,2.34-2.76,4,4,0,0,0-.09,2.16A2.7,2.7,0,0,0,73.64,108c2.29-.16,3.29-2,1.8-4.1a1.88,1.88,0,0,1-1.22,2.43,1.75,1.75,0,0,1-1.74-2.42L78,92.12H76.13l-5.42,11.51a4.69,4.69,0,0,1-4.12,2.68c-1.5-.07-1.26-2.49-.76-3.36l4.46-7.83c.93-1.62.35-3.06-.93-3.39Zm7-19.38c-1-.69-2.09.15-2.8,1.49a11.54,11.54,0,0,0-.84,2.55A6.13,6.13,0,0,0,75.9,75c.94-.85,1.36-2,.49-2.61ZM67,85a4.13,4.13,0,0,0-1.78-.44c-1.48.06-2.12.66-2.15,1.24-.05.89,1,1.14,1.74,1A3.23,3.23,0,0,0,67,85Zm8.65-44.1,1.18,1.63h0a6.09,6.09,0,0,0-1.19-3.63v2Zm-5-4.55a6.13,6.13,0,0,0-1.92.31l1.92.62,1.92-.62a6.08,6.08,0,0,0-1.92-.31Zm5,9.78-1.91.63-1.19,1.63a6.2,6.2,0,0,0,3.1-2.26Zm-6.88,2.26-1.19-1.63-1.91-.63a6.24,6.24,0,0,0,3.1,2.26Zm-4.27-5.86,1.18-1.63v-2a6.15,6.15,0,0,0-1.18,3.63Zm6.16-2.28L69.55,41l-1.08.79.41,1.26.41,1.27H72l.41-1.27.42-1.26L71.7,41l-1.08-.78Zm-1.5,4.13-.81-2.49-2.51-.82-1.33,1.84a6.16,6.16,0,0,0,1,2.91l2.16.71,1.54-2.15Zm3.78-7.59-2.17.69v2.65l2.12,1.54,2.52-.81V38.57a6.15,6.15,0,0,0-2.47-1.8Zm3.88,6.12L75.44,41l-2.51.83-.81,2.49,1.55,2.14,2.16-.7a6.16,6.16,0,0,0,1-2.91Zm-4.63,5.58,1.34-1.84L71.93,44.5H69.31l-1.56,2.13,1.35,1.84a5.86,5.86,0,0,0,1.52.19,5.94,5.94,0,0,0,1.53-.19Zm-6.27-9.9v2.27l2.52.81,2.11-1.54V37.46l-2.16-.69a6.09,6.09,0,0,0-2.47,1.8ZM59.05,33c1.2-.47,2.55-.6,3.64-1.39s1.63-2,2.45-3A10.79,10.79,0,0,0,59.05,33Zm11.57,3a6.54,6.54,0,1,0,6.54,6.54A6.56,6.56,0,0,0,70.62,36ZM58,50.56c-.08-1.29.21-2.61-.2-3.89s-1.43-2.18-2.13-3.27a10.88,10.88,0,0,0,.52,3.79A10.51,10.51,0,0,0,58,50.56ZM74.39,57c-1.25-.33-2.42-1-3.77-1s-2.51.69-3.76,1a10.91,10.91,0,0,0,7.53,0ZM85.58,43.4c-.69,1.09-1.71,2-2.12,3.27s-.13,2.6-.2,3.89a10.85,10.85,0,0,0,2.32-7.16Zm-.72-6.77A10.43,10.43,0,0,0,71.8,27.14a10.39,10.39,0,0,0-1.18-3.59,10.61,10.61,0,0,0-1.18,3.59,10.44,10.44,0,0,0-13.06,9.49,10.39,10.39,0,0,0-3.78,0,10.43,10.43,0,0,0,3,2.23,10.44,10.44,0,0,0,5,15.36,10.43,10.43,0,0,0-1.15,3.6,10.54,10.54,0,0,0,3.06-2.21,10.44,10.44,0,0,0,16.15,0,10.54,10.54,0,0,0,3.06,2.21,10.25,10.25,0,0,0-1.16-3.6,10.44,10.44,0,0,0,5-15.36,10.17,10.17,0,0,0,3-2.23,10.62,10.62,0,0,0-3.78,0ZM75.93,49.46a12.73,12.73,0,0,1,1.84,2.17,6.91,6.91,0,0,0,.93.84c.84.33,2.27-1.1,2.49-1.71.52-1.49-.12-3.14.39-4.7s2-2.53,2.45-4c.18-.61-.14-2.61-1-2.85a7,7,0,0,0-1.25.14A12.63,12.63,0,0,1,79,40a1,1,0,1,1-1.31-.84,1,1,0,0,1,1.19.46,12.65,12.65,0,0,1,2.63-1.08,7.16,7.16,0,0,0,1.09-.62c.57-.7-.35-2.51-.87-2.9-1.25-1-3-.86-4.34-1.83s-1.79-2.67-3.09-3.57c-.53-.36-2.53-.68-3,.08A8.46,8.46,0,0,0,71,30.91a12.28,12.28,0,0,1-.21,2.84,1,1,0,0,1,.81,1,1,1,0,0,1-2,0,1,1,0,0,1,.8-1,13.49,13.49,0,0,1-.21-2.84A7.32,7.32,0,0,0,70,29.68c-.48-.76-2.49-.44-3-.08-1.29.9-1.75,2.61-3.08,3.57s-3.1.88-4.35,1.83c-.51.39-1.43,2.2-.86,2.9a7.55,7.55,0,0,0,1.09.62,13.11,13.11,0,0,1,2.63,1.08,1,1,0,1,1,.56,1.45A1,1,0,0,1,62.24,40a12.72,12.72,0,0,1-2.77-.67,6.92,6.92,0,0,0-1.25-.14c-.87.23-1.19,2.24-1,2.85.45,1.51,1.93,2.48,2.44,4s-.12,3.22.4,4.7c.21.61,1.65,2,2.49,1.71a6.91,6.91,0,0,0,.93-.84,12.73,12.73,0,0,1,1.84-2.17,1,1,0,0,1-.08-1.27A1,1,0,0,1,66.65,48a1,1,0,0,1-1,1.72,12.73,12.73,0,0,1-1.5,2.43,7.52,7.52,0,0,0-.51,1.14c-.05.9,1.76,1.82,2.4,1.84,1.57,0,3-1.08,4.59-1.08s3,1.11,4.6,1.08c.64,0,2.45-.94,2.4-1.84a7.52,7.52,0,0,0-.52-1.14,12.2,12.2,0,0,1-1.49-2.43,1,1,0,0,1-1-1.72,1,1,0,0,1,1.33,1.49Zm3.4,3.72A4,4,0,0,0,81.87,51c.54-1.53-.1-3.14.4-4.7s2-2.48,2.44-4A4.11,4.11,0,0,0,84,39a7.9,7.9,0,0,0,3-1.76,7.79,7.79,0,0,0-3.43.31,4.06,4.06,0,0,0-1.3-3.1c-1.29-1-3-.87-4.35-1.83S76.07,29.94,74.74,29a4.12,4.12,0,0,0-3.35-.29,8,8,0,0,0-.77-3.35,8,8,0,0,0-.76,3.35,4.11,4.11,0,0,0-3.35.29c-1.34.92-1.77,2.61-3.09,3.57s-3.06.84-4.35,1.83a4.09,4.09,0,0,0-1.3,3.1,7.78,7.78,0,0,0-3.43-.31,7.94,7.94,0,0,0,3,1.76,4.08,4.08,0,0,0-.77,3.28c.47,1.55,1.94,2.48,2.44,4s-.14,3.17.4,4.7a4.06,4.06,0,0,0,2.54,2.2,8.06,8.06,0,0,0-1.35,3.16,7.83,7.83,0,0,0,2.59-2.26A4.11,4.11,0,0,0,66,55.82c1.62,0,3-1.07,4.59-1.07s3,1.11,4.6,1.07a4.07,4.07,0,0,0,2.87-1.74,7.93,7.93,0,0,0,2.59,2.26,7.92,7.92,0,0,0-1.35-3.16ZM70.62,34.26a.47.47,0,1,0,.47.47.47.47,0,0,0-.47-.47ZM78.46,40a.48.48,0,0,0-.59-.3.47.47,0,0,0-.3.59.46.46,0,0,0,.58.3.47.47,0,0,0,.31-.59ZM62.79,40a.47.47,0,0,0,.89.29.47.47,0,1,0-.89-.29Zm3,9.21a.47.47,0,1,0-.1-.65.46.46,0,0,0,.1.65Zm9.68,0a.47.47,0,0,0,.11-.65.47.47,0,1,0-.76.55.46.46,0,0,0,.65.1Zm.65-20.61c.82,1,1.35,2.24,2.44,3S81,32.5,82.2,33a11.16,11.16,0,0,0-2.65-2.76,10.81,10.81,0,0,0-3.44-1.66ZM70.17,169.82C104.62,149.4,135,113.86,135,55.54a152.34,152.34,0,0,0-2.19-25.81C118,14.74,95.43,5.11,70.17,5.11S22.32,14.74,7.58,29.73a151.31,151.31,0,0,0-2.2,25.81c0,58.32,30.35,93.86,64.79,114.28ZM20.25,61.58H120.1a113.51,113.51,0,0,0-.26-13.46c-.66-6.51-2.51-9-5.53-11.29A72.1,72.1,0,0,0,70.17,22.31,72.09,72.09,0,0,0,26,36.83c-3,2.31-4.88,4.78-5.54,11.29a111.51,111.51,0,0,0-.25,13.46Zm99.52,13.84c.13-1.7.19-3.41.19-5.1,0-.54,0-1.08,0-1.61H113.8l6,6.71ZM53.13,138.77V127.25l-5.48,6.18q2.64,2.77,5.48,5.34ZM42.56,127.66l10.57-11.89V101.6L36.82,120c1.79,2.65,3.71,5.23,5.74,7.71Zm-10-14.46L53.13,90.11V75.94L28,104.17q2.05,4.6,4.58,9Zm-7.71-17,24.45-27.5H36.75L22,85.36A88.56,88.56,0,0,0,24.9,96.21ZM20.57,75.42l6-6.71H20.38v1.61c0,1.69.07,3.4.19,5.1Zm94.87,20.79a86.86,86.86,0,0,0,3-10.85L103.59,68.71H91l24.45,27.5Zm-7.7,17a100.57,100.57,0,0,0,4.57-9L87.21,75.94V90.11l20.53,23.09Zm-10,14.46c2-2.48,4-5.06,5.75-7.71L87.21,101.6v14.17l10.57,11.89ZM87.21,138.77q2.83-2.57,5.49-5.34l-5.49-6.18Z"/></g></g></svg>