<svg xmlns="http://www.w3.org/2000/svg" viewBox="0 0 178.51 154.57"><defs><style>.cls-1{fill:#121309;}.cls-1,.cls-2,.cls-3{fill-rule:evenodd;}.cls-2{fill:#fff;}.cls-3{fill:#f9b10d;}</style></defs><g id="Layer_2" data-name="Layer 2"><g id="Layer_1-2" data-name="Layer 1"><polygon class="cls-1" points="44.41 154.57 133.81 154.57 178.51 77.29 133.81 0.29 44.7 0 0 77.29 44.41 154.57"/><polygon class="cls-2" points="17.3 77.29 53.35 14.71 124.87 14.71 160.92 77 125.16 139.87 53.21 139.87 17.3 77.29"/><polygon class="cls-3" points="54.51 17.59 124.2 17.59 158.42 77.38 123.81 137.37 54.98 137.37 20.19 77.38 54.51 17.59"/><polygon class="cls-1" points="81.13 132.75 70.94 99.49 39.41 80.65 72.67 22.59 82.28 49.89 100.17 49.89 108.82 22.4 140.15 82.57 107.57 99.49 98.05 132.85 81.13 132.75"/><polygon class="cls-2" points="68.3 87.77 68.3 72.72 82.14 87.77 68.3 87.77"/><polygon class="cls-2" points="110.95 87.66 110.95 72.61 97.11 87.66 110.95 87.66"/></g></g></svg>